<svg width="320" height="176" viewBox="0 0 320 176" xmlns="http://www.w3.org/2000/svg">
  <g id="g5344" transform="matrix(1.3333333,0,0,-1.3333333,0,816)">
    <g id="g7001" transform="translate(-2.092635,1.39509)">
      <g id="g5346" transform="translate(123.98731,582.86568)">
        <path d="M 0,0 25.812,-39.004 H -25.812 Z M 86.853,-76.607 17.299,26.482 H -56.579 L -74.334,0.12 h 40.143 l -51.707,-76.727 h -16.597 l -17.755,-26.363 h 86.715 l 17.368,26.363 h -34.53 l 8.614,13.017 H 29.3 l 6.45,9.569 14.947,-22.586 H 31.898 L 14.143,-102.97 h 85.505 l 17.368,26.363 z" style="fill:#c7b784" id="path5348" />
      </g>
      <path d="m 89.27771,539.08058 32.219,48.686 h 4.981 l 32.219,-48.686 z m 119.021,-37.604 -69.41,102.876 -0.145,0.214 h -68.791 l -11.315,-16.8 h 40.147 l -58.152,-86.29 h -16.596 l -11.314,-16.8 h 75.154 l 11.068,16.8 h -34.553 l 14.943,22.58 h 71.41 l 9.029,13.397 23.808,-35.977 h -25.152 l -11.314,-16.8 h 73.944 l 11.068,16.8 z" style="fill:#011e41" id="path5352" />
    </g>
  </g>
</svg>
