<svg xmlns="http://www.w3.org/2000/svg" width="250" height="240.08" viewBox="0 0 250 240.08">
 <g transform="matrix(1.3333 0 0 -1.3333 3.0382 747.54)">
  <path d="m134.28 469.56-23.248-2.8325c11.584 18.532 17.921 35.668 36.597 54.46-5.1487-16.416-9.3433-35.039-13.349-51.628m45.723-63.513c-15.829-8.1725-27.726-6.4601-28.991 3.4064-1.4266 11.037-0.64071 26.564-0.11985 32.485 0.1936 2.1687 0.85044 9.1728 1.2676 11.288 5.4068 1.127 12.63 3.7682 12.63-5.6281 2.7311 1.392 7.7415 5.5014 8.6012 9.8642 4.7684 22.549-18.864 16.635-18.864 16.635 5.7641 26.638 11.961 55.007 25.158 78.416l-13.155 6.3034c-8.9031-6.815-17.871-13.715-25.352-14.831-6.8289-1.6479-48.581-4.9252-45.645 14.188-4.6647-0.37336-7.2875-5.8609-7.2598-10.597 1.5073-20.625 28.313-16.536 44.635-18.555-16.845-21.09-31.648-42.93-45.025-65.544-10.602-2.0282-11.998 11.123-10.194 14.743 0 0-6.9948-1.9636-9.7075-9.6222-3.275-8.0481 0.43329-21.662 11.844-22.423-11.295-19.871-24.84-52.43-52.554-45.924-9.2742 1.9129-20.102 17.615-14.497 26.954 3.4386 4.7823-1.6594 8.1356-7.5088 1.044-14.381-15.87-0.50704-47.567 29.622-45.661 32.395-0.70293 54.253 39.558 66.048 63.479l30.717 4.8284-1.9429-25.064c-3.8742-62.331 40.989-38.272 40.989-38.272 6.2366 2.8302 12.768 9.6544 12.607 17.606-0.33649 2.6781-1.8184 1.6386-3.305 0.8804" fill="#b30838"/>
 </g>
</svg>