<svg width="126" height="247" viewBox="0 0 126 247" xmlns="http://www.w3.org/2000/svg">
 <g transform="matrix(1.3333 0 0 -1.3333 0 864)">
  <g>
   <path d="m92.918 615.98c-25.541-10.926-32.668-29.777-32.684-29.817l-0.29333-0.7746 0.71702 0.42044c2.0479 1.2113 5.7797 3.2418 8.3381 4.2924-2.9822-6.3506-7.3386-18.586-9.0986-27.268-0.1521-0.77243-0.41283-1.4091-0.54863-2.0245-0.08148-0.39436-0.15753-0.64478-0.31506-0.94625-0.18469-0.35634-0.52147-0.64478-0.91801-0.9593-0.32049-0.2716-2.0642-1.1244-2.0642-1.1244-0.01132-8e-3 -0.39654-0.21022-0.8148-0.40957-0.21185-0.10163-0.42913-0.2037-0.60838-0.27758-0.01132-5e-3 -0.02173-9e-3 -0.03259-0.013l-0.09234 1.5851c-0.59209 14.906-0.78764 24.259-0.78764 31.255 0 7.482 0.22271 12.267 0.43456 18.282 1.6513-1.345 6.6814-5.5124 6.6868-5.5146l0.53777-0.4476-0.05975 0.69801c-1.0049 11.496-4.3945 22.496-6.6977 28.766-0.75505 2.0582-1.521 3.8616-2.2543 5.4211-2.4933 5.2924-4.6661 9.4555-4.7693 9.6548l-0.26074 0.49431-0.24987-0.49431c-0.10864-0.19936-2.276-4.3624-4.7693-9.6548-0.73875-1.5595-1.4992-3.363-2.2597-5.4211-2.3032-6.2702-5.6927-17.27-6.6977-28.766l-0.05975-0.6915 0.53777 0.44108c0.0057 5e-3 5.0355 4.1696 6.6868 5.5146 0.21185-6.0154 0.43999-10.8 0.43999-18.282 0-6.9959-0.20098-16.349-0.78764-31.257l-0.09778-1.5829c-0.5269 0.21457-1.4449 0.69367-1.4449 0.69367-0.01132 0-1.7491 0.85934-2.075 1.1309-0.39654 0.31452-0.72789 0.60296-0.92344 0.9593-0.1521 0.30147-0.22814 0.55189-0.30962 0.94625-0.1358 0.61545-0.39654 1.2521-0.54863 2.0245-1.76 8.6825-6.111 20.918-9.0986 27.268 2.5585-1.0506 6.2903-3.081 8.3436-4.2924l0.71159-0.42261-0.29333 0.77677c-0.0163 0.0402-7.1377 18.891-32.684 29.817l-0.82566 0.34764 0.46172-0.76373c0.00566-0.0147 3.1451-5.2495 6.6868-12.12 3.5417-6.8688 7.4799-15.358 9.0714-21.794 1.4721-5.979 6.0241-25.344 6.0187-41.75 0-1.6508-0.04346-3.2695-0.14666-4.8443l0.55406-0.15264c0 7e-3 0.86912 1.6866 1.961 3.6454 0.92887 1.6633 2.0261 3.5352 2.879 4.7166l5.4211-42.757 0.58122 0.0169 2.0424 32.009 10.592-69.01h0.57579l10.582 69.014 2.0479-32.012 0.58122-0.0169 5.4211 42.757c0.85282-1.1815 1.9555-3.0533 2.879-4.7166 1.0973-1.9588 1.961-3.6389 1.961-3.6454l0.55406 0.15264c-0.10321 1.5747-0.14666 3.1935-0.14666 4.8464 0 16.404 4.5466 35.769 6.0187 41.748 1.5916 6.4358 5.5352 14.926 9.0769 21.794 3.5471 6.8704 6.6759 12.105 6.6814 12.12l0.46715 0.76808z" fill="#7d2248"/>
   <path d="m47.332 641.96-0.070312-0.12891c-1.9935-3.471-3.4881-7.6909-4.6831-10.627-0.83653-2.056-1.5255-4.0596-2.1284-6.1025-1.4232-4.8274-2.3735-9.9029-3.6826-16.591l-0.060059-0.3164 0.22852 0.22265c0.24987 0.24824 0.50452 0.48177 0.7544 0.71045 1.0592 0.96799 2.0963 1.7863 3.0469 2.4653 0.68443 0.49703 1.3314 0.91304 1.9072 1.2612 1.0918 0.66216 1.9441 1.0669 2.3569 1.2217-0.29876-0.31017-1.3571-1.3828-2.0361-2.0786l-0.027832-0.03076v-0.03955-0.0044c0-2.1962 0.022645-5.1127 0.049805-8.4844 0.08691-10.183 0.20635-26.831-0.29883-39.356-0.09778-2.3618-0.21222-4.5767-0.35889-6.5713-0.04889-0.68117-0.098455-1.3437-0.1582-1.9717-0.03802-0.50518-0.14118-0.86757-0.4834-1.2598-0.02716-0.032-0.043582-0.06678-0.076172-0.09668-0.36938-0.39274-0.79737-0.47461-1.1016-0.47461h-0.027832c-0.30962 9e-3 -0.55878 0.09394-0.71631 0.16992l-1.875 0.85693-3.9375 1.7974c-0.1521 0.0848-0.54432 0.30369-0.81592 0.67089-0.23901 0.31614-0.39545 0.58368-0.48779 1.0166-0.13037 0.6149-0.28278 1.3598-0.45117 2.2148-1.521 7.4793-4.5907 22.63-9.1699 31.08-0.21185 0.39002-0.80866 1.4152-1.1074 1.916 0 0 1.4613-0.414 2.2163-0.68995 2.1348-0.77839 4.313-1.8372 5.8828-2.5781l-1.4282 1.7036-0.021973 0.01465c-6.0621 8.3859-10.723 12.682-18.621 16.871-0.89085 0.47095-1.8036 0.94207-2.7759 1.4136l-0.33105 0.1582 0.20068-0.30029c12.901-19.702 16.274-41.523 18.838-62.852l0.076172-0.62402 2.8682 2.4976 13.047-6.6562 0.027832-7.3506h5.4316 5.4434l0.026367 7.3506 13.049 6.6562 2.8682-2.4976 0.070312 0.62402c2.5639 21.329 5.9428 43.15 18.844 62.852l0.19482 0.30029-0.3252-0.1582c-0.97233-0.4715-1.885-0.94262-2.7759-1.4136-7.8981-4.1886-12.565-8.4847-18.627-16.871l-0.016113-0.01465-1.4341-1.7036c1.5753 0.74093 3.7539 1.7997 5.8887 2.5781 0.75505 0.27595 2.2104 0.68995 2.2104 0.68995-0.30419-0.50083-0.89557-1.526-1.1074-1.916-4.5792-8.4495-7.6485-23.6-9.1641-31.08-0.17382-0.855-0.32123-1.5999-0.45703-2.2148-0.08691-0.43293-0.24439-0.70047-0.4834-1.0166-0.27703-0.3672-0.66236-0.58615-0.81445-0.67089l-3.9434-1.7974-1.875-0.85693c-0.15753-0.0761-0.40668-0.16123-0.71631-0.16992h-0.027832c-0.29333 0-0.72779 0.08191-1.0972 0.47461-0.03802 0.0299-0.053406 0.06468-0.080566 0.09668-0.34222 0.39219-0.44641 0.75458-0.479 1.2598-0.05975 0.62794-0.11371 1.2905-0.1626 1.9717-0.14123 1.9946-0.25525 4.2095-0.35303 6.5713-0.50518 12.525-0.38574 29.173-0.29883 39.356 0.02716 3.3716 0.049375 6.2882 0.043945 8.4844v0.0044 0.03955l-0.027832 0.03076c-0.679 0.69584-1.7319 1.7684-2.0361 2.0786 0.41826-0.15481 1.2651-0.55952 2.3569-1.2217 0.57579-0.34819 1.2218-0.7642 1.9116-1.2612 0.9506-0.679 1.9832-1.4973 3.0425-2.4653 0.24987-0.22868 0.50495-0.46221 0.76025-0.71045l0.22266-0.22265-0.060059 0.3164c-1.3091 6.6879-2.2594 11.763-3.6826 16.591-0.60295 2.043-1.2923 4.0465-2.1343 6.1025-1.1896 2.9365-2.6891 7.1564-4.6772 10.627l-0.076172 0.12891zm-5.4595-108.47v-3.7456h10.929v3.7456h-5.4639-5.4653zm1.1792-5.2046v-2.7466h4.2803 4.292v2.7466h-8.5723zm-1.1733-4.2041 0.021973-0.15528 0.35889-3.5596h5.0728 5.0845l0.35889 3.5596 0.016113 0.15528h-0.027832-5.4316-5.4536zm0.5874-5.1753 4.8662-43.925 4.8779 43.925h-4.8779-4.8662z" fill="#ffc72c"/>
  </g>
 </g>
</svg>
