<?xml version="1.0" encoding="UTF-8" standalone="no"?>
<svg xmlns:rdf="http://www.w3.org/1999/02/22-rdf-syntax-ns#" xmlns="http://www.w3.org/2000/svg" xml:space="preserve" height="146.75" viewBox="0 0 137.465 146.75" width="137.46" version="1.1" xmlns:cc="http://creativecommons.org/ns#" xmlns:xlink="http://www.w3.org/1999/xlink" xmlns:dc="http://purl.org/dc/elements/1.1/"><g transform="matrix(1.25 0 0 -1.25 95.467 1405.6)"><g><path d="m-21.334 1007.8c-0.928 0.1-3.788 5.971-3.788 5.971-1.756-0.728-2.559-3.437-2.559-3.437s-3.763 1.43-3.612 6.071c-0.677-0.176-1.405-1.405-1.606-2.71-1.981 0.602-2.483 4.717-1.605 6.096-1.756 3.738-2.96 7.677-5.067 11.289-3.211 2.66-7.677 0.678-10.662-1.028-0.903-0.678-2.107-1.43-2.483-2.584-0.402 0.201-0.753 0.477-0.904 1.555 0.051 6.222-4.415 6.147-8.278 12.268-0.351 0.577-0.477 1.078-0.953 1.931-0.803-0.501-1.756-2.91-1.756-2.91-4.566 3.111-5.168 8.304-3.688 10.988-1.279-0.602-1.931-2.182-2.985-3.161-1.38 1.455-1.43 2.283-1.606 3.613 0.201 7.099 9.358 13.045 14.701 15.403 8.429 3.763 11.138 3.336 12.292 3.035 2.985-0.827 4.365-4.214 7.074-5.619 2.007-1.48 5.143-1.38 7.225-0.075 0.326 0.2 0.727 0.351 1.028 0.652-6.397-0.151-11.213 3.713-15.879 7.551-13.998-0.025-27.143-12.317-27.143-12.317-0.301 2.709 0.025 8.955 3.612 13.019-0.752 0.402-3.687-1.279-5.544-3.386 1.782 5.895 3.312 11.238 11.314 16.632 1.38 1.631 0.953 4.415 0.376 5.319-2.358 5.092-3.236 11.163-1.655 16.757 0.978 5.043 5.519 14.726 5.795 14.852 0.602-0.327 4.992-5.921 10.661-7.802 3.813-1.255 7.702-2.961 10.21-6.723 2.734 0.401 3.863 3.035 5.544 4.641 2.509-1.405 4.44-3.362 7.526-2.158 2.559 1.079 2.935 3.061 4.415 4.591 1.455-1.53 1.856-3.462 4.415-4.566 3.086-1.204 5.017 0.753 7.526 2.158 1.681-1.606 2.81-4.215 5.544-4.616 2.508 3.737 6.397 5.443 10.21 6.723 5.669 1.881 10.059 7.451 10.661 7.777 0.276-0.126 4.817-9.784 5.795-14.852 1.581-5.569 0.703-11.64-1.655-16.757-0.577-0.904-1.004-3.688 0.376-5.319 8.002-5.368 9.532-10.712 11.314-16.607-1.857 2.082-4.792 3.763-5.544 3.361 3.587-4.038 3.913-10.285 3.612-12.994 0 0-13.095 12.342-27.143 12.292-4.666-3.838-9.482-7.676-15.879-7.551 0.301-0.301 0.702-0.426 1.028-0.627 2.082-1.305 5.218-1.405 7.225 0.05 2.709 1.405 4.089 4.792 7.074 5.619 1.154 0.301 3.888 0.703 12.342-3.06 5.319-2.358 14.45-8.279 14.651-15.353-0.176-1.355-0.226-2.158-1.606-3.613-1.054 0.954-1.706 2.534-2.985 3.136 1.48-2.684 0.878-7.877-3.688-10.963 0 0-0.953 2.409-1.756 2.91-0.476-0.878-0.602-1.379-0.953-1.931-3.863-6.146-8.329-6.071-8.278-12.293-0.151-1.078-0.502-1.329-0.904-1.53-0.376 1.129-1.58 1.907-2.483 2.559-2.985 1.706-7.451 3.688-10.662 1.054-2.107-3.613-3.311-7.577-5.067-11.315 0.878-1.379 0.376-5.468-1.605-6.096-0.201 1.305-0.929 2.559-1.606 2.71 0.151-4.616-3.612-6.071-3.612-6.071s-0.803 2.734-2.559 3.437c0 0-2.835-5.896-3.788-5.996"/><path d="m21.23 9.4785c-2.602 5.4565-4.076 11.414-4.107 17.936 0.125 6.21 4.107 11.196 2.916 17.563 1.913-0.815 3.607-1.098 5.52-1.004 2.633-5.833-2.447-11.917-5.676-16.182-0.158-0.281 2.695 1.726 3.98 1.256-5.298-5.08-3.886-10.788-2.443-13.485 0.125 1.16 0.406 1.818 1.158 2.54 3.731 3.951 8.875 5.99 10.6 11.007 0.282-8.31-8.529-13.045-11.948-19.63zm94.51 0.8785c-3.42 6.617-12.23 11.319-11.95 19.661 1.73-5.018 6.87-7.088 10.6-11.038 0.76-0.69 1.04-1.379 1.16-2.507 1.45 2.665 2.86 8.371-2.44 13.451 1.28 0.501 4.14-1.535 3.98-1.223-3.23 4.265-8.31 10.349-5.68 16.151 1.92-0.094 3.61 0.185 5.52 1.002-1.19-6.367 2.79-11.321 2.92-17.561-0.03-6.523-1.51-12.448-4.11-17.936zm-12.29 5.518c-4.015 2.666-13.985 5.207-10.034 22.359 0.188 0.69-2.98-0.91-4.643 0.282 3.607 2.633 6.743 6.272 8.844 9.972 2.503-1.692 5.673-3.073 8.433-3.638-6.52-7.182-8.747-17.153-5.3-24.397 0.75-1.567 1.67-3.135 2.7-4.578zm-70.177 0.125c1.034 1.442 1.943 3.011 2.696 4.58 3.449 7.244 1.253 17.215-5.301 24.397 2.76 0.565 5.928 1.944 8.436 3.636 2.101-3.7 5.237-7.337 8.843-9.97-1.662-1.193-4.797 0.406-4.64-0.284 3.951-17.152-6.02-19.693-10.034-22.359zm35.495 6.398s-4.232 7.872-13.891 2.258c-1.316 1.663-3.041 3.418-5.236 4.045 0.47 2.54 0.47 2.603 0.218 5.738 1.507-0.815 2.415-2.069 3.668-3.386 1.507 0.313 1.633 3.073 3.514 2.791 2.101-1.6 4.013-3.638 6.521-4.235 0.878 1.255-1.631 1.883-1.003 3.452 1.38 1.033 2.854 1.818 4.14 3.072 0.344 0.314 0.218 0.879-0.189 1.129-15.271-2.665-24.647 14.645-25.932 17.09-5.205-3.073-10.757-6.241-17.529-4.547-5.143 1.38-9.564 4.987-13.17 9.408 1.254-0.408 3.104 0.093 5.142 1.725-3.261 3.103-4.672 6.051-5.7065 9.626 3.5745-2.101 10.6-8.341 27.47-8.341-0.846-1.757-1.725-3.198-1.694-4.703 0.47-0.439 0.251-0.253 1.191-0.817 2.447 4.139 6.399 8.09 10.662 10.254 3.137 1.098 6.021 2.762 9.596 2.793 4.233-0.408 7.148 3.071 9.846 6.02-0.095 0.721 0.691 1.474-0.313 1.724-1.536-0.501-3.2-0.658-4.799-1.002-3.356 3.041-7.243 5.391-11.947 4.514-4.766-1.129-9.282-3.292-12.637-7.432-0.626 0.628-1.16 1.287-1.724 1.914-2.259 2.917-4.798 5.894-5.299 9.407 2.603-0.472 7.996-0.439 10.756 2.728-1.004 0.314-5.112 3.323-6.022 7.432 1.819-0.879 3.762-1.945 9.721-3.92 0.25 0.125 0.627 0.44 0.502 0.691-1.066 2.571-3.481 5.173-1.818 8.244 1.756 3.29 8.968 4.39 9.845 5.24 1.505 3.48 2.509 6.49 3.889 9.88 0.25 0.81 1.347 1.56 2.006 1.94 3.386 0.85 6.805 1.19 10.16 1.19 3.386 0 6.93-0.37 10.285-1.22 0.659-0.38 1.757-1.13 2.008-1.91 1.379-3.39 2.382-6.43 3.887-9.91 0.879-0.85 8.124-1.95 9.879-5.24 1.631-3.073-0.752-5.674-1.85-8.245-0.125-0.251 0.251-0.566 0.502-0.691 5.958 1.975 7.904 3.041 9.754 3.919-0.94-4.077-5.02-7.117-6.024-7.431 2.728-3.136 8.154-3.2 10.724-2.729-0.5-3.512-3.04-6.49-5.3-9.406-0.53-0.627-1.09-1.287-1.72-1.914-3.326 4.14-7.842 6.303-12.608 7.432-4.735 0.877-8.623-1.474-11.978-4.516-1.569 0.345-3.263 0.503-4.799 1.004-1.004-0.25-0.219-1.003-0.281-1.725 2.665-2.947 5.58-6.427 9.814-6.019 3.606-0.031 6.491-1.696 9.627-2.793 4.265-2.164 8.183-6.115 10.665-10.254 0.91 0.564 0.72 0.378 1.16 0.816 0.06 1.505-0.85 2.978-1.66 4.735 16.96 0 23.86 6.209 27.46 8.31-1.06-3.575-2.44-6.523-5.74-9.627 2.04-1.631 3.89-2.132 5.15-1.724-3.61-4.422-8.03-8.029-13.17-9.409-6.78-1.693-12.32 1.475-17.5 4.547-1.285-2.445-10.693-19.755-25.933-17.09-0.439-0.251-0.564-0.815-0.219-1.128 1.285-1.254 2.759-2.039 4.139-3.073 0.627-1.568-1.882-2.197-1.004-3.451 2.508 0.596 4.423 2.634 6.523 4.234 1.881 0.282 2.007-2.477 3.512-2.791 1.254 1.318 2.165 2.572 3.67 3.387-0.189-3.261-0.253-3.323 0.218-5.738-2.163-0.626-3.918-2.382-5.205-4.045-9.657 5.614-13.923-2.227-13.923-2.227zm-20.633 86.702c2.132 6.02 4.893 11.83 7.119 17.85 1.035 2.63 2.695 2.91 4.482 4.95 0.69 0.85 1.412 1.82 1.444 2.79 0.972-0.91 6.051-0.85 7.619 2.26 1.567-3.11 6.617-3.17 7.59-2.26 0.031-0.97 0.782-1.94 1.441-2.79 1.819-2.04 3.449-2.32 4.484-4.95 2.227-6.02 4.987-11.83 7.12-17.85-0.91 0-1.915 0.22-2.291 1.23-1.098 2.79-6.803 16.15-8.748 18.97 0 0-1.662 3.57-9.596 3.57s-9.594-3.57-9.594-3.57c-1.976-2.82-7.684-16.18-8.75-18.97-0.376-1.01-1.379-1.23-2.32-1.23z" transform="matrix(.8 0 0 -.8 -76.374 1124.5)" fill="#cc092f"/><path d="m57.73 120.89c0.909 1.79 1.82 3.61 2.76 5.27l1.946-3.57c0.376 0.44 1.566 1.38 2.57 2.16 0.25-0.37 1.192-1.28 1.756-1.91 0.721 0.63 1.692 1.19 2.037 1.54 0.345-0.35 1.318-0.91 2.039-1.54 0.564 0.63 1.506 1.54 1.756 1.91 0.972-0.78 2.194-1.72 2.539-2.16l1.976 3.57c0.909-1.66 1.851-3.48 2.729-5.27-4.264 1.13-6.524 1.1-11.039 1.07-4.515 0.03-6.805 0.06-11.069-1.07zm12.481 7.12c-0.314 0.38-0.753 0.57-1.412 1.51-0.69-0.94-1.097-1.07-1.41-1.48-0.909 1.01-0.847 1.04-1.6 1.76-0.91-0.72-1.127-0.85-2.006-1.54l-1.316 1.35c2.257 1.85 4.669 1.44 6.332 1.79 1.662-0.35 4.076 0 6.303-1.82l-1.317-1.38c-0.879 0.69-1.096 0.82-1.974 1.57-0.784-0.75-0.723-0.88-1.6-1.76z" transform="matrix(.8 0 0 -.8 -76.374 1124.5)" stroke="#fff" stroke-width=".2" fill="#fefefe"/><path d="m60.051 55.199c1.066 2.101 0.941 4.326 0.941 4.326-4.704-4.766-19.506-2.005-19.506-2.005 3.858 1.661 14.269 0.124 20.698 12.041 3.512-2.32 3.323-11.853-2.133-14.362zm17.31 0.094c-5.456 2.476-5.645 12.041-2.132 14.33 6.428-11.916 16.837-10.38 20.695-12.041 0 0-14.8-2.76-19.504 2.006 0 0-0.125-2.226 0.941-4.295zm-12.922 26.283c-4.18 0.034-6.924 4.071-9.091 7.363-0.252 0.408-0.095 1.004 0.502 0.911 2.602-1.757 4.984-4.14 8.121-4.61 1.912-0.376 3.574 0.219 4.828 1.473 1.254-1.254 2.886-1.849 4.83-1.473 3.136 0.47 5.519 2.853 8.09 4.61 0.596 0.093 0.752-0.503 0.502-0.911-2.447-3.762-5.707-8.497-10.975-7.119-0.752 0.127-1.506 0.66-2.447 1.287-0.973-0.627-1.724-1.16-2.477-1.287-0.658-0.172-1.285-0.249-1.883-0.244zm0.442 9.209c-3.761 0.016-6.238 3.627-8.186 6.59-0.22 0.376-0.061 0.91 0.44 0.848 2.351-1.6 4.484-3.733 7.306-4.141 1.725-0.345 3.229 0.19 4.358 1.318 1.129-1.128 2.603-1.663 4.328-1.318 2.822 0.408 4.954 2.541 7.307 4.141 0.532 0.062 0.659-0.472 0.439-0.848-2.226-3.386-5.144-7.62-9.879-6.365-0.69 0.094-1.349 0.564-2.195 1.16-0.878-0.596-1.535-1.066-2.225-1.16-0.592-0.157-1.156-0.227-1.693-0.225zm3.918 10.195c-0.784 0-1.693 0.25-2.477 0.72-1.85 1.1-3.543 0.04-5.519 0.41-1.223 0.54-2.539 1.54-3.229 2.79-1.285 3.73 1.255 6.37 2.822 9.13 1.505 1.66 3.889 1.31 5.895 0.78 0.784-0.81 1.599-1.1 2.508-1.13 0.877 0.03 1.726 0.32 2.51 1.13 2.006 0.53 4.389 0.88 5.894-0.78 1.536-2.76 4.107-5.4 2.791-9.13-0.659-1.25-2.006-2.25-3.197-2.79-1.976-0.37-3.67 0.69-5.52-0.41-0.783-0.47-1.726-0.72-2.478-0.72z" transform="matrix(.8 0 0 -.8 -76.374 1124.5)" stroke="#000" stroke-width=".2"/></g></g></svg>
