<svg xmlns="http://www.w3.org/2000/svg" height="244.04" viewBox="0 0 210.00053 244.03882" width="210"><g transform="matrix(1.25 0 0 -1.25 -695.14 638.15)"><g transform="translate(1.4218 -.0096114)"><path d="m721.8 504.94h-145.59l-4.6895 4.6924h-6.7529l-0.39621-0.39717c-0.71875 0.26127-1.4844 0.39717-2.2759 0.39717-1.7897 0-3.4722-0.69768-4.7374-1.9639-1.8921-1.8892-2.4146-4.6417-1.5629-7.0113l-0.39909-0.39813v-6.7692l4.6838-4.6809 0.01 0.0124v-59.949c0-14.218 2.3898-27.987 6.7998-40.773l-6.9855-6.9855 2.4261-1.9323c1.6193-1.2901 3.297-2.5103 5.036-3.6483 0.006-0.006 0.0134-0.0115 0.021-0.0144 0.66802-0.43833 1.3456-0.86708 2.0299-1.2796 0.0191-0.0105 0.0373-0.022 0.0546-0.0345 0.67472-0.40578 1.3561-0.802 2.0443-1.1858 0.0287-0.0143 0.0536-0.0287 0.0794-0.0431 0.68142-0.379 1.3676-0.74554 2.0653-1.1006 0.0297-0.0144 0.0603-0.0287 0.09-0.0431 0.0431-0.0258 0.0919-0.0488 0.1359-0.0718 13.636-26.322 36.478-46.618 64.443-55.023l2.3371-0.70439 0.17609 0.0421 0.2852-0.0746 2.43 0.73406c21.172 6.3672 39.41 19.548 52.938 36.999h11.948 2.8472v14.925l-3.2233 3.2281c8.7847 17.009 13.732 36.532 13.729 56.986v76.067z" fill="#2c2a29"/><path d="m8.377 4.6738c-1.2313 0-2.4628 0.46834-3.4043 1.4062-1.8782 1.8806-1.8782 4.928 0 6.8086l-1.4102 1.412v5.5059l2.2891 2.2871 3.0293-3.0293 21.791 21.791c-3.9598 4.4969-7.4866 9.317-10.553 14.396l3.8984 3.8984c4.784-8.1852 10.82-15.675 17.979-22.199 5.4372-4.9539 11.367-9.2148 17.664-12.734l-3.918-3.916c-5.6478 3.2671-11.005 7.1066-15.99 11.486l-21.797-21.797 3.0215-3.0195-2.2988-2.2969h-5.4863l-1.4102 1.4102-0.002-0.00391c-0.9403-0.93791-2.171-1.4062-3.4023-1.4062zm15.166 5.8633 5.5957 5.5938h169.7v85.924c0 23.035-5.3193 45.057-14.814 64.424l4.166 4.1641c10.402-20.526 16.246-44.005 16.246-68.588v-91.518h-180.9zm-14.111 14.121v77.396c0 16.761 2.7185 33.009 7.7441 48.158l4.4453-4.4453c-4.286-13.81-6.588-28.54-6.588-43.71v-71.799l-5.6016-5.5977zm98.904 3.1836c-16.628-0.2907-32.179 4.5242-45.154 13l20.979 20.98c5.9265-2.925 12.409-4.6998 19.129-5.1699 1.5145-0.1065 3.0412-0.14589 4.5449-0.11719 12.07 0.20935 23.724 4.6753 32.816 12.578 1.1425 0.99652 2.2655 2.0576 3.3242 3.1582 9.5705 9.9078 14.709 22.932 14.469 36.668-0.13639 7.6815-1.9641 15.13-5.291 21.875l20.982 20.98c7.9758-12.207 12.724-26.73 13-42.354 0.77162-44.223-34.576-80.829-78.799-81.6zm-44.738 0.318c-6.439 3.459-12.491 7.723-18.004 12.746-7.109 6.475-13.042 13.972-17.662 22.168l2.625 2.6211c3.882-7.088 8.781-13.635 14.595-19.439v0.0039l29.162 29.164 6.8086-6.8027-24.104-24.105-4.679-4.68c4.363-3.4765 9.016-6.4981 13.895-9.0391l-2.6367-2.6367zm43.314 11.727c0.40435 0 0.80734 0.0067 1.2129 0.01172 1.1604 0.02275 2.3152 0.07535 3.4648 0.1543l-1.2773 13.014c-0.80034-0.049-1.614-0.08203-2.418-0.09766-0.32779-0.0012-0.65388-0.0078-0.98047-0.0078-1.0791 0-2.1667 0.03345-3.2422 0.0957l-1.27-13.018c1.4942-0.0945 3.0052-0.15234 4.5078-0.15234zm-8.6133 0.55078 1.2637 13.016c-2.2036 0.2943-4.3841 0.72149-6.5195 1.2754l-3.765-12.526c2.9489-0.78956 5.9602-1.378 9.0156-1.7656zm17.396 0.02148c3.0458 0.39478 6.0547 0.99937 9 1.7949l-3.7656 12.521c-2.1378-0.56346-4.3117-0.99541-6.5117-1.2969l1.2773-13.02zm-30.363 2.9297 3.7617 12.529c-1.4164 0.48331-2.808 1.0241-4.1777 1.6211l-9.7891-9.7871c3.2755-1.7311 6.6891-3.1909 10.205-4.3633zm43.316 0.0625c2.901 0.9738 5.7315 2.1461 8.4746 3.5039l-6.1133 11.555c-1.993-0.96781-4.0397-1.8118-6.1309-2.5332l3.7695-12.525zm12.119 5.4453c2.645 1.5145 5.1992 3.2138 7.6289 5.0801l-8.2344 10.154c-1.767-1.3399-3.6107-2.5644-5.5176-3.6758l6.123-11.559zm-95.615 7.3477v3.627l22.355 22.359 1.8145-1.8125-24.168-24.174zm106.44 0.34375c1.499 1.3052 2.9608 2.6921 4.3438 4.1289 0.73812 0.76085 1.4522 1.5393 2.1484 2.3301l-10.047 8.3711c-0.49169-0.54791-0.98906-1.0919-1.5059-1.623-1.0169-1.0564-2.089-2.0791-3.1836-3.0469l8.2441-10.16zm-44.66 6.8887c-7.1767 0-13.963 1.6966-19.967 4.7148-0.26079 0.1292-0.51925 0.26672-0.78125 0.4043l-5.9434 5.9414-47.387 47.385h10.084l17.451-17.449h5.7988 18.52 0.002 5.0352l0.002 0.008-0.02734 0.0801c-0.36368 1.2059-0.86966 2.3539-1.4941 3.4258-3.1559 5.4169-9.4111 8.9648-16.344 8.9648h-16.41l-28.832 28.836-8.1836 8.1816c10.157 7.7976 22.568 12.893 36.242 14.088 2.0301 0.17825 4.092 0.26758 6.127 0.26758 17.27 0 33.868-6.4359 46.742-18.125 6.2017 8.4316 16.196 13.918 27.443 13.918 2.8688 0 5.6527-0.35937 8.3145-1.0293l-15.61-15.62c14.15-7.47 23.79-22.32 23.79-39.43 0-24.612-19.95-44.563-44.56-44.563zm53.789 2.7461c1.8902 2.4189 3.607 4.9468 5.1406 7.5703l-11.484 6.2773c-1.1186-1.8878-2.3567-3.718-3.7109-5.4766l10.055-8.3711zm7.1094 11.195c1.3793 2.7264 2.5688 5.5434 3.5605 8.4277l-12.48 3.9355c-0.72855-2.0792-1.5854-4.1104-2.5664-6.0879l11.486-6.2754zm4.7852 12.367c0.8111 2.9262 1.4248 5.9161 1.834 8.9512l-13 1.4473c-0.31224-2.1892-0.75175-4.3411-1.3164-6.4609l12.482-3.9375zm2.2715 13.055c0.15911 2.1091 0.22231 4.2468 0.18164 6.3906-0.0144 0.91279-0.0509 1.8237-0.10352 2.7305l-13.035-1.0938c0.0359-0.62089 0.0587-1.2436 0.0684-1.8633 0.0299-1.5851-0.015-3.1556-0.11914-4.7168l13.008-1.4473zm-13.316 12.137 13.033 1.0938c-0.36009 3.0326-0.91353 6.028-1.666 8.959l-12.576-3.5938c0.53116-2.1187 0.93263-4.2745 1.209-6.459zm-2.3574 10.422 12.576 3.5938c-1.2059 3.7421-2.7335 7.37-4.5723 10.848l-9.7871-9.7832c0.66276-1.5253 1.2604-3.0779 1.7832-4.6582zm-9.6894 11.625c-1.5732 2.3113-3.3507 4.5057-5.3066 6.5586-0.28713 0.30148-0.57574 0.59255-0.86524 0.88086l45.385 45.381h-9.9824l-37.953-37.947v3.6309l36.887 36.885h13.615v-0.002-0.002-2.5644-0.99805-10.047l-41.607-41.605-0.17187-0.16992zm-136.02 21.893-2.5352 2.5371c11.887 9.4568 26.576 15.652 42.809 17.074 19.458 1.7024 37.925-3.7381 52.807-14.133 7.7162 6.3955 17.625 10.236 28.424 10.236 5.8871 0 11.498-1.144 16.643-3.2148l-2.7676-2.7656c-4.3342 1.5624-9.006 2.418-13.875 2.418-10.904 0-20.826-4.2819-28.18-11.248-13.256 10.01-29.341 15.451-46.006 15.451-2.2323 0-4.4965-0.0994-6.7324-0.29687-15.365-1.3434-29.286-7.1628-40.586-16.059zm93.424 12.543-5.6641 17.428-18.32 0.004 14.82 10.766 0.0039 0.004-5.666 17.426 14.826-10.773 14.832 10.777-5.6641-17.434h-0.004l14.818-10.77h-18.314l-5.668-17.428zm-78.445 4.4648c16.803 30.057 43.654 53.103 76.201 62.887l2.0137 0.60547 0.14258-0.0312 0.23632 0.0566 2.0918-0.63086c25.852-7.7712 48.112-23.911 64.6-45.279l-3.9883-3.9844c-15.828 20.746-37.279 36.405-62.225 43.906l-0.60156 0.18165-0.0469-0.0137-0.0215 0.008-0.58985-0.17969c-29.058-8.7343-53.381-28.546-69.59-54.578-0.37804-0.11487-0.75522-0.22998-1.1309-0.34961-0.05738-0.0204-0.11298-0.036-0.16797-0.0527-0.43545-0.13998-0.8662-0.27788-1.2969-0.42383-0.02038-0.005-0.04616-0.0125-0.06641-0.0215-0.46418-0.15553-0.92733-0.31734-1.3867-0.48242-0.0275-0.009-0.05453-0.0221-0.08203-0.0293-0.44024-0.15671-0.88366-0.31972-1.3203-0.48242-0.02637-0.0113-0.05342-0.0225-0.07617-0.0332-0.46418-0.17585-0.92701-0.35093-1.3828-0.53515-0.0088 0-0.01436-0.005-0.02148-0.01-0.43186-0.17227-0.86274-0.34789-1.291-0.52734z" transform="matrix(.8 0 0 -.8 555.4 510.52)" fill="#d3bc8d"/></g></g></svg>
