<?xml version="1.0" encoding="UTF-8" standalone="no"?>
<svg xmlns:rdf="http://www.w3.org/1999/02/22-rdf-syntax-ns#" xmlns="http://www.w3.org/2000/svg" xml:space="preserve" height="148.41" viewBox="0 0 105.06381 148.4075" width="105.06" version="1.1" xmlns:cc="http://creativecommons.org/ns#" xmlns:xlink="http://www.w3.org/1999/xlink" xmlns:dc="http://purl.org/dc/elements/1.1/"><g transform="matrix(1.25 0 0 -1.25 -320.29 958.26)"><g transform="translate(.21587 -.21587)"><path d="m271.1 754.36v4.915l7.662-7.47v14.067l52.024-58.391s7.176-8.427 7.176-16.981c0-6.186-1.142-9.56-4.616-12.632 1.952-3.644 7.769-15.956 5.07-29.122l-2.988 2.419s-11.549-4.127-31.953 3.449c0 0-1.91-1.401-5.278-1.401h-21.367s-5.38 0.16-7.644 3.514l-10.709 17.81s-1.81 2.607-1.81 9.433v37.835h8.048s-0.251 1.053-0.251 2.858v8.229l0.047 8.163v9.859l6.589-6.531v1.557 8.42z" fill="#fff"/><path d="m327.52 709.62c6.121-6.824 10.935-16.473 7.388-25.785-0.716-1.812-2.195-3.456-3.757-4.762 4.138-8.008 7.051-17.066 5.699-26.885l-22.796 18.08c-1.395 0.631-2.87 1.303-4.476 1.01l5.275-4.422 17.099-13.866v-0.212c-10.383-1.599-20.18 1.182-29.256 4.258-1.223-0.802-2.49-1.35-3.969-1.518-6.374-0.167-15.408-0.083-22.377-0.083-3.122 0.42-6.581 1.516-7.894 4.847l-9.582 16.284c-1.142 2.445-1.562 5.626-1.477 8.535l0.081 36.444h8.151l-0.422 3.795v23.51l6.61-6.551 0.012 14.916 7.584-7.586 0.007 13.869 48.1-53.878z"/><path d="m30.219 6.873v16.5l-9.3242-8.3242-0.01367 18.734-8.4199-8.4492-0.0098 23.621s-0.24391 6.1102 1.0586 8.4277h-10.736v47.141c0 3.5525 1.4805 7.1621 1.4805 7.1621l10.766 18.066c1.2662 1.7362 2.1654 4.0041 4.2754 5.0566 2.3738 1.2675 5.5413 0.95024 7.8613-0.10351l18.102-17.438c2.85-2.0488 6.7559-2.9482 10.131-2.1582-2.69-2.74-6.5959-4.3682-8.3359-7.8457 0.0525-1.6888-0.07813-4.0566-0.07813-4.0566 0.13125-1.0538 0.92109-1.3194 1.8711-1.2656l12.903-0.04c1.185 0.0538 1.8487-0.91766 1.9824-1.9727 0-1.0525-0.13477-3.1562-0.13477-3.1562l-7.3105-5.4043-0.08008 3.6895c0.2575 0.87 1.3964 1.5263 1.8477 1.5801h3.8262v3.4258s-6.5977 0.26023-9.6602-0.63477c-6.0138-2.6862-5.168-9.5323-5.168-15.434l-10.766-8.2949v-4.4863s30.345 23.844 31.398 24.686c1.055 0.84375 2.4297 0.73828 2.4297 0.73828h25.543s1.6621-0.000313 2.5059-2.6328c0.841-2.637-3.195-13.641-7.418-18.96l-60.527-68.158zm41.418 103.49c-1.5252 0.0482-3.098 0.29703-4.7402 0.875-1.8475 0.65875-4.4883 1.5801-4.4883 1.5801l0.10742 2.6562c3.6388 0.21125 7.8123-0.15328 10.871 1.793l20.898 16.648 3.7949 2.791c-0.155-9.7462-2.5831-18.224-7.7031-25.861-6.4299 2.8895-12.131-0.69138-18.74-0.48242zm-4.0566 14.492c-1.265 3.7338-5.3813 7.164-8.8613 8.4277 8.7075 3.265 17.886 6.1103 27.598 6.3203l-18.737-14.74z" transform="matrix(.8 0 0 -.8 256.23 766.61)" fill="#fff"/><path d="m32.152 13.314-0.0332 38.188c0 5.4438 3.1113 7.8105 3.1113 7.8105l3.959 0.01953c-1.3188-2.32-2.2656-3.707-2.2656-7.6895l18.098 14.641-17.943-18.377-0.051-8.64 18.994 15.271-19.097-19.59-0.018-9.865 55.637 61.324 3.1641 3.1582c-0.525-3.8975-2.2143-7.3178-4.5918-10.477l-58.963-65.773zm-8.6367 8.3555 0.01758 27.463c0 8.9538 2.6484 10.182 2.6484 10.182l5.1914 0.01953s-3.0918-1.7766-3.0918-7.0391l0.038-25.671-4.802-4.955zm-9.1426 8.9941-0.04297 19.861c0.365 4.1725 1.4316 7.7234 2.6953 8.7871h-3.166v29.885c0.26375 3.5275 1.2102 6.791 3.5352 9.4785 3.6425 2.8463 8.6028 7.8237 13.352 3.875 0 0-12.498-6.3257-11.926-14.252 3.5375 1.8462 6.964 3.9005 10.396 6.0605l0.73828 0.15625c-3.6425-3.1612-11.148-9.2168-11.148-9.2168l0.01367-4.6895c3.6938 2.055 7.4923 3.9023 11.135 6.166-3.43-3.1625-7.4923-6.008-11.135-9.2168v-5.6895l10.869 6.1875-11.025-9.2422 0.0078-7.6113 11.547 9.4785-0.06445-3.9336s-11.438-7.6788-11.334-13.736l0.106-17.696-4.553-4.652zm-9.8564 28.648-0.0215 45.078c0.78875 2.5288 1.1854 5.6086 3.4004 7.5586 5.1737 3.3712 9.2909 9.3238 15.992 8.9551 0.47375-0.31375 1.5293-1.0039 1.5293-1.0039l-12.188-9.37c-2.48-1.9475-4.4354-4.7951-4.2754-7.9551 5.33 3.1112 16.834 9.4805 16.834 9.4805l-17.016-13.066v-4.4785l5.459 3.1621s-2.0174-2.0416-1.9824-3.7441l-3.4766-2.5117v-5.2012l3.332 2.0508v-2.8105l-3.332-2.4043v-4.5391l3.373 2.0391 0.0059-2.6562-3.3789-2.0938v-5.0586l3.332 1.9082-0.01758-2.7031-3.3145-2.0352v-5.1016l3.3379 2.0137-0.02148-2.541-3.6612-2.955-3.9102-0.022z" transform="matrix(.8 0 0 -.8 256.23 766.61)"/><path d="m36.906 25.082 0.01758 9.8652 19.098 19.59-18.994-15.271 0.05078 8.6406 17.943 18.377-18.098-14.641c0 3.9825 0.94688 5.3695 2.2656 7.6895h-5.6719c-1.5888-0.79-3.2207-4.4493-3.2207-7.2168v-23.516l-1.979-1.974-0.037 25.67c0 5.2625 3.0918 7.0371 3.0918 7.0371l-7.2246-0.10352c-1.4513-0.92125-3.0312-4.0148-3.0312-6.916v-14.811l-2.1914-2.1855-0.10742 17.695c-0.1025 6.0575 11.338 13.736 11.338 13.736l0.0625 6.3066-11.547-9.5508-0.0098 5.3105 11.027 9.2422-10.871-6.1855v5.6875c3.6438 3.2088 7.708 6.0555 11.137 9.2168-3.6412-2.2625-7.443-4.1123-11.137-6.166l-0.0098 4.6875s7.5052 6.0568 11.146 9.2168l-0.73828-0.1543c-3.4312-2.1588-6.8597-4.2123-10.398-6.0586-0.5725 7.9262 11.928 14.25 11.928 14.25s-3.958 2.7627-7.123 1.9727c-3.1662-0.79-8.4445-5.5314-9.3945-6.8477l-5.459-3.1621v4.4785l17.016 13.063s-11.504-6.3685-16.834-9.4785c-0.16 3.1588 1.7941 6.0044 4.2754 7.9531l12.189 9.373c-1.9012 1.9525-5.7529 2.2671-7.3379 1.4746-1.5812-0.785-7.6484-4.2109-7.6484-4.2109s5.5399 9.477 7.3887 12.113c1.845 2.6362 6.3303 3.1612 9.7578-1.5801 3.4338-4.74 7.6545-8.1653 9.502-10.008 1.8488-1.8425 8.4453-3.1602 8.4453-3.1602s-5.0162-3.9519-5.5449-5.2656v-5.0039c0.52875-1.8438 7.127-5.2695 7.127-5.2695s-3.6973-3.1599-3.6973-7.1074v-8.1641l-7.1211-5.7949v-6.7246l28.986 22.826s22.751-0.03906 25.566-0.03906 5.1684-1.1376 4.8672-4.4238l-3.164-3.146-55.635-61.324zm-28.48 34.252 3.7168 3.0332v-3.0332h-3.7168zm0.34375 3.4824v5.1016l3.373 2.1367v-5.1406l-3.373-2.0977zm0 7.9297v5.0605l3.373 2.0938v-5.1465l-3.373-2.0078zm0 7.7715v4.5391l3.373 2.4531v-4.9531l-3.373-2.0391zm0 7.7031v5.2012l3.373 2.4375v-5.5293l-3.373-2.1094z" transform="matrix(.8 0 0 -.8 256.23 766.61)" fill="#ba0c2f"/></g></g></svg>
