<svg xmlns="http://www.w3.org/2000/svg" width="204" height="246.34" viewBox="0 0 204 246.34">
 <path d="m1.0801 1.0801v27.377h13.146v110.14h-13.146v27.379h63.248v41.082c0 8.3713-0.0013 13.9 6.5195 20.453l10.854 10.889c6.5239 6.5595 11.808 6.5586 19.803 6.5586h52.902c7.9905 0 13.271 1e-3 19.773-6.5352l10.896-10.932c6.5009-6.5334 6.5-12.062 6.5-20.434v-73.645l-13.643-6.1777 25.146-4e-3v-27.375h-50.289v27.379h11.504v79.822c0 2.0394-0.23549 2.8064-1.1504 3.7246l-5.6211 5.6367c-0.9379 0.94433-1.6306 1.1621-3.7148 1.1621h-51.713c-2.0811 0-2.7771-0.21708-3.7227-1.166l-5.6094-5.627c-0.91797-0.9228-1.1582-1.6911-1.1582-3.7305v-41.082h12.328c8.3414 0 13.852-7.6e-4 20.381-6.5449l10.85-10.889c6.5392-6.5519 6.5371-11.969 6.5371-20.17v-29.662c0-8.196 7e-5 -13.609-6.5156-20.137l-3.75-3.7676 3.7285-3.7441c6.5392-6.5503 6.5371-11.968 6.5371-20.17v-12.217c0-8.196 7e-5 -13.611-6.5156-20.139l-10.891-10.934c-6.5086-6.5226-12.018-6.5215-20.361-6.5215zm26.787 27.377h76.066c2.0336 0 2.7995 0.23961 3.7129 1.1562l5.6172 5.6387c0.94096 0.94279 1.1562 1.6403 1.1562 3.7305v11.609c0 2.0901-0.21655 2.7885-1.1621 3.7344l-5.6074 5.6309c-0.91797 0.92126-1.6832 1.1602-3.7168 1.1602h-62.426v-26.48zm13.641 60.035h62.426c2.0352 0 2.7995 0.23765 3.7129 1.1543l5.6172 5.6406c0.94096 0.94125 1.1562 1.6384 1.1562 3.7285v29.057c0 2.0901-0.21655 2.7885-1.1621 3.7344l-5.6074 5.6289c-0.86433 0.86743-1.6079 1.1286-3.3887 1.1562l-62.754 4e-3zm11.303 11.123v27.406h11.551v7.082h27.395v-7.084l11.555 2e-3v-27.406z" fill="#154734"/>
</svg>