<svg xmlns="http://www.w3.org/2000/svg" width="245" height="203.35" viewBox="0 0 245 203.35">
 <g transform="matrix(1.3333 0 0 -1.3333 -377.82 968.01)">
  <g transform="translate(-1.2053 -.30132)">
   <path d="m465.78 652.91c-2.7146 5.9192-9.1173 8.5179-10.727 9.0867-1.4437 0.99747-7.7567 7.1398-13.521 12.993 0.75685 8.6032-4.5893 14.404-8.5332 16.94-4.4515 27.466-35.106 27.846-35.424 27.846l-6.7417 4e-3 1.4809-1.5553c-8.7782 2.8721-15.056 4.4864-15.15 4.5127l-9.2835 2.369 6.4333-7.107 0.0372-0.0481c-29.251 1.2665-47.395-6.7198-48.209-7.0852l-7.7501-3.5021 8.2751-1.9424c3.4518-0.81592 6.617-1.8878 9.1392-2.859-31.814-15.404-46.098-35.301-46.726-36.194l-3.2112-4.5543h13.952c-4.434-6.9889-7.2164-14.374-8.2204-22.036-1.8921-14.319 2.7168-29.054 12.639-40.431 13.615-15.627 35.321-24.583 59.547-24.583 39.676 0 62.839 21.085 63.044 21.293l3.1237 3.3052-9.697 3.1959c-25.676 8.4676-35.574 24.504-39.057 32.621 5.9586-0.43968 11.289 0.22749 13.413 0.56436 6.4705-3.093 15.583-9.0473 19.339-11.698 2.38-4.2918 6.3655-11.467 22.358-9.8063 11.974 1.2337 16.135 5.1624 17.585 7.6232 5.8252 2.1174 9.9441 8.3954 9.9441 11.285 0.0306 0.77436 0.87061 4.3574 1.6472 7.2711 1.9075 4.5368 2.0124 8.741 0.29312 12.49" fill="#fff"/>
   <path d="m453.82 659.36c-1.7784 0.76342-15.317 14.592-15.317 14.592 1.8615 11.178-8.1417 16.178-8.1417 16.178-3.314 26.726-32.794 26.755-32.794 26.755l5.0924-5.3418c-14.249 5.3418-26.214 8.3998-26.214 8.3998l4.8321-5.3505c-33.081 3.0559-53.956-6.3589-53.956-6.3589 8.6535-2.0343 15.529-5.602 15.529-5.602-35.634-15.526-51.423-37.928-51.423-37.928h13.886c-5.9761-7.8354-9.7013-16.443-10.865-25.307-1.7609-13.363 2.4937-27.293 11.959-38.156 12.86-14.761 33.783-23.594 57.37-23.594 38.635 0 60.949 20.391 60.949 20.391l-5.3767 1.7762c-33.754 11.132-41.483 35.301-42.461 38.814 8.8788-1.6646 18.134 0.11375 18.134 0.11375 9.9244-4.5718 21.122-12.72 21.122-12.72 2.2946-4.0796 5.0924-10.445 19.858-8.9138 14.759 1.529 15.785 7.1267 15.785 7.1267 5.5911 1.2709 9.1632 7.3804 9.1632 8.9117 0 1.5246 1.7784 8.1439 1.7784 8.1439 5.8514 13.49-8.9095 18.068-8.9095 18.068" fill="#fa4616"/>
   <path d="m386.97 713.37c1.155-1.2687 2.3057-3.627 2.3057-3.627-25.552 6.1598-50.651-1.5103-50.651-1.5103 2.2618-0.58623 5.7869-2.2506 8.5781-3.6812l13.607-0.97119c-6.5645-0.76561-12.894-2.5566-18.853-4.9453-17.246-7.4636-30.341-18.109-37.402-24.675-3.7668-3.524-5.8901-5.9018-5.8901-5.9018l7.6509 0.13183c20.229 22.725 49.876 27.772 49.876 27.772s-26.509-8.7918-44.105-27.678l0.15674 3e-3c-4.5586-4.7555-8.2332-9.9308-10.847-15.463-0.36968-0.78311-0.87029-1.9429-0.90967-2.0478-1.575-3.7646-2.6618-7.6808-3.1934-11.736-4.0862-31.011 25.698-58.137 66.52-58.535 9.312-0.0875 18.564 1.2523 27.167 3.6694-35.666 21.982-31.928 50.515-31.928 50.515s1.19-3.946 4.0796-9.4321c5.4861-10.021 17.541-26.748 42.086-35.848 1.6646 0.74811 7.1647 3.3636 13.244 7.6816-38.506 13.529-44.12 39.429-44.12 39.429-13.532-0.0437-18.59 6.8006-19.411 7.9424-0.0678 0.105-0.11132 0.167-0.11132 0.167-7.1201-7.4461-7.897-16.787-7.897-16.787-1.144 11.935 2.0281 19.866 4.6333 24.204-1.8965 6.5842 1.002 13.223 1.002 13.223s-0.46684-3.5316 1.7534-8.565c0.13343-0.30843 0.29297-0.6123 0.29297-0.6123 8.5179-18.033 41.225-13.961 41.225-13.961 8.5135-3.7886 23.172-13.893 23.172-13.893 1.5553-6.9867 9.7617-8.3628 9.7617-8.3628s18.812 0.18838 20.49 7.0723c6.6017 1.26 8.3862 7.106 8.3862 7.106 0.17937 1.7434 2.6821 11.219 2.6821 11.219 2.1328 8.0585-8.165 11.241-8.165 11.241s-11.915 11.024-17.87 16.816c0 0 4.5015 8.2273-7.3916 15.245 0 5.6764-2.1018 16.61-20.164 22.835 0 0-3.1125 0.96676-0.28418-0.50977 6.663-3.478 16.628-10.229 15.366-23.682 0 0 13.656-6.4522 3.7705-10.915 12.337-10.388 23.249-23.121 23.249-23.121 9.4848-2.1809 7.4282-6.4365 7.4282-6.4365 0.0984-1.5596-0.88974-4.9472-1.021-7.8237-0.1225-2.8721-3.7975-8.013-2.9531-3.6665 0.8531 4.3486-0.24023 5.499-0.24023 5.499s0.51215-2.4717-2.3818-6.0176c-2.894-3.5568-1.5205 0.31494-1.5205 0.31494 5.0924 14.879-7.5837 15.854-10.248 15.92-2.6774 0.0591-3.8071 2.5942-3.8071 2.5942-6.0527 8.8548-20.244 18.126-20.244 18.126 4.0861 0.65403 5.3965 3.9258 5.3965 3.9258-3.7865-1.5903-9.4825-1.9063-14.336 3.8467-4.8758 5.7574-12.735 7.1792-12.735 7.1792 6.6848 10.666-7.3691 15.082-15.237 15.428-7.8704 0.34562-9.9624 4.9541-9.9624 4.9541 5.4511-3.653 9.0631-2.4671 22.636-4.4971 13.571-2.0256 8.4141-13.79 8.4141-13.79 6.9561-0.77873 12.161-5.0186 12.161-5.0186s6.3821-6.0276 7.6333-0.26367c3.0362 14.024-9.6929 21.513-9.6929 21.513-6.9123 3.9812-21.154 8.4009-21.154 8.4009zm-12.07-13.595c4.3858-0.78748 9.1953-2.0571 12.4-4.7739 1.5772-1.8287 2.4873-4.1991 1.6758-6.8438l-1.2436 0.98437c-1.5815 1.26-4.4322 0.24731-6.2959-0.29736-0.30624 2.4762-1.3559 4.8533-3.1934 6.2183 1.5093-0.27781 2.6833-1.1259 3.7529-1.9878 0.23187-0.0503 0.34999 0.15299 0.4878 0.29736-1.0325 2.9771-4.777 4.9482-7.5835 6.4028zm31.715-34.777c2.2815-1.7106 3.4531-4.4325 3.3853-7.5146 5.2696-2.8896 13.813-8.6322 17.556-12.836l-2.8916 2.1856c-3.9571 1.9315-11.108 7.1592-15.435 8.2441l-1.0415-1.3418c-2.4827-2.1874-5.2198-3.9311-8.6016-4.6245 2.8174 1.4218 5.27 4.2383 6.7969 6.9595 1.5203 3.1412 1.7408 6.4148 0.23144 8.9282zm-64.708-6.8892s-13.033-39.023 15.01-67.431c-11.718 0.56218-21.352 5.6045-21.352 5.6045-11.475 34.636 6.3413 61.827 6.3413 61.827zm98.095-13.046c2.9443-0.36312 4.8554-2.7028 5.3848-4.689-0.78092 1.179-2.0204 2.4131-3.7354 2.8418-0.65405 0.11375-1.7061-0.0308-2.1021-0.6914-0.75466-1.3103-0.14934-2.5958 0.35596-3.5845-1.0194 1.4131-2.0753 2.9071-1.8325 4.8999 0.18375 0.78965 1.1658 1.0088 1.9292 1.2231zm-22.882-9.3076 6.7017-0.14795s4.5455-1.7999 10.27-6.7764c0 0 6.9386-1.2911 12.412-0.76612 0 0-6.4289-2.9726-15.995-1.4326-4.3071 5.3264-13.389 9.123-13.389 9.123z" fill="#0033a0"/>
   <path d="m398.14 678.37c-1.5225-2.7452-0.64967-5.882 1.0675-7.7064 2.9356-2.0168 6.8511-1.5487 10.701 0.34562-4.3093 1.6296-9.0538 3.8827-11.768 7.3608" fill="#fff"/>
  </g>
 </g>
</svg>