<svg xmlns="http://www.w3.org/2000/svg" height="223.83" width="247" viewBox="0 0 247 223.83">
 <g transform="matrix(1.3333 0 0 -1.3333 -404.27 645.6)">
  <g transform="translate(.82469 -1.0309)">
   <path d="m411.31 342.97h-30.907c1.3528 2.7367 3.5543 7.1945 6.1039 12.35 6.9895-0.80217 10.906 1.093 10.906 1.093 0.87726 0.86654 2.9369 3.8535 3.9942 5.4173 3.4077-1.9464 6.6486-2.1943 6.9346-2.2265 1.5328-0.99646 1.8701-1.4208 1.9405-1.5638-1.1848-0.58047-1.8034-1.59-1.8034-2.894 0-0.59119 0.13826-1.2599 0.40526-1.9691l0.12992-0.36831 0.11442 0.38023c0.19905 0.73542 0.83435 1.4959 1.6639 1.9571 0.94759 0.53041 2.0322 0.64961 3.0549 0.31944 1.0465-0.2944 1.7569-0.94758 2.0072-1.8522 0.34328-1.2098-0.2062-2.7236-1.4899-4.1598l-0.36115-0.39215 0.49226 0.21217c1.9405 0.76045 3.1729 1.7831 3.6807 3.0239 0.18594 0.4422 0.24911 0.85342 0.24911 1.2348 0 0.35401-0.0632 0.63053-0.10847 0.80456 0.4136-0.13112 1.335-0.53041 1.8534-1.4339 0.0501-0.0942 0.0918-0.18714 0.13588-0.30633l-2.7128-5.5055c-2.0442-4.1205-5.2421-4.1205-6.2838-4.1205m-62.505 65.196c1.1037 2.2325 2.2062 4.484 3.248 6.5854 2.0942-2.6318 4.3338-4.8762 6.2231-6.5854zm24.328 49.305s0.49942 1.0108 1.0298 2.0775h35.944c-0.69966-1.416-3.6413-7.39-3.6413-7.39-0.86057-1.7438-3.2182-2.7474-6.44-2.7474h-30.876c1.9822 4.0275 3.9834 8.0598 3.9834 8.0598m18.792-34.777-1.242-2.5245c-1.6878 1.3278-3.3827 2.6806-5.0919 4.0657h7.0634c-0.19309-0.42433-0.43028-0.92374-0.72946-1.5412m42.84-40.881h33.319l18.874 38.131h-30.404c3.2313 1.8964 7.1444 5.2755 9.241 10.992-3.9775-4.2957-7.7261-5.1253-7.7261-5.1253s5.2075 5.1122 6.3589 13.817c-5.3613-7.1003-7.6486-7.825-7.6486-7.825s10.742 13.518 4.9942 26.168c-0.59239-22.545-25.371-31.004-34.354-36.654-1.6103-1.0167-3.0788-2.0704-4.4459-3.1491l0.84746 1.7152c0.76879 1.5328 2.5507 5.161 2.5507 9.191 0 1.838-0.37427 3.7832-1.4089 5.6235-0.19905 0.36712-0.48035 0.67344-0.7235 1.0155 6.4209 2.7319 10.881 6.9573 13.855 12.993l4.7057 9.502c2.0501 4.1467 3.7963 8.4174 3.7963 12.365 0 2.0191-0.45412 3.9393-1.571 5.7165-4.2278 6.8202-15.19 7.9168-39.747 7.9168h-52.191l-49.88-100.76h47.641c6.1658 0 11.553 0.062 16.298 0.16806l-32.516-65.784h62.686c32.549 0 41.064 3.9083 50.602 23.262l11.266 22.731h-33.319l-2.0012-4.0323c-0.61146 0.26222-1.1979 0.53637-1.7009 0.89037-1.118 3.5925-4.1729 8.6546-6.0741 11.622 3.3541-1.0906 6.4102-2.4554 9.1075-4.0335 1.2611-2.1014 3.068-3.3243 3.0823-3.3243l0.0799-0.0548 0.0501 0.093c0.0572 0.0811 1.2718 2.1574 1.5567 3.5603 0.40049-0.53637 0.54352-1.2837 0.54352-1.9953 0-1.1848-0.3099-2.2754-0.3099-2.3135l-0.0501-0.17402 0.52325 0.236c2.5805 1.0668 4.1515 2.4327 4.6497 4.0275l0.0906 0.39453c0.42314 2.099-1.0572 4.0585-1.9786 5.0061 0.1621 0.49823 0.40049 2.5495-2.4911 5.5735-1.4172 1.478-2.9214 2.7259-4.4542 3.7665 4.838 2.3755 7.794 6.9013 10.581 11.94h4.2397c-1.478-2.925-6.5461-13.192-6.5461-13.192"/>
   <path d="m355.48 480.35-46.056-93.054h46.958c5.9489 0 11.174 0.0874 15.788 0.20655-0.6794 0.72112-1.2968 1.4584-1.9189 2.2617-4.0966-0.118-8.6926-0.15528-13.869-0.15528h-43.263c1.5722 3.1801 43.164 87.213 43.787 88.43h48.365c20.363 0 31.904-0.76745 34.528-4.9893 0.43029-0.69728 0.65039-1.5276 0.65039-2.5503 0-2.1693-1.0297-5.205-3.1787-9.5698l-4.7095-9.4966c-3.9405-8.0181-12.22-11.962-25.937-14.095 6.9835-0.90467 17.268-3.7046 11.684-14.728-1.658-3.2492-7.3081-14.738-7.3081-14.738-0.91064-1.8534-1.7466-3.5244-2.606-5.0083 0.46009-0.72469 0.92446-1.4592 1.3345-2.1958 0.2801 0.4732 0.57261 0.95501 0.85986 1.4473 0.7235 1.7581 1.6642 3.6112 2.855 5.5195l6.9082 13.964c1.441 2.9059 2.1533 5.3618 2.1533 7.4941 0 1.3958-0.31506 2.6067-0.91699 3.7104-1.0656 1.8964-3.0355 3.3105-5.9736 4.27 9.6272 2.0024 15.487 6.1665 19.011 13.336l4.7007 9.5156c2.0501 4.1324 3.4219 7.6662 3.4219 10.586 0 1.3707-0.31101 2.6314-0.99756 3.7339-3.2337 5.1813-14.339 6.104-36.479 6.104h-49.081zm14.833-14.64-2.9736-6.085-2.6572-5.3364c0.16806-1.2098 0.40419-2.4502 0.72363-3.7339 1.8523 3.7713 3.9902 8.061 3.9902 8.061s1.6452 3.3665 2.3496 4.7944h38.276c3.1932 0 4.259-0.6428 4.6011-1.1982 0.14423-0.21693 0.20215-0.50941 0.20215-0.80859 0-0.80574-0.41376-1.8453-0.82617-2.669l-4.0825-8.2983c-1.5459-3.105-5.1377-4.8809-9.8994-4.8809h-32.936c0.3242-0.77476 0.67422-1.5351 1.0854-2.3027h31.85c5.6462 0 10.005 2.2514 11.965 6.1728 0 0 4.0561 8.266 4.0752 8.291 0.70324 1.422 1.0518 2.6571 1.0518 3.7119 0 0.74853-0.17215 1.4218-0.52734 1.9951-0.97142 1.5638-3.0553 2.2866-6.5596 2.2866h-38.987zm8.2412-35.313c0.82243-0.79144 1.6605-1.5527 2.502-2.2881h12.48c1.2777 0 2.912-0.16798 3.4233-0.99756 0.14303-0.23601 0.20655-0.53043 0.20655-0.92138 0-1.385-0.97459-3.5687-1.7827-5.2207l-1.623-3.2798c0.6186-0.48512 1.2247-0.9842 1.8267-1.4824l1.8472 3.7588c1.77 3.5794 2.6974 6.3791 1.459 8.3804-0.84746 1.3767-2.6084 2.0508-5.3569 2.0508zm-30.48-9.7837-9.1846-18.617h24.645c-0.25269 0.77356-0.48976 1.5478-0.70312 2.313h-20.244c0.76522 1.5471 4.0035 8.1005 6.8892 13.973-0.48512 0.76641-0.95966 1.5403-1.4019 2.3306zm108.25-4.563c-1.1609-0.82958-2.2689-1.5645-3.3428-2.2749h24.037c-1.416-2.8809-12.21-24.667-12.776-25.802h-19.564c1.2539 2.5257 6.5347 13.219 6.5347 13.219l-10.816-0.0249c-0.42433-0.74733-0.84287-1.5028-1.2612-2.2764h8.3877c-1.2612-2.5495-6.5436-13.217-6.5436-13.217h24.684l15.059 30.376h-1.8516zm-82.217-32.216c-0.84388-0.0608-1.7102-0.0671-2.6221-0.11719l-30.647-62.036h56.467c32.401 0 38.815 4.2322 47.143 21.129l8.5034 17.159h-24.702l-0.72363-1.4473c0.7533-0.27295 1.4774-0.57352 2.1079-0.92871 0.0167 0.0238 0.0304 0.0626 0.0352 0.0864h19.575c-1.298-2.6556-6.854-13.86-6.854-13.86-7.8083-15.829-13.249-19.827-45.085-19.827h-52.771c1.1538 2.3016 19.827 40.102 29.574 59.83zm52.469-7.4121c-0.25507 0-0.51009-0.10698-0.66504-0.33106-0.3099-0.38023-0.23081-0.91078 0.14942-1.21 0.11203-0.093 0.24259-0.13024 0.38085-0.15527-0.26937 0.21693-0.3146 0.59305-0.10839 0.86719 0.10846 0.14303 0.27104 0.22273 0.4248 0.23584-0.0667 0.20621-0.13158 0.40613-0.18164 0.59326zm-2.1372-3.1494c0.49226-1.3087 1.4961-4.2014 3.6987-6.6079-1.7414 3.2993-2.4316 5.5488-2.4316 5.5488s3.5342-0.8672 5.0742-2.6074c1.2527-1.4017 1.1045-2.6101 1.0342-2.9546 0.33731 0.16806 1.7918 0.88004 2.1899 2.1709 0.12396 0.43029 0.14768 0.91519-0.0454 1.4575-0.55425 1.6592-1.7568 2.4693-1.7651 2.48-1.5567 0.84389-4.832-0.23584-4.8486-0.23584-0.0143 0-1.4855 0.48631-2.9062 0.74853zm6.8408-0.66796c0.32302-0.014 0.51123-0.0674 0.51123-0.0674 0.29798-0.14303 0.6709-0.62842 0.6709-0.62842s-1.242 0.55384-2.5078 0.52881c0.54352 0.15615 1.0027 0.181 1.3257 0.167zm-2.9502-2.2075c0.34708-1.2099 7e-3 -3.1538 7e-3 -3.1538 0.7211 1.4971 0.75293 2.6016 0.75293 2.6016-0.26142 0.2852-0.75722 0.55062-0.76025 0.55225zm-16.68-10.31s-0.6485-0.0641-1.6318-0.0879c0.76164-0.4124 2.2823-1.4218 2.5576-1.752-0.70443-0.30037-1.9131-1.4473-1.9131-1.4473s2.1113 0.93551 3.7192 0.28711c2.2074-0.89156 2.7891-3.4922 2.7891-3.4922s0.33445 1.6651-0.42481 2.7891c1.652-0.18832 3.8906-1.9336 3.8906-1.9336s-0.90454 2.1131-5.8594 4.1894c-2.6759 1.1228-3.1274 1.4473-3.1274 1.4473zm9.4365-0.47461s-0.37391-0.35722-1.1177-0.56104c0 0 2.6873-1.0424 3.0044-1.3022-0.73302-0.40524-1.3828-1.6362-1.3828-1.6362s1.4777 0.93712 3.4468 0.50684c1.7772-0.36831 3.0176-2.1328 3.0176-2.1328s-0.11735 1.211-0.82178 1.9834c1.5209-0.18118 3.123-1.0796 3.123-1.0796s-0.46694 1.6466-5.4683 2.8564c-2.8237 0.68655-3.8013 1.3652-3.8013 1.3652zm-40.79-2.9297c-5.3935-10.943-9.813-19.871-9.813-19.871h40.813c7.0074 0 10.399 4.7249 11.795 7.5366 0 0 2.059 4.1654 3.9184 7.9438 0.15376 0.6055 0.103 1.153-0.15088 1.6655-0.23838 0.41003-0.61095 0.75197-1.0913 0.96533l-4.7329-9.5508c-1.1538-2.3266-3.9694-6.2725-9.7383-6.2725h-37.116c0.54232 1.0906 4.0332 8.1668 8.3599 16.926-0.79859 0.19428-1.5338 0.41906-2.2441 0.65625z" fill="#dbcca6"/>
   <path d="m356.91 478.04c-0.62338-1.2182-42.216-85.25-43.787-88.43h43.264c5.1754 0 9.7696 0.036 13.866 0.15528-2.888 3.6413-5.2192 7.824-6.7163 12.233h-24.645l9.1846 18.617c-1.335 2.4697-2.3772 5.0765-2.8814 7.812 2.8106-3.0788 6.3539-4.4888 8.6865-5.105l0.52881 0.89795c-10.332 8.098-7.8677 21.853-7.8677 21.853s2.3913-10.655 10.416-14.665c-10.251 13.018-3.4526 30.687-3.4526 30.687s-0.96223-15.299 9.3896-26.741c-9.6701 21.074 2.8228 33.699 2.8228 33.699s-2.1507-6.4025-1.0327-14.763l2.6558 5.3364 2.9736 6.085h39.71c3.5043 0 5.5855-0.72282 6.5581-2.2866 0.35401-0.57451 0.5288-1.2466 0.5288-1.9951 0-1.0548-0.35025-2.2885-1.0547-3.7104-0.0191-0.025-4.0752-8.291-4.0752-8.291-1.9583-3.9214-6.3172-6.1743-11.963-6.1743h-31.849c0.92851-1.7962 2.0817-3.6019 3.5024-5.3862 2.1526-2.6985 4.478-5.1807 6.8833-7.4692h14.982c2.7486 0 4.5095-0.67411 5.3569-2.0508 1.2384-2.0024 0.30983-4.801-1.459-8.3804l-1.8472-3.7588c4.9954-4.1038 9.527-8.311 12.807-13.343 0.85938 1.484 1.6953 3.1546 2.606 5.0068 0 0 5.6501 11.49 7.3081 14.739 5.5842 11.023-4.7001 13.821-11.684 14.726 13.717 2.1324 21.995 6.0793 25.937 14.096l4.7095 9.4966c2.1502 4.3648 3.1787 7.4017 3.1787 9.5698 0 1.0239-0.2201 1.8518-0.65039 2.5503-2.6234 4.2218-14.166 4.9893-34.529 4.9893zm6.3735-32.783c5.4423-24.589 23.671-28.019 36.054-41.773 3.8225-4.2647 10.585-18.53-1.9834-26.878-0.62695-0.43029-1.3956-0.80484-2.1167-1.1851 0.39095-0.62934 1.0707-1.365 1.6011-1.9336 3.211-3.5603 8.3276-6.1362 8.3276-6.1362s-5.9597 0.77305-9.9419 2.102c4.0204-4.1145 12.113-5.9297 12.113-5.9297s-2.6421-0.19926-4.9497 0.063c4.0406-2.4315 8.7056-1.3652 8.7056-1.3652-0.69847 4.1956-3.2007 8.5356-3.2007 8.5356s-2.655 0.0623-6.4453 1.4473c1.9011-0.15019 4.1708 0.17874 6.5332 0.66504 1.8522 0.38142 3.5356 0.43716 4.9087 0.38233-1.6735 0.44817-3.4062 0.85938-5.2119 1.1836l-0.16992 0.0366 0.12305 0.11865c0.0369 0.0179 2.9091 2.5439 6.1714 3.6358-3.8571 1.9011-8.1778 2.6689-8.2207 2.6689l-0.25635 0.0615 0.23731 0.10546c0.056 0.0513 5.5152 2.8012 8.5737 2.9502-1.6914 2.8928-2.9263 4.5206-2.937 4.5337l-0.12159 0.15381 0.19629-0.0381c0.062 0 4.313-0.31677 9.4395-2.4551-0.44816 4.4149-1.0236 20.063 10.973 30.296 10.011 8.5843 21.18 10.966 25.025 20.051-9.8537-13.031-37.843-13.679-44.934-42.765 3.1813-1.2098 5.7041-4.0576 5.7041-4.0576-1.54 0.62814-3.1478 1.0385-4.478 1.3389-0.6782 0.12992-1.9942 0.35548-2.0991 0.36621-0.4732 0.0703-0.8291 0.1333-0.8291 0.1333-0.71635 2.9989-2.225 7.1132-5.3848 11.297-10.146 13.462-31.271 21.168-41.407 42.391zm-3.772-11.297s5.0749-16.805 21.11-30.502c-8.1742 3.6783-20.48 12.987-20.48 12.987s9.5766-14.452 20.181-20.799c-4.732 1.1419-9.7808 3.7485-9.7808 3.7485 3.6032-8.2064 18.865-21.226 26.858-11.861 5.5294 6.4662-1.2835 15.477-12.743 22.641-16.922 10.56-25.146 23.786-25.146 23.786zm95.785-7.1279c-7.8751-6.8321-19.789-10.151-25.346-18.394-1.6496-2.4613-2.7468-5.3475-3.4644-8.1533 1.4661 1.1037 3.6647 2.4752 5.7041 2.7744 0 0-1.2153-7.9925-5.7041-13.841 11.216 4.782 6.3147 17.931 25.295 26.562-4.9954-0.0834-12.696-3.0557-12.696-3.0557 10.738 6.0896 16.211 14.108 16.211 14.108zm-2.3013-13.055c-4.689-3.1181-8.6404-5.526-12.393-12.214-0.0703-0.13111-0.13146-0.27513-0.20655-0.39551l10.824 0.0264s-5.2808-10.692-6.5347-13.217h19.563c0.56736 1.1347 11.362 22.919 12.778 25.8zm-77.142-29.884c-0.56259-0.031-1.149-0.0451-1.7402-0.0688-9.7452-19.728-28.417-57.528-29.572-59.83h52.772c31.836 0 37.275 3.9979 45.084 19.827 0 0 5.556 11.204 6.854 13.86h-19.573c-5e-3 -0.025-0.0211-0.0626-0.0366-0.0864 1.2396-0.73542 2.1448-1.7772 2.2163-3.4614 0.0346-0.68655-0.0659-1.4714-0.32813-2.3701l-0.14941-0.49804-0.0923 0.49804c-0.34804 1.8332-1.6026 2.6075-2.102 2.8447 0.031-0.118 0.063-0.27422 0.063-0.44824 0.0501-0.90467-0.26874-2.4191-2.6323-3.2856l-0.33692-0.13183 0.1875 0.31201c0.28129 0.42432 0.45542 0.84261 0.55078 1.2407-1.8594-3.7772-3.9184-7.9438-3.9184-7.9438-1.3958-2.8118-4.7876-7.5381-11.795-7.5381h-40.813s4.4195 8.9275 9.813 19.871c-7.8131 2.6687-10.417 8.0625-10.417 8.0625s14.482 3.4411 21.598 11.266c-5.4948 1.0024-10.932 3.8521-15.631 7.8809zm51.057-8.3921c-0.12038 0.025-0.2394-0.0128-0.30615-0.12012-0.093-0.11681-0.0742-0.30279 0.0557-0.41602 0.12992-0.1192 0.32908-0.0824 0.4292 0.063 0.0131 0 0.019 0.0375 0.0249 0.0542-0.0751 0.12635-0.14163 0.27473-0.20361 0.41895zm-15.432-8.3247c2.2241-2.3112 5.6616-3.5918 5.6616-3.5918s-2.4499-0.11652-3.5083-0.0366c2.4792-1.9452 6.0453-2.2751 6.5376-2.001-0.76141 2.5488-2.8347 5.285-2.8359 5.2866 0 0-2.3197-0.37954-5.855 0.34277z" fill="#8c2232"/>
   <path d="m415.29 386.14c1.4542-1.8022 2.4829-3.9155 2.4829-3.9155s-2.9747 0.54811-7.2656-0.94776c0 0 2.9938-0.59256 6.498-2.9502 0 0-2.8183-1.3653-4.5645-2.8242 7.2016-1.6842 11.962-5.1255 11.962-5.1255s-1.2315 2.5761-1.5557 3.8467c1.8773 0.031 4.2085-0.76026 4.2085-0.76026 0.44578 0.11919 0.91702 0.23564 1.4033 0.31788-0.37545 0.118-0.71041 0.39221-0.9917 0.76171-0.46605-0.41836-1.1823-0.43118-1.6948-0.0498-0.59 0.45293-0.69975 1.309-0.25635 1.9014 0.24911 0.29321 0.5855 0.47438 0.94189 0.50537-0.3254 1.2468-2.1958 2.4565-2.1958 2.4565 3.4363-1.6222 2.7633-2.7497 3.8218-4.2349 0.91182-1.2766 1.923-0.15564 1.7168 0.40576 0.51491-0.6806 0.20562-1.2842-0.22705-1.5894 0.80455 0.062 1.584-3.9e-4 2.2515-0.23877 0.79859 4.459-8.9152 10.814-16.535 12.441zm16.465-14.373c2.192-1.6818 1.248-3.5772 1.248-3.5772 1.3147 1.3278 0.0875 2.8668-0.29151 3.3149-0.34924 0.14303-0.95654 0.26221-0.95654 0.26221zm-47.818-4.626c-5.0955-3.4101-10.069-3.8159-10.069-3.8159s9.3404-8.8782 22.438-4.9556c0 0-9.6325 1.5377-12.369 8.7715z" fill="#fff"/>
  </g>
 </g>
</svg>