<svg width="290" height="268.66699" viewBox="0 0 290 268.667" xmlns="http://www.w3.org/2000/svg">
  <g id="g47" transform="matrix(1.3333333,0,0,-1.3333333,0,266.66667)">
    <g id="g3941" transform="translate(1.1649712,-0.46598847)">
      <path
         style="fill:#fff"
         d="m 193.905,178.589 -9.19,17.31 -2.819,0.941 c -18.407,6.135 -51.167,2.101 -65.068,-13.32 -5.83,9.364 -16.639,14.26 -27.682,14.26 H 0 C 5.072,185.569 11.093,166.835 21.996,158.398 21.962,146.38 21.835,114.303 21.825,102.801 14.182,96.428 9.681,89.155 6.281,79.92 4.944,76.292 1.205,63.077 1.205,63.077 H 31.551 V 54.573 H 44.578 V 32.557 C 44.578,14.478 56.845,0 76.315,0 h 68.612 l 0.049,61.937 c 12.45,-2.644 25.927,-1.064 36.604,6.04 2.172,1.446 8.781,7.817 8.781,7.817 -5.85,1.203 -12.023,2.042 -17.571,4.279 l 14.878,53.299 c 3.666,0.05 8.968,-0.069 11.567,-3.003 l 0.812,-0.922 4.839,-5.547 c 0,0 3.661,5.319 4.462,6.51 11.46,17.041 5.786,40.633 -15.443,48.179" id="path268" />
      <path style="fill:#ff7300"
         d="m 210.811,152.298 c -1.236,9.442 -5.536,18.534 -19.692,23.007 l -9.187,17.306 -1.302,0.434 c -0.304,0.101 -21.753,6.886 -45.18,-2.268 -8.588,-3.355 -13.381,-6.144 -19.507,-14.818 -3.667,11.451 -14.791,17.821 -26.797,17.821 H 5.993 c 0,0 3.553,-8.554 4.96,-11.836 1.34,-3.127 3.013,-6.956 3.776,-8.269 1.202,-2.067 5.165,-8.107 8.271,-10.91 0.969,-0.875 2.01,-1.657 3.001,-2.331 C 25.977,149.956 25.819,110.677 25.824,100.861 22.465,98.379 18.556,94.293 15.475,89.823 13.194,86.512 11.307,81.994 10.034,78.538 8.732,75.001 6.494,67.077 6.494,67.077 H 35.551 V 58.573 H 48.578 V 32.557 C 48.578,16.442 59.292,4 76.315,4 h 64.615 l 0.049,63.093 c 26.119,-7.897 41.14,6.311 41.14,6.311 0,0 -5.73,1.184 -8.146,1.929 -0.733,0.226 -5.179,2.072 -6.001,2.358 l 16.606,59.484 c 2.401,0.295 5.248,0.261 8.534,-0.092 3.348,-0.36 5.556,-1.321 6.861,-2.098 0.658,-0.392 1.103,-0.747 1.356,-0.972 0.164,-0.144 1.661,-1.855 1.732,-1.936 l 1.452,-1.664 c 0,0 2.912,4.23 3.393,5.145 0.456,0.868 1.052,2.137 1.602,3.743 1.085,3.172 2,7.677 1.303,12.997" id="path298" />
      <path id="path67" style="fill:#4f2c1d"
         d="m 160.65528,192.09425 c -6.81316,-0.12551 -15.00196,-1.23056 -23.7627,-4.44581 -12.58699,-4.61899 -17.96927,-12.12527 -23.67627,-22.34326 v 2.21338 c 0,14.00099 -11.03132,22.26709 -24.070312,22.26709 H 11.976563 c 0,0 4.990079,-12.01305 6.205078,-14.10205 1.174999,-2.021 4.881144,-7.59462 7.494141,-9.95361 1.355999,-1.224 2.949755,-2.2864 4.322754,-3.1084 0.006,-5.256 -0.230922,-61.94009 -0.169922,-63.892093 C 26.753617,96.960499 22.243645,92.605664 18.764649,87.555669 14.801653,81.805675 11.771485,71.071782 11.771485,71.071782 H 52.571779 V 32.556644 c 0,-14.146986 9.156667,-24.5610358 23.743653,-24.5610358 h 60.624028 l 0.0498,64.2949238 c 1.056,-0.525 2.02932,-0.947118 2.90332,-1.245118 21.43398,-7.286992 34.50879,1.072266 34.50879,1.072266 0,0 -3.57013,0.773466 -5.78613,1.501465 -1.962,0.641999 -4.93067,1.927734 -4.93067,1.927734 l 18.16993,64.636231 c 3.26499,0.738 7.183,0.78855 11.625,0.31055 7.70699,-0.829 10.71679,-4.50147 10.71679,-4.50147 0,0 4.44034,6.49934 3.21534,15.86133 -1.137,8.67799 -4.93094,16.71867 -18.64893,20.57666 l -9.2168,17.36133 c 0,0 -7.53536,2.51192 -18.89062,2.30274 z M 39.52881,67.104985 v -1.004883 h 0.97998 v -3.559571 h 1.186524 v 3.559571 h 0.97998 v 1.004883 z m 4.07959,0 -0.773438,-4.564454 h 1.180664 l 0.380859,2.62793 h 0.01172 l 1.047364,-2.62793 h 0.471679 l 1.095703,2.62793 h 0.01172 l 0.333985,-2.62793 h 1.185058 l -0.689941,4.564454 h -1.1792 l -0.97998,-2.438965 -0.927246,2.438965 z" />
      <path id="path75" style="fill:#ff7300"
         d="m 161.49317,184.73926 c -7.85083,0.0341 -16.41392,-1.54846 -25.67578,-5.79345 -5.911,-2.71 -7.12354,-4.94824 -7.12354,-4.94824 0,0 9.26311,1.74271 23.8711,0.76171 19.29098,-1.29699 28.05335,-6.18796 30.83935,-7.68896 l -8.55176,16.08838 c -4.19437,0.9585 -8.64887,1.5601 -13.35937,1.58056 z m -5.8916,-21.27832 c -10.35399,-1.18999 -30.87127,-7.4565 -42.38526,-18.83349 v -0.83203 c 0,-4.236 -0.8366,-8.12613 -2.8916,-11.57813 0.989,-1.739 1.67681,-3.57828 2.13281,-5.50928 h 13.12061 c 1.157,3.091 2.49948,6.28987 3.89648,8.83887 7.167,13.07499 17.99096,22.60407 26.12696,27.91406 z m 18.7998,-24.46728 c 0,0 -14.85825,-1.5303 -32.21924,-9.67529 -1.848,-0.866 -3.56339,-1.74736 -5.15039,-2.61036 v -0.0146 l -0.0308,-39.124518 C 148.02793,79.9219 156.8276,77.476119 156.8276,77.476119 Z" />
      <path d="m 183.726,167.071 c 0,0 0.292,-2.989 -3.618,-6.769 -4.527,-4.377 -13.422,-9.306 -13.422,-9.306 0,0 13.074,2.357 23.792,0.428 7.918,-1.425 10.503,-6.019 10.503,-6.019 0,0 2.195,6.666 -2.787,12.664 -4.671,5.623 -14.468,9.002 -14.468,9.002" style="fill:#e4be8c" id="path85" />
      <path id="path91" style="fill:#fff" d="m 25.514649,181.13135 c 0,0 2.841453,-6.16203 5.960449,-8.97802 2.422998,-2.187 7.17334,-4.30664 7.17334,-4.30664 V 93.009282 c 0,0 -4.971353,-2.284576 -6.735351,-4.038574 C 27.655091,84.738712 26.07129,79.726079 26.07129,79.726079 H 61.227541 V 32.556644 c 0,-9.83999 5.7399,-15.908204 15.087891,-15.908204 H 128.28809 V 70.994145 H 81.426272 c 0,0 8.832003,-7.74189 15.645996,-10.483887 6.071992,-2.441998 16.454592,-3.294434 16.454592,-3.294434 V 29.934574 H 80.415529 c -3.442996,0 -4.428222,1.47545 -4.428222,6.231445 v 43.56006 h 12.338379 c 6.067994,0 8.856171,0.98444 11.972164,3.773437 3.117,3.115997 4.26563,6.394897 4.26563,12.462891 v 8.806643 h 8.14307 c 0,0 1.4771,-6.850553 3.4541,-10.810549 3.07799,-6.162994 11.43164,-13.464844 11.43164,-13.464844 l 0.104,37.560063 h -23.13281 v 1.30371 c 0,6.55999 -1.64085,10.00601 -6.068849,12.95801 4.263999,2.78799 6.068849,6.06798 6.068849,11.47998 v 23.72314 c 0,8.20099 -6.069491,13.61279 -15.417482,13.61279 z m 27.896485,-13.28466 h 29.994142 c 4.920995,0 6.396972,-1.31267 6.396972,-5.57666 v -17.4917 c 0,-4.756 -1.148727,-5.90332 -5.740722,-5.90332 H 53.411134 Z m 115.847176,-2.83741 c -1.71913,0.008 -3.85325,-0.0214 -5.51075,-0.16992 -2.97599,-0.266 -7.56445,-1.19678 -7.56445,-1.19678 l 10.28906,-4.28759 5.80957,5.60156 c 0,0 -1.30431,0.0446 -3.02343,0.0527 z M 53.411134,125.59034 h 29.501954 c 5.740994,0 6.88916,-0.98492 6.88916,-6.23291 v -1.30371 H 75.987307 c -8.691992,0 -14.759766,-6.23331 -14.759766,-14.9253 V 93.010747 l -7.817872,-0.0015 z m 28.64502,-20.82129 h 7.746094 v -6.181643 c 0,-4.263995 -1.476103,-5.578125 -6.725097,-5.578125 l -7.089844,0.0015 v 6.181641 c 0,4.427987 1.311852,5.576657 6.068847,5.576657 z" />
    </g>
  </g>
</svg>
