<?xml version="1.0" encoding="UTF-8" standalone="no"?>
<svg width="250px" height="250px" viewBox="0 0 250 250" version="1.1" xmlns="http://www.w3.org/2000/svg" xmlns:xlink="http://www.w3.org/1999/xlink">
    <!-- Generator: Sketch 47.1 (45422) - http://www.bohemiancoding.com/sketch -->
    <title>BUFF</title>
    <desc>Created with Sketch.</desc>
    <defs></defs>
    <g id="Page-1" stroke="none" stroke-width="1" fill="none" fill-rule="evenodd">
        <g id="BUFF" fill="#0064A2">
            <g id="Bull_Spiritmark_4C" transform="translate(11.000000, 14.000000)">
                <path d="M114.121,208.423 L114.093,208.423 C105.48,208.423 97.527,211.287 91.11,216.124 C91.852,218.598 94.668,221.864 100.278,221.99 C105.981,222.119 110.889,220.98 114.093,220.957 L114.121,220.957 C117.325,220.98 122.234,222.119 127.937,221.99 C133.547,221.864 136.363,218.598 137.104,216.124 C130.687,211.287 122.735,208.423 114.121,208.423" id="Fill-1"></path>
                <path d="M165.276,100.811 C150.5,112.012 140.69,123.883 127.854,118.63 C140.006,119.579 148.735,107.256 162.853,97.534 C175.775,88.634 183.64,87.179 193.622,89.63 C187.799,88.941 175.882,92.771 165.276,100.811 Z M62.939,100.811 C52.333,92.771 40.416,88.941 34.593,89.63 C44.575,87.179 52.44,88.634 65.362,97.534 C79.479,107.256 88.209,119.579 100.36,118.63 C87.524,123.883 77.715,112.012 62.939,100.811 Z M204.018,80.894 C213.45,75.346 227.702,62.924 228.201,41.189 C228.827,13.935 207.077,-0.472 187.305,0.056 C190.859,1.824 199.043,7.527 201.33,18.556 C204.067,31.758 197.68,45.223 183.343,49.448 C178.504,50.874 173.978,51.143 168.204,50.928 C171.775,54.794 174.32,62.132 175.199,69.967 C171.507,60.886 164.757,51.178 159.514,50.389 C154.492,49.775 151.402,49.428 145.022,49.184 C130.463,48.628 118.549,48.901 114.107,53.65 C109.666,48.901 97.752,48.628 83.192,49.184 C76.813,49.428 73.723,49.775 68.701,50.389 C63.458,51.178 56.708,60.886 53.016,69.967 C53.895,62.132 56.44,54.794 60.011,50.928 C54.237,51.143 49.71,50.874 44.872,49.448 C30.534,45.223 24.148,31.758 26.885,18.556 C29.171,7.527 37.356,1.824 40.91,0.056 C21.137,-0.472 -0.613,13.935 0.013,41.189 C0.512,62.924 14.765,75.346 24.197,80.894 C20.69,81.459 7.857,85.031 1.628,79.782 C5.506,96.839 24.217,111.822 42.636,112.143 C41.302,115.536 38.685,133.276 42.526,144.171 C46.368,155.065 71.965,161.682 77.389,177.076 C81.887,174.444 87.312,173.02 90.928,172.369 C90.085,160.101 87.061,147.933 82.309,137.807 C81.194,135.431 79.994,133.186 78.718,131.061 C78.337,131.084 77.956,131.107 77.57,131.107 C66.7,131.107 57.889,122.182 57.889,111.173 C57.889,109.832 58.019,108.523 58.269,107.256 C83.119,119.398 93.363,150.137 94.353,175.237 C89.61,175.554 77.829,178.454 73.984,184.42 C70.139,190.386 73.689,199.532 76.52,204.224 C79.895,209.819 85.213,213.664 88.345,213.664 C88.469,213.664 88.654,213.651 88.826,213.633 C93.437,210.094 98.795,207.508 104.616,206.143 C103.739,204.102 102.16,200.976 99.974,198.675 C94.393,192.524 86.832,193.197 84.968,199.924 C83.61,197.999 82.461,190.479 86.068,187.908 C89.964,185.131 100.648,187.134 107.129,205.633 C109.395,205.249 111.719,205.039 114.093,205.039 L114.107,205.009 L114.121,205.039 C116.495,205.039 118.82,205.249 121.086,205.633 C127.567,187.134 138.25,185.131 142.147,187.908 C145.754,190.479 144.605,197.999 143.247,199.924 C141.382,193.197 133.821,192.524 128.241,198.675 C126.054,200.976 124.475,204.102 123.599,206.143 C129.42,207.508 134.778,210.094 139.389,213.633 C139.561,213.651 139.746,213.664 139.869,213.664 C143.002,213.664 148.319,209.819 151.695,204.224 C154.526,199.532 158.076,190.386 154.231,184.42 C150.386,178.454 138.605,175.554 133.862,175.237 C134.852,150.137 145.096,119.398 169.946,107.256 C170.195,108.523 170.326,109.832 170.326,111.173 C170.326,122.182 161.515,131.107 150.645,131.107 C150.259,131.107 149.878,131.084 149.497,131.061 C148.22,133.186 147.02,135.431 145.906,137.807 C141.153,147.933 138.129,160.101 137.287,172.369 C140.903,173.02 146.328,174.444 150.825,177.076 C156.25,161.682 181.847,155.065 185.688,144.171 C189.53,133.276 186.912,115.536 185.579,112.143 C203.998,111.822 222.709,96.839 226.586,79.782 C220.358,85.031 207.524,81.459 204.018,80.894 L204.018,80.894 Z" id="Fill-3"></path>
            </g>
        </g>
    </g>
</svg>