<?xml version="1.0" encoding="UTF-8" standalone="no"?>
<svg xmlns:rdf="http://www.w3.org/1999/02/22-rdf-syntax-ns#" xmlns="http://www.w3.org/2000/svg" xml:space="preserve" height="139.27" viewBox="0 0 88.730469 139.26721" width="88.73" version="1.1" xmlns:cc="http://creativecommons.org/ns#" xmlns:dc="http://purl.org/dc/elements/1.1/"><g transform="matrix(1.25 0 0 -1.25 -350 358.82)"><g transform="translate(.81028 .81028)"><path d="m314.6 175.65h-34.605l4.125 14.1h34.605l-4.125-14.1z" fill="#e00122"/><path d="m72.254 0.0039062c-9.3275-0.2325-23.714 9.8712-25.656 20.281-0.54375 2.9425 0.21297 5.1503 1.7617 6.3828 0.53 0.57375 1.2092 0.98125 2.043 1.1562 2.6038 0.55 5.5852-0.32828 8.1289-2.3008 1.7388-1.35 3.2673-3.2038 4.3223-5.4551 0.69875-1.4975 1.1552-2.8764 1.3789-4.1289 0.32-1.7588 0.21242-3.2614-0.20508-4.4727-0.24875-0.71375-0.59805-1.3251-1.0293-1.8301-0.4275-0.5-0.94102-0.89203-1.5098-1.1758-0.76125-0.37375-1.5784-0.57133-2.4434-0.61133 1.1212-0.5525 2.3128-0.84523 3.4766-0.80273 0.9425 0.03125 1.7977 0.275 2.5352 0.6875 0.01 0.00875 0.02992 0.016641 0.04492 0.025391 0.26625-0.61 0.56188-1.1941 0.89063-1.7578 1.57-2.6588 3.833-4.7577 6.2793-5.9102l-0.019-0.087zm-25.443 5.9199c-7.6788 1.4212-17.664 11.858-17.453 20.459 0.0575 2.4425 1.0699 4.073 2.5449 4.793 0.5375 0.36875 1.1611 0.57812 1.8711 0.57812 2.2288 0.0025 4.5199-1.2012 6.2637-3.2012 1.1888-1.365 2.1228-3.1005 2.6016-5.0742 0.31875-1.31 0.44086-2.4833 0.41211-3.5195-0.04375-1.455-0.3857-2.6332-0.93945-3.5332-0.3225-0.525-0.72031-0.95195-1.1641-1.2832-0.44-0.32375-0.9257-0.55414-1.4395-0.68164-0.6875-0.1725-1.3953-0.19188-2.1016-0.07813 0.82125-0.62875 1.7408-1.0571 2.707-1.2246 0.77625-0.13125 1.5153-0.0832 2.1953 0.12305 0.01375 0.0038 0.02586 0.0074 0.03711 0.01367 0.1125-0.53125 0.25789-1.0445 0.43164-1.5508 0.8125-2.355 2.2852-4.3888 4.0664-5.7188l-0.0332-0.10156zm35.891 7.6055c-6.3897 0.16847-14.674 3.9797-17.498 9.5859-0.995 1.9638-0.93398 3.6774-0.14648 4.8574 0.2375 0.5175 0.61172 0.93992 1.1367 1.2324 1.65 0.92 3.8648 0.90336 5.9961 0.03711 1.4612-0.5975 2.888-1.5936 4.0742-2.9648 0.795-0.9125 1.3824-1.7934 1.7949-2.6309 0.59375-1.1738 0.83164-2.2539 0.80664-3.1914-0.01875-0.5525-0.13031-1.0582-0.32031-1.502-0.185-0.4375-0.44664-0.82297-0.77539-1.1367-0.43375-0.42-0.95289-0.72453-1.5254-0.92578 0.88375-0.1625 1.7391-0.12508 2.5254 0.13867 0.63125 0.21125 1.1538 0.56125 1.5625 1 0.01375 0.0125 0.02734 0.01914 0.02734 0.02539 0.31125-0.3725 0.63227-0.72328 0.97852-1.0508 1.5875-1.525 3.5191-2.5295 5.3828-2.8633l0.0098-0.12305c-1.1825-0.37195-2.5548-0.52716-4.0293-0.48828zm-55.846 4.7461c-5.8138 1.9112-12.421 10.943-11.309 17.48 0.315 1.8562 1.2803 2.9928 2.5078 3.3828 0.4575 0.225 0.96703 0.31719 1.5195 0.24219 1.735-0.2375 3.3812-1.3995 4.5137-3.1133 0.7775-1.1688 1.3116-2.5941 1.4629-4.1504 0.1-1.0362 0.0718-1.9444-0.06445-2.7344-0.195-1.1012-0.59484-1.9648-1.1211-2.5898-0.31-0.36875-0.66547-0.65312-1.043-0.85938-0.38-0.1975-0.78547-0.32203-1.1992-0.36328-0.55125-0.05625-1.1051 0.0055-1.6426 0.16797 0.57125-0.57 1.2377-0.99586 1.9727-1.2246 0.585-0.18625 1.1661-0.22453 1.7148-0.14453 0.0125 0.005 0.02516 0.0046 0.03516 0.0059 0.0275-0.41375 0.08086-0.82547 0.16211-1.2305 0.3725-1.8862 1.2966-3.5947 2.5391-4.8047l-0.04883-0.06445zm23.925 15.754c-22.492 0-41.454 20.141-45.855 41.148-5.075 24.229 9.7183 39.001 26.426 38.687 17.886-0.34125 26.387-19.518 27.859-23.463l-0.17-0.026c-6.1338 10.129-15.271 13.73-19.271 13.73-16.962 0-17.114-16.83-13.484-30.285 5.0162-18.604 12.9-30.162 24.4-30.162 4.165 0 10.163 2.9455 11.498 16.262l0.23633 0.02734c1.1025-3.0938 6.5996-20.891 6.5996-20.891-5.4575-3.0162-11.013-5.0273-18.238-5.0273z" transform="matrix(.8 0 0 -.8 280 285.46)"/></g></g></svg>
