<svg xmlns="http://www.w3.org/2000/svg" height="290.88" width="290.88" viewBox="0 0 232.7 232.69663">
 <g transform="matrix(.75 0 0 .75 1.6801 1.5182)">
  <path d="m306 153c0 84.5-68.5 153-153 153s-153-68.5-153-153 68.5-153 153-153 153 68.5 153 153" fill="#c8c372"/>
  <path fill="#1e4d2b" d="m299.66 153c0 81-65.66 146.66-146.66 146.66s-146.66-65.66-146.66-146.66 65.66-146.66 146.66-146.66 146.66 65.66 146.66 146.66"/>
  <path fill="#fff" d="m153.04 14.304c-76.43 0-138.68 62.265-138.68 138.7 0 76.335 62.255 138.7 138.68 138.7 76.33 0 138.6-62.36 138.6-138.7 0-76.43-62.265-138.7-138.6-138.7"/>
  <path fill="#1e4d2b" d="m256.63 235.24c-4.6054 6.25-9.8965 11.398-16.614 13.783-4.2051 1.6797-8.617 2.3828-12.922 0.39649-3.3886-1.4844-5.504-4.8574-6.1095-8.633-0.78125-5.547 2.3144-12.088 5.008-16.457 3.7188-6.2325 12.224-17.138 22.03-24.377 13.924-10.316 23.631-13.192 20.035-15.566-2.5098-1.6875-15.717 5.5565-18.32 6.9415-14.828 7.635-35.26 29.736-37.662 46.104-1.6562 11.276 9.4865 19.74 19.068 19.35-31.824 25.554-66.455 26.386-78.07 26.66l-0.082-0.004-0.0195 0.004c-11.713-0.27539-46.414-1.1445-78.12-26.662 9.59 0.40039 20.746-8.0665 19.08-19.348-2.41-16.37-22.935-38.47-37.65-46.105-2.6054-1.3848-15.83-8.629-18.332-6.9415-3.6035 2.375 6.1035 5.25 20.028 15.566 9.8185 7.2385 18.23 18.144 21.93 24.377 2.8028 4.3692 5.906 10.91 5.1075 16.457-0.60545 3.7754-2.8008 7.1485-6.1095 8.633-4.3106 1.9863-8.705 1.2832-13.014-0.39649-6.605-2.385-11.915-7.53-16.522-13.78-8.709-11.8-17.215-25.38-21.533-39.75 3.6992 8.2265 27.138 42.625 37.551 43.121 10.705 0.5957-10.412-27.951-24.936-39.846-3.5039-2.877-7.5115-6.254-8.297-11.614-0.61915-3.8711 1.3867-6.4415 5.1975-6.6365 5.8145-0.20117 20.932 7.631 21.123 7.34-26.226-47.09 13.92-70.88-2.6972-81.195-5.8165-3.6778-18.115 0-24.834 0.99025 61.785-36.486 72.585-0.0957 91.215 16.65 2.9062 2.6816 16.02 0 18.524-3.0722 3.3047-3.9648 9.908-18.246 2.4004-27.66-10.365-13.11-52.03-50.74-91.455-22.365 9.6-13.215 24.06-25.148 41.345-34.008 19.475-9.9785 40.815-15.184 60.065-14.637h0.11132c37.789-1.0508 80.065 19.549 101.2 48.642-39.508-28.369-81.07 9.256-91.54 22.367-7.4025 9.414-0.89259 23.696 2.4082 27.66 2.6035 3.0722 15.715 5.754 18.621 3.0722 18.627-16.746 29.442-53.135 91.21-16.65-6.699-0.99025-19.114-4.668-24.814-0.99025-16.638 10.314 23.414 34.104-2.7148 81.195 0.20508 0.29102 15.33-7.541 21.129-7.34 3.8066 0.19531 5.8125 2.7656 5.207 6.6365-0.79885 5.3595-4.9043 8.7365-8.3105 11.614-14.522 11.894-35.64 40.442-25.033 39.846 10.512-0.49609 33.949-34.894 37.648-43.121-4.3047 14.369-12.906 27.948-21.533 39.748z"/>
  <path d="m267.93 154.35c-9.9336-0.12201-6.7086 12.123-3.9141 18.045 1.9824 3.9698 4.456 10.534 10.652 10.031 7.5656-0.61768 6.4309-6.8145 17.352-7.6738 0 0 13.626 0.99756 13.396 5.3359-0.50538 6.4381-7.5793 8.7907-12.154 10.393-6.8162 2.2387-14.636-1.0991-20.205 5.2168-1.7212 2.0996-3.1015 4.7056-2.4863 7.0566 0.62013 2.3608 0.89027 1.3642 8.4316 1.9746-4.2163 5.2149-6.6887 13.149-6.8105 20.092-0.23438 18.713-4.9571 33.203-3.1016 39.658 9.0575-10.918 8.9211-27.384 10.418-40.531 0.85938-6.8238 3.3353-14.38 6.6973-19.326 3.8379-5.8276 11.155-6.0844 15.975-9.666 4.5874-3.3521 11.764-9.0537 11.146-14.389l-0.002 0.002c-0.86425-7.1775-7.1812-9.4131-12.75-11.156-16.121-5.0732-22.932 1.2436-27.637 1.7441 5.0732-5.8154 3.8354-15.493-2.8418-16.611-0.78324-0.1236-1.5038-0.18718-2.166-0.19531zm-151.68 0.006c-0.66795 0.008-1.3959 0.0698-2.1856 0.19335-6.5769 1.1182-7.812 10.796-2.8633 16.611-4.5703-0.50048-11.391-6.8172-27.502-1.7441-5.5689 1.7432-11.897 3.9783-12.764 11.156-0.62256 5.3345 6.5659 11.034 11.148 14.387 4.7168 3.5816 12.152 3.8383 15.992 9.666 3.2153 4.9463 5.8153 12.502 6.6992 19.326 1.4771 13.147 1.2336 29.615 10.408 40.533 1.7212-6.455-2.9844-20.945-3.0918-39.658-0.14892-6.9431-2.7432-14.879-6.8203-20.094 7.5512-0.61035 7.6699 0.38625 8.2949-1.9746 0.73244-2.3511-0.74362-4.9551-2.4844-7.0547-5.4492-6.3156-13.25-2.98-20.203-5.2188-4.5776-1.6016-11.631-3.9545-12.01-10.393-0.24658-4.3384 13.389-5.334 13.389-5.334 10.896 0.85937 9.6516 7.0563 17.213 7.6738 6.1988 0.50292 8.803-6.0633 10.793-10.033 2.7878-5.9209 6.0055-18.165-4.0137-18.043zm127.83 23.242c-1.6261-0.033-3.273 0.19569-4.8516 0.75782-6.3156 1.7358-8.3123 7.55-12.043 12.75-3.5718 5.4517-9.5301 9.2996-14.486 11.287-3.1079 7.1775 2.2383 24.169 7.3164 31.969 2.8442 5.8276 14.609 19.949 12.141 41.387 9.2894-13.503 16.715-27.882 19.818-36.559 5.4614-11.643 7.9351-30.116 7.4394-42.631-0.73975-6.0742-2.2214-13.747-7.8047-16.963-2.1683-1.1627-4.8192-1.943-7.5293-1.998zm-105.75 0.002c-2.7168 0.055-5.373 0.83335-7.5352 1.9961-5.5762 3.2153-6.9309 10.89-7.8047 16.965-0.36378 12.514 1.976 30.988 7.4277 42.631 3.2251 8.6769 10.659 23.055 19.943 36.559-2.5952-21.438 9.3019-35.561 12.031-41.389 5.0854-7.8 10.419-24.789 7.3184-31.967-4.9536-1.9873-10.91-5.8352-14.512-11.287-3.5938-5.2002-5.6875-11.016-12.006-12.752-1.5811-0.56213-3.2332-0.78888-4.8633-0.75586zm53.064 45.484v0.0156c-5.9204 0.13427-9.1244 5.1331-14.627 10.893-9.5362 10.403-29.129 36.301-14.871 48.574 6.3156 5.4517 14.629 9.17 26.023 5.6934 2.8516-1.9726 1.2354-7.7972-0.24415-10.414-5.332-6.9312-13.632-4.1955-15.988-7.6699-2.2388-3.3423-0.74462-5.9616 0.61524-7.6777 1.9849-2.478 5.2-1.8657 7.9316-1.1211 4.8389 1.0938 8.1283 3.124 11.16 6.0879v0.22461c0.0415-0.039 0.0796-0.0659 0.11133-0.10742 0.0464 0.0415 0.0802 0.0684 0.12891 0.10742v-0.23047c2.9175-2.9688 6.328-4.998 11.152-6.082 2.605-0.74463 5.9472-1.357 7.8125 1.1211 1.4868 1.7163 2.8496 4.3356 0.62305 7.6777-2.3608 3.4741-10.534 0.73848-15.869 7.6699-1.4771 2.6172-3.2256 8.4416-0.38867 10.414 11.541 3.4766 19.717-0.24168 26.035-5.6934 14.38-12.273-5.2001-38.171-14.873-48.574-5.3662-5.7544-8.7059-10.758-14.492-10.893v-0.0156c-0.0489 0-0.0825 0.008-0.12891 0.008l-0.11133-0.008zm-18.947 68.646c-0.81615 0.0638-1.3789 0.62695-1.3789 0.62695-3.6719 7.8344 17.414 12.165 20.451 12.025 3.0396 0.13916 24.242-4.191 20.572-12.025 0 0-0.74802-0.73586-1.7441-0.6211-6.2938 0.62012-13.195 2.0918-18.764 1.9844-5.5689 0.10737-12.48-1.3642-18.771-1.9844-0.12604-0.0143-0.24864-0.015-0.36523-0.006z" fill="#fff" transform="matrix(.8 0 0 .8 0 -.0022217)"/>
  <path d="m245.7 186.65c-6.7507-0.11925-17.948 14.442-15.025 26.146 1.482 0.49094 2.2387-0.36131 5.7031-6.0547 2.59-4.3482 8.917-3.4834 11.764-5.2168 4.8413-3.1056 4.7046-9.7935 0.12695-13.873-0.72875-0.66744-1.604-0.98492-2.5684-1.002zm-109 0.002c-0.9649 0.017-1.8376 0.33256-2.5664 1-4.4605 4.0794-4.6996 10.77 0.11719 13.875 2.9738 1.7334 9.2945 0.86867 11.768 5.2168 3.4888 5.6934 4.2251 6.5454 5.7168 6.0547 2.9307-11.704-8.2809-26.266-15.035-26.146z" transform="matrix(.8 0 0 .8 0 -.0022217)" fill="#1e4d2b"/>
 </g>
</svg>
