<?xml version="1.0" encoding="UTF-8" standalone="no"?>
<svg xmlns:rdf="http://www.w3.org/1999/02/22-rdf-syntax-ns#" xmlns="http://www.w3.org/2000/svg" xml:space="preserve" height="100.88" viewBox="0 0 137.32524 100.88043" width="137.33" version="1.1" xmlns:cc="http://creativecommons.org/ns#" xmlns:dc="http://purl.org/dc/elements/1.1/"><g transform="matrix(1.25 0 0 -1.25 -593.19 735.42)"><g style="" transform="translate(.85552 .85552)"><path d="m524.5 584.82-0.846-0.286c-9.086-2.882-13.402-8.432-14.393-9.861-0.341-0.34-2.808-4.56-3.966-5.711-2.854-0.36-10.337-2.291-13.94-6.561-2.049 0.075-5.304 0.024-5.34 0.023-1.335-0.097-2.481-0.948-2.919-2.166-0.085-0.235-0.186-0.618-0.186-1.088 0-0.77 0.272-1.783 1.333-2.794 0.668-0.639 1.752-1.34 2.907-1.942-0.47-1.725-0.739-4.044-0.739-6.167 0-0.936 0.058-1.818 0.166-2.606-0.517-0.251-1.015-0.518-1.345-0.739-0.807-0.546-2.485-2.002-3.657-4-0.745-1.272-1.094-2.255-1.197-4.705-0.016-0.418-0.071-1.688-0.359-2.19-0.35-0.608-1.517-2.273-2.144-3.168l-0.669-0.967c-0.461-0.695-0.751-1.647-1.111-2.912l-0.139-0.466c-0.113-0.346-0.531-1.313-0.691-1.575-0.525-0.796-0.714-1.715-0.714-2.663 0-0.976 0.197-1.983 0.43-2.924 0.605-2.449 3.054-6.34 5.121-9.456l0.278-0.42-0.059 0.099c0.55-0.998 1.313-1.622 2.271-1.856 1.428-0.346 2.475 0.358 2.978 0.695l0.25 0.165c1.676 1.029 2.58 2.436 3.117 3.276 0 0 0.071 0.107 0.135 0.204 0.212 0.156 0.562 0.415 0.562 0.415 1.04 0.752 1.698 1.239 2.14 1.776 1.7 2.063 2.527 5.177 2.65 6.654l0.114 1.224c0.3 3.111 0.402 4.41 0.402 5.118 0 0.262-0.014 0.441-0.038 0.604 0-0.006 0.02-0.275 0.02-0.275 0.014 0.291 0.181 1.023 0.33 1.454 0.915-0.226 2.097-0.675 2.467-0.889 1.131-0.666 4.287-2.209 9.085-2.187 5.27 0.027 8.137 0.738 8.89 0.954 1.088 0.314 3.111 0.973 3.92 1.402l-0.07-0.035 0.145 0.063c0.556 0.245 1.354 0.616 2.08 1.172 2.747 0.091 4.826 0.091 6.359 0.039-0.925-1.009-1.814-2.303-2.369-3.931-0.577-1.686-0.953-3.994-1.124-6.859-0.075-1.266-0.123-2.211-0.123-2.942 0-1.639 0.243-2.194 0.977-2.869l1.056-0.971 5.981 1.03c-0.005 0-0.131-0.023-0.131-0.023l0.852 0.015 2.053 0.084c1.274 0.163 3.127 0.634 4.511 1.472 1.499 0.91 2.852 2.568 3.164 2.961 0.351 0.361 1.792 1.442 2.313 1.8 0.058 0.025 0.625 0.299 0.625 0.299l1.753 0.931c0.032 0.021 3.17 2.309 4.359 3.595 0.376 0.411 0.904 1.03 1.432 1.669 0.296-0.357 0.602-0.705 0.91-1.046l0.23-0.254c1.329-1.509 3.016-1.632 4.062-1.278l0.244 0.083 0.226 0.124c0.868 0.477 2.867 1.589 3.641 2.11 0.166 0.072 0.608 0.165 0.813 0.177h0.004c1.244 0 2.435 0.734 3.061 1.366-0.052-0.051 0.145 0.13 0.145 0.13 3.646 3.363 10.178 9.623 12.968 13.779 1.301 1.937 2.139 3.535 2.568 5.971 0.632 3.574 0.573 4.469 0.222 7.685l-0.068 0.633c-0.579 5.347-5.693 11.345-6.545 12.035l-0.157 0.133c-0.997 0.856-3.643 3.127-8.894 4.79-2.508 0.796-5.614 0.945-7.028 0.902-0.018 0.008-0.03 0.013-0.047 0.023-0.234 0.3-0.739 0.984-1.011 1.443-1.357 2.27-3.644 4.593-6.799 6.906l-0.08 0.06c-0.001 0-0.133 0.101-0.133 0.101-1.013 0.776-4.096 3.136-10.371 4.38-8.485 1.682-13.971-0.22-16.918-1.242" fill-rule="evenodd" fill="#cfb87c"/><path d="m75.551 3.6406c-6.538-0.0214-10.759 1.8382-13.071 2.5723-5.9675 1.8912-10.081 4.771-12.68 7.1348h27.754l5.2812 7.2754-1.4043 9.4688h-9.3926l1.1289-7.6348h-21.75l-3.4922 23.592h7.1797l1.2402-8.3867h-2.8867l1.127-7.5996h12.635l-2.3652 15.986h4.7539l1.2363-8.3594h9.4648l-1.5488 10.479-7.4727 7.0625h-7.791l-1 6.7676h18.602l4.7383-32.033h12.582l-1.1367 7.6855h-2.9199l-3.9355 26.611-7.2109 6.9648h-10.545c-2.1375 1.0388-4.1515 2.9315-5.209 6.334-1.3588 4.37-1.3223 11.969-1.3223 11.969s4.8254-0.78781 5.5254-0.94531 2.567-0.000703 3.8145-0.1582c1.245-0.15625 3.0344-0.62914 4.2031-1.3379 1.165-0.70875 2.4902-2.2046 3.0352-2.9121 0.545-0.70875 3.2695-2.6779 3.7383-2.9941 0.46625-0.315 2.2558-1.0262 2.8008-1.4199 0.5425-0.3925 3.813-2.8337 4.9043-4.0137 1.0888-1.1812 3.0612-3.6065 3.6562-4.4902 1.0125-1.495 2.0384-0.24476 2.1797 0.24024 0.38875 1.3362 2.1783 3.1492 2.8008 3.8555 0.62375 0.71125 1.168 0.55469 1.168 0.55469s3.5799-1.969 4.3574-2.5215 2.4159-0.78711 2.8809-0.78711c0.47 0 1.0905-0.39516 1.3242-0.62891 0.23375-0.2375 11.829-10.712 15.955-16.854 1.3637-2.03 2.2102-3.597 2.6465-6.0645 0.7775-4.4088 0.62375-5.0386 0.15625-9.3711-0.57625-5.3388-6.0734-11.97-6.8496-12.6-0.77875-0.63-3.6572-3.4674-10.117-5.5137-3.1012-0.9825-7.3944-1.0234-7.9394-0.94336-0.61625 0.08625-1.9485-0.63031-2.2598-0.94531-0.30875-0.3175-1.3966-1.7602-1.9453-2.6777-2.249-3.778-6.765-7.009-7.619-7.6377-0.858-0.63-4.127-3.4667-11.676-4.9629-2.709-0.5366-5.145-0.7526-7.324-0.7598zm-34.293 21.105c-3.1762 0.50875-14.056 3.1109-18.188 8.8184-0.265 0.36875-1.1485 0.48898-1.6348 0.45898-0.42625-0.025-6.5673-0.03047-6.8398-0.01172-0.27375 0.02-0.99469 0.29484 0.03906 1.2773 0.9075 0.8675 3.0532 2.1285 4.9082 2.791 0.655 0.235 0.53953 1.3174 0.20703 1.8887-1.1475 1.9975-1.7506 9.5766-0.82812 12.182 0.12875 0.36625-0.06352 1.5837-0.57227 1.7324-0.72625 0.20875-2.3358 0.97063-2.957 1.3906-0.62375 0.42-2.3266 1.8803-3.4629 3.8203-0.62125 1.0625-0.8975 1.6912-1 4.1875-0.06125 1.4725-0.20734 3.1507-0.93359 4.4082-0.72625 1.2625-3.2178 4.7249-3.6328 5.3574-0.41625 0.62875-0.93258 2.7287-1.1426 3.3574-0.2075 0.6325-0.88398 2.2243-1.2715 2.8105-0.62125 0.9425-0.13219 3.0548 0.13281 4.1211 0.82875 3.3575 6.1038 10.929 6.3301 11.338 0.51875 0.945 0.80492 0.48703 1.7637-0.10547 2.05-1.2588 2.8013-3.3598 3.4238-3.8848 0.62125-0.5225 2.667-1.8741 3.1133-2.4141 1.5575-1.89 2.3872-5.0395 2.4922-6.3008 0.10375-1.26 0.7268-7.1375 0.62305-7.875-0.105-0.73375 0.51758-3.5672 1.1426-4.3047 0.62-0.735 1.8608-1.5382 2.4883-1.4707 1.6862 0.18375 4.4195 1.221 5.3457 1.7598 1.79 1.0525 5.0591 2.2537 9.4941 2.2324 5.2925-0.02625 8.7291-0.65023 10.119-1.0527 1.635-0.47125 3.6569-1.18 4.2031-1.4688 0.20125-0.10625 0.89297-0.37117 1.543-0.73242l-3.735-4.881 1.322-8.944h-10.006l-5.9395-7.1328 3.4531-23.352z" fill-rule="evenodd" transform="matrix(.8 0 0 -.8 474.55 586.72)"/><path d="m563.64 547.07c-0.829-1.259-1.948-1.263-1.948-1.263-2.535-0.11-2.647 2.423-2.647 2.423 0.132 5.47 6.329 8.855 8.478 9.973 0 0 0.801 0.458 0.401-0.24-2.069-3.603-3.011-6.276-3.282-7.533 0 0-0.488-2.574-1.002-3.36" fill="#fff"/><path d="m563.64 547.07c-0.829-1.259-1.948-1.263-1.948-1.263-2.535-0.11-2.646 2.423-2.646 2.423 0.131 5.47 6.329 8.855 8.477 9.973 0 0 0.801 0.458 0.401-0.24-2.069-3.603-3.012-6.276-3.283-7.533 0 0-0.487-2.574-1.001-3.36" fill="#fff"/></g></g></svg>
