<svg xmlns="http://www.w3.org/2000/svg" height="249.64" viewBox="0 0 235 249.64062" width="235"><g transform="matrix(1.25 0 0 -1.25 -380.97 498.58)"><g><path d="m490.13 278.17c1.3847 18.638-6.8088 30.12-6.8088 30.12-4.6741 7.9628-19.446 21.292-19.446 21.292-1.962 1.558-7.3281 7.2708-7.3281 7.2708-5.6547 6.2314-11.31 16.502-11.31 16.502-2.0774 4.2127-11.309 18.004-11.309 18.004-7.8249 10.366-17.04 15.502-17.04 15.502-16.541 9.8286-31.699 9.5024-31.699 9.5024 0.346-7.8092-1.9238-13.617-1.9238-13.617-2.5387-6.3092-7.4236-6.2321-7.4236-6.2321-3.8087-0.50023-6.6941 2.5387-6.6941 2.5387-4.5778 4.655-5.8247 13.001-5.8247 13.001-15.464-3.52-21.119-14.368-21.119-14.368-4.154-6.8374-4.7539-17.146-4.7539-17.146-0.51934-7.3854-0.88445-21.725-0.88445-21.725-0.52958-6.9241-2.5776-9.7706-2.5776-9.7706-1.2694-2.7311-4.9232-6.4238-4.9232-6.4238-0.26956-0.346-4.7703-5.2323-4.7703-5.2323-2.8089-3-4.2707-5.001-4.2707-5.001-4.616-7.1547-4.7314-14.079-4.7314-14.079-0.11534-9.2328 3.2689-13.172 3.2689-13.172-2.3278 0.0362-4.5737-0.7309-6.4702-2.076-1.0878-0.77253-1.9736-1.7477-2.6854-2.8792-0.55346-0.87898-0.98067-1.8446-1.1902-2.8642-0.0873-0.42448-0.12352-0.85442-0.1556-1.2857-0.0348-0.46816-0.0676-1.0987 0.13649-1.5341 0.59031-1.2598 1.4352-2.4636 2.42-3.4429 0.45109-0.44836 0.94928-0.85442 1.5027-1.1704-1.0175-0.7657-1.9416-1.743-2.6158-2.8212-0.50637-0.81075-0.88513-1.7477-0.84691-2.7182-0.0171-0.48112-0.0478-0.94791 0.007-1.4304 0.0894-0.79778 0.34464-1.6795 1.0209-2.1777 0.16993-0.12557 0.37261-0.20269 0.56233-0.29413 0.389-0.18904 0.77799-0.38149 1.1636-0.57803 0.41902-0.21361 0.83668-0.43063 1.2434-0.66539 0.071-0.0409 0.25114-0.10578 0.28049-0.18426 0.0287-0.0764 0.06-0.15218 0.0928-0.22725 0.34395-0.7971 0.82235-1.5498 1.4215-2.179 0.74728-0.78617 1.7232-1.2468 2.6854-1.7163 0.95406-0.46475 1.9293-0.88445 2.9161-1.2728 0.65037-0.25592 1.3062-0.4975 1.9661-0.7268 0.35214-0.12216 0.67016-0.11261 1.0428-0.0539 0.41493 0.0655 0.89127 0.19723 1.2236 0.46475 0.22794 0.18289 0.46407 0.35555 0.70224 0.52411 0.46747 0.32894 0.94928 0.63809 1.4413 0.92745l0.1556 0.14263c-0.50228-1.6297-0.7814-3.3351-0.71316-5.0426 0.0751-1.8911 0.59373-3.7412 1.5082-5.3975 0.19176-0.34668 0.38694-0.76843 0.66197-1.0557 0.23339-0.24363 0.47566-0.47907 0.72202-0.70837 0.92199-0.85988 1.2107-1.1847 3.0601-2.2521-0.20405 0.96498-0.31324 1.9566-0.37056 2.9406-0.1051 1.8017-0.0348 3.7316 0.68039 5.4152 0.57872 1.3628 1.6829 2.4111 2.9127 3.1952 2.9318 1.8692 6.5508 2.521 9.9664 2.71 2.4664 0.13649 4.9675 0.0491 7.4236-0.19382 1.5396-0.15286 3.0894-0.36852 4.5778-0.79777 0.51456-0.14878 1.1021-0.33031 1.6365-0.59714l0.72885-0.4859c0.0921-0.74728-0.1945-0.9097-0.26206-1.3021-0.0635-0.36169-0.19518-0.67903-0.37944-0.99227-0.28458-0.48385-0.54459-0.98204-0.79436-1.485-0.37944-0.76434-0.73568-1.5396-1.0721-2.323-0.36921-0.86193-0.3774-1.7375-0.0703-2.6226 0.31256-0.90219 0.83668-1.7593 1.3369-2.566 0.57121-0.91994 1.2134-1.7962 1.9286-2.6104 0.17334-0.19723 0.35146-0.39446 0.53504-0.58895l-0.15628-0.14946c-7.3718-2.2992-14.449-4.4509-18.807-5.4131 0 0-11.809-3.4921-16.989 1.4099 0 0-0.67835 1.3151-2.3005 0.64013 0 0-3.1638-0.81348-6.604-6.0089 0 0-2.5387 0.0266-4.5526-1.2598 0 0-5.6595-4.0189-3.664-11.81 0 0 1.7375-3.0191 6.4245-3.6074 0 0-0.38081-6.9971 2.5271-8.4896 0 0 1.5799-1.3089 5.3053-0.28663 0 0 1.3758-0.86124 2.222-0.87012 0 0 3.6149-0.19176 5.6192 0.24841 0 0 3.0812 0.27503 4.728 3.2587 0 0 2.9093 5.8936 3.2246 6.5829 0 0 1.9593 3.4416 5.5142 4.943 0 0 11.195 5.4555 37.85 14.677l0.79573 0.2375c0.20064-0.17608 0.53231-0.48318 0.6879-0.6142 0.58622-0.49341 1.1997-0.88718 1.93-1.1376 0.64695-0.22111 1.3396-0.3576 2.0234-0.37466 1.4761-0.0375 2.9536-0.0287 4.4298-0.056 0.42107-0.008 2.0337-0.0717 2.4145-0.03 0.56574 0.0621 1.1138 0.25865 1.6201 0.5132 0.20405 0.10168 0.41902 0.29072 0.6374 0.35146 0.51593 0.14331 1.0093 0.48453 1.4666 0.75273 0.69405 0.40742 1.3758 0.83463 2.0542 1.2666 1.4406 0.91857 2.8615 1.8556 4.324 2.7373l0.0171-0.0232c33.415-11.495 48.385-18.866 48.385-18.866 3.5392-1.5382 5.4623-5.0003 5.4623-5.0003 0.30778-0.69268 3.1543-6.617 3.1543-6.617 1.6153-3.0007 4.6932-3.3078 4.6932-3.3078 2.0002-0.46201 5.6165-0.30778 5.6165-0.30778 0.84623 0 2.2309 0.84623 2.2309 0.84623 3.7152-1.0619 5.3087 0.23067 5.3087 0.23067 2.9236 1.4618 2.6158 8.463 2.6158 8.463 4.6932 0.53845 6.4628 3.5392 6.4628 3.5392 2.0774 7.7703-3.5392 11.848-3.5392 11.848-2.0009 1.3082-4.5389 1.3082-4.5389 1.3082-3.3856 5.2309-6.5399 6.0778-6.5399 6.0778-1.616 0.69269-2.308-0.61556-2.308-0.61556-5.2316-4.8467-17.003-1.2311-17.003-1.2311-8.9967 2.0876-33.348 10.37-36.449 11.429l-0.009 0.0137c0.62444 0.35214 1.2489 0.7036 1.8733 1.0551 0.40333 0.22657 0.80597 0.45314 1.21 0.67903 0.27366 0.15424 0.54186 0.32894 0.8005 0.52139l-0.00068 0.005 13.495 4.2619c19.965 5.8854 23.658 6.2321 23.658 6.2321 6.5774 1.5 12.809-3.6934 12.809-3.6934 0.92334-0.57667 1.962-0.46134 1.962-0.46134 4.7314 1.6154 7.0394 3.116 7.0394 3.116 1.616 1.154 2.308 3.116 2.308 3.116 0.92403 0.57667 3.1167 1.6154 3.1167 1.6154 1.5 0.92335 1.154 3.6927 1.154 3.6927 0.11533 2.8854-3.4627 5.5394-3.4627 5.5394 2.424 1.3854 3.924 4.6167 3.924 4.6167 0.46133 1.2694 0.11533 1.7307 0.11533 1.7307-0.0703 0.40878-0.17197 0.81143-0.29618 1.2018l3.5419 1.5068z" stroke="#ffd615" stroke-miterlimit="10" stroke-width="3.2314" fill="#fff"/><g><path d="m111.87 15.828s-0.96 10.964-9.23 19.428c0 0-9.813 8.654-22.507 3.652 0 0-9.81-3.46-14.041-14.808 0 0-8.079 3.461-11.252 12.693 0 0-2.885 9.521-2.885 18.176l-0.289 16.734s0.866 12.405-6.635 24.235c0 0-12.406 13.852-13.56 15.292 0 0-7.501 10.1-6.059 17.6 0 0-0.577 10.38 13.272 19.62 0 0 14.426-7.5 22.793-6.06 0 0-0.001-3.85 0.767-5.19 0 0 0.771-2.31 5.194-7.31 0 0-2.308-5.39-0.383-13.85 0 0-3.273-2.89-4.041-7.12 0 0-0.576-2.88 0.193-4.23 0 0 2.5-5.963 7.309-9.04 0 0 1.537-1.25 4.23-0.289 0 0 4.809-4.519 5.963-6.058 0 0 4.232-4.426 8.656-4.617 0 0 18.465-1.922 22.315-2.307 0 0 4.42-0.963 10.58 0.191 0 0 27.31 5.385 32.69 33.47 0 0 1.54 8.65 0.77 14.23 0 0 9.81-0.19 14.04 10 0 0 2.12 5.39 0.96 11.54 0 0-1.73 5.58-6.73 9.43 0 0-3.27 1.92-10.19 1.73 0 0-6.54-2.31-9.43-5.96 0 0-0.57 12.02 3.66 18.94 0 0 35.77-12.98 42.7-18.37 0 0 5.77-5.38 6.73-8.27 0 0 3.46-5 9.42-3.27 0 0 6.93-4.03 12.89-1.34 0 0 0.39-17.7-13.08-32.89 0 0-7.69-9.43-19.04-18.853 0 0-14.42-14.425-26.16-37.41 0 0-12.69-30.487-49.62-39.719zm43.7 122.92l0.89 6.2c0.31 2.82-1.26 4.39-1.26 4.39-1.25 2.82-4.7 4.7-4.7 4.7 1.25 0.94 3.76 2.2 3.76 2.2 3.77 1.25 9.41-3.77 9.41-3.77 0.63-1.25 0.31-6.27 0.31-6.27-0.94-5.64-8.41-7.45-8.41-7.45z" transform="matrix(.8 0 0 -.8 304.78 398.86)" fill="#582c83"/><path d="m101.87 3.8984c0 16.446-6.64 22.215-6.64 22.215-5.77 5.194-13.56 0.866-13.56 0.866-6.924-3.463-9.522-17.311-9.522-17.311-22.215 6.348-27.119 22.506-27.119 22.506-3.462 9.52-3.463 30.293-3.463 30.293-0.288 20.773-2.306 21.349-2.306 21.349-0.866 5.482-15.004 19.904-15.004 19.904-10.387 11.54-9.52 20.78-9.52 20.78-1.731 8.94 4.039 18.17 4.039 18.17 1.443 0.29 5.192 2.31 5.192 2.31 1.442-0.58 4.906-0.29 4.906-0.29-9.521-13.27-6.637-19.9-6.637-19.9 0.866-10.39 8.946-18.47 8.946-18.47 13.558-11.54 15.289-21.062 15.289-21.062 1.731-6.924 2.019-23.08 2.019-23.08-0.576-18.753 3.463-27.987 3.463-27.987 6.347-13.848 15.58-14.712 15.58-14.712 2.019 7.79 10.963 14.425 10.963 14.425 10.964 7.79 21.35-1.443 21.35-1.443 6.924-5.482 9.804-20.195 9.804-20.195 28.28 2.596 48.19 30.871 48.19 30.871 2.88 4.038 15 24.521 15 24.521 9.81 16.445 21.93 26.256 21.93 26.256 17.02 15.296 21.06 25.096 21.06 25.096 6.06 7.51 7.5 27.99 7.5 27.99l2.59 4.62 4.33-2.02c1.73-18.76-7.21-34.91-7.21-34.91-4.04-8.08-23.37-25.68-23.37-25.68-9.23-6.924-20.2-23.658-20.2-23.658-0.57-0.866-15-24.813-15-24.813-24.23-36.064-62.6-36.641-62.6-36.641zm15.92 79.694c-1.62-0.004-2.65 0.133-2.65 0.133-1.73 0.192-25.775 2.211-25.775 2.211-5.386 0.384-8.847 4.906-8.847 4.906-1.347 1.346-3.655 5-3.655 5 4.04 1.923 5 3.078 5 3.078 15.772-7.31 36.737-3.272 36.737-3.272 6.54-2.115 10.96-0.382 10.96-0.382 7.31 1.922 12.7 11.344 12.7 11.344 0.77 2.5 1.73 2.89 1.73 2.89 5.77 5.77 9.04 9.81 9.04 9.81 0.38-25.199-24.24-33.277-24.24-33.277-3.96-2.043-8.31-2.435-11-2.441zm37.24 47.348c-1.41 0.03-2.39 0.2-2.39 0.2-3.75 2.31-0.28 6.63-0.28 6.63 8.08-0.86 10.96 5.2 10.96 5.2 2.6 3.75 0.87 9.81 0.87 9.81-4.62 4.32-8.66 4.03-8.66 4.03-3.17-0.28-6.06-2.88-6.06-2.88l-2.59 1.15-0.58 3.18c0.86 2.02 7.79 4.32 7.79 4.32 2.59 0.29 9.52-2.02 9.52-2.02 7.5-4.32 6.63-12.11 6.63-12.11 1.16-9.81-6.92-15.29-6.92-15.29-2.34-1.99-5.93-2.28-8.29-2.22zm-92.977 12.31s-10.387-0.28-17.311 2.89c0 0-13.128 6.2-22.937 6.49 0 0-1.155 2.17 8.078 6.64 0 0 7.802 2.9 11.396 3.31 0 0 5.926-4.26 6.951-4.66 0 0-8.337-1.01-11.437-3.14 0 0 10.88 2.54 16.832 1.6 0 0 0.571 0.17 5.354-0.39 0 0-18.998 6.02-27.077 17.13 0 0-7.501 9.95-1.154 19.61 0 0-0.577-7.5 7.357-11.68 0 0 6.349-5.34 29.286-2.6 0 0-2.597-13.41 1.009-24.09 0 0 1.01-1.44-1.009-3.6 0 0-4.04-3.76-5.338-7.51z" transform="matrix(.8 0 0 -.8 304.78 398.86)" fill="#ffd615"/><path d="m140.97 40.883-3.1211 0.35547-10.779 1.2285-2.3203 0.26367-13.988 1.5938-2.3203 0.26562 1.0332 1.0723c-1.626-0.75073-3.186-1.1035-5.0391-1.1035-0.83428 0-1.7642 0.06177-3.0156 0.20508-3.8089 0.43335-7.5393 2.554-10.502 5.9688-2.8398 3.2732-4.6781 7.4794-5.0449 11.539-0.37876 4.1979 0.8868 8.2277 3.4707 11.055 2.2 2.4082 5.1555 3.7344 8.3203 3.7344 0.43506 0 0.87708-0.02592 1.3164-0.07617 3.6084-0.41031 6.1762-1.0624 9.4102-3.3281l0.43945-0.30859 0.0488-0.5332 0.75391-8.3574 0.29883-3.3184-2.2871 2.4219-5.3438 5.6582-0.01 0.0098-0.008 0.0078c-1.0697 1.1806-2.0065 1.7206-3.2383 1.8613-0.16379 0.01788-0.32116 0.02734-0.46875 0.02734-0.88035 0-1.2851-0.33208-1.5137-0.58203-1.4067-1.5398-1.0031-6.0244-0.73438-8.9922 0.49562-5.4971 1.2537-10.467 5.0293-10.896 0.16805-0.01962 0.32654-0.0293 0.4707-0.0293 0.74216 0 1.1984 0.23998 1.9551 1.0273l4.4199 4.5918 1.7539 1.8223 0.22656-2.5176 0.75391-8.3574v-0.0078l1.9258 2.002-1.5137 16.771c-0.20473 2.2632 0.40181 4.2415 1.7539 5.7207 1.6967 1.8571 4.4995 2.8809 7.8887 2.8809 0.64662 0 1.309-0.03924 1.9727-0.11524 4.7694-0.5434 10.243-4.7386 10.77-10.568l1.5254-16.9 3.5625-3.8008 2.1484-2.291zm-14.697 3.4316 0.0957 0.09766 2.8027 2.916-1.5137 16.77c-0.18768 2.0823-1.9045 3.9546-3.8281 4.1738-0.13392 0.01538-0.26682 0.02344-0.39648 0.02344-0.77542 0-1.4584-0.2771-1.9199-0.78125-0.49393-0.54084-0.71215-1.2935-0.63281-2.1738l1.5254-16.9 3.5644-3.8008 0.30273-0.32422zm-34.184 2.1387-3.293 0.375l-23.453 2.671-2.3203 0.26562 1.6191 1.6816 2.8027 2.9141-1.8379 20.359-3.5625 3.8008-2.1484 2.291 3.1211-0.35547 24.996-2.8477 2.5762-0.29297-1.9414-1.7188c-0.02388-0.0205-2.4781-2.2268-3.5879-5.2168l-0.64844-1.7461-1.2754 1.3594-2.457 2.6172-5.4609 0.62305 0.69141-7.6602 2.6855-0.30664 2.7246 2.8789 1.7598 1.8574 0.22852-2.5469 0.98633-10.93 0.0332-0.34766 0.5957 0.62109 0.69336-1.5801c1.7812-4.0614 4.1098-6.4058 4.1328-6.4297l2.3477-2.3379zm-10.379 7.0156 1.3242 1.377-0.73828 0.78711-3.4941 3.7285-2.3652 0.26953 0.50781-5.6211 4.7656-0.54102zm34.578 27.898c-1.0884-0.01703-1.7324 0.01953-1.7324 0.01953s-0.57499 0.000359-5.8887 0.57617c-5.3145 0.57666-18.631 1.7285-18.631 1.7285-6.467 0.83174-10.5 5.5703-10.5 5.5703-1.7923 1.9851-4.6738 4.4824-4.6738 4.4824-0.57666 0.6398-1.0254 0.63867-1.0254 0.63867-2.8808-0.19194-4.0977 1.0254-4.0977 1.0254-6.5301 4.5451-7.2969 9.9238-7.2969 9.9238-1.0245 5.6984 3.3926 10.562 3.3926 10.562 0.44788 0.51269 0.38476 0.89649 0.38476 0.89649-1.4084 8.1305 0.19141 12.803 0.19141 12.803-1.3444 1.5372-3.9062 4.8672-3.9062 4.8672-1.0885 1.3444-1.2148 2.625-1.2148 2.625-0.19582 1.7853-0.21551 3.1519-0.16406 4.2129-0.91238-0.0649-7.4738-0.39429-16.205 3.2578 0 0-2.5817 1.1226-6.25 2.416-2.441-1.0628-6.3398-5.3535-6.3398-5.3535s-1.7011 1.5276-2.6953 2.6113c-1.1448-0.13539-3.5995-0.35054-5.0039 0.082 0 0-8.2227-5.6258-16.445 1.1543 0 0-3.8411 3.2687-4.0391 7.7891 0 0-0.16171 1.1779 0.14453 2.1641 0 0 1.8742 4.0387 4.9043 5.7695 0 0-4.4732 3.3171-4.3281 6.9238 0 0-0.4325 3.463 1.4434 4.6172 0 0 2.7412 1.2979 3.8945 2.0195 0 0 0.86558 2.4512 2.8848 3.8945 0 0 2.8865 1.8754 8.8008 3.8945 0 0 1.297 0.14467 2.4512-0.57617 0 0 1.1227-0.90877 2.9023-1.9414-1.372 4.5191-1.3795 9.5089 1.7969 14.215 0 0 1.7017 2.391 4.7812 3.7559 0 0-1.8914-8.4915 1.4082-12.23 0 0 3.7612-5.7624 17.787-5.7871 0 0 10.504-0.16585 14.58 2.1777 0.16108 0.71262 0.28516 1.2227 0.28516 1.2227 0.31989 0.83259-0.25586 1.9844-0.25586 1.9844-1.2164 1.9851-2.5605 5.1855-2.5605 5.1855-0.83259 1.7931 0.25586 3.7774 0.25586 3.7774 1.5005 3.1409 3.2677 5.3003 4.582 6.6426-9.3232 2.9091-18.307 5.6448-23.814 6.8613 0 0-14.761 4.3638-21.236-1.7637 0 0-0.84644-1.6434-2.875-0.79883 0 0-3.9545 1.0174-8.2539 7.5117 0 0-3.174-0.0346-5.6914 1.5742 0 0-7.0755 5.0224-4.582 14.762 0 0 2.1744 3.7744 8.0332 4.5098 0 0-0.47862 8.7476 3.1562 10.613 0 0 1.9751 1.6353 6.6328 0.35742 0 0 1.7196 1.0754 2.7773 1.0879 0 0 4.52 0.24053 7.0254-0.31055 0 0 3.8509-0.34357 5.9102-4.0723 0 0 3.636-7.3678 4.0293-8.2285 0 0 2.449-4.303 6.8926-6.1797 0 0 14.292-6.9513 48.238-18.66 0.41252 0.34802 1.1211 0.94726 1.1211 0.94726 1.9211 1.7292 4.8027 1.7285 4.8027 1.7285 1.0245 0 6.2743 0.0649 7.9394 0.1289 1.6643 0.064 3.3301-1.0898 3.3301-1.0898 0.96054-0.19194 6.4648-3.8418 6.4648-3.8418 0.54325-0.3897 1.8363-1.1797 3.377-2.0996 41.779 14.372 60.52 23.594 60.52 23.594 4.4239 1.9228 6.8281 6.25 6.8281 6.25 0.38472 0.865 3.9434 8.2715 3.9434 8.2715 2.0192 3.7509 5.8672 4.1348 5.8672 4.1348 2.4994 0.57668 7.0195 0.38477 7.0195 0.38477 1.0586 0 2.7891-1.0566 2.7891-1.0566 4.6432 1.3265 6.6348-0.28906 6.6348-0.28906 3.6545-1.8264 3.2715-10.58 3.2715-10.58 5.8665-0.67306 8.0781-4.4219 8.0781-4.4219 2.5967-9.7137-4.4238-14.811-4.4238-14.811-2.5003-1.6353-5.6738-1.6348-5.6738-1.6348-4.2312-6.5395-8.1758-7.5977-8.1758-7.5977-2.0192-0.865-2.8848 0.76758-2.8848 0.76758-6.5395 6.0592-21.252 1.5391-21.252 1.5391-11.805-2.7385-44.396-13.885-45.576-14.289 1.0948-0.61582 3.8574-2.1816 3.8574-2.1816 0.3416-0.20504 0.65452-0.42065 0.94531-0.63867l16.922-5.3457c24.956-7.3568 29.572-7.791 29.572-7.791 8.2226-1.875 16.014 4.6172 16.014 4.6172 1.1542 0.72084 2.4512 0.57812 2.4512 0.57812 5.9151-2.0192 8.7988-3.8965 8.7988-3.8965 2.0192-1.4425 2.8867-3.8945 2.8867-3.8945 1.1542-0.72168 3.8945-2.0195 3.8945-2.0195 1.875-1.1542 1.4414-4.6152 1.4414-4.6152 0.14417-3.6067-4.3262-6.9238-4.3262-6.9238 3.0292-1.7317 4.9043-5.7715 4.9043-5.7715 0.57751-1.5875 0.14453-2.1641 0.14453-2.1641-0.72083-4.1834-4.041-7.7891-4.041-7.7891-8.2226-6.7801-16.445-1.1543-16.445-1.1543-1.875-0.57752-5.625 0-5.625 0-2.885 0.4325-5.7695 5.7695-5.7695 5.7695-1.4425 2.5967-5.1445 5.5781-5.1445 5.5781-13.4 8.59-37.666 16.628-42.553 18.186-0.003-0.006-0.0352-0.0762-0.0352-0.0762-0.96054-1.9211-1.793-5.0566-1.793-5.0566-1.1564-4.7991-1.3051-8.2161-1.123-10.533 1.6185 1.4537 4.1374 3.3588 7.2695 4.4512 0 0-0.00036 0.25586 2.1758 0.25586 0 0 5.3785-0.38375 8.1953-1.1524 0 0 1.2802-0.38358 2.3047-1.2793 0 0 5.1229-5.1237 5.6348-7.1719 0 0 0.51158-1.1522 0.63868-2.5606 0 0 0.51363-5.2497 0.1289-7.5547 0 0-0.12785-1.0242-0.51172-2.5606 0 0-2.8559-11.304-14.514-12.127 0.15985-2.8323 2.0251-16.801-8.0859-31.281-5.5867-8-15.688-12.805-15.688-12.805-5.8579-3.4088-13.12-3.9372-16.385-3.9883zm1.918 3.084c3.964-0.01208 7.2969 0.96875 7.2969 0.96875 27.85 9.155 27.211 32.332 27.211 32.332 0.003 0.01 0.005 0.0121 0.008 0.0215-0.11272-0.1373-0.21777-0.26763-0.45703-0.53516-2.8168-4.0972-7.6815-7.1687-8.834-9.3457-1.2804-3.8413-3.9062-6.5957-3.9062-6.5957-3.4574-4.0333-7.1074-5.6328-7.1074-5.6328-3.7134-2.9456-13.123-1.4082-13.123-1.4082-1.7931 0.38388-6.1465-0.19336-6.1465-0.19336-9.6037-0.51184-15.559 0.19336-15.559 0.19336-10.713 1.0032-15.791 3.7344-15.791 3.7344-1.8784-1.3657-3.7344-2.1973-3.7344-2.1973 1.643-2.3263 3.1992-4.4824 3.1992-4.4824 4.6739-5.3137 13.701-5.1211 13.701-5.1211 11.076-0.89656 21.514-1.666 21.514-1.666 0.58413-0.04798 1.1622-0.07054 1.7285-0.07227zm7.37 12.173c0.96053-0.06397 4.418 0.63867 4.418 0.63867 1.3444 0.3199 2.3692 1.0898 2.3692 1.0898 3.0727 2.0482 5.7617 5.6973 5.7617 5.6973 0.70377 0.57581 1.0254 1.9219 1.0254 1.9219 0.6398 2.0482 0.89454 3.3281 0.89454 3.3281 0.0188 0.099 0.11207 0.26624 0.26562 0.48633 0 0 2.2936 2.0126 3.6406 3.4824 1.8418 2.009 4.8649 4.866 7.4258 9.9238 1.1959 2.3612 1.2812 4.6094 1.2812 4.6094 0 0.53355-0.0664 1.2439-0.12305 1.7852-0.33837 0.1448-2.711 1.2026-2.9492 2.6328 0 0-1.4095 2.0494 0.38281 4.7383 0 0 2.0486 3.327 4.3535 5.6328 0 0 0.12707 3.0731-0.38477 4.0976 0 0-2.9458 3.8508-8.623 6.4395-1.3648-0.071-3.8764-0.69939-8.1934-3.4102 0 0 0.85412-5.9735-2.0488-10.242 0 0 0.00069 4.4384-0.16992 5.4629-0.17062 1.0245-0.0003 1.1958-0.6836 2.0488 0 0-2.7326 3.585-8.8789 5.8047 0 0-1.3642 0.51121-0.85156 1.877 0 0 2.0469 3.4164 2.0469 5.8066 0 0 0.00074 2.56-2.3887 2.2188 0 0-24.927-4.4401-40.805-2.3066 0 0-1.365 0.002-1.707 0.94141 0 0-0.08495 0.5124 0.42774 0.59765 0 0 4.6092 0.084 5.377 0.084 0 0-0.46895 3.799-1.0234 5.3789 0 0 0.00065 0.51207-0.55469 0.55469 0 0-4.1828-0.21415-5.8906-0.1289 0 0-0.59751 0.12934-0.72461-0.33985 0 0-0.94002-2.0501-1.0254-6.4902 0 0-1.1084 0.34432-1.6211 0.68555 0 0-0.17117 0.12635-0.16992 0.42578 0 0-0.76902 6.3161-0.17188 13.828 0 0 0.08492 1.1953 0.85352 1.1953 0 0 11.781-0.0853 27.594 2.6035 0 0 9.6022 1.6655 12.291 1.8574 0 0 1.5167 0.27678 1.9219 0.19141 0 0 1.0888 0.0646 2.7539-0.55469 0 0 5.2052-1.9626 6.6562-2.3047 0 0 3.1595-1.1098 3.3301-3.2441 0 0 0.93801-6.231 0.85351-14.768 0 0-0.17089-0.51292 0.3418-0.93945 0 0 3.3646-2.9148 8.9746-2.7988-0.30769 5.4338 0.0442 10.474 0.0742 10.717 0.51184 4.2252 1.0234 5.4414 1.0234 5.4414 1.2813 2.4329 2.4336 5.5703 2.4336 5.5703 0.57667 1.4724 0.38476 2.3691 0.38476 2.3691-0.83258 3.5214-2.4336 6.082-2.4336 6.082-0.8957 1.7931-4.6738 4.2246-4.6738 4.2246-3.3934 2.241-13.637 7.2988-13.637 7.2988-1.3444 0.51182-3.7129 1.9219-3.7129 1.9219 1.0885-4.0972 1.2168-6.916 1.2168-6.916-4.6739 8.8351-11.396 12.934-11.396 12.934-1.1525 0.83259-2.625 0.51172-2.625 0.51172-6.978-0.7686-7.875-1.4082-7.875-1.4082-1.0885-0.3199-1.5352-0.64063-1.5352-0.64063-1.4084-0.70377-7.2363-5.0566-7.2363-5.0566-1.2165-0.83259-2.4316-1.4082-2.4316-1.4082-0.80442-0.82916-7.875 0.38281-7.875 0.38281-0.89656 0.38474-6.5957 0.76953-6.5957 0.76953-1.5364 0.064-2.4316-1.1523-2.4316-1.1523-3.4574-3.5214-4.6738-6.6582-4.6738-6.6582-0.70461-1.4084 0.25586-3.2656 0.25586-3.2656 0.89656-1.8562 4.0332-5.1856 4.0332-5.1856-0.38388-0.44785-0.63867-1.0898-0.63867-1.0898-4.8658-13.188-1.2812-26.441-1.2812-26.441 0.38388-1.7923 2.625-4.8008 2.625-4.8008 0.3199-0.4487-0.64062-0.96094-0.64062-0.96094-4.1621-2.6888-7.6836-6.209-7.6836-6.209-0.63979-1.0245-0.51172-1.793-0.51172-1.793-0.25678-1.4724-0.12695-3.9707-0.12695-3.9707-0.06397-0.51184 0.25586-0.95899 0.25586-0.95899 0.89656-1.6643 3.2012-3.7148 3.2012-3.7148 1.0245-0.76775 1.793 0.19336 1.793 0.19336 5.9543 3.6502 9.3457 4.5449 9.3457 4.5449 1.7291 0.70463 2.6895-0.19141 2.6895-0.19141 7.1699-4.8018 9.0273-9.668 9.0273-9.668 2.6248-3.1367 3.9688-12.291 3.9688-12.291 0.7686-3.5854 3.9062-6.4023 3.9062-6.4023 15.045-11.268 24.072-12.934 24.072-12.934 1.0885-0.44788 3.457-0.38281 3.457-0.38281zm-52.109 0.10547c1.5007 0.08751 2.877 0.70508 2.877 0.70508 2.0482 0.68245 6.9141 3.5742 6.9141 3.5742l1.2793-0.67188c5.5696-2.6888 12.998-3.2012 12.998-3.2012 3.3286-0.32074 6.3379-0.38477 6.3379-0.38477 2.4321 0 7.4258 0.57617 7.4258 0.57617-4.0972 1.5364-16.326 9.8594-16.326 9.8594-1.7923 1.0876-2.8809 3.1367-2.8809 3.1367-0.254 0.57-1.086 2.56-1.086 2.56-1.3453 2.8168-4.9297 2.752-4.9297 2.752-0.51269 0.12796-0.83203-0.1289-0.83203-0.1289-1.7888-1.1047-5.8914-5.951-7.2656-7.6699-3.2339-4.046-4.5156-3.0859-4.5156-3.0859-1.4084 0.38473-3.0723 2.7539-3.0723 2.7539-1.4724 1.8562-2.9453 5.3145-2.9453 5.3145-0.3907-0.42824-1.6365-1.9004-2.5391-3.6074-1.1747-2.2188-0.27734-3.5644-0.27734-3.5644 2.6897-5.7615 6.2734-8.2578 6.2734-8.2578 0.7204-0.57614 1.666-0.71461 2.5664-0.66211zm52.686 9.3047c-1.3444 0-2.8809 1.0879-2.8809 1.0879-2.3689 1.2164-8.1953 5.8906-8.1953 5.8906-2.9448 2.5609-4.0332 3.3945-4.0332 3.3945-3.5214 1.0237-7.1699 0.18946-7.1699 0.18946-0.31989-0.12708-0.32031-0.18946-0.32031-0.18946l-1.3438-2.7539c-1.2804 0.83258-2.7539 2.5605-2.7539 2.5605-0.44786 0.51269-0.51172 1.4082-0.51172 1.4082-0.25591 1.1525-0.44877 3.457-0.38476 3.7129 0.0836 0.3344 2.7539 2.3711 2.7539 2.3711 1.5364 1.3444 3.8398 3.584 3.8398 3.584 3.5854 3.3934 6.8516 6.6582 6.8516 6.6582 0.51269-0.44785 2.8809-1.793 2.8809-1.793 0.96054-0.51182 2.5606-0.32031 2.5606-0.32031 3.6494 0.19195 9.8594 0.1289 9.8594 0.1289 2.6257-0.19278 3.7148-2.2422 3.7148-2.2422 2.624-5.1857 2.4961-10.561 2.4961-10.561 0.95969-0.57838 3.2198-0.26761 3.0723-0.57813-5.3776-11.332-10.436-12.549-10.436-12.549zm27.338 25.801c0.25613-0.032 0.44726 0 0.44726 0 13.188-0.25591 15.238 11.141 15.238 11.141 1.7923 6.786-0.76954 11.396-0.76954 11.396-1.7923 3.7134-6.1445 6.1465-6.1445 6.1465-6.7869 1.7923-9.7324 0.76758-9.7324 0.76758-4.354-1.9202-4.7363-2.9453-4.7363-2.9453-0.51183-0.89657-0.1289-1.9219-0.1289-1.9219-0.12795-0.51184 0.38476-0.89453 0.38476-0.89453 0.38388-0.25591 1.2793-0.25781 1.2793-0.25781 2.9448 2.9456 7.4277 2.5605 7.4277 2.5605 5.3777-1.0245 7.5547-4.0957 7.5547-4.0957 1.2804-0.89741 1.2793-3.9707 1.2793-3.9707 0-6.6581-2.6875-9.0898-2.6875-9.0898-2.9448-4.3532-9.0918-4.0977-9.0918-4.0977-1.0237 0-1.0254-0.51172-1.0254-0.51172-0.64065-0.7686-0.76758-1.5371-0.76758-1.5371-0.38387-1.1525 0.64063-2.3047 0.64063-2.3047 0.25592-0.25592 0.5759-0.35277 0.83203-0.38476zm-61.43 0.67187c-0.24024-0.048-0.60884 0.0966-1.1211 0.86524 0 0-1.1522 1.9851-1.9199 3.7773 0 0-0.83318 2.24-3.3301 4.5449 0 0-2.1762 2.2425-2.4961 3.459 0 0-0.51242 1.4075 0.44727 2.752 0 0 1.2802 1.8569 2.6895 2.0488 0 0 1.0888 0.12804 1.8574-0.89649 0 0 2.2412-2.2408 3.0098-2.0488 0 0 0.57467-0.001 1.2793 0.76757 0 0 2.9453 3.9058 6.082 3.5859 0 0 1.3436 0.12904 2.4961-1.0234 0 0 1.5376-1.4106 1.9863-1.7305 0 0 1.5362-0.83191 0.51172-1.9844 0 0-4.3543-4.8642-6.2754-13.188 0 0-0.19034-0.70514-0.57422-0.44922 0 0-0.83391 0.32029-1.7305 0.96094 0 0-0.95897 0.70323-1.5996 0.1914 0 0-0.40984-0.0746-0.57617-0.57617-0.3199-0.96055-0.38281-0.76757-0.38281-0.76757s-0.11327-0.24108-0.35352-0.28907zm64.566 8.0352c4.4811 1.4084 5.5069 3.8427 5.7637 4.2266 0.35486 0.53316 0.51172 1.4082 0.51172 1.4082 0.25592 1.9211 0 4.6094 0 4.6094-0.12795 1.9211-1.7949 2.8164-1.7949 2.8164-6.0174 3.5854-8.5781 0.64062-8.5781 0.64062 3.4566-2.6888 4.4824-5.6348 4.4824-5.6348 1.2804-3.0727-0.38476-8.0664-0.38476-8.0664zm-98.051 3.3984c1.0411-0.0121 2.0755 0.0546 3.0352 0.23437 0.000242 0.00051 0.0059 0.0176 0.0059 0.0176 0.96054 2.5609 5.7637 7.8106 5.7637 7.8106 0.83172 0.7686-0.12891 3.9062-0.12891 3.9062-2.0523 7.7369-1.3281 16.352-0.47266 21.838-4.5622-0.55084-17.499-1.837-24.258 0.57812 0 0-11.625 3.2994-12.254 12.301 0 0-5.1428-8.3407 4.0762-19.779 0 0 7.8059-10.428 27.273-15.115 0 0-1.5202-0.41168-4.6211 0.13086 0 0-9.4577 1.2776-22.629-2.2285 0 0 3.7763 3.4189 12.443 4.498 0 0-4.0479 2.5502-5.8086 3.666 0 0-12.291-1.8786-18.438-8.3652 0 0 5.6329-0.51253 15.535-3.7559 0 0 8.8789-3.5864 12.123-4.4394 0 0 4.224-1.249 8.3535-1.2969zm-41.371 0.60156c1.1328-0.0124 2.3249 0.21132 3.541 0.7793 0 0 1.9759 1.2005 2.457 1.6816 0 0 2.3089-1.0578 5.043-0.38477 0 0 2.1696 0.0978 4.0625 2.2637 0 0-10.476 3.1216-14.695 2.1602 0 0 6.1051 7.5746 14.084 11.5 1.8474 0.92384 3.7758 1.6414 5.7207 1.9883 0 0-4.9336 3.9681-9.4531 11.99-0.19024 0.33782-0.07189 0.13224-0.43359 0.29688-1.0586 0.48027-2.8218 1.0169-4.7676 2.2598 0 0-0.86499 0.71998-1.875 0.43165 0 0-5.192-1.1546-6.2012-3.1738 0 0-0.72266-0.4314-0.72266-1.4414 0 0-0.43275-2.5963 1.0098-6.9238 0 0-2.3078 0.57627-3.8945 3.6055 0 0-2.7417 0.5768-3.3184-2.1641 0 0-0.72108-2.4527 1.0098-4.1836 0 0 3.3188-2.0194 4.6172-4.6152 0 0-5.3385-3.4622-5.916-6.2031 0 0-1.0075-1.8753 1.0117-5.3379 0 0 3.812-4.4756 8.7207-4.5293zm197.67 0.80078c4.8386-0.0712 8.457 4.6894 8.457 4.6894 2.02 3.4617 1.0098 5.3379 1.0098 5.3379-0.57751 2.7409-5.9141 6.2031-5.9141 6.2031 1.2984 2.5967 4.6152 4.6172 4.6152 4.6172 1.7308 1.7308 1.0098 4.1836 1.0098 4.1836-0.57752 2.7409-3.3184 2.1621-3.3184 2.1621-1.5867-3.0292-3.8945-3.6055-3.8945-3.6055 1.4434 4.3276 1.0098 6.9238 1.0098 6.9238 0 1.0092-0.72071 1.4434-0.72071 1.4434-1.01 2.0192-6.2031 3.1738-6.2031 3.1738-1.01 0.28833-1.875-0.4336-1.875-0.4336-10.387-6.6359-15.146-5.0488-15.146-5.0488-6.3476-0.28833-23.082 5.625-23.082 5.625-1.916 0.71913-17.279 5.2268-22.633 6.834l0.20117-0.48633c0.18042-0.2525 0.49485-1.5336 0.76367-2.752 0.00068-0.003 0.001-0.003 0.002-0.006 0.30963-1.3055 0.49023-2.3672 0.49023-2.3672 0.0733-0.51376 0.064-1.0486 0.0234-1.5859-0.0953-1.9266-0.63086-3.1699-0.63086-3.1699 27.096-9.4118 40.248-16.951 40.248-16.951 7.9334-5.1926 8.3672-7.6445 8.3672-7.6445 4.0392-5.6259 5.9141-4.9043 5.9141-4.9043 3.7509-1.2984 8.5117 3.75 8.5117 3.75-0.57666-2.885-1.2988-3.8945-1.2988-3.8945-0.4325-0.72084 0.57812-1.1543 0.57812-1.1543 1.217-0.64907 2.399-0.92301 3.5156-0.93945zm-3.2637 12.236c-0.0211 0.025-0.037 0.14098-0.043 0.4082 0 0-1.3931 4.9551-3.2246 6.5 0 0-1.0301 1.3444-3.6055 1.2949 0 0 2.3794 1.7802 3.4824 1.0781 0 0 0.78858-0.37477 1.2305-0.74414 0 0 0.7218-0.54864 1.0059-0.79688 0 0 0.30003-0.25078 0.5039-0.5664 0 0 0.2564-0.27917 0.4961-1 0 0 0.73965-1.0178 0.32422-5.498 0 0-0.10658-0.75076-0.16992-0.67578zm-190.06 1.5039s-1.4092 2.6165-0.55273 3.6035c0 0 0.48803 0.72441 0.91797 1.1074 0 0 0.64918 0.63298 0.9375 0.87696 0 0 0.29159 0.26075 0.63281 0.41601 0 0 0.31438 0.21127 1.0625 0.3418 0 0 1.117 0.58315 5.4863-0.48828 0 0 1.2928-0.38394 0.23242-0.25 0 0-5.106-0.64831-6.9043-2.2324 0 0-1.4815-0.8201-1.8125-3.375zm69.678 2.8828c4.7548 0.0573 7.3027 0.51562 7.3027 0.51562 0 2.5609-0.85352 5.377-0.85352 5.377-0.17061 0.51178-0.76758 0.42773-0.76758 0.42773-1.9629-0.0853-7.0859-0.3418-7.0859-0.3418-0.38476-0.0853-0.42773-0.68164-0.42773-0.68164-0.34123-2.2196-0.33984-5.2949-0.33984-5.2949 0.76828-0.0107 1.4926-0.0101 2.1719-0.002zm8.793 0.6582c6.1382 0.30291 9.6797 1.0938 9.6797 1.0938-0.16207 2.5549-1.1914 5.3125-1.1914 5.3125-0.20303 0.50078-0.79297 0.37695-0.79297 0.37695-1.9535-0.209-7.3066-0.77148-7.3066-0.77148-0.38553-0.0512-0.38281-0.70899-0.38281-0.70899-0.1999-2.2359-0.006-5.3027-0.006-5.3027zm11.4 1.2227c6.4022 0.8539 8.9512 2.0898 8.9512 2.0898-0.41372 2.2632-1.4492 4.2891-1.4492 4.2891-0.20217 0.49993-0.79297 0.37696-0.79297 0.37696-1.9544-0.20899-6.5391-0.77149-6.5391-0.77149-0.5059-0.11686-0.38281-0.70898-0.38281-0.70898-0.0444-2.4158 0.21289-5.2754 0.21289-5.2754zm-29.314 6.0293c2.2567 0 5.1133 0.28711 5.1133 0.28711 0.25588 0.0853 0.21484 0.51172 0.21484 0.51172 0.2133 1.1098-0.08594 4.1406-0.08594 4.1406-0.0853 0.42735-0.3418 0.38476-0.3418 0.38476-1.7923-0.34122-7.4258-0.76758-7.4258-0.76758-0.42739 0.0862-0.29883-0.4707-0.29883-0.4707-0.21412-1.7505 0.33984-3.543 0.33984-3.543 0.08531-0.51177 0.55664-0.42578 0.55664-0.42578 0.49093-0.0853 1.1755-0.11719 1.9277-0.11719zm8.1445 0.37305s4.8208 0.0432 6.0586 0.3418c0 0 0.42842-0.00033 0.51367 0.59765 0 0 0.54952 2.5522 0.81836 5.7891-2.1434-0.3413-5.045-0.79689-8.8438-1.4356 0 0 0.5123-3.5002 0.85352-4.6953 0 0 0.04427-0.59766 0.59961-0.59766zm10.328 0.85352s5.3778 0.25558 6.4024 0.59765c0 0 0.3411-0.0863 0.51171 0.51172 0 0 0.41077 2.0846 0.66797 6.3535-2.137-0.26464-4.5458-0.59914-7.5391-1.1035 0 0-1.461-0.23807-1.7207-0.2793 0.04586-0.25117 0.6716-3.6709 1.166-5.4824 0 0 0.0852-0.42704 0.51172-0.59765zm10.928 1.3652s5.12 0.68395 6.4004 1.1113c0 0 0.42754 0.0839 0.51367 0.5957 0 0 0.63993 3.1379 0.81055 4.8457 0 0-1.8901 0.59619-9.6426-0.27539 0.0693-0.33748 0.75158-3.6526 1.3203-5.7637 0 0 0.0858-0.42842 0.59766-0.51367zm17.934 9.9785c-0.16411-0.016-0.45633 0.0521-0.94727 0.26562 0 0-4.4392 1.8786-5.7188 2.4766 0 0-1.368 1.1097-4.8672 0.51172 0 0-7.6812-1.3664-11.779-1.793 0 0-1.2811 0.0858-0.0859 0.59766 0 0 9.7319 3.4144 11.354 4.0977 0 0 2.9876 1.2816 5.1211 0.42773 0 0 3.9265-2.7324 6.7441-5.7207 0 0 0.67201-0.81542 0.17969-0.86328zm10.889 14.943 39.24 12.316c9.521 2.6931 15.291 3.3672 15.291 3.3672 8.4623 0.7686 13.465-3.1738 13.465-3.1738 0.86501-0.865 1.6348-0.19336 1.6348-0.19336 5.0015 2.7895 6.3477 7.5977 6.3477 7.5977 1.5389-0.0955 4.2305 0.38476 4.2305 0.38476 3.1734 0.19194 4.7129 4.2324 4.7129 4.2324 1.8281 4.5195-0.0977 7.5976-0.0977 7.5976-1.3461 2.6922-8.0762 2.8848-8.0762 2.8848-0.5775 2.4039-0.0977 3.75-0.0977 3.75 0.28833 4.9051-1.25 6.0586-1.25 6.0586-1.0569 1.4425-3.5586 0.48242-3.5586 0.48242 0.19194-2.6931-1.1543-5.002-1.1543-5.002-0.38472 3.8473-2.7891 5.5781-2.7891 5.5781-0.76945 1.0578-2.3066 0.76954-2.3066 0.76954-3.8464-0.1928-7.791-1.5391-7.791-1.5391-0.76945-0.48112-3.0762-5.7695-3.0762-5.7695-1.4425-4.6159-4.0391-8.1758-4.0391-8.1758-1.5389-2.3075-9.2324-5.5781-9.2324-5.5781-6.0796-2.8981-33.063-12.582-47.037-17.549-0.21979-5.5429 4.0444-7.5118 5.584-8.0391zm-67.955 5.5664c1.7514 0.75577 4.6016 0.45703 4.6016 0.45703s1.7724-0.0596 3.4316-0.11328c1.71 0.29104 5.9361 1.3566 7.7773 5.0215-14.477 5.0182-33.312 11.657-38.301 13.971 0 0-7.7282 3.1892-9.291 5.4805 0 0-2.6339 3.5303-4.125 8.1309 0 0-2.3641 5.2637-3.1387 5.7363 0 0.00001-3.9557 1.3052-7.8047 1.457 0 0-1.5424 0.27334-2.3008-0.79297 0 0-2.3839-1.7567-2.7285-5.6074 0 0-1.3708 2.2935-1.207 4.9883 0 0-2.5103 0.93602-3.5527-0.51758 0 0-1.5259-1.1714-1.1855-6.0723 0 0 0.49444-1.3412-0.05664-3.752 0 0-6.7309-0.26395-8.0488-2.9707 0 0-1.8906-3.095-0.015625-7.5957 0 0 1.5808-4.023 4.7559-4.1816 0 0 2.6983-0.45354 4.2363-0.34179 0 0 1.3981-4.7944 6.4277-7.5293 0 0 0.77525-0.66539 1.6309 0.20898 0 0 4.9597 3.9972 13.43 3.3164 0 0 5.7779-0.61264 15.326-3.2051l20.139-6.0879zm-54.729 19.258c-0.13491-0.0284 0.39453 0.89649 0.39453 0.89649 3.4062 5.3256 5.1348 5.7285 5.1348 5.7285 0.18852 0.11175 0.88867 0.31641 0.88867 0.31641 1.1687 0.31987 1.3926 0.3457 1.3926 0.3457 1.7334 0.28112 2.5059 0.28125 2.5059 0.28125 0.59116 0.0333 1.457-0.20508 1.457-0.20508 1.829-0.17317 2.9277-4.2012 2.9277-4.2012-2.8134 2.2785-5.1133 1.6777-5.1133 1.6777-3.3653-0.13137-9.1875-4.4238-9.1875-4.4238-0.23733-0.2911-0.35542-0.40654-0.40039-0.41602zm196.38 1.0254c-0.0451 0.009-0.16591 0.12357-0.40625 0.41211 0 0-5.8663 4.2326-9.2324 4.3281 0 0-2.309 0.57791-5.0977-1.7305 0 0 1.0575 4.0385 2.8848 4.2305 0 0 1.1972 0.27742 2.0058 0.25781 0 0 1.2749 0.0292 1.8047 0.004 0 0 0.54808-0.0113 1.0488-0.17969 0 0 0.52592-0.0845 1.4199-0.66797 0 0 1.7035-0.46996 5.166-5.7598 0 0 0.54144-0.92153 0.40625-0.89454z" transform="matrix(.8 0 0 -.8 304.78 398.86)"/></g></g><path d="m320.12 284.25s-5.1716 6.6313-3.516 16.565c0 0 0.20678 6.1986 5.9987 13.443 0 0 9.2273 9.8565 10.056 11.099 0 0 4.7116 4.917 4.9163 14.956 0 0 0.41015 19.257 1.2298 23.765 0 0 0.72612 13.836 11.882 21.512 0 0 5.0289 3.7862 11.883 5.5312 0 0 1.01-6.0908 4.3028-10.65 0 0 3.5364-5.9939 9.9514-4.745 0 0 6.0014 0.61351 8.0754 9.0478 0 0 1.6017 5.0269 1.2673 10.678 0 0 28.262 0.86943 47.913-25.803 0 0 6.1632-8.9134 12.437-20.267 0 0 5.7046-10.463 15.357-19.194 0 0 11.88-10.678 16.887-17.032 0 0 2.4295-2.9263 4.2182-5.927l0.12079-0.21155c2.8751-4.803 6.9159-14.185 6.1761-28.214l-4.0974-1.6618" stroke="#000" stroke-miterlimit="10" stroke-width="1.8467" fill="none"/><path d="m481.96 281.87c-0.23953 11.608-3.647 17.976-3.647 17.976-4.6249 11.208-19.932 23.775-19.932 23.775-10.972 9.892-19.053 24.313-19.053 24.313-3.056 5.6848-10.357 16.906-10.357 16.906-15.473 21.011-35.798 22.88-35.798 22.88-1.6188-10.533-6.6218-15.314-6.6218-15.314-8.2774-7.2428-16.961-3.3112-16.961-3.3112-8.248 3.4839-11.602 12.413-11.602 12.413-12.824-5.1695-12.616-23.381-12.616-23.381s-0.88786-9.0977-0.62239-15.728c0.62102-15.521-7.8638-23.177-7.8638-23.177-2.0698-2.2766-6.4157-6.8292-6.4157-6.8292-7.2864-8.5128-6.8026-13.865-6.8026-13.865-0.79164-8.9584 6.013-15.113 6.013-15.113" stroke="#000" stroke-miterlimit="10" stroke-width="4.6161" fill="none"/><path d="m137.99 42.385l-10.78 1.228 3.16 3.293-1.56 17.295c-0.23 2.624-2.4 4.939-4.85 5.217-0.17 0.021-0.35 0.031-0.52 0.031-2.27 0-3.93-1.729-3.7-4.213l1.56-17.295 3.83-4.091-14.24 1.621 3.17 3.293-1.56 17.297c-0.46 5.091 3.69 7.343 8.5 7.343 0.6 0 1.22-0.036 1.84-0.107 4.56-0.52 9.3-4.521 9.75-9.526l1.56-17.294 3.84-4.092zm-33.55 3.328c-0.88 0-1.82 0.078-2.89 0.199-7.367 0.84-13.809 8.546-14.523 16.465-0.674 7.467 4.211 13.529 10.641 13.529 0.39 0 0.785-0.022 1.186-0.068 3.316-0.378 5.766-0.945 8.876-3.127l0.76-8.356-5.35 5.657c-1.21 1.34-2.4 2.054-3.962 2.232-0.209 0.024-0.408 0.035-0.598 0.035-4.333 0-3.831-6.038-3.398-10.832 0.451-5.004 1.117-11.379 6.048-11.941 0.21-0.024 0.41-0.035 0.6-0.035 1.19 0 1.92 0.482 2.79 1.381l4.42 4.593 0.75-8.357c-1.89-1.027-3.48-1.375-5.35-1.375zm-15.508 2.262l-23.461 2.671 3.168 3.293-1.92 21.282-3.836 4.09 24.996-2.848s-2.673-2.365-3.904-5.68l-2.746 2.928-7.291 0.83 0.904-10.008 4.191-0.476 3.123 3.297 0.987-10.932-3.784 4.039-4.193 0.477 0.719-7.967 6.265-0.715 2.405 2.502c1.89-4.309 4.377-6.783 4.377-6.783z" transform="matrix(.8 0 0 -.8 304.78 398.86)" fill="#ffd615"/></g></svg>
