<svg xmlns="http://www.w3.org/2000/svg" height="159.86" viewBox="0 0 250 159.86455" width="250"><g transform="matrix(1.25 0 0 -1.25 27.25 839.34)"><g><path d="m172.9 670.27c-8.6069-3.5532-19.728-5.5861-30.524-5.5861h-52.364l-2.7759 3.0436h-25.621l-2.7759-3.0436h-40.116c-20.906 0-28.272 3.1888-35.088 5.6487-3.3482 1.0563-4.7348-1.4976-4.4614-3.5504 0.07972-0.57227 0.8399-4.2052 3.8151-7.6986-1.0278-0.75164-0.89684-2.7076-0.3986-3.5304 0.50679-0.92817 2.7076-4.4928 6.9811-6.8502-0.34166-0.31887-0.35874-1.731 0.47262-2.8044 1.4663-2.0442 4.4415-5.2757 9.0282-6.6509-0.12812-1.9759 1.3951-5.6658 4.339-5.5291l-1.2812-3.7155-4.675-2.1439-10.025-17.914 6.6253-13.102c1.0705 0.56373 2.7902 1.4264 5.1362 2.4685-1.2897-2.7703-1.9702-5.6629-1.9702-8.6382 0-20.365 31.728-36.586 72.946-38.496 3.5475-4.2223 8.1656-7.8894 8.1656-7.8894s4.6152 3.6671 8.1627 7.8894c41.218 1.9104 72.943 18.13 72.943 38.496 0 2.6421-0.53526 5.2159-1.5545 7.6958 1.3495-0.6406 2.3916-1.1673 3.1148-1.5545l7.2089 14.261-8.8318 16.704-4.7319 2.1837-1.3666 3.7952c3.1233-0.22777 4.4671 3.7098 4.339 5.4893 4.5839 1.3752 7.5563 4.6038 9.0225 6.648 0.62637 0.81428 1.0136 2.4115 0.42992 2.7788 4.3134 2.3546 6.4658 5.9847 7.0267 6.8701 0.84845 1.341 0.16514 3.2543-0.3986 3.5333 2.9752 3.4991 3.7212 7.132 3.8152 7.7015 0.33596 3.3539-2.5112 4.3162-4.6123 3.4906" fill="#ccc"/><path d="m174.71 667.24c0.13666 0.8399-0.68046 0.42137-0.68046 0.42137-7.8666-3.2543-19.232-5.8167-31.651-5.8167h-53.617l-2.7731 3.0436h-23.107l-2.7788-3.0436h-41.374c-20.664 0-28.286 3.0777-36.059 5.8167 0 0-0.81712 0.41853-0.68331-0.42137 0.13951-0.8399 1.4606-6.8616 7.9805-10.048 0 0-2.5453-0.40429-4.7034 0.0228 0 0-0.39006 0.10249-0.17083-0.3018 0.36158-0.65768 3.576-6.3804 10.799-7.3684 0 0-0.93101-1.2897-3.5276-1.5403 0 0-0.23631-0.13097-0.068331-0.35304 0.3929-0.53242 3.7838-5.6202 10.05-6.1783 0 0-1.378-3.2856 0.83705-4.954 0 0 0.70893 0.447 1.5346 0.447 1.7026 0 2.3005-1.5061 1.6513-3.3938l-1.9417-5.6402-4.9398-2.272-8.8346-15.779 4.6978-9.2816c-0.00285 0 4.86 2.6792 14.162 5.8651-5.2216-4.7462-8.1627-10.116-8.1627-15.787 0-18.475 31.111-33.619 70.683-35.088 3.3454-3.8892 6.3064-6.5028 6.3064-6.5028s2.9582 2.6137 6.3007 6.5028c39.569 1.4691 70.683 16.613 70.683 35.088 0 5.3184-2.5823 10.366-7.2089 14.89 7.6388-2.7731 11.613-4.9682 11.613-4.9682l5.2871 10.455-7.6958 14.554-4.9426 2.2748-2.0499 5.6886c-0.8399 2.3432 0.37582 3.3938 1.657 3.3938 0.92531 0 1.5346-0.447 1.5346-0.447 2.2151 1.6684 0.83136 4.954 0.83136 4.954 6.2722 0.55803 9.666 5.6458 10.056 6.1783 0.16229 0.22207-0.074 0.35304-0.074 0.35304-2.5937 0.25055-3.5219 1.5403-3.5219 1.5403 7.2232 0.98796 10.438 6.7107 10.796 7.3684 0.22207 0.40429-0.17083 0.3018-0.17083 0.3018-2.1553-0.42707-4.7034-0.0228-4.7034-0.0228 6.5199 3.1859 7.8438 9.2076 7.9805 10.048" fill="#036"/><path d="m18.703 13.328c-0.07 0.013-0.132 0.067-0.105 0.227 0.042 0.331 6.733 7.242 18.826 9.242 0 0-6.604 0.373-12.313-0.627 0 0-0.378-0.113-0.25 0.236 0.146 0.385 4.368 4.722 15.358 6.815 0 0-1.937 1.214-7.77 1.271 0 0-0.416 0-0.181 0.295 0.263 0.338 4.769 2.839 10.968 2.369l-0.502 2.346h-3.968l3.8 8.801-5.082 13.383-6.377 2.23-5.584 11.488s9.628-4.783 28.747-9.228c-1.004-2.965-1.278-6.498 0-9.996 0 0 2.676 3.669 10.683 7.765 0.402-0.074 0.796-0.15 1.205-0.228l3.307-9.121-9.692 1.388 2.485-6.791 17.586-0.769 6.988-9.641-21.018 0.774 2.481-9.006h13.213l-0.975 3.783h16.379l1.91-12.086h-50.052s-18.176-0.208-29.92-4.906c0 0-0.077-0.027-0.147-0.014zm213.72 0.393c-0.07-0.015-0.14 0.011-0.14 0.011-10.38 4.154-25.25 4.516-29.09 4.516h-26.25l2.7 8.303h3.66l9.16 26.07-14.47-3.236-6.75-22.834h3.61l-2.55-8.303h-26.48l2.08 8.303h4.47l5.47 22.39c1.56 6.353 7.86 7.805 23.21 11.346l2.47 0.572c9.46-4.452 12.53-8.679 12.53-8.679 1.5 4.082 0.87 8.22-0.56 11.437l9.29 2.147c11.3 2.601 11.64-1.79 9.62-6.381l-8.86-20.051c-0.73-1.673 0.26-2.639 1.82-2.639 1.54 0 2.47 0.934 2.84 1.895l0.22 0.053c1.71-2.823-2.53-5.09-2.53-5.09 6.2 0.466 10.7-2.032 10.98-2.373 0.22-0.289-0.19-0.291-0.19-0.291-5.83-0.061-7.77-1.272-7.77-1.272 10.99-2.096 15.21-6.426 15.36-6.814 0.12-0.349-0.25-0.237-0.25-0.237-5.71 1.001-12.31 0.624-12.31 0.624 12.08-1.997 18.78-8.915 18.83-9.235 0.02-0.162-0.04-0.218-0.12-0.232zm-123.75 0.131l-22.168 34.88-5.982 0.768-2.768 8.479c4.096-0.68 12.929-1.955 23.928-2.325l5.24-9.342h23.81l5.15 9.729c9.98 0.52 19.97 1.317 23.12 1.58l-3.14-8.885-5.8-0.42-19.51-34.464h-21.88zm11.02 7.732l7.45 13.92h-15.62l8.17-13.92zm101.54 42.453c-2.14 0-3.86 1.732-3.86 3.871 0 2.143 1.72 3.875 3.86 3.875s3.88-1.732 3.88-3.875c0-2.139-1.74-3.871-3.88-3.871zm0 0.828c1.68 0 3.05 1.36 3.05 3.043 0 1.684-1.37 3.047-3.05 3.047s-3.04-1.363-3.04-3.047c0-1.683 1.36-3.043 3.04-3.043zm-1.59 0.834v4.428h0.83v-1.799h0.6l0.84 1.799h0.92l-0.88-1.873c0.51-0.185 0.88-0.676 0.88-1.242 0-0.723-0.59-1.313-1.32-1.313h-1.87zm0.83 0.832h1.04c0.27 0 0.48 0.214 0.48 0.481s-0.21 0.484-0.48 0.484h-1.04v-0.965zm-161.56 13.655c-8 5.993-12.646 13.143-12.646 20.824 0 19.09 28.725 34.91 66.318 37.84-2.21-3.13-4.2-6.54-5.5-9.99l-8.541 2.93 3.381-6.44c-22.973 4.9-52.938-9.07-50.899-25.836l5.694 2.556s-3.602-10.048 4.221-20.287c-0.705-0.53-1.377-1.067-2.028-1.597zm132.51 0c-0.65 0.53-1.32 1.067-2.03 1.597 7.82 10.239 4.22 20.287 4.22 20.287l5.69-2.552c2.04 16.772-27.92 30.742-50.89 25.832l3.37 6.44-8.54-2.93c-1.29 3.44-3.29 6.86-5.49 9.99 37.59-2.93 66.31-18.75 66.31-37.85 0-7.666-4.64-14.818-12.64-20.814zm-101.42 17.847c-1.004 0.861-1.611 1.997-1.611 3.237 0 2.7 2.856 4.88 6.386 4.88 2.492 0 4.652-1.09 5.701-2.68l-10.476-5.437zm70.316 0l-10.47 5.437c1.05 1.59 3.2 2.68 5.7 2.68 3.53 0 6.39-2.18 6.39-4.88 0-1.24-0.61-2.372-1.62-3.237z" transform="matrix(.8 0 0 -.8 -21.8 671.48)" fill="#fff"/><path d="m71.424 88.16c-1.936 2.687-3.043 5.772-3.043 9.061 0 10.389 11.048 18.819 24.668 18.819 7.611 0 14.421-2.64 18.941-6.77l-5.09-2.54c-3.09 3.56-8.389 5.9-14.4 5.9-9.541 0-17.275-5.9-17.275-13.181 0-2.826 1.161-5.441 3.15-7.58l-6.951-3.709zm107.48 0.002l-6.95 3.705c1.98 2.139 3.15 4.758 3.15 7.58 0 7.283-7.73 13.183-17.28 13.183-6.01 0-11.31-2.34-14.4-5.89l-5.09 2.53c4.53 4.13 11.33 6.77 18.95 6.77 13.62 0 24.67-8.43 24.67-18.821 0-3.285-1.11-6.37-3.05-9.057zm-53.74 18.668v34.48c-4.38-6.42-7.31-13.12-7.31-18.92 0-4.17 1.35-7.85 3.31-10.97-3.27 3.3-6.29 8.01-6.29 14.01 0 7.29 5.07 14.97 10.29 20.79 5.45-5.84 10.8-13.5 10.8-20.79 0-9.93-10.8-18.6-10.8-18.6z" transform="matrix(.8 0 0 -.8 -21.8 671.48)" fill="#ccc"/><path d="m189.27 62.67s-7.41 7.904-24.5 13.025c-8.51 2.545-37.89 12.481-37.44 28.775 4.6-5.916 16.54-13.691 36.12-20.353 28.79-9.794 25.82-21.447 25.82-21.447zm-128.21 0.002s-2.976 11.651 25.816 21.445c19.585 6.662 31.525 14.435 36.125 20.353 0.45-16.292-28.939-26.228-37.438-28.773-17.096-5.121-24.503-13.025-24.503-13.025z" transform="matrix(.8 0 0 -.8 -21.8 671.48)" fill="#c00"/></g></g></svg>
