<?xml version="1.0" encoding="UTF-8" standalone="no"?>
<svg xmlns:rdf="http://www.w3.org/1999/02/22-rdf-syntax-ns#" xmlns="http://www.w3.org/2000/svg" xml:space="preserve" height="101.87" viewBox="0 0 100 101.87485" width="100" version="1.1" xmlns:cc="http://creativecommons.org/ns#" xmlns:dc="http://purl.org/dc/elements/1.1/"><g transform="matrix(1.25 0 0 -1.25 -162.76 511.02)"><g transform="matrix(1.8342 0 0 1.8342 -140.59 -305.65)"><path d="m185.53 347.11c-0.016 0.011-3.674 2.932-3.874 3.113 5.663 3.975 9.124 10.544 9.124 17.486 0 11.77-9.574 21.344-21.344 21.344-1.382 0-2.772-0.135-4.133-0.403-0.7-0.046-1.922-0.178-2.836-0.554-0.795-0.015-1.558-0.136-2.272-0.36-0.716-0.17-1.289-0.536-1.843-0.891-0.093-0.06-0.185-0.118-0.279-0.177-0.037-0.023-0.073-0.05-0.106-0.079-0.272-0.243-0.61-0.523-0.908-0.771-0.513-0.424-0.787-0.651-0.929-0.843-0.017-0.019-0.032-0.036-0.049-0.055-0.078-0.086-0.206-0.229-0.311-0.281-1.315-0.657-2.842-2.494-3.373-3.279-0.036-0.051-0.858-1.257-1.162-1.753-0.006-0.011-0.012-0.021-0.018-0.031-0.017-0.032-1.798-3.282-2.488-5.203-0.01-0.024-0.017-0.05-0.024-0.075-0.077-0.313-0.124-0.719-0.166-1.077-0.026-0.211-0.054-0.448-0.075-0.543-0.004-0.016-0.007-0.034-0.01-0.05-0.006-0.036-0.02-0.1-0.039-0.187-0.139-0.649-0.463-2.169-0.356-3.557 0.006-0.09 0.015-0.169 0.024-0.242 0.011-0.09 0.017-0.143 0.014-0.175-0.002-0.02-0.004-0.041-0.004-0.061-0.004-0.191-0.013-0.363-0.022-0.528-0.027-0.517-0.053-1.006 0.075-1.679 0.002-0.011 0.004-0.021 0.007-0.031 0.052-0.727 0.143-1.461 0.272-2.188l0.002-0.053c0.003-0.028 0.006-0.058 0.011-0.086 0.263-1.423 0.613-3.089 1.223-4.675 0.091-0.346 0.429-1.603 0.627-2.029 0.06-0.127 0.152-0.233 0.263-0.309 0.31-1.162 0.779-2.09 1.427-2.826 0.151-0.174 0.366-0.264 0.583-0.264h0.029c0.31-0.374 0.629-0.691 0.908-0.942 0.005-0.006 0.016-0.015 0.023-0.021 0.338-0.284 0.688-0.579 1.088-0.823 0.126-0.075 0.266-0.113 0.404-0.113 0.051 0 0.101 0.005 0.151 0.015 3.902-3.511 8.995-5.488 14.272-5.488 1.593 0 3.195 0.182 4.764 0.541 0.608-0.207 1.2-0.395 1.803-0.573 1.901-0.558 3.959-0.841 6.118-0.841 1.831 0 3.044 0.209 3.094 0.218 0.309 0.054 0.555 0.289 0.624 0.595 0.068 0.306-0.053 0.623-0.309 0.804" fill="#fff"/><path d="m27.861 1.9941c0.20125 0.135 0.40961 0.28758 0.59961 0.45508 0.305 0.265 0.5182 0.49125 0.6582 0.65625-0.01375-0.07625-0.02937-0.15883-0.04687-0.23633-0.025-0.1175-0.05398-0.22664-0.08398-0.30664-0.0075-0.02-0.01203-0.037031-0.01953-0.050781l-0.218-0.4628c-0.295-0.02375-0.58992-0.040938-0.88867-0.054688zm0.91797 0.056641 0.33984 0.35352c0.18875 0.195 0.48492 0.62352 0.73242 1.041 0.03875 0.06625 0.07828 0.13422 0.11328 0.19922h0.002c11.321 1.5688 20.039 11.282 20.039 23.033 0 8.885-4.9822 16.605-12.305 20.521 0.4475 0.2625 0.94594 0.5332 1.5234 0.81445 7.32-4.29 12.234-12.238 12.234-21.336 0-12.962-9.9822-23.592-22.68-24.627zm9.8164 13.586c-0.24625 0.14125-0.48766 0.29117-0.72266 0.45117-0.07875 0.05375-0.15688 0.10922-0.23438 0.16797-0.09 0.06375-0.18008 0.12977-0.26758 0.19727-0.07 0.05375-0.13898 0.11367-0.20898 0.16992-0.09125 0.07375-0.18203 0.14711-0.26953 0.22461-0.0625 0.05375-0.12359 0.10836-0.18359 0.16211-0.09375 0.085-0.18539 0.17102-0.27539 0.25976-0.05375 0.05125-0.10766 0.1057-0.16016 0.1582-0.09125 0.09375-0.18148 0.18695-0.27148 0.2832-0.05 0.055-0.09453 0.11102-0.14453 0.16602-0.035 0.04-0.06852 0.07914-0.10352 0.11914 0.04875 0.05125 0.09914 0.10461 0.15039 0.16211l0.48047 0.58008c0.865-1.04 1.9288-1.8888 3.125-2.5-0.09-0.06375-0.17898-0.12836-0.27148-0.19336h-0.002l-0.002-0.002c-0.0012-0.0012-0.0046-0.0027-0.0059-0.0039-0.05125-0.03625-0.10375-0.07047-0.15625-0.10547-0.1525-0.1-0.31156-0.19938-0.47656-0.29688zm-4.6621 3.7148c-2.1475 1.6175-3.798 3.8812-4.6855 6.4199-0.20375 0.58625-0.36828 1.1876-0.48828 1.7988 0.32125 0.02625 0.77289-0.41406 1.3066-1.1016 0.8825-2.475 2.4607-4.7031 4.502-6.3594-0.16875-0.2475-0.39102-0.49906-0.63476-0.75781zm-24.294 6.951c-2.6625 0-4.8203 2.1578-4.8203 4.8203 0 1.9962 1.2153 3.7121 2.9453 4.4434 0.5775 0.245 1.2088 0.37891 1.875 0.37891 0.42375 0 0.83727-0.05445 1.2285-0.1582 0.19-0.04875 0.37539-0.11234 0.55664-0.18359-0.1375-0.22875-0.30023-0.45774-0.49023-0.67774-0.40125 0.13625-0.82789 0.21094-1.2754 0.21094-1.2025 0.0025-2.2785-0.53305-3.0098-1.373 0.70125 0.6125 1.6161 0.98562 2.6211 0.98438 0.49875 0.0012 0.97602-0.09617 1.416-0.26367 0.3-0.1125 0.5818-0.25875 0.8418-0.4375 0.13375 0.1225 0.27 0.25141 0.40625 0.37891 0.1975 0.1875 0.39664 0.37625 0.58789 0.5625h0.002c0.855 0.83625 1.5801 1.5996 1.5801 1.5996-0.08625 0.65625 0.01563 1.3828 0.01563 1.3828 0.34375-0.42625 0.73828-0.49805 0.73828-0.49805 0.04625 0.515 0.23438 1.0977 0.23438 1.0977 0.06625-0.31125 0.33789-0.55859 0.33789-0.55859 3.7187 3.7475 8.1402 6.7978 12.91 9.3203 7.2838 3.8662 13.236 5.0488 13.236 5.0488l0.05078-0.07813s-6.9994-1.9702-15.266-6.9902l0.12305-0.0332c6.415 2.9512 10.777 3.7252 12.168 3.3027l-1.176-0.602c-0.05375-0.02875-0.10836-0.0593-0.16211-0.0918-0.03625-0.02125-0.07258-0.04461-0.11133-0.06836-0.01625-0.01-0.03328-0.02-0.05078-0.03125-0.05-0.03125-0.09914-0.06391-0.15039-0.09766-0.0037-0.0038-0.0099-0.0041-0.01367-0.0078-0.055-0.0375-0.11047-0.07523-0.16797-0.11524-0.01-0.0063-0.0193-0.01328-0.0293-0.01953-0.04125-0.03-0.08445-0.0618-0.12695-0.0918-0.02-0.01625-0.04125-0.02992-0.0625-0.04492-0.0325-0.025-0.06656-0.05117-0.10156-0.07617-0.02125-0.015-0.0432-0.03063-0.06445-0.04687-0.04125-0.02875-0.0818-0.0618-0.12305-0.0918-0.045-0.03375-0.08922-0.06852-0.13672-0.10352-0.01875-0.01375-0.03984-0.02797-0.05859-0.04297-0.075-0.05625-0.15297-0.11383-0.23047-0.17383-0.005-0.0038-0.0087-0.0073-0.01367-0.0098-0.1325-0.1-0.26977-0.20109-0.41602-0.30859-0.0175-0.01375-0.03789-0.02727-0.05664-0.04102-0.05375-0.04-0.10977-0.08109-0.16602-0.12109-0.02-0.01625-0.04125-0.03313-0.0625-0.04688-0.075-0.055-0.15297-0.10976-0.23047-0.16602h-0.002c-0.0775-0.055-0.15828-0.11047-0.23828-0.16797-0.025-0.01625-0.04922-0.03328-0.07422-0.05078-0.0625-0.0425-0.1257-0.08641-0.18945-0.12891-0.02625-0.0175-0.05188-0.03594-0.07813-0.05469-0.08875-0.06-0.18164-0.12039-0.27539-0.18164-0.56875-0.37125-0.90344-0.61578-1.4609-1.0195-0.64375 0.13375-1.3473 0.19524-2.0723 0.20898-0.12625 0.0025-0.25406 0.0039-0.38281 0.0039h-0.0039c-0.1275-0.0012-0.25406-0.0014-0.38281-0.0039h-0.0059c-0.12625-0.0037-0.25336-0.0067-0.38086-0.01172-0.0038-0.0012-0.008-0.002-0.01172-0.002-0.125-0.0037-0.24875-0.0094-0.375-0.01563-0.0063 0-0.01328-0.0014-0.01953-0.0039-0.1225-0.0063-0.24594-0.01078-0.36719-0.01953-0.01 0-0.0193-0.0027-0.0293-0.0039-0.12-0.0075-0.23797-0.01539-0.35547-0.02539-0.015-0.0012-0.02992-0.002-0.04492-0.002-0.11375-0.01-0.22734-0.02125-0.33984-0.03125-0.02125-0.0025-0.04055-0.0034-0.06055-0.0059-0.1075-0.01-0.21211-0.02-0.31836-0.03125-0.03125-0.0025-0.06445-0.0048-0.0957-0.0098-0.09375-0.0087-0.18609-0.02-0.27734-0.03125-0.05875-0.005-0.11438-0.01133-0.17188-0.01758l-0.19726-0.02148c-0.12375-0.015-0.24524-0.02922-0.36524-0.04297-0.16-0.01875-1.5835-0.37031-1.6973-0.47656 1.3538 0.3575 3.4805-0.29226 4.8555-0.94726l0.48438-0.28125c-0.962-0.663-2.255-1.42-3.237-2.06 0 0-2.0751 0.51484-4.0488 0.15234-1.665-0.30125-3.9727-1.3691-3.9727-1.3691s2.0923 0.43711 5.8223-0.36914c-1.3275-1.1087-2.216-1.7122-3.791-2.5859-1.9138-1.2138-3.744-0.87461-5.7402-0.53711l-0.05859-0.13086c0.32125-0.55625 0.61516-0.84352 1.2227-1.1348-0.75-0.02125-1.3384 0.18297-1.9434 0.57422-0.10125-0.09875-0.19297-0.20273-0.29297-0.30273 0 0-0.25859-0.26383-0.74609-0.70508 0.12-0.1325 0.23094-0.27102 0.33594-0.41602l0.0059 0.002c0.11625-0.1625 0.22336-0.33031 0.31836-0.50781 0.37125-0.6825 0.58203-1.4656 0.58203-2.2969 0-1.7462-0.93102-3.2761-2.3223-4.1211-0.72875-0.4425-1.585-0.69922-2.5-0.69922zm1.4375 17.561c0.005 0.10375 0.01828 0.20367 0.05078 0.29492 0.13125 0.35625 0.29297 0.60461 0.32422 1.0059 0.01625 0.20875 0 0.42797 0 0.63672 0 0.10875-0.01039 0.19133-0.02539 0.26758 4.2112 3.3325 9.5348 5.323 15.322 5.3242 1.4475 0 2.8654-0.12773 4.2441-0.36523-0.9175-0.35875-1.8098-0.73828-2.6836-1.1445-0.515 0.035-1.0355 0.05273-1.5605 0.05273-6.0375 0-11.538-2.2998-15.672-6.0723z" transform="matrix(.8 0 0 -.8 148.03 389.05)" fill="#ceb888"/><path d="m26.748 0.96875c-1.7288 0-3.4197 0.17375-5.0547 0.5-1.15 0.0725-2.5387 0.27281-3.4512 0.69531-0.98375 0-1.9191 0.14172-2.7891 0.41797-0.8875 0.20375-1.6245 0.74266-2.3945 1.2227-0.8775 0.78375-2.219 1.8125-2.1465 1.875-0.08625 0.04625-0.38875 0.49258-0.8125 0.70508-1.3412 0.67-3.1071 2.6843-3.8496 3.7793 0 0-1.0533 1.5441-1.4258 2.1504-0.41 0.745-2.2956 4.2708-3.0469 6.3633-0.14625 0.58625-0.20758 1.6178-0.29883 2.0078-0.055 0.34875-0.63062 2.5692-0.48437 4.4492 0.0225 0.2975 0.067422 0.47476 0.044922 0.69726-0.022484 0.96806-0.13491 1.5752 0.050781 2.5527 0.0025-0.0062 0.00336-0.01594 0.00586-0.02344 0.065 0.9925 0.18367 1.9683 0.35742 2.9258 0.00125 0.01625 0.0007031 0.03648 0.00195 0.05273 0.3625 1.9662 0.7918 3.8988 1.498 5.7188 0 0 0.50398 1.9226 0.74023 2.4238 0.20875 0.22875 0.38094 0.25578 0.42969 0.48828 0.295 1.34 0.61055 2.1562 1.5293 3.2012 0.0925 0.075 0.18242 0.09359 0.26367 0.08984 0.095-0.0025 0.18195-0.0332 0.25195-0.0332 0.03 0.0025 0.056328 0.0059 0.080078 0.02344 0.655 0.995 0.23531 0.45641 1.2266 1.3477 0.4025 0.34 0.80539 0.67977 1.2441 0.94727 0.04375 0.0225 0.25773 0.07813 0.45898 0.07813 0.06625 0 0.13195-0.0052 0.18945-0.02148 4.58 4.2112 10.686 6.7852 17.381 6.7852 2.07 0 4.0817-0.24789 6.0117-0.71289-0.60125-0.20875-1.1901-0.42469-1.7676-0.64844-1.3788 0.2375-2.7966 0.36328-4.2441 0.36328-5.7875 0-11.11-1.9898-15.322-5.3223 0.0175-0.07625 0.02539-0.16008 0.02539-0.26758 0-0.20875 0.01625-0.42602 0-0.63476-0.03-0.40125-0.19352-0.65281-0.32227-1.0078-0.03375-0.09125-0.04773-0.19117-0.05273-0.29492 4.1338 3.7738 9.6344 6.0723 15.672 6.0723 0.525 0 1.0455-0.01773 1.5605-0.05273-0.6525-0.30125-1.2954-0.61672-1.9316-0.94922-0.47375-0.0063-0.94391-0.03016-1.4102-0.06641-1.385-0.77125-2.7583-1.6272-4.1445-2.5859-3.1938-2.1988-5.0086-4.4859-5.0273-4.5059-0.34125 0.8425-0.57422 1.7715-0.57422 1.7715h-0.002l-0.68555-1.1094c-0.25875-0.39125-0.39523-0.95898-0.49023-1.5527l-0.82617 1.3223c0-0.0038-0.31641-1.5957-0.31641-1.5957s-0.17125-1.3511-0.1875-1.9023c-0.01375 0.0225-0.99609 0.84961-0.99609 0.84961h-0.002l-0.07227-1.3027c0-0.015-0.0091-1.2788-0.77539-2.4688-0.39375 0.10375-0.80352 0.1582-1.2285 0.1582-0.665 0-1.2975-0.13516-1.875-0.37891-1.7312-0.73125-2.946-2.4446-2.9473-4.4434 0-2.6612 2.1598-4.8223 4.8223-4.8223 0.915 0 1.7712 0.25797 2.5 0.69922 1.3912 0.845 2.3223 2.3768 2.3223 4.123 0 0.83125-0.21078 1.6144-0.58203 2.2969 0.2975 0.26375 0.53609 0.4843 0.71484 0.6543 0.45-0.175 0.90688-0.26852 1.3906-0.29102 0.11-0.005 0.22023-0.0045 0.33398-0.002l0.2207 1.0137c0.07875-0.0025 0.15758-0.0032 0.23633-0.002 0.22125-0.02375 0.44547-0.04453 0.66797-0.05078 0.38625-0.01375 0.76774-0.0012 1.1465 0.03125 0.02-0.15375 0.09859-0.29406 0.21484-0.47656 0.23625-0.37 0.56344-0.64125 0.77344-1.0312 0.18875-0.35125 0.56586-1.1051 0.75586-1.4551 0.075-0.14 0.16508-0.27859 0.20508-0.43359 0.05 0.01375 0.55867 0.02836 0.73242 0.16211 0.025 0.02 0.04328 0.04266 0.05078 0.06641 0.07 0.18875 0.17594 0.35305 0.30469 0.49805 0.555 0.61875 1.5377 0.83016 1.8027 0.75391 0.21625-0.0625 0.44336-0.005 0.63086 0.125h0.002c0.01875 0.0125 0.03719 0.02727 0.05469 0.04102 0.08875 0.0725 0.16461 0.16047 0.22461 0.26172 0.06875 0.11875 0.2675 0.39586 0.4375 0.69336 0.70875 1.2412 4.2023 5.1887 5.4648 6.3887 0.0425 0.04125 0.08164 0.07633 0.11914 0.11133 0.0025 0.0025 0.0053 0.0046 0.0078 0.0059 0.11625 0.10625 0.20547 0.17914 0.26172 0.21289 0.53625 0.31375 1.1466 0.46726 1.7266 0.16602 0.34875-0.18 0.49969-0.52523 0.71094-0.83398 0.08125-0.11875 0.15734-0.23711 0.24609-0.34961 0.15-0.19625 0.32602-0.40109 0.54102-0.52734 0.1475-0.08875 3.9964-0.7768 4.4414-0.8418 0.5325-0.07625 0.9257-0.16867 1.3457-0.26367 0.45875-0.10625 1.7252-0.30688 1.959-0.48438-0.01-0.03125-0.04781-0.02148-0.07031-0.02148l-0.16406 0.02344c-0.1425 0.0225-0.0918 0.01149-0.24805 0.02148-1.915 0.125-3.6721-0.26774-5.4434-0.55274l-2.7676-0.30469c-0.485-0.07125-1.0455-0.03758-1.498-0.11133l-0.02148 0.02148c-1.1512-0.0625-2.2533-0.2525-3.207-0.78125-0.47625-0.28625-0.94641-0.64789-1.3477-1.0566-0.4025-0.40875-0.73625-0.86625-0.9375-1.3438-0.23625-0.40375-0.70648-1.5173-0.80274-1.9785 0 0 0.37641-0.46938 0.41016-0.95312-0.665 0.42375-1.2816 0.77672-2.0703 0.63672-0.14625-0.02625-0.29703-0.07031-0.45703-0.13281-0.245-0.195-0.51062-0.4307-0.79688-0.62695-0.27125-0.18625-0.5618-0.33906-0.87305-0.38281-1.1675-0.20375-1.3204-0.01477-1.8691-0.50976 1.0912-2.995 1.6601-1.3273 2.9551-3.916 0.10125 0.125 0.10562 0.29938 0.20312 0.42188 0.03375 0.04375 0.07813 0.08117 0.14062 0.10742 0.34875 0.07625 0.67031 0.21414 0.94531 0.46289 0.035 0.03125 0.07047 0.06602 0.10547 0.10352 0.0038 0.0012 0.006 0.006 0.0098 0.0098 0.1225-0.835 0.20414-1.69 0.46289-2.4688-0.0325-0.08125 0.04742-0.14148 0.01367-0.20898-0.01375-0.07-0.1075-0.21703-0.1875-0.33203-0.06125-0.0875-0.11328-0.15625-0.11328-0.15625s-0.01516-0.03898-0.03516-0.08398v-0.002l-0.0059-0.0078c-0.015-0.035-0.03453-0.06984-0.05078-0.08984l-0.002-0.002c-0.0063-0.005-0.01063-0.0099-0.01563-0.01367-0.04375-0.025-0.32945-0.43062-0.3457-0.45312-0.17-0.41625-0.53-0.76039-0.78125-1.1191-0.0012 0.0038-0.0014 0.0073-0.0039 0.0098-0.48-1.1562-0.92727-1.7661-1.1973-2.0586-0.0025-0.0038-0.0041-0.006-0.0078-0.0098-0.015-0.01625-0.02992-0.03508-0.04492-0.04883-0.01625-0.0175-0.03117-0.03117-0.04492-0.04492l-0.0039-0.0039c-0.0025-0.0025-0.006-0.0073-0.0098-0.0098-0.0225-0.0275-0.04602-0.05031-0.07227-0.07031 0 0-0.65008-0.53609-0.76758-0.58984 0.46094 1.6327 0.0017 3.6674-0.13867 4.2988l-0.002 0.002c-0.14125-0.19125-0.14141-2.7632-0.22266-3.002-0.11125 0.90875-0.14898 3.4385-1.3965 4.5098 0.2-0.77375 1.0212-3.383 1.0312-3.418-0.145 0.24625-0.73914 1.5609-1.0879 1.6309 0.68125-2.2462 1.0351-3.9851 1.0176-4.1426-0.19875 0.32125-0.43688 0.86133-0.51562 1.2363-0.1125-0.57375 0.14977-1.1441 0.32227-1.6816l-0.07422-0.29102c0.0175-0.0275 0.03367-0.04453 0.04492-0.05078-0.12-0.12-0.23641-0.25242-0.34766-0.38867-0.02625-0.03125-0.05117-0.0632-0.07617-0.0957-0.02875-0.0375-0.05844-0.07187-0.08594-0.10938h-0.002c-0.05125-0.07-0.10164-0.14289-0.15039-0.21289-0.0038-0.0063-0.0067-0.01008-0.01172-0.01758-0.0087-0.01625-0.0193-0.03047-0.0293-0.04297-0.045-0.07-0.09086-0.13828-0.13086-0.20703-0.08875-0.14875-0.16898-0.2925-0.24024-0.4375 0.0012-0.0038 0.0034-0.006 0.0059-0.0098l-0.02344-0.02344v-0.002c-0.0075-0.01125-0.01328-0.0232-0.01953-0.0332-0.24875-0.51375-0.39367-1.0279-0.41992-1.6504 0-0.075 0.01125-0.16133 0-0.20508 0.04125-0.035 0.01844-0.09242 0.02344-0.13867-0.0087-0.01125-0.01789-0.01703-0.02539-0.01953 0.005-0.22 0.02609-0.45524 0.05859-0.70898 0.0063-0.0625 0.02141-0.12008 0.03516-0.17383 0.0425-0.1475 0.09062-0.29641 0.10938-0.44141 0.0087-0.02375 0.0193-0.04781 0.0293-0.07031 0.0625-0.14375 0.11688-0.21586 0.20312-0.34961 0.04875-0.075 0.11266-0.13734 0.16016-0.21484 0.14625-0.23 0.34492-0.37453 0.51367-0.58203 0.14-0.11625 0.28203-0.2293 0.42578-0.3418 0.06-0.0425 0.11414-0.07922 0.15039-0.10547 0.0925-0.065 0.15398-0.12203 0.20898-0.17578 0.15625-0.1225 0.31039-0.24469 0.46289-0.36719 0.0012-0.0075-0.0014-0.01258-0.0039-0.01758 0.19125-0.115 0.63141-0.37836 1.2227-0.72461l0.04883-0.01953-0.0078-0.0039v-0.002c0.3375-0.1975 0.22609-0.19016 0.52734-0.44141 0.02625-0.02125 0.04781-0.039844 0.07031-0.058594 0.0025 0 0.006 0.00125 0.0098 0l-0.0039-0.00391c0.21374-0.17894 0.26449-0.22206 0.54883-0.40039 0.33375-0.215 0.39242-0.2325 0.76367-0.34375 0.10875-0.03125 0.49875-0.24328 0.65625-0.26953-0.0125 0.005 0.10352-0.046406 0.22852-0.097656 0.05375-0.01625 0.10906-0.038359 0.16406-0.068359 0.0675-0.02875 0.11383-0.049375 0.11133-0.046875 0.4325-0.135 0.58367-0.13352 1.0762-0.19727l0.04883-0.00391 0.0039-0.00195c0.02-0.0025 0.03859-0.00531 0.05859-0.00781 0.7225-0.1 1.1922-0.21961 1.8672-0.22461-0.005-0.0075-0.0092-0.012578-0.01172-0.017578-0.0175-0.03875 0.04649-0.024453 0.27148-0.033203 0.0125 0 0.01055-0.022344-0.002-0.058594 0.01125 0.01625 0.02141 0.029922 0.03516 0.044922 0.005-0.0075 0.01516-0.016953 0.03516-0.033203-0.672-1.2452-1.077-2.3884-2.302-3.217 1.4017 0.67036 2.4368 1.8682 3.1523 3.2656 0.03625-0.005 0.0557 0.042344 0.0957 0.027344 0.0475-0.055 0.02289-0.098125-0.0059-0.14062-0.0075-0.01-0.01398-0.021953-0.02148-0.033203-0.015-0.02375-0.02719-0.050078-0.02344-0.080078-0.108-0.2862-0.205-0.5556-0.304-0.8144-0.234-0.6137-0.477-1.1721-0.891-1.7871-0.293-0.2937-0.501-0.674-0.736-0.9453 0.57 0.4025 1.118 0.9543 1.5918 1.498h0.002c0.0038 0.01375 0.0081 0.026563 0.01563 0.039063 0.04375 0.09 0.13781 0.16602 0.16406 0.25977 0.03625 0.0425 0.06219 0.089922 0.08594 0.13867 0.0063 0.01 0.0087 0.019297 0.01367 0.029297 0.03375 0.07 0.06906 0.13703 0.13281 0.17578-0.0038-0.5025-0.08578-0.81062-0.20703-1.0156-0.20125-0.34375-0.51109-0.40781-0.74609-0.63281-0.0175-0.03375-0.03328-0.07625-0.05078-0.125-0.12-0.3375-0.25414-1.0066-0.49414-1.6191-0.1625-0.42125-0.37352-0.81469-0.66602-1.0547 0.55 0.345 1.2967 0.77828 1.6055 1.3633 0.1125 0.21125 0.2782 0.49984 0.43945 0.87109 0.28875 0.6625 0.56148 1.587 0.49023 2.8145 0.15375-0.2175 0.16695-0.48758 0.25195-0.73633 0.1675-0.8025 0.08797-1.7352-0.01953-2.5352 0.4925 1.0362 0.69711 1.9859 0.56836 3.2559l0.02344 0.021484c0.3525-0.29875 0.41266-0.52531 0.62891-0.88281-0.18 0.75625-0.42031 1.4903-0.94531 2.1016l0.08984 0.089844c2.0425 0.87875 3.8904 2.2565 5.5566 3.9902 0.075 0.10375 0.14422 0.21172 0.19922 0.32422 0.12125 0.25 0.17726 0.52578 0.10352 0.83203 0 0.29-0.3193 0.79352-0.18555 1.0723 0.025 0.05125 0.0657 0.0932 0.12695 0.12695 0.32625 0.1675 1.4453 0.35562 2.0078 0.67188 0.0475 0.025 0.08977 0.05047 0.13477 0.07422 0.04625 0.02375 0.09367 0.04922 0.13867 0.07422 0.0012 0 0.0046 0.002 0.0059 0.002 0.05125 0.0275 0.10039 0.05648 0.15039 0.08398 0.0275 0.015 0.05649 0.03187 0.08398 0.04687l0.002 0.002c0.0025 0.0012 0.0034 0.0027 0.0059 0.0039 0.04625 0.02625 0.09102 0.05188 0.13477 0.07813 0.03625 0.02125 0.07117 0.04195 0.10742 0.06445 0.06875 0.04125 0.13688 0.0818 0.20312 0.12305 0.0325 0.02 0.06445 0.0425 0.0957 0.0625 0.04375 0.0275 0.08641 0.05523 0.12891 0.08398 0.0087 0.005 0.01594 0.01063 0.02344 0.01563 0.05375 0.0325 0.10625 0.06726 0.15625 0.10352l0.0078 0.0059h0.002c0.08 0.055 0.15883 0.11102 0.23633 0.16602 0.005 0.005 0.0087 0.006 0.01367 0.0098 0.07875 0.05625 0.15617 0.11312 0.23242 0.17188 0.0012 0 0.0027 0.002 0.0039 0.002 0.01125 0.01 0.02391 0.01859 0.03516 0.02734 0.0875 0.06625 0.17476 0.13438 0.25976 0.20312 0.01625 0.0125 0.03133 0.02852 0.04883 0.04102l0.26367 0.2168c0.65125 0.55125 1.2888 1.1655 2.125 1.9043 0.0063 0.0087 0.01664 0.01734 0.02539 0.02734v0.002c0.0025 0.0012 0.0046 0.0046 0.0059 0.0059 0.11 0.13375 0.29508 0.40195 0.29883 0.68945 0.0025 0.0725-0.0089 0.1482-0.03516 0.2207-0.2625 0.7525-0.88047 0.66586-1.293 1.3496-0.19875 0.255-0.47609 0.66274-0.52734 0.77148 0.12 0.64625 0.34148 0.74867 0.49023 0.91992 0.175 0.2 0.45625 0.35476 0.53125 0.57226 0.02625 0.0725 0.03055 0.15094-0.002 0.24219-0.10375 0.20875-0.16773 0.42906-0.20898 0.66406-2.0338 0.36-3.8047 1.8926-3.8047 1.8926l-0.04492 0.07031c-0.025 1.3312-0.10039 3.0265 0.22461 4.3027 0.03625 0.13875 0.07609 0.27414 0.12109 0.40039 0.06 0.22375 0.12867 0.44125 0.20117 0.65625 0.2875 0.84125 0.66508 1.6257 1.1426 2.377 0.2725 0.42875 0.57656 0.84867 0.91406 1.2637l0.59766 0.71094c-0.38125-0.85-1.0341-1.9351-1.5566-2.9863-0.1225-0.24625-0.23805-0.49172-0.3418-0.73047-0.16-0.37375-0.2918-0.73266-0.37305-1.0664 0.97375 0.4625 2.0138 0.67852 3.1426 0.75977 0.3975 0.1125 0.70969 0.20476 0.83594 0.63476-0.0225 0.1625-0.11203 0.29734-0.20703 0.43359-0.295 0.46625-0.24492 1.164 0.04883 1.6152 0.035 0.04875 0.06977 0.09773 0.10352 0.14648 0.005 0.0063 0.0094 0.01469 0.01563 0.02344 0.0012 0.0012 0.0027 0.0053 0.0039 0.0078 0.265 0.3925 0.46766 0.80727 0.66016 1.2285 0.0063 0.02375 0.0087 0.04656 0.01367 0.07031 0.04875 0.28-0.05453 0.53617-0.17578 0.76367-0.56625 0.53875-1.1873 0.95602-1.916 1.1035-2.64 0.59375-5.3416 1.0564-7.5391 2.7227-0.3125 0.2375-0.61211 0.50922-0.91211 0.76172-0.29375 0.2475-0.57969 0.50836-0.80469 0.81836-0.04625 0.0625-0.09649 0.1382-0.14648 0.2207l0.02539 0.01758 0.01758 0.0078v0.40625c0.17875-0.20625 0.33938-0.43961 0.57812-0.56836 0.0063 0.0063 0.01258 0.01398 0.01758 0.02148-0.06875 0.10875-0.13656 0.21828-0.19531 0.33203-0.215 0.41625-0.26266 0.85805-0.25391 1.3105l0.17383-0.03125c0.03625-0.0025 0.06836-0.0081 0.09961-0.01563 0.255-0.05375 0.36328-0.20703 0.36328-0.20703 0.17375 0.11625 0.34195 0.22789 0.50195 0.33789l-0.002-0.0078c0.1725-0.87875 0.36906-1.9648 0.85156-2.4473l0.002-0.002c0.50875-0.51 1.6616-1.1291 3.2441-1.7441 1.4238-0.5525 5.3067-1.4773 5.6992-1.7285 0.1725-0.11375 0.91398-0.40266 1.2402-1.2227l0.04297-0.10742c0.26125-0.6525 0.30039-0.75289-0.41211-1.7129-0.6625-0.89125-0.45352-1.3404-0.35352-1.5566 0.0062-0.0125 0.01258-0.02586 0.01758-0.03711 0.0125-0.03 0.03391-0.06859 0.06641-0.12109 0.195-0.335 0.35711-0.69883 0.25586-1.0176-0.005-0.02-0.01273-0.04055-0.02148-0.06055-0.0037-0.0087-0.0067-0.01664-0.01172-0.02539-0.05375-0.11375-0.14586-0.22016-0.28711-0.31641-0.58-0.3925-1.0726-0.58359-1.3301-0.62109-0.01 0-0.02-0.0039-0.03125-0.0039-0.0125-0.0025-0.02125-0.0027-0.03125-0.0039-0.07625-0.0075-0.11914-0.01445-0.15039-0.0332-0.0475-0.0325-0.08398-0.08539-0.11523-0.15039 0-0.0012-0.002-0.0027-0.002-0.0039-0.005-0.01125-0.0094-0.0207-0.01562-0.0332-0.01375-0.03375-0.02656-0.06992-0.03906-0.10742-0.0012-0.0025-0.0027-0.008-0.0039-0.01172-0.01-0.025-0.01859-0.05117-0.02734-0.07617-0.0275-0.0825-0.05695-0.16367-0.0957-0.23242-0.02875-0.0275-0.06773-0.05313-0.11523-0.07813-0.21375-0.11-0.58156-0.17836-0.78906-0.19336-0.02625-0.0012-0.04961-0.002-0.06836-0.002-0.04 0-0.08391-0.009-0.12891-0.02148-0.0012-0.0012-0.0039 0-0.0039 0-0.01125-0.0038-0.02195-0.0092-0.0332-0.01172-0.0037-0.0025-0.008-0.0034-0.01172-0.0059-0.005-0.0025-0.0099-0.0014-0.01367-0.0039-0.1825-0.07-0.36945-0.19976-0.4082-0.19726l-1.1367-0.28516c-0.26375-0.16875-0.37617-0.27375-0.41992-0.4375-0.0025-0.0088-0.0034-0.01734-0.0059-0.02734-0.0025-0.0125-0.0066-0.02266-0.0078-0.03516-0.025-0.1575-0.0063-0.37226 0-0.72852 0.0125-0.7875-0.0425-0.95383 0.03125-1.0176 0 0 0.22539 0.0632 0.49414 0.002 0.26-0.06 0.92688-0.31305 0.98438-0.4668 0 0 1.3402-0.52164 1.3965-0.93164 0.055-0.39125-0.03148-0.72688-0.05273-0.79688-0.0012-0.01-0.0039-0.01563-0.0039-0.01563l-0.03711-0.07422 0.07617-0.0332c0.07625-0.03375 0.74766-0.32992 0.91016-0.35742 0.16125-0.0275 0.31344-0.07664 0.36719-0.36914 0.03375-0.18375 0.09242-0.41672 0.13867-0.60547 0.0325-0.135 0.07172-0.28727 0.07422-0.32227-0.015-0.06625-0.18508-0.45273-0.39258-0.70898-0.13625-0.17-0.44688-0.55109-0.45312-0.90234-0.0025-0.1175 0.02883-0.23344 0.11133-0.33594 0.28-0.34625 1.0499-1.027 1.2012-1.1582 0.36125-0.31875 0.4032-0.9993 0.12695-1.4668-0.08875-0.1525-0.24234-0.3443-0.43359-0.56055-0.6825-0.77125-1.8608-1.8244-2.4258-2.2969-0.61375-0.51125-2.4042-1.558-2.8867-1.793-0.0725-0.035-0.14414-0.06711-0.21289-0.09961-0.26375-0.11875-0.51648-0.16703-0.61524-0.33203-0.04625-0.075-0.05719-0.17125-0.02344-0.3125 0.0175-0.0825 0.03664-0.15727 0.05664-0.22852 0.0775-0.28 0.1332-0.47562-0.0293-0.79688-0.02375-0.04625-0.05148-0.09328-0.08398-0.14453-0.345-0.54375-1.5011-1.7527-2.2461-2.3477-0.72875-0.585-3.2324-2.1816-3.2324-2.1816h-0.002l0.28906-0.73242c0.01375-0.05375 0.02383-0.15625 0.01758-0.15625 0.04625-0.225 0.11742-0.55609 0.13867-0.74609 0.0087 0 0.01938-0.079609 0.01563-0.099609 0-0.00125-0.002-0.00391-0.002-0.00391 0.01875-0.26 0.02297-0.56641 0.01172-0.75391-0.01125-0.06125-0.02406-0.11844-0.03906-0.17969-0.0063-0.025-0.01203-0.049219-0.01953-0.074219l-0.08984 0.00781v-0.00391c-0.0012-0.0075-0.002-0.014531-0.002-0.019531-0.0063-0.09125-0.01961-0.17359-0.03711-0.24609 9.8762 2.2725 17.266 11.13 17.266 21.687v0.002c0 5.8487-2.2721 11.175-5.9746 15.152-1.8 1.9325-3.9385 3.5454-6.3223 4.7441 0.30625 0.20625 0.63273 0.41375 0.99023 0.625 7.3225-3.9175 12.305-11.636 12.305-20.521 0-11.752-8.7178-21.469-20.039-23.035-0.03625-0.06625-0.07523-0.13367-0.11524-0.20117-0.2475-0.41625-0.54367-0.84281-0.73242-1.0391l-0.342-0.3512c12.699 1.0325 22.682 11.665 22.682 24.629 0 9.0975-4.917 17.044-12.238 21.334 0.32125 0.15625 0.70633 0.33695 1.0801 0.50195 0 0 0.02531-0.01742 0.07031-0.04492 0.14375-0.09125 0.28914-0.18289 0.43164-0.27539 0.06-0.04 0.11969-0.07719 0.17969-0.11719 0.22875-0.1525 0.45789-0.30875 0.68164-0.46875 0.4125-0.2925 0.81523-0.59836 1.209-0.91211 0.185-0.1475 0.36688-0.29797 0.54688-0.44922 0.18-0.1525 0.35891-0.30734 0.53516-0.46484 0.2475-0.21875 0.48781-0.44383 0.72656-0.67383 0.2375-0.2275 0.47242-0.46367 0.70117-0.70117 0.27625-0.2875 0.54414-0.58016 0.80664-0.87891 0.36875-0.4225 0.72445-0.85312 1.0645-1.2969 3.2862-4.2938 5.2012-9.6427 5.2012-15.553 0-14.176-11.533-25.711-25.709-25.711zm1.1133 1.0234c0.29684 0.013736 0.59236 0.03099 0.88672 0.054687l0.21875 0.46289c0.0075 0.015 0.01398 0.030781 0.02148 0.050781 0.03125 0.08125 0.06023 0.19305 0.08398 0.31055 0.0175 0.0775 0.03313 0.15688 0.04687 0.23438-0.14-0.165-0.3532-0.39-0.6582-0.65625-0.19-0.166-0.399-0.3211-0.6-0.4571zm3.9746 9.8984c-0.06246 0.01047-0.10625 0.03117-0.12891 0.06445-0.0425 0.0625 0.38484 0.35695 0.49609 0.50195-0.0325-0.04375-0.78781-0.25211-0.85156-0.25586-0.21125-0.0125-0.42336 0.01117-0.63086 0.04492-0.43625 0.0725-3.2109 1.7551-3.4297 1.8613 0.01 0.675 1.7877-0.12164 2.1152-0.27539-0.80625 0.39875-2.9706 2.1848-3.3594 3.0098 0.73375-0.0425 2.004-1.0545 2.459-1.1895 0.64-0.19125 0.23633 0.93359 0.23633 0.93359s-0.72281 0.48711 0.33594 0.38086c0.26-0.0275 0.12055 0.05641-0.002 0.22266-0.20625 0.28125-0.31945 0.62406-0.25195 0.66406 0.2075-0.08875 0.35648-0.16758 0.45898-0.23633 0.53-0.21125 1.4954-0.51898 1.9941-0.64648l0.02344 0.02344c-0.50375 0.3175-1.0609 0.48445-1.5684 0.7832v0.04492c0.2025 0.09375 0.02281 0.23102-0.11719 0.32226-1.1362 1.12-2.0588 2.2995-2.5312 3.7832 0.30125-0.4025 0.53078-0.86109 0.89453-1.2461 0.5725-0.97375 1.2552-1.968 2.2852-2.5605 1.055-0.7925 2.312-1.1041 3.6445-1.2441 0.05 0.02625 0.15414 0.04 0.18164 0-0.10375-0.0725-0.23875-0.07383-0.34375-0.14258-0.02625-0.02-0.04078-0.03523-0.05078-0.05273-0.02-0.03375-0.01789-0.06969-0.05664-0.11719-0.08375-0.1025-0.24875-0.05914-0.34375-0.15039-0.07625-0.075-0.12375-0.23484-0.09375-0.33984 0.04875-0.17375 0.26875-0.06742 0.40625-0.10742 0.045-0.0225 0.41406-0.15234 0.41406-0.15234-0.32875-0.39875-1.0423-0.21883-1.2461-0.11133-0.62 0.195-1.2716 0.3157-1.8203 0.68945l-0.02148-0.02344c0.24125-0.34-0.61648 0.1325-1.2715 0.75 0.0038-0.06875-0.08601-0.18484-0.32226-0.55859 0.045-0.48375 0.35773-0.91774 0.64648-1.334 0.665-0.775 2.3905-1.5444 2.373-1.4531 0.285 0.275 0.64633 0.46469 0.92383 0.80469 0.1175 0.14625 0.17172 0.30617 0.23047 0.48242 0.11625-0.4725 0.66867-0.60953 1.0137-0.83203-0.0725 0.04625-0.38227-0.08516-0.47852-0.09766-0.0087-0.19 0.08711-0.26266 0.22461-0.34766 0.11875-0.075 0.16461-0.36453 0.16211-0.48828-0.0037-0.15625 0.0034-0.35492-0.11914-0.45117-0.73391-0.57094-2.0432-1.0264-2.4805-0.95312zm1.9004 5.25c-0.02562 0.01312-0.0493 0.03469-0.06055 0.03906 0.715 0.82875 1.68 1.6027 2.1875 2.5352 0 0 0.72266 0.9893 0.87891 2.0293 0.3125 1.4 0.23461 2.9344 0.13086 4.3594-0.05625 1.3238-0.01602 2.0424 0.14648 3.1699 0.22 1.4012 0.45414 1.9974 0.80664 2.7324-0.0725-0.20875-0.0918-0.69141-0.0918-0.69141-0.33-1.6088-0.67352-3.6385-0.41602-5.0723 0.2-1.345 0.3725-2.8767 0-4.1992 0.11-0.24875 0.53062 0.0668 0.64062 0.0918 0.305 0.04625 0.34164 0.12617 1.4316-0.64258 0.39125-0.36125 1.0566-0.10992 1.3828-0.57617 0.04-0.07125 0.03633-0.20297-0.04492-0.23047-0.725-0.1725-1.2678 0.2857-1.8203 0.7832-0.51625 0.2775-1.0883-0.04508-1.5508-0.29883-0.36625-0.25375-0.41227-0.37938-0.44727-0.79688-0.4325-0.6475-0.88281-1.166-0.88281-1.166l-0.55274-0.66992c-0.62625-0.70625-1.1562-0.96875-1.1562-0.96875l-0.506-0.417c-0.0225-0.02937-0.05055-0.02484-0.07617-0.01172zm5.877 1.2129c-0.145-0.02625-0.28648 0.06078-0.39648 0.14453-0.10375 0.08-0.21516 0.14586-0.31641 0.22461-0.06625 0.0525-0.18125 0.11719-0.1875 0.21094 0.0038-0.05375 0.61125 0.15508 0.65625 0.17383 0.22 0.09 0.43609 0.18695 0.65234 0.2832 0.12125 0.055 0.2393 0.15258 0.37305 0.17383 0.0625 0.0125 0.12578-0.02094 0.14453-0.08594 0.0625-0.21375-0.3343-0.40664-0.4668-0.52539-0.095-0.09-0.21586-0.15703-0.28711-0.26953-0.055-0.085-0.05313-0.30758-0.17188-0.33008zm1.012 6.892c0.08174 0.02133 0.11477 0.12078 0.17383 0.18359 0.02 0.04375 0.03984 0.09734 0.05859 0.15234 0.0675 0.19625 0.1082 0.44227-0.0293 0.63477-0.1475 0.17375-0.42805 0.21758-0.6543 0.17383-0.0525 0.17125-0.52289 0.61297-0.80664 0.38672-0.725 0.75375-1.0275 0.17812-1.125 0.07813 0.205-0.2125 0.36852-0.58477 0.72852-0.54102 0.21625-0.2575 0.36789-0.60875 0.93164-0.625 0.13-0.285 0.42359-0.29859 0.62109-0.43359 0.04062-0.01469 0.07432-0.01688 0.10156-0.0098zm-16.936 2.7695c-0.31625 0.25875-0.50578 0.65305-0.55078 1.0605 0.13125-0.15375 0.19938-0.34844 0.39062-0.46094 0.16125-0.0325 0.26914 0.03961 0.36914 0.16211 0.0325 0.17125-0.03859 0.35883-0.18359 0.48633-0.1725 0.1075-0.39102 0.17508-0.60352 0.11133-0.25375-0.0775-0.46594-0.24375-0.71094-0.34375-0.335-0.2275-0.72906-0.31719-1.1328-0.36719l0.14062 0.0918c0.4975 0.085 0.85602 0.52375 1.291 0.78125 0.32625 0.1725 0.88797 0.2775 1.1992 0 0.205-0.10875 0.26828-0.31984 0.30078-0.52734 0-0.40375-0.14102-0.80914-0.50977-0.99414zm15.221 2.3066c0.19283-0.0017 0.32094 0.08578 0.38281 0.26953 0.0012 0.0012 0.002 0.0014 0.002 0.0039 0.0012 0.0063 0.0027 0.01133 0.0039 0.01758 0.0325-0.0175 0.06516-0.04242 0.09766-0.04492 0.2775-0.015 0.56984 0.085 0.80859 0.25 0.015 0.01125 0.02977 0.02406 0.04102 0.03906 0.01125 0.01375 0.02125 0.02797 0.03125 0.04297 0.05375-0.0275 0.12336-0.07055 0.16211-0.06055 0.3 0.0725 0.64156 0.09266 0.88281 0.19141 0.0475 0.02 0.06531 0.10492 0.10156 0.13867-0.09 0.26375-0.38266 0.1607-0.59766 0.1582-0.17375-0.035-0.40328-0.02859-0.51953-0.18359-0.1425 0.09125-0.3368-0.02102-0.49805-0.04102-0.1625-0.06125-0.32414-0.09734-0.43164-0.18359-0.24125-0.105-0.57352-0.22008-0.75976-0.42383-0.035-0.035-0.06539-0.07664-0.08789-0.11914 0.0825-0.005 0.10602-0.0084 0.16602-0.02344 0.07844-0.02031 0.15057-0.03068 0.21484-0.03125z" transform="matrix(.8 0 0 -.8 148.03 389.05)" stroke="#2c2a29" stroke-width="0.2" fill="#2c2a29"/><path d="m31.742 4.9922c0.0175 0.0725 0.03086 0.15164 0.03711 0.24414v0.019531 0.00195l0.08984-0.00781c0.0075 0.02625 0.01523 0.052422 0.02148 0.076172 0.015 0.06 0.02906 0.11969 0.03906 0.17969 0.01125 0.1875 0.0058 0.49516-0.01172 0.75391 0 0 0.000703 0.00266 0.002 0.00391 0.0038 0.01875-0.0069 0.099609-0.01563 0.099609-0.02 0.19125-0.09367 0.5218-0.13867 0.74805 0.0063 0-0.0026 0.1018-0.01758 0.1543l-0.289 0.7343s2.5056 1.5959 3.2344 2.1797c0.745 0.59625 1.9011 1.8039 2.2461 2.3477 0.03375 0.05125 0.06148 0.10023 0.08398 0.14648 0.1625 0.32125 0.10805 0.51492 0.0293 0.79492-0.01875 0.0725-0.03984 0.14477-0.05859 0.22852-0.03125 0.14-0.01961 0.23875 0.02539 0.3125 0.09875 0.165 0.34953 0.21328 0.61328 0.33203 0.06875 0.0325 0.14234 0.06461 0.21484 0.09961 0.4825 0.235 2.273 1.2837 2.8867 1.7949 0.565 0.4725 1.7427 1.5237 2.4277 2.2949 0.19125 0.215 0.34289 0.41 0.43164 0.5625 0.27625 0.4675 0.2343 1.1461-0.12695 1.4648-0.15125 0.13125-0.91992 0.81516-1.2012 1.1602-0.08125 0.1025-0.11383 0.21578-0.11133 0.33203 0.0063 0.3525 0.31562 0.73305 0.45312 0.9043 0.2075 0.25625 0.37883 0.64274 0.39258 0.70898-0.0025 0.035-0.04047 0.18727-0.07422 0.32227-0.04625 0.18875-0.10492 0.42172-0.13867 0.60547-0.05375 0.29125-0.20594 0.34289-0.36719 0.36914-0.1625 0.0275-0.83586 0.32367-0.91211 0.35742l-0.07617 0.0332 0.03906 0.07422c0.0012 0 0.0034 0.0069 0.0059 0.01563 0.02 0.07 0.10508 0.40438 0.04883 0.79688-0.05625 0.41-1.3965 0.93164-1.3965 0.93164-0.05625 0.155-0.72172 0.40805-0.98047 0.4668-0.27 0.06-0.49609-0.002-0.49609-0.002-0.075 0.0625-0.01945 0.23008-0.0332 1.0176-0.005 0.355-0.02375 0.57102 0 0.72852 0.0025 0.01125 0.0073 0.02195 0.0098 0.0332 0.0025 0.01 0.0034 0.02055 0.0059 0.0293 0.04375 0.16375 0.15688 0.26875 0.42188 0.4375l1.1348 0.28516c0.04-0.0012 0.22695 0.12726 0.4082 0.19726 0.005 0.0025 0.0087 0.0014 0.01367 0.0039 0.005 0.0025 0.0087 0.0046 0.01367 0.0059 0.01 0.0025 0.02125 0.0067 0.03125 0.01172h0.0039c0.045 0.01375 0.0882 0.02148 0.12695 0.02148 0.02 0 0.04531 0.002 0.07031 0.002 0.20875 0.01625 0.57531 0.08211 0.78906 0.19336 0.0475 0.025 0.08844 0.05133 0.11719 0.08008 0.0375 0.06625 0.065 0.14797 0.09375 0.23047 0.0087 0.025 0.01734 0.05117 0.02734 0.07617 0.0012 0.0038 0.0027 0.0092 0.0039 0.01172 0.0125 0.0375 0.02531 0.07367 0.03906 0.10742 0.005 0.0125 0.0094 0.0232 0.01562 0.0332 0 0.0025 0.002 0.0027 0.002 0.0039 0.03125 0.065 0.06773 0.11914 0.11523 0.15039 0.03125 0.02 0.07414 0.0257 0.15039 0.0332 0.01125 0.0012 0.02 0.0014 0.03125 0.0039 0.01 0 0.02 0.0039 0.03125 0.0039 0.25625 0.0375 0.75008 0.22859 1.3301 0.62109 0.14125 0.09625 0.23406 0.20266 0.28906 0.31641 0.0037 0.0075 0.0073 0.01664 0.0098 0.02539 0.0087 0.02 0.01594 0.03859 0.02344 0.05859 0.1 0.31875-0.06352 0.68328-0.25976 1.0195-0.03 0.0525-0.05195 0.09109-0.06445 0.12109-0.005 0.01-0.01258 0.02531-0.01758 0.03906-0.1 0.21625-0.30648 0.66539 0.35352 1.5566 0.71375 0.96125 0.67336 1.0597 0.41211 1.7109l-0.04492 0.10742c-0.32375 0.81875-1.0645 1.1102-1.2383 1.2227-0.3925 0.25125-4.2755 1.176-5.6992 1.7285-1.5825 0.615-2.7354 1.2354-3.2441 1.7441l-0.002 0.002c-0.48125 0.48375-0.67836 1.5698-0.84961 2.4473v0.0098c-0.16125-0.11125-0.32695-0.22359-0.50195-0.33984 0 0-0.10953 0.15203-0.36328 0.20703-0.03125 0.0075-0.06531 0.01313-0.10156 0.01563l-0.17383 0.03125-0.14258 0.02539-0.96094 0.16992c-0.8225 0.08-1.7735 0.02758-2.3223-0.04492 1.4875-0.54375 2.2502-1.2388 2.7852-1.1875l-1.4961-0.93945c-1.23-0.77125-1.6602-1.1105-2.9277-1.8418 0 0-3.4198 0.69117-5.7461-0.08008 3.0612 0.03 4.8945-0.77734 4.8945-0.77734-0.17625-0.20625-0.25-0.2175-0.46875-0.40625-1.4312-1.17-3.7852-2.4785-3.7852-2.4785-1.2475-0.7175-3.0526-1.2891-4.6113-1.1641-0.3 0.02625-0.59898 0.06188-0.89648 0.10938l-0.26172-1.0234c-0.115 0-0.22594 0.0069-0.33594 0.01563-0.4825 0.04-0.93641 0.15-1.3789 0.34375-0.03625-0.0325-0.07399-0.06727-0.11524-0.10352-0.2075-0.17875-0.47898-0.40867-0.80273-0.66992-0.0012-0.0012-0.0046-0.0027-0.0059-0.0039-0.105 0.14625-0.21719 0.28352-0.33594 0.41602 0.48625 0.4425 0.74414 0.70898 0.74414 0.70898 0.1 0.1 0.19367 0.20078 0.29492 0.30078 0.60625-0.39125 1.1914-0.59742 1.9414-0.57617-0.60625 0.2925-0.90016 0.58172-1.2227 1.1367l0.06055 0.13086c1.995-0.33875 3.8265-0.67594 5.7402 0.53906 1.575 0.8725 2.4642 1.4759 3.793 2.5859-3.7325 0.805-5.8242 0.36719-5.8242 0.36719s2.3057 1.0679 3.9707 1.3691c1.9738 0.36125 4.0508-0.15234 4.0508-0.15234 0.9825 0.64 2.2745 1.3948 3.2383 2.0586l-0.48242 0.28125c-1.375 0.655-3.5037 1.308-4.8574 0.94922 0.115 0.1075 1.5373 0.45656 1.6973 0.47656 0.12 0.01375 0.24078 0.02797 0.36328 0.04297 0.06625 0.0087 0.13422 0.01398 0.19922 0.02148 0.0575 0.0063 0.11312 0.01328 0.17188 0.01953 0.09125 0.01 0.18484 0.0193 0.27734 0.0293 0.0325 0.0037 0.0632 0.006 0.0957 0.0098 0.105 0.01 0.21016 0.02125 0.31641 0.03125 0.02125 0.0025 0.0425 0.0046 0.0625 0.0059 0.11375 0.01 0.2268 0.0193 0.3418 0.0293 0.01375 0.0012 0.02797 0.0027 0.04297 0.0039 0.1175 0.01 0.23547 0.01859 0.35547 0.02734h0.0293c0.1225 0.0087 0.24469 0.01719 0.36719 0.02344 0.0075 0.0012 0.01203 0.000703 0.01953 0.002 0.125 0.0063 0.25 0.01188 0.375 0.01563 0.005 0 0.0087 0.000703 0.01367 0.002 0.12625 0.005 0.25266 0.008 0.37891 0.01172h0.0059c0.1275 0.0025 0.25727 0.0027 0.38476 0.0039 0.12875 0 0.25656-0.0014 0.38281-0.0039 0.72625-0.015 1.4305-0.07648 2.0742-0.20898 0.55625 0.40375 0.89094 0.64703 1.4609 1.0195 0.09375 0.06125 0.18469 0.12289 0.27344 0.18164 0.02625 0.01875 0.05383 0.03523 0.08008 0.05273 0.06375 0.04375 0.125 0.08766 0.1875 0.12891 0.025 0.01875 0.05117 0.03648 0.07617 0.05273 0.08125 0.05875 0.15883 0.11102 0.23633 0.16602 0 0 0.0027 0.002 0.0039 0.002 0.07875 0.05625 0.15422 0.11227 0.23047 0.16602 0.02125 0.015 0.0425 0.03188 0.0625 0.04688 0.05625 0.04125 0.11226 0.08109 0.16602 0.12109 0.01875 0.01375 0.03719 0.02531 0.05469 0.03906 0.14625 0.1075 0.28352 0.2118 0.41602 0.31055 0.0063 0.0038 0.01062 0.008 0.01563 0.01172 0.07875 0.06 0.15547 0.11562 0.23047 0.17188 0.02 0.015 0.03859 0.03117 0.05859 0.04492 0.04625 0.035 0.09172 0.06977 0.13672 0.10352 0.04125 0.03 0.0818 0.05984 0.12305 0.08984 0.02125 0.015 0.0432 0.03187 0.06445 0.04687 0.03375 0.02625 0.06852 0.04922 0.10352 0.07422 0.02 0.015 0.0393 0.03187 0.06055 0.04687l0.12695 0.08984c0.0088 0.0075 0.02055 0.01453 0.0293 0.01953l0.002 0.002c0.05625 0.03875 0.11102 0.07773 0.16602 0.11524l0.012 0.007c0.05 0.03375 0.10039 0.06516 0.15039 0.09766 0.01625 0.01125 0.03258 0.02125 0.04883 0.03125 0.0375 0.0225 0.07703 0.04711 0.11328 0.06836 0.05375 0.03375 0.10836 0.0643 0.16211 0.0918l1.1758 0.59766c-1.3912 0.4225-5.7498-0.34883-12.166-3.2988l-0.125 0.03125c8.2662 5.0188 15.268 6.9883 15.268 6.9883l-0.04883 0.08008s-5.9558-1.1845-13.238-5.0508c-4.7712-2.5225-9.1907-5.5728-12.908-9.3203 0 0-0.27484 0.25-0.33984 0.5625 0 0-0.18938-0.58461-0.23438-1.0996 0 0-0.39453 0.07305-0.73828 0.49805 0 0-0.10383-0.72531-0.01758-1.3828 0 0-0.72383-0.76336-1.5801-1.5996-0.19125-0.18625-0.38914-0.37625-0.58789-0.5625-0.13625-0.12875-0.27055-0.25516-0.4043-0.37891-0.26125 0.18-0.5425 0.3257-0.84375 0.43945-0.43875 0.16625-0.91727 0.26297-1.416 0.26172-1.0037 0.0012-1.9186-0.37312-2.6211-0.98438 0.73375 0.84 1.8073 1.3762 3.0098 1.375 0.4475 0 0.87664-0.07664 1.2754-0.21289 0.19 0.22 0.35078 0.44898 0.48828 0.67774 0.70875 1.1762 0.78156 2.3672 0.78906 2.6172v0.002c0.0012 0.01 0 0.01648 0 0.02148v0.0078 0.01563c0.3475-0.295 0.57797-0.57031 1.1055-0.78906-0.1175 1.2962 0.02312 2.0573 0.14062 3.0586 0.21125-0.3675 0.94531-1.5762 0.94531-1.5762 0.10125 0.74375 0.13836 2.4467 0.59961 3.1367 0.18125-0.81625 0.58594-1.7715 0.58594-1.7715 0.05875 0.2625 0.69531 1.1387 0.69531 1.1387 1.4175 1.6812 3.0338 3.0561 4.8301 4.3086 1.7575 1.1925 3.4862 2.2352 5.2637 3.1602 0.635 0.3325 1.2784 0.64672 1.9297 0.94922 0.875 0.40625 1.768 0.78578 2.6855 1.1445 0.5775 0.22375 1.1644 0.43969 1.7656 0.64844 0.8 0.2775 1.6227 0.54297 2.4727 0.79297 5.7512 1.6875 11.074 0.75195 11.074 0.75195s-1.9913-1.4052-3.125-2.5039c-0.6 0.045-1.7593-0.0041-2.3418-0.18164 0.33875-0.17125 0.68125-0.49633 1.6562-0.51758 0 0-1.0334-0.52633-1.4434-1.1113-0.795 0.21125-2.3912 1.1438-3.1699 1.1113 0.65-0.31125 0.63086-0.36172 1.3184-0.73047l0.73242-0.54688 0.37109-0.22461c-0.375-0.165-0.75812-0.3457-1.0781-0.50195-0.5775-0.28125-1.0779-0.55-1.5254-0.8125-0.3575-0.21125-0.68203-0.4175-0.98828-0.625 2.3837-1.1988 4.5223-2.8116 6.3223-4.7441 3.7025-3.9775 5.9746-9.3036 5.9746-15.152 0-10.559-7.3894-19.415-17.266-21.688zm6.127 10.238c-0.2025 0.085-0.45055 0.17953-0.5918 0.23828-0.15375 0.06-0.14414 0.0557-0.24414 0.12695-0.12 0.06625-0.2393 0.12945-0.37305 0.1582-0.6525 0.42-1.1862 0.97867-1.6562 1.5762 0.20375 0.1475 0.46375 0.36477 0.75 0.66602 0.035-0.04 0.06781-0.07914 0.10156-0.11914 0.05-0.05625 0.09844-0.11102 0.14844-0.16602 0.08875-0.095 0.17953-0.18945 0.26953-0.2832 0.0525-0.05375 0.1057-0.10766 0.1582-0.16016 0.09125-0.08875 0.1843-0.17281 0.2793-0.25781 0.05875-0.05375 0.11719-0.10711 0.17969-0.16211 0.0875-0.07625 0.18148-0.15086 0.27148-0.22461 0.07125-0.0575 0.13703-0.11422 0.20703-0.16797 0.08875-0.0675 0.17953-0.13422 0.26953-0.19922 0.05375-0.03875 0.1057-0.07844 0.1582-0.11719 0.025-0.0175 0.04992-0.03453 0.07617-0.05078 0.23375-0.16125 0.47766-0.30992 0.72266-0.45117-0.07375-0.045-0.14516-0.08906-0.22266-0.13281h-0.002c-0.02875-0.01625-0.05649-0.03258-0.08398-0.04883-0.05-0.0275-0.09914-0.05648-0.15039-0.08398-0.0012 0-0.0034-0.000703-0.0059-0.002-0.04625-0.025-0.09242-0.04922-0.13867-0.07422-0.04-0.0225-0.08055-0.0432-0.12305-0.06445zm1.6387 1.0078c-1.1962 0.61125-2.26 1.46-3.125 2.5l0.08789 0.10547c0.0075 0.0087 0.30148 0.34867 0.64648 0.82617 0.02375-0.04625 0.05008-0.09156 0.08008-0.13281 0.21125-0.31 0.94336-0.34766 0.94336-0.34766 0.1-0.36125 0.66891-1.5372 2.1914-2.3047v-0.002l-0.26367-0.2168c-0.0175-0.0125-0.03258-0.02727-0.04883-0.04102-0.0825-0.06625-0.16695-0.13031-0.25195-0.19531-0.0025-0.0038-0.006-0.0046-0.0098-0.0059-0.01125-0.0087-0.02195-0.02055-0.0332-0.0293-0.0012-0.0012-0.0034-0.002-0.0059-0.002h-0.002c-0.0675-0.05375-0.14024-0.10305-0.20898-0.1543zm-7.0234 2.2598c-2.6275 2.09-4.5036 5.1141-5.1523 8.4141 0.66875 0.05375 1.2935-0.40812 1.916-1.1406 0.8875-2.5375 2.538-4.8031 4.6855-6.4219-0.1375-0.14375-0.27953-0.29-0.42578-0.4375-0.13375-0.13625-0.26734-0.27406-0.40234-0.41406h-0.62109zm2.084 1.6133c-2.0425 1.6562-3.6175 3.8812-4.5 6.3574-0.22875 0.64375-0.28281 0.83852-0.41406 1.5098 2.2962 0.95625 2.2346-3.4463 5.6934-6.4238-0.155-0.4625-0.42797-0.90711-0.54297-1.0684-0.03375-0.045-0.06625-0.09453-0.09375-0.14453-0.04125-0.07625-0.09133-0.15297-0.14258-0.23047zm-24.91 7.0371c-1.0125-0.0012-1.9337 0.3807-2.6387 1.002l0.38867 0.38867c0.70375-0.62 1.6269-1.0012 2.6406-1 1.0038 0 1.9179 0.37188 2.6191 0.98438-0.73125-0.84-1.8073-1.3763-3.0098-1.375zm1.8848 1.709-0.66406 0.66406 0.22656 0.0078c0.0525 0.0012 0.19102 0.02766 0.25976 0.09766 0.09375 0.09625 1.2631 1.2624 1.5469 1.5449-0.07375 0.08125-0.20633 0.22406-0.33008 0.35156-0.18875 0.1925-0.31141 0.30773-0.41016 0.39648l-1.5273-1.5273c-0.21875-0.2175-0.57484-0.0041-0.58984 0.0059 0 0-0.99906 0.62766-1.1016 0.69141l-0.048828 0.0293-0.35352-0.35156 0.8125-0.81055s0.11047-0.11109 0.23047-0.12109c0 0 0.038203-0.4093 0.2207-0.7168l0.095703-0.16992-0.17969 0.10547c-0.3075 0.17625-0.67719 0.22656-0.67969 0.22656-0.01 0.11-0.14258 0.21875-0.14258 0.21875s-1.5779 1.5798-1.8379 1.8398l-0.4605-0.461c0.1075-0.12375 0.2582-0.28938 0.4707-0.48438 0.29625-0.2725 0.40414-0.33344 0.46289-0.36719 0.2275-0.13 0.44141-0.15234 0.44141-0.15234l-0.58789-0.58398-0.03125 0.02539c-0.00625 0.005-0.54938 0.42562-0.85938 0.73438-0.39 0.39-0.85758 1.023-0.86133 1.0293l-0.074219 0.09961 0.22656-0.04492c0.1125-0.01375 0.2207 0.07617 0.2207 0.07617l0.5918 0.58984-0.13086 0.13281c-0.115 0.115-0.24992 0.19172-0.26367 0.19922l-0.089844 0.04688 0.34961 0.12109 0.087891 0.08594 0.11133 0.37109 0.056641-0.10547c0.0025-0.0025 0.079219-0.14562 0.19922-0.26562l0.13281-0.13281 0.5293 0.5332 0.078125 0.07617s0.14539 0.14109 0.11914 0.30859c-0.0275 0.165-0.048828 0.26953-0.048828 0.26953l0.00977-0.0059 0.96484-0.96484s-0.12445 0.01937-0.2832 0.04687c-0.1586 0.028-0.3182-0.135-0.3182-0.135l-0.076172-0.07422-0.51367-0.51562 0.56055-0.56055 0.48828 0.49023h0.00195 0.00195c0.0025 0.0025 0.26266 0.23945 0.59766 0.0332 0 0 0.96125-0.60016 1.1563-0.72266l0.35742 0.35938c-0.08875 0.1225-0.35289 0.4007-0.46289 0.50195v0.002c-0.53875 0.53875-0.93945 0.51758-0.93945 0.51758l0.60938 0.60938s0.49281-0.3632 0.78906-0.6582c0.22375-0.225 0.39555-0.42281 0.4668-0.50781l0.95703 0.95508 0.08398-0.07031 0.002-0.0039c0.0825-0.06375 0.51063-0.39805 0.85938-0.74805 0.31125-0.31 0.75586-0.89648 0.75586-0.89648l0.17383-0.22266-0.21875 0.02539c-0.0025 0-0.15516 0.02844-0.28516-0.10156l-1.9375-1.9375z" transform="matrix(.8 0 0 -.8 148.03 389.05)" fill="#782f40"/></g></g></svg>
