<svg width="238.2" height="171.58" viewBox="0 0 238.2 171.58" xmlns="http://www.w3.org/2000/svg">
 <g transform="matrix(1.3333 0 0 -1.3333 -211.9 747.67)">
  <g transform="translate(-.91325 .68493)">
   <g>
    <path d="m336.55 461.59-0.19845 0.3381c-1.6342 2.2074-2.3838 5.0225-3.109 7.742-0.8281 3.1115-1.6856 6.3308-3.8538 9.1556l-0.35035 0.32585c-2.6705 1.9061-4.2385 4.6084-5.7575 7.2324-1.8326 3.1654-3.9102 6.7522-8.009 8.8862-1.051 0.5929-2.3863 0.72765-3.7264 0.4018l-0.1813 0.4606c-0.8673 2.2418-1.7664 4.557-3.0208 6.6101-1.8302 3.6922-4.6428 5.9364-7.617 8.308l-1.933 1.5827c-0.45815 1.7224-1.7444 3.0454-2.8934 4.2238-0.9359 0.9604-1.9036 1.9551-1.9036 2.6705 0 0.35035 0.2352 0.784 0.7497 1.3402l0.30135 0.38955 0.0833 0.4018c0.147 0.6811 0.22295 1.3646 0.22295 2.0286 0 2.9596-1.4234 5.8236-4.1405 8.3104l-0.3577 0.245c-1.3034 0.67865-3.4814 1.8154-5.782 1.8154-1.2716 0-2.4255-0.34545-3.4324-1.0339l-0.2156-0.1764c-0.882-0.8379-1.3304-1.8056-1.3304-2.8812 0-1.1123 0.49-2.0629 0.8477-2.7538 0.0392-0.0784 0.10045-0.19845 0.16415-0.3283-3.9788 1.3475-8.0924 2.7342-12.845 2.7342h-0.1666c-4.0596 4.0327-7.9527 6.3038-12.223 7.1368l-0.27195 0.0294c-3.0135 0.0906-5.8849 1.0241-8.6804 1.933-3.3369 1.0854-6.8134 2.2197-10.844 2.1438 0.31115 1.203 0.6125 2.4451 0.6125 3.7166 0 0.1029-2e-3 0.2058-5e-3 0.2548 0 1.056-0.26215 2.031-0.7742 2.8934l-0.98 1.0437-0.833 0.022c-1.0584 0-2.0923-0.20335-3.1826-0.61985l0.1323 0.23275c0.3381 0.59045 0.31605 1.1956 0.30625 1.3794l0.0172 0.39935-0.0172 0.2891-1.2985 3.305-0.76685 0.2597c-0.17395 0.0612-0.38465 0.1617-0.6615 0.4214-0.3969 0.4067-0.75215 1.0364-1.1 1.6562-0.29155 0.52185-0.6566 1.176-1.1196 1.7714l-0.12495 0.1372c-0.55615 0.5537-1.198 0.8771-1.96 0.98-0.4802 0.0711-0.9702 0.0319-1.4774-0.0245-0.1764-0.0196-0.3038-0.0514-0.57575-0.0392l-0.0784 7e-3 -0.0784-5e-3c-0.85505-0.0147-1.5386-0.343-2.0458-0.58555-0.11515-0.0563-0.21805-0.1078-0.28175-0.14455l-0.11515 0.0294c-0.67865 0.17885-1.2005 0.24255-1.5802 0.27685-1.176 0.1078-2.2883-0.3332-2.3961-0.37975l-0.91385-0.37485v-0.0857c-0.36015-0.23275-0.69335-0.5194-1.0339-0.89425l-0.0833-0.1029c-0.12985-0.18375-0.79135-1.149-0.9457-2.2564l-0.0514-0.3283c-0.0564-0.33565-0.11515-0.69825-0.14455-1.203l-2e-3 -1.3156c0-0.0441 0.0466-0.50225 0.0515-0.5831-0.01-2e-3 -0.0245-5e-3 -0.0392-0.01l-1.301-0.0612c-0.58555-0.0196-1.2422-0.0417-1.9306-0.2107-0.0392-5e-3 -0.0809-0.0147-0.1323-0.0318-5e-3 0-7e-3 -2e-3 -0.01-2e-3 -0.13965-0.0441-0.3479-0.12495-0.73255-0.27685l-0.43365-0.2205-0.2695-0.33075c-0.31605-0.2695-0.66395-0.4606-1.0902-0.59535l-0.52185-0.1421c-0.1911-0.027-0.5341-0.0809-1.2078-0.18865l-2.2295-0.36995c-0.5047-0.1372-1.1711-0.343-1.8742-0.7595-0.25725-0.16415-0.48265-0.32585-0.68845-0.49-0.0735 0.2205-0.1519 0.49735-0.21315 0.7252-0.24745 0.8771-0.52675 1.8694-1.3034 2.7758-1.3548 1.3916-2.7906 2.0972-4.2679 2.0972-0.21805 0-0.4067-0.0147-0.5586-0.0294-0.5243-0.0539-1.029-0.16415-1.6072-0.3675l-0.50715-0.17885-0.7791-1.3083c-0.43365-0.55615-1.0854-0.81585-2.0972-1.1882-1.4161-0.5194-3.3492-1.2299-4.4002-3.55-0.15435-0.28665-0.5145-1.0756-0.55125-2.2001-0.0343-0.90405 0.2009-1.7174 0.4067-2.4353l0.1715-0.64925c-0.2793-0.60515-0.54145-1.399-0.54145-2.3496 0-0.098 2e-3 -0.196 0.0147-0.3773 0.0956-0.87955 0.46795-1.7028 1.051-2.3667-0.4361-0.1813-0.8134-0.4165-1.1025-0.61495l-1.0878-0.6958-0.5782-1.0143 0.17395-1.394c0-0.40915 0.10045-0.8036 0.294-1.1613l0.049-1.639 0.9408 0.0809c0.7497-1.1784 1.5852-2.3716 2.5848-3.4349-0.0858-0.94325-0.12985-1.9526-0.12985-3.0086 0-1.3206 0.0686-2.7514 0.20335-4.263l-0.4459-0.47285 5e-3 -5e-3c-0.28665-0.29645-1.0952-1.1711-3.7142-4.0033-0.42385-0.5439-0.6468-1.1711-0.6468-1.8228 0-0.16415 0.0122-0.33075 0.0416-0.4998-2.5578-4.655-4.094-10.116-4.4468-15.829l-7e-3 -0.1568 0.0245-0.32585c0-0.42385-0.28665-0.70805-1.2716-1.4651-0.9506-0.73255-2.3398-1.8008-2.5946-3.6432-2.5529-1.8571-4.7432-4.5496-6.1422-7.5558-2.1707-0.6615-5.3704-1.6807-6.0392-5.167-0.10535-0.71785-0.15925-1.3965-0.15925-2.0212 0-1.8767 0.49245-3.4276 1.4676-4.6207 0.9555-9.2218 2.864-19.455 12.267-25.747 0.5978-1.3181 2.4647-5.4464 2.4843-5.4856 2.4745-4.9808 7.791-4.9808 10.346-4.9808 0.51205 0 1.0216 7e-3 1.5264 0.0147 0.784 0.0147 1.5362 0.0269 2.2564 5e-3 2.2172-1.225 4.6624-1.938 7.3622-2.1658 0.42385-0.0686 0.8575-0.10535 1.2887-0.10535 1.5166 0 2.8444 0.42875 4.0156 0.8085 0.98735 0.31605 1.84 0.59045 2.6778 0.59045 0.14945 0 0.30135-7e-3 0.56105-0.0417l0.5733-0.0122 0.42385 0.2352c0.41895 0.23275 1.0878 0.76195 1.2446 1.8228 1.0804 0.22295 1.9772 0.75705 2.7342 1.2078 0.73745 0.441 1.394 0.8477 1.9282 0.7448l1.7566 0.5635 0.29645 1.813c-0.0221 0.0661-0.0392 0.12005-0.0515 0.1617 0.12495 0.0882 0.32095 0.20335 0.47775 0.294 0.54145 0.3185 1.3744 0.8085 1.9502 1.7028 0.0245 2e-3 0.049 7e-3 0.0735 0.01 0.5488 0.071 1.4626 0.18865 2.2589 0.89915l0.59535 0.53655v0.8036c0 1.5606-0.7154 2.6901-1.5166 3.5868-0.18865 2.8494-1.4578 5.243-3.7779 7.1246-1.7493 1.7272-4.1013 2.6044-6.9898 2.6044-1.1907 0-2.4451-0.13965-3.898-0.44345l-0.41895 0.3528c-1.3377 1.1442-2.8322 2.423-4.682 3.1042-0.8624 2.3275-2.0506 4.3046-3.5525 5.9045 0.44835 0.2842 0.9555 0.54635 1.5166 0.83055 0.44345 0.2205 0.9359 0.4753 1.4332 0.76685 5.4414-2.4622 11.838-3.7093 19.027-3.7093 8.9548 0 16.41 1.911 20.582 3.2756-5e-3 -0.16905-0.0318-0.3626-0.076-0.5488-0.4802-1.0584-1.3671-1.296-3.3736-1.6023-1.2862-0.19845-2.744-0.42385-4.0744-1.2642l-0.2989-0.2499c-0.91385-0.9457-2.2099-1.247-3.7166-1.5974-1.7542-0.40915-3.7436-0.87465-5.3876-2.4843l-0.11025-0.12005c-1.2176-1.4896-1.4234-3.2512-1.595-4.6942-0.076-0.6468-0.1568-1.3181-0.29645-1.7836-0.26705-0.72765-0.38955-1.3181-0.38955-1.8546 0-0.67375 0.2009-1.252 0.588-1.6978 0.49245-0.58555 1.1956-0.882 2.0898-0.882 0.5096 0 1.0192 0.0931 1.5166 0.1862 0.33565 0.0612 0.7105 0.1323 1.0682 0.13965 0.7154-0.67865 1.546-1.0216 2.477-1.0216 0.79135 0 1.4798 0.2499 2.0335 0.4508 0.4361 0.1568 0.84525 0.2989 1.105 0.26705 0.882-0.5978 2.058-0.7546 3.2414-0.63945l-0.12495-0.343 0.0514-0.4312c0.01-0.0857 0.0147-0.17395 0.0147-0.25725 0-0.67865-0.3038-1.3671-0.6566-2.1732-0.43855-0.99225-0.9359-2.1168-0.9359-3.4839 0-0.3724 0.0392-0.74725 0.11515-1.1172l0.27685-1.3475 1.1196-0.0735 0.47775-0.0245c0.7105 0 1.2862 0.24255 1.6832 0.4263l0.1666-0.0563c-0.0245-0.21315-0.0784-0.4949-0.10535-0.6223l-0.12005-0.8183 0.1176-0.3577c0.26215-0.8379 0.7399-1.4234 1.4259-1.7444 0.88935-0.4067 1.96-0.1029 2.6705 0.196 0.0196 0.01 0.0465 0.0171 0.0735 0.0294 0.8771-0.6223 1.9257-0.75705 2.624-0.8477 0.0662-0.01 0.1372-0.0172 0.2107-0.0294l-0.1029-0.4214 0.4851-0.686c0.5243-0.72765 1.2912-1.1246 2.1584-1.1246 0.40915 0 0.76195 0.0857 1.002 0.14455 2e-3 0 5e-3 2e-3 7e-3 2e-3 1.3818-0.7252 2.891-1.0756 4.5962-1.0756 2.5186 0 5.0176 0.7889 7.2128 1.4798l1.4676 0.44835c0.9947-0.16415 2.009-0.2499 3.0184-0.2499 5.2552 0 11.493 2.3569 13.428 8.945 8.5897 10.263 14.107 19.279 17.346 28.349 0.4508 0.90405 0.6174 1.8914 0.7644 2.766 0.0637 0.36995 0.1323 0.78645 0.2254 1.1368 2.2712-1.4724 5.3018-3.0208 8.5676-3.0208 1.2495 0 2.4549 0.2303 3.599 0.68355 1.198-0.99715 1.9306-2.5529 2.3446-3.7534l0.12985-0.2989c0.0931-0.16415 0.15435-0.294 0.1911-0.392-0.23765-0.1127-0.5978-0.24255-0.8379-0.33075-1.0731-0.38955-2.4108-0.87465-3.1017-2.2124-0.44345-0.87465-1.1564-1.1442-2.4892-1.5852-1.394-0.46305-3.1262-1.0339-4.334-2.8592-1.6758-1.9796-1.519-4.3708-1.3916-6.294 0.0539-0.83055 0.11025-1.688-5e-3 -2.5014l-0.0196-0.6223 0.27195-0.45325c0.7889-1.3156 1.9772-1.9845 3.5304-1.9845 0.5145 0 1.0118 0.0686 1.443 0.1274 0.53655 0.0735 1.1392 0.14945 1.541 0.0612 0.5733-0.4802 1.2642-0.73745 1.9894-0.73745 0.147 0 0.29645 0.01 0.56595 0.049l0.62475 0.1715 0.36015 0.41895c0.0686 0.0784 0.1078 0.1029 0.1127 0.1029 0.28665 0 0.99225-0.33565 1.35-0.50715l1.0976-0.46795 0.2597-0.0833c0.9212-0.20335 1.9772-0.0833 2.7783 0.049 0.35525 0.0563 0.70315 0.11025 1.0143 0.0833l0.24745-0.2401 0.25235-0.1274c0.3822-0.18865 0.7742-0.28665 1.1686-0.28665 0.7595 0 1.3181 0.3528 1.7174 0.71785 1.35-0.5194 2.695-0.784 4.0082-0.784 0.6615 0 1.3181 0.0686 2.0384 0.2254l0.45325 0.14455 0.29155 0.2646c0.88935 0.81095 2.3594 0.83055 4.0694 0.8526 2.4451 0.0294 5.488 0.0637 7.4308 2.913 1.5656 2.325 1.8498 5.9143 0.6713 8.7832" fill="#fff"/>
    <path d="m335.21 460.98-0.0147 0.0392-0.0245 0.0343c-1.8008 2.428-2.5872 5.3826-3.3492 8.2394-0.79135 2.9718-1.6121 6.0466-3.5672 8.5946l-0.0319 0.0392-0.0392 0.0294c-2.9326 2.0948-4.5815 4.9416-6.1764 7.693-1.8179 3.1384-3.6995 6.3847-7.4578 8.3398-1.1882 0.66885-2.744 0.3871-3.8465-0.196-0.1911 0.49245-0.70805 1.7983-0.70805 1.7983-0.84525 2.1854-1.7199 4.4443-2.9694 6.4998-1.688 3.403-4.3806 5.5517-7.23 7.8253 0 0-2.1732 1.7762-2.3348 1.9086-0.21805 1.5312-1.4308 2.7906-2.6166 4.0082-1.2152 1.247-2.3202 2.3838-2.3202 3.697 0 0.69825 0.3136 1.443 1.0878 2.281l0.0637 0.0661 0.0172 0.0931c0.12495 0.5733 0.18865 1.149 0.18865 1.7199 0 2.5431-1.2348 5.0029-3.6334 7.1981l-0.0319 0.0294-0.0392 0.0196c-1.7812 0.92855-5.0936 2.6582-7.6979 0.87955l-0.022-0.0147-0.0196-0.0196c-0.6468-0.61495-0.8722-1.2274-0.8722-1.8154 0-0.7497 0.3626-1.4578 0.68355-2.0825 0.34055-0.66395 0.59535-1.2054 0.59535-1.7076 0-0.4165-0.18865-0.80605-0.63455-1.2128-0.2989 0.10045-1.5166 0.5096-1.5166 0.5096-4.1086 1.3916-8.3594 2.8298-13.198 2.6632-4.0008 4.089-7.7836 6.3724-11.885 7.1736l-0.0538 4e-3c-3.2316 0.0956-6.2132 1.0682-9.0944 2.0066-3.7216 1.2128-7.5778 2.4672-12.128 1.9576-0.0539-0.0122-0.10535-0.0245-0.1568-0.0343 0.1078 0.5537 0.2499 1.1172 0.4018 1.7076 0.3136 1.203 0.637 2.4451 0.637 3.626 0 0.0809 0 0.1617-5e-3 0.2401v0.0171c0 0.80605-0.1911 1.5092-0.5684 2.1438-5e-3 7e-3 -0.34055 0.3381-0.34055 0.3381-1.1442 0.0367-2.2736-0.2205-3.555-0.8085-0.01-5e-3 -1.4112-0.75705-1.4112-0.75705l-0.0956-0.0515c-0.0147-0.01-1.8988-1.203-1.8988-1.203 0.0172 0.01-0.29155-0.1617-0.29155-0.1617s-0.0637-0.0318-0.12005-0.0637c-0.77665 0.57085-1.666 0.9016-2.5308 1.2103-0.6174 0.2205-1.2078 0.43855-1.7493 0.73255 1.4136-0.33565 2.9228-0.19845 4.285 0.43855 0.7644 0.3577 1.4063 0.8036 1.9576 1.3646-0.0196-0.0147 0.1813 0.21315 0.1813 0.21315l0.049 0.0612c0.12495 0.33075 0.3283 0.61005 0.5145 0.71295l0.0833 0.0465 0.0465 0.0809c0.1274 0.22295 0.1225 0.48265 0.1176 0.71295l0.0147 0.39935-0.0221 0.1225-0.9261 2.2344-0.147 0.049c-0.43855 0.15435-0.8183 0.39445-1.2348 0.78155-0.5341 0.5488-0.93835 1.2691-1.3279 1.9649-0.30135 0.53655-0.6174 1.0952-0.99715 1.5876-0.3381 0.33565-0.68845 0.50225-1.1319 0.5635-0.36505 0.0539-0.74235 0.01-1.1074-0.0294-0.30625-0.0343-0.59535-0.0661-0.86485-0.0441-0.539-0.01-0.9947-0.2303-1.4357-0.441-0.5978-0.2891-0.98-0.45325-1.3181-0.2499l-0.0441 0.0245-0.0465 0.0122c-0.5243 0.13965-0.93835 0.2107-1.3402 0.23275-0.59535 0.027-1.154-0.0612-1.7076-0.2744-2e-3 -2e-3 -0.343-0.14945-0.343-0.14945l-0.1323-0.0686c-0.3381-0.18375-0.62475-0.4165-0.9016-0.71785l-0.0172-0.0196-0.0122-0.0196c-0.3038-0.45325-0.51205-0.94325-0.6713-1.5827-0.0907-0.38465-0.14945-0.8183-0.1813-1.3304 0-0.0147-5e-3 -1.2642-5e-3 -1.2642 2e-3 -0.0417 0.0465-0.4802 0.0465-0.4802s0.0686-0.5929 0.0931-0.83055c-0.31605-0.4214-0.7497-0.6713-1.4063-0.79135-0.0147 0-0.0735-2e-3 -0.0735-2e-3l-0.34545-0.0318c0.0172 2e-3 -0.0857-2e-3 -0.0857-2e-3l-0.931-0.0318c-0.57575-0.0196-1.1662-0.0392-1.7444-0.196-2e-3 0-0.58065-0.22785-0.58065-0.22785l-0.0588-0.0735-0.2205-0.22295c-0.4655-0.3969-0.98735-0.686-1.6023-0.87955-0.0269-0.0122-0.40425-0.1176-0.40425-0.1176l-0.26705-0.0637c0.0147 2e-3 -1.3108-0.20825-1.3108-0.20825l-0.76685-0.10045-0.0857-0.0123-1.1882-0.21805c-0.441-0.12005-0.96285-0.28175-1.4651-0.5782-0.3871-0.2499-0.6762-0.47775-0.91875-0.71785-0.2548-0.0882-0.48265-0.1372-0.7056-0.14455-0.2842-0.0122-0.51205 0.0515-0.69825 0.1911-0.38955 0.3087-0.58065 0.9996-0.784 1.7297-0.21805 0.77175-0.43855 1.5729-0.9457 2.1658 0.0245-0.0294-0.3332 0.34055-0.3332 0.34055l-0.0882 0.0784-0.0392 0.0245-0.0122 0.0147s-0.071 0.0515-0.10535 0.076c-0.84525 0.8085-1.8988 1.1882-3.0454 1.0952-0.28175-0.0294-0.7056-0.0931-1.154-0.25235l-0.11515-0.0392-0.0735-0.1274-0.47775-0.7938c-0.7154-0.9751-1.7322-1.35-2.8102-1.7444-1.3744-0.50715-2.7979-1.0314-3.5917-2.8273 0.0147 0.0245-0.0956-0.16905-0.0956-0.16905-0.2205-0.4802-0.3038-0.95795-0.3038-1.4259 0-0.7399 0.2058-1.4651 0.40915-2.1732 0 0 0.21805-0.8575 0.26215-1.0364-0.32585-0.588-0.6321-1.296-0.6321-2.1732 0-0.0735 2e-3 -0.147 5e-3 -0.2254 0.10535-0.9849 0.74235-1.8498 1.6586-2.2785l0.0539-0.0245 0.0588-5e-3c0.23765-0.0221 0.3969-0.0735 0.55125-0.17885l0.049-0.0319 5e-3 5e-3 0.5782-0.14945c0.83545-0.147 1.7076-0.0784 2.5039 0.19845-0.0343-0.0122 0.81585 0.21315 0.81585 0.21315 0.3136 0.0882 0.63945 0.17395 0.9702 0.24745-0.2793-0.17395-0.4704-0.35035-0.5831-0.539-0.85015-0.833-1.911-1.0266-3.2414-1.056l-0.76685 5e-3 -1.4332-2e-3c-0.0417-5e-3 -0.098-0.0122-0.098-0.0122s-0.61005-0.147-0.64435-0.15435c-0.48265-0.13475-0.92855-0.41895-1.2691-0.6615-0.076-0.0343-0.1764-0.076-0.1764-0.076l-0.21315-0.1029-0.294-0.2205-0.1862-0.3283 0.0711-0.5782s0.0539-0.44345 0.0563-0.46795v-0.0392c0-0.29155 0.1274-0.52675 0.3087-0.71295l-0.0147-0.49 0.0907 7e-3s0.23275-0.1274 0.31115-0.16905c0.9065-1.4553 1.911-2.9645 3.1776-4.1944l0.0196-0.0196s0.0465-0.0343 0.049-0.0343c-0.0123-0.0784-0.0269-0.1568-0.0269-0.1568-0.12495-1.1172-0.1764-2.2712-0.1764-3.3932 0-1.7714 0.12495-3.4545 0.2597-4.7898-0.16905-0.1813-0.90405-0.95795-0.90405-0.95795-5e-3 -2e-3 -3.6211-3.9053-3.6211-3.9053-0.22295-0.28665-0.33565-0.59535-0.33565-0.91385 0-0.15435 0.0269-0.3087 0.0759-0.4655 0.0245-0.0711 0.0564-0.13965 0.0882-0.2107-2.6068-4.53-4.2066-9.9054-4.5692-15.751l-2e-3 -0.0319 2e-3 -0.0269c0.0147-0.11515 0.0196-0.2205 0.0196-0.32585 0-1.2152-0.85995-1.8742-1.84-2.6288-0.97265-0.74725-2.0654-1.5852-2.0654-3.0894 0-0.0588 7e-3 -0.1225 0.01-0.18375-2.7758-1.8228-5.1328-4.7089-6.5096-7.9723-0.17885-0.0539-0.55125-0.16905-0.55125-0.16905-2.0531-0.62475-4.606-1.4014-5.1058-4.0058-0.0956-0.64435-0.14455-1.2446-0.14455-1.8032 0-1.737 0.4753-3.0478 1.4112-3.9984 0.9212-9.1458 2.7097-19.375 12.02-25.375 0.071-0.16415 2.6338-5.8261 2.6338-5.8261 2.134-4.2924 6.5954-4.2164 10.53-4.1503 0.94815 0.0171 1.8424 0.0294 2.6974-0.0122 2.0996-1.2176 4.4492-1.933 7.1858-2.1682 1.7224-0.28175 3.1924 0.1911 4.6182 0.6517 1.2618 0.4067 2.4524 0.7889 3.7656 0.61985l0.11025-0.0122 0.0931 0.0514c0.4508 0.24745 0.52185 0.65905 0.52185 1.007 0 0.0882-5e-3 0.1715-7e-3 0.24745-5e-3 0.0858-0.01 0.15925-0.01 0.22295 0 0.27195 0.0661 0.3577 0.28665 0.42385 1.2128-0.0466 2.1952 0.539 3.1482 1.105 0.97755 0.5831 1.9012 1.1319 2.967 0.92365l0.58065-0.11515-0.19845 0.55615c-0.11025 0.31115-0.1617 0.5684-0.1617 0.78645 0 0.7056 0.5243 1.0143 1.2274 1.4332 0.64925 0.37975 1.3622 0.82565 1.6856 1.6734 0.26215 0.1372 0.5684 0.1862 0.8967 0.22785 0.4753 0.0613 1.0143 0.1323 1.4602 0.5292l0.11025 0.10045v0.14945c0 1.3181-0.7546 2.232-1.492 2.9816-0.0392 2.668-1.149 4.9024-3.3148 6.6346-2.9008 2.9228-7.23 2.3765-10.297 1.6684-0.19355 0.1617-0.98 0.8232-0.98 0.8232-1.4822 1.2691-3.0184 2.5602-4.873 3.0429-1.0045 3.0331-2.5602 5.4292-4.6109 7.1516 0.82565 0.92855 1.9061 1.497 3.06 2.0776 0.66885 0.33565 1.3548 0.69335 1.9918 1.1221 12.828-6.1618 29.655-4.0646 40.28-0.36015 0.70805-0.3283 0.90405-1.0314 0.90405-1.6734 0-0.4557-0.0931-0.87465-0.1519-1.0927-0.8379-2.0114-2.6313-2.2883-4.5276-2.5774-1.2078-0.18865-2.4549-0.3773-3.4986-1.0388l-0.0343-0.0196-0.0269-0.0294c-1.2103-1.252-2.7758-1.6194-4.437-2.0066-1.644-0.3822-3.3442-0.7791-4.6942-2.1021-0.9457-1.154-1.1098-2.5529-1.2691-3.9078-0.0857-0.72275-0.17395-1.47-0.37975-2.1462-0.2009-0.5488-0.30135-0.99225-0.30135-1.3475 0-0.31605 0.0784-0.56105 0.24255-0.75215 0.441-0.5243 1.3034-0.36505 2.2099-0.19845 0.82075 0.1519 1.7468 0.3234 2.1805-0.0637 1.078-1.1858 2.1903-0.784 3.1703-0.42875 0.7546 0.2744 1.4651 0.52675 2.2638 0.21805 0.8673-0.686 1.884-0.57575 2.7856-0.4704 0.7203 0.0833 1.399 0.13965 1.9968-0.1519-0.11515-0.3871-0.2891-0.76685-0.47775-1.1344l-0.3528-0.7301 0.0171-0.0833c0.0172-0.147 0.0245-0.294 0.0245-0.43365 0-0.99225-0.3822-1.8571-0.78155-2.7636s-0.81095-1.835-0.81095-2.8959c0-0.26215 0.0269-0.53655 0.0857-0.82075l0.0514-0.2499 0.25235-0.0147c0.49735-0.0392 0.91385 0.15435 1.2838 0.32585 0.5586 0.25725 0.81585 0.3577 1.176-5e-3l0.0564-0.0564 0.071-0.0245c1.0437-0.3675 0.96285-1.0608 0.7301-2.254l-0.0735-0.3675 0.0269-0.0808c0.13965-0.43365 0.3479-0.71295 0.6419-0.85015 0.4655-0.2156 0.98245 5e-3 1.4822 0.21315 0.37975 0.1617 0.77175 0.3234 1.0854 0.2744 0.5537-0.7252 1.5018-0.87465 2.3594-0.98735 0.6615-0.0858 1.2838-0.16415 1.5141-0.49735 0.0735-0.11025 0.11515-0.26215 0.11515-0.4508 0-0.14945-0.0245-0.3185-0.071-0.5096l-0.0368-0.1519 0.0907-0.1274c0.49245-0.6811 1.1392-0.5243 1.6121-0.4116 0.25725 0.0637 0.50225 0.1176 0.7056 0.0637 3.506-2.0506 7.5044-0.79135 11.035 0.3234 0 0 1.688 0.5145 1.8081 0.55125 6.2304-1.1686 13.409 1.1564 15.207 7.8866 8.6216 10.263 14.132 19.245 17.329 28.251l-0.022-0.049c0.392 0.7301 0.54145 1.6096 0.68355 2.4574 0.2058 1.2274 0.41405 2.3814 1.3132 2.9155 3.2928-2.3275 8.0948-5.0054 12.689-2.6778 1.9306-1.1515 3.0086-3.3222 3.577-4.9637l0.01-0.0269 0.0147-0.0269c0.294-0.53165 0.441-0.9751 0.441-1.3304 0-0.1274-0.0172-0.245-0.0564-0.3479-0.2058-0.55615-0.9898-0.84525-1.8179-1.1466-0.91875-0.3332-1.8718-0.6811-2.2908-1.4945-0.74235-1.4602-2.0041-1.8742-3.3394-2.3152-1.3206-0.43855-2.6852-0.88935-3.6162-2.3496-1.35-1.5337-1.225-3.4545-1.1025-5.314 0.0588-0.9065 0.1176-1.84-2e-3 -2.695l-0.0171-0.1176 0.0612-0.1029c0.90405-1.5092 2.2344-1.3304 3.5182-1.154 0.83545 0.1127 1.7003 0.22295 2.499-0.098 0.38955-0.41895 0.90405-0.6321 1.4553-0.55125l0.12495 0.0196 0.0808 0.0931c0.8477 0.98735 1.7983 0.637 3.1532-0.01l1.0976-0.46795c0.77665-0.1715 1.5116-0.0539 2.2246 0.0613 1.0902 0.17885 1.786 0.25725 2.3054-0.33565l0.0441-0.049 0.0588-0.0318c0.76195-0.37975 1.2152 0.14455 1.519 0.49245 0.13965 0.16415 0.27685 0.30625 0.40425 0.35035 1.4626-0.68845 3.6358-1.3696 5.9535-0.86975l0.0857 0.0196 0.0686 0.0613c1.3058 1.1882 3.1188 1.2078 5.0421 1.2348 2.3202 0.0269 4.7236 0.0588 6.2279 2.2662 1.2862 1.9061 1.5166 5.0004 0.55125 7.3476" fill="#13284c"/>
    <path d="m236.21 537.56c-0.50204-2e-3 -1.0147-0.0283-1.5381-0.082 0.99469-1.323 1.7961-2.7228 2.5679-4.0898 0 0 1.1466-1.9593 1.2642-2.1577 0 0 0.10481-0.0317 0.15381-0.0439 1.9918-0.35035 4.0991-0.78003 6.0615-1.8237l0.0322-0.019 0.0293-0.0278c0.2303-0.19845 0.29883-0.40802 0.29883-0.59912 0-0.17885-0.0614-0.34141-0.10547-0.45411l-0.0542-0.17285-0.0293-0.11133-0.0293-0.041c-0.60515-0.8771-1.5093-1.9748-2.0508-2.6265 0 0-0.34323-0.42134-0.35303-0.43359l-0.44092-0.4292-0.15088-0.13769s1e-3 8e-3 4e-3 0.0132c-0.076-0.12495-0.20606-0.22136-0.34571-0.31201 0 0-0.0292-0.0213-0.0586-0.041 0-2e-3 -7e-3 -0.0176-7e-3 -0.0176l-0.60205-0.42187-0.14942-0.085 0.12451 0.13037-0.24463-0.20361 0.1084 0.0542-0.0205-0.0132s-0.14007-0.0825-0.15967-0.0923c0 0-0.0438-0.0613-0.0879-0.12012 7e-3 -0.2254 0.15183-5.0202 0.15673-5.1035 0.51205-1.4847 0.90003-3.0069 1.1426-4.5234 0.1519-1.0486 0.22559-2.0499 0.22559-2.9956 0-1.2201-0.12609-2.3523-0.37354-3.3838-0.2156-0.9408-0.56767-1.8378-1.043-2.7026-0.5145-0.8085-1.0886-1.5155-1.7109-2.1035-1.3475-1.3058-2.9026-2.0662-4.5073-2.2646 0.0147-0.0539 0.059-0.25481 0.0615-0.27686 0.20825-1.1711 0.46289-2.5649 0.46289-3.9565 0-0.39935-0.0248-0.80185-0.0688-1.1938-0.0613-0.73255-0.24261-1.4696-0.53906-2.1973l-0.0659-0.24024-0.74414 0.0791-0.1377 0.0249-0.0395 6e-3 -0.26367 0.0747-0.30762 0.0894c-0.8477 0.2793-1.6072 0.72355-2.3569 1.1646l-0.0776 0.0513s-0.5116 0.33244-0.54345 0.35449l-0.0425 0.0308-0.38965 0.26368s-0.17057 0.12281-0.26367 0.18896l-1.9292-2.918c0.0196-0.049 0.0497-0.0936 0.0644-0.14502 0.2303-0.686 0.0948-1.6504-0.33399-2.3438 4.2287 0.8281 7.9849-1.0865 9.3692-5.2368 1.5361-4.6084 0.0123-9.5984-4.7651-11.196-4.7848-1.5949-9.9717 0.98971-11.508 5.5957-1.4455 4.3316 0.46572 8.3638 4.6699 10.157-0.57575 0.27195-1.0835 0.79692-1.3652 1.3433l-3.687 0.75879c-0.10535-0.75215-0.24956-1.531-0.51416-2.2954-0.2401-0.71049-0.60091-1.3491-1.0664-1.9028l6e-3 1e-3 -0.0366-0.0513c0.0122 0.0147 0.0186 0.0336 0.0308 0.0483-7e-3 -0.01-0.21534-0.2666-0.21534-0.2666l-0.11425-0.14649-0.22852 0.0835c-0.46795 0.16905-0.86406 0.38408-1.1997 0.58008 0 0-1.0668 0.75386-1.084 0.76611l-1.0796 0.99609s-0.0492 0.0439-0.0615 0.0586l-0.51416 0.5581s-0.51504 0.55654-0.54199 0.58594l-0.37793 0.44238s-0.18058 0.20397-0.20508 0.24317l-0.0513 0.0659s-0.0205 0.0302-0.0278 0.0425c-0.7644-5e-3 -1.5528 0.0606-2.3613 0.19043-0.61494 0.12249-1.3378 0.28236-2.0508 0.52001-0.94325 0.3577-1.6727 0.81836-2.2778 1.377-1.568-0.93345-3.5644-1.2572-5.5342-0.87744-0.4753 0.0931-0.90732 0.21575-1.2993 0.375-0.75705 0.3528-1.475 0.82009-2.2002 1.4399-2.3446 2.0825-4.0131 5.4567-4.459 9.0264l-0.0103 0.0762 0.0249 0.0762c0.0735 0.2205 0.0864 0.45999 0.10108 0.72949v0.1084c0 1.078-0.54241 1.9611-1.1206 2.8945-0.4851 0.7889-0.97438 1.6103-1.1777 2.5928-0.15925 0.0367-0.79102 0.19043-0.79102 0.19043l-1.0195 0.22559c-1.0608 0.22785-2.1567 0.46561-3.1465 0.94336-2.5896-5.096-3.8805-10.985-4.2627-16.838-0.52185-2.2442-3.1214-2.0243-3.0454-4.5674 4.3806-6.958 11.256-12.85 17.908-17.275 3.3418-1.1221 3.1916 3.5166 5.644 4.4868 2.1536-0.6713-0.29678-2.3923 0.37207-3.5903 18.353-7.2544 43.985-3.7379 54.91 12.716-0.7448 2.6166-4.4555 0.97271-4.6025 3.7412 2.0041 1.0486 3.4881-2.2442 5.3452-1.7959 0.22294 4.192 2.3277 8.0451 4.1089 11.487 4.0866 6.3577 10.201 11.816 17.632 12.637-0.74725 2.2442-2.4204 3.7028-4.6524 4.0752-3.1213 7.3328-10.031 14.589-17.609 17.058-7.6371-0.20901-12.92 5.1605-20.451 5.124zm-20.092-18.101c-0.46328-2e-3 -0.93883-0.13612-1.3945-0.28125 0 0-0.38241-0.10291-0.49511-0.13476 5e-3 -0.01 0.0205-0.0337 0.0205-0.0337 0.48265-0.82075 1.0181-1.7357 1.0181-2.6177 0-0.14945-0.0135-0.29538-0.0454-0.44238l-0.10107-0.43946-0.14649 0.42627c-0.12005 0.35035-0.29262 0.69356-0.53027 1.0562-0.2156 0.38465-0.50856 0.77465-0.85401 1.125-0.343 0.3675-0.76779 0.2913-1.2627 0.208 0 0-0.31633-0.0488-0.33838-0.0513-0.14945-0.0172-0.31488-0.025-0.47168 1e-3 -0.0637-0.0392-0.36621-0.22266-0.36621-0.22266l-0.271-0.16113c-0.56595-0.38955-0.94069-0.78417-1.144-1.2056-0.076-0.1715-0.15234-0.4189-0.15234-0.71045 0-0.098 0.0126-0.20421 0.0322-0.31201 1.0388-1.2568 1.1016-2.722 1.1016-4.1528v-0.53906c0-0.9408 0.0253-1.9026 0.32667-2.814 0.23029-0.75215 0.66665-1.7009 1.4604-2.0537 0.2499 0.4263 0.39164 0.92893 0.52149 1.4238l0.24023 0.81738c0.12005 0.34055 0.30153 0.78468 0.64453 1.2012l0.0337 0.063 0.0762-0.0161s0.41649-0.0991 0.41894-0.0967c0.54145-0.1715 0.91427-0.67261 1.2744-1.1602 0.1666-0.22785 0.35041-0.45143 0.53906-0.65478 0.0172 0.31605 0.0366 0.82031 0.0366 0.82031s0.0703 1.3086 0.0703 1.3184c0.0907 0.44835 0.2031 0.79632 0.3501 1.0928l0.0322 0.0513s0.15429 0.04 0.15674 0.0425c0.55125 0.12985 0.91865-0.2526 1.2788-0.62255 0.1519-0.1568 0.31337-0.30087 0.48487-0.41602-0.0294 0.16905-0.063 0.34221-0.063 0.50391 0 0.30625 0.0369 0.58516 0.0835 0.80566 0.1127 0.4361 0.27853 0.89923 0.49658 1.3696l0.0615 0.0791 0.0806-1e-3c0.3136 0 0.5768-0.0968 0.81445-0.23145-0.7448 1.0608-1.1428 2.2498-1.5102 3.416-0.2891 0.9016-0.58528 1.835-1.0532 2.6704 0 0-0.34214 0.58714-0.38379 0.66064-0.20334 0.0759-0.40061 0.14835-0.61376 0.17285-0.15068 0.0331-0.30261 0.0461-0.45704 0.0454zm10.301-24.492c-0.19845-0.0857-0.40915-0.17381-0.41895-0.17871 0 0-1.749-0.70118-1.7417-0.69873 0 0-0.77099-0.29297-0.77344-0.29297l-1.8501-0.58886-0.61231-0.16407s-0.0737-0.019-0.0688-0.019c-0.1617-0.0441-0.33046-0.0804-0.49951-0.11719l2.9048-0.96826c0.2597 0.3626 0.638 0.65912 1.106 0.81592 0.30135 0.10045 0.60494 0.12997 0.89649 0.10547zm-6.6006-2.1797c-0.01-2e-3 -0.023-5e-3 -0.0352-7e-3 -0.0269-0.2303-0.0606-0.53658-0.063-0.54638z" fill="#c41230"/>
    <path d="m253.88 502.63 4.5962-4.2875 7.9674 8.5407s-2.6313 2.4549-3.2512 3.0331c0.35035 0.37485 1.1809 1.2666 1.1809 1.2666s-3.6162 3.3761-4.3855 4.094c0.68355 0.51205 2.1878 1.644 2.4182 1.813 0.20335 0.0441 0.34055 0.1715 0.36015 0.19845 0.0759 0.1029 0.1372 0.1862 0.1372 0.3038 0 0.441-0.882 1.3598-5.2332 5.5052-2e-3 2e-3 -1.9134 1.8032-1.9134 1.8032l-11.978-12.84 5.145-4.8094s0.7693 0.82565 1.0927 1.1736c0.6468-0.60515 4.3071-4.018 4.9564-4.6207-0.3234-0.3479-1.0927-1.1736-1.0927-1.1736" fill="#13284c"/>
    <path d="m249.96 509.99 6.5782-6.1348s-0.7693-0.8232-1.0927-1.1686c0.56595-0.53165 2.4084-2.2466 2.9743-2.7758 0.6419 0.686 5.8163 6.2328 6.4606 6.9188-0.6223 0.58065-3.2512 3.0331-3.2512 3.0331s0.83055 0.8918 1.1784 1.2691c-0.66885 0.6223-4.5423 4.236-4.5423 4.236s2.6019 1.9526 3.2193 2.4182c-0.77665 0.8379-2.7391 2.7587-4.5742 4.508 0 0-0.66885 0.62965-1.1025 1.0388-0.686-0.73255-9.7853-10.488-10.464-11.219 0.5978-0.5586 2.9278-2.7366 3.528-3.2952 0.32095 0.34545 1.0878 1.1711 1.0878 1.1711" fill="#fff"/>
    <path d="m223.03 555.59c-0.78174 0.13127-1.6058-0.26771-2.3555-0.47168l1.3037-1.7183-0.10986-0.11279c-1.2201 0.5488-2.1764 1.5947-3.5215 1.8838-0.1225 0.022-0.27195 0.0693-0.41895 0.0864-0.47285-0.12985-0.8135-0.33409-1.0854-0.58154-0.14945-0.17885-0.24421-0.34743-0.36181-0.55078-0.5586-1.2862 0.0616-3.3054-0.37207-4.6406-0.0564-0.2156-0.11736-0.4007-0.20801-0.5918-0.0808-0.2254-0.19626-0.42416-0.34571-0.60791-0.0588-0.1029-0.14316-0.21151-0.25341-0.32666-0.0637-0.0735-0.13443-0.1213-0.22998-0.20215-0.4606-0.37975-1.0602-0.57085-1.7314-0.6958-0.1372-0.01-0.27679-0.0175-0.43359-0.0615-0.2499-0.01-0.52922-0.0297-0.83057-0.0542-0.61495-0.0245-1.2551-0.0558-1.8823-0.13916-0.2695-0.0441-0.54059-0.0891-0.80274-0.1626-0.62475-0.196-1.2205-0.49952-1.6934-1.0532l-0.0396-0.0688-0.63867-0.14356-2.102-0.37353-1.2407-0.21826-0.91553-0.16407c-0.17395-0.076-0.3314-0.11397-0.5127-0.19482-0.32585-0.14455-0.66617-0.35092-1.0386-0.53467-0.2499-0.1274-0.50399-0.2228-0.75879-0.3208-0.1813-0.076-0.36367-0.12494-0.53027-0.14209-0.1029-0.0294-0.18133-0.0512-0.26953-0.0439-0.20825-2e-3 -0.51965 0.0436-0.76465 0.13183l-4e-3 -1e-3v1e-3c-0.0171 7e-3 -0.0415 0.0104-0.0586 0.0176l-4e-3 0.0293c-0.13965 0.0466-0.26318 0.12513-0.40283 0.22558-0.0735 0.0637-0.15595 0.1534-0.2417 0.271-1.5876 1.3034-1.7055 4.3932-3.6753 4.9102-0.30625 0.0906-0.68117 0.13002-1.0928 0.0762-0.25725-0.098-0.47823-0.21825-0.69873-0.36035-1.4945-0.9457-1.8514-2.8831-2.5913-4.3359-0.56595 0.84035 0.0901 1.6702 0.16113 2.5693-2.1854-0.0539-2.5604-1.0894-2.477-2.4565 0.0931-1.7346 0.94322-3.9771-0.26953-5.354-0.0441-0.0392-0.10971-0.11461-0.15381-0.15381 0.0808-0.2058 0.22219-0.42325 0.35449-0.5874 0.2646-0.26705 0.59326-0.43401 1.0122-0.31641 2.3324 0.0294 4.3984 2.3523 5.3906 4.2363h-1e-3c0.0686 0.1617 0.098 0.36743 0.12744 0.57568 0.0539 0.3283 0.0766 0.67054 0.11572 1.0503 0.049 0.6664 0.0687 1.326 0.375 1.6641 0.2891-0.54635 0.56047-1.1541 0.72217-1.7666 0.26215-0.97755 0.28711-2.0215-0.13184-2.9868 0.76195-1.3842 0.79616-2.7904 0.58301-4.2114-0.28665-2.205-1.1533-4.4596-0.59472-6.6621 0.4165-1.2495 1.484-0.70717 2.4346-0.24902 0.39935 0.196 0.78205 0.35242 1.1104 0.38672l-0.62988 1.6172c-0.14945 0.8967-0.11034 1.7878 0.16406 2.5693 0.2597 0.6125 0.64726 1.1669 1.2598 1.6201-0.6125-0.1372-1.0099 0.40926-1.2378 0.94336 0.46305 0.49245 1.0389 0.64973 1.6465 0.69873 0.13965 0.0122 0.27988 0.0195 0.39258 0.022 0.25725-0.0147 0.50703-2e-3 0.73242 0 0.1911 0.0221 0.36224 0.0141 0.52149 0.0557 0.11025 2e-3 0.22967-0.024 0.31787-0.0264 0.34055-0.0196 0.64461-0.10852 0.89941-0.21387 0.6076-0.25725 1.0913-0.69831 1.5176-1.2349 0.7791-0.92365 1.4326-2.1092 2.2852-2.8711 0.0343-0.0172 0.0341-0.0167 0.0586-0.0117 0.392-0.0931 0.82809-0.14723 1.2568-0.0615 0.5145 0.0882 1.0123 0.3334 1.4018 0.7793 0.19355 0.22295 0.32252 0.48439 0.39112 0.75879 0.2107 0.6811 0.0939 1.4461-0.0776 2.1958 0.0784 0.0196 0.15949 0.039 0.21094 0.0586 1.5925 0.4851 0.42368-2.0182 1.7197-2.5474 0.30625-0.0882 0.65211-0.22063 0.99756-0.24023 0.29155-0.0343 0.56845-0.0145 0.82325 0.0835 0.25725 0.0956 0.48134 0.29865 0.65039 0.62695 0.1519 0.8085 0.28172 1.6943 0.42627 2.5298 0.12985 0.57085 0.23279 1.1393 0.40429 1.6685 0.10045 0.2548 0.18136 0.47775 0.26221 0.6958 0.34055 0.7448 0.76046 1.3964 1.3975 1.9673 0.0735 0.0466 0.14186 0.0989 0.20801 0.16992 0.0147 7e-3 0.0215 7e-3 0.0264 7e-3 0.098 0.0563 0.19401 0.11203 0.28711 0.19043 0.14454 0.098 0.28608 0.19116 0.43798 0.26221 0.59045 0.3283 1.2082 0.55106 1.8501 0.47021 0.19355-2e-3 0.37784-0.0392 0.54199-0.13477 0.0613-0.01 0.11991-0.0244 0.17871-0.0366-0.022-0.12005-0.0546-0.2155-0.0864-0.30615-0.049-0.245-0.15428-0.47093-0.29883-0.68408l-1e-3 0.0146c-0.098-0.1519-0.24521-0.34534-0.36036-0.44824 0.1715-0.12495 0.37292-0.23932 0.54932-0.36182 0.2303-0.13475 0.4383-0.27917 0.62695-0.45557 1.1196-0.9163 2.0185-2.173 2.3174-3.5156 0.071 0.0466 0.14473 0.0971 0.22558 0.11426 0.71295 0.392 1.5232 0.41382 2.2852 0.61962-0.1421 1.1834-0.34654 2.3775-1.084 3.3428-0.11515 0.11025-0.20125 0.22714-0.3164 0.33984-1.1098 1.203-2.1031 2.4947-3.0586 3.8569-0.8673 1.2397-1.7194 2.5405-2.6455 3.7925-0.0956 0.147-0.18863 0.29197-0.28418 0.43652-0.0784 0.29155-0.12944 0.7028-0.11719 1.0752 0.0343 0.29155 0.12957 0.57595 0.35742 0.7793 0.441-0.59045 0.94744-1.0239 1.4546-1.4502 0.60515-0.46305 1.2017-0.89716 1.7578-1.4019 1.421-0.89425 3.4179-0.97551 4.9614-0.30176 0.3724 0.18375 0.71272 0.39168 1.0386 0.64893 0.4165 0.45325 0.48262 1.4654 0.14942 1.9995-0.8428 0.5096-1.723 1.2641-2.458 2.1167-0.59535 0.74725-1.1152 1.5436-1.4165 2.3423-0.24684 0.18865-0.50261 0.2917-0.76319 0.33545zm10.424-9.6973c-0.7154-0.2793-1.4895-0.54927-2.2588-0.84082-0.51205-0.196-1.0198-0.41701-1.5073-0.69141-0.2156-0.1029-0.41335-0.2281-0.6167-0.3457-0.4851-0.29645-0.98054-0.66095-1.3799-0.9917-0.52185-0.47285-1.0002-1.0217-1.3506-1.6685 0.6076-1.3402 1.6322-2.8521 2.9209-3.668 0.1176-0.0686 0.2325-0.13211 0.3501-0.19336 0.45814-0.20335 0.96777-0.36711 1.3843-0.38671 0.17395 0.1911 0.3164 0.39622 0.4585 0.60937 0.4704 0.6664 0.83547 1.4162 1.1074 2.2002 0.66395 1.8522 0.84799 3.9186 0.89209 5.9766zm-34.576-2.3584 4e-3 -0.0161h6e-3l0.0205 7e-3c-0.01 2e-3 -0.0161 9e-3 -0.0308 9e-3zm19.484-2.8345c-0.10044-0.0564-0.17549-0.0761-0.25634-0.0981-0.14945-0.0711-0.29491-0.16617-0.43946-0.25927-0.098-0.0563-0.19499-0.11251-0.28564-0.19336-0.0637-0.0735-0.13054-0.15012-0.22119-0.22852-0.833-0.90895-0.83311-2.2705-0.94336-3.6621-5e-3 -0.39935-0.046-0.77889-0.13916-1.1733-0.0172-0.14455-0.0566-0.32918-0.0762-0.44678l0.20068-0.0293 0.0791 0.0205-0.11865 0.87598c0.0245 0.1176 0.0985 0.27983 0.14502 0.40723 0.3626 0.55125 1.029 0.9037 1.6685 0.9331 0.11515 2e-3 0.20136-2e-3 0.28711-7e-3 0.0588-0.0122 0.0834-1e-3 0.11279 3e-3 0.098-0.0588 0.20482-0.14431 0.27832-0.20801 0.6713-0.4998 1.0215-1.3977 0.60498-2.1621l0.43213 0.17285 0.88623 0.38379c0.343 0.4018 0.50706 0.95555 0.58301 1.519 0.0661 0.3871 0.0716 0.78364 0.10107 1.2173-0.16415 0.60515-0.45804 1.1819-0.86719 1.667-0.5145 0.6566-1.2036 1.1265-2.0317 1.2686zm14.571-3.7778c-0.196-0.42139-0.61031-0.67664-1.0415-0.84814-0.1078-0.0294-0.20959-0.0595-0.31494-0.0864 0.245-0.92609 0.62495-1.8197 1.0562-2.6968 0.5684-1.0927 1.1705-2.1775 1.5674-3.3486 0.25235 0.1274 0.54927 0.37647 0.84082 0.65332 0.4704 0.3528 0.99112 0.72103 1.5718 0.76758l-3.145 5.3628-0.0542-0.0132zm-6.9639-0.64599c-0.83178 0.0273-1.6906-0.10564-2.4844-0.40576-0.5145-0.196-0.97745-0.46411-1.4209-0.81446-0.0269-5e-3 -0.0448-0.0395-0.0718-0.0469l0.10107-0.0586 0.44238-0.0776c0.46795-0.3822 1.4996-0.87007 1.1836-1.5806-0.4067 0.25725-0.84455 0.42367-1.3125 0.47022-0.1519 0.0417-0.3245 0.0522-0.52295 0.0571-0.6272 0.0269-1.3075-0.0717-1.9102-0.23584-0.12985-0.0343-0.27151-0.0433-0.40136-0.0776 0.147-0.0196 0.29048-0.0379 0.44238-0.082 0.8477-0.11025 1.6692-0.54087 2.2793-1.1411 0.3038-0.28909 0.55397-0.58864 0.75732-0.93164l4e-3 -0.0264c0.67375 0.12495 1.2523-0.0292 1.7227-0.32813 1.4186-0.8673 2.3569-2.9105 3.7632-3.6357 0.24745-0.18865 0.5732-0.78209 0.0293-0.96094-0.2548 0.2156-0.45853 0.33385-0.72803 0.5127-1.1074-0.2989-1.8759 1.1123-2.4639 1.9453l-0.0908 0.32373c-0.4606 0.6223-1.258 0.85276-1.9072 0.92871-0.1813 0.0367-0.35142 0.0464-0.53027 0.0806-0.6027 0.147-1.1624 0.44991-1.3608 1.5059-0.35525 0.27195-0.73194 0.42646-1.1484 0.50976-0.147 0.0196-0.31816 0.0273-0.51416 0.0322-0.0882 5e-3 -0.20118 2e-3 -0.33838-7e-3 -0.0808-0.0196-0.16418-0.0164-0.26953-0.041-0.6076-0.0514-1.2323-0.25021-1.8325-0.33106-0.0539-0.0122-0.10526-0.024-0.16406-0.0117 0.0588-0.0122 0.11746-0.0244 0.17871-0.0366 0.84525-0.1127 1.5462-0.40561 2.1489-0.86866 0.1323-0.0735 0.24374-0.18858 0.35889-0.29883 0.17395-0.12495 0.32377-0.25479 0.45117-0.41894 0.2744-0.294 0.5241-0.59405 0.7544-0.92725 1.1638-1.6194 1.963-3.671 2.8989-5.1753 1.2764-2.6656 1.6659-5.6256 2.6851-8.3892 0.33565-0.84525 0.70395-1.6828 1.1646-2.4668 0.10045-0.16905 0.19537-0.31543 0.31787-0.45263 2.0262-2.744 2.6678-5.8901 3.5449-8.9722 0.1078-0.19845 0.26218-0.3555 0.41163-0.4878 0.64925-0.53164 1.5284-0.66336 2.3467-0.44531 1.3401 0.36505 2.5123 1.1664 3.4482 2.1856 0.65905 0.71785 1.1994 1.5448 1.5644 2.4097 0.3528 0.77665 0.56603 1.5727 0.67383 2.4228 0.0221 0.46305 8e-3 0.93923-6e-3 1.4194-0.0245 2.6313-0.5105 5.3115-1.9731 7.4136-0.57085 0.86975-1.335 1.6242-2.2954 2.2734-0.11025 0.0882-0.2423 0.16426-0.3501 0.24756-0.735 0.96285-2.0073 1.9269-2.7202 3.0073-0.3528 0.588-0.57546 1.211-0.49951 1.8823 0.0221 0.0343 0.0126 0.0584 0.0322 0.0952 1.0731-0.22295 1.0354-1.4545 1.648-2.165-0.294 3.6382-1.1267 7.6135-3.8438 10.198-0.539 0.53655-1.1718 1.0157-1.875 1.4224-0.68355 0.34055-1.4871 0.52792-2.3188 0.55518zm-24.27-0.59473c-0.1764 0.0368-0.37524 0.0383-0.58594-0.0205-0.0441-0.0417-0.0707-0.0463-0.11719-0.0879-0.098-0.0563-0.22224-0.1149-0.33984-0.208-0.85505-0.71295-1.1987-1.8517-1.0811-2.9297 0.2254-0.8477 0.66638-2.1768 1.8179-2.1768 0.2744-0.0711 0.50539-0.0894 0.64014-0.0527 0.1813 0.0515 0.27324 0.12708 0.32959 0.22998 0.26215 0.49735-0.24168 1.5512 0.16992 2.1196 0.0833 0.1078 0.17575 0.18529 0.3252 0.25634 0.1421 7e-3 0.29253 0.0784 0.41748 0.14209 0.27685 0.1323 0.51374 0.27984 0.77344 0.26514 0.16415 0.0172 0.35339-0.0475 0.52734-0.16992l-0.81152 1.2305-0.26953 0.49511c-0.28665 0.12005-0.53362 0.30799-0.83497 0.48194-0.30625 0.2009-0.60078 0.3464-0.96093 0.4248zm15.234-2.1255c-0.14455 0.0147-0.28409 0.01-0.44824-7e-3 -0.13965-0.01-0.30127-0.0249-0.44092-0.0322l-0.29883-0.36621c-0.66885 0.076-1.3009 0.12893-1.9526 0.12158-0.2597 0.0172-0.53508 6.4e-4 -0.83643-0.0264-0.39935-0.0196-0.79061-0.0711-1.1851-0.13477 0.4067 0 0.83749 6e-3 1.2319-0.0498 0.3185-0.027 0.61084-0.0612 0.88769-0.15674 0.7252-0.17395 1.3589-0.53953 1.9028-1.103 0.0637 0.0735 0.15691 0.15498 0.24756 0.23584 0.2303 0.20579 0.46841 0.35779 0.70606 0.53174 0.14945 0.0711 0.27106 0.13298 0.39111 0.22119 0.57575 0.26949 1.1717 0.45959 1.7695 0.5625 0.11025 2e-3 0.18818 0.025 0.27393 0.0176-0.0907 0.0319-0.17833 0.0391-0.28858 0.0366-0.63455 0.0539-1.3107 0.15675-1.96 0.14941zm-26.795-0.30322c-0.34024-0.0164-0.68348-0.0455-1.0283-0.0762-0.74725-0.0563-1.518-0.12434-2.2456-0.0337l-0.57129-0.18897-0.92138-0.25049c0.44345-0.92854 1.0456-1.8155 1.6875-2.6338 1.0854-1.323 2.3815-2.477 3.7266-3.1948 0.10045-0.0539 0.20075-0.11418 0.3208-0.13623 1.7542 1.2397 2.4998 3.8554 1.9951 5.9575-0.94631 0.53471-1.9426 0.60591-2.9634 0.55664zm21.583-0.14209c-0.21805-0.0294-0.42835-0.0878-0.6709-0.12451 0.24255 0.0441 0.48159 0.0853 0.71924 0.12451zm-0.6709-0.12451c-0.2107-0.0564-0.4479-0.12087-0.68555-0.18457-0.68355-0.1862-1.3483-0.45358-2.0024-0.74268-0.37485-0.1862-0.74669-0.36973-1.1338-0.61963-0.4459-0.23275-0.87448-0.51843-1.3008-0.83203-0.32585-0.2597-0.6512-0.52058-0.97705-0.77783-0.1813-0.1617-0.36567-0.3271-0.52002-0.479l-0.21826 0.28125c-0.0245-0.01-0.0244-0.0104-0.0513-0.0176-0.24255-0.0343-0.51364-0.0813-0.80274-0.15967-0.20824-0.0539-0.44693-0.11882-0.67968-0.20947-0.0956-0.0539-0.22563-0.0915-0.35303-0.15527-0.80605-0.3577-1.538-0.89609-2.1211-1.5674-0.2597-0.294-0.47983-0.63789-0.66358-1.0005-0.1078 0.6223 0.17587 1.2404 0.43067 1.875 0.13475 0.2352 0.21108 0.48202 0.30908 0.73682-0.17395 0.0392-0.34855 0.0499-0.5127 0.0352-0.33565-7e-3 -0.66556-0.15468-1.0723-7e-3 -0.245-0.1274-0.46894-0.24275-0.69434-0.36035-1.2274-0.67375-2.3958-1.5854-3.1626-2.8447-1.1662-2.0751-1.8807-4.9075-1.7827-7.6025 0.0808-1.6832 0.45038-3.2878 1.2319-4.6377 0.1029-0.1715 0.19782-0.31544 0.31787-0.45264 1.0118 1.0731 0.91379 2.7171 1.9673 3.7412 0.5243-0.1715 0.42631-0.76434 0.55371-1.1294-0.8477-1.3671-1.597-2.9016-2.2119-4.5161-0.73255-2.0164-1.2247-4.1912-1.188-6.3398 0.0318-1.9184 0.47696-3.8152 1.4766-5.562 0.049-0.0686 0.0882-0.11458 0.12744-0.16113 0.9996-1.6317 2.2984-3.0111 3.8247-3.876 1.4553-0.7987 3.1068-1.1734 4.9468-0.87451-1.9254 2.457-2.6476 5.7004-1.585 8.8213 0.9212 1.301 1.2228 2.6026 1.1982 3.9624-0.01 3.0037-1.6716 6.0765-1.5982 9.1904 0.1813 1.0143 0.20129 2.0948 0.16699 3.1948-0.0392 2.374-0.25801 4.7811 0.77344 6.6211 0.1029 0.14455 0.20578 0.28763 0.28418 0.41748 0.15925 0.245 0.36064 0.4411 0.55664 0.6665 0.22785 0.20335 0.46598 0.37976 0.69873 0.55371 0.1176 0.0906 0.24217 0.15201 0.38672 0.24756-0.13965-7e-3 -0.27972-0.0185-0.43652-0.0601-0.25235-0.0147-0.51854-0.0557-0.80274-0.16113-0.20335-0.0833-0.4309-0.17372-0.6416-0.34277-0.0637-0.076-0.16284-0.13012-0.23144-0.20362-0.0417-0.0417-0.0707-0.0512-0.0879-0.0806-0.5733-0.4998-0.94332-1.3357-0.81592-2.2398-0.3577-0.2401-0.65828-0.48772-0.91553-0.78662-0.6125-0.6762-0.9541-1.5062-1.2334-2.376-0.4263-1.3646-0.68523-2.8268-1.6113-3.9023l-0.23584 0.24902c1.1294 1.5852-0.22982 3.9425 1.1177 5.4419 0.0735 0.049 0.14431 0.0955 0.20801 0.17139 0.6076 0.47284 1.049 1.0486 1.4238 1.6611 0.5831 0.8673 1.0701 1.7953 1.8296 2.6528 0.0906 0.0809 0.18173 0.16416 0.29443 0.27686 0 0 0.0249 6e-3 0.0176 0.0351 0.20335 0.196 0.41777 0.33799 0.61377 0.44824 0.24255 0.15435 0.49858 0.24976 0.76318 0.32081 0.294 0.0539 0.57087 0.068 0.83057 0.0557 0.42385 0 0.8394-0.0879 1.2436-0.22998 0.0294 5e-3 0.0297 5e-3 0.0542 0.0117 0.2695 0.5831 0.63041 1.138 1.0371 1.6157 0.32585 0.3724 0.66322 0.69045 1.043 0.9624 0.61005 0.4508 1.2471 0.82103 1.9233 1.0342 0.2303 0.0907 0.46752 0.15459 0.67822 0.21094zm1.415-1.5308c-0.33351 6e-3 -0.66732-0.0118-0.99317-0.0571-0.21805-0.0294-0.46353-0.0696-0.69873-0.1333-0.7007-0.21805-1.3571-0.62224-1.8618-1.2715l7e-3 -0.0249c0.6566 0.1764 1.3198 0.44201 2.0156 0.68701 0.2303 0.0906 0.4602 0.18144 0.6709 0.24024 0.62474 0.19845 1.2566 0.36661 1.8691 0.39111 0.11515 2e-3 0.21835 0.0303 0.33105 0.0352-0.1123-5e-3 -0.23298 0.0195-0.3501 0.0439-0.32462 0.0539-0.65673 0.0835-0.99023 0.0894zm72.479-0.20362c-0.69671 0.0187-1.3472-0.13156-1.7563-0.76611-0.51695-1.1246 0.22426-2.0188 0.74121-2.918 0.6713-0.7497 1.9315-0.37496 2.6763-0.52441-0.5194-1.1221-2.1565-2.0184-1.2598-3.5889 1.6317-1.051 3.4161-1.8719 5.1973-2.4697 1.4112 1.7958 1.7856 4.4883 0.6709 6.583-0.88935 1.7199-2.6022 2.8417-4.2363 3.4395-0.59413 0.038-1.3365 0.22595-2.0332 0.24462zm-67.997-0.95654c-0.14271 4e-3 -0.2883-6e-3 -0.43652-0.0322-0.5733-0.0686-1.0828-0.37794-1.4356-1.0737-0.071-0.0441-0.11554-0.0845-0.16699-0.0967-0.67865-0.32584-0.5759 1.0924-1.0708 1.0459-0.0196-0.0367-0.0127-0.0619-0.0395-0.0718-0.29155-1.127-0.909-2.0901-1.1001-3.2783-0.0221-0.2303-0.0463-0.46444-0.0366-0.71924 0.0956-0.1421 0.20858-0.25106 0.32373-0.36621 0.62475-0.54145 1.4136-0.86473 2.2441-1.0093 0.2989-0.0612 0.59031-0.0981 0.87451-0.10547 0.64435 7e-3 1.2724 0.0917 1.8457 0.27539 0.0539 0.0147 0.078 0.0224 0.0952 0.0542 0.2058 0.0833 0.42888 0.20085 0.65918 0.2915 0.14945 0.0686 0.27351 0.1286 0.39111 0.2168 0.71295 0.392 1.367 0.90895 1.4356 1.8106 0.0269 0.1225 0.0322 0.20418 0.0322 0.31933-0.0367 0.4459-0.1963 0.93998-0.47315 1.3491-0.21315 0.36995-0.54118 0.64751-0.91113 0.77491-0.4067 0.14455-0.84986 0.33501-1.3374 0.45996-0.1519 0.0441-0.30703 0.0858-0.47608 0.0981-0.13597 0.0343-0.27477 0.0531-0.41748 0.0571zm19.192-0.22705c-0.57575 0.0441-0.68099-0.40949-0.72509-0.87744 0.0122-0.25235 0.0122-0.4773-0.0147-0.68555 0.2793-1.6832 0.14171-3.8194 1.5015-4.8999 0.098-0.0588 0.20573-0.14247 0.29883-0.17432 0.9506 0.4557 1.9449 1.0634 2.8857 1.7739 1.3156 0.98 2.4998 2.1507 3.252 3.4614-1.3181 0.61004-2.8676 0.81434-4.4356 0.98584-0.9359 0.1176-1.8856 0.20041-2.7627 0.41601zm-26.477-1.3652c-0.12432 0.0158-0.25695 8e-3 -0.39843-0.0308 0 0-0.0297-7e-3 -0.0542-0.0176l0.20361-0.96534c-0.3332-0.343-0.67638-0.43889-1.0635-0.45849-0.5096 7e-3 -1.0679 0.19444-1.6069 0.30469-0.294 0.0612-0.58498 0.0955-0.85693 0.0513-0.10045-0.0539-0.19692-0.11065-0.29737-0.167-0.2744-0.12985-0.50222-0.33281-0.70312-0.52881-0.24255-0.2646-0.43252-0.60041-0.59912-0.92871-0.16905-0.4165-0.28529-0.84215-0.38819-1.2978-0.0245-0.12005-0.0483-0.24033-0.0483-0.35303-0.0221-0.54634 0.20309-0.96851 0.49219-1.314 0.2695-0.2695 0.55056-0.4751 0.89355-0.6123l0.0103-0.0249c0.29645-0.0637 0.59617-0.1191 0.88037-0.1289 0.29155-0.0367 0.56738-0.0172 0.84668 0 0.3871 0.0196 0.76485 0.0948 1.125 0.21972 0.4998 0.13475 0.95363 0.34531 1.3652 0.59766 0.39445 0.21805 0.75369 0.45845 1.0942 0.75 0.35525 0.2695 0.66739 0.57596 0.97119 0.91406 0.4312 0.4018 0.65904 1.0297 0.56104 1.6055 0 0.1078-0.0296 0.21204-0.0835 0.31494-0.0269 0.1029-0.0833 0.20073-0.14209 0.32813-0.83177 0.34514-1.3314 1.631-2.2017 1.7417zm-17.571-2.6074c-0.25235-0.3234-0.56315-0.51917-0.9331-0.61962-0.51695-0.1715-1.1219-0.13533-1.5776-0.11573-0.0637-1.2397-0.21508-2.4738-0.28858-3.6841-0.01-0.5978-0.0207-1.1982 0.0234-1.7812-0.2156-0.99715 0.2606-1.2916 0.8584-1.5293 0.60025-0.23765 1.288-0.3891 1.582-0.9624 0.2009 1.9012-0.0244 3.9121-0.0146 5.8696 0.0319 0.94815 0.1247 1.8795 0.3501 2.8228zm29.659-0.26367c-0.0686-0.0466-0.11546-0.0858-0.18896-0.13476-0.11025-0.11516-0.18783-0.24759-0.23438-0.375-0.18375-0.59044 0.40425-1.3099 0.41895-1.9028 0.0196 0.0367 0.039 0.0658 0.0586 0.10254 0.1029 0.13965 0.16295 0.32846 0.20215 0.50977 0.1372 0.54634 0.0664 1.2374 0.0103 1.7593zm51.258-0.89062c-0.81777 0.0253-1.6353-0.0308-2.4536-0.21826 0.5243-1.7174 1.7855-3.0643 2.6748-4.6348 2.009-3.8171 7.8788-4.6414 8.1753-9.5757 6.0172-6.0588 8.0982-13.763 10.031-21.542 1.0388-0.2989 2.0035-1.125 2.6748-2.0976 0.74235-1.9404 0.14733-4.1841-0.37207-5.9824 2.6019-2.9155 5.8718-4.4889 9.4365-5.0083 1.6342 0.0735 2.8223 1.0434 3.9346 2.3174 1.4161 2.0948 1.2641 4.938 2.5283 6.8833l0.30029-0.375c1.1858-2.9939-0.52305-5.7625-1.1894-8.4551 2.8984-2.6166 4.3079-5.9074 5.3467-9.3472 1.4161-0.30135 3.1967-0.89714 4.6055-0.15234 1.5631 0.60025 3.1971-0.22304 3.9419-1.6465-1.1172-0.8967-2.0798 0.9022-3.4175 0.52735-2.3054-0.7497-4.7582 0.8232-7.2817 0-3.5696-1.051-6.6138-3.4448-9.8086-5.5371-0.66885-1.4234-1.7836-2.7679-1.1147-4.4854 1.1147 0.3724 2.6751 0.67099 3.4175-0.75v3.29c1.2642 5.2356 7.4298 6.2795 11.44 5.3877l-0.59473-0.60205c-4.0082 0.82565-11.218-2.1664-9.5815-7.478 0.59535-1.2716 1.6309 0.15205 2.4492-0.59765 0.5978-0.30135 1.3401-0.8995 1.2642-1.5732 0.14945-0.82075 1.0394-1.342 1.7842-1.418 3.7902 3.7411 3.7903 14.959 12.48 10.544l-0.3706-0.37207c-4.0131 1.7199-9.8099-2.4669-8.3203-7.1807 0.66884-1.198 1.784 0.0731 2.8228-0.30176 0.74235-0.44835 1.4846-1.2713 1.4136-2.168 0.66885-1.421 2.5234-1.119 3.7852-0.89356 2.5308 1.9404 6.5414 0.44771 9.0674 2.6895 1.5606 2.0188 1.1886 4.7106 0.74268 7.1777-4.1601 4.7162-2.5999 11.895-6.9829 16.535-4.535 2.9155-5.8721 7.8528-9.0644 11.667-1.6366 1.1956-3.2732 2.2472-5.5737 1.7988-0.81829-0.22785-1.1145-1.7987-2.3027-1.2744-2.08 4.263-2.1566 9.3521-4.979 13.238-2.303 5.6105-10.253 4.7162-11.071 11.147-2.7514 4.7138-7.728 7.7787-12.483 9.3516-2.4512 0.22418-4.9017 1.0358-7.355 1.1118zm-52.642-0.0498c-0.4606-0.0661-0.77587-0.15491-1.0576-0.25781-0.1519-0.0686-0.26667-0.15837-0.38672-0.24902-1.149-1.0756 1.2418-3.494 0.6709-5.0669l0.17432-0.0103c0.11269 0.2009 0.22573 0.42928 0.32373 0.68408 0.11025 0.22785 0.19062 0.44992 0.27392 0.66797 0.5047 1.3867 0.70997 2.9506 1e-3 4.2319zm-7.1704-0.60791c-0.2842-0.1029-0.41443-0.25229-0.45118-0.43359-0.0269-0.2058 0.0621-0.43858 0.18457-0.68848 0.2499-0.4116 0.67361-0.84103 1.0166-1.0591 0.0563-0.0122 0.0935-0.0316 0.15234-0.0439 0.3087 0.53899 0.29566 1.2181 0.50391 1.8135l-1.2144 0.32373zm4.0151-0.35888-0.88183-0.18164-0.60059-0.0747c0.2303-0.6517 0.56894-1.1818 0.96094-1.7036 0.0196 0.0367 0.059 0.10291 0.0762 0.13476 0.32585 0.5733 0.46001 1.2323 0.44531 1.8252zm-5.5986-0.58155c-0.2646-0.1813-0.54346-0.28664-0.82031-0.41894-0.4312-0.1715-0.85096-0.40196-1.0225-0.92871 0.5635-0.43855 0.92823-1.4776 1.6216-1.3184zm-7.8516-1.9805c0.10045-0.7987 0.58049-1.8574 1.1587-2.127v0.11133l0.13769 0.97266 0.0703 0.36181c-0.0441 0.15924-0.13969 0.30346-0.26954 0.3794-0.11514 0.11515-0.26939 0.15514-0.44824 0.19189-0.2107 0.0564-0.44312 0.0805-0.64892 0.10986zm-13.97-3.8936c-0.74725-0.57575-1.5116-1.207-2.2515-1.9175-1.1344-1.0437-2.1997-2.2404-3.0352-3.4336 1.3181-0.40915 2.7587-0.72767 4.1675-0.83057 1.1442-0.0613 2.2714 0.0525 3.2856 0.38086 0.0784 0.0196 0.12923 0.0331 0.17578 0.0747-0.17885 1.7395-0.28558 3.8378-1.5571 5.1167-0.2009 0.2254-0.48381 0.43298-0.78516 0.60938zm31.485-0.87598c0.4557-1.1809 0.62953-2.469 0.73243-3.8042 0.0563-0.637 0.11357-1.2736 0.16992-1.9131 0.10535 0.0319 0.21739 0.0336 0.32519 0.063 0.15435 0.0417 0.29496 0.0521 0.42481 0.0864 0.7252 0.1372 1.4621 0.33794 1.5527 1.1587-0.50715 1.59-1.4677 3.8298-3.0088 4.3198-0.0686 0.0392-0.12769 0.0526-0.19629 0.0893zm3.4365-2.729c2e-3 -0.01 4e-3 -0.0156 6e-3 -0.0278 0.5635-0.5292 0.28789-2.1387 1.04-1.9893 0.1029 0.0245 0.22693 0.0905 0.39843 0.19336-0.0269 0.41895-0.42639 0.96402-0.80859 1.3389-0.22785 0.22295-0.44954 0.42116-0.63574 0.48486zm-5.0845-2.2017c-0.0122-0.0588-0.0323-0.0935-0.0469-0.15235-0.12495-0.88689 0.0624-1.8011 0.11865-2.5532 0.14455 0.0956 0.29877 0.25288 0.45557 0.40723 0.2548 0.2107 0.47706 0.44242 0.75146 0.56982-0.17885 0.6615-0.53646 1.5889-1.2788 1.7285zm-10.811-0.28272c-0.16905-0.33075-0.28039-0.64529-0.38819-0.98584-0.14945-0.6076-0.21487-1.3101-0.20507-1.9863 0.0417-0.89915 0.17622-1.8273 0.32812-2.6089 0.1176-0.022 0.23826-0.0503 0.38525-0.0674 0.25725-0.0172 0.51683-0.0294 0.73243 0 0.30135 0.022 0.57539 0.0684 0.79834 0.18603 0.0441 0.0417 0.0956 0.0575 0.14209 0.0967-0.0392 1.0976-0.5265 2.188-1.0459 3.293-0.294 0.68846-0.58292 1.3476-0.74707 2.0728zm16.863-1.1455c-0.0882 5e-3 -0.20169 3e-3 -0.33398-0.0308-0.0857 5e-3 -0.16371-0.017-0.26661-0.0439-0.60025-0.0808-1.1746-0.26221-1.7798-0.53906-0.12985-0.0367-0.25437-0.096-0.40137-0.167-0.2254-0.1176-0.47563-0.24065-0.74267-0.3999-0.539-0.3136-1.0943-0.6642-1.6406-1.0415-0.20825-0.16905-0.4434-0.34418-0.71045-0.50098-0.5439-0.40425-1.0781-0.83362-1.6538-1.2158-0.17885-0.15925-0.39718-0.30614-0.61523-0.44824-0.6125-0.45325-1.2404-0.84792-1.8823-1.1909-0.2156-0.14455-0.46502-0.2648-0.69287-0.36035-0.1666-0.0172-0.33096-0.0312-0.49511-0.0483-0.50225-0.0221-1.0036-0.0439-1.5059-0.0659-0.38955-0.0196-0.77937-0.042-1.1763-0.0322-0.27685-0.022-0.55372-0.0399-0.83057-0.0571-0.2793-0.022-0.55665-0.0355-0.8335-0.0527-0.21805-0.0319-0.4679-0.0453-0.71045-0.082-0.11515-2e-3 -0.24512-0.036-0.38232-0.0483-0.8134-0.1323-1.6067-0.3183-2.376-0.6123-0.30625-0.11025-0.60733-0.25197-0.91113-0.38672l-0.73535-0.42774-1.7007-0.91259c-0.2499-1.2912 0.0451-2.4013 0.40283-3.5259 0.79625-1.8252 2.0209-3.2562 3.5815-4.1382 0.6615-0.3626 1.3588-0.65416 2.0815-0.83056 0.2744-0.0686 0.51278-0.11323 0.76758-0.13038 0.60515-0.0392 1.2099 0.0124 1.7856 0.0835 0.12985 0.0367 0.26965 0.0462 0.375 0.0732 0.24255 0.0343 0.4807 0.10332 0.6914 0.15967 0.2891 0.0784 0.55291 0.14666 0.78076 0.23731 0.29155 0.0808 0.54754 0.17888 0.77784 0.26953 0.3822 0.15925 0.73472 0.3119 1.0532 0.4834 0.4753 0.245 0.91118 0.50194 1.3154 0.78369 0.38465 0.24255 0.74437 0.48492 1.0972 0.74707 0.6419 0.4606 1.2417 0.96292 1.8003 1.5117 0.2058 0.16905 0.4105 0.36465 0.5918 0.5288 0.44835 0.43365 0.8715 0.86069 1.3125 1.3213l0.3164-0.0293 0.0835 0.022c0.0392-0.1568 0.0552-0.3242 0.0381-0.46875-0.0465-0.7791-0.90161-1.4969-0.97266-1.9673 0.48265 0.10045 0.9633 0.20164 1.4018 0.34864 0.28175 0.1078 0.54607 0.17888 0.77637 0.26953 0.5831 0.24255 1.166 0.48434 1.7124 0.77344 0.27195 0.12985 0.5217 0.25583 0.73975 0.40283 0.147 0.0686 0.27498 0.12958 0.39258 0.21533 0.5635 0.32585 1.1105 0.6984 1.6348 1.0708 0.0907 0.0784 0.16088 0.12678 0.23438 0.17578 0.11515 0.0858 0.21608 0.14183 0.27978 0.21533 0.1715 0.1029 0.30529 0.22616 0.41309 0.34131 0.5635 0.4361 1.0939 0.88991 1.6157 1.3726 0.13475 0.12495 0.27152 0.24214 0.40137 0.39404-0.21315 0.36995-0.27955 0.83089-0.3457 1.2964-0.0539 0.5243-0.10987 1.0503-0.38672 1.4546-0.0686 0.15435-0.18893 0.28958-0.33838 0.42188-0.0661-0.076-0.13688-0.12277-0.22998-0.20362-0.51205-0.39445-1.1179-0.67126-1.7476-0.84521-0.1323-0.0343-0.2879-0.0741-0.479-0.10108-0.0784-0.0221-0.18653-0.0483-0.32373-0.0557-0.0808-0.0245-0.16419-0.0175-0.26954-0.0469-0.60269-0.0759-1.2502-0.0805-1.897-0.0879-0.13965-0.01-0.28409 0.01-0.44824-7e-3 -0.28665 7e-3 -0.56395-0.01-0.84815 0-0.61984 0-1.2581-0.0294-1.8779-0.14209-0.27195-0.0466-0.53963-0.0885-0.79688-0.18897-0.2107-0.0539-0.42174-0.11056-0.60059-0.18896-0.34055-0.4067-0.65895-0.80571-1.002-1.21-0.16415-0.2401-0.35726-0.46447-0.54346-0.71191-0.52185-0.67865-1.0726-1.3722-1.6582-2.0361-0.3185-0.39935-0.63986-0.77172-0.99756-1.1221-0.3773-0.3871-0.78606-0.75454-1.2246-1.1294-0.2989-0.2499-0.63301-0.47864-0.99316-0.72364-0.2156-0.1421-0.45557-0.29104-0.73242-0.42334-0.2205-0.11515-0.47022-0.23977-0.74707-0.37207-0.12985-0.0367-0.28119-0.10874-0.43799-0.14794-0.0711-0.049-0.15305-0.0708-0.23145-0.0879-0.10535-0.0343-0.23732-0.0682-0.37207-0.10253-0.784-0.21315-1.6489-0.25088-2.499-0.14063-0.7007 0.13475-1.4945 0.51051-2.0801 0.99316l6e-3 -0.0176c-0.0245 0.0221-0.0537 0.0516-0.0806 0.0762-7e-3 7e-3 -0.0224 0.0116-0.0322 0.019v6e-3c-0.70315 0.6076-1.8605 2.2495-1.8164 3.3765 0.392-0.31605 0.82185-0.65906 1.2188-0.97266 0.56105-0.41895 1.1234-0.8358 1.7139-1.1543 0.15925-0.0735 0.33344-0.0843 0.48779-0.12597 0.9065-0.12495 1.7468-0.0944 2.521 0.06 0.12985 0.0319 0.26232 0.0713 0.36767 0.0981 0.2401 0.0661 0.47488 0.12862 0.67823 0.20947 0.28175 0.10535 0.53975 0.20075 0.76025 0.3208 0.27685 0.12985 0.52708 0.25828 0.74268 0.40283 0.36505 0.2107 0.70499 0.41317 1.0063 0.66797 0.4557 0.29155 0.87216 0.63214 1.2642 0.96534 0.3724 0.29889 0.70828 0.61753 1.0488 0.93603 0.61985 0.53655 1.2036 1.0929 1.7695 1.6172 0.2009 0.196 0.41298 0.36506 0.58448 0.55371 0.55615 0.46305 1.0836 0.91891 1.6201 1.3477 0.098 0.0539 0.18856 0.13445 0.30616 0.22265 0.12495 0.0637 0.27386 0.13512 0.43066 0.17432 0.58555 0.24255 1.1986 0.38254 1.7988 0.45849 0.27685 0.0196 0.54639 0.0635 0.82324 0.0806 0.1666 0.0196 0.30372 0.0244 0.44092 0.0366 0.63455 0.0564 1.2733 0.088 1.8662 0.19336 0.1127 0 0.19358 0.0228 0.26953 0.0425 0.13965 0.0122 0.24778 0.0381 0.32373 0.0601 0.19355 0.0196 0.3511 0.0648 0.4834 0.104 0.6223 0.196 1.2071 0.43844 1.7388 0.86719 0.076 0.049 0.12241 0.0873 0.16406 0.12891 0.0857 0.1078 0.16244 0.24116 0.20654 0.39551 0.2009 0.62474 0.0164 1.4222-0.32666 1.8706-0.0613 0.01-0.12968 0.0493-0.18603 0.0615-0.17395 0.12495-0.36935 0.21407-0.5874 0.29737v1e-3c-0.67865 0.2891-1.4308 0.46774-2.102 0.47754-0.14455 0.0172-0.31574 0.0288-0.50684 4e-3zm-8.3013-0.40284-0.0586-0.41162-0.20655-1.9819 0.0103-0.14209 0.0542-0.10107 0.18017-0.14942c0.13475 0.1225 0.31877 0.28763 0.48047 0.41748 0.32585 0.25725 0.62068 0.53522 0.73828 0.93457zm59.941-0.36474c-9.7363-4.339-17.612-13.093-17.465-23.339 0.5978-1.2716 1.9302-1.4945 3.0498-1.9453 6.0931-2.619 9.7318 3.5916 14.637 4.4883-2.08-1.6464-4.6829-2.7681-6.8364-4.7109-7.8008-6.3577-6.0196-16.755-9.0674-25.134-0.2989-2.0212 3.1246-1.0474 3.9404-2.8433-5.2014 0.30135-11.372 0.67131-15.382-3.0674-4.0131-0.0759-8.0965-0.1483-11.218-2.6938-1.0412-1.2691-2.3763-2.4676-2.1533-4.3345 0-0.67375 0.88854-1.1981 1.4839-0.67383 2.303 4.9343 7.431 6.0611 12.48 5.9092 0.44835-0.076 1.1204-0.52109 1.0444-1.0503-3.7166-0.14945-7.5077-0.14932-10.33-2.543-1.4136-1.2691-2.2292-2.8404-2.3027-4.6362-0.22295-0.8967 0.81624-1.274 1.5586-1.1221 1.7126-0.22295 1.1165-2.1658 2.0083-3.0674 3.1213-0.2989 1.2621 3.6649 2.8228 5.0859 2.2295 3.6676 8.3248 6.1326 11.071 2.9941-3.3418 0.5978-7.1335 0.14965-9.4365-2.8418-0.8918-1.345-1.4115-2.9967-0.89209-4.6406l1.1909-0.22559c0.66885-0.44834 1.6341-1.1194 1.2642-2.168 4.0106-1.9453 7.8742 0.74733 11.588 1.6465 4.236-0.74725 8.6954 0.4486 11.442 3.9668-0.14455 4.4124 4.7576 6.2809 6.7617 9.8701 6.1666 8.156 12.189 16.384 11.963 27.303 1.2642 1.7958 3.0451 3.6656 2.1533 6.2871-0.3675 1.1196-1.9282 1.4889-3.0454 1.043-1.1148 8.4525-2.4527 19.75-12.331 22.443zm-62.988-0.79688c-0.0441-0.58065-0.35715-1.2031-0.57275-1.7739-0.15435-0.58065-0.20552-1.1352 0.33838-1.5835 0.0319-0.0196 0.058-0.0125 0.0923-0.0322 0.441 0.0343 0.88255 0.0718 1.2378 0.2212 0.28175 0.10535 0.4896 0.27638 0.6709 0.55078-0.0343 0.8722-0.75213 1.5584-1.3989 2.1782-0.12495 0.1617-0.27458 0.29245-0.36768 0.43945zm-8.1621-1.3301c-0.16414-0.2401-0.29215-0.50487-0.38525-0.78662-0.20335-0.6223-0.33049-1.3097-0.49219-1.9761 0.28665-0.01 0.63802 0.0552 0.96387 0.20215 0.3087 0.1127 0.60173 0.27712 0.83203 0.48047-0.33075 0.7056-0.21286 1.6489-0.91846 2.0801zm25.507-7.0327c-0.10045-0.0564-0.19878-0.11456-0.32373-0.16846-0.1225-0.0661-0.27429-0.13498-0.44824-0.21093-0.5733-0.2989-1.1607-0.62448-1.6948-1.0532-0.1372-0.12495-0.27687-0.24762-0.41162-0.36767-0.0907-0.0833-0.17696-0.19151-0.25781-0.30176-0.0661-0.0711-0.12223-0.17158-0.21533-0.25488-0.0784-0.1323-0.1551-0.26713-0.20655-0.39698 0.1421-0.2156 0.30657-0.39632 0.46582-0.58007 0.147-0.1323 0.2623-0.24278 0.375-0.35303 0.14945-0.12985 0.29736-0.26185 0.43946-0.36475 0.2058-0.1421 0.41039-0.2871 0.62109-0.4292 0.7301-0.42385 1.5027-0.78369 2.2573-1.0605 0.1813-0.0637 0.3616-0.1449 0.5625-0.18164l0.21679 0.53466c-0.2548 1.8032 0.12932 4.1766-1.3799 5.1885zm-13.837-6.8394c-0.12985-0.14945-0.27392-0.2433-0.41602-0.3413-0.39935-0.3087-0.88514-0.49488-1.3359-0.70313-0.35525-0.1519-0.70242-0.32788-1.043-0.53613-0.2352-0.1764-0.46086-0.38198-0.62256-0.61963 0.4851-0.55125 0.84463-1.2771 1.2905-1.897 0.38465-0.49 0.80904-0.91312 1.3799-1.043 0.0269 7e-3 0.0463 0.0395 0.0659 0.0762 0.35525 0.35035 0.51943 0.79062 0.68848 1.3198-0.01 0.36505 0.0739 0.78662 0.15967 1.2056 0.2548 0.9506 0.5288 1.9359-0.16699 2.5386zm7.3638-1.2407c-0.19302 0.015-0.39202-7e-3 -0.58741-0.0718-0.25725-0.0857-0.47353-0.24055-0.64013-0.4292l0.85986-0.28417c0.0171 7e-3 0.0326 0.0147 0.0498 0.022 0.4361 0.14455 0.90671-0.0971 1.0562-0.54053 0.147-0.44345 0.0587-1.4258-0.375-1.5703-0.1323-0.0441-0.28268 2.2e-4 -0.43213 0.0908l-1.1484 0.23437c0.41405-0.56595 1.0932-1.0095 1.6787-0.81591 0.78155 0.25969 1.1 1.5681 0.83789 2.3496-0.19661 0.588-0.72027 0.97012-1.2993 1.0151zm2.3511-3.5186c-0.48832-0.0316-0.97961-0.10954-1.4678-0.23877-0.0735-0.0367-0.14719-0.0722-0.22559-0.0967-0.1078-0.0367-0.21788-0.0562-0.32812-0.0659-3.991-1.3794-6.1317-5.7397-4.7842-9.7822 1.3597-4.0719 5.7407-6.2821 9.7808-4.9321 4.0449 1.3475 6.225 5.745 4.8677 9.8145-1.1448 3.4236-4.4246 5.5226-7.8428 5.3013zm-52.403-1.8354c-3.8636-2.4622-5.2746-6.7305-6.7617-10.619-1.1882 0.2989 0.22347 2.3934-1.2612 2.8418-1.1907-0.0735-1.7098-1.4187-2.3027-2.3203-0.44835-1.7934 0.51885-3.5128 1.4106-5.0098 0-9.3492 3.1207-18.025 11.443-23.339 0.96285-2.3936 1.1871-5.083 2.8213-7.1777 2.6754-3.2193 7.2836-2.9206 11.071-2.3203 2.9743-2.2442 6.7614-3.5168 10.329-1.645-0.076 1.0437 0.81647 1.8695 1.6348 2.3203 0.96529 0.5929 2.0794-0.22683 2.8242-0.15088 0.9653 1.7199-0.22507 3.4395-0.37207 5.2354-1.2617 4.04-6.0926 2.1707-8.915 3.8906-0.52185 0.44835 0.21965 0.96969 0.51855 1.1191 2.227-1.568 5.4976-0.6715 7.727-2.1709 1.5606-0.9702 2.7463-2.6131 2.9692-4.4824 0.37485-1.2005 0.0772-2.7686 0.89795-3.5918 1.3328 0.67375-0.29967 1.7192 0.21972 2.8389 0.4459 1.6488 2.4526 1.4971 3.7119 1.4971 0.52185 2.0164-0.59022 3.8151-2.1533 5.165-2.1536 2.6166-5.4225 0.89642-8.1738 2.168-0.51695 0.37485 0.0771 0.82295 0.37354 1.0459 1.9306-0.6713 3.7166-0.0736 5.7231-0.52442 2.45-0.4459 4.0093-2.2441 5.124-4.4883 0.8918 0 2.0074 0.89708 2.6763 1.4238-0.14945 1.6415-1.2615 2.839-2.1533 4.1865-1.8571 1.345-4.3122 2.3965-6.7646 1.4238-3.3418-1.4234-5.2009 1.5678-7.6509 2.8418-3.4178 1.421-7.4321 0.0767-9.958-2.6968l-0.37207 0.3794c1.1148 2.5431 4.4592 3.1389 6.6152 4.3345l-0.59473 0.67529c-1.3377 6.7326-8.5457 9.0511-14.043 10.771l0.37207 0.37207c3.0453-0.14945 5.4217-2.0161 8.543-2.168 1.2642 0.1519 2.2296 1.0484 3.0454 2.0186-5.0519 3.3712-10.252 7.3303-14.115 12.568-1.2666 1.2716-2.3789 3.7393-4.459 3.5874zm84.605-4.9336c-1.9355-2.2883-4.125-4.3173-6.3618-5.8828-0.0343-0.098-0.0718-0.20767-0.0718-0.30322 0-0.0588 0.0151-0.11754 0.0395-0.15674 0.1421-0.2254 0.74716-0.27231 1.2788-0.31641 0.6076-0.049 1.2343-0.10007 1.6802-0.38672l-0.0601 0.0308c1.372-0.52185 2.1386-2.0132 2.2954-3.2651l1e-3 -0.0293v-0.0278c-0.29645-6.4998-4.2159-11.645-7.6655-15.839 2.2442 1.6978 5.0033 2.2793 7.6787 2.6909 1.2324 2.8248 1.6821 6.0632 2.1108 9.1992 0.6076 4.4516 1.2527 9.0453 4.1045 12.703-0.5341 0.7595-1.428 0.84061-2.4668 0.89941-0.90405 0.0515-1.8236 0.13528-2.5635 0.68408zm0.36475-1.8179c0.77665-0.25725 1.5419-0.30213 2.1152-0.33398 0.12985-7e-3 0.24765-0.0161 0.36035-0.0234-1.4088-2.3177-2.1662-4.8807-2.666-7.4238-0.31115 1.4406-1.2345 3.1556-2.9985 3.898-0.1862 0.1029-0.37774 0.18045-0.57129 0.2417 1.3034 1.0902 2.572 2.321 3.7603 3.6416zm-10.649-6.022c-1.8392 0.154-3.6776-1.5845-5.5151-1.8106-3.9396-1.5729 0.44509-5.9094-2.9751-8.0801 0.52185-0.3724 1.9339-0.52127 1.5615-1.418-3.1213 0.52429-7.5048 0.82066-10.178-1.6465l0.74267-0.29883c-0.81585-1.4234-3.198-0.75001-4.0898-2.6953-0.88935-1.1956-1.4086-2.69-0.88916-4.1894h1.4121c0.74235-0.2989 0.51917-1.122 1.0386-1.5703 2.232-0.0735 0.22474 1.8747 0.74414 3.0703 0.0735 1.7958 0.81921 3.4392 2.5269 4.4854 1.1148 0.14945 2.3025 1.198 3.3413 0.29883-3.3418-0.071-5.3479-3.8142-4.4561-6.8057l1.7827 0.52149c0.5194-0.2205 1.1882-0.7447 1.2642-1.4209 3.6382-1.1221 6.1668 1.2004 9.4351 1.4209 5.9461 4.1895 10.255 10.471 10.922 17.657-0.81585 2.0923-3.2699 1.0436-4.8281 1.5703-0.61312 0.5978-1.2268 0.85979-1.8398 0.91113zm9.5186-7.9336c-0.3185-2.2001-0.71856-4.4056-1.4707-6.3926-0.6615-0.11025-1.3428-0.2426-2.0288-0.4043 1.4136 2.0752 2.6665 4.3248 3.4995 6.7969zm-29.599-6.0688c-2.227 0.0759-4.3829-1.122-5.1987-3.2168-0.5929-1.5729 0.5161-2.3936 1.6333-3.2168 0.4459-0.37485-0.29586-1.4209 0.66944-1.2715 0.81585 0.22785 0.66804 0.89708 0.36914 1.4238-0.66885 2.4672 0.44681 4.8578 2.5268 6.2812zm73.049-5.1489c-0.0937-0.012-0.19498-0.0399-0.30615-0.0864-0.96775-0.14945-1.5611-1.3475-1.2671-2.0947 0.74725 1.421 2.3837-0.37511 2.6777 1.0459-0.19509 0.52307-0.44844 1.219-1.1045 1.1352zm5.0098-0.54346c-0.10531-9e-3 -0.21888-0.0323-0.33984-0.0703-0.74235-0.4459-1.4817-1.1904-1.4106-2.168 1.0388 0.37485 2.1551 0.74722 3.0469 1.1221-0.19294 0.58953-0.55924 1.1811-1.2964 1.1162zm9.8481-0.40283c-0.16346 0.0267-0.34029 0.016-0.52587-0.041-0.6713-0.52185-1.4894-1.4912-0.89649-2.4639 0.52185 0.3724 1.1942 1.0433 1.9365 0.52148 0.29645 0.2989 0.74151 0.60048 0.51856 1.0488-0.16721 0.44651-0.54233 0.85464-1.0327 0.93457zm-93.479-0.33838c-0.36995-0.37486-0.89191-0.89664-0.66651-1.2715 0.51695 0.2989 1.4848-0.14983 1.9307 0.52148-0.14945 0.52429-0.66881 0.82594-1.2642 0.75zm10.57-0.18896c-0.0697 0.0107-0.1486 7.4e-4 -0.2417-0.0366-0.5194-0.22295-0.96804-0.81821-0.89209-1.4209 0.4459 0.60269 1.6362 0.14968 1.6362 1.0488-0.16905 0.16537-0.29342 0.37665-0.50244 0.40869zm-5.2398-0.17285c-0.56112 0.0356-1.1312-0.83302-1.2451-1.2832 0.5978 0.52185 1.9351-0.30155 1.7856 0.89649-0.16782 0.26154-0.35348 0.37485-0.54053 0.38672zm-12.434-6.1187c-0.52475 0.0141-1.0509-0.15646-1.4414-0.54785-0.74235-2.8469 2.3027-0.45023 3.4175-1.2759v0.37647c-0.23121 0.88659-1.1015 1.4238-1.9761 1.4473zm19.929-2.7114c-0.23183 9e-3 -0.49189-0.0468-0.71484-9e-3 -0.5194-0.52185-1.0386-1.0457-1.0386-1.793h0.37061c0.4459 0.8967 2.5995-0.3774 1.9307 1.4209-0.11147 0.2989-0.31602 0.37198-0.54785 0.38086zm-25.575-1.4224c-0.34139-0.0477-0.68151-0.21007-0.99756-0.52735-0.4459-2.9155 2.3796-0.75223 3.5654-1.6465v0.52148c-0.4998 0.89854-1.5437 1.7953-2.5679 1.6524zm29.118-1.8354c-0.44594 0.014-0.93397-0.26503-1.2114-0.71338-0.2205-0.52185-1.1154-1.1222-0.52002-1.7959 0.81585 0.9016 2.5263 0.45085 2.8228 1.7959-0.2205 0.22295-0.37299 0.59765-0.66944 0.59765-0.12985 0.0747-0.27323 0.11106-0.42187 0.11573zm-36.042-2.2222c-0.15041-6e-3 -0.30487-0.0271-0.46289-0.0645-0.4459-0.4459-0.8152-0.82065-0.74415-1.4209 0.7448-1.5704 2.3786 1.8e-4 3.5669-0.74707v0.74707c-0.45448 0.85321-1.307 1.5297-2.3599 1.4854zm42.898-0.78076c-0.1266 0.0154-0.26633 7e-3 -0.41455-0.0308-0.59535-0.2989-1.485-1.1966-0.89209-1.7944 0.66884 0.3724 1.559 0.67226 2.0098 1.1206-0.057 0.39138-0.32335 0.65842-0.70312 0.70459z" fill="#fff"/>
    <path d="m225.78 484.42-4.3071-1.5068 0.57085-1.6317 0.77175 0.2695 6.0196-6.8796 2.3422 0.81585 0.57085 9.1752 0.66395 0.23275-0.58065 1.6611-4.334-1.5116 0.5831-1.6734 1.0168 0.35525-0.28175-5.2381-3.4055 3.9518 0.9457 0.33075z" fill="#007935"/>
    <path d="m217.74 547.26c-0.072 5e-3 -0.14586 5e-3 -0.2212-1e-3 -0.36749-0.21315-0.69913-0.44638-1.0005-0.69873-0.12985-0.147-0.26665-0.27146-0.39405-0.41601-0.0931-0.0808-0.17941-0.19055-0.25781-0.2959-0.0711-0.0784-0.12372-0.18128-0.20947-0.28418-0.5488-0.80115-0.89791-1.721-1.1894-2.7378-0.0686-0.27195-0.13252-0.57314-0.21827-0.88184-0.1225-0.60025-0.23686-1.2264-0.36181-1.8267-0.1568-0.98-0.35511-1.9442-0.59766-2.8286 0.20335 0.81585 0.44047 1.6231 0.70752 2.4316 0.1617 0.441 0.32655 0.88428 0.49805 1.3008 0.11025 0.2254 0.19747 0.4211 0.27832 0.6416 0.38465 0.784 0.80871 1.5235 1.333 2.2046 0.0858 0.11025 0.14918 0.18186 0.21533 0.25781 0.0808 0.1078 0.16719 0.21593 0.25049 0.32373 0.1274 0.147 0.26712 0.2695 0.39697 0.41895 0.0907 0.0808 0.15446 0.15645 0.24756 0.2373 0.4557 0.4067 1.0367 0.45255 1.5732 0.33985 0.2058-0.0294 0.38421-0.0652 0.54346-0.13623 0.39935-0.1176 0.74513-0.2522 1.0195-0.3208-0.3871 0.49244-0.8085 1.2322-1.3916 1.727-0.1862 0.17395-0.37024 0.32592-0.61524 0.39697-0.18926 0.0772-0.39031 0.13417-0.60644 0.14795zm-18.267-4.4575c-0.11606 3e-3 -0.23612-2e-3 -0.36474-0.022 0 0-0.25301-0.11736-0.37061-0.20801-0.96775-0.71785-1.4674-1.9009-1.6978-3.1553-0.12985-0.88689-0.13467-1.8283-0.0366-2.6221 0.0906 0.50715 0.20759 1.0221 0.32519 1.5366 0.098 0.36504 0.17113 0.72529 0.24463 1.0854 0.21315 0.68355 0.88315 1.3469 1.623 1.4326 0.13965 0.01 0.27692 0.0227 0.39697-4e-3 0.0784 0.0221 0.13603 6e-3 0.19483-6e-3 0.18865-0.0637 0.39973-0.11648 0.58593-0.18018 0.34055-0.10535 0.65227-0.21863 0.95362-0.39258 0.35035-0.1617 0.69027-0.38192 1.0137-0.63427 0.55125-0.392 1.0784-0.87415 1.5586-1.396 0.8183-0.8575 1.5414-1.8842 2.1196-2.8887l0.041 0.2666c-0.7448 1.6415-1.5682 3.776-2.8667 5.2705-0.42875 0.53655-0.94226 0.99448-1.5352 1.3154-0.2744 0.1813-0.59591 0.32251-0.95361 0.39111-0.27685 0.098-0.57849 0.16007-0.89209 0.18457-0.1127 0.0122-0.22378 0.0233-0.33985 0.0264zm10.348-3.5039c-0.1274-0.0612-0.27738-0.13221-0.40723-0.16406-0.196-0.1127-0.41915-0.22997-0.6372-0.37207-0.68355-0.49734-1.2265-1.2143-1.2437-2.209 0.49735 0.36015 1.0337 0.67535 1.585 0.9375 0.2303 0.0882 0.45971 0.18341 0.66796 0.23731 0.62475 0.19845 1.2501 0.28005 1.919 0.20654 0.147-0.0147 0.29099-0.0342 0.43799-0.0513l0.0425 0.2666c-0.1911 0.40425-0.4555 0.6449-0.7544 0.81885-0.46795 0.27194-1.0341 0.28549-1.6099 0.32959zm7.6758-9.7676c-0.23275 0.0245-0.48678-0.0766-0.49658-0.36328 0.0465-0.37485 0.46274-0.48299 0.78369-0.45849l-6e-3 0.0176c0.1127-5e-3 0.25955 0.084 0.3208 0.22852 0.0857 0.1078 0.0932 0.27932-0.0513 0.41162-0.0269-7e-3 -0.0267-7e-3 -0.0586 0.0117-0.1029 0.0612-0.29374 0.1499-0.49219 0.15234zm-0.66064-1.4458c-0.59045-0.2156-0.16719-1.2658 0.44531-0.93017 0.0343-0.0196 0.0615-0.0132 0.0615-0.0132 0.27685 0.0171 0.4165 0.34072 0.41895 0.65186-0.24745 0.0759-0.42886 0.22294-0.66651 0.27685-0.0588 0.01-0.17107 0.01-0.25927 0.0146zm-2.6045-0.16845c-0.21805-0.1421-0.3566-0.34915-0.31495-0.6211 0.17395-0.12495 0.42734-0.22659 0.67969-0.21679 0.196 0 0.37353 0.0735 0.51563 0.28417 0.0294 0.40425-0.36541 0.5278-0.73536 0.5376-0.0613 0.0122-0.11316-1e-3 -0.14501 0.0161zm8.7349-0.1875c0.2891-0.34545 0.58365-0.69454 0.81885-1.0547 0.3577-0.50225 0.66368-1.0168 0.91113-1.519 2.0482-3.9837 1.9673-8.6628 4.8852-12.215l-0.0688 0.2666c-1.911 4.3096-1.4227 10.117-5.2324 13.515-0.196 0.20335-0.4093 0.37052-0.65185 0.53467-0.21315 0.16905-0.41956 0.31145-0.66211 0.47315zm-3.9565-0.70166c-0.11025-5e-3 -0.21841-0.0315-0.31641-0.0879-0.1764-0.0735-0.27175-0.24201-0.33545-0.43066-0.0294-0.2058 7e-3 -0.45111 0.15967-0.60791 0.098-0.0956 0.31768-0.12259 0.51123-0.11279v-6e-3c5e-3 0 0.011 6e-3 0.0132 6e-3 0.0196 0 0.0415-2e-3 0.0586 0l-7e-3 0.022c0.26215 0.1127 0.66128 0.34055 0.61963 0.6958-0.0196 0.39445-0.38462 0.49209-0.70312 0.52149zm-9.0044-0.0835c-0.0858 7e-3 -0.16666-0.0164-0.26221-0.0703-0.47285-0.24255-0.77489-1.2304 0.19776-0.96826 0.0269 7e-3 0.0542 0.0146 0.0542 0.0146 0.30625 0.2254 0.45582 0.51967 0.38232 0.89942-0.11515-2e-3 -0.33042-0.0347-0.37207 0.12451zm-4.0928-0.0557c-0.0523-0.0124-0.10577-0.038-0.15967-0.0747-0.19845-0.1078-0.38452-0.35783-0.45557-0.51709l0.44825-0.42041c0.0882-5e-3 0.1932 0.0243 0.2373 0.0659 0.2156 0.14455 0.29175 0.39163 0.36035 0.66357-0.12679 0.24071-0.2739 0.32004-0.43066 0.28272zm9.9478-0.73536c-0.0591-2e-3 -0.11285-9e-3 -0.16553-0.0234-0.63945-0.14455-0.77957-1.3185 0.27393-1.147l0.0293 0.0103c0.31605 0.0809 0.67391 0.32327 0.50976 0.73242-0.0907 0.23275-0.28947 0.23274-0.45117 0.41894-0.0735 7e-3 -0.13718 0.0106-0.19629 9e-3zm-8.439-0.41455c-0.0784-0.0269-0.12481-0.0649-0.17871-0.082-0.30135-0.1372-0.46422-0.5778-0.36622-0.94775 0.1568-0.27194 0.42012-0.19865 0.64307-0.0835 0.098 0.0539 0.17593 0.0765 0.27393 0.13037 0.2352 0.29156 0.16203 0.98291-0.37207 0.98291zm1.7637-1.2261c-0.0539-0.0172-0.0785-0.0248-0.10547-0.0322-0.30625-0.11025-0.43786-0.46039-0.47461-0.75439l0.62695-0.33985c0.0588-0.0122 0.10931-8e-5 0.12891 0.0366 0.40915 0.16416 0.58423 0.66815 0.37353 1.0356zm-3.6709-0.51563c-0.245-0.0367-0.45263-0.20483-0.59473-0.41308-0.2107-0.3724-0.19889-0.85054 0.2666-1.0049 0.0882-7e-3 0.15452-0.047 0.23291-0.0249 0.15925 0.0441 0.39489 0.10569 0.57129 0.18164 0.27685 0.1323 0.47835 0.32591 0.52735 0.68116-0.0931 0.34301-0.46395 0.55661-0.8584 0.56396-0.0343 0.0196-0.0863 6e-3 -0.14502 0.0161zm-3.999-1.5088c-0.52185-0.90404-0.87566-1.7984-1.106-2.7392-1.1882-4.7506 0.86326-9.815 1.7036-14.24 0.72765 4.0523-0.89528 7.9307-1.0986 11.963-0.0637 1.5166 0.0836 3.0883 0.62256 4.6538 0.0514 0.1274 0.0857 0.22222 0.13476 0.34717l-0.22265-4e-3zm54.306-0.57128-9.0996-9.7559 2.0698-1.9307 0.94629 1.0166 7.7344-7.21-0.95068-1.0195 2.0698-1.9307 4.9731 5.3335-2.0669 1.9307-1.2349-1.3228-2.7026 2.5239 0.88916 0.95215 1.3066-1.2173 1.6948 1.8149-4.4839 4.1807-1.6948-1.8135 1.2173-1.1338-0.88916-0.95361-3.0674 2.8608 3.2212 3.4526 1.8486-1.7271 2.1357 2.2925z" fill="#13284c"/>
   </g>
  </g>
 </g>
</svg>
