<?xml version="1.0" encoding="UTF-8" standalone="no"?>
<svg xmlns:rdf="http://www.w3.org/1999/02/22-rdf-syntax-ns#" xmlns="http://www.w3.org/2000/svg" xml:space="preserve" height="165.96" viewBox="0 0 202 165.96319" width="202" version="1.1" xmlns:cc="http://creativecommons.org/ns#" xmlns:dc="http://purl.org/dc/elements/1.1/"><g transform="matrix(1.25 0 0 -1.25 -537.52 1021.3)"><g style="" transform="matrix(2.0588 0 0 2.0588 -539.28 -793.21)"><path d="m546.86 774.1s-1.855-0.002-3.267-0.002c-0.814 0-1.315 0.001-1.493 0.002-6.911 0.019-9.811 1.418-13.483 3.19l-0.154 0.075c-3.943 1.93-8.852 4.331-18.333 4.331h-0.108-0.115c-9.481 0-14.389-2.401-18.333-4.331l-0.154-0.075c-3.672-1.772-6.572-3.171-13.492-3.19-0.17-0.001-0.669-0.002-1.485-0.002-1.411 0-3.265 0.002-3.265 0.002l-2.017 0.002 0.426-1.97c0.069-0.317 1.711-7.603 8.001-10.692 0.529-0.99 1.367-2.237 2.655-3.444 0.019-0.992 0.058-2.784 0.116-3.916 0.103-3.792 0.852-7.16 2.224-10.011 1.555-3.638 3.911-6.663 7.002-8.991l0.023-0.017c0.609-0.46 1.529-1.154 1.722-1.437 0.306-0.484 0.624-1.694 0.905-2.765 0.61-2.318 1.446-5.493 3.662-8.085 2.627-3.076 6.812-4.732 12.104-4.789l0.018-0.001 0.017 0.001c5.292 0.057 9.477 1.713 12.103 4.788 2.217 2.593 3.053 5.768 3.663 8.089 0.281 1.068 0.599 2.278 0.907 2.764 0.191 0.281 1.111 0.975 1.72 1.435l0.023 0.016c3.091 2.329 5.447 5.354 7.001 8.992 1.374 2.851 2.122 6.219 2.225 10.011 0.058 1.132 0.097 2.924 0.116 3.916 1.288 1.207 2.126 2.454 2.655 3.444 6.29 3.089 7.932 10.375 8 10.692l0.427 1.97-2.016-0.002" fill="#fff"/><path d="m499.09 723.74c-1.983 2.319-2.734 5.176-3.338 7.47-0.342 1.303-0.665 2.532-1.107 3.23-0.323 0.515-1.209 1.181-2.146 1.888-2.03 1.528-4.699 4.118-6.514 8.375l-0.009 0.021c-0.004 0.002-0.005 0.008-0.005 0.009-1.154 2.39-1.975 5.439-2.081 9.422-0.083 1.585-0.127 4.608-0.127 4.608-1.612 1.353-2.551 2.826-3.081 3.953-6.078 2.631-7.635 9.83-7.635 9.83s4.19-0.005 4.782 0c7.409 0.02 10.62 1.621 14.391 3.44 4.109 2.011 8.695 4.199 17.791 4.181 9.097 0.018 13.683-2.17 17.792-4.181 3.771-1.819 6.982-3.42 14.391-3.44 0.592-0.005 4.781 0 4.781 0s-1.556-7.199-7.634-9.83c-0.53-1.127-1.469-2.6-3.081-3.953 0 0-0.044-3.023-0.128-4.608-0.105-3.983-0.926-7.032-2.08-9.422 0-0.001-0.001-0.007-0.005-0.009l-0.009-0.021c-1.816-4.257-4.484-6.847-6.514-8.375-0.937-0.707-1.823-1.373-2.146-1.888-0.443-0.698-0.766-1.927-1.108-3.23-0.603-2.294-1.355-5.151-3.337-7.47-2.352-2.754-6.11-4.181-10.922-4.233-4.811 0.052-8.569 1.479-10.921 4.233" fill-opacity=".94118" fill="#0039a6"/><path d="m526.03 744.36c0.004 0.005 0.612 0.75 1.046 1.832 0.012 0.031 0.023 0.063 0.035 0.094-4.49 0.615-8.433 0.273-9.472 0.163 2.408-0.349 5.555-1.099 8.259-2.247l0.132 0.158zm-4.291 9.958c0.339 0 0.686-0.024 1.036-0.075-0.818 0.608-1.697 1.208-2.596 1.764-0.921-0.492-1.465-1.254-1.819-2.01l-0.248-0.519 0.542 0.22c0.872 0.353 1.94 0.62 3.085 0.62zm5.622-7.24c0.191 0.786 0.196 1.528 0.015 2.217-4.071-0.067-7.437-0.811-8.106-0.969 0.839-0.036 4.348-0.239 8.091-1.248zm-0.384 3.166c-0.281 0.452-0.74 0.99-1.331 1.574-2.531-0.395-4.532-1.132-5.34-1.461 1.116 0.085 3.88 0.233 6.671-0.113zm-20.548-25.827c-3.499 0-4.736 2.234-4.736 2.234-1.099 1.736-1.623 3.835-2.093 5.7-0.407 1.615-0.789 3.125-1.47 4.247-0.62 1.035-1.674 1.869-2.92 2.849-2.571 2.015-5.983 4.919-7.09 11.041h1.095c1.311 6.723 4.804 11.43 5.379 12.17-0.476 0.957-0.59 2.092-0.593 2.105 0.321-0.094 0.81-0.21 1.268-0.31 1.465 0.808 2.763 1.365 3.82 1.747 0.203 1.234 0.469 2.239 0.712 2.909 0.36 0.993 0.899 1.496 1.158 1.708 1.039 0.85 1.914 1.275 1.914 1.275-0.453-1.587-0.7-3.593-0.832-5.133 0.568-0.941 1.927-2.246 2.706-2.958 0.534 0.458 1.079 0.952 1.48 1.321 0.12 2.353 0.198 5.542 0.235 7.254-0.93 1.885-1.957 3.538-2.604 4.523-10.893-1.605-11.654-7.605-25.794-7.605 0.19-0.319 0.546-0.856 1.085-1.441 0.86-0.935 2.313-2.019 4.144-2.484 0.003 0 0.124-0.693 0.548-1.513 0.405-0.785 1.1-1.791 2.281-2.73 0 0 0 0.001 0.002 0.002 0.324 0.546 0.68 1.094 1.038 1.623-0.933 0.834-1.512 1.692-1.868 2.381-0.423 0.82-0.549 1.512-0.549 1.512-0.507 0.102-1.967 0.447-3.253 1.286 2.129-0.26 5.395 0.043 10.159 2.059v-0.001 0.001s-0.342-1.263-1.114-2.542c1.629 0.288 3.938 0.786 5.813 1.944-1.847-2.727-3.644-3.479-4.296-4.259-0.776-0.907-4.556-5.646-5.223-8.362-1.572-14.508 8.312-17.459 10.42-20.879 2.103-3.564 1.39-11.896 8.892-13.837 0 0 3.543-1.012 4.662 3.888 0 0-1.764-1.725-4.376-1.725zm9.579 30.668c-0.266 0.893-0.691 1.777-0.991 1.921-0.48 0.277-1.976 0.55-3.156 0.381 0.385 0.632 1.382 1.142 2.159 1.379-0.535 0.338-1.165 0.418-1.645 0.416-0.258-0.017-0.512-0.041-0.749-0.069 0.408 1.028 1.809 1.777 2.586 1.913-0.831 0.544-2.646 1.058-4.202-1.379-1.552 2.431-3.363 1.925-4.196 1.383 0.802-0.116 2.327-0.773 2.581-1.916v-0.001c-0.079 0.014-0.157 0.026-0.234 0.037-0.438 0.055-1.409 0.1-2.177-0.394 0.749-0.254 1.696-0.794 2.084-1.428-1.738 0.293-3.435-0.497-3.981-1.019l-0.352-0.331c-1.04 1.913-3.209 0.464-3.889 0.026 0.919-0.491 1.461-1.252 1.814-2.007l0.248-0.519-0.184 0.075c-0.796 0.296-4.044 1.239-7.252-1.651 1.282-0.323 2.935-0.838 4.119-1.484-2.718 0.272-5.813-0.71-5.813-0.71s4.334-0.299 6.881-1.455c-4.049-0.074-6.896-1.537-6.896-1.537s2.081 0.162 3.424 0.162c1.439 0 3.315-0.155 5.096-0.618-3.586-0.413-6.861-2.39-6.861-2.39s5.844 0.522 10.159 0.679c0.041 0.002-0.846 0.922-1.35 2.491 1.708-0.933 3.558-1.536 5.191-1.594-0.583 0.449-1.202 1.064-1.815 1.745-0.054 0.068-0.11 0.131-0.116 0.259 0.009 0.238 0.252 0.288 0.336 0.288 0.08 0 0.153-0.015 0.231-0.038 0.077-0.022 0.146-0.032 0.208-0.032 0.082 0 0.146 0.018 0.199 0.051 0.102 0.066 0.18 0.216 0.18 0.471 0.004 0.355-0.167 0.867-0.496 1.348-0.444 0.657-1.069 1.048-1.401 1.035-0.088-0.003-0.148-0.019-0.202-0.057-0.101-0.062-0.176-0.207-0.179-0.454-0.009-0.211-0.045-0.498-0.392-0.542-0.201 0.011-0.307 0.129-0.406 0.269-0.919 1.34-1.569 2.47-1.591 3.07 0 0.084 0.009 0.183 0.08 0.27 0.198 0.26 0.52 0.306 0.881 0.313 1.73-0.011 5.455-1.477 6.072-1.72 0.618 0.243 4.341 1.706 6.069 1.718 0.133-0.002 0.255-0.009 0.37-0.029-0.094 0.426-0.248 1.055-0.442 1.674zm0.155 22.015c-0.647-0.986-1.674-2.639-2.604-4.524 0.036-1.712 0.115-4.901 0.235-7.254 0.401-0.369 0.945-0.863 1.479-1.321 0.79 0.721 2.175 2.052 2.729 2.995 0 0 3.42-0.424 8.156-3.367-0.405 1.111-1.059 2.555-1.223 2.913-0.592 0.317-1.494 0.832-2.377 1.471-1.531 1.106-1.054 3.27-1.054 3.27 2.35-1.523 5.813-2.862 7.898-3.5-0.715 1.231-1.033 2.406-1.033 2.406 4.764-2.016 11.062-2.906 13.588-0.696-14.14 0-14.902 6.001-25.794 7.607zm-1.557-27.403c0.085 0.38 0.038 0.688-0.157 0.819-0.354 0.236-1.061-0.199-1.579-0.972-0.519-0.775-0.653-1.594-0.299-1.831 0.118-0.078 0.275-0.083 0.45-0.025 0.054 0.018 0.166 0.07 0.28 0.206 0.401 0.482 0.793 0.986 1.156 1.489 0.104 0.143 0.137 0.259 0.149 0.314zm-7.412-9.381 1.347-1.671s0.751 0.935 1.471 1.883c0.715-0.948 1.471-1.883 1.471-1.883l1.347 1.671c0.515-0.87 0.996-1.671 0.996-1.671 0.78 0.955 1.112 2.155 1.254 2.913-1.6 0.064-3.308 0.106-5.068 0.106-1.762 0-3.469-0.042-5.069-0.106 0.142-0.758 0.475-1.958 1.254-2.913 0 0 0.482 0.801 0.997 1.671zm9.813-5.146c2.112 1.834 2.775 4.73 2.976 6.102-1.182 0.087-2.5 0.174-3.914 0.242 0.869-2.245 0.575-5.848 0.58-6.176 0.007-0.366 0.148-0.352 0.358-0.168zm-16.97 6.102c0.205-1.372 0.868-4.268 2.978-6.102 0.213-0.184 0.352-0.198 0.358 0.168 0.005 0.328-0.289 3.931 0.58 6.176-1.414-0.068-2.73-0.155-3.916-0.242zm5.301-12.017c0.095 0.075 0.193 0.149 0.297 0.217 0.452 0.301 0.962 0.45 1.513 0.45 0.568 0 1.085-0.153 1.537-0.29 0.447-0.135 0.871-0.26 1.325-0.26 0.452 0 0.876 0.125 1.323 0.26 0.455 0.137 0.969 0.29 1.538 0.29 0.552 0 1.061-0.149 1.512-0.45 0.106-0.068 0.204-0.142 0.299-0.217 1.934 2.621 0.412 6.695 0.32 5.743-0.164-1.718-0.837-2.774-1.462-3.394-0.472 0.529-1.011 0.992-1.011 0.992s-0.754-0.822-1.258-1.491c-0.503 0.669-1.261 1.491-1.261 1.491s-0.752-0.649-1.257-1.292c-0.503 0.645-1.261 1.292-1.261 1.292s-0.537-0.464-1.01-0.996c-0.626 0.62-1.301 1.675-1.465 3.398-0.091 0.952-1.611-3.122 0.321-5.743zm-4.39 30.884c0.006-0.005 0.004-0.034 0.004-0.037 0-0.042-0.01-0.095-0.053-0.136-0.041-0.042-0.096-0.053-0.128-0.052-0.089 0.004-0.121 0.035-0.131 0.038-0.856 0.596-1.337 1.718-1.562 2.529-0.746-0.043-1.594-0.159-2.498-0.372 0.73-0.44 2.023-1.352 2.965-2.764 0.796 0.125 1.663 0.161 2.381 0.161 0.243 0 0.465-0.005 0.664-0.012 0.011 0.003 0.026 0.003 0.037 0 0.442 0.007 0.679 0.255 0.685 0.559 0 0.095-0.026 0.199-0.083 0.309-0.407 0.773-0.898 1.477-1.489 1.827-0.094 0.056-0.25 0.115-0.454 0.165-0.287-0.517-0.372-1.156-0.372-1.658 0-0.22 0.014-0.411 0.034-0.557zm18.159 0.557c0 0.502-0.086 1.141-0.373 1.658-0.203-0.05-0.36-0.109-0.454-0.165-0.591-0.35-1.082-1.054-1.489-1.827-0.057-0.11-0.083-0.214-0.083-0.309 0.006-0.304 0.243-0.552 0.685-0.559 0.012 0.003 0.026 0.003 0.037 0 0.199 0.007 0.421 0.012 0.665 0.012 0.717 0 1.584-0.036 2.38-0.161 0.942 1.412 2.235 2.324 2.965 2.764-0.904 0.213-1.752 0.329-2.497 0.372-0.226-0.811-0.707-1.933-1.563-2.529-0.009-0.003-0.042-0.034-0.131-0.038-0.032-0.001-0.086 0.01-0.128 0.052-0.043 0.041-0.053 0.094-0.053 0.136 0 0.003-0.002 0.032 0.005 0.037 0.019 0.146 0.034 0.337 0.034 0.557zm7.164 0.737 1.924-0.661c-0.407-0.157-3.472-1.428-5.563-4.163-0.778 0.44-1.653 0.763-2.305 0.97 0.456 0.015 0.98 0.015 1.489-0.023l0.155-0.011 0.08 0.13c1.269 2.085 3.596 3.426 4.22 3.758" fill="#fff"/></g></g></svg>
