<svg xmlns="http://www.w3.org/2000/svg" height="149.07" width="252" viewBox="0 0 252.00002 149.07173"><g><path d="m2.7074 1.1229s37.13 12.755 58.332 27.227c-29.877 13.039-42.338 56.05-42.338 56.05s10.506-4.5283 11.165-4.8105c-25.287 30.111-28.632 68.601-28.632 68.601s14.407-21.335 41.786-35.567c-4.3007 8.804-8.2873 16.969-8.6406 17.693l-0.08123 0.16829c-0.63082 1.3634-0.96329 2.9-0.96329 4.4335 0 1.8543 0.49751 3.6503 1.4333 5.1994 1.37 2.2543 4.1949 4.9326 9.9172 4.9326l158.59-0.0291c7.8342 0 13.776-0.9274 18.888-12.929 0.007-0.0113 13.776-32.635 13.776-32.635 0.35986-0.87588 0.78817-1.9255 1.149-3.0813 7.989-17.322 19.203-40.101 11.629-52.987-6.2209-10.582-16.297-14.771-33.865-15.604 0.0223-0.31494 0.0522-0.63421 0.0522-0.94588 0-2.7385-0.7639-5.3518-2.2864-7.7468-6.72-10.551-28.31-16.408-66-17.901h-0.0812l-143.83-0.0756z" fill="#a5acaf"/><path d="m26.035 5.3476s25.8 9.6377 43.538 24.152c-28.629 8.458-43.375 47.079-43.375 47.079 18.709-8.063 22.12-8.773 22.12-8.773-28.437 17.556-39.313 64.454-39.313 64.454s15.119-19.17 44.097-30.142c-5.8575 11.98-14.786 30.264-14.786 30.264l-0.03482 0.0812c-0.31012 0.67337-0.53388 1.5346-0.53388 2.4546 0 0.90173 0.21502 1.8646 0.76018 2.768 1.1233 1.8526 3.2011 2.7854 6.1802 2.7854l158.59-0.0291c7.0364 0 10.766-0.60682 14.856-10.202l13.771-32.62c1.3375-3.262 2.1287-5.8596 1.0387-7.9789-1.285-2.5085-4.249-4.0056-8.9772-3.9866l-63.299 0.02912c8.1117-7.508 19.579-9.6534 25.016-9.8418 6.379-0.21838 27.301-0.64562 35.3-0.33657 10.037 0.38253 13.396 3.1309 14.403 11.2 7.8-13.99 30.49-55.249-25.79-54.836 4.67-11.134-3.64-24.097-63.14-26.456l-120.42-0.0637z" fill="#041e42"/><path d="m186.46 46.504c-2.1725 2.0226-5.1259 3.096-8.2047 2.6751-4.8158-0.6542-8.3692-4.7419-8.7506-9.6071-20.347-6.9888-45.644-12.695-45.937-12.762-0.026 0-0.0468-0.000817-0.0602-0.000817-9.8707-2.1593-45.023-9.1413-52.299-10.594-0.8533-0.17084-1.3341-0.31828-1.3341-0.31828 14.206 4.262 36.906 16.384 41.031 18.617 10.961 0.60752 23.619 2.7593 38.156 7.0244 0 0-9.8848-0.60254-23.496-0.31159-24.197 0.54921-60.254 4.0329-73.999 19.143 11.971-4.6319 29.233-6.1413 42.294-3.7911 29.781-4.1443 55.667 8.2229 55.667 8.2229-12.234 0.23769-21.138 6.4179-21.138 6.4179s-63.931-9.6772-99.406 35.863c0 0 22.784-22.939 56.057-22.939h61.806s6.799-12.512 25.418-15.374c-5.3784-7.3954-22.186-13.783-22.186-13.783 24.911 0 25.57 1.0976 32.048-1.8051 7.349-3.2977 7.9566-4.5844 7.9566-4.5844-1.0567-0.69505-2.2725-1.3934-3.62-2.0918" fill="#a5acaf"/><path d="m204.92 39.811s-15.88 12.157-2.77 14.849c0 0-18.21 2.354-24.26 7.063 0 0 3.03 5.037 5.05 7.056 0 0 31.65-0.673 39.04 0 0 0-14.02-5.249-33.32-2.576l-2.02-2.914c8.05-3.366 29.97-1.902 29.97-1.902s13.29 1.039 18.03 9.115c0 0 14.92-28.616-13.66-29.647l-16.06-1.044zm-81.77 50.636c-5.69 0-7.78 3.097-7.87 3.227l-0.01 0.023-7.16 13.443c-0.72 1.34-0.82 2.46-0.3 3.33 0.64 1.07 2.1 1.58 4.46 1.58h9.78c0.24 0 6-0.04 7.94-3.68l7.51-14.104c0.52-0.982 0.33-1.696 0.08-2.12h-0.01c-0.99-1.648-4.61-1.699-5.02-1.699h-9.4zm-49.183 0.032l-0.002 0.003c-2.199 0-7.062 0.302-9.401 4.475-1.144 2.044-5.791 11.243-5.791 11.243-0.265 0.5-0.835 1.6-0.835 2.73 0 0.48 0.102 0.97 0.376 1.42 0.696 1.15 2.243 1.71 4.719 1.71h16.201l6.071-11.79h-12.035l-2.582 5h2.24c-0.381 0.74-0.759 1.47-0.934 1.81h-1.851c-0.918 0-1.074-0.21-1.09-0.24-0.012-0.02-0.03-0.05-0.03-0.13 0-0.14 0.064-0.44 0.354-1 0 0 4.392-8.53 5.264-10.224h3.863l-0.725 1.416h9.407l3.285-6.423h-16.504zm26.933 0.003c-7.045 0-9.504 5.1-9.683 5.491-0.011 0.018-8.576 16.117-8.576 16.117h20.209l1.14-2.14 0.02-0.1c0.02-0.15 0.03-0.29 0.03-0.43 0-0.54-0.16-1.02-0.5-1.42-0.49-0.58-1.3-0.91-2.29-0.92h-5.227c0.58-1.09 1.828-3.44 2.065-3.89h8.022l2.66-5.006h-8.01c0.3-0.568 0.62-1.166 0.62-1.166 0.54-1.01 1.6-1.528 3.16-1.528h6.92l2.67-5.008h-0.97-12.26zm41.41 0l-11.62 21.608h10.4s3.32-6.22 3.83-7.18c0.56 0.37 1.34 0.88 1.83 1.21-0.42 0.78-3.17 5.97-3.17 5.97h10.12l4.38-8.23s-1.84-1.06-2.87-1.65c1.48-0.52 4.64-1.62 4.64-1.62l3.19-5.877c0.3-0.547 0.41-1.026 0.41-1.422 0-0.438-0.13-0.777-0.28-1.027-1.03-1.722-4.54-1.782-4.93-1.782h-15.58-0.35zm31.51 0c-6.36 0.015-8.12 3.423-9.81 6.719-0.01 0.026-4.7 8.999-4.7 8.999-0.37 0.72-1.37 2.63-0.45 4.15 0.7 1.15 2.24 1.71 4.71 1.71h16.21l6.07-11.79h-12.04l-2.58 5h2.24c-0.38 0.74-0.76 1.47-0.94 1.81h-1.85c-0.92 0.01-1.07-0.21-1.09-0.23-0.01-0.02-0.02-0.06-0.02-0.13 0-0.15 0.06-0.44 0.35-1.01 0 0 4.39-8.526 5.26-10.22h3.86c-0.14 0.274-0.72 1.414-0.72 1.414h9.4l3.29-6.422h-0.94-16.25zm19.63 0l-11.5 21.608h10.13l11.5-21.608h-0.96-9.17zm16.25 0l-15.99 21.608h10.59l2.43-3.76h3.92c-0.46 1-1.71 3.76-1.71 3.76h9.93l6.54-14.766 0.01-0.017c1.01-2.038 1.15-3.598 0.43-4.76-0.87-1.394-2.86-2.066-6.1-2.065h-9.76-0.29zm-85.07 4.567h1.49c0.15 0.003 0.46 0.076 0.53 0.215 0.02 0.029 0.03 0.068 0.03 0.127 0 0.133-0.05 0.344-0.21 0.632 0 0-5.1 9.587-6.08 11.427h-1.53c-0.19 0-0.47-0.06-0.53-0.17-0.02-0.02-0.02-0.05-0.02-0.1 0-0.12 0.04-0.33 0.2-0.63 0 0 5.14-9.653 6.12-11.501zm90.59 0.928c0.78 0.025 0.91 0.193 0.91 0.203 0.01 0.015 0.03 0.047 0.03 0.109 0 0.147-0.07 0.473-0.4 1.166-0.01 0.007-2.12 4.585-2.71 5.865h-2.43c0.86-1.38 4.31-6.884 4.6-7.343zm-65.63 0.242h1.55c0.57 0 0.76 0.072 0.81 0.105 0 0.038-0.01 0.143-0.14 0.36h0.01s-0.54 1.003-0.77 1.433c-0.26 0.091-1.77 0.618-3.06 1.069 0.65-1.216 1.4-2.6 1.6-2.967zm-66.928 17.881c-4.886 0-6.963 3.11-7.051 3.24l-0.011 0.02-7.758 14.16c-0.26 0.47-0.95 1.73-0.301 2.83 0.549 0.93 1.827 1.37 3.916 1.37h8.328c0.209 0.01 5.166-0.03 7.16-3.67l7.729-14.11c0.593-1.08 0.404-1.83 0.14-2.28-0.89-1.51-3.811-1.56-4.138-1.56h-8.014zm16.51 0l-9.541 17.42c-0.26 0.47-0.952 1.73-0.301 2.83 0.547 0.93 1.827 1.37 3.916 1.37h8.324c0.22 0.01 5.17-0.03 7.16-3.67l6.98-12.74c1.11-0.01 4.55-0.02 5.69-0.03-0.81 1.53-8.79 16.67-8.79 16.67h8.75s8.47-16.07 8.78-16.67c0.56 0 4.75-0.01 5.43-0.01l-8.91 16.69h8.69s4.18-7.91 4.48-8.48h1.76c-0.73 1.38-4.48 8.48-4.48 8.48h8.68l11.67-21.86h-0.98-7.71s-3.96 7.36-4.26 7.93h-1.75c0.73-1.37 4.26-7.93 4.26-7.93h-8.68l-2.33 4.34c0.24-0.61 0.43-1.28 0.43-1.9 0-0.45-0.09-0.88-0.34-1.26-0.52-0.79-1.57-1.16-3.21-1.16h-9.83c-2.89 0-4.69 1.19-5.92 2.61l1.43-2.63h-0.99-7.82s-8.99 16.42-9.32 17.01h-1.303c-0.193 0-0.295-0.02-0.354-0.04 0.015-0.11 0.099-0.36 0.418-0.95l8.779-16.02h-8.808zm66.178 0c-5.74 0-8.29 5.31-8.39 5.53l-8.25 15.47-0.45 0.86h15.97l0.78-1.64c0.53-0.97 0.61-1.86 0.23-2.52-0.41-0.68-1.25-1.02-2.5-1.02h-3.02c0.59-1.1 1.86-3.46 2.1-3.9h6.03l2.71-5.04h-6.03c0.3-0.57 0.62-1.17 0.62-1.17 0.55-1.01 1.42-1.53 2.6-1.53h5.25l2.71-5.04h-0.98-9.38zm12.03 0l-11.67 21.86h8.78s3.63-6.88 4.22-7.99c0.47 0.4 0.88 0.77 1.22 1.06-0.38 0.71-3.64 6.93-3.64 6.93h8.54l4.8-9.09s-1.46-1.1-2.25-1.69c1.23-0.5 4.06-1.66 4.06-1.66l2.77-5.16c0.32-0.58 0.47-1.12 0.47-1.62 0-0.38-0.09-0.74-0.29-1.06-0.91-1.53-3.58-1.58-3.88-1.58h-12.78-0.35zm-116.9 0.02c-2.949 0-5.85 0.92-6.987 2.99-1.007 1.84-2.569 4.39-3.174 6.33-0.603 1.94 1.275 3.68 3.866 3.84 0.007 0 3.15 0.19 3.15 0.19 1.096 0.06 1.262 0.56 1.033 0.98 0 0-1.195 2.18-1.463 2.67h-1.166c-0.315 0-0.473-0.03-0.556-0.05 0.022-0.1 0.084-0.28 0.271-0.65 0.16-0.32 0.221-0.59 0.221-0.83 0-0.28-0.09-0.5-0.186-0.67-0.441-0.73-1.515-0.9-2.338-0.92h-5.349l-2.137 3.9c-0.039 0.08-0.625 1.32 0.065 2.42 0.585 0.93 1.858 1.4 3.783 1.4h8.49c0.226 0 5.413-0.11 7.143-3.27 0.003 0 2.767-5.2 2.767-5.2 0.458-0.82 0.621-1.51 0.621-2.07 0-0.51-0.133-0.92-0.291-1.22-0.506-0.95-1.666-1.57-3.179-1.71-0.004 0-2.993-0.24-3.186-0.26-0.338-0.05-1.298-0.19-1.404-0.36-0.002 0-0.006-0.01-0.006-0.05 0-0.11 0.055-0.41 0.471-1.17 0 0 0.619-1.14 0.921-1.7h2.026c-0.256 0.49-0.963 1.82-0.963 1.82h8.5l3.367-6.41h-0.941-13.369zm137.98 0.34l-0.16 0.32-10.36 21.12h8.31s2.97-6.29 4.11-8.69c0.31 2.52 1.08 8.69 1.08 8.69h3.05 0.02c1.64-0.11 4.73-1.09 6.86-6.38l6.09-14.27 0.34-0.78h-7.97s-2.51 5.73-3.54 8.09c-0.37-2.46-1.21-8.09-1.21-8.09l-6.62-0.01zm-114.79 4.27h1.207c0.083 0 0.246 0.05 0.285 0.12 0.012 0.02 0.018 0.05 0.018 0.1 0 0.13-0.054 0.37-0.256 0.73l-6.262 11.44h-1.258c-0.111 0-0.261-0.06-0.285-0.09-0.007-0.02-0.006-0.04-0.006-0.08 0-0.11 0.045-0.34 0.25-0.72 0 0 5.293-9.65 6.307-11.5zm99.788 0.41h1.21c0.29 0 0.42 0.04 0.49 0.06-0.01 0.07-0.05 0.19-0.16 0.41 0 0-0.56 1.03-0.79 1.45-0.21 0.09-1.21 0.51-2.29 0.95 0.66-1.23 1.35-2.51 1.54-2.87z" fill="#a99260" transform="translate(-.0014496)"/><path d="m114.3 14.939c-20.687 0.07-38.893 0.8-44.458 0.969 0 0 0.48 0.15 1.334 0.321 7.274 1.452 42.434 8.43 52.304 10.589 0.13 0.004 0.84 0.02 0.97 0.024 38.1 0.759 54.31 3.274 71.05 7.855 4.04-4.43 9.2-11.805-21.82-16.758-15.51-2.477-38.68-3.069-59.38-3zm-11.13 19.405c-32.216 0.36-47.635 14.997-51.637 26.039 21.49-23.62 97.497-18.832 97.497-18.832-18.07-5.302-33.25-7.347-45.86-7.207zm70.11 3.267c-0.01 0.03-0.02 0.063-0.02 0.088-0.51 3.703 1.96 7.115 5.49 7.596 3.2 0.438 6.2-1.676 7.11-4.828-0.7-0.172-1.47-0.354-2.28-0.545-0.43 2.204-2.42 3.718-4.57 3.422-1.76-0.244-3.1-1.629-3.43-3.354 0.26 0.418 0.67 0.698 1.13 0.698 0.79 0 1.42-0.786 1.42-1.754 0-0.1-0.01-0.186-0.02-0.278-0.86-0.194-1.75-0.389-2.64-0.58-0.73-0.161-1.46-0.314-2.19-0.465zm40.6 7.336c-0.01 0 4.2 3.896-5.46 6.074 0 0 8.1 1.092 9.81-3.429 0 0 13.01 0.673 13.89 10.301 0 0 3.96-12.927-18.24-12.946zm-107.12 10.783c-0.78-0.003-1.55 0.004-2.34 0.02-25.07 0.503-55.202 11.074-75.465 51.34 35.475-45.539 99.405-35.858 99.405-35.858s8.9-6.181 21.14-6.42c0 0-18.78-8.978-42.74-9.082zm16.39 35.868c-4.92 0-6.74 2.485-6.89 2.693-0.33 0.628-7.13 13.389-7.13 13.389-0.14 0.26-0.49 0.92-0.49 1.54 0 0.23 0.04 0.45 0.16 0.65 0.4 0.67 1.6 1.02 3.47 1.02h9.77c0.06 0 5.32-0.04 6.93-3.06l7.51-14.113c0.15-0.28 0.19-0.491 0.19-0.645 0-0.179-0.06-0.28-0.09-0.33-0.47-0.779-2.64-1.141-4.03-1.144h-9.4zm-22.25 0.035c-6.389 0-8.547 4.629-8.636 4.828l-0.006 0.023-0.012 0.018h0.006s-6.871 12.908-7.678 14.428h17.586c0.21-0.39 0.64-1.19 0.72-1.34 0-0.06 0.01-0.12 0.01-0.17 0-0.27-0.07-0.49-0.23-0.67-0.27-0.32-0.77-0.51-1.41-0.52h-7.152l3.3-6.2h8.022c0.21-0.4 0.94-1.77 1.43-2.696h-8.018l1.538-2.867c0.51-0.979 1.65-2.141 4.17-2.141h6.23c0.21-0.396 0.94-1.765 1.43-2.693h-11.3zm-27.629 0.006c-1.295 0-5.262 0.563-6.9 2.814-1.636 2.251-6.568 12.277-6.568 12.277-0.199 0.38-0.698 1.34-0.698 2.2 0 0.29 0.055 0.57 0.204 0.81 0.454 0.75 1.745 1.15 3.726 1.15h15.492c0.283-0.54 4.169-8.09 4.881-9.47h-9.429c-0.209 0.4-0.913 1.77-1.387 2.7h2.234l-2.123 4.11h-2.56c-1.074 0.01-1.754-0.25-2.082-0.78-0.426-0.7-0.073-1.58 0.283-2.27l5.59-10.854h6.462s-0.583 1.141-0.724 1.416h6.807c0.235-0.462 1.535-2.999 2.101-4.103h-15.309zm69.739 0c-0.31 0.569-9.55 17.751-10.38 19.291h7.77c0.3-0.56 4.09-7.69 4.09-7.69l3.78 2.48-2.76 5.21h7.5c0.28-0.53 3.09-5.8 3.53-6.63-0.72-0.41-4.11-2.34-4.11-2.34s6.22-2.189 6.61-2.325c0.2-0.365 2.99-5.473 2.99-5.477 0.21-0.386 0.26-0.663 0.26-0.871 0-0.234-0.07-0.372-0.11-0.435-0.53-0.88-2.7-1.21-3.94-1.213h-15.23zm30.81 0c-5.65 0.015-7.1 2.83-8.79 6.121l-4.69 8.97c-0.19 0.38-0.69 1.34-0.69 2.2 0 0.29 0.05 0.58 0.2 0.82 0.46 0.75 1.74 1.14 3.73 1.14h15.49c0.29-0.54 4.17-8.08 4.89-9.47h-9.44c-0.21 0.41-0.91 1.77-1.39 2.69h2.24l-2.13 4.12h-2.55c-1.08 0.01-1.76-0.25-2.08-0.78-0.43-0.7-0.08-1.58 0.28-2.27l5.58-10.854h6.47s-0.58 1.141-0.72 1.416h6.8c0.24-0.462 1.54-2.999 2.1-4.103h-15.3zm20.32 0c-0.3 0.572-9.44 17.751-10.26 19.291h7.51c0.3-0.57 9.44-17.751 10.26-19.291h-7.51zm16.14 0c-0.32 0.438-13.04 17.631-14.27 19.291h7.66c0.29-0.46 2.43-3.76 2.43-3.76h6.35s-1.26 2.76-1.71 3.76h7.37c0.29-0.66 6.25-14.098 6.25-14.098l0.01-0.029c0.52-1.037 0.77-1.886 0.77-2.576 0-0.414-0.09-0.767-0.27-1.067-0.62-0.993-2.39-1.521-5.12-1.521h-9.47zm-86.34 2.246h2.2 0.01 0.01c0.1 0.001 1.06 0.05 1.49 0.789 0.3 0.506 0.25 1.141-0.15 1.892l-6.41 12.044h-2.22c-0.11 0-1.09-0.01-1.53-0.73-0.3-0.49-0.25-1.12 0.15-1.88l6.45-12.115zm90.96 0.927c0.8-0.015 1.78 0.055 2.22 0.739 0.44 0.693 0.07 1.607-0.31 2.396l-3.02 6.523h-5.27l6.07-9.652 0.31-0.006zm-66 0.245h0.35 1.89c0.66 0 1.47 0.075 1.82 0.668 0.24 0.399 0.21 0.91-0.12 1.507l-0.98 1.823-6.31 2.215 3.35-6.213zm-87.945 20.213c-1.432 0-5.046 0.11-6.385 2.26-1.336 2.15-2.709 4.76-2.709 4.76l-0.244 0.76c-0.153 0.47-0.203 0.79-0.203 0.99s0.145 1.93 3.094 2.14c0 0 2.881 0.14 2.888 0.14 0.948 0.05 1.873 0.19 2.241 0.85 0.106 0.19 0.15 0.38 0.15 0.59 0 0.43-0.203 0.88-0.406 1.24l-1.793 3.28h-1.85c-0.606 0-1.271-0.07-1.586-0.58-0.327-0.53 0.054-1.32 0.268-1.81 0.216-0.49-0.369-0.71-1.281-0.73h-4.655c-0.275 0.5-1.767 3.23-1.793 3.27-0.009 0.03-0.14 0.32-0.14 0.68 0 0.19 0.041 0.4 0.164 0.59 0.354 0.56 1.324 0.86 2.797 0.86h8.482c0.049 0 4.733-0.1 6.135-2.66 0 0 2.764-5.2 2.767-5.21 0.345-0.62 0.683-1.5 0.319-2.19-0.319-0.6-1.14-1-2.25-1.1l-3.215-0.26h-0.023c-1.17-0.17-1.959-0.33-2.288-0.99-0.309-0.62-0.028-1.36 0.483-2.3l1.26-2.3h4.625s-0.711 1.35-0.965 1.83h5.879l2.181-4.11h-11.947zm62.095 0c-2.86 0-4.45 1.34-5.56 2.86 1.46 0 5.83-0.01 5.83-0.01s-7.98 15.14-8.79 16.67h6.12l8.8-16.67h5.44c0.26-0.66 0.4-1.19 0.4-1.59 0-0.25-0.05-0.45-0.16-0.61-0.28-0.42-1.05-0.65-2.23-0.65h-9.85zm-40.39 0c-4.146 0-5.92 2.5-6.051 2.7-0.298 0.54-7.742 14.11-7.742 14.11-0.13 0.24-0.424 0.77-0.424 1.25 0 0.15 0.03 0.29 0.106 0.42 0.177 0.3 0.788 0.8 2.906 0.8h8.328c0.043 0 4.477-0.04 6.133-3.06l7.73-14.11c0.391-0.72 0.21-1.02 0.151-1.12-0.432-0.74-2.291-0.98-3.123-0.99h-8.014zm17.207 0c-1.239 2.27-9.211 16.81-9.211 16.81-0.13 0.24-0.422 0.77-0.422 1.25 0 0.15 0.029 0.29 0.104 0.42 0.178 0.3 0.791 0.8 2.908 0.8h8.324c0.05 0 4.48-0.04 6.13-3.06 0 0 8.03-14.65 8.88-16.22h-6.12c-0.32 0.59-9.32 17.02-9.32 17.02h-2.005c-0.259 0-1.04 0-1.387-0.59-0.105-0.18-0.15-0.37-0.15-0.57 0-0.48 0.267-1.02 0.568-1.57 0 0 6.984-12.74 7.824-14.29h-6.123zm39.163 0c-0.31 0.58-9.59 17.96-10.41 19.52h6.02l4.48-8.49h4.41s-3.75 7.1-4.49 8.49h6.04c0.31-0.58 9.59-17.96 10.43-19.52h-6.04c-0.31 0.57-4.26 7.93-4.26 7.93h-4.41s3.52-6.55 4.26-7.93h-6.03zm26.32 0c-4.99 0-7.24 4.67-7.35 4.89h0.01s-6.99 13.09-7.8 14.63h13.29c0.17-0.38 0.48-1.02 0.48-1.02v-0.01c0.22-0.39 0.33-0.74 0.33-1.02 0-0.14-0.03-0.25-0.08-0.35-0.17-0.29-0.7-0.44-1.48-0.44h-4.98l3.35-6.24h6.03c0.22-0.4 0.95-1.77 1.45-2.7h-6.03l1.56-2.9c0.75-1.4 2.01-2.14 3.63-2.14h4.54c0.21-0.39 0.95-1.76 1.46-2.7h-8.41zm12.73 0c-0.3 0.58-9.59 17.96-10.42 19.52h6.12c0.31-0.58 4.59-8.68 4.59-8.68l3.03 2.64s-2.5 4.75-3.18 6.04h5.9c0.29-0.55 3.61-6.82 4.01-7.58-0.58-0.44-3.09-2.33-3.09-2.33s5.21-2.14 5.57-2.29c0.18-0.34 2.57-4.79 2.57-4.79 0.35-0.65 0.42-1.17 0.21-1.53-0.48-0.81-2.29-0.99-2.88-1h-12.43zm21.07 0.32c-0.29 0.58-8.7 17.71-9.42 19.18h5.8c0.28-0.6 5.46-11.55 5.46-11.55s1.32 10.66 1.43 11.55h2.03c1.38-0.1 3.96-0.97 5.87-5.69 0 0 5.16-12.08 5.76-13.48-1.22 0-4.95-0.01-5.52-0.01-0.28 0.63-4.82 11.01-4.82 11.01s-1.51-10.14-1.64-11.01h-4.95zm-116.19 1.95h1.926 0.006 0.005 0.012c0.092 0.01 0.886 0.05 1.266 0.72 0.293 0.51 0.217 1.18-0.227 1.99l-6.597 12.04h-1.944c-0.091 0-0.9 0-1.295-0.66-0.301-0.49-0.231-1.16 0.215-1.97l6.633-12.12zm99.791 0.43h0.35 1.56c0.32 0 1.16 0 1.52 0.61s-0.03 1.34-0.16 1.58l-0.98 1.82-5.71 2.35 3.42-6.36z" fill="#fff" transform="translate(-.0014496)"/><path fill="#041e42" d="m206.49 45.005c0.2961-0.04127 0.58127-0.03414 0.82983 0.03482 0.99585 0.27928 1.0724 1.3951 0.18569 2.5011-0.88913 1.1034-2.4056 1.7771-3.3948 1.4972-0.9925-0.27744-1.0832-1.3968-0.19149-2.5011 0.66624-0.82754 1.6824-1.4082 2.5707-1.532z"/></g></svg>
