<svg xmlns="http://www.w3.org/2000/svg" width="172" height="247.56" viewBox="0 0 172 247.56">
 <g transform="matrix(2.5834 0 0 2.5834 1.2987 -1.1477)">
  <path d="m65.805 26.539v-25.592h-65.805v25.592h14.624v43.87h-14.624v25.591h65.805v-25.592h-14.622v-43.87h14.622z" fill="#13294b"/>
  <path d="m51.183 22.882h10.967v-18.279h-58.495v18.279h10.969a3.657 3.657 0 0 1 3.655 3.656v43.87a3.658 3.658 0 0 1-3.655 3.657h-10.969v18.279h58.496v-18.28h-10.968a3.657 3.657 0 0 1-3.657-3.656v-43.87a3.656 3.656 0 0 1 3.657-3.656z" clip-rule="evenodd" fill="#ff5f05"/>
 </g>
</svg>