<svg xmlns="http://www.w3.org/2000/svg" height="152" width="240" viewBox="0 0 240 152">
 <g transform="matrix(1.33 0 0 -1.33 -112 660)">
  <g transform="translate(.71 -.71)">
   <path d="m257 457 4.98 3.52s-18.9 34.6-88.8 34.6c-58.8 0-81.1-25.3-85.9-31l3.55-5.46c-4.37-6.24-6.65-13.1-6.64-20.2 0.0146-9.11 3.93-18 11.1-25.4l-0.981-4.96c-0.316-1.61-2.02-7.13 6.52-7.11 1.7 3e-3 3.07 0.153 4.45 0.76l0.342-0.593 5.91 0.01c11-5.8 24.4-9.87 40-11.9-3.4e-4 6.8e-4 -6.8e-4 6.8e-4 -2e-3 6.8e-4 0.69-0.347 1.4-0.431 1.91-0.393 0.139-0.418 1.02-3.39 1.33-3.86 2.06-3.24 3.75-2.63 4.66-1.91 1.44 0.981 2.13 3.23 1.41 5.21 0 0 4.7-0.339 6.73-0.292 1.22-3.07 2.66-4.72 3.82-5.29-0.167 1.28-0.362 3.08-0.464 5.15 0.685-0.01 4.31-5e-3 4.86 2e-3 -0.0231-1.68-0.119-3.37-0.286-5.06 2.4 0.433 3.67 2.91 4.65 4.9 6.8e-4 2e-3 1e-3 7e-3 2e-3 9e-3 -0.0617-0.326-0.0967-0.67-0.0967-1.03 4e-3 -2.6 1.97-4.13 3.17-4.13 1.22 2e-3 2.17 0.93 3.16 2.49 0.303 0.477 0.581 1.42 0.902 2.51 0.0851 0.289 0.171 0.582 0.259 0.861 18.8 1.53 35.2 6.06 47.8 12.8h-0.0353c4.61 0.0432 7.83 0.597 8.86 5.54 22.8 16.9 20.4 38.2 12.9 50.3m-76.9-69.3c2e-3 0.0174 6e-3 0.033 9e-3 0.048 6e-3 0.0303 0.0129 0.0599 0.0197 0.0895-0.0105-0.0443-0.0197-0.0909-0.0285-0.138" fill="#231f20"/>
   <path d="m139 433c-4.73-1.32-10.4-6.2-10.4-6.2h3.62c2.89 3.72 6.82 6.2 6.82 6.2zm63.8 0s3.92-2.49 6.81-6.2h3.62s-5.7 4.88-10.4 6.2zm-53.4-1.37c-3.79-1.71-6.69-4.86-6.69-4.86h2.89c0.926 2.24 3.8 4.86 3.8 4.86zm43 0s2.87-2.62 3.8-4.86h2.88s-2.9 3.16-6.69 4.86zm-49.7-0.962c-3.2-1.33-5.37-3.9-5.37-3.9h1.77c1.04 1.93 3.6 3.9 3.6 3.9zm56.3 0s2.56-1.97 3.6-3.9h1.77s-2.16 2.57-5.37 3.9z" fill="#918f90"/>
   <path d="m193 440c-0.302-3e-3 -0.466-0.0103-0.466-0.0103 10.4-1.89 15.8-5.78 15.8-5.78-1.44 1.44-3.54 3-3.54 3 2.33-0.221 5.54-1.33 5.54-1.33-6.39 3.98-15.2 4.14-17.4 4.12zm-49.9-1.01c-6.48-0.28-11.1-3.16-11.1-3.16 2.99 0.887 4.59 0.996 4.59 0.996l-1.61-1.66c4.15 2.72 8.14 3.83 8.14 3.83z" fill="#bdbcbc"/>
   <path d="m167 431c-0.11-0.998-0.719-1.27-0.719-1.27-1.77-0.778-1.72-2.77-1.72-2.77h5.87zm8.66 0-3.43-4.04h5.87s0.0505 1.99-1.72 2.77c0 0-0.611 0.277-0.721 1.27z" fill="#656263"/>
   <path d="m173 492c-58 0-81.4-27.3-82.2-28.2l3.25-5.01c0.0078 0.01 0.0156 0.0198 0.0234 0.0293-4.91-6.26-7.47-13.3-7.46-20.5 0.0122-7.93 3.13-15.6 9.06-22.3l0.942 4.76c0.832 4.29 2.68 5.62 5.42 6.06-3.87 5.71-3.88 10.8-3.67 13.2-2.38 1.03-4.19 2.3-4.19 2.3s2.12 0.546 4.85 1.25c2.05 7.17 18 31.3 74 31.3 56 0 73-24.3 74.2-31.4 2.16-0.547 3.51-1.09 3.51-1.09-0.0159-0.0116-1.16-0.827-2.97-1.71 0.275-2.36 0.739-7.33-3.82-13.9 3.06-0.937 3.34-3.56 2.82-6.14l-1.08-5.46-1.33-3e-3c1.03-1.61 0.712-3.27 0.463-4.35 19.1 15.7 17.2 34.5 8.17 46.9l4.6 3.25c-1.42 1.97-21.8 30.9-84.6 30.9zm-4.75-23.9c7.05-0.864 4.36-8.03 3.17-9.77 0.403-0.173 0.722-0.545 0.942-1.07 1.65 3.42 1.92 4.57 1.99 6.82 0.0583-0.191 0.504-3.63-1.69-7.29 1.18-0.827 0.971-2.55 0.461-4.16 0.334 0.681 0.781 1.34 1.41 1.98 0.395 0.407 1.03 1.43 1.54 2.73 1.61 4.16 1.5 9.85-7.82 10.8zm8.54-0.911c-0.602-0.0344-1.3-0.121-2.09-0.292l0.724-0.413s1.64 0.686 4.11 0.438c0 0-0.942 0.37-2.75 0.267zm-5.7-1.67c-3.76-2.36-3.07-6.66-2.11-9.16 0.138 0.225 0.269 0.437 0.388 0.627 0.0465 0.707 0.467 1.04 0.719 1.2 1.57 3.28 1.85 5.98 1 7.33zm-14.2-0.144c5.48-1.48 4.74-4.64 3.84-6.43l0.611-1.31c1.88 2.94 1.15 4.52 1.15 4.52 1.05-1.7-0.0541-3.86-0.88-5.09l1.07-2.29c2.56 2.86 4.25 7.19-0.546 9.4-2.35 1.08-5.24 1.19-5.24 1.19zm31.5-0.873s-2.91-0.122-5.27-1.22c-2.39-1.12-4.29-3.28-2.08-7.5 0 0 0.01-0.01 0.0249-0.0278l1.06 1.54-0.686-2c0.353-0.438 0.886-1.12 1.37-1.81 0.256 0.227 1.78 1.39 1.78 1.39-0.651 0.773-3.25 4.02-1.82 6.37 0 0-0.971-2.13 2.25-6.05l0.957 0.713c-1.43 1.62-4.81 6.62 2.41 8.61zm-49.3-5.57c6.82-1.24 7.45-7.15 7.78-8.24 0.11-1.11 0.74-2.02 1.63-2.76 0.525 6e-3 1.03 1.9e-4 1.5-0.0161-0.831 0.417-1.9 1.26-1.83 2.4 0.0929 1.43-1.84 5.16-1.84 5.16 0.587-0.365 2.57-3.08 2.42-4.94-0.107-1.33 1.17-2.23 1.94-2.65v-1e-3c1.83-0.107 3.26-0.368 4.29-0.633-3.84 1.88-3.86 3.61-3.86 3.61-2.33 7.09-10.5 7.88-12 8.07zm21.5-0.256c-0.791-1.44-2.51-3.09-2.69-3.37l0.895-1c0.427 0.664 1.88 2.35 2.27 2.91zm-1.28-0.401c-6.93-0.353-7.99-2.89-7.12-4.62 0.52 2.29 2.95 2.88 5.64 2.93 0.483 0.398 1.48 1.69 1.48 1.69zm47-0.236s-2.4-0.134-5.07-1.19c-2.7-1.07-5.75-3.1-7.02-7.03 0 0-8e-3 -0.708-1-1.72 0.7-0.0174 1.44-0.082 2.23-0.207l0.521-0.0835c0.402 0.451 0.693 1.02 0.636 1.69-0.157 1.89 1.83 4.64 2.42 5.01 0 0-1.93-3.78-1.83-5.23 0.042-0.61-0.238-1.14-0.634-1.56l0.224-0.0366c0.517 0.42 1.04 0.836 1.57 1.25 0.33 1.03 0.636 7.74 7.95 9.1zm-41.1-0.363c0.0407-0.437-1.8-2.97-1.8-2.97 1.62-0.734 1.35-2.38 0.914-3.52 0.125-0.269 0.946-2.05 1.6-3.74 0.378 0.193 0.823 0.35 1.23 0.529-0.0327 0.308-0.041 0.505-0.041 0.505-1.42 1.48 0.18 3.91 0.18 3.91 0.874 4.79-2.08 5.29-2.08 5.29zm5.73-0.334c-0.245 0.0109-0.465-0.148-0.5-0.218-0.42-0.846 0.612-1.32 0.568-2.99 0.951 1.27 0.0815 2.13 0.59 2.4-0.142 0.609-0.414 0.79-0.659 0.801zm15.2-0.0527c0.623-0.869 1.43-1.69 1.43-1.69 0.981 0.0238 2.92-0.0677 4.24-1.02l1.12 0.429c-0.511 0.712-1.58 1.42-3.71 1.88-0.816 0.153-1.98 0.316-3.09 0.404zm-43.5-0.352c-4.33-6e-3 -6.91-0.58-8.4-1.14 1.95 0.215 3.94 0.0976 5.89-0.224 2.86 0.0119 4.56-0.986 4.56-0.986-0.265 0.991-2.04 2.35-2.04 2.35zm37.3-0.256c-1.31-0.0783-3.06-2.78-1.9-5.67 0.419 0.888 2.62 4.28 2.62 4.28-0.394 0.61-0.739 1.21-0.721 1.4zm-18.7-0.103c-0.552-0.75-1.89-2.16-2.17-2.61 0 0 1.55-1.74 1.93-2.21 0.149 0.338 0.754 1.7 1.08 2.2zm10.8-0.505c-0.574-0.224 0.74-0.887-1.05-2.99-0.503-0.595 0.145-0.911 0.223-1.35 0.208-1.17 0.489-0.527 1.27-1.79-0.263 1.38-0.915 1.5-0.507 2.35 0.259 0.538 0.622 1.98 0.624 1.98 0.079 0.539 0.106 1.52-0.558 1.81zm30.6-0.0645s-1.79-1.38-2.05-2.39c0 0 1.7 1.01 4.58 1.01 1.2 0.204 2.41 0.33 3.63 0.349 0.273 0.121 0.541 0.237 0.809 0.347-1.57 0.382-3.8 0.685-6.97 0.68zm-16.6-0.183-0.631-1.1c0.0967-0.111 0.198-0.223 0.3-0.335 0 0 0.639-0.722 1.2-1.75 0.26 0.121 0.525 0.235 0.797 0.34l0.391 0.148c-0.404 0.778-0.946 1.69-1.44 2.08-0.129 0.102-0.354 0.318-0.623 0.618zm-49.2-0.305c-0.643 0.0155-1.3 0.0207-1.93-0.0102 0.449-0.171 0.905-0.357 1.37-0.56 0.865 0.261 1.67 0.426 2.42 0.52-0.587 0.01-1.22 0.0342-1.86 0.0498zm-1.93-0.0102c-9.9e-4 3.8e-4 -2e-3 1e-3 -3e-3 1e-3v-1e-3c9.5e-4 5e-5 2e-3 -5e-5 3e-3 0zm34.9-0.0615c-0.508-0.799-0.903-1.48-1.4-2.65 0.314 0.415 1.02 0.776 1.56 0.778 0.366 1.04-0.134 1.79-0.163 1.87zm49-0.738c-4.42 0.0469-8.76-1.44-12.5-3.43-4.18-2.21-7.6-5-9.77-7 0.0176-2e-3 0.0369-4e-3 0.0542-7e-3 2.04-0.277 4.5-0.784 7.09-1.7 1.62 1.03 3.22 2.26 4.81 3.5 3.38 2.61 6.75 5.23 10.2 5.91 7 1.38 11.4-5.57 11.4-5.57l-2.99-0.292 1.81-2.75 5.1-1.65c6.3-3.67 13.4 0.473 13.3 0.425l-15.7 2.46-1.57 0.945 3.35-0.127-1.14 1.07c-4.75 7.04-11.6 8.11-11.6 8.11-0.634 0.0725-1.27 0.11-1.9 0.117zm-61.2-0.0103c-0.577-1.02-1.01-1.95-1.16-2.78 0 0 1.03-0.572 1.23-0.703 0.0614 0.785 0.355 1.56 0.697 2.23zm23.6-0.105s-1.08-3.17-1.34-4.68c0.236 0.374 0.504 0.768 0.8 1.17-0.18 0.981-0.024 2.04 1.19 2.6 0 0-0.292 0.4-0.642 0.911zm-54.3-0.019c-0.769 3e-3 -1.54-0.0399-2.32-0.136 0 0-5.79-0.927-10.4-6.6-0.393-0.483-0.776-0.999-1.15-1.55l-1.14-1.07 3 0.0703 0.352 0.0688-1.57-0.949-15.7-2.51c0.662-0.381 3.72-2.01 7.44-2.01 1.87 2e-3 3.91 0.422 5.9 1.63l5.09 1.67 1.8 2.76-2.99 0.281c7.29 9.21 13.2 7.09 26.2-3.58 2.21 0.617 4.76 1.1 7.68 1.31-0.0678 0.0625-10.6 10.6-22.2 10.6zm66.4 0-0.841-0.469c0.348-0.382 0.612-0.857 0.749-1.45 0 0 0.531 0.903 0.0923 1.92zm-8.12-0.315-0.571-0.996c-0.196-0.34-0.472-0.834-0.779-1.42 0.0454-0.103 0.0843-0.199 0.113-0.287 0.057-0.177 0.157-0.386 0.27-0.625 0.694 0.547 1.47 1.07 2.33 1.5-0.297 0.6-0.733 1.22-1.36 1.82zm-9.48-0.0864c-0.682-1.02-1.26-1.72-1.4-1.89-0.589-0.7-0.777-1.8-0.699-2.37 0.698-0.243 1.41-0.834 1.61-1.92 0.411-0.139 0.808-0.44 1-0.968 0.0963-0.0507 0.187-0.0973 0.271-0.141 0.318 0.866 0.712 1.89 1.14 2.9-0.431 1.73-1.36 3.46-1.92 4.38zm-3.02-1.05c-0.45-1.33-0.414-1.35-0.201-2 0.0593 0.678 0.124 1.35 0.201 2zm-14-0.166c-0.306-0.816-0.368-1.58-0.328-2.22 0.738-0.555 1.81-1.47 2.99-2.83-0.0102 0.0272-0.0217 0.0553-0.0322 0.0835-0.876 1.28-2.85 3.02-2.85 3.02 0.696-0.251 1.32-0.543 1.87-0.847-0.25 0.473-1.65 2.79-1.65 2.79zm11.3-0.451c-0.465 0.014-0.951-0.421-0.951-1.06-0.0214-0.8 1.38-1.39 1.25-2.7 1e-3 -0.987-0.562-1.94 0.229-2.74 0.738-0.742 0.892-1.79 1.33-2.03-0.148 1.7 1.85 4.82-0.223 6.39-0.787 0.597-0.446 0.738-0.924 1.57-0.154 0.383-0.424 0.554-0.703 0.562zm13.1-0.331s-2.06-2.37-3.65-5.38c0.203-0.25 0.315-0.984 0.374-1.58 0.115 0.239 0.188 0.397 0.188 0.397 0.0912-0.225 0.0107-0.796-0.0762-1.25 1.49 0.406 2.33 1.66 2.33 1.66-0.145-1.4-1.04-2.61-1.69-3.19 0.41-0.496 0.625-1.17 0.642-2.01l0.0102-0.902-0.873 0.22c-0.0302 7e-3 -0.136-0.747-0.202-1.25 1.16-0.99 3.86-2.98 7.93-4.13 0 0 5.93-0.733 13.8-7.73 0.244 0.0436 0.497 0.079 0.756 0.107-3.11 3.14-7.61 6.82-13.6 9.66l-0.58 0.494c0.124 0.0119 0.248 0.0206 0.372 0.0308 7.11 0.573 15.7-1.47 23.8-6.88 0.721-0.483 1.43-1.01 2.14-1.56 0.0102-8e-3 0.0205-0.0159 0.0293-0.022 0.0878-0.0681 0.178-0.136 0.265-0.204 0.12-0.0926 0.183-0.144 0.186-0.148h1e-3s-8.25 10.2-27 11.5v0.24l-0.803 0.243c12.4 4.02 24.3-3.44 24.3-3.44s-7.95 7.48-24.1 6.38l-0.939-0.543c2.9 4.34 6.98 4.22 6.98 4.22s-2.49 0.355-5.63-1.09c-3.13-1.44-3.24-2.16-5.85-2.52 0 0 0.596 4.71 3.84 7.46 0 0-2.72-1.52-5.43-5.47 0 0-0.344 2.07 2.48 6.7zm-3.65-5.38c-2e-3 2e-3 -3e-3 7e-3 -4e-3 9e-3 0 0-4e-3 -0.0229-4e-3 -0.0234 3e-3 5e-3 6e-3 0.01 9e-3 0.0146zm-9e-3 -0.0146c-0.108-0.204-0.228-0.382-0.331-0.592 0 0-0.761 1.99 0.142 4.83 0 0-1.32-2.86-1.99-4.86 0.302-0.275 0.605-0.578 0.894-0.908 0.0668 0.317 0.0981 0.53 0.0981 0.53 0.0946-0.267 0.151-0.569 0.185-0.872 0.162-0.205 0.319-0.418 0.463-0.64 0.339 1.14 0.535 2.48 0.541 2.52zm-19.4 5.26c2.84-4.62 2.5-6.69 2.5-6.69-2.73 3.94-5.45 5.45-5.45 5.45 3.25-2.75 3.86-7.45 3.86-7.45-2.61 0.355-2.72 1.07-5.86 2.5-3.14 1.43-5.63 1.07-5.63 1.07s4.08 0.132 6.99-4.2l-0.94 0.541c-16.2 1.05-24.1-6.46-24.1-6.46s11.9 7.5 24.3 3.51l-0.804-0.246 1e-3 -0.239c-18.7-1.34-27-11.5-27-11.6 6e-3 5e-3 0.065 0.0516 0.183 0.144 0.0875 0.0684 0.175 0.138 0.262 0.204 0.0105 8e-3 0.0188 0.0154 0.0293 0.0234 0.707 0.547 1.42 1.08 2.14 1.57 8.03 5.44 16.6 7.51 23.8 6.96h1e-3c0.124-9e-3 0.247-0.0207 0.372-0.0322l-0.577-0.495h-1e-3c-5.93-2.85-10.4-6.55-13.5-9.7 0.259-0.0286 0.512-0.0637 0.756-0.107 7.83 7.02 13.8 7.78 13.8 7.78 4.07 1.17 6.76 3.16 7.92 4.16-0.0678 0.503-0.174 1.26-0.205 1.25l-0.873-0.223c0.0872 0.891-0.134 1.96 0.643 2.91-0.386 0.342-1.51 1.4-1.71 3.19 0 0 0.843-1.25 2.34-1.66-0.0874 0.45-0.171 1.02-0.0806 1.25 0 0 0.072-0.157 0.189-0.396 0.0565 0.601 0.166 1.33 0.369 1.58-1.6 3-3.67 5.37-3.67 5.37zm3.67-5.37c3e-3 -6e-3 6e-3 -0.0117 9e-3 -0.0176-1e-4 6.8e-4 -4e-3 0.0264-4e-3 0.0264-2e-3 -2e-3 -3e-3 -7e-3 -4e-3 -9e-3zm9e-3 -0.0176c6e-3 -0.0426 0.207-1.38 0.548-2.51 0.144 0.222 0.299 0.435 0.461 0.642 0.0319 0.302 0.0873 0.604 0.18 0.872 0 0 0.0329-0.215 0.101-0.532 0.287 0.331 0.59 0.636 0.891 0.913-0.678 2-2.01 4.85-2.01 4.85 0.912-2.83 0.16-4.82 0.16-4.82-0.103 0.209-0.224 0.384-0.333 0.587zm25 5.34-0.384-0.214c-0.0105-6e-3 -0.302-0.174-0.747-0.527 0.309-0.977 0.335-2.11-0.214-3.05 0.494 0.208 1.03 0.409 1.62 0.593 0.215 0.901 0.191 1.91-0.208 3.04 0 0-0.0245 0.0567-0.0688 0.158zm-20.7-0.316c-0.436-1.34-0.668-2.82-0.346-4.2 0.0461 0.0306 0.0889 0.0585 0.13 0.085 0.163 0.592 0.496 1.35 1.14 1.75-0.131 0.109-0.207 0.231-0.233 0.352h1e-3c-0.6 0.601-0.743 1.44-0.702 1.94 2e-3 0.0235 5e-3 0.0475 7e-3 0.0703zm19.1-0.851c-0.395-0.358-0.849-0.823-1.31-1.4 0.389 0.19 0.805 0.371 1.25 0.535 0 0-1.72-1.53-2.66-2.79-0.136-0.279-0.266-0.572-0.388-0.879 0.383 0.295 1.33 0.968 2.77 1.64 0.115 0.275 0.56 1.47 0.341 2.9zm-30.7-0.322c0.0231-0.22 0.0616-0.433 0.113-0.64 0.311-0.0963 0.611-0.197 0.898-0.302-0.236 0.258-1.01 0.942-1.01 0.942zm67.4-0.12c-0.685 0.0262-1.29-0.152-1.77-0.502 0.0878-0.0977 0.176-0.204 0.268-0.312 0.864-0.534 2.76-1.52 5.03-2.02-0.781 1.12-3.02 2.53-3.52 2.83zm-102-0.166c-0.5-0.309-2.74-1.72-3.51-2.84 0 0 0.234-0.0168 0.148-0.0117 2.27 0.468 4.04 1.49 4.87 2.05-0.0617-0.0739 0.124 0.149 0.271 0.313-0.487 0.349-1.09 0.525-1.78 0.497zm99-0.782c-0.332-0.0599-0.621-0.254-0.844-0.516 0.018-0.0122 0.0358-0.0257 0.0542-0.041 0.242-0.185 0.617-0.565 0.879-1.31 0 0 1.56-2.72 4.94-2.99-2.12 0.705-4.34 3.28-4.91 4.62-0.0346 0.0817-0.0763 0.159-0.12 0.231zm-63.1-3e-3c0.552-2.12 1.4-3.83 2.27-5.15 0.0946-0.0255 0.191-0.0501 0.293-0.0732-0.298 1.23-1.01 3.46-2.56 5.23zm-32.7-0.152c-0.0878-0.256-1.82-3.65-5.01-4.87l0.312-0.0132c3.25 0.466 4.62 3.02 4.62 3.02 0.279 0.802 0.688 1.19 0.923 1.36-0.223 0.258-0.51 0.448-0.839 0.507zm48.3-0.277c0.365-1.47-1.15-3.36-0.696-4.91 0.19-0.0327 0.367-0.137 0.464-0.209 0.231 0.17 0.247 0.564 0.248 0.565-0.0519 0.462 0.163 0.984 0.497 1.44 1.1 1.2 0.752 2.6-0.513 3.11zm-3.33-0.53c-0.57-0.0783-1.02-0.976-1.05-1.85-0.0488-1.34 1.83-1.98 1.73-4.02 0.749 0.694 1.02 1.02 0.296 2.24-0.84 1.41-1.56 1.17-0.973 3.64zm19-0.132c-0.7-0.403-1.44-0.941-2.03-1.63 0.439 0.224 0.969 0.461 1.59 0.672 0.176 0.302 0.326 0.623 0.442 0.961zm29.4-0.0835c-0.129-0.0232-0.245-0.0696-0.35-0.135 0.206-0.339 0.431-0.907 0.246-1.32 0 0-0.45-2.61 4.24-3.64-2.17 1.24-2.83 1.96-3.36 4.21-0.078 0.333-0.203 0.621-0.349 0.88-0.16 0.0294-0.303 0.0305-0.432 7e-3zm-91-0.146c-0.129 0.0228-0.273 0.0212-0.432-9e-3 -0.945-1.68 0.0207-2.96-3.69-5.1l0.141 0.0176c4.69 1.04 4.09 3.63 4.09 3.63-0.185 0.416 0.0576 0.985 0.242 1.32-0.105 0.0648-0.219 0.112-0.349 0.135zm47.6-1.02c-0.0312-0.229-0.137-0.673-0.63-1.26-0.842-0.942-0.139-1.26-0.858-2.4 0.0417-0.0637 0.119-0.185 0.205-0.318 0.142 0.208 0.362 0.39 0.384 0.406 1.86 2.09 1.69 3.31 0.899 3.57zm40.9-0.0366c-1.39-0.925-2.28-0.996-2.28-0.996-0.0638-0.63 0.276-2.14 3.41-3.15-2.13 1.22-1.16 2.47-1.13 4.15zm-86.1-0.139c-0.0984-0.514 0.985-2.97-1.01-4.09 3.13 1.02 3.36 2.48 3.3 3.11 0 0-0.869 0.0383-2.29 0.987zm38.5-0.23c-0.872-0.675-1.63-1.42-2.23-2.08-0.0112-0.943 0.0724-2.04 0.461-2.6 0 0 0.442 1.2 1.02 1.81 0 0-0.161-3.64 0.708-5.16 0 0-1.27 0.465-1.56 1.57l-0.671 0.36s-0.462 0.038-0.986 0.215c0.631-0.718 2.43-1.77 2.43-1.77l-1.81-2.19c-1.09-0.212-1.89 0.611-1.89 0.611-0.322-0.825 0.612-1.52 0.612-1.52-0.302-0.997 0.131-1.19 0.513-1.19 0.243 2e-3 0.464 0.0791 0.464 0.0791l3.65 4.4c0.153 0.417 0.328 0.793 0.514 1.13 0 0-1.3 0.806-0.041 2.02 0 0-2.67 2.07-1.17 4.31zm0.126-0.464s-1.04-1.45 1.41-3.8c0.0784 0.0494 0.194 0.121 0.25 0.157 0.196 2.1-1.6 2.27-1.66 3.64zm7.32-0.116c-0.0197-0.193-0.0614-0.412-0.138-0.665-0.628-2.07-1.72-1.96-1.83-2.82 0 0-0.174-0.289 0.0571-0.403 0.229-0.115 1.67-0.977 0.233-2.13l-0.224 0.0117c0.219-0.481 0.321-0.819 0.321-0.819l3.81-4.43c1.19 0.347 0.82 1.06 0.82 1.06 0.956 0.519 0.706 1.69 0.706 1.69-0.362-0.787-1.78-0.807-1.78-0.807l-2.03 2.3c-0.374-0.287-0.727-0.417-0.727-0.417 0.865 1.52 0.693 5.16 0.693 5.16 0.576-0.608 1.02-1.81 1.02-1.81 0.414 0.597 0.479 1.8 0.451 2.78-0.448 0.481-0.918 0.913-1.39 1.3zm19.3-0.082c-1.02-0.259-2.04-0.601-2.85-1.05 0 0 0.56 0.0343 1.54 0.0571 0.097 0.0351 0.195 0.0706 0.292 0.108 0.333 0.293 0.672 0.587 1.02 0.885zm-44-0.198c0.613-0.689 1.27-1.27 1.92-1.77v1e-3c0.331-4e-3 0.666-0.0118 1-0.022-0.682 0.599-1.67 1.3-2.93 1.79zm28.5-0.142s-0.354-2.32-1.14-3.1c0 0-0.0528-1.18-0.633-1.54 0 0 2.34 0.66 1.77 4.64zm-15.8-0.0249c-0.551-3.98 1.79-4.63 1.79-4.63-0.581 0.355-0.637 1.54-0.637 1.54-0.79 0.774-1.15 3.1-1.15 3.1zm13.6-0.382s0.418-2.4-0.545-3.57c0 0 8.1e-4 -0.652-0.173-0.983 0 0 2.37 0.691 0.718 4.55zm-11.5-0.019c-1.64-3.86 0.731-4.55 0.731-4.55-0.175 0.33-0.176 0.98-0.176 0.98-0.966 1.16-0.555 3.57-0.555 3.57zm15.8-0.312s-1.01-0.826-1.74-0.993c0 0-0.0748-0.912-0.255-1.42 0 0 1.71 1.16 2 2.42zm-20.1-0.0337c0.29-1.25 2.01-2.41 2.01-2.41-0.181 0.51-0.258 1.42-0.258 1.42-0.738 0.166-1.75 0.986-1.75 0.986zm65.1-0.93 0.0439-0.126 0.993-2.83s-0.131-4.26 5.19-5.05c-0.77 0.911-3.75 4.1-3.75 4.1l-0.454 2.46zm-108-0.174-2.01-1.46-0.444-2.46s-2.97-3.19-3.74-4.11c5.32 0.808 5.17 5.07 5.17 5.07l0.983 2.84zm53.4-0.167c-0.275 0-0.553-0.159-0.621-0.353-0.164-0.47-1.45-1.37-1.45-1.37l-0.113 0.245c-0.132-0.0511-0.478-0.183-0.478-0.183s-0.0724 0.0324-0.0996 0.0439c-0.546-0.481-0.426-0.95 0.0249-1.35 1.12 1.76 2.09 2.11 2.14 2.11 0.433-0.112 1.47-0.571 2.21-2.32 0.762 0.776-0.195 1.3-0.223 1.32-0.212 0.0722-0.395 0.134-0.396 0.508-6.8e-4 0.287-0.144 0.491-0.202 0.523-0.129 0.0728-0.211 0.325-0.24 0.423-0.12 0.342-0.396 0.394-0.549 0.394zm5.77-0.0952c0.0902-0.382 0.132-0.634 0.132-0.634 0.0519 0.0568 0.103 0.127 0.152 0.208-0.0919 0.146-0.187 0.287-0.284 0.426zm-13.1-0.186c-0.0862-0.113-0.161-0.211-0.224-0.296 0.0434-0.0674 0.086-0.126 0.132-0.174 0 0 0.0292 0.181 0.0923 0.47zm10.8-0.215s0.215-2.44-0.458-3.98c0 0 2 1.58 0.458 3.98zm-8.52-0.0147c-1.53-2.4 0.473-3.97 0.473-3.97-0.678 1.53-0.473 3.97-0.473 3.97zm54-0.825-1.61-5.27s-0.241-4.84 5.34-4.96l-4.32 5.12zm-41.6-0.0615c-0.112-0.0681-0.179-0.0996-0.179-0.0996-0.292-1.35-2.42-1.53-2.42-1.53l-0.671-0.363c-0.112-0.43-0.37-0.762-0.645-1.01 0.7 0.144 1.86 1.06 1.86 1.06 0.956 1.11 2.56 0.773 2.56 0.773-0.0146 0.532-0.231 0.907-0.504 1.17zm-16.3-0.0439c-0.396-0.472-0.404-1.08-0.404-1.08 0.102 0 0.628 0.197 1.31 7e-3 -0.356 0.226-0.658 0.542-0.756 0.987 0 0-0.0535 0.028-0.145 0.0835zm-39.2-0.0513 0.606-5.12-4.3-5.13c5.58 0.138 5.33 4.97 5.33 4.97zm92.4-0.539-3.95-4.04c0.0441-0.0361 0.628-0.527 0.628-0.527zm-87.7-0.142 2.67-3.64c0.149 0.119 0.327 0.257 0.535 0.41zm20.1-1.21c-0.776 0.0249-1.62 0.023-2.52-0.019 0.221-0.0637 0.443-0.122 0.666-0.173l2.41-0.199c0.512 0.0895 1.03 0.173 1.56 0.249-0.637 0.0657-1.35 0.117-2.12 0.142zm25.4-1.69 2.69-5.82c-0.041-0.0718-0.0984-0.133-0.179-0.171-0.235-2.71 3.19-1.2 4.26-6.68 0.0946-0.0783 0.295-0.27 0.305-0.281l0.303 1.36s0.264 3.34-2.88 7.25c0 0-0.257-0.193-0.592-0.369zm-5.55-9e-3 -3.88-4.71c-0.331 0.173-0.568 0.356-0.568 0.356-2.82-3.54-2.88-6.6-2.86-7.17l0.904 1e-3c1.28 4.1 4.17 3.03 3.95 5.52-0.108 0.0548-0.188 0.224-0.188 0.224zm11.3-0.252c0.372-0.605 0.408-1.13 0.354-1.52 1.15-0.809 3.08-1.99 5.35-2.6 2.62-0.707 6.47-3.91 9.67-7.27 0.315-0.0803 0.608-0.181 0.885-0.302-2.2 2.84-5.66 6.55-9.65 8.17 0 0-4.45 1.61-6.61 3.52zm-17.3-0.551c-1.41-1.1-3.95-2.75-7.54-3.78 0 0-0.246-0.0393-0.513-0.0996-3.05-1.72-5.69-4.51-7.56-6.86l0.686 1e-3c3.14 3.28 6.87 6.36 9.42 7.05 2.31 0.634 4.28 1.85 5.42 2.67-0.0529 0.369-0.107 0.394 0.101 1.01zm17.6-1.31c-0.0848-0.253-0.241-0.539-0.514-0.816 0.0343-0.147 0.0651-0.494 0.063-0.573 1.24-0.798 3.16-2.11 4.07-3.14 0 0 2.06-0.835 4.72-4.63 0.325 5e-3 0.657 6e-3 0.999 6e-3 -1.38 2.45-3.3 5.08-5.94 7.22 0 0-1.9 0.952-3.39 1.94zm-17.6-0.0483c-1.49-1.01-3.46-2-3.46-2-2.68-2.19-4.62-4.87-5.99-7.37l0.983 1e-3c2.69 3.91 4.79 4.78 4.79 4.78 0.922 1.05 2.9 2.41 4.13 3.2-2e-3 0.0327 0.0257 0.444 0.06 0.595-0.267 0.269-0.42 0.55-0.507 0.795zm28.3-0.0864c1.14-0.319 5.22-3.22 5.22-3.22 4.14-1.2 8.18-3.89 10.7-5.83 0.253 0 0.5 5.3e-4 0.74-1e-3 -4.48 4.39-12.3 8.78-12.3 8.78-0.982 0.317-4.38 0.272-4.38 0.272zm-39.7-0.299c-1.17-0.0405-2.67-0.148-4.4-0.398-1.92-0.866-7.71-3.75-11.9-8.61h0.932c2.43 1.88 6.3 4.5 10.3 5.79 1.53 1.11 3.21 2.2 5.05 3.22zm61.1-1.05c-0.245 0-0.624-0.0151-0.965-0.0308l0.828-1.53 0.671-0.27 0.167-3e-3zm-79.5-0.129-0.693-1.83c0.343 0.242 0.702 0.488 1.08 0.735l0.579 1.07c-0.342 0.0146-0.722 0.0278-0.968 0.0278zm46.9-0.0395c-0.0211-0.112-0.0543-0.227-0.103-0.338-0.0197-0.0483 0.332-0.458 0.795-1.15 1.58-1.23 3.75-3.34 4.86-6.27 0.413 0.0738 0.847 0.128 1.3 0.164-1.51 2.79-3.72 5.73-6.85 7.59zm-16.6-0.0527c-3.18-1.88-5.41-4.87-6.93-7.71l1.37 3e-3c1.13 2.93 3.32 5.03 4.88 6.24 0.46 0.698 0.797 1.11 0.776 1.16-0.0444 0.103-0.0767 0.207-0.0981 0.311zm21.4-0.634c1.63-1.19 4.43-5.09 4.43-5.09 0.73-0.394 1.48-1.01 2.21-1.72 0.338-2e-3 0.663-8e-3 0.976-0.0161-4.89 7-7.62 6.83-7.62 6.83zm-26.3-0.111s-2.76 0.158-7.67-6.97l0.921 1e-3c0.767 0.769 1.57 1.44 2.34 1.86 0 0 2.79 3.91 4.41 5.11zm13.1-6e-3 -2.22-0.848 1.76 4e-3 0.461-1.61 0.533 1.54 1.53 0.0791zm9.55-1.49c0.686-1.17 1.41-2.79 1.55-4.66 0.311-0.396 0.639-0.846 0.97-1.35 0.425 0.197 0.88 0.346 1.37 0.458-0.782 1.89-2 3.88-3.89 5.55zm-19-0.0161c-1.87-1.64-3.09-3.59-3.88-5.44l1.73 1e-3c0.122 0.172 0.242 0.334 0.359 0.488 0.269 2.01 1.07 3.73 1.79 4.96zm22.9-1.81c0.994-1.12 1.79-2.29 2.42-3.42 0.218 0.0113 0.441 0.0194 0.668 0.0264-1.66 2.29-3.09 3.4-3.09 3.4zm-27.2-0.497c-1.04-0.839-2.01-2-2.83-3.14l0.895 1e-3c1.04 2 1.93 3.14 1.93 3.14zm24.9-2.94c2e-3 -0.441 9.9e-4 -0.781-0.129-1.41 8e-3 6e-3 0.311 0.232 0.461 0.328-0.1 0.475-0.155 0.787-0.333 1.08zm55.9-2.12c-5.92-0.01-7.06-0.464-7.84-4.44l-0.495-2.52c-0.277-1.39-0.299-2.88 1.86-3.87l3.78-1.69c1.11-0.495 1.01-0.881 0.895-1.51l-0.639-3.21c-0.141-0.691-0.355-1.06-1.07-1.06-0.898 0-0.956 0.648-0.822 1.06l0.85 4.22-6.06-9e-3 -0.886-4.35c-0.212-1.04-0.246-1.72-0.245-2.07 3e-3 -2.2 2-2.38 6.39-2.38 6.54 9e-3 6.96 0.626 7.77 4.47l0.816 4.03c0.265 1.22 0.198 2.73-2.11 3.71l-3.46 1.51c-0.901 0.392-1.16 0.836-0.93 1.51l0.388 2.04c0.142 0.664 0.391 1.06 1.11 1.06 0.855 1e-3 0.965-0.329 0.785-1.06l-0.601-3.08 5.96 0.0103 0.637 3.21c0.141 0.743 0.317 1.43 0.316 2.04-4e-3 2.25-2.07 2.38-6.39 2.38zm-48.4-0.0249c-3.14-5e-3 -5.14-0.0356-6.35-0.993-0.997-0.77-1.21-1.91-1.53-3.48l-2.55-12.9c-0.188-0.893-0.263-1.62-0.278-2.16 0.492 0.549 1.07 0.797 1.17 0.838 0.04 0.314 0.0985 0.678 0.186 1.1 2e-3 0.0133 2.57 13 2.57 13 0.303 1.5 0.475 2.24 1.1 2.72 0.911 0.718 2.75 0.756 5.68 0.762 1.99 4e-3 4.48 7e-3 5.07-0.587 0.0482-0.0477 0.176-0.177 0.177-0.634v-0.0147c-0.95 0.357-2.98 0.356-4.66 0.353-2.93-3e-3 -4.77-0.0428-5.68-0.762-0.622-0.48-0.796-1.22-1.1-2.72 0 0-2.58-13-2.59-13.1 1.1 0.0473 1.79-0.364 2.19-0.75 0.725-0.699 0.969-1.71 1.04-2.53 0.381-7e-3 1.5-7e-3 1.65-7e-3 0.169 0.205 0.37 0.374 0.583 0.513-0.124 0.372-0.197 0.736-0.205 1.09-0.292 0.049-0.651 0.171-0.945 0.464-0.2 0.202-0.336 0.447-0.409 0.732 0.474-0.348 1.04-0.347 1.24-0.347 0.0767 0 0.15 3e-3 0.221 9e-3 0.036 0.131 0.0824 0.261 0.138 0.39 0.418 0.965 1.28 1.55 1.92 1.87 0.367 1.83 2.37 11.9 2.45 12.3 0.0624 0.246 0.0937 0.47 0.0937 0.658-6.8e-4 0.185-0.0228 0.346-0.0615 0.489 0.0617-0.0453 0.121-0.0981 0.179-0.155 0.215-0.214 0.471-0.6 0.473-1.22 0-0.189-0.0325-0.411-0.0952-0.656-0.0685-0.341-1.56-7.82-2.21-11.1 2.53 0.919 3.7-1.11 3.85-1.41 0.0594 0.278 2.76 13.8 2.76 13.8 0.176 0.903 0.282 1.59 0.281 2.12-4e-3 2.2-2.07 2.33-6.35 2.32zm16.3-0.0337c-3.18-5e-3 -5.14-0.0343-6.35-0.99-0.962-0.772-1.21-1.88-1.53-3.48l-2.55-12.9c-0.487-2.3-0.572-3.72 1.59-4.21 1.08 0.777 2.88 1.14 3.85-0.286 7.01-0.0446 7.72 0.661 8.47 4.52l0.992 4.8-6.06-9e-3 -0.921-4.67c-0.141-0.69-0.317-1.09-1.14-1.09-0.922-3e-3 -0.851 0.555-0.751 1.09l2.51 12.6c0.141 0.662 0.283 1.06 1.07 1.06 0.642 2e-3 0.892-0.186 0.894-0.636 0-0.0259-0.0358-0.159-0.0718-0.425l-0.567-2.86 6.03 9e-3 0.602 3c0.177 0.876 0.282 1.59 0.281 2.12-3e-3 2.2-2.07 2.33-6.35 2.32zm-32.6-0.0527c-5.59-9e-3 -7-0.0741-7.88-4.47l-2.55-12.9c-0.798-3.81-0.259-4.51 6.07-4.5 6.15 0.0123 7.04 0.428 7.84 4.52l0.99 4.8-6.06-9e-3 -0.92-4.67c-0.144-0.689-0.321-1.09-1.14-1.09-0.835-1e-3 -0.832 0.666-0.751 1.09l2.51 12.6c0.143 0.663 0.286 1.06 1.07 1.06 0.88 1e-3 0.896-0.484 0.823-1.06l-0.567-2.87 6.03 0.0103 0.604 3c0.177 0.875 0.283 1.59 0.281 2.12-3e-3 2.2-2.07 2.33-6.35 2.32zm-46.6-0.041-7.31-0.0147-8.03-21.5 5.67 9e-3 1.31 4.25 2.53 4e-3 -0.42-4.25 5.71 9e-3zm103-0.0527-5.99-0.0117-3.87-8.65h-0.25l1.73 8.65-5.78-0.0103-4.28-21.5 5.78 9e-3 2.05 10.3h0.25l0.729-10.3 6.06 9e-3 -1.52 11.9zm-123-0.0249v-1e-3c-6-0.0112-7.08-0.41-7.88-4.49l-2.55-12.9c-0.213-1.09-0.283-1.86-0.283-2.23 2e-3 -1.59 1.54-2.25 4.64-2.25 2.28 4e-3 3.53 0.272 5.24 1.6l0.823-1.43 2.64 6e-3 2.2 11.1-6.81-0.0102-0.709-3.47h0.822l-0.637-3.13c-0.0631-0.489-0.265-1.06-1.1-1.06-1.04-3e-3 -0.787 0.534-0.787 1.06l2.51 12.6c0.143 0.663 0.248 1.09 1.07 1.09 1.08 1e-3 0.94-0.644 0.822-1.09l-0.567-2.87 6.03 0.0103 0.601 3c0.644 3.49 0.822 4.48-6.07 4.47zm57.6-0.0395-9.67-0.0161-3.31-16.7c0.217-0.0763 0.605-0.235 1.02-0.495l3.19 16.1 7.42 0.0117-0.18-0.886-6.65-0.0103-3.12-15.7c0.888-0.819 1.23-2.29 0.848-3.44 0.183-0.118 0.356-0.259 0.508-0.426v1e-3l1.73 3e-3c0.0431 0.476 0.148 1.01 0.372 1.51h-0.135l0.177 0.885h0.548c0.136 0.139 1.63 1.43 3.5 0.437l0.13 0.674-3.6-6e-3 1.31 6.58 3.6 4e-3 0.709 3.5-3.64-7e-3 0.885 4.48 3.64 7e-3zm-12-0.0205-7.38-0.0117-4.23-10.9h-0.249l0.16 10.9-7.38-0.0102-4.28-21.5 5.46 9e-3 2.48 12.4h0.214l-0.3-12.4 2.56 4e-3c0.27 0.35 0.757 0.665 1.11 0.765l4.33 11.7h0.25l-2.4-12c0.212-0.107 0.431-0.243 0.631-0.415 0 0 4.61 0.0373 4.61 0.0513-2.41 2-0.0695 4.93 1.12 5.06zm-26.4-1.15-0.022-0.883-4.81-7e-3 -6.87-18.5-0.917-1e-3 7.2 19.3zm63.4-2.12c0.642 0 0.891-0.184 0.892-0.636 0-0.0262 5.9e-4 -0.158-0.0703-0.423l-2.51-12.6c-0.141-0.716-0.319-1.09-1.14-1.09-0.967-3e-3 -0.826 0.7-0.75 1.09l2.51 12.6c0.142 0.663 0.284 1.06 1.07 1.06zm-67.1-2.27h0.252l-0.772-8.3-1.96-3e-3zm0.863-11.6-0.334-3.36h-0.677l0.333 3.36zm54.9-4.55c-0.355-0.417-0.981-0.901-1.29-1.09 1.66-4.44 1.66-8.64 1.66-8.64 0.643 2.37 0.943 5.17 1.07 6.75-0.367 0.686-0.368 1.44-0.318 1.91-0.491 0.309-0.861 0.684-1.13 1.07zm15.7-0.517c-0.0722-0.0592-0.927-0.652-1.37-0.847-0.0916-0.149-0.184-0.283-0.27-0.398 0.656 0.0208 1.18 0.473 1.45 0.76 0.0773 0.15 0.145 0.314 0.195 0.485zm-31.5-0.155-0.268-1.39h-0.202c-0.151-1.03-0.605-1.59-1.34-1.97-0.589-2.53-0.706-4.06-0.706-4.06 0.938 2.77 2.16 5.05 3.35 6.83-0.304 0.168-0.581 0.368-0.831 0.604zm46.8-0.521c-1.53-0.813-3.47-0.933-6.21-0.951 0.309-0.546 0.468-1.13 0.47-1.75l1e-3 -0.0117c2e-3 -2.03-1.28-3.82-3.58-4.65 0 0 1.85 3.55 0.422 4.13-0.482-0.614-1.03-0.864-1.45-0.958-0.721-0.163-1.4 0.0243-1.87 0.229-0.751-0.672-1.9-0.722-2.81-0.58-0.514-0.952-1.61-1.36-2.62-1.32-0.114 4e-3 -0.19-7e-3 -0.242-0.019 0.453-0.882-4e-3 -1.92-4e-3 -1.95 1e-3 -0.11 0.0151-0.276 0.0395-0.431 0.385-0.688 0.472-1.69 0.198-2.4 14.3 1.58 27.1 5.01 37.7 9.85l-20.2-0.0322zm-32.6-0.0806c-0.245-0.127-0.502-0.237-0.771-0.334 2.45-7.39 1.13-17.3 1.13-17.3 2.73 4.86 3.38 10.9 3.45 15.1-0.146 0.103-0.499 0.428-0.63 0.65-5e-3 -6.57-2.14-12.6-2.14-12.6 0.883 6.2-0.0259 11.2-1.04 14.5zm-13-0.198c-2.42-4.15-3.8-8.56-4.37-10.7 0.0417-0.0575 0.391-0.469 0.611-0.773 0.778 3.2 2.13 7.5 4.35 11.2-0.205 0.065-0.399 0.14-0.586 0.223zm1.66-0.482c-1.25-3.05-3.99-9.56-4.09-10.5 1.84-0.134 3.69-0.237 5.55-0.311-0.606 2.13-1.27 5.74-1.04 10.7-0.143 0.0194-0.283 0.0414-0.42 0.0645zm9.08-0.0103c-0.605-0.0997-1.26-0.156-1.99-0.19-1.28-3.79-1.44-8.12-1.43-10.7 0.865-0.0112 4.12-7e-3 4.91 4e-3 -0.0627 1.92-0.442 6.61-1.49 10.9zm-36-0.142-20.8-0.0322c8.76-3.96 20-7.21 32-8.99 5e-3 1.43 0.444 1.32 0.385 2.12-0.211 0.4-0.204 0.873-0.198 1.01-0.279 0.295-0.582 0.618-0.894 0.949-0.73 0.153-1.41 0.555-1.78 1.24-0.909-0.146-2.06-0.0981-2.81 0.57-1.01-0.445-2.4-0.442-3.32 0.719-1.42-0.667 0.337-4.07 0.337-4.07-2.72 1.24-4.48 3.99-2.94 6.49zm28.6-0.0352c-0.0577-4.52 0.411-11.6 3.36-16.8 0 0-1.37 9.72 0.718 16.7-0.407-6e-3 -3.22-2e-3 -4.07 0.0498zm-7.15-2.17c-0.302-0.0643-0.632-0.0925-0.992-0.0864-0.0387-0.309-0.124-0.692-0.309-1.05-0.268-1.52-0.456-3.14-0.491-4.84 0.235-0.405 0.503-0.833 0.81-1.29-6e-3 2.53 0.396 5 0.981 7.26z" fill="#ca2026"/>
   <path d="m171 442c-0.0946 0.0425-0.864-0.398-1.45-1.31l-3.26-6.5 3.33 4.25 1.25-2.7c0.667 1.58 1.3 2.71 1.3 2.71l3.36-4.26-3.08 6.43c-0.59 0.91-1.33 1.42-1.43 1.38zm4.77-8.55c-0.251-0.153-3.77-3.04-3.77-3.04l-1.03 0.921-1.15-0.924s-3.52 2.67-3.61 2.71l3.58-3.86s0.562-0.513 1.18-0.513c0.62 1e-3 1.04 0.516 1.04 0.516s3.72 4.07 3.76 4.19zm14.7-25.6c-0.237 7e-3 -0.521-0.0221-0.855-0.113 0 0-3.42-0.726-2.24-3.47 0 0 0.197-1.08 0.882-1.34 0 0-0.815 0.161-1.01 0.489 0 0-1.37-0.265-0.977-1.64 0 0 0.394-1.64-1.37-1.11l-0.489 0.0982s0.0971 1.31-1.34 1.37c0 0 0.255 2.42-0.757 3.24 0 0-1.66 1.34-2.77-0.297 0 0-0.717-0.853-0.16-2.03 0 0-4e-3 1.8 1.6 1.28 0 0 1.21-0.295 0.983-1.83 0 0-9.7e-4 -0.164-0.523-0.36-0.521-0.197-0.585-1.57-0.16-1.96l0.294 0.0322s0.552 1.15 1.6 0.952c0 0-0.849-0.166-1.08-0.822 0 0 0.393-0.0967 0.428-0.62 0.0336-0.524 0.164-1.64 1.27-1.6l0.391 0.854s-0.292-2.06 0.819-2.42c1.11-0.359 1.01-0.849 1.08-1.01 0 0-1.68-0.264-1.11-2.14-5e-3 0.0174 0.622 1.71 2.42 1.39 0 0-2.05-0.135-1.99-1.87 0 0-0.649-2.19 0.917-2.58 0 0 0.408-0.134 0.946-0.132 0.976 2e-3 2.38 0.439 2.54 2.89 0 0-0.549-2.55-2.41-1.84 0 0-1.34 0.39-0.917 1.8 0 0 0.227 0.983 1.47 0.756 0 0 1.07 1.12 0.354 3.5 0 0 0.784-0.554 1.24-2.13 0 0 0.129 0.655-0.0659 1.05-0.198 0.393-0.0681 1.18 0.813 1.21 0 0 2.58-0.094 2.31 2.46 0 0 0.327-0.555 0.394-0.949 0 0 2.38-0.421 3.29 1.19 0 0 0.0348-0.393 3e-3 -0.623 0 0 1.79-0.881 2.54 0.464 0 0-1.26 2.33 1.43 2.26-1 2.75-3.29-0.0703-3.29-0.0703s-0.326-0.23-0.785 0.195c-0.456 0.426-1.96 0.52-2.58-0.693 0 0-1.24-1.51-3.36-0.823l-0.132 0.557s-0.423-0.689-2.02-1.61c0 0 1.34 2.3 0.875 4l-0.457 0.23s-0.394 2.06 1.43 2.13c0 0 1.4 0.231 1.67-1.54 0 0 1.4 1.35-0.135 2.88 0 0-0.294 0.35-1 0.372zm-41.1-0.12c-2.52 0.0815-2.13-2.74-1.44-3.2 0.257 1.77 1.66 1.54 1.66 1.54 1.83-0.0637 1.44-2.13 1.44-2.13l-0.456-0.231c-0.456-1.7 0.886-3.99 0.886-3.99-1.6 0.914-2.03 1.6-2.03 1.6l-0.129-0.56c-2.12-0.69-3.36 0.814-3.36 0.814-0.622 1.21-2.12 1.11-2.58 0.684-0.456-0.427-0.782-0.198-0.782-0.198s-2.23 2.81-3.29 0.0586c2.69 0.153 1.44-2.25 1.44-2.25 0.753-1.34 2.55-0.457 2.55-0.457-0.0332 0.229-1e-3 0.624-1e-3 0.624 0.916-1.6 3.3-1.17 3.3-1.17 0.0641 0.396 0.388 0.952 0.388 0.952-0.256-2.56 2.32-2.45 2.32-2.45 0.88-0.0306 1.01-0.817 0.819-1.21-0.196-0.394-0.0645-1.05-0.0645-1.05 0.454 1.57 1.24 2.13 1.24 2.13-0.715-2.39 0.365-3.5 0.365-3.5 2.19 0.279 1.72-2.26 0.737-2.57-1.86-0.725-2.6 1.84-2.6 1.84 0.213-3.02 2.35-3 3.5-2.74 1.57 0.396 0.911 2.59 0.911 2.59 0.0621 1.74-1.99 1.86-1.99 1.86 1.96 0.208 2.42-1.4 2.42-1.4 0.584 1.9-1.11 2.16-1.11 2.16 0.0651 0.163-0.0344 0.656 1.07 1.02 1.11 0.362 0.812 2.42 0.812 2.42l0.394-0.85c1.11-0.032 1.24 1.08 1.27 1.61 0.0312 0.525 0.423 0.624 0.423 0.624-0.229 0.655-1.08 0.816-1.08 0.816 1.04 0.197 1.6-0.948 1.6-0.948l0.292-0.0308c0.424 0.393 0.356 1.77-0.166 1.96-0.523 0.195-0.523 0.359-0.523 0.359-0.23 1.54 0.977 1.84 0.977 1.84 1.6 0.526 1.6-1.27 1.6-1.27 0.79 2.39-1.42 3.52-2.94 2.32-1.01-0.819-0.746-3.24-0.746-3.24-1.44-0.0667-1.33-1.38-1.33-1.38l-0.491-0.0982c-1.76-0.528-1.37 1.11-1.37 1.11 0.39 1.38-0.981 1.64-0.981 1.64-0.196-0.328-1.01-0.494-1.01-0.494 0.685 0.264 0.88 1.34 0.88 1.34 1.17 2.75-2.26 3.47-2.26 3.47-0.195 0.0328-0.376 0.0517-0.543 0.0571zm35.5-11.4c-0.308-1.65-2.04-4.39-2.04-4.39-0.522-1.27-0.856-0.457-1.97-2.87-1.11-2.41-0.0176-3.99-0.0176-3.99l0.403 0.312c-0.14-1.24 1.29-1.6 1.29-1.6 1.62 0.242 2.28 2.27 2.28 2.27-2.57 0.259-2.67 1.6-2.67 1.6 0.859-1.19 2.9-1.09 2.9-1.09 0.213 0.239 0.543 1.96 0.543 1.96-2.35 0.0453-2.95 1.52-2.95 1.52 1.33-1.22 3.16-0.877 3.16-0.877l0.022 0.787c-2.26 0.212-2.71 2.36-2.71 2.36l0.167 0.0469c0.74-1.91 1.88-1.57 1.88-1.57-0.356 0.381-0.24 1.93-0.24 1.93-1.26 2.05 0.71 2.96 0.71 2.96-0.168 0.549-0.763 0.643-0.763 0.643zm-30.2-0.0483s-0.594-0.0966-0.76-0.646c0 0 1.98-0.902 0.719-2.96 0 0 0.122-1.55-0.236-1.93 0 0 1.14-0.332 1.88 1.58l0.167-0.0483s-0.449-2.15-2.71-2.37l0.0249-0.787s1.83-0.331 3.16 0.889c0 0-0.593-1.48-2.95-1.54 0 0 0.337-1.72 0.552-1.96 0 0 2.05-0.0919 2.9 1.1 0 0-0.093-1.34-2.66-1.6 0 0 0.669-2.03 2.29-2.26 0 0 1.43 0.359 1.28 1.6l0.407-0.309s1.09 1.57-0.0308 3.99c-1.12 2.41-1.45 1.6-1.98 2.86 0 0-1.74 2.74-2.05 4.39z" fill="#fccc2f"/>
   <path d="m178 489-2.27-4e-3 -1.61-11.6 2.27 3e-3zm-6.86-0.133-2.15-1e-3 -1.57-7.71h-0.0952l0.58 7.71-2.15-3e-3 -0.183-11.6 2.52 3e-3zm-9.9-0.296-1.94-0.179-0.296-5.99-0.0923-9e-3 -0.788 5.89-2.11-0.196-0.551-11.7 1.95 0.182 0.265 5.73 0.0937 9e-3 0.817-5.62 2.1 0.193zm22.4-0.0103-2.43-11.4 3.63-0.256 0.387 1.86-1.35 0.0967 2.03 9.58zm8.34-0.655-3.13-11.3 3.61-0.483 0.5 1.83-1.34 0.179 2.62 9.44zm-42.2-0.819c-0.3-0.0112-0.649-0.0495-1.05-0.0981-1.17-0.141-1.92-0.246-2.31-0.812-0.324-0.455-0.33-1.08-0.35-1.93l-0.132-6.98c-0.0166-0.547 9e-3 -0.976 0.0454-1.27 0.0879-0.729 0.542-0.95 1.36-0.949 0.325 6.8e-4 0.708 0.0363 1.15 0.0894 1.17 0.143 1.89 0.274 2.27 0.794 0.361 0.489 0.355 1.11 0.372 1.97l0.146 6.99c9e-3 0.49 3e-3 0.863-0.0308 1.15-0.106 0.882-0.573 1.09-1.47 1.06zm50.5-0.456-3.57-11.1 3.58-0.624 0.573 1.81-1.34 0.233 1.09 3.4 1.33-0.231 0.586 1.81-1.35 0.234 0.741 2.32 1.35-0.234 0.582 1.8zm-60-1.34c-0.424 0.0819-1.02-0.027-1.81-0.198-2.18-0.47-2.55-0.799-2.39-2.95l0.0996-1.36c0.0119-0.187 0.027-0.389 0.0732-0.599 0.137-0.64 0.49-1.08 1.04-1.29l1.58-0.592c0.373-0.139 0.428-0.259 0.472-0.469 0.0149-0.0698 0.0183-0.155 0.0278-0.256l0.125-1.74c0.0258-0.374-0.0111-0.586-0.274-0.642-0.223-0.0487-0.336 0.0285-0.387 0.265-0.0207 0.0977-0.0351 0.168-0.0351 0.227l-0.16 2.29-2.23-0.482 0.163-2.36c0.0373-0.561 0.102-0.927 0.141-1.11 0.156-0.723 0.509-0.97 1.15-0.97 0.382 6.8e-4 0.867 0.0909 1.47 0.221 1.18 0.256 1.89 0.453 2.21 1.03 0.277 0.498 0.202 1.11 0.149 1.93l-0.151 2.18c-9e-3 0.173-0.0181 0.347-0.0571 0.527-0.132 0.614-0.512 1.04-1.14 1.26l-1.44 0.52c-0.327 0.12-0.436 0.241-0.478 0.437-0.0261 0.126-0.0354 0.227-0.0337 0.284l-0.085 1.11c-0.0227 0.361 0.0247 0.59 0.289 0.646 0.224 0.0477 0.335-0.03 0.385-0.267 0 0 0.0155-0.0703 0.022-0.23l0.123-1.67 2.19 0.473-0.125 1.74c-0.0305 0.402-0.0439 0.778-0.111 1.1-0.128 0.594-0.384 0.866-0.809 0.948zm8.52-0.223c0.182 0 0.267-0.0936 0.293-0.305 1e-3 -0.0136 0.0105-0.0849 0-0.23l-0.136-6.84c-7e-3 -0.389-0.05-0.596-0.356-0.633-0.213-0.0265-0.305 0.0641-0.334 0.305-9e-3 0.0708-0.0175 0.142-0.0161 0.242l0.135 6.84c0.0115 0.362 0.0409 0.579 0.333 0.614 0.0302 3e-3 0.0565 6e-3 0.082 6e-3zm66.8-1.86c-1.09 0.0803-1.5-0.375-2.07-1.89l-0.488-1.28c-0.0678-0.175-0.139-0.363-0.188-0.571-0.149-0.639-0.0128-1.18 0.397-1.62l1.18-1.21c0.279-0.284 0.277-0.416 0.229-0.624-0.0159-0.0701-0.0475-0.15-0.0835-0.245l-0.625-1.63c-0.136-0.349-0.259-0.525-0.521-0.464-0.222 0.0518-0.29 0.171-0.236 0.407 0.0227 0.0963 0.0391 0.165 0.0644 0.218l0.825 2.14-2.22 0.517-0.855-2.2c-0.204-0.524-0.301-0.882-0.343-1.06-0.266-1.15 0.444-1.42 2.05-1.8 0.649-0.151 1.16-0.257 1.58-0.256 0.339 0 0.616 0.0699 0.854 0.245 0.463 0.332 0.654 0.916 0.955 1.68l0.791 2.04c0.0631 0.162 0.127 0.322 0.17 0.502 0.142 0.612-0.0214 1.16-0.492 1.62l-1.08 1.09c-0.247 0.248-0.295 0.406-0.249 0.601 0.0285 0.125 0.0651 0.219 0.0908 0.271l0.393 1.04c0.132 0.334 0.271 0.523 0.532 0.461 0.223-0.0517 0.292-0.171 0.237-0.407 0 0-0.0159-0.0701-0.0776-0.217l-0.595-1.56 2.18-0.508 0.624 1.63c0.143 0.376 0.291 0.722 0.365 1.04 0.272 1.18-0.468 1.43-2.05 1.79-0.543 0.127-0.98 0.212-1.34 0.239zm-85.7-0.209-2.14-0.709 0.063-4.88-0.0894-0.0308-0.828 4.62-2.07-0.683 2.07-11.5 2.07 0.684-0.992 5.52 0.0894 0.0308 1.99-5.19 2.17 0.718-2.53 5.88zm94.1-2.45-0.938-1.69 1.1-0.426-4.74-8.53 2.12-0.82 4.74 8.53 1.1-0.428 0.938 1.69zm-105-1.84c-0.429 0.0126-0.994-0.184-1.75-0.473-1.12-0.429-1.8-0.708-2.04-1.35-0.191-0.516-0.0641-1.11 0.127-1.95l1.56-6.81c0.118-0.535 0.245-0.946 0.352-1.22 0.186-0.487 0.49-0.68 0.935-0.68 0.431 6.8e-4 0.995 0.183 1.71 0.458 1.1 0.424 1.76 0.725 2.01 1.32 0.224 0.545 0.0795 1.15-0.117 2l-0.57 2.55-2.13-0.82 0.568-2.47c0.0811-0.365 0.095-0.59-0.193-0.702-0.201-0.0769-0.312-0.0129-0.398 0.214-0.02 0.0534-0.0494 0.133-0.0732 0.231l-1.52 6.67c-0.0773 0.351-0.102 0.571 0.173 0.677 0.225 0.0871 0.35 0.029 0.435-0.198 5e-3 -0.0136 0.0188-0.0859 0.0571-0.224l0.349-1.51 2.12 0.814s-0.566 2.42-0.666 2.69c-0.211 0.553-0.505 0.775-0.935 0.788zm115-2.82-8.13-8.77 1.88-1.01 1.51 1.78 0.839-0.453-1.22-1.93 1.89-1.02 5.64 10.1zm-126-2.12-2.28-1.54 3.92-11.3 1.77 1.2-0.855 2.17 0.79 0.533 1.14-1.98 1.78 1.2zm126-0.914 0.082-0.0439-2.36-3.8-0.652 0.35zm-60.6-0.548c-57 0-70.5-25.9-71.4-28.3 4.41 1.13 9.13 2.35 9.16 2.36 6.53 8.13 13.6 12.2 22.4 9.41 2.52 1.13 6.24 1.37 8.1 1.42-1.57 1.52-8.64 2.05-8.68 2.06 3.32-0.0773 15.8 1.42 19.3-8.35 0.25-0.0456 0.411-0.0742 0.617-0.111-1.56 2.16-5.4 6.81 6.88 7.9 0.926 1.68 1.18 3.12-1.14 5.23-1.89 1.72-9.33 1.43-9.36 1.43 5.3 0.409 6.48 0.682 11.6-0.231 1.84 3.8 8.52 4.24 13.3 1.89 0.897 0.216 8.86 1.82 10.6-2.77 3.93 0.835 7.54 0.555 11.7 0.27-6.73 0.125-11.1-0.948-11.2-4.61-0.0214-0.647 0.269-1.36 0.643-2.15 3.04-0.154 5.81-0.813 7.33-1.86 0.345-0.238 0.628-0.497 0.847-0.771l2.31 0.883-2.11-1.17c0.189-0.307 0.307-0.633 0.353-0.98 0.117-0.878-0.226-1.89-1.04-3.03 0 0-0.375-0.525-0.744-1.05 0.207 0.0395 0.369 0.0706 0.62 0.117 3.74 8.73 12 8.67 19.4 8.52-0.0383-5e-3 -7.15-0.565-8.72-2.11 1.51-0.0344 4.24-0.194 6.58-0.85 3.68 1.39 6.8 1.75 9.85 1.15 4.69-0.919 9.26-4.19 14-10 0.0414-0.0112 5.64-1.43 10.3-2.62-0.906 2.53-14.5 28.4-71.6 28.4zm68.7-0.981-1.32-1.4 0.962-0.687-6.69-7.1 1.85-1.32 6.69 7.1 0.964-0.688 1.32 1.4zm-134-0.984 2.24-3.87-0.612-0.413-1.7 4.23zm-8.2-2.73-1.79-1.4 4.6-8.06c0.175-0.315 0.264-0.518 0.0205-0.709-0.182-0.139-0.308-0.129-0.456 0.0615-0.0705 0.0916-0.112 0.166-0.127 0.208l-1.19 2.09-1.7-1.32 1.22-2.15c0.285-0.5 0.518-0.823 0.64-0.981 0.266-0.346 0.531-0.498 0.829-0.498 0.451 6.8e-4 0.979 0.353 1.71 0.924 1.83 1.43 1.92 1.86 0.866 3.71zm66.5-0.797c-2.29-0.101-4.45-1.09-5.61-1.82 4.96-1.18 6.27-4.18 5.12-7.12 0.459-0.131 0.842-0.306 1.16-0.514-1.19 3.72-0.0728 6.68 3.39 8.42-1.27 0.83-2.69 1.09-4.06 1.03zm12-0.895c-0.752 0.0154-1.53-0.0694-2.34-0.294 3.64-2.97 2.03-7.47 0.0762-10.8 0.117-0.191 0.239-0.392 0.362-0.596 0.205 1.11 0.877 2.13 2.5 2.61-1.34 3.38 0.558 6.12 5.13 7.22-1.49 0.814-3.47 1.77-5.73 1.81zm71.4-1.24-9.47-6.81 2.51-2.64 1.53 1.11-0.936 0.986 2.89 2.08 0.935-0.986 1.54 1.1-0.945 0.996 1.97 1.42 0.945-0.995 1.53 1.09zm-92.4-8.88c-1.56-0.0718-3.74-0.566-4.28-2.49l2.04-1.13c1.08 3.44 2.23 3.62 2.23 3.62zm61-0.798c-9.49 0.0879-18.7-6.99-22.8-10.9 0.256-0.0293 0.515-0.061 0.779-0.0967 2.17 1.99 5.59 4.79 9.77 7 4.3 2.27 9.35 3.89 14.4 3.31 0 0 6.82-1.07 11.6-8.11-4.78 7.57-11.8 8.72-11.8 8.72-0.634 0.0726-1.27 0.11-1.9 0.116zm-91.7-0.145c-0.662-6e-3 -1.33-0.0464-1.99-0.125 0 0-7.03-1.17-11.8-8.76 0.371 0.552 0.754 1.07 1.15 1.55 4.61 5.67 10.4 6.6 10.4 6.6 12.4 1.54 24.4-10.4 24.5-10.5 0 0 0.723 0.0493 0.814 0.0527-3.29 3.12-6.95 5.76-10 7.45-3.88 2.12-8.41 3.76-13 3.71zm61.4-0.16c0.249-0.327 0.604-0.836 0.949-1.47l1.82 0.693c-0.173 0.132-0.371 0.253-0.596 0.357-0.58 0.272-1.3 0.409-2.17 0.423zm3.35-1.38-1.94-1.08c0.27-0.657 0.486-1.39 0.568-2.17 0.0285-0.279 0.0326-0.564 0.0234-0.851 0.211 0.0466 0.421 0.0934 0.63 0.133 0 0 0.88 0.163 1.13 0.211 0.0953 0.67 0.192 1.35 0.192 1.35 6.7e-4 9e-3 0.0442 0.341-0.0103 0.806-0.0553 0.466-0.208 1.06-0.602 1.6zm-38.3-0.485c-0.109-0.823 0.0219-1.17 0.177-2.23 0.252-0.047 1.54-0.289 1.75-0.334-0.0102 0.283 0.0265 0.885 0.0278 0.907zm-0.899-2.6c0.627-1.24 2.4-2.29 3.92-2.99-0.469 0.636-0.797 1.32-0.958 2.04-0.973 0.446-2.19 0.741-2.96 0.948zm69.9-0.97c1.3-1.54 2.31-2.08 5.03-2.02-2.27 0.496-4.16 1.49-5.03 2.02zm-29.1-0.0747c-0.335-0.0922-2.01-0.519-2.98-0.97-0.0536-0.246-0.126-0.487-0.215-0.724 0.598 0.125 1.25 0.221 1.96 0.268 0.538 0.437 0.981 0.915 1.23 1.43zm-70-0.0864c-0.833-0.557-2.6-1.58-4.87-2.05 0.652-0.0398 2.86-0.0367 3.94 1.02 0.382 0.374 0.669 0.723 0.927 1.03zm96.6-0.488c0.51-0.885 0.794-1.8 0.794-1.8 1.4-2.87 4.63-2.55 5.08-2.54-3.37 0.27-4.94 2.99-4.94 2.99-0.262 0.742-0.637 1.12-0.879 1.31-6e-3 5e-3 -0.0144 0.01-0.0205 0.0147zm-94.1-0.146c-0.235-0.168-0.644-0.554-0.923-1.36 0 0-1.36-2.55-4.61-3.02 0.486 0 3.52 0.01 4.75 2.57 0 0 0.281 0.912 0.788 1.8zm92.2-0.65c-0.0763-0.0477-0.147-0.106-0.212-0.171 0.0377-0.343 4e-3 -0.584 4e-3 -0.584-1.53-3.2 3.78-4.08 4.7-4.2-4.69 1.03-4.24 3.64-4.24 3.64 0.185 0.417-0.0402 0.985-0.246 1.32zm-90.3-0.146c-0.184-0.337-0.428-0.906-0.243-1.32 0 0 0.598-2.59-4.09-3.63 0.92 0.129 6.09 1 4.55 4.2 0 0-0.0358 0.243 3e-3 0.586-0.0668 0.066-0.139 0.121-0.215 0.168zm66.1-0.892s-4.08 0.118-6.98-4.22l0.939 0.543s2.11 2.95 6.04 3.68zm-44.2-0.164c3.93-0.711 6.05-3.66 6.05-3.66l0.94-0.541c-2.92 4.33-6.99 4.2-6.99 4.2zm64.1-0.86-0.51-0.082c-0.905-2.09 3.84-3.06 3.92-3.07-3.13 1.01-3.47 2.52-3.41 3.15zm-81.5-0.129c0.0655-0.631-0.167-2.09-3.31-3.11-0.0319-0.0194-0.0616-0.0384-0.0937-0.0571 0 0 4.82 0.999 3.91 3.08zm2.03-0.205s-0.966-0.91 0.0571-0.908c0.273 1e-3 0.688 0.0652 1.3 0.23zm77.3-0.0205-1.35-0.684c0.612-0.162 1.03-0.226 1.3-0.226 1.02 2e-3 0.0557 0.91 0.0557 0.91zm18.8-0.173 1.57-0.945 15.7-2.46c0.0848 0.0483-17.3 3.4-17.3 3.4zm-115-0.185-17.4-3.38s0.0482-0.0297 0.133-0.0791l15.7 2.51zm111-1.37 0.621-3.51s-0.86-3.92 4.51-4.57l1.09 0.0674c-5.32 0.791-5.19 5.05-5.19 5.05l-0.993 2.83zm-92.3-3e-3s-0.408-0.897 0.0835-0.896c0.232 1e-3 0.663 0.201 1.43 0.785zm76.7-0.022-1.51-0.119c0.768-0.582 1.2-0.779 1.43-0.778 0.492 3.4e-4 0.082 0.896 0.082 0.896zm-92.1-0.149-0.0425-0.125-0.983-2.84s0.144-4.26-5.17-5.07l1.09-0.0644c5.37 0.659 4.5 4.58 4.5 4.58zm12.6-0.507s-0.408-0.897 0.085-0.896c0.232 3.4e-4 0.662 0.199 1.43 0.784zm82.4-0.0132-1.51-0.117c0.768-0.582 1.2-0.781 1.43-0.781 0.493 1e-3 0.082 0.898 0.082 0.898zm-79.5-0.778-1.39-0.596s0.0404-0.792 0.363-0.792c0.206 6.8e-4 0.529 0.324 1.03 1.39zm1.24-9e-3s-0.502-0.903 0.0483-0.902c0.24 0 0.68 0.174 1.45 0.668zm75.4-0.0132c0.506-1.06 0.831-1.39 1.04-1.39 0.323 0 0.36 0.792 0.36 0.792zm-1.24-0.0132-1.5-0.24c0.772-0.492 1.21-0.662 1.45-0.662 0.55 6.8e-4 0.0454 0.902 0.0454 0.902zm11.6-0.17-2.46-5.32c-0.75-6.94 6.19-4.91 6.19-4.91-5.58 0.118-5.34 4.96-5.34 4.96zm-15.5-0.0732c0.649-0.567 0.99-0.751 1.16-0.751 0.314 6.8e-4 0.0322 0.639 0.0322 0.639zm-81.7-0.0835 1.63-5.27s0.255-4.84-5.33-4.97l1.41-0.371c6.57 0.51 4.64 5.5 4.64 5.5zm106-0.28c0.586-0.827 5.08-7.16 5.08-7.16-0.0956-9e-3 -10.7-1.66-12.4 4.73-0.0132 0.0208-0.419 0.647-0.633 0.976-0.0533-0.497-0.256-2.42-0.264-2.5 0.0478-0.0691 4.47-6.74 4.47-6.74-2.08-0.718-4.61-0.852-6.74-0.0645l-5.85-7e-3c1.38-1.23 2.66-2.57 3.83-4l23.6 0.022c3.5 4.86 4.58 8.44 4.26 12.7-7.76-2.89-11.4-0.427-15.4 2.07zm-115-0.186c-0.906-0.574-2.76-1.75-2.77-1.75-4.04-2.31-8.47-1.71-11.6-0.724-0.175-3.47 0.72-7.64 4.11-12.1 11.3 0.498 11.1-2.43 9.83-8.74 0.0136-5e-3 0.333-0.211 0.333-0.211l3.3 8.85 7.21 0.0117c1.6 1.92 1.42 1.98 3.31 3.71l-4.1-6e-3c-0.463-0.118-0.912-0.188-1.33-0.229v1e-3c-2.45-0.229-4.68 0.589-4.68 0.589s4.54 6.63 4.59 6.7c-8e-3 0.0739-0.217 2-0.271 2.5-0.212-0.33-0.617-0.957-0.63-0.979-0.671-2.63-2.99-4.29-6.72-4.81-2.8-0.388-5.65 0.0396-5.65 0.0396s4.47 6.35 5.06 7.18zm79.1-0.0439c-2.22-0.0721-4.52-0.423-6.85-1.18l0.803-0.243s10.4 3.44 23.5-3.19c0 0-7.9 4.92-17.5 4.61zm22.4-0.0293-4.46-3.62c0.171-0.135 0.343-0.273 0.513-0.416zm-67.7-0.136c-9.6 0.281-17.5-4.67-17.5-4.67 13.1 6.68 23.5 3.27 23.5 3.27l0.804 0.246c-2.32 0.747-4.63 1.09-6.85 1.16zm-20-6e-3 3.2-3.23c0.131 0.0953 0.273 0.197 0.426 0.305zm50.6-0.855s-0.682-0.261-1.11-0.577l0.601-0.0381s0.0399-2-1.85-1.92l0.327-0.46c0.454-0.0286 2.19-0.0492 2.03 3zm-16.2-0.0264c-0.15-3.31 2-3 2.04-2.99l0.324 0.463c-1.89-0.082-1.86 1.92-1.86 1.92l0.602 0.0396c-0.428 0.315-1.11 0.573-1.11 0.573zm28.2-3.18c-0.932 0.0117-1.84-0.0192-2.73-0.0908-0.124-0.0102-0.248-0.0189-0.372-0.0308l0.58-0.494s12.9 1.43 26.2-8.29c-0.16 0.125-0.319 0.25-0.48 0.374-0.709 0.545-1.42 1.07-2.14 1.56-7.04 4.73-14.5 6.89-21 6.98zm-40-0.155c-6.52-0.103-14-2.29-21-7.04-0.719-0.487-1.43-1.02-2.14-1.57-0.16-0.124-0.319-0.248-0.479-0.374 13.3 9.77 26.2 8.37 26.2 8.37l0.577 0.495c-0.125 0.0116-0.248 0.0232-0.372 0.0322-0.888 0.0688-1.8 0.0967-2.73 0.082zm60-2.31c-0.409-0.0184-0.76-0.0366-0.76-0.0366l0.105-0.895 1.48-0.599zm-77.6-0.126-0.579-1.07c0.415 0.269 0.854 0.541 1.31 0.813l0.0264 0.224s-0.354 0.0199-0.762 0.0351zm105-10.8c-5.85-9e-3 -6.15-0.409-6.76-3.55 0 0-0.496-2.52-0.498-2.53-0.191-0.92-0.192-1.62 0.521-2.2-0.112 0.461-0.0444 0.765 0.0688 1.32 6.8e-4 8e-3 0.497 2.53 0.497 2.53 0.615 3.14 0.915 3.54 6.76 3.55 1.7 2e-3 3.75 5e-3 4.7-0.362-0.0156 1.11-1.36 1.25-5.29 1.24zm-48.4-0.0234c-2.93-5e-3 -4.77-0.0434-5.68-0.762-0.622-0.48-0.794-1.22-1.1-2.72 0 0-2.57-13-2.57-13-0.0875-0.417-0.146-0.782-0.186-1.1 2e-3 2e-3 2e-3 3e-3 3e-3 4e-3 0 0 0.321 0.0887 0.75 0.11 7e-3 0.0317 2.59 13.1 2.59 13.1 0.304 1.49 0.48 2.23 1.1 2.71v1e-3c0.908 0.719 2.75 0.758 5.68 0.762 1.68 3e-3 3.71 5e-3 4.66-0.353v0.0147c-1e-3 0.457-0.129 0.587-0.177 0.634-0.595 0.595-3.08 0.591-5.07 0.587zm16.3-0.0322c-3.02-4e-3 -4.77-0.0422-5.66-0.749-0.614-0.492-0.817-1.24-1.14-2.83 0 0-2.43-12.2-2.55-12.9-0.178-0.957-0.662-2.63 0.338-2.74-0.0159-0.0218 0.0706 1 0.249 1.85 3e-3 0.0153 2.55 12.9 2.55 12.9 0.317 1.59 0.521 2.34 1.14 2.83 0.896 0.707 2.65 0.744 5.66 0.75 1.68 2e-3 3.71 5e-3 4.66-0.353v0.0147c-6.8e-4 0.455-0.13 0.585-0.177 0.634-0.596 0.594-3.08 0.59-5.07 0.586zm-32.6-0.0513c-5.79-9e-3 -6.14-0.253-6.8-3.58 0 0-2.55-12.9-2.55-12.9-0.53-2.51-0.21-2.6 0.335-2.79 0.0146 0.422 0.0744 1.05 0.255 1.91 2e-3 0.0126 2.55 12.9 2.55 12.9 0.638 3.19 0.893 3.57 6.8 3.58 1.68 4e-3 3.71 7e-3 4.66-0.35l1e-3 0.0146c-4e-3 1.02-1.03 1.22-5.25 1.22zm54.2-0.0996-3.45-6e-3 -3.39-7.52 1.01 1e-3 2.97 6.64 2.4 4e-3zm-7.9-0.0117-3.53-6e-3 -3.84-19.3h0.765l3.67 18.4 2.76 4e-3zm-113-9e-3c-5.94-0.0112-6.17-0.385-6.8-3.61 0 0-2.56-12.9-2.55-12.9-0.419-1.98-0.303-2.54 0.331-2.77 0.0519 7e-3 0.0872 1.01 0.258 1.89l2.55 12.9c0.608 3.13 0.82 3.6 6.8 3.61 1.6 2e-3 3.69 4e-3 4.66-0.363-6.8e-4 0.85-0.327 1.25-5.25 1.25zm56.3-0.0454-7.42-0.0103-3.19-16.1c0.22-0.138 0.448-0.304 0.664-0.504l3.12 15.7 6.65 0.0103zm-12-0.0176-5.28-9e-3 -4.59-11.8 0.948 1e-3 4.23 10.9 4.52 7e-3zm-11.5-0.019-5.36-7e-3 -3.85-19.3 0.765 1e-3 3.67 18.4 4.76 9e-3zm-13.5-0.0234-5.42-6e-3 -7.2-19.3 0.917 1e-3 6.87 18.5 4.81 7e-3zm114-2.21c0.0377-0.144 0.0496-0.797-0.0322-1.14l-0.34-1.74 0.762 1e-3 0.168 0.858c0.256 1.09-0.126 1.72-0.558 2.03zm-48.4-0.0498c0.0387-0.144 0.0623-0.306 0.063-0.491 0-0.188-0.0314-0.41-0.0937-0.656-0.079-0.398-2.09-10.5-2.45-12.3 0.379 0.189 0.799 0.323 0.832 0.334 0.651 3.27 2.14 10.7 2.21 11.1 0.0627 0.245 0.0952 0.469 0.0952 0.658-2e-3 0.617-0.258 1-0.473 1.22-0.0577 0.0572-0.118 0.11-0.18 0.155zm16.3-0.0308c0.0373-0.146 0.063-0.308 0.063-0.492 0-0.117-0.0178-0.207-0.0337-0.284-0.0115-0.0599-0.363-1.9-0.363-1.9h0.763s0.223 1.18 0.223 1.3c-1e-3 0.618-0.257 1-0.472 1.22-0.0573 0.0572-0.118 0.108-0.18 0.155zm-32.6-0.0527c0.0366-0.145 0.0457-0.698 0.0308-0.776-0.0129-0.0599-0.365-1.9-0.365-1.9h0.765c0.246 1.47 0.43 1.9-0.431 2.67zm-67.1-0.116c0.197-0.772-0.156-1.48-0.337-2.71 0 0 0.769 9e-3 0.763 0 0.153 0.808 0.55 1.95-0.426 2.71zm16.4-1.71-0.671-1e-3 -0.895-9.63-3.59-6e-3 -0.265-0.885 4.45 6e-3zm112-2.94c0.266-0.888 1.16-1.28 1.58-1.47l3.46-1.51c0.436-0.184 0.749-0.376 0.979-0.564-0.0709 0.362-0.358 0.936-1.57 1.45l-3.47 1.51c-0.245 0.106-0.648 0.283-0.996 0.586zm-89.6-0.656-2.3-11.5h0.766l2.3 11.5zm-7.41-0.0132-0.609-1e-3 -0.28-11.5h0.609zm22.6-0.123-2.87-3e-3 -0.174-0.885 2.87 3e-3zm59.8-2.06-0.524-1e-3 0.655-9.25h0.526zm-111-0.539-4.57-6e-3 -0.259-1.27 0.771 1e-3 0.0762 0.379 3.81 7e-3zm128-1.01c0.113-0.386 0.1-0.855-0.0103-1.3l-0.64-3.22c-0.557-2.77-3.11-1.83-3.45-1.58 0.0882-0.345 0.259-0.582 0.41-0.734 0.729-0.73 3.13-1.03 3.63 1.43 6.8e-4 6e-3 0.653 3.3 0.653 3.3 0.151 0.767 0.107 1.51-0.593 2.1zm-28.2-0.722-3.81-4e-3c-0.265-1.36-0.744-3.78-0.746-3.79-0.511-2.51-2.85-2.07-3.46-1.62 0.213-0.836 0.958-1.24 1.83-1.23 1.81 2e-3 2.1 1.43 2.22 1.97 0 5e-3 0.479 2.43 0.747 3.79l3.04 4e-3zm-32.6-0.0527-3.81-6e-3c-0.267-1.36-0.746-3.78-0.747-3.79-0.507-2.47-2.83-2.08-3.45-1.62 0.44-1.74 3.69-1.71 4.04 0.743v1e-3c2e-3 5e-3 0.48 2.43 0.746 3.79l3.04 4e-3zm-70.2-0.365-0.769-1e-3s-0.801-3.92-0.835-4.03c-0.279-1.55-2.41-1.83-3.35-1.14 0.207-0.833 1.01-1.24 1.86-1.24 0.0183 1e-3 1.64 0.808 2.02 1.29-1e-3 -0.0191 1.07 5.12 1.07 5.12zm127-0.0425-3.82-7e-3c-0.258-1.27-0.704-3.47-0.706-3.47-0.469-2.29-0.0849-2.57 0.366-2.75v0.0161c-1e-3 0.28 0.0281 0.89 0.224 1.85 0 6.9e-4 0.446 2.2 0.705 3.47l3.05 4e-3zm-111-3.27-0.678-1e-3 -0.333-3.36h0.677zm62.2-1.65c0.0726-0.286 0.208-0.53 0.409-0.732 0.294-0.293 0.653-0.415 0.945-0.464-6e-3 0.302 0.0428 0.626 0.107 0.857-0.0716-6e-3 -0.146-7e-3 -0.223-7e-3 -0.201 0-0.764-7.2e-4 -1.24 0.347zm-28.8-0.36-0.177-0.886h0.135c0.143 0.319 0.335 0.623 0.59 0.886zm34.4-0.0982c-1.79 0.159-1.53-1.64-1.53-1.64l0.62-0.262c0.231-2.03-0.68-3.54-0.68-3.54 2.51 2.03 2.51 3.9 2.51 3.9 0.096 1.38-0.917 1.54-0.917 1.54zm-41.1-0.0688s-1.01-0.165-0.911-1.54c0 0 2e-3 -1.87 2.52-3.89 0 0-0.916 1.5-0.691 3.54l0.62 0.262s0.259 1.8-1.54 1.63zm31.4-1.69c-0.262 0.0206-0.812-0.0782-1.03-1.21 0 0-0.681-2.52 1.28-2.68 0 0-0.819 2 0.844 2.39 0 0 0.0962 1.21-0.948 1.47 0 0-0.0549 0.0195-0.142 0.0264zm-21.6-0.0352c-0.0871-7e-3 -0.142-0.0278-0.142-0.0278-1.04-0.264-0.945-1.48-0.945-1.48 1.66-0.39 0.853-2.39 0.853-2.39 1.96 0.166 1.27 2.69 1.27 2.69-0.223 1.13-0.773 1.23-1.03 1.2zm41.3-2.19c-2.15 0.161-1.2-1.71-1.2-1.71 2.48-0.161 1.93-2.52 1.93-2.52 1.4 2.92-0.725 4.22-0.725 4.22zm-61-0.0996s-2.12-1.31-0.712-4.22c0 0-0.558 2.36 1.92 2.52 0 0 0.944 1.87-1.21 1.7zm49.7-6.04c-0.0295-2.42-1.63-3.11-1.63-3.11 0.262 0.133 0.457 0.918 0.457 0.918-1.47-0.167-0.977-1.31-0.977-1.31 0.243-0.686 0.608-0.877 0.945-0.877 0.434 2e-3 0.817 0.324 0.817 0.324 1.5 1.38 0.385 4.06 0.385 4.06zm-38.3-0.0615s-1.11-2.69 0.397-4.06c0 0 0.385-0.321 0.819-0.321 0.336 0 0.702 0.194 0.943 0.88 0 0 0.486 1.15-0.981 1.31 0 0 0.197-0.785 0.457-0.917 0 0-1.6 0.685-1.63 3.11z" fill="#fff"/>
  </g>
 </g>
</svg>