<?xml version="1.0" encoding="UTF-8" standalone="no"?>
<svg xmlns:rdf="http://www.w3.org/1999/02/22-rdf-syntax-ns#" xmlns="http://www.w3.org/2000/svg" xml:space="preserve" height="119.67" viewBox="0 0 363.19327 119.66663" width="363.19" version="1.1" xmlns:cc="http://creativecommons.org/ns#" xmlns:dc="http://purl.org/dc/elements/1.1/"><g transform="matrix(1.25 0 0 -1.25 -201.59 558.25)"><g style="" transform="translate(1.0177 .76328)"><path d="m213.4 445-8.4833-34.221h-35.252l-7.678-30.974c-1.7553-7.0777-0.2522-14.378 4.1235-20.028 4.3858-5.6634 11.066-8.9108 18.33-8.9108h219.26c13.439 0 25.555 9.5299 28.81 22.66l17.715 71.473h-236.82" fill="#b5a36a"/><path d="m216.63 440.87-8.4834-34.221h-35.252l-6.9009-27.843c-1.4504-5.8449-0.2176-11.862 3.3809-16.509 3.5978-4.6467 9.0908-7.3111 15.068-7.3111h219.26c11.569 0 22.001 8.2123 24.806 19.527l16.447 66.357h-228.32" fill="#450084"/><path d="m79.383 17.709-15.951 64.342h-13.654l5.3477-21.566h-30.412l-6.3691 25.697c-0.96538 3.8941-0.14542 7.9023 2.252 10.998 2.3974 3.0948 6.0574 4.8691 10.039 4.8691h45.023c9.1801 0 17.458-6.5145 19.684-15.494l17.066-68.846h-33.025zm228.85 0-15.951 64.342h-13.654l15.939-64.295h-33.025l-16.959 68.426c-0.96738 3.8941-0.14742 7.9023 2.252 10.998 2.3954 3.0948 6.0565 4.8691 10.037 4.8691h47.637c9.1801 0 17.458-6.5145 19.684-15.494l17.068-68.846h-33.027zm-182.1 0.04687-20.908 84.34h33.027l11.816-47.664 3.9277 47.664h24.094l27.699-47.904-11.877 47.904h33.029l20.906-84.34h-51.258l-23.439 42.117-4.1797-42.117h-42.838z" transform="matrix(.8 0 0 -.8 160.25 445.84)" fill="#b5a36a"/><path d="m106.35 17.709-16.653 67.178c-1.6128 6.5068-7.5207 11.156-14.174 11.156h-55.705c0.23862 0.39 0.49542 0.77134 0.7793 1.1367 2.3964 3.0958 6.0555 4.8691 10.037 4.8691h45.023c9.1801 0 17.458-6.5145 19.684-15.494l17.066-68.846h-6.0586zm228.85 0-16.648 67.178c-1.6118 6.5068-7.5227 11.156-14.176 11.156h-58.318c0.23863 0.39 0.49543 0.77134 0.7793 1.1367 2.3964 3.0958 6.0565 4.8691 10.037 4.8691h47.637c9.1801 0 17.46-6.5145 19.684-15.494l17.068-68.846h-6.0625zm-93.42 0.04687-19.42 78.34h-26.961l-1.4883 6h33.029l20.906-84.34h-6.0664zm46.723 0-15.938 64.295h6.0664l15.938-64.295h-6.0664zm-77.83 16.711-35.67 61.629h-21.504l0.49414 6h24.094l27.699-47.904 4.8887-19.725zm-62.117 1.668-14.863 59.961h-26.984l-1.4883 6h33.027l11.816-47.664-1.5078-18.297zm-99.498 24.35-5.3457 21.566h6.0664l5.3477-21.566h-6.0684zm-30.835 32.271c0.0075 0.02837 0.01847 0.05561 0.02734 0.08398-0.0062-0.0245-0.01266-0.04972-0.01953-0.07422l-0.0078-0.0098z" transform="matrix(.8 0 0 -.8 160.25 445.84)" fill="#fff"/></g></g></svg>
