<svg xmlns="http://www.w3.org/2000/svg" width="300" height="266" viewBox="0 0 300 266">
 <g transform="matrix(1.33 0 0 -1.33 -705 512)">
  <g>
   <path d="m662 254c2.28 1.65 4.58 3.17 6.83 4.59-1.74-3.27-2.17-6.16-2.4-7.79 0 0-0.0121-0.0711-0.0151-0.0877-0.944-0.458-2.19-1.21-3.75-2.61-1.57-1.42-2.63-3.04-3.25-4.07-1.5-0.334-2.81-0.736-3.65-1.74-0.51-0.611-0.67-1.25-0.959-2.42-0.256-1.03-0.606-2.45-1.16-3.68-0.168-0.373-0.321-0.706-0.464-1.02-0.741 0.847-1.57 1.74-2.44 2.54-1.32 1.22-2.99 2.44-4.39 3.41 3.44 3.08 10.4 9.06 15.7 12.9m-0.602 129c-6.02-0.29-10-4.14-11.9-6.37-7.04 2.26-14.5 2.21-21.1-0.201-10.5-3.8-13.8-10-15.1-12.6-1.36-0.231-3.56-0.821-5.58-2.66-0.821-0.747-2.03-2.4-4.09-5.27-1.95-2.71-4.38-6.08-5.69-7.33-3.93-3.71-5.67-4.29-7.88-4.15-1.41 0.0953-2.65-0.841-2.95-2.22-0.0363-0.175-0.0544-0.357-0.0544-0.547 0-2.51 3.12-6.24 5.64-7.18 1.14-0.423 2.2-0.674 3.16-0.824-0.21-0.652-0.395-1.33-0.516-1.99-0.166-0.894-0.702-2.79-1.17-4.47-0.785-2.78-1.22-4.34-1.22-5.4 0-0.856 0.289-1.38 0.919-1.95 0.611-0.55 1.27-0.741 1.91-0.738-0.174-0.697-0.378-1.44-0.632-2.23-0.399-1.24-1.22-2.87-1.88-4.18-0.69-1.37-1.32-2.62-1.32-3.73 0-0.773 0.311-1.47 1.13-2.08 0.355-0.263 1.04-0.729 3-0.653-0.065-0.107-0.189-0.313-0.189-0.313-0.875-1.38-1.53-2.41-1.53-3.47 0-0.367 0.0771-0.738 0.249-1.13 0.284-0.641 0.783-1.09 1.4-1.41-0.732-0.564-1.37-1.26-1.78-2.1-0.313-0.649-0.47-1.34-0.47-2.03 0-0.637 0.132-1.27 0.396-1.89 0.305-0.709 0.682-1.26 1.1-1.71-0.404-0.171-0.792-0.34-1.16-0.508-1.89 6.61-4.33 9.94-7.25 9.9-0.564-9e-3 -1.28-0.112-1.99-0.41-0.201 0.588-0.395 1.16-0.559 1.64l-1.17 3.36c-3.98 10.7-7.59 10.4-8.77 10.3-3.71-0.262-4.68-3.91-4.88-7.42-0.7 0.708-1.54 1.13-2.63 1.05-0.599-0.0408-1.08-0.225-1.52-0.461-0.638 1.35-1.34 2.69-2.06 3.71l-0.434 0.623c-2.13 3.06-5.04 7.26-8.95 5.63-3.21-1.34-4.05-4.39-4.05-7.76 0-2.06 0.315-4.24 0.602-6.24 0.166-1.16 0.387-2.4 0.631-3.64-0.257 0.0847-0.514 0.188-0.773 0.222-1.26 0.165-2.44-0.242-3.34-1.15-1.31-1.32-1.75-2.79-1.75-4.2 0-1.78 0.691-3.48 1.19-4.71 0 0 0.268-0.673 0.305-0.767-0.0469-0.0227-0.0892-0.0408-0.138-0.0665-2.48 2.3-6.07 4.85-9.26 3.13-1.11-0.599-1.88-1.59-2.23-2.87-0.142-0.517-0.204-1.07-0.204-1.65 0-3.91 2.85-8.86 3.5-9.93 0.321-0.532 0.944-1.63 1.57-2.75-0.767-0.272-1.56-0.818-2.01-1.95-0.188-0.466-0.269-0.934-0.269-1.4 0-1.3 0.652-2.57 1.48-3.68-1.01-0.2-1.84-0.75-2.38-1.76-1.65 0.52-6.03 1.57-7.27-1.43-0.142-0.343-0.206-0.694-0.206-1.05 0-2.62 3.49-5.44 5.03-6.56-0.195-0.402-0.33-0.829-0.33-1.28 0-0.201 0.0197-0.404 0.0605-0.605 0.399-1.96 2.43-3.42 6.84-5.93 0 0 0.236-0.136 0.464-0.269-0.0272-0.0892-0.0696-0.159-0.0892-0.257-0.0499-0.236-0.0741-0.464-0.0741-0.69 0-2.82 3.7-4.71 4.98-5.36 0 0 0.23-0.107 0.553-0.262-0.9-1.36-1.46-2.81-1.59-4.37-0.0151-0.188-0.0227-0.372-0.0227-0.555 0-3.61 2.96-6.32 5.92-6.64 8e-3 0 0.177-0.0181 0.443-0.0333 0.0756-0.39 0.183-0.801 0.377-1.43 6e-3 -0.0197 0.29-0.809 0.803-1.7-0.888-0.118-1.96-0.318-3.33-0.652-2.9-0.709-7.06-2.21-9.29-3.02l-1.11-0.396c-4.04-1.42-4.31-3.1-4.4-3.65-0.0242-0.151-0.0363-0.301-0.0363-0.452 0-0.854 0.393-1.67 1.08-2.21 0.206-0.16 0.417-0.28 0.628-0.373-3.66-2.19-5.17-5.9-5.17-8.46 0-0.296 0.0197-0.578 0.059-0.838 0.184-1.24 0.42-2.17 0.626-2.84-0.224-0.773-0.389-1.69-0.389-2.73 0-2.01 0.585-4.4 2.39-6.7 3.65-4.67 11.1-6.62 17-6.48 4.4 0.107 6.88 0.798 8.13 1.16 6.82-2.24 14.4-2.93 22.6-2.02 8.73 0.974 16.8 4.09 20.3 5.6 1.17-0.998 2.83-1.89 4.94-1.98 5.12-0.219 8.19 4.81 10.5 9.75 0.901 1.92 1.58 3.44 2.12 4.69 0.292-0.274 0.591-0.535 0.901-0.762l0.579-0.431c1.53-1.14 3.26-2.44 5.66-2 0.966 0.174 1.69 0.634 2.23 1.19 0.576-0.413 1.23-0.86 2.07-1.37l0.354-0.215c1.23-0.745 2.43-1.47 3.59-2.02-0.216-0.283-0.431-0.561-0.643-0.877-2.74-4.09-3.61-7.73-3.61-10.5 0-2.05 0.472-3.64 1.01-4.6 1.06-1.89 2.58-2.03 3.18-2 0.266 0.0106 2.6 0.192 2.78 2.95 0.106 1.6 2.21 3.9 3.96 5.55 1.2 1.13 2.27 1.84 3.11 2.3 0.561-1.02 1.28-2.18 2.09-3.13 1.12-1.31 2.96-2.23 4.31-2.9 0 0 0.437-0.227 0.661-0.343 0.0892-0.113 0.2-0.251 0.2-0.251 1.05-1.37 3.24-4.22 7.96-4.27 4.73-0.0484 10.6 4.65 13.3 7.99 3.27 4.06 4.99 7.9 5.71 9.76 1.9 1.03 5.87 3.64 11.5 9.77 9.26 10.1 13.3 21.9 14.1 24.1 1.48 4.63 2.21 8.38 2.21 11.4 0 2.09-0.351 3.82-1.05 5.25-1.46 2.99-3.53 4.28-5.23 4.73-1.57 2.4-5.54 7.44-12.1 8.77-1.74 0.355-3.36 0.528-4.9 0.564 2.54 1.4 4.44 2.47 5.57 3.28 1.09 0.78 9.71 7.17 9.71 14.3 0 0.841-0.119 1.69-0.384 2.54-1.38 4.44-5.19 6.33-8.32 7.15 0.0953 0.425 0.165 0.863 0.165 1.33 0 0.383-0.0363 0.777-0.115 1.19-0.225 1.17-0.726 2.1-1.42 2.84 5.75 0.29 12.5 0.971 18.9 2.47 9.04 2.09 14.3 3.96 18.5 5.45 1.93 0.682 3.59 1.27 5.35 1.79 4.1 1.22 7.34 2.05 9.07 2.5 1.72 0.442 1.9 0.488 2.34 0.782 0.863 0.576 1.38 1.55 1.38 2.57 0 0.0605-2e-3 0.122-5e-3 0.184-0.0665 1.07-0.686 2-1.66 2.49-2e-3 2e-3 -0.417 0.188-0.417 0.188-5.56 2.38-10.6 5.25-13.8 7.23-3.44 2.1-6.75 4.61-9.19 6.58 2.94 0.686 6.48 1.42 8.64 1.57 8.25 0.559 13.6-1.04 15.5-1.76 2.63-0.992 4.29-2.56 4.31-2.57l3.02-2.88 1.41 3.92c0.216 0.606 5.12 15-8.84 30-13.6 14.6-34.1 16.8-48.1 12.6-1.99 1.76-6.05 5.07-9.37 5.99-5.07 1.4-8.23 0.655-10.1-0.313-2.74 1.7-8.44 4.74-13.9 4.47" fill="#fff"/>
   <path d="m662 380c-6.99-0.337-10.8-6.65-10.8-6.65s-0.343-0.135-0.895 0.063c-2.64 0.95-10.9 3.64-20.5 0.171-12.1-4.4-13.6-12-14.4-12.5-0.28-0.16-3.03-0.0173-5.41-2.18-1.49-1.35-7.07-10-9.74-12.6-3.97-3.75-6.49-5.11-9.92-4.88-0.677 0.0454 1.56-3.89 3.76-4.71 3.59-1.33 6.23-0.684 6.23-0.684s-1.44-2.86-1.87-5.16c-0.425-2.3-2.61-9.05-2.32-9.3 0.283-0.256 1.77 0.678 2.23 0.82 0.454 0.141 1.34 0.476 1.34 0.476s-0.244-3.14-1.52-7.11c-0.903-2.8-3.37-6.74-3.04-6.98 0.378-0.278 2.13-0.0946 3.13 0.0747 0.992 0.171 2.57 0.577 2.57 0.577s-0.637-2.43-1.2-3.56c-0.569-1.13-2.24-3.41-2.1-3.74 0.0877-0.198 1.77-0.707 4.66-0.299 2.52 0.357 4.57 1.48 4.57 1.48s-0.553-1.02-0.817-1.69c-0.249-0.638-0.402-2.02-0.715-2.25-0.313-0.227-3.72-0.484-4.99-0.831-1.66-0.451-3.99-1.91-3.15-3.86 0.9-2.09 2.58-1.8 6.52-2.31 3.94-0.511 4.88-0.993 4.88-0.993s-0.0476-3e-5 -0.0483 0c-0.0479-0.0421-1.74-1.54-0.883-2.84 0.863-1.32 3.66-1.41 5.02-1.46 1.31-0.0514 1.8 0.223 1.92-0.0132 0.141-0.271-0.449-0.506-0.763-1.13-0.31-0.62-0.0996-2.05 2.62-2.55 4.61-0.853 8.65-0.891 9.42-0.93 0.773-0.0393 1.15-0.218 1.15-0.309 0-0.271-0.163-0.0803-2.97-0.322-2.4-0.207-6.7-0.247-8.73 0.154-2.67 0.529-3.14 1.52-3.19 2.21-0.0408 0.543 0.168 1.56 0.103 1.64-0.0635 0.0771-4.46-0.946-5.84 1.11-1.74 2.58 0.192 4.33 0.315 4.44-1.51-0.0218-3.54-0.117-5.78-0.577-3.29-0.677-8.08-3.3-8.08-3.3s-2.52 11.1-5.42 11.1c-2.72-0.0408-2.35-3.31-2.64-3.27-0.55 0.068-2.62 6.83-3.66 9.63-1.03 2.77-3.63 8.74-6.04 8.57-2.41-0.169-2.52-4.5-2.35-8.81 0.169-4.31 0.0841-8.8-0.0293-8.8-0.113 0-1.28 2.09-2.35 5.62-0.91 2.98-1.82 5.69-2.78 5.62-1.74-0.124-1.67-4.4-1.82-4.34-0.142 0.0575-2.24 5.99-4.17 8.74-1.93 2.75-4.08 6.16-6.13 5.3-3.11-1.3-2.55-6.03-1.82-11.1 0.782-5.43 2.81-13.1 2.81-13.1s-4.83 8.44-7.05 6.19c-1.97-1.99-0.439-4.7 0.381-6.87 0.853-2.26 2.17-4.35 2.04-4.45-0.516-0.414-2.19 1.63-3.32 1.16-1.21-0.496-0.589-2.11-0.816-2.08-0.227 0.0287-5.67 6.72-8.58 5.15-2.92-1.58 1.28-9.3 2.1-10.7 0.823-1.36 3.49-6.19 3.55-6.33 0.056-0.141-1.08-0.199-1.9-0.256-0.823-0.056-1.61 0.156-1.88-0.521-0.218-0.543-0.0173-1.72 2.22-4.02 2.24-2.3 3.71-3.48 3.55-3.69-0.357-0.461-6.49 2.1-7.15 0.51-0.423-1.02 0.992-2.27 0.992-2.27s-2.29 0.446-3.9 0.983c-1.89 0.632-3.94 0.711-4.16 0.18-0.262-0.631 2.53-3.51 4.51-4.79 4.3-2.78 5.08-2.41 5.16-2.58 0.0847-0.171-5.18 0.539-4.96-0.541 0.262-1.29 4.92-3.74 6.4-4.62 1.47-0.88 4.75-2.3 4.67-2.44-0.0862-0.142-0.88 0-1.79 0-0.909 0-1.95 0.0446-2.07-0.494-0.115-0.54 0.63-1.62 3.49-3.08 2.59-1.32 3.77-1.67 3.72-1.81-0.0575-0.142-3.01-2.05-3.29-5.45-0.203-2.43 1.93-4.11 3.49-4.28 1.56-0.169 2.67 0.113 2.67 0.113 0.0665-2.2 0.00973-2.05 0.448-3.48 0.425-1.39 1.54-2.42 1.57-2.42 0.0287 0-0.226-0.711-0.48-1.25-0.256-0.538-0.456-1.48-0.456-1.48s-0.836 0.414-5.11-0.631c-3.33-0.814-8.53-2.77-10.1-3.34-1.62-0.567-2.85-1.42-2.59-1.62s1.08-0.055 2.3-0.311c1.22-0.256 4.37-1.14 5.9-1.28 1.53-0.142 2.78-0.284 2.78-0.284s-0.039-0.339-0.0103-0.737c0.0272-0.396 0.0659-0.908 0.0659-0.908s-0.652-0.369-1.25-0.851c-0.596-0.482-1.08-1.13-1.08-1.13s-3.89 2.88-7.66 1.08c-3.87-1.85-4.71-5.62-4.51-6.98 0.325-2.18 0.82-3.22 0.82-3.22s-1.86-3.8 1.26-7.78c2.96-3.78 9.55-5.56 14.8-5.44 5.59 0.135 7.79 1.28 8.27 1.25 0.482-0.0272 8.6-3.65 22.2-2.13 11.1 1.24 21.3 6.19 21.3 6.19s1.41-2.43 4.37-2.55c2.37-0.101 4.77 1.45 7.95 8.2 3.18 6.75 3.75 8.86 3.75 8.86s1.63-2.65 3.33-3.9c1.7-1.25 2.74-2.21 4.16-1.95 1.42 0.256 1.64 2.55 1.89 2.58 0.256 0.0287 1.05-1.15 4.29-3.11 2.45-1.48 5.24-3.25 6.52-2.62 0.479 0.234-0.904 3.09-0.904 3.09l0.705-0.322c-0.0181 0.0938 0.275-0.607 1.22-1.34 0.882-0.688 2.01-0.887 2.01-1 0-0.113-2.93-1.02-5.42-4.74-4.99-7.45-2.82-13-1.79-12.9 0.674 0.0287-1.17 1.94 5.01 7.76 3.51 3.3 6.28 3.76 6.28 3.76s1.3-2.99 2.84-4.8c1.07-1.25 3.69-2.27 4.54-2.81 0.851-0.54 2.09-3.96 6.55-4.01 3.49-0.0348 8.79 3.98 11.2 6.99 4.18 5.2 5.65 10 5.65 10s4.26 1.58 11.7 9.65c7.73 8.41 12 18.4 13.5 23.1 2.3 7.21 2.61 11.9 1.31 14.6-1.84 3.75-4.44 3.39-4.44 3.39s-3.68 7.15-11 8.64c-6.65 1.35-12.2 0.483-15.9-5.52-3.05-5.04-2.33-9.18-3.12-9.5-0.794-0.311-2.09-0.797-4.11-2.61-2.01-1.82-3.15-4.23-3.32-4.4-0.169-0.169-2.74-0.437-3.32-1.13-0.281-0.339-0.653-3.08-1.73-5.48-2.11-4.7-2.53-4.74-2.53-4.74s-2.27 3.15-4.68 5.38c-2.46 2.26-6.52 4.75-6.69 4.95-0.171 0.2-0.085 0.114 0.0571 0.369 0.141 0.256 10.7 9.78 18.2 15.2 11.4 8.25 23.5 13.9 26.8 16.2 3.29 2.36 9.94 8.61 8.31 13.8-1.39 4.47-6.42 5.53-8.86 5.78-0.00934-0.00796-0.781-0.667-1.42-1.06-0.369-0.228-1.13-0.44-1.03-0.625 0.0635-0.116 0.896-0.0166 3.2-0.609 2.3-0.591 3.91-2.45 2.83-4.63-1.35-2.72-5.68-4.8-8.8-5.51-5.23-1.19-9.36-0.965-9.32-1.1 0.0333-0.135 0.744-0.473 1.17-1.79 0.485-1.51-1.19-3.32-2.96-3.86-1.22-0.372-5.67 0.119-5.65-0.354 0.00605-0.168 2.28-3-1.84-4.89-2.67-1.23-9.56-1.95-13.6-1.66-4.44 0.316-5.45 0.186-5.43 0.558 0.0166 0.378 3.2 0.457 13.1 1.49 6.39 0.668 6.82 2.13 6.72 3.04s-1.56 2.03-1.64 2.22c-0.0847 0.186-0.0847 0.49 0.609 0.457 0.693-0.0333 4.21 0.0506 6.56 0.727 2.05 0.59 2.73 1.69 2.66 2.35-0.068 0.661-1.9 2.05-2.17 2.2-0.271 0.151-0.491 0.653 0.271 0.659 1.98 0.0166 8.71 1.38 12.7 2.37 4.01 0.999 6.38 3.24 6.53 4.6 0.103 0.907-1.6 2.07-4.18 2.44-2.64 0.372-3.64 0.339-3.65 0.728-0.00756 0.175 1.13 0.861 1.79 1.15 0.65 0.285 2.16 1.16 2.21 1.19-2.9e-4 0-0.022 0.00147-0.022 0.00147s2.35 1.6 1.87 4.1c-0.396 2.05-2.15 3.27-9.7 3.56-5.65 0.213-8.91 0.1-8.94 0.127-0.0287 0.0287 0.227 0.71 0.369 1.33 0.142 0.623 0.226 1.36 0.255 1.33 0.0287-0.0287 19.9-1.99 37.6 2.1 12.9 2.99 17.9 5.47 23.7 7.21 6.31 1.88 10.5 2.83 10.7 2.94 0.17 0.113 0.292 0.429 0.00879 0.57-0.284 0.144-6.33 2.56-14.4 7.52-7.1 4.34-13.6 10.2-13.6 10.2s9.72 2.62 14.2 2.92c8.15 0.552 13.8-0.892 16.6-1.93 3.25-1.23 5.23-3.16 5.23-3.16s4.73 13.3-8.27 27.2c-12.7 13.6-32.7 16.2-46.9 11.5 0 0-5.6 5.35-9.38 6.4-7.17 1.99-9.29-0.989-9.29-0.989s-7.31 5.37-13.8 5.05zm23.8-88c0.017 2.1e-4 0.52 0.00797 1.33-0.0747 6e-5 5e-5 0.00586 0.0044 0.00586 0.0044s-0.462 0.045-0.63 0.0586c-0.204 0.0166-0.677 0.0264-0.677 0.0264s-0.0242-0.0143-0.0249-0.0146zm-79.2-0.615c0.898 0.013 1.8 0.0142 1.83 0.0132 6.8e-4 6e-4 0.00879 0.00732 0.00879 0.00732s-0.606 0.0264-1.03 0.0264c-0.422 0-0.787-0.0264-0.787-0.0264s-0.018-0.017-0.022-0.0205zm46.3 63.3c3.29-0.0266 7.01-3.17 7.01-3.17s-4.12 1.99-6.48 0.0352c-2.11-1.75-0.81-4.45-0.81-4.45s1.4-0.443 2.76-0.812c1.32-0.357 2.95-0.955 2.95-0.955s-1-0.328-2.17-0.516c-1.47-0.233-2.13-0.479-2.13-0.479s3.46-4.97 7.77-5.08c2.78-0.0711 4.38 2.72 4.38 2.72s0.626-2.58-2.29-3.9c-2.5-1.14-7.28 0.806-10.8 4.31-3.61 3.57-6 9.5-2.32 11.7 0.661 0.403 1.4 0.563 2.15 0.557zm-61.2-78.5c1.23 0 2.58-0.0414 3.68-0.0747l1.69-0.041 4.64 0.116c0.951 0 1.44-0.33 1.44-0.977 0-0.163-0.0561-0.974-1.17-0.974-0.336 0-0.535-0.0344-0.959-0.105-0.556-0.103-0.827-0.296-0.902-1.6-0.0741-1.21-0.0747-2.26-0.0747-8.09v-0.302c0.582 0.612 1.34 1.39 2.16 2.25 2.01 2.08 4.28 4.44 4.94 5.21l0.161 0.189c0.753 0.888 1.61 1.89 1.61 2.28 0 0.0862-0.00718 0.122-0.0132 0.145-0.0121 1e-3 -0.0248 0.00386-0.0308 0.00586-0.272 0.0605-0.992 0.219-0.992 0.999 0 0.364 0.162 0.977 1.25 0.977l1.77-0.0527 2.18-0.063 7.34 0.00293 4.7 0.113c0.364 0 1.47-2.5e-4 1.47-0.977 0-0.23-0.0884-0.973-1.25-0.973-0.361 0-0.555-0.0329-0.99-0.105-0.556-0.103-0.828-0.295-0.904-1.6-0.0756-1.2-0.0747-2.25-0.0747-8.07v-5.35c0-5.53 1.1-7.57 2.76-8.92 1.52-1.25 3.07-1.42 4.38-1.42 0.888 0 3.13 0.184 4.83 1.88 1.88 1.88 2.03 5.06 2.03 9.03v4.78c0 5.82 8.5e-4 6.86-0.0732 8.07-0.068 1.14-0.26 1.41-1.17 1.6-0.21 0.0529-0.77 0.0967-1.22 0.0967-1.16 0-1.28 0.681-1.28 0.973 0 0.647 0.483 0.977 1.44 0.977 0.783 0 2.17-0.0192 4.3-0.11 0 0 0.0845-0.00293 0.101-0.00293 0.0121 0 1.08 0.0322 1.08 0.0322 0.974 0.0347 2.31 0.0806 3.28 0.0806 0.951 0 1.43-0.33 1.43-0.977 0-0.363-0.171-0.973-1.32-0.973-0.363 0-0.558-0.0329-0.993-0.105-0.556-0.103-0.825-0.295-0.899-1.6-0.0756-1.2-0.0762-2.25-0.0762-8.07v-4.09c0-4.51-0.465-9.09-3.85-12-3-2.58-6.04-2.9-8.36-2.9-1.74 0-5.81-0.00106-8.91 2.8-2.46 2.22-3.61 5.59-3.61 10.6v5.58c0 5.81 9.3e-4 6.86-0.0762 8.07-0.0847 1.46-0.528 1.58-1.01 1.58-1.01 0-2.81-1.53-4.44-3.02-1.14-1.05-6.05-5.97-7.84-7.82 1.98-2.12 10.6-11.4 10.6-11.4 0 0 4.41-4.79 4.44-4.82 1.47-1.41 3.22-2.94 5.06-3.66 1.29-0.514 2.04-0.697 2.31-0.697 0.782 0 1.13-0.47 1.13-0.938 0-1.01-1.13-1.02-1.55-1.02h-3.34c-1.17 0-1.87 5e-4 -2.7 0.0791-2.25 0.209-3.41 1.14-5.1 2.65l-0.0264 0.0234s-13.7 15.1-14.6 16.1v-1.95c0-3.51 8.5e-4 -6.53 0.114-8.16 0.0983-1.37 0.626-1.45 0.839-1.49 0.494-0.0726 1.32-0.148 1.79-0.148 0.779 0 1.13-0.485 1.13-0.936 0-0.169-0.0665-1.02-1.36-1.02-1.3 0-2.68 0.0414-3.8 0.0747l-1.72 0.0425-1.78-0.0454c-1.01-0.0333-2.17-0.0718-3.05-0.0718-1.26 0-1.4 0.71-1.4 1.02 0 0.219 0.0899 0.936 1.25 0.936 0.423 0 0.82 0.0438 1.26 0.142 0.298 0.0605 0.458 0.471 0.609 1.56 0.188 1.57 0.188 4.59 0.188 8.09v6.75c0 5.83-5.7e-4 6.88-0.0762 8.09-0.068 1.13-0.271 1.42-1.17 1.61-0.219 0.0545-0.794 0.0967-1.34 0.0967-1.16 0-1.28 0.681-1.28 0.974 0 0.242 9.2e-4 0.977 1.47 0.977zm-21.9-8.99c0.371-0.0696 0.806-1.36 1.17-2.18 0.386-0.877 2.27-2.87 3.76-4.34 1.5-1.48 3.59-3.49 3.7-3.42 0.107 0.065 0.15 2.08 0.171 3.55 0.0212 1.47 0.173 4.94 0.388 4.92 0.215-0.0212 3.8-7.09 5-9.25 1.15-2.08 3.25-5.27 2.57-5.7-0.246-0.154-1.01 0.876-1.48 1.67-0.47 0.792-2.11 3.42-2.87 4.51-1.09 1.58-2.2 3.81-2.31 3.72-0.107-0.0862-0.171-1.88-0.149-2.52 0.0212-0.641 0.107-2.55 0-2.93-0.107-0.386-0.578-0.428-0.791-0.234-0.215 0.192-1.13 1.09-1.71 1.56-0.578 0.472-1.8 1.43-2.97 2.48-1.18 1.05-3.77 4.11-3.87 4.04-0.107-0.065 0.0639-1.82 0.127-2.78 0.065-0.963-0.431-2.01-0.709-2.05-0.278-0.0423-2.78 1.3-4.25 2.11-1.48 0.814-3.7 2.24-3.85 2.14-0.15-0.107 1.24-1.86 2.5-4.36 0.906-1.79 1.06-3.01 0.699-3.29-0.363-0.278-1.9 0.444-3.18 0.829-1.28 0.386-2.24 0.77-2.29 0.642-0.0438-0.127 1.28-1.51 1.97-2.42 0.941-1.24 1.48-2.01 1.5-2.37 0.0212-0.363-0.3-0.492-0.599-0.642-0.299-0.15-0.878-0.212-1.99-0.256-1.11-0.0423-2.54-0.0847-2.46-0.234 0.0847-0.15 1.6-1.69 3.21-2.95 2.6-2.05 3.42-2.8 3.66-2.95 0.236-0.148 0.729-0.234 0.664-0.747-0.0257-0.197-0.428-0.385-0.664-0.428-0.234-0.0438-1.01-0.535-1.8-0.984s-2.4-1.22-2.29-1.35 5.11-1.39 7.06-1.6c1.52-0.168 3-0.0832 3.1-0.514 0.0847-0.384-0.791-0.662-1.5-1.03-0.708-0.363-2.33-0.926-2.18-1.09 0.171-0.194 4.04-1.65 9.45-1.77 6.07-0.145 6.76 0.809 7.27 0.62 0.407-0.15 0.429-0.472 0.022-0.686-2.06-1.08-5.83-1.64-10.1-1.28-4.04 0.348-8.87 2.73-8.87 3.03 0 0.151 0.706 0.449 1.07 0.664 0.363 0.213 1.48 0.748 0.898 0.812-0.576 0.065-2.74 0.21-5.37 1.13-2.03 0.708-4.84 1.56-4.79 1.74 0.065 0.256 0.686 9.2e-4 3.96 1.52 1.5 0.694 2.72 1.35 2.65 1.45-0.0635 0.107-2.01 1.03-4.38 3.36-1.67 1.64-3.85 4.17-3.7 4.3 0.15 0.128 1.39 0.0213 2.48 0.0425 1.09 0.0212 2.44 0.108 2.65 0.129 0.213 0.0227 0.48 0.295 0.48 0.508 0 0.215-0.334 0.517-1.32 2.06-0.984 1.54-3.1 3.87-2.97 4.02 0.129 0.15 1.88-0.514 3.53-1.09 1.65-0.578 2.95-1.18 3.23-1.07s-0.599 2.05-1.58 4.17c-0.835 1.8-3.25 4.93-3.01 4.98 0.192 0.0423 3.38-2.01 5.82-3.15 1.94-0.901 4.32-2.03 4.51-1.9 0.194 0.129 0.0658 0.79 0.022 2.93-0.0423 2.14 0.0654 3.78 0.599 3.93 0.0241 0.00671 0.0485 0.00757 0.0732 0.00293zm17.7-18.3c0.219 0.0287 0.942-1.01 0.942-1.36 0-0.464-1.19-3.77-1.46-5.08-0.274-1.31-1.01-6.52-1.01-6.52-0.349 0.175-1.32 2.11-1.05 4 0.272 1.89 1.36 5.47 1.68 6.53 0.324 1.07 0.688 2.41 0.905 2.44zm53.7-9.73c0.069 0.0116 0.11-0.0135 0.117-0.0762 0.0998-0.823-3.57-6.21-4.54-7.86-0.972-1.65-3.79-7.96-4.34-9.6-0.549-1.65 0.126-2.32-0.898-2.52-1.02-0.198-2.04 1.7-2.79 3.17-0.748 1.47-0.672 5.93-0.672 5.93s-2.28-4.08-3.09-5.41c-0.847-1.4-3.9-7.24-4.64-6.61-0.647 0.55 3.39 7.78 4.34 9.65s4.41 8.64 5.24 8.36c0.874-0.299-0.2-4.27 0-8.41 0.129-2.64 1.37-4.39 1.42-4.14 0.0408 0.203 0.699 3.97 3.52 9.43 2.33 4.51 5.68 7.97 6.34 8.08zm21.9-4.17c0.649 0.00284 1.52-0.0481 2.53-0.196 2.02-0.295 3.71-0.932 3.8-1.16 0 0-0.362-0.956-0.681-1.78-0.319-0.82-0.797-1.84-0.979-1.89-0.183-0.0454-1.16 7.5e-4 -3.91 0.773-2.75 0.774-3.46 0.387-3.46 0.523 0 0.138 0.295 1.36 0.59 2.09 0.296 0.727 0.66 1.36 0.911 1.5 0.125 0.0688 0.551 0.126 1.2 0.129zm-77.9-0.812s0.639-0.504 0.501-2.19c-0.138-1.69-0.442-3.16-0.442-3.8 0-0.64 0.259-2.01 0.214-2.19-0.0454-0.183-0.244-0.284-1-0.372-0.732-0.0847-1.19-0.223-1.19-0.223s0.686 2.29 0.823 2.97c0.136 0.686-0.366 1.97-0.138 3.52 0.181 1.23 1.24 2.29 1.24 2.29zm-16.6-4.44s0.366-0.274 0.412-0.593c0.0454-0.321 0.276-1.56 0.412-2.15 0.138-0.594 0.504-1.51 0.504-1.51s-1.05-0.55-1.92-0.869c-0.869-0.321-1.65-0.686-1.83-0.639-0.183 0.0454-0.457 1.19-0.319 1.6 0.136 0.411 0.183 1.28 0.183 1.51 0 0.228 0.547 0.777 1.28 1.37 0.732 0.594 1.28 1.28 1.28 1.28zm6.48-7.91c0.0131-5.5e-4 0.0235-0.00279 0.0308-0.00733 0.116-0.0726 0.625-0.595 0.974-1.05 0.349-0.451 1.01-1.41 0.93-1.48-0.16-0.16-0.668-0.391-1.22-0.567-0.552-0.174-1.56-0.615-1.63-0.609-0.16 0.0136-1 0.959-1.26 1.31-0.262 0.349-1.01 1.11-0.93 1.21 0.0877 0.101 1.31 0.536 1.72 0.666 0.381 0.123 1.2 0.54 1.39 0.532z" fill="#0051ba"/>
   <path d="m663 378c-0.864-0.0013-1.79-0.0845-2.78-0.262-4.86-0.868-7.74-5.76-7.74-5.76s3.11-1.93 5.03-2.96c1.8-0.965 2.56-1.27 3.96-1.41 1.4-0.139 2.76-0.133 2.87-0.551 0.0922-0.355-0.641-1.23-1.69-1.24-2.72-0.0227-2.02-0.276-11.1 4.42-8.06 4.17-14.8 2.94-14.9 2.92-0.9-0.139-9.57-1.02-15.2-6.38-3.04-2.89-4.15-6.14-4.07-6.7 0.153-1.02 0.658-1.26 0.992-2.17 0.295-0.8 0.279-2.32-0.174-2.24-0.572 0.0968-1.49 3.05-3.84 3.1-1.27 0.0227-3.06 0.0814-6.57-5.48-2.29-3.64-5.36-7.25-6.59-8.51-1.22-1.26-4.64-4.07-5.72-4.48-2.07-0.776-2.48-0.284-2.62-0.529-0.141-0.245 1.01-1.95 4.09-2.19 4.01-0.305 7.22 2.22 7.4 2.13 0.068-0.0363-2.7-4.7-3.46-6.75-0.836-2.27-1.13-3.76-1.58-5.11-0.419-1.27-0.66-2.6-0.929-3.04-0.135-0.224 3.39 0.78 5.75 2.54 2.76 2.06 4.02 3.88 4.02 3.88s-0.187-2.96-2.54-4.77c-2.22-1.71-3.79-2.26-4.35-3.08-0.104-0.151-0.147-3.26-0.971-5.93-1.46-4.76-2.9-6.92-2.9-6.92s2.37 0.0276 5.7 2.19c3.24 2.1 4.61 3.58 4.61 3.58s0.269-1.81-2.02-3.82c-1.92-1.68-2.79-1.98-2.99-2.23-0.106-0.142-0.549-2.39-0.97-3.59-0.618-1.77-1.71-3.18-1.55-3.41 0.177-0.246 3.27 0.377 6.8 2.81 2.37 1.63 5.01 3.33 5.01 3.33s-1.74-2.36-2.99-5.07c-1.54-3.34-2.32-5.19-2.12-7.37 0.0106-0.126 2.17 1.09 4.12 1.76 1.51 0.519 3.31 1 5.34 3.29 1.47 1.65 3.15 3.64 3.15 3.64s-0.894-2.24-1.25-4.34c-0.349-2.1-0.399-5.21-0.141-5.49 0.135-0.145 5.11 2.89 6.65 4.65 2.41 2.76 4.48 6.61 4.48 6.61s0.14-0.213 0.174-0.46c0.0348-0.245-0.434-5.09-0.283-6.87 0.184-2.14 0.296-2.71 0.448-5.47 0.0408-0.735-0.0451-1.27 0.13-1.38 0.174-0.106 0.428 0.273 1.13 0.589 0.702 0.315 5.31 2.03 7.88 4.32 4.5 4.01 5.48 6.52 5.48 6.52s-0.962-5.07-1.03-6.87c-0.118-2.98 0.248-7.8 0.598-8.04 0.351-0.245 1.88 1.21 3.81 2.32 0.945 0.541 2.77 1.5 5.81 5.61 1.91 2.58 3.31 4.4 3.53 4.46 0.233 0.0635-1.24-3.89-1.25-5.18-0.0106-1.45 0.689-3.75 1.06-4.76 0.295-0.8 0.366-1.23 0.601-2.35 0 0 3.38 3.28 5.44 5.46 4.67 4.93 4.38 7.72 4.38 7.72-6.94 0.764-13.5 3.03-17.6 4.5-10.7 3.88-16.7 8.8-22.9 14.6-3.6 3.37-4.79 6.81-4.02 8.58 0.449 1.04 1.5 1.46 1.5 1.46s-5.21 6.1-4.42 11.6c0.463 3.22 5.07 4.48 13.6 2.83 11-2.1 22.1-8.31 22.1-8.31s-4.22 2.93-5.87 5.25c-1.65 2.31-2.49 4.13-2.49 4.13s-2.86-0.465-5.85 0.316c-3 0.783-5.83 1.37-7.97 5.12-0.65 1.14 0.194 0.719 1.11-0.457 0.068-0.0877 0.736-0.684 1.68-0.735 1.19-0.0665 4.81 0.505 10.2 5.21 5.6 4.9 10.4 8.59 13.7 7.29 3.33-1.3 4.52-4.41 2.56-6.97-1.96-2.56-2.42-3.61-2.42-3.61s0.735-0.457 1.82-1.58c1.09-1.12 2.28-2.21 2.28-2.21s3.82 4.8 13.3 10.9c9.53 6.13 14.2 7.85 14.2 7.85s-1.58 2.63-5.75 4.56c-2.87 1.33-5.07 1.61-6.3 1.47-0.951-0.11-2.09-0.576-2.14-1.22-0.0287-0.381 0.576-0.752 1.46-1.2 1.07-0.54 1.8-0.672 1.94-0.954 0.141-0.28 0.397-0.923 0.164-0.951-1.18-0.142-2.49 0.349-3.13 0.705-1.65 0.918-5.48 3.62-8.22 5.18-2.09 1.19-4.18 1.93-6.78 1.93zm39.1-48.6c-0.155 0.00213-0.323-0.0186-0.5-0.0791-2.45-0.838-7.21-2.5-9.84-3.46-2.69-0.98-9.56-4.04-10.9-4.54-1.37-0.491-1.83-0.833-2.27-0.848-1.17-0.0423-2.16-0.355-1.56-0.719 0.101-0.062 7.5-0.11 12.4-0.00732 5.95 0.122 14.1 0.157 14.7 0.211 0.814 0.0665 2.1 0.617 4.86 2.02 2.83 1.44 3.44 1.53 3.93 1.68 0.753 0.236 0.312 0.388 0.312 0.388v0.00147c-0.163 0.109-2.74 0.988-4.99 2.13-1.83 0.928-5.37 2.99-5.37 2.99s-0.336 0.216-0.801 0.223zm-38.5-89.8c-2.33-0.0785-3.7-0.565-3.92-0.688-0.349-0.2-1.47-3.29-1.89-4.56-0.425-1.27-2.43-5.49-2.48-5.71s-0.1-0.673-0.0762-0.848c0.0257-0.174 0.0761-0.323 0.125-0.397 0.0514-0.0756 0.225-0.375 0.325-0.549 0.0998-0.175 0.174-0.349 0.325-0.375 0.148-0.0242 4.53-0.166 7.78-0.847 4.16-0.874 7-2.55 7.26-2.47 0.575 0.175 0.823 3.19 2.57 6.66 1.03 2.03 2.67 5.14 2.84 5.39 0.174 0.248 0.173 0.374 0.173 0.374-0.399 0.697-3.91 2.78-7.83 3.57-2.05 0.412-3.79 0.511-5.19 0.464zm0.769-3.06c0.602-0.0171 1.19-0.0621 1.68-0.149 2.07-0.367 5.38-1.82 5.59-2.02 0 0 1.9e-4 -0.174-0.0996-0.324-0.0998-0.15-0.916-1.99-1.47-3.29-0.699-1.65-1.25-3.54-1.4-3.52-0.148 0.0257-2.39 1.15-5.31 1.92-3.39 0.898-5.21 0.0755-5.44 0.425-0.0816 0.126 0.897 2.42 1.22 3.37 0.325 0.948 1.15 3.27 1.32 3.37 0.13 0.0748 2.1 0.277 3.91 0.226zm-88.1-10.9c-0.334 0.0892-0.684-0.711-1.4-1.41-0.54-0.529-2.16-1.02-2.66-0.959-0.845 0.0983-1.25 0.349-1.25 0.349s-0.857-0.347-2.54-1.38c-1.69-1.03-2.7-1.97-2.64-2.3 0.246-1.39 0.42-0.939 2.48-3.22 2.06-2.28 3.21-4.25 3.36-4.32 0.145-0.0726 3.33 1.68 5.99 2.53 3.65 1.18 7.24 1.58 7.51 1.8 0.115 0.0907-1.55 2.73-3.06 4.24-0.996 0.996-2 1.71-2.22 1.79-0.697 0.233-1.13 0.0627-1.47 0.261-0.785 0.466-1.9 1.72-1.91 2-0.0151 0.277 0.00879 0.571-0.179 0.62zm-0.784-2.43c0.174-0.0287 1.26-1.15 2.03-1.97 0.756-0.814 2.17-2.88 2.11-2.89-0.0575-0.0151-2.15-0.829-2.99-1.11-0.842-0.277-2.91-1.19-3.04-1.16-0.132 0.0287-1.33 1.32-2.09 2.24-0.814 0.989-2.09 2.37-2.02 2.48 0.0726 0.116 2.32 1.18 3.14 1.53 0.814 0.349 2.69 0.915 2.86 0.885z" fill="#e8000d"/>
   <path d="m710 370c-0.702 0.0132-1.41 0.00735-2.13-0.0176-3.81-0.133-7.81-0.821-12-2.19-15.5-5.12-27.7-15.8-30.1-20-0.411-0.726 4.53-5.42 0.898-9.73-2.94-3.49-8.7-1.2-8.7-1.2 5.01-3.19 7.79-6.19 8.09-6.75 0.215-0.399 0.352-0.954 0.352-0.954-4.63 3.21-8.85 5.93-13.4 8.11-1.73 0.827-23.8 10.8-30.1 6.98-3.57-2.15 1.89-10.1 3.11-11.6 1.79-2.17 6.29-5.99 10.2-8.07 2.75-1.48 2.86-1.34 2.9-2 0.0196-0.274-0.87-0.606-2-0.346-0.99 0.23-4.99 2.51-6.46 3.68-1.47 1.17-4.42 3.47-4.42 3.47s-0.961 0.354-1.34-0.233c-1.17-1.81 8.54-13.2 22.5-18.8 15.1-6.07 27.1-7.5 48.8-5.46 11.4 1.07 23 5.55 28.9 7.54 4.03 1.35 7.45 2.34 7.45 2.52 0 0.172-6.99 1.54-14.4 2.21-12.6 1.13-19.4 0.569-29.3 0.784-14 0.304-22-1.08-35.9 1.43-4.34 0.782-9.19 2.73-12.4 5.25-4.9 3.89-10.4 10.6-8.5 11.7 1.86 1.04 4.14-1.41 5.07-2.34 3.81-3.81 3.51-6.33 3.51-6.33s4.79-7.03 24.6-7.58c10.8-0.304 16.6 4.78 25.9 7.84 13.7 4.51 14.7 6.2 31.5 9.37 17.2 3.25 25.3-2.9 25.3-2.9s3.19 13.2-11.5 25.3c-6.92 5.7-16 10.1-26.5 10.3zm-51.1-7.21c-0.694 0.0862-3.42-0.349-8.8-4.9-5.38-4.55-7.02-5.85-8.5-6.46-1.47-0.606-3.03-0.91-2.86-1.08 0.174-0.174 2.73-0.857 3.94-0.996 2.64-0.304 4.16 0.168 4.16 0.168s-0.125 4.04 1.91 5.77c3.53 3 9.8-0.391 9.8-0.391s2.3 2.59 2.86 3.82c0.693 1.52 0.346 2.34 0.346 2.34-0.52 1.39-2.17 1.65-2.86 1.73zm32.5-0.869c1.44 0.0859 2.26-0.541 2.6-1.07 0.392-0.603 1.47-2.25-2.31-4.63-3.78-2.38-5.54-0.579-5.95-0.231-0.413 0.346-1.35 2.78 2.37 4.83 1.35 0.742 2.44 1.05 3.3 1.1zm-0.47-1.81c-0.608-0.0329-1.3-0.256-1.87-0.678-1.14-0.844-2.35-1.75-1.67-2.5 0.677-0.744 2.41 0.0164 3.16 0.381 0.744 0.363 2.24 1.57 1.74 2.33-0.223 0.339-0.744 0.496-1.35 0.463zm19.8-27.7s-1.43-0.416-2.49-0.712c-1.07-0.298-3.21-0.773-3.15-0.891 0.059-0.119 4.51-3.15 6.06-3.74 1.54-0.594 4.27-1.72 5.23-1.96 0.95-0.239 2.26-0.416 2.26-0.655 0-0.237-1.78-0.948-4.16-1.96-2.38-1.01-4.75-2.32-4.75-2.5s7.66-0.891 11.3-1.31c3.68-0.416 8.37-1.01 9.56-1.19 1.19-0.178 2.43-0.534 2.37-0.356-0.059 0.178-0.475 0.357-1.72 0.891-1.25 0.535-6 3.44-8.61 5.28-2.61 1.84-7.01 5.35-8.73 6.59-1.72 1.25-3.21 2.49-3.21 2.49zm-26.5-70c-3.63 0.142-6.95-1.07-8.68-2.74-4.77-4.61-4.51-10.9-4.51-10.9s1.83 0.117 3.2-0.921c0.835-0.635 1.18-1.7 0.998-1.77-0.513-0.201-1.96 1.24-5.03 0.728-3.85-0.647-6.63-4.77-6.45-5.08 0.209-0.372 2.84 0.104 7.46-1.08 3.96-1.02 7.58-3.51 8-4.43 0.139-0.302-1.39-1.46-3.94-6.56-1.68-3.36-2.41-6.82-2.65-8.97-0.0681-0.609-4.43 2.85-9.68 3.57-5.59 0.77-7.53 0.524-8.5 0.198-0.602-0.203-1.5 0.197-1.67 0.356-0.248 0.225-0.236 0.771-0.236 0.741 0 0.15-1.76 0.178-1.77 0.16-0.218-0.404 2.75-3.14 3.52-5.15 1.78-4.69 2.17-8.41 1.66-8.55-0.535-0.148-4.37 1.42-5.99 2.22-4.73 2.33-5.4 3.51-5.82 3.39-0.316-0.0907 0.237-2.68 0.891-4.17 0.776-1.77 2.63-3.83 1.87-4.31-0.758-0.482-2.35-0.286-5.12 1-2.36 1.1-4.55 1.98-4.55 1.98s-0.149-1.77 0.151-2.67c0.392-1.17 0.917-2.25 0.917-2.25s0.192-0.18 0.457-0.338c0.265-0.159 1.15-0.77 1.15-0.77s-0.947 0.889-1.17 1.41c-0.318 0.753-2e-3 0.959 0.201 0.831 1.81-1.14 2.83-1.67 4.84-1.75 2.53-0.109 3.78 0.933 4.13 2.34 0.534 2.15-1.09 4.28-1.74 4.8-0.664 0.525-1.05 0.626-1.32 1.05-0.265 0.423-0.42 1.19-0.0498 1.19s2.77-1.41 3.84-3.3c1.22-2.16 1.1-4.83 0-6.05-1.4-1.55-2.86-1.9-2.86-1.9s0.581-0.475 1.22-1.11c0.8-0.791 0.761-1.26 0.889-1.71 0.0817-0.287 1.66 0.524 2.66 1.16 1 0.634 1.8 2.42 2.52 1.85 0.621-0.493 0.0298-2.12-1.35-3.05-1.45-0.981-3.27-1.8-3.28-2.37-0.0121-1.39 1.17-3.71 2.57-4.8 2.21-1.71 4.77-2.25 5.65-2.09 1.85 0.336 7.96 2.51 12.9 9.61 2.59 3.75 2.51 5.97 2.51 5.97s-1.26 0.585-1.44 1.09c-0.13 0.361 6 1.98 11.8 8.99 3.27 3.92 4.42 6.48 6.13 12.6 0.801 2.86 0.357 5.92 1.02 5.97 0.395 0.0287 0.665-1.35 0.716-2.25 0.053-0.898-0.296-2.47 0.12-2.13 1.77 1.47 5.45 5.2 6.5 10.7 1.34 7.04 1.5 12.9-6.14 17.4-2.12 1.25-4.4 1.83-6.58 1.91zm15.5-9.75c-0.614-0.403 0.89-3.62-0.65-9.52-2.44-9.33-8.02-12.7-8.56-13.6-0.426-0.674-3.33-8.21-6.25-11.9-2.89-3.61-5.55-5.88-10.3-8.69-0.839-0.497-0.0957-1.15-0.127-1.57-0.0317-0.416-1.11-5.81-5.84-10.2-7.24-6.7-10.9-6.29-11.4-6.8-0.224-0.225 1.51-1.48 3.24-1.31 1.68 0.159 7.03 2.69 11.4 8.88 3.49 4.93 4.14 8.71 4.2 8.97 0.129 0.609 0.322 0.803 0.898 0.422 0.231-0.151 0.498-0.966 0.769-0.864 2.41 0.891 9.05 6.55 15.1 15.3 4.37 6.34 8.36 16.6 9.28 20.8 1.28 5.87 0.0314 9.64-1.35 10.1-0.189 0.0578-0.32 0.0576-0.407 0zm-139-20.8c-0.109-0.0272-0.575-1.18-1.15-1.54-0.576-0.357-0.633-0.0815-1.18-0.659-0.549-0.576-2.3-3.16-0.138-5.02 1.18-1.02 3.43-0.714 4.31-0.413 0.876 0.301 1.57 1.47 1.21 2.2-0.33 0.659-1.04 0.384-1.54 1.07-0.494 0.686-0.603 1.51-0.935 2.22-0.33 0.714-0.55 0.91-0.492 1.23 0.109 0.631-0.0835 0.907-0.0835 0.907zm-7.16-6.53c-0.906-0.0816-2.42-0.192-5.22-0.987-2.8-0.795-6.81-1.92-6.81-2.25 0-0.271 5.79-0.782 7.74-0.741 2.61 0.0544 5.63 1.26 6.04 2.36 0.411 1.1-0.851 1.7-1.76 1.62zm33.7-1.59s-1.12-1e-4 -2.28-0.138c-1.15-0.136-2.58-0.412-2.58-0.412s1.76-1.78 2.85-3.29c1.1-1.51 2.52-3.78 2.39-4.23-0.0832-0.274-1.56 0.328-8.65-1.79-5.57-1.67-8.32-3.59-8.51-3.64-0.192-0.0559-0.357 1.15-1.12 2.3-0.768 1.15-1.54 2.25-1.65 2.25-0.11 0-0.247-2.71-1.14-4.48-0.945-1.87-1.96-3.23-2.51-2.8-0.77 0.603 0.795 2.8 1.51 4.78 0.505 1.4 0.356 4.36 0.356 4.36s-0.684 0.768-0.822 0.768-1.04-2.44-2.03-3.38c-0.987-0.934-2.3-2.36-2.83-1.59-0.523 0.77 1.89 2.11 2.66 3.82 0.77 1.7 1.32 2.83 1.37 4.69 0.0544 1.87 0.109 1.76-0.0835 1.78-0.192 0.0272-1.68-0.685-3.71-0.656-2.75 0.0363-2.8 0.82-3.05 0.875-0.248 0.0559-0.522-1.34-3.07-2.33-2-0.774-3.54-0.662-3.87-1.05-0.33-0.386-0.329-2.39 0.357-4.39 0.475-1.39 2-3.79 1.1-4.09-0.948-0.318-1.21 0.413-2.17 2.75-0.649 1.58-0.687 2-0.795 2.11-0.11 0.11-0.495 0.165-0.687 0.0557-0.192-0.11-1.21-1.32-1.34-1.54s0.686-1.29 1.02-1.81c0.33-0.522 1.07-1.87 0.741-2.42-0.33-0.55-0.549-0.604-0.741-0.357-0.192 0.248-1.24 3.38-4.36 5.16-3.57 2.03-7.68-0.323-8.07-3.73-0.451-3.92 3.48-8.14 10.7-10.5 7.85-2.55 12.5 0.609 12.5 0.609s7.3-3.98 21.2-2.55c14.2 1.46 19.1 5 20.6 6.18 1.51 1.14 1.7 1.84 1.51 1.78-0.192-0.0544-2.28-1.23-3.9 0.303-2.91 2.76-1.24 8.76-1.51 8.98s-1.02-0.217-1.87-0.0557c-1.43 0.277-1.92 1.65-2.2 1.62-0.496-0.0544-0.935-2.44-3.13-2.22-1.78 0.178-2.61 1.87-2.51 4.8 0.0786 2.48 0.344 3.43 0.344 3.43zm70-7.94c0.505-0.0363 1.15-0.357 1.78-1.18 1.41-1.84 0.394-6-0.727-5.97-1.04 0.0242-0.0982 1.86-0.0483 2.32 0.0151 0.145 0.208 0.898-0.267 2.2-0.46 1.26-1.88 1.42-1.69 2.1 0.0847 0.315 0.454 0.562 0.959 0.526zm-121-11.2c-0.245 0.116-1.67-5.7 9.66-8.68 3.1-0.82 8.98-0.227 11.3 0.485 1.92 0.579 2.27 0.992 2.43 1.02 0.278 0.0469 0.647-4e-5 0.647-0.186 0-0.184 0.0249-0.508 0.0249-0.508s5.79-2.6 14.2-2.46c8.43 0.139 17.4 1.83 24 4.93 3.28 1.55 3.5 1.85 3.61 2.11 0.115 0.256 0.276 0.995 0.253 1.32-0.0242 0.324-0.0923 0.996-0.0923 0.996h-0.00147s-2.27-1.69-11.5-4.61c-4.83-1.53-10.6-2.5-19.8-1.99-8.25 0.455-10.8 2.38-11.5 2.5-0.624 0.116-4.31-2.93-13.5-0.439-7.39 2.02-8.8 5.03-9.82 5.51zm108-1.22c-1.06-3e-3 -2.96-0.527-5.24-3.16-3.05-3.51-4.14-8.01-3.92-8.31s0.557 2.27 5.09 5.7c4.53 3.44 5.46 2.69 6 3.66 0.262 0.469-0.278 1.65-1.17 1.99-0.148 0.0556-0.406 0.112-0.759 0.111z" fill="#ffc82d"/>
  </g>
 </g>
</svg>