<?xml version="1.0" encoding="UTF-8" standalone="no"?>
<svg xmlns:rdf="http://www.w3.org/1999/02/22-rdf-syntax-ns#" xmlns="http://www.w3.org/2000/svg" height="95.785" width="142" version="1.1" xmlns:cc="http://creativecommons.org/ns#" xmlns:dc="http://purl.org/dc/elements/1.1/" viewBox="0 0 40.075552 27.032739">
 <g transform="translate(-.10913 -270.42)">
  <g transform="translate(.29490 -.24575)">
   <path d="m16.057 271.76c-4.4276-0.0289-8.6307 1.0983-11.526 3.7896-0.015169-0.17915-0.14332-1.4015-0.14332-1.4015l-1.2044 1.5103-0.21773 0.27148c-1.0156 1.2761-2.1112 2.8512-2.5411 4.8603-0.113 0.52365-0.17087 1.0322-0.17087 1.542 0 0.95498 0.20395 1.9196 0.62563 3.0055-0.35283-0.07-0.77037-0.15-0.77037-0.15l0.56362 1.0804c1.7239 3.3059 4.7542 5.6885 8.8208 7.0432 1.6288 0.54295 2.548 0.61323 3.0675 0.66698-3.1337-1.1396-5.2558-3.3886-6.5939-5.5053 0.27147 0.0565 0.54295 0.11163 0.54295 0.11163l-0.3979-1.01c-0.33073-0.83647-0.4892-1.9361-0.4892-2.8222 0-0.45337 0.038583-0.85163 0.12264-1.13 0.41479-1.3712 3.8199-2.8801 5.8484-2.621-0.18328 0.0207-0.62563 0.10749-0.62563 0.10749s1.757 0.0758 3.2384 0.44097c1.4814 0.36518 3.2825 0.89435 4.859 1.5889 0.70004 0.30868 2.7864 1.356 4.3312 2.4047l-0.26321-0.45199s0.12127 0.0262 0.45613 0.25218c0.51677 0.34726 1.0446 1.0087 1.0859 1.1341 0.0041 0.0854-0.06201 0.11025-0.4396 0.19155-0.49747 0.10749-1.0211 0.19706-1.0211 0.19706s0.50161 0.50712 1.2719 0.76344c0.76895 0.25631 1.2761 0.27836 1.7598 0.22599 0.42168 0.63114 1.1975 1.327 2.6238 1.7005 2.136 0.55811 3.9412 0.0675 5.2297-0.46578 0.27147 0.5774 0.41755 1.1231 0.41755 1.5779 0 0.14883-0.01516 0.28801-0.04686 0.41617-0.11438 0.46853-0.98667 1.2127-1.5613 1.4332-0.57464 0.22186-0.73036 0.2756-0.91226 0.33899 0.21222 0.17915 0.75103 0.44235 0.99357 0.53055 0.32659 0.11851 0.72209 0.19155 0.93569 0.22875 0.98392 0.1695 1.9802 0.0841 2.8484-0.19706 1.1135-0.36104 1.9361-1.0652 2.3771-2.0367 0.33762-0.74414 0.46854-1.4717 0.46854-2.1525 0-1.757-0.8723-3.2067-1.3312-3.8475 0.2508-0.24942 0.39136-0.57326 0.40376-0.94257 0-0.0179 0.0013-0.0345 0.0013-0.0524 0-1.0018-0.93707-2.1236-1.8852-2.8181-0.26318-1.1217-0.93428-2.2338-2.1111-3.4768-0.55535-0.58842-1.2292-1.1603-1.9403-1.7639-0.65043-0.55259-2.7933-2.0367-3.3665-2.8305 0 0 0.39549 0.88195 0.51401 1.1465-1.4372-0.97703-3.7992-2.1442-5.2599-2.7202l-1.9858-0.7841s0.4892 0.62976 0.87781 1.1286c-1.6412-0.52227-3.492-0.9095-4.1906-1.0032l0.02205 0.004c-1.4662-0.21498-3.7428-0.33211-4.4524-0.2825 0.17639 0.11714 0.63252 0.42582 1.141 0.76895" fill-rule="evenodd" fill="#fff"/>
   <path d="m37.1 283.78c-0.32384-0.6339-0.76481-0.73725-0.76481-0.73725l-0.01929 0.74276s-0.17088-0.64079-0.26458-0.95498c-0.32522-1.0831-1.283-2.5383-2.395-3.5664 0.07579 0.1571 0.12816 0.31144 0.12402 0.44097-0.60082-0.73587-2.3206-2.1346-2.3206-2.1346l0.21222 0.64768s-0.113-0.14883-0.23702-0.29628c-1.1383-1.3519-4.2871-2.9903-5.2434-3.4851l0.41892 0.67938c-0.07442-0.0414-0.17915-0.0965-0.3142-0.16399l0.42443 0.72209-2.22-1.0446 1.1961 0.0345c-0.33762-0.15709-0.74138-0.33486-1.1892-0.51952-1.0997-0.38585-2.2944-0.69453-3.7317-0.96462-0.25494-0.0482-0.51539-0.0896-0.77721-0.12541 0.23426 0.15159 0.64354 0.71107 0.83371 0.88746-4.6881-0.65595-8.548-0.33624-11.571 0.80891-1.9968 0.92328-3.8323 2.3606-5.5039 4.4152l-0.049608-0.28387c-0.00282 0.003-0.00413 0.005-0.00688 0.008l-0.16261-0.92467c-0.66973 0.87919-1.491 2.3234-1.7515 3.3335-0.00282 0.008-0.022048 0.0854-0.023424 0.0937-0.23013 0.8971-0.25218 1.6867-0.11438 2.4529 0.19017 0.82544 0.56086 1.6371 1.057 2.548l-0.10197-0.0207c0.050987 0.0978 0.10473 0.19568 0.15847 0.29628l-0.51401-0.1031c0.86541 1.3463 2.2242 2.8443 3.7235 3.8943-0.97152-1.0404-1.6812-2.0726-2.1029-3.2411l0.055121 0.011c-0.039963-0.0951-0.07717-0.19017-0.11162-0.28663l0.7152 0.14607c-0.056-0.21-0.1001-0.41-0.1387-0.61-0.3362-1.47-0.2439-2.98 0.1736-4.04 0.3404-0.87 1.7143-2.81 4.017-3.41l-0.34313 0.52089c0.14883-0.0427 0.30179-0.0799 0.46164-0.11299l-0.54295 0.71658c1.8934-0.78686 4.5723-1.0528 7.8273-0.0978l-0.32522 0.0441c0.09784 0.0386 0.19293 0.0772 0.2825 0.12127l-0.55673 0.1378c0.98668 0.2384 2.2186 0.5898 2.7712 0.78135 0.58704 0.20395 1.305 0.54019 2.0119 0.90399-0.17776-0.12816-0.2825-0.20395-0.2825-0.20395 1.0363 0.31971 1.7308 0.99357 2.4736 1.3849l-0.12816-0.23289c1.0666 0.58429 2.0285 0.91777 2.424 1.3298 0.0028 0.004 0.0055 0.007 0.0097 0.011 0.77584 0.64906 1.1768 1.1824 1.2995 1.3574 0.03447 0.34313 0.09784 0.63941 0.2136 0.91226-0.32522-1.4869 0.01379-1.9224 0.13229-2.1883 0.03306-0.0744 0.08131-0.14331 0.13367-0.20394 0.49058-0.75379 1.6027-1.1755 2.5549-1.1438 0.98806 0.0345 1.943 0.3073 2.9008 0.87781-0.17777-0.20119-0.18741-0.4768-0.12678-0.67937 0.0083-0.0289 0.01929-0.0565 0.03031-0.0827 0.01101-0.0592 0.02617-0.11575 0.04961-0.16812 0.05374-0.12127 0.16261-0.19981 0.27561-0.24942-0.06752-0.22738-0.30731-0.70831-0.87919-0.7717-0.36656-0.04-0.54157 0.0951-0.54846 0.10197 0.0055-0.007 0.11851-0.20257 0.31006-0.28525-0.19293-0.11163-0.68764-0.003-0.70004 0.001 0.02204-0.008 0.47818-0.43822 1.1796-0.21911 0.14056 0.0441 0.26321 0.11299 0.37621 0.17501-0.09784-0.14056-0.15985-0.22462-0.16261-0.226 0.08268 0.003 0.61185 0.15572 0.8971 0.76068 0.06477 0.13504 0.22738 0.48782 0.31695 0.67799 0.16123 0.34038 0.47267 0.81993 0.79513 1.1493 0.52503 0.53743 1.1024 0.72484 1.757 0.72071 0.66973-0.004 0.9164-0.44786 0.91915-0.46578-0.0028 0.0165 0.01654 0.32522-0.1819 0.55811 0.14745-0.0799 0.3321-0.27148 0.38171-0.40515 0.06615-0.1819 0.02066-0.53881-0.04548-0.61322 0.03447 0.0386 0.46027 0.41341 0.37207 0.79237-0.01516 0.0689-0.03858 0.1502-0.0937 0.23426 0.06201 0.0427 0.13642 0.0951 0.21911 0.15159l-0.11576-0.16536 0.37758 0.21635c0.14194-0.16261 0.10748-0.77721-0.20257-1.3863" fill="#efab00"/>
   <path d="m71.654 9.6777c0.64941 0.41995 1.7236 1.8271 2.4023 2.5742-7.1777-1.0058-13.813-1.3672-19.893-1.123 11.46-0.03543 32.198 5.8984 40.631 11.66 7.0019 4.7852 5.8447 5.9024-1.6602 2.5527-16.689-7.4609-30.205-7.875-30.205-7.875l-9.2441 5.6055s15.518 2.0313 26.25 7.7734c9.2383 4.9414 6.0752 5.2051-3.0898 1.9238-13.75-4.9268-28.594-5.8008-35.43-4.9121 6.0791 0.21968 16.743 1.6152 20.908 3.0117-1.0547 0.32209-3.75 1.5137-5.0391 1.8164 2.3096-0.1513 28.046 7.7442 35.092 16.992 0.02445-0.29303 0.07518-0.60546 0.13867-0.9375 0.83984-3.8135 5.7568-6.0293 9.8438-5.8926 3.501 0.11728 6.8838 1.083 10.277 3.1094-0.63477-0.71288-0.66407-1.6943-0.44922-2.4121 0.19042-0.63478 0.60449-1.1084 0.84375-1.1523 0.13185-0.18567 0.28419-0.34096 0.45508-0.46289-0.16601-0.70799-0.98632-2.6504-3.1543-2.8848-1.3037-0.14173-1.9238 0.33602-1.9434 0.35547 0.0195-0.01772 0.41991-0.7129 1.0938-1.0059-0.67871-0.39554-2.4316-0.01027-2.4805 0.0039 0.083-0.02835 1.6982-1.5567 4.1836-0.77539 0.49804 0.1513 0.93359 0.4004 1.334 0.61523-0.34668-0.49316-0.57227-0.79688-0.58203-0.79688 0.29785 0.01063 2.1728 0.55274 3.1836 2.6914 0.22947 0.48338 0.80568 1.7285 1.123 2.4023 0.5713 1.211 1.6758 2.9043 2.8184 4.0762 1.5772 1.6113 3.291 2.334 5.1953 2.5098-1.0303-0.27354-1.7051-0.86328-1.5781-1.4883 1.4502 0.61037 2.8418 0.86425 3.5644-0.84961 0.71778-1.7139 0.35156-7.5059-6.3965-14.889 0.0732 0.40528 0.24998 1.1133 0.25976 1.8652-1.7578-2.5-5.332-6.25-7.5391-7.9688 0.0927 0.44433 0.45995 1.915 0.64062 2.5254-1.1768-1.2256-4.4844-4.0293-4.4844-4.0293l0.68359 2.0898s-0.36524-0.48245-0.76562-0.96094c-3.6865-4.3701-13.867-9.668-16.963-11.27l1.3574 2.1973c-0.24-0.128-0.582-0.309-1.017-0.524l1.3711 2.334-7.1816-3.3789 3.8711 0.11133c-1.089-0.507-2.397-1.083-3.848-1.679-3.554-1.25-7.421-2.25-12.07-3.119-0.825-0.1563-1.665-0.294-2.51-0.4063zm-10.398 3.9673c2.1094 0.28311 4.5059 0.67285 6.127 0.9707 8.4619 1.5527 15.85 4.0098 22.402 7.7012l0.73242-0.5625c-6.064-3.096-12.968-5.439-20.517-6.82-2.363-0.435-6.361-1.06-8.744-1.289z" fill-rule="evenodd" transform="matrix(.28222 0 0 .28222 .10913 270.98)" fill="#785100"/>
   <path d="m59.811 2.5137c1.167 0.78612 2.7783 2.0615 3.7012 2.8086-20.054-2.256-38.731 4.7947-49.512 17.041l-0.19531-2.3145-0.2832-3.3496c-0.52246 0.66409-1.1387 1.416-1.8027 2.2559-3.0371 3.8135-7.1045 9.3066-8.623 16.406-1.3476 6.2891-0.18067 11.714 3.0664 18.525l-2.3723-0.476c1.1328 2.1631 2.4424 4.2666 3.9414 6.293l0.00391 0.0039c5.8252 7.8809 14.448 14.561 26.055 19.014 2.1875 0.83984 4 1.4453 5.582 1.9043 1.8311 0.53224 3.3584 0.87012 4.8184 1.1387-14.438-5.254-22.982-13.141-27.162-22.057l-0.0059-0.0039c-0.063-0.142-0.131-0.282-0.195-0.424l2.0703 0.42383 0.41406 0.002c-1.884-4.839-2.318-11.91-1.332-15.289 0.61035-2.0947 1.5723-4.2276 2.9297-5.873 0.89844-1.0937 2.207-2.1445 3.3594-2.7402l-0.73828 1.1621-2.3672 3.4141c3.7695-3.54 13.983-7.6621 24.916-6.9395 0.9375 0.05846 1.8809 0.15229 2.8184 0.28906l-4.3457 0.96289-1.0449 0.22852c1.084-0.07831 2.8262 0.08884 4.9453 0.45508 4.873 0.83984 14.072 3.54 19.668 6.0059 3.1445 1.3867 7.6172 3.4316 12.939 7.0449-0.57618-1.0693-1.0781-2.1426-1.6445-3.1094 2.7685 2.0996 6.1523 4.8281 6.9434 5.668 1.8896 1.9922 3.54 3.9317 3.457 5.0938-0.08298 1.1621-2.54 1.0439-2.6621 1.1758 3.1299 0.96679 5.625 0.96107 6.6113 0.3457-1.3867-1.5967-1.9385-3.2558-2.1582-5.4531-0.97656-1.3818-6.8447-9.0967-21.537-13.643 0 0 1.167 0.84959 2.8906 2.1094-2.6465-1.2403-5.8105-2.5625-8.8184-3.6074-2.3926-0.83009-8.3789-2.5068-11.973-3.2637l3.927-0.972c-7.007-3.403-21.851-2.211-28.614 1.114l2.9551-3.8906c-8.6621 1.7725-12.945 7.666-14.449 11.602-1.6406 4.2871-1.8798 10.59-0.04883 16.459l-2.623-0.53125c0.26856 0.74218 0.57226 1.4688 0.9043 2.1816v0.0039c1.919 4.1211 4.9111 7.8271 8.8809 11.67-4.8291-2.9102-9.3945-7.2998-12.812-11.67l-0.0039-0.0039c-1.2157-1.559-2.2898-3.11-3.1736-4.595l2.2852 0.46289c-3.5792-6.567-5.3282-11.689-3.5411-18.701 0.005-0.028 0.0743-0.297 0.084-0.326 0.9277-3.589 3.8516-8.735 6.2345-11.846l0.74805 4.2871c15.303-18.823 34.492-23.004 57.402-19-0.478-0.5368-1.572-2.4401-2.929-3.6853 9.502 0.02126 23.862 6.875 26.504 8.3301l-2.0801-3.3691c7.1094 3.1689 14.442 7.1816 19.105 11.342-0.24903-0.67383-0.66896-2.2021-0.83985-2.6367 0.81543 0.62011 6.792 5.7334 10.059 8.7852 5.1074 4.7754 7.3828 10.063 8.4668 13.389 0.0732-0.04394-0.1504-1.7285-0.16992-2.0703 2.7344 2.7979 5.7168 6.7187 3.8711 9.9316-0.0732 0.13677-0.15621 0.26862-0.2539 0.40039l-1.6113-0.92383 0.42578 0.60547c0.47851 0.67872 3.1055 4.5899 4.2773 9.6191v0.0039c0.80567 3.4571 0.92773 7.4414-0.81054 11.27-1.6113 3.54-5.1914 5.6934-8.9512 6.416-1.9287 0.3662-4.3066 0.56063-5.7227 0.32617 0.44434 0.07335 4.2773-1.6602 5.8203-4.6484 1.1426-2.2119 0.88378-5.7852-0.0684-8.3438-0.55664-1.4893-1.2744-3.0479-2.1289-4.3906-0.28322-0.44922-0.41016-0.63477-0.41016-0.63477-4.5654-6.7139-11.968-10.024-15.557-10.898-4.7363-1.1572-8.3301 0.294-9.2969 3.3945 0 0-0.11617 0.79003-0.0918 1.1465 0.01453-0.0248 0.03805-0.04782 0.0625-0.07227 0.36622-0.09284 0.84473-0.13692 1.377-0.14648 1.0156-0.01417 2.2168 0.09186 3.1543 0.19922 1.4893 0.17079 4.3457 0.68846 5.6836 0.94727-1.1816-0.62012-4.6279-1.6064-5.9707-1.748-0.2002-0.01772-0.39649-0.03805-0.5918-0.0625-0.80568-0.07831-1.5332-0.12323-2.1387-0.04492 0.08298-0.03898 0.12695-0.05859 0.12695-0.05859l0.38086-0.47852c1.543-1.6406 4.415-1.7617 6.9199-1.1465 2.8711 0.70802 8.0176 2.9297 11.914 7.1777-2.2608 0.93749-7.794 2.5683-13.971 0.54688-5.2393-1.7139-5.5371-4.9121-5.5273-5.0586-0.01453 0.19028-1.2783 4.1592 4.6055 6.3027 0 0 0.13575 0.05565 0.46289 0.16797 5.5859 1.8799 9.9863 0.81453 12.564-0.16211l0.01-0.0039c0.80566-0.30756 1.4365-0.60937 1.8711-0.81445l0.5957-0.28906c0.29785 0.35646 0.58497 0.72265 0.86329 1.1035 0 0 0.17089 0.22562 0.53711 0.77734-4.0088 1.8115-10.249 3.6465-17.812 1.6641-2.3096-0.60548-4.1104-1.4834-5.5117-2.4355l-0.0059-0.0039c-3.4424-2.3389-4.4521-5.1026-4.4668-5.2441l0.0293 0.74609c0.01453 0.14173 0.18553 2.2666 2.041 4.498l0.0039 0.0039c1.3721 1.6504 3.6621 3.3584 7.5 4.3594 8.0908 2.1191 14.78-0.36624 19.004-2.3145 1.6943 2.959 3.1885 6.9336 2.3828 10.244-0.50782 2.085-2.998 4.4395-5.8008 5.8457 0.36621 0.17079 1.4258 0.42384 2.1191 0.54102 5.6299 0.95216 13.477-0.2187 16.406-6.6738 1.9433-4.2773 1.7139-8.4766 0.69336-12.002v-0.0039c-0.98144-3.3692-2.6846-6.123-3.9199-7.7441-0.01-0.51268-0.20514-1.5928-0.10742-1.6465 3.7549-2.1777-0.0145-8.0654-4.9414-11.371-0.66899-3.7451-2.8525-7.6123-7.1641-12.168-3.667-3.8818-8.793-7.5205-14.428-12.975 0.19042 0.55665 1.123 3.5986 1.0547 3.5254-2.89-2.945-14.858-9.2968-21.596-11.958 0.561 0.7228 1.845 2.461 2.783 3.8478-5.586-2.8809-17.183-5.5323-21.113-6.0547-2.642-0.4541-5.313-0.5186-8.203-0.6504zm-2.702 14.148c-6.0686 0.04337-12.075 0.8108-16.852 2.2891 2.4805-0.63478 4.6094-1.0147 6.3672-1.2832 8.1152-1.2598 24.239 0.55568 30.592 3.2363 0.21972-0.18071 0.82032-0.62404 1.1426-0.78516-5.5399-2.3703-13.447-3.5128-21.25-3.457zm52.686 20.729c-0.98145 0-1.8994 0.32128-2.7246 0.95117-0.0342 0.02445-0.0586 0.04478-0.0586 0.0625 0.0342-0.01488 0.80469-0.18555 1.5273-0.18555 0.4248 0 0.74317 0.06431 0.94336 0.16211-0.39551 0.17578-0.77245 0.51273-1.0801 0.98633l-0.004 0.03906c0.005-0.0049 0.47266-0.38672 1.4688-0.38672 0.15137 0 0.3076 0.01158 0.46875 0.0293 2.1973 0.23924 3.0322 2.2305 3.1836 2.9824 0.20019-0.12224 0.4297-0.18555 0.69336-0.18555 0.63965 0 1.2852 0.38069 1.5293 0.54688 0.36621 0.53224 0.71778 1.1386 1.084 1.7539-0.0243-0.0035-0.0546-0.0039-0.084-0.0039-0.19531 0-0.38474 0.06831-0.55078 0.20508 0.41017 0.45896 0.6641 0.92687 0.68359 0.9375l-1.1133-0.14648c-0.0537 0.62011 0.35546 1.4014 1.2441 1.6895 0.2539 0.08327 0.49803 0.12305 0.73242 0.12305 0.23438 0 0.45995-0.03908 0.66992-0.12695 0.32227 0.35157 0.67285 0.6935 1.0293 0.99609l-0.0234 0.01758c-0.40527 0.36128-0.79589 0.69726-1.4746 0.69726h-0.0391c-0.044 0-0.083 0.0011-0.12695 0.01172 0.0684 0.02441 0.85867 0.61169 0.86328 0.61523 2.5488 1.9141 3.7598 3.2373 4.834 4.4043 0.29785 0.32715 0.58206 0.63475 0.88477 0.94727l0.01-0.0078c-0.85938-1.6065-2.4863-3.3984-4.9863-5.459 0.28807 0.04075 0.58105 0.05859 0.95703 0.05859 0.19531 0 0.39158-0.0082 0.60156-0.01172l0.18945-0.0039c1.3379 0.81542 2.6963 1.2597 4.0391 1.3086-0.93751 0.1715-1.6758 0.18555-1.8809 0.18555h-0.0234c-0.0537 0-0.0891 0.0015-0.0937 0.01563 0.01 0 0.0439 0.0096 0.0977 0.02734 0.97168 0.31241 1.9248 0.47461 2.8379 0.47461 1.0449 0 2.001-0.20997 2.8359-0.625 1.0693-0.52735 1.3525-1.2012 1.4844-1.7871 0.12696-0.56151 0.0156-1.4892-1.2637-2.7539-0.0292-0.03118-0.0498-0.04883-0.0742-0.04883 0.2295 0.25391 0.40135 1.5175 0.16211 2.1621-0.1709 0.46385-0.81543 1.1427-1.3379 1.4453 0.41503-0.4883 0.63-1.1328 0.64453-1.9238 0-0.03508-0.001-0.04833-0.0156-0.0625 0 0.01952-0.85839 1.6304-3.2461 1.6445h-0.0781c-2.4902 0-4.4385-0.80566-6.1426-2.5488-1.1963-1.2207-2.2764-2.9248-2.8184-4.0723-0.1709-0.3662-0.41407-0.89358-0.63868-1.377-0.19531-0.41992-0.376-0.80571-0.47851-1.0254-1.0156-2.1436-2.8672-2.6797-3.1894-2.6797h-0.01c0.0244 0.01463 0.23044 0.29309 0.5918 0.78125l-0.0937-0.05078c-0.36622-0.2002-0.78614-0.42858-1.2402-0.57031-0.46875-0.14634-0.94142-0.21875-1.4004-0.21875zm3.2461 4.9941c-0.23925 0.03898-0.6582 0.51269-0.85352 1.1621-0.21487 0.71288-0.18067 1.6934 0.44922 2.4062-3.3936-2.0215-6.7773-2.9873-10.273-3.1094-4.0918-0.13677-9.0039 2.0791-9.8437 5.8926-0.3662 1.7578-0.05859 2.9941-0.05859 2.9941s0.1367-1.0264 0.27344-1.4512c0.60059-3.2226 4.9268-6.2881 9.8437-6.1855 4.4385 0.08787 6.4404 0.98046 12.676 4.1738l0.98632 0.2207c-0.95215-0.77148-1.8955-1.46-2.8379-2.0605-0.96192-0.9912-1.2939-2.3194-0.36132-4.043zm-94.145 17.324 0.45312 0.0918c-0.01463-0.02835-0.02738-0.05743-0.03711-0.0918h-0.41602z" fill-rule="evenodd" transform="matrix(.28222 0 0 .28222 .10913 270.98)" fill="#003875"/>
   <g>
    <path d="m42.686 20.172-3.418 14.439h3.373l-6.9141 28.506h-3.3438l-3.6914 14.932h64.77l3.6387-14.928h-7.9688l-7.5391-18.271 6.6172-5.666c2.3861 1.5108 4.6282 3.1367 6.7227 4.8906l1.3906-0.32227c-2.282-1.7554-4.8559-3.4387-7.5977-5.0117l4.8105-4.1191h7.2168l3.5-14.439-61.566-0.0098z" transform="matrix(.28222 0 0 .28222 .10913 270.98)" fill="#efab00"/>
    <path d="m43.764 21.324-2.9141 11.973h3.4414l-7.5273 31.129h-3.375l-2.9922 12.309h62.049l2.9395-12.305h-7.1426l-8.2227-19.951 13.012-11.178h6.627l3.002-11.973-58.896-0.0039zm66.393 12.666c-2.1875-0.1024-4.082 0.87405-5.2051 2.2266-0.89844 1.084-1.0117 2.7597-0.45508 3.9023-0.1953-1.2207 0.38183-2.3291 1.0801-3.1738 0.90332-1.0889 2.7686-1.7978 4.6094-1.8516 2.1094-0.05846 4.6133 0.62012 5.9707 2.3828-0.98633-2.0166-2.8555-3.3291-6-3.4805v-0.0059z" transform="matrix(.28222 0 0 .28222 .10913 270.98)" fill="#fff"/>
    <path d="m9.916 15.939c-2.9785 3.794-7.9678 9.506-9.584 17.465l0.12308 2.565c1.5381-7.49 6.3769-16.094 9.4629-20.03h-0.00195zm35.615 7.612-1.781 7.519h3.5254l-8.6484 35.572h-3.5098l-1.9531 7.8164h22.236l1.9141-7.8164h-3.5547l0.87891-3.5254 9.7559-8.3457 4.9453 11.852h-5.4141l-1.9141 7.8359h28.721l1.9141-7.8359h-5.9434l-9.375-22.812 14.996-12.74h5.5703l1.7734-7.5195h-28.434l-1.8555 7.5195h3.252l-12.832 10.84 2.623-10.84h2.3184l1.8555-7.5195h-21.064zm68.516 9.8418c1.6015 0.58103 3.6728 1.9541 6.3535 5.9336l0.78125 1.1914c1.0791 1.6797 1.9814 2.7442 3.5781 3.1348-1.2402-0.3026-1.7188-1.9932-2.7637-3.6094l-0.79101-1.2109c-2.8369-4.1895-6.1084-5.381-7.1582-5.4395zm-45.808 49.08c-2.1631 0.0035-4.7178 0.9707-4.7422 3.4902-0.01949 1.8066 1.4844 2.8272 3.0859 3.2129 0.63965 0.15626 0.96289 0.27355 0.96289 0.5957 0 0.32244-0.28417 0.45508-0.69922 0.45508-0.55176-0.0035-1.1416-0.36132-1.166-0.9668-1.1523 0.27354-2.3105 0.54589-3.4629 0.82422 0.21972 2.1533 2.6416 2.7402 4.4434 2.7402 2.2119 0.0035 5.0107-0.81642 4.9863-3.4922-0.01453-1.6943-1.3828-2.7246-2.916-3.125-0.39062-0.1024-1.3184-0.26859-1.377-0.69336-0.02941-0.21968 0.19141-0.45312 0.64062-0.45312 0.49316 0 0.88867 0.3026 0.9082 0.74219 1.1768-0.16122 2.3584-0.32351 3.5352-0.48438-0.11225-2.2217-2.3242-2.8457-4.1992-2.8457zm-25.898 0.205c-0.15626 0.83987-0.31252 1.6738-0.46875 2.5137-0.13674 0.74711-0.26855 1.499-0.36133 2.2559h-0.07227c-0.26855-0.61034-0.58204-1.2012-0.9043-1.7871-0.55176-0.99124-1.1025-1.9873-1.6543-2.9785h-3.6523c-0.64941 3.4424-1.2988 6.8799-1.9434 10.322 1.2891-0.03543 2.5732-0.06364 3.8574-0.09766l0.45312-2.416c0.14648-0.80568 0.29395-1.6123 0.39648-2.418h0.07813c0.38086 0.7617 0.81054 1.4951 1.2402 2.2324 0.50781 0.83987 1.0156 1.6836 1.5234 2.5234 1.1426-0.01772 2.2851-0.04301 3.4277-0.0625 0.64453-3.3594 1.2939-6.7236 1.9434-10.088h-3.8633zm5.0449 0c-0.19045 1.001-0.38672 2.001-0.58203 3.002 0.92285-0.0035 3.8477-0.0098 3.8477-0.0098l-1.3438 1.3516-1.0977 5.6836c1.3135-0.01417 2.6221-0.02844 3.9355-0.04297 0.45898-2.334 0.91797-4.6689 1.377-7.0078 0.92285 0 1.8447-0.0039 2.7676-0.0039 0.19042-0.99124 0.38672-1.9815 0.58203-2.9727h-9.4863zm26.238 0c-0.19531 0.99613-0.38965 1.9863-0.58008 2.9824 0.92285 0.0035 3.8184 0.01563 3.8184 0.01563l-1.3086 1.3145c-0.36622 1.8945-0.73341 3.793-1.0996 5.6875 1.3135 0.01417 2.6221 0.03536 3.9355 0.04883 0.45899-2.3438 0.91406-4.6924 1.373-7.041 0.92285 0.0035 1.8457 0.01013 2.7637 0.01367 0.1952-1.0052 0.39075-2.0114 0.58594-3.0215h-9.4883zm12.613 0.002c-1.919 3.3692-3.8535 6.7236-5.7969 10.078 1.3525 0.01772 2.7012 0.04977 4.0488 0.07422 0.2588-0.45404 0.51757-0.90819 0.77148-1.3672 1.1914 0.0248 3.5781 0.07227 3.5781 0.07227h1.1191l-0.96289 0.97266c0.01949 0.12685 0.04579 0.26254 0.07031 0.42383 1.2988 0.02835 2.5977 0.06364 3.8965 0.09766-0.55664-3.4473-1.1182-6.8994-1.6797-10.352h-5.0449zm-52.588 0.002c-2.7881 0-5.5713 0.0039-8.3594 0.0039-0.64941 3.5449-1.2988 7.084-1.9434 10.629 2.7832-0.1024 5.5703-0.18927 8.3535-0.26758 0.18555-0.9912 0.36718-1.9775 0.55273-2.9688-1.5283 0.03543-3.0527 0.06329-4.5762 0.09766 0.07325-0.37598 0.11323-0.5664 0.19141-0.94726 1.3281-0.0248 2.6553-0.04977 3.9883-0.07422 0.14649-0.86425 0.2998-1.7285 0.45117-2.5879-1.3233 0.01063-2.6475 0.02473-3.9707 0.04492 0.07812-0.38087 0.11139-0.56738 0.18945-0.94336 1.5185-0.01417 3.0381-0.02843 4.5566-0.03906 0.18544-0.98571 0.3761-1.9664 0.56641-2.9473zm-9.2852 0.0078c-1.4495 0.0035-2.8991 0.002-4.3438 0.002-0.81543 1.2549-1.626 2.5156-2.4316 3.7754-0.19531 0.0035-0.29297 0.0018-0.48828 0.0098 0.21972-1.2598 0.44043-2.5234 0.66016-3.7832-1.3086 0.0035-2.6211 0.0039-3.9297 0.0039h-1.3828l1.1719 1.1758c-0.58106 3.3008-1.1562 6.6065-1.7324 9.9121 1.3135-0.05846 2.6221-0.11732 3.9355-0.17578 0.23438-1.3281 0.47168-2.6562 0.71094-3.9844 0.21972-0.0035 0.3291-0.01013 0.54883-0.01367 0.3955 1.2988 0.78515 2.5976 1.1855 3.8965 1.3721-0.05386 2.7441-0.10735 4.1211-0.15625-0.61524-1.7383-1.2207-3.4766-1.8262-5.2148 1.2593-1.8206 2.522-3.6365 3.8008-5.4473zm69.758 0c-0.19531 1.0303-0.39063 2.0605-0.58594 3.0957 0.92773 0.01063 3.0859 0.04297 3.0859 0.04297h0.72852l-1.2891 1.2949c-0.36621 1.9922-0.73828 3.9785-1.1094 5.9707 1.3135 0.03898 2.627 0.07876 3.9355 0.12305 0.45899-2.4561 0.91406-4.9131 1.373-7.3691 0.92285 0.01063 1.8408 0.02453 2.7637 0.03516 0.19531-1.0644 0.39063-2.1279 0.58594-3.1875v-0.0039c-3.1641-0.0035-6.3291-0.002-9.4883-0.002zm10.768 0c-0.64453 3.5547-1.29 7.1094-1.9395 10.664 2.7881 0.1024 5.5723 0.21955 8.3555 0.3418 0.18557-1.04 0.36621-2.0791 0.54688-3.1191-1.5234-0.0489-3.0469-0.09829-4.5703-0.14258 0.0732-0.38576 0.11223-0.58009 0.18554-0.9707 1.3281 0.03543 2.6621 0.07235 3.9902 0.11133 0.15137-0.91796 0.30175-1.8262 0.45312-2.7441-1.3281-0.01772-2.6514-0.04301-3.9746-0.0625 0.0781-0.39061 0.11143-0.58595 0.18946-0.97656 1.5185 0.01772 3.0381 0.03911 4.5566 0.05859 0.0975-0.55602 0.19443-1.1129 0.29687-1.6738l1.4805-1.4785h-1.5391v0.0039c-2.6807-0.0035-5.3555-0.0046-8.0312-0.01172zm-16.846 2.9805h0.07422l0.32226 3.1992c-0.57617-0.0035-1.1523-0.01476-1.7285-0.02539l1.332-3.1738z" transform="matrix(.28222 0 0 .28222 .10913 270.98)" fill="#003875"/>
    <path d="m53.533 4.0527c-16.952 0.2269-30.559 5.583-39.642 14.777l0.19531 2.3145c10.015-11.372 26.343-17.607 47.1-16.65-0.064-0.0732-0.127-0.1472-0.186-0.2206-2.555-0.1806-5.045-0.2531-7.467-0.2207zm-42.146 13.732c-2.8616 3.706-8.4427 9.975-10.235 18.627-1.3034 6.284-0.1119 11.695 3.1449 18.492l-2.3672-0.474c5.5469 10.571 15.404 19.668 29.916 25.234 3.076 1.182 5.405 1.9 7.412 2.398-1.587-0.458-3.398-1.069-5.58-1.904-14.59-5.596-24.469-14.713-29.996-25.308l2.3828 0.47461c-3.2474-6.812-4.4144-12.232-3.0668-18.526 1.5235-7.1 5.586-12.593 8.623-16.406l-0.234-2.608zm103.5 15.264c1.6016 0.58103 3.6768 1.957 6.3574 5.9316l0.77734 1.1973c1.0791 1.6748 1.9814 2.7432 3.5781 3.1289-1.2402-0.29785-1.7129-1.9863-2.7578-3.6074l-0.79102-1.207c-2.8369-4.1944-6.1094-5.3799-7.1641-5.4434zm-4.4766 1.2988c-2.2607-0.10736-4.2285 0.9082-5.3906 2.3047-0.92772 1.1231-1.04 2.8555-0.46875 4.0371-0.2002-1.2647 0.39453-2.4112 1.1172-3.2852 0.9375-1.1279 2.8672-1.8603 4.7715-1.9141 2.1875-0.06343 4.7803 0.6387 6.1816 2.4648-1.0205-2.0898-2.9541-3.4463-6.2109-3.6074zm-7.8281 9.7559c-4.458-0.09284-8.4268 2.416-9.5742 5.2871-0.42969 1.6894-0.20019 3.8535 0.64453 5.8164l-0.0293-0.70898c0.02445 0.2002 1.4551 5.5576 9.4336 7.6426 7.5635 1.9775 13.804 0.14079 17.812-1.666-0.43945-0.65916-0.9082-1.2842-1.4062-1.875l-0.5918 0.2832c-1.8262 0.87892-7.0889 3.3887-14.447 0.97656-2.71-0.88377-4.0342-2.1426-4.6641-3.3145-0.9082-0.94727-1.4697-2.0605-1.5137-3.3203-0.08295 0.01417-0.16601 0.02828-0.24414 0.04883-0.02445 0.0248-0.04884 0.04782-0.06836 0.07227-0.01949-0.35646 0.09766-1.1465 0.09766-1.1465 0.9668-3.1006 4.5606-4.5518 9.2969-3.3945 3.6963 0.9033 11.445 4.3906 15.967 11.529 0.84961 1.3428 1.5732 2.8994 2.125 4.3887 0.95702 2.5586 1.2109 6.1289 0.0684 8.3457-1.543 2.9883-5.3711 4.7217-5.8203 4.6484 1.416 0.22961 3.7978 0.03895 5.7266-0.33203 3.7549-0.72266 7.3389-2.876 8.9453-6.416 0.30274-0.66409 0.54687-1.333 0.74219-2.002 1.2451-7.8174-4.624-18.648-5.332-18.326-1.084 0.48827-2.0693 0.52345-2.8262 0.41602-1.958 0.22464-3.6475-0.44432-3.75-0.45898 0.0195 0 0.86427 0.02493 2.002-0.18555-1.3965-0.06343-2.7637-0.54788-4.0332-1.3242-0.64452 0.01417-1.1777 0.03994-1.7539-0.04297 1.8896 1.5771 3.2627 2.9726 4.1856 4.2324 2.4072 2.8418 4.248 5.6797 4.248 5.6797s-2.5488-2.8428-3.877-4.1758c-2.3584-2.3584-5.6934-4.6914-8.8965-6.6152-6.0693-3.1006-8.0772-3.9746-12.467-4.0625zm-97.268 22.025c0.1416 1.1621 2.7774 4.249 7.3281 7.3496 5.8496 3.9893 8.8721 4.5557 10.01 4.6484-4.209-1.9629-7.0166-3.5606-9.8828-5.543-4.0483-2.788-6.6498-5.371-7.4555-6.455zm57.324 15.635-4.2832 2.4707s-0.03804 0.2111-0.24805 0.89453c-0.20994 0.67872-0.33203 1.0488-0.33203 1.0488l0.98633-0.37109s-0.17578 0.72755-0.57617 1.7871-0.9668 2.4219-0.9668 2.4219l1.1523-0.48828s0.0099 0.04986-0.44922 1.3047c-0.38575 1.0449-0.85352 2.1484-0.85352 2.1484s0.94141-0.89456 1.6934-1.6465c0.75195-0.74707 1.373-1.4004 1.373-1.4004l-0.84961 0.26758s0.43944-0.62499 0.99609-1.4258c0.55175-0.7959 1.0977-1.6738 1.0977-1.6738l-1.001 0.273s0.46386-0.94825 1.0547-2.3887c0.59082-1.4356 1.207-3.2227 1.207-3.2227z" transform="matrix(.28222 0 0 .28222 .10913 270.98)" fill="#efab00"/>
   </g>
  </g>
 </g>
</svg>
