<svg xmlns="http://www.w3.org/2000/svg" width="248" height="218" viewBox="0 0 248 218">
 <g transform="matrix(2.54 0 0 2.54 .758 -.86)" fill-rule="evenodd">
  <path d="m89.8 15.8c-2.68-2.29-6.71-3.24-8.78-3.64-0.0435-0.101-0.0885-0.195-0.139-0.287-0.257-0.47-0.545-0.938-0.856-1.39-0.608-0.888-1.29-1.68-2.04-2.36-3.34-3.03-7.83-5.12-13.3-6.21-1.38-0.274-2.86-0.497-4.38-0.662-1.26-0.137-2.74-0.288-4.25-0.378-1.04-0.0614-2.09-0.0979-3.13-0.109-11.1-0.116-22 2.56-35.4 8.68-3.95 1.8-7.87 3.67-12 5.19-0.806 0.3-1.62 0.584-2.43 0.854l-2.77 12.2 5.77 0.567c1.08 0.213 1.58 0.554 1.71 0.73 0.147 0.211 0.0956 0.745-0.00212 1.18l-0.0878 0.404-2.49 11.4-0.446 2.04-4.74 22.1h29.4c-0.142 2.54 0.0331 5.06 0.766 7.22 0.143 0.456 0.307 0.896 0.504 1.35 2.04 4.69 6.32 8.22 11.7 9.69 3.15 0.858 6.49 1.33 9.4 1.33 8.26 0 14.1-2.07 18.5-6.51 3.3-3.38 5.56-7.96 6.91-14l6.52-29.3c0.77-0.289 1.45-0.603 2.01-0.901 0.579-0.304 1.39-0.79 2.12-1.34 0.158 0.114 0.285 0.209 0.4 0.302 0.735 0.599 1.28 1.42 1.65 2.14 0.827 1.36 1.7 3.37 2.18 6.2 0 0 3.92-5.75 4.49-11.5 0.0209-0.214 0.0347-0.388 0.045-0.562 0.159-2.51-0.241-4.93-1.21-7.18-1.43-3.34-3.89-5.81-5.71-7.3z" fill="#fff"/>
  <path d="m51.1 2.78c-11.5 0.208-22 3.59-32.7 8.48-4.51 2.06-8.38 3.8-12.4 5.31h26.7l-1.8 8.26c0.344-0.0286 0.69-0.0566 1.04-0.0801 2.63-0.18 5.24-0.185 7.34 0.172 1.98 0.338 3.49 1.1 4.55 2.05 1.81 1.91 1.68 8.07-5.55 5.34-0.879-0.332-1.77-0.631-2.67-0.902-2.01-0.61-4.01-1.07-5.83-1.42l-0.936 4.29 33.7-2e-3c1.45-0.92 2.63-1.78 3.54-2.51 2.07 1.02 3.3 1.47 4.98 2.03 0.561 0.188 1.13 0.343 1.69 0.477 0.924 0.217 1.86 0.374 2.81 0.508 2.65 0.453 5 0.115 6.92-0.508 3.16-1.03 5.14-2.82 5.28-3.12 0.778 0.428 1.45 0.866 1.97 1.29 2.19 1.79 3 4.81 3 4.81 2.46-5.03 2.58-9.54 0.939-13.4-1.35-3.15-3.72-5.38-5.15-6.54-2.88-2.48-8.01-3.22-8.89-3.39-0.0885-0.0976-0.249-0.507-0.328-0.707-0.0673-0.174-0.125-0.323-0.176-0.414-0.229-0.417-0.481-0.828-0.752-1.22-0.52-0.761-1.1-1.44-1.73-2.01-3.06-2.77-7.21-4.69-12.3-5.71-1.33-0.263-2.74-0.476-4.2-0.635-1.22-0.132-2.67-0.28-4.15-0.367-0.835-0.0496-1.66-0.0818-2.49-0.0977-0.773-0.0148-1.54-0.0158-2.3-0.00195zm-0.709 3.12c0.367-0.00252 0.564 0.00391 0.564 0.00391 2.15-0.0248 4.35 0.0706 6.6 0.293h0.0273c0.0319-0.00172 2.31 0.0773 5.77 0.773 4.84 1.96 6.21 4.19 6.01 6.23-0.776-0.351-1.46-0.75-2.17-1.16-2.38-1.38-5.08-2.95-12.4-3.35-0.288-0.0162-0.584-0.0141-0.887-0.00586-0.102-0.00276-0.204-0.00781-0.307-0.00781-4.41 0.00448-7.41 1.61-9.27 3.08 0 0 0.0298-0.0118 0.0879-0.0332 0.0471-0.0176 0.113-0.0424 0.195-0.0703 0.358-0.123 1.03-0.337 1.9-0.539 3.84-0.743 6.93-0.146 8.93 1.07 1.73 1.06 2.64 2.58 2.5 4.1-0.311 3.24-5.2 3.61-5.29 3.61-0.0013-1.28e-4 -0.0047 2.3e-4 -0.0059 0-2.37-0.181-5.1-1.11-7.54-2.99 0 0 4.59 6.27 15.6 3.96 1.3-0.274 2.31-0.694 3.23-1.21 0.0159-0.0086 0.0329-0.0176 0.0488-0.0273 0.874-0.492 1.67-1.07 2.56-1.68 0.266 0.0576 0.538 0.105 0.818 0.143 0.379 0.0507 0.769 0.084 1.16 0.0957 0.139 0.0035 0.264-0.0051 0.387-0.0137l0.119-0.0078c0.282-0.0159 0.543-0.0404 0.777-0.0684-0.156 0.218-0.342 0.437-0.555 0.654-0.143 0.145-0.298 0.289-0.465 0.432-0.378 0.325-0.818 0.643-1.31 0.951-0.112 0.0714-0.227 0.143-0.344 0.213-0.0988 0.0586-0.198 0.116-0.299 0.174-0.402 0.228-0.831 0.449-1.28 0.66-0.873 0.408-1.83 0.783-2.85 1.11-1.6 0.514-3.34 0.91-5.11 1.13 0 0-8.9 1.31-12.3 0.422-3.44-0.885-5.83-4.08-3.96-6.92 0.185-0.312 1-0.916 1.27-1.06 5.73-3.22 12.3 1.37 12.3 1.37-0.956-1.79-4.95-7.29-19.1-2.36 2.82-3.41 5.92-4.99 8.39-5.78-7.66 0.163-16.8 2.7-17.4 2.86l-0.0059-0.0059c0.85-0.497 1.71-0.953 2.59-1.37 0.348-0.168 0.696-0.331 1.05-0.486 1.57-0.7 3.16-1.28 4.72-1.77 1.3-0.404 2.58-0.74 3.81-1.02 0.738-0.168 1.46-0.316 2.16-0.445 0.232-0.0434 0.463-0.0857 0.691-0.125 0.493-0.0848 0.972-0.16 1.44-0.229 3.38-0.493 6-0.571 7.1-0.578zm15.3 6.71c0.016-7.38e-4 0.0287 0.0036 0.0391 0.0117 0.366 0.291 0.829 0.56 1.29 0.795-0.957 1.13 0.0789 2.77 1.4 2.83-0.315 0.26-0.744 0.387-1.29 0.236-0.217-0.0597-0.451-0.163-0.705-0.318-0.0574-0.0362-0.115-0.0736-0.174-0.113-0.535-0.361-0.881-0.751-1.09-1.13l-0.0078-0.0391c-0.153-0.29-0.244-0.611-0.238-0.957l-2e-3 -0.0059c0.0014-0.0658 0.0082-0.13 0.0156-0.193 6.92e-4 -0.0041 2e-3 -0.0082 2e-3 -0.0137 0.0099-0.0672 0.0219-0.134 0.0371-0.197 0.0021-0.0062 0.0028-0.0129 0.0039-0.0195 5e-3 -0.0183 0.0123-0.0368 0.0176-0.0547 0.0049-0.0152 0.0084-0.0298 0.0137-0.0449 0.0528-0.167 0.132-0.324 0.236-0.455 0.0099-0.011 0.0205-0.0215 0.0293-0.0332 0.0131-0.0145 0.0221-0.0302 0.0352-0.043 0.0067-0.0086 0.0187-0.0194 0.0332-0.0332 0.0538-0.0531 0.111-0.0981 0.168-0.131 0.0669-0.0463 0.137-0.0837 0.186-0.0859zm8.77 4c0.98-0.0314 10.8 0.0536 13.7 7.03 1.66 3.96-2.71 1.88-8.87 1.13-0.0159-0.0017-0.124-0.0163-0.162-0.0215-6.18-0.839-11.7 1.47-15.3 3.61-0.624 0.372-1.49 0.947-2.3 1.37-0.225 0.116-0.445 0.223-0.654 0.309-1.25 0.595-2.67 1.18-3.98 1.45-2.09 0.43-3.92 0.052-4.38-2.39-0.445-2.35 0.68-3.18 2.66-3.67 0.716-0.178 1.55-0.314 2.45-0.461 0.344-0.0555 0.696-0.113 1.06-0.176 1.52-0.114 2.96-0.407 4.31-0.816 1.94-0.589 3.68-1.42 5.2-2.32 3.33-1.98 5.52-4.28 6.11-5.04 0 0 0.0316-0.0022 0.0879-0.0039zm4.79 1.3c-2.05 0.0355-2.28 1.04-2.22 1.89 0.0581 0.856 2.88-1.04 2.88-1.04s1.39-0.888-0.658-0.854zm-74.4 0.939-0.617 2.68-0.834 3.62-0.127 0.553 3.25 0.32c1.11 0.203 2.59 0.665 3.32 1.72 0.0839 0.121 0.243 0.356 0.357 0.744 0.104 0.356 0.169 0.843 0.0977 1.49-0.0237 0.211-0.0604 0.438-0.115 0.686l-1.87 8.56-0.693 3.18-0.445 2.03-4.27 19.6h29.1l-0.109 0.922c-0.0195 0.154-0.0366 0.309-0.0547 0.467-0.276 2.65-0.0421 5.1 0.699 7.28 0.126 0.401 0.269 0.782 0.43 1.15 1.76 4.04 5.48 7.1 10.2 8.38 2.96 0.804 6.07 1.25 8.77 1.25 7.58 0 12.9-1.84 16.8-5.8 2.99-3.06 5.06-7.29 6.32-12.9l6.25-28.1 0.0234-0.105h-24.6l-0.232 1.02-0.572 2.48-0.775 3.37 2.23 0.18c0.7 0.0569 3.07 0.341 4.18 1.64 0.226 0.264 0.909 1.07 0.541 2.95l-3.03 13.8c-0.746 3.2-1.45 4.4-2.34 5.31-0.795 0.813-2 1.26-3.39 1.26-3.97 0-4.55-2.18-4.64-3.82-0.04-0.756 0.0573-1.74 0.279-2.84l4.65-20.9 0.531-2.39 0.459-2.06h-25.2l-1.58 6.87 2.23 0.178c0.171 0.0138 0.444 0.0423 0.773 0.0957 1 0.161 2.54 0.557 3.38 1.53 0.0609 0.0696 0.114 0.144 0.166 0.219 0.469 0.666 0.609 1.52 0.424 2.6l-0.314 1.52h-11.4l0.807-3.69 0.438-2.01 1.1-5.05 0.975-4.46 2.03-9.27 1.36-6.23h-14.9zm18.3 3.28h2.47l-0.752 3.44-0.773 3.54-0.82 3.75-0.266 1.21-0.975 4.46-0.174 0.801-1.41 6.44-1.24 5.68-0.299 1.38h-2.47l0.301-1.38 1.27-5.81 0.436-1.99 0.906-4.15 0.0273-0.127 1.49-6.83 0.0273-0.127 0.754-3.45 0.648-2.97zm52.1 5.74c2.09-4.65e-4 4.19 0.261 6.27 0.834 0.277 0.0758 0.551 0.156 0.822 0.238 0.0407 0.382-0.102 0.81-0.305 1.13-0.832 1.3-2.6 1.7-4.03 1.8-0.524 0.0376-1.09 0.0168-1.71-0.0801-0.623-0.128-1.09-0.248-1.34-0.314-0.687-0.195-1.37-0.408-2.03-0.621-0.669-0.217-1.32-0.437-1.93-0.646-1.16-0.392-2.15-0.73-2.91-0.92 0.787-0.474 1.53-0.753 2.12-0.916 0.43-0.0893 0.864-0.168 1.3-0.23 1.23-0.178 2.48-0.273 3.73-0.273zm-27.2 12h2.47l-0.0508 0.229-0.51 2.3-4.21 18.9c-0.284 1.4-0.4 2.63-0.342 3.68 0.0864 1.62 0.561 3 1.37 4.09 1.14 1.54 2.97 2.5 5.31 2.76-0.378 0.0466-0.765 0.0781-1.16 0.0781-2.98 0-5.27-1.01-6.62-2.84-0.371-0.499-0.667-1.06-0.893-1.68-0.0049-0.02-0.0102-0.0396-0.0137-0.0586-0.258-0.719-0.417-1.51-0.463-2.37-0.0581-1.04 0.0568-2.28 0.342-3.68l0.119-0.527c-0.0074 0.0354-0.03 0.165-0.0527 0.295 0.0326-0.19 0.0547-0.295 0.0547-0.295l4.4-19.8zm-4.7 21.2c-0.0313 0.179-0.0676 0.427-0.109 0.752 0.0398-0.31 0.0788-0.574 0.109-0.752zm31.4-21.2h2.47l-5.39 24.2c-1.12 5.02-2.91 8.73-5.47 11.4-3.19 3.26-7.75 4.78-14.3 4.78-0.346 0-0.702-0.0102-1.06-0.0254 5.84-0.207 9.98-1.73 12.9-4.76 2.56-2.62 4.34-6.33 5.47-11.4zm-19.7 5.86-3.72 16.7c-0.24 1.19-0.247 1.91-0.229 2.24 0.0531 0.97 0.0913 1.67 2.3 1.67 0.735 0 1.35-0.203 1.7-0.557 0.482-0.493 1.05-1.27 1.75-4.25l3.02-13.8c0.0428-0.218 0.137-0.832-0.0449-1.05-0.32-0.378-1.45-0.739-2.56-0.828zm-26 0.105c-0.895 0.0355-1.79 0.0586-2.68 0.0703l-0.309 1.42h6.57c0.0117-0.23-0.0078-0.469-0.113-0.592-0.331-0.379-1.43-0.732-2.56-0.822zm14.2 16c-0.0181 0.144-0.034 0.289-0.0508 0.455 0.0163-0.16 0.0334-0.316 0.0508-0.455zm-0.0625 0.572c-0.0182 0.19-0.035 0.39-0.0488 0.602 0.014-0.212 0.0305-0.411 0.0488-0.602zm-0.0488 0.602c-0.0145 0.223-0.0263 0.456-0.0332 0.697 0.0071-0.241 0.0185-0.475 0.0332-0.697zm-0.0332 0.697c-0.0069 0.242-0.0113 0.49-0.0078 0.746-0.0032-0.255 6.64e-4 -0.505 0.0078-0.746z" fill="#0a254e"/>
  <path d="m63.4 6.97c4.84 1.96 6.21 4.19 6.01 6.23 0.45 0.205 0.931 0.395 1.47 0.562 0.258 0.0565 0.503 0.0898 0.725 0.0957 1.39 0.0396 1.66-0.905 1.71-1.31 0.285-2.3-3.62-3.73-3.76-3.78-0.381-0.132-0.786-0.272-1.22-0.428-1.8-0.64-3.47-1.07-4.93-1.37zm-12.1 3.29c-2.63 0.0592-4.65 0.839-4.67 0.846 3.84-0.743 6.93-0.146 8.93 1.07 1.73 1.06 2.64 2.58 2.5 4.1-0.311 3.24-5.2 3.61-5.29 3.61 1.29 0.165 2.41 0.175 3.38 0.0606 2.82-0.332 4.3-1.71 4.42-3.38 0.0085-0.111 0.0114-0.224 0.0078-0.338-0.0042-0.122-0.0151-0.244-0.0332-0.367-0.0078-0.0524-0.019-0.105-0.0293-0.158-0.0064-0.0331-0.0098-0.0649-0.0176-0.0977-0.152-0.691-0.518-1.4-1.1-2.09-0.403-0.478-0.91-0.945-1.52-1.38-2.13-1.53-4.54-1.92-6.59-1.87zm25.3 6.27c-0.481 0.0098-0.981 0.0305-1.52 0.0527-0.19 0.0079-0.387 0.0171-0.588 0.0254 0.98-0.0314 10.8 0.0536 13.7 7.03 1.66 3.96-2.71 1.88-8.87 1.13 0.129 0.0162 0.258 0.0401 0.387 0.0625v-0.0039c0.0159 0.0034 0.031 7e-3 0.0469 0.0098 0.0524 9e-3 0.105 0.0157 0.158 0.0254 1.53 0.268 2.64 0.577 3.55 0.922 1.48 0.481 2.73 1.03 3.78 1.58 0.782 0.412 1.45 0.828 2.02 1.22 1.9 1.33 2.63 2.45 2.63 2.45s0.0964-2.63-0.795-5.37c-0.16-0.651-0.478-1.39-0.951-2.19-0.144-0.252-0.3-0.499-0.469-0.738-0.129-0.19-0.263-0.381-0.406-0.576-3.12-4.26-6.6-4.73-8.36-5.18-1.61-0.417-2.89-0.487-4.33-0.457zm5.78 12.4c0.0407 0.382-0.104 0.81-0.307 1.13-0.832 1.3-2.6 1.7-4.03 1.8-0.524 0.0379-1.09 0.0168-1.71-0.0801 0.518 0.107 1.14 0.217 1.83 0.305 1.39 0.178 2.54 0.0419 4.14-0.184 0.989-0.139 2.13-0.53 3-0.959 0.329-0.162 0.645-0.352 0.941-0.566-0.221-0.101-0.433-0.192-0.635-0.277-0.33-0.139-0.63-0.26-0.889-0.359 0-1e-3 0.0013-0.0021 2e-3 -0.0039-0.742-0.288-1.53-0.56-2.34-0.805z" fill="#d3d6d9"/>
  <path d="m7.53 22.1-0.166 0.727c0.433 0.0869 0.895 0.203 1.36 0.357 0.795 0.263 1.61 0.635 2.35 1.16 0.577 0.414 1.11 0.917 1.54 1.54 0.392 0.567 0.677 1.19 0.852 1.85 0.136 0.515 0.205 1.06 0.209 1.63 5e-3 0.621-0.0685 1.27-0.221 1.96l-0.189 0.865-1.58 7.25-0.756 3.45-0.438 2.01-3.15 14.4-0.301 1.38h36.3l4.4-19.8 0.242-1.09h-15.9l-0.168 0.729c1.17 0.234 2.53 0.681 3.69 1.51 0.414 0.295 0.806 0.635 1.15 1.04 0.0166 0.0186 0.0302 0.0393 0.0469 0.0586 0.479 0.566 0.838 1.2 1.07 1.9 0.363 1.07 0.436 2.27 0.205 3.57l-0.0059 0.0371-0.859 4.17h-20.8l0.301-1.38 1.27-5.81 0.436-1.99 0.906-4.15 0.0273-0.127 1.49-6.83 0.0273-0.127 0.754-3.45 0.648-2.97 0.848-3.88h-15.1zm51.9 17.7-0.166 0.729c1.17 0.237 2.55 0.686 3.71 1.53 0.424 0.302 0.819 0.655 1.17 1.07 1.26 1.49 1.69 3.45 1.25 5.69l-3.05 13.9c-0.804 3.45-1.66 5.31-3.18 6.86-1.44 1.47-3.51 2.28-5.83 2.28-0.456 0-0.888-0.0316-1.31-0.0781-0.378 0.0465-0.767 0.0781-1.16 0.0781-2.98 0-5.27-1.01-6.62-2.84-0.371-0.499-0.669-1.06-0.895-1.68 0.0071 0.0296-0.307-0.0373-0.889-0.0566l-1.64-0.0625c-0.0623-0.0017-0.168-0.0024-0.301-0.0059-0.0981-1e-3 -0.21-0.0039-0.344-0.0039-0.23 0-0.478 0.0188-0.734 0.0488-1.33 0.167-2.91 0.74-3.51 1.51-0.838 1.07-0.275 2.81 0.133 3.75 0.416 0.953 0.978 1.84 1.66 2.63 1.56 1.81 3.76 3.17 6.35 3.87 2.29 0.623 4.66 1 6.8 1.1 5.84-0.207 9.98-1.73 12.9-4.76 2.56-2.62 4.34-6.33 5.47-11.4l5.39-24.2h-14.7z" fill="#b70d1d"/>
 </g>
</svg>