<svg xmlns="http://www.w3.org/2000/svg" height="175.92" viewBox="0 0 250 175.91563" width="250"><g transform="matrix(1.25 0 0 -1.25 -605.45 539.51)"><g><path d="m84.131 1.0449c-1.805 0-3.274 1.4659-3.274 3.2676v102.67c0 2.76 0.716 5.51 2.071 7.93l7.06 12.64c0.166 0.3 0.128 0.67-0.113 0.95-0.177 0.21-4.392 5.15-7.291 9.34-1.12 1.63-1.727 3.55-1.758 5.57-0.029 2.31-0.005 4.34 0.014 6.13 0.108 10.3 0.116 11.16-8.906 12.98l-7.875 1.04c-0.35 0.04-0.68 0.18-0.961 0.39-1.24 0.92-1.921 2.7-1.866 4.87 0.052 2 0.757 4.57 2.584 5.79 0.341 0.23 0.738 0.35 1.145 0.35h0.068c13.051-0.43 23.512-0.63 32.92-0.63h27.981c19.31 0 38.21 0.25 48.15 0.63h0.08c0.77 0 1.48-0.43 1.83-1.11 3.17-6.15 8.13-23.66 9.19-34.56 0.05-0.43-0.05-0.87-0.27-1.24-1.39-2.39-4.37-3.46-6.71-3.46-1.96 0-3.59 0.69-4.6 1.95-0.09 0.11-0.17 0.23-0.23 0.35-12.07 23.72-17.46 23.72-35.33 23.72-21.01 0-23.28-3.87-23.28-5.54v-1.69c-0.02-4.75-0.04-11.26 1.41-12.71 2.49-2.49 4.08-2.81 6.1-3.21 1.67-0.34 3.56-0.72 5.85-2.3 1.05-0.72 5.16-1.36 7.37-1.7 1.03-0.16 1.91-0.3 2.56-0.43 0.24-0.05 0.52-0.07 0.83-0.07 0.13 0 0.27 0 0.4 0.01-0.1 0.26-0.19 0.53-0.26 0.8-0.18 0.73-0.02 1.5 0.45 2.1 0.47 0.61 1.21 0.97 1.97 0.97 0.43 0 0.86-0.12 1.22-0.32 4.72-2.66 7.88-7.08 8.89-12.46 0.87-4.59-0.03-9.36-2.29-12.13l-0.28-0.34c-0.77-0.94-1.24-1.56-1.27-2.21-0.27-5.57-3.32-10.065-9.33-13.751-10.75-6.579-17.93-10.399-23.56-12.514v-42.191c0-3.009-1-5.979-2.83-8.363-0.02-0.024-25.457-30.442-25.457-30.442-0.623-0.6915-1.477-1.0741-2.402-1.0741zm-80.283 59.416c-0.3482 0-0.6911 0.088-0.9961 0.256-1.1005 0.608-1.7894 1.8-1.8868 3.267-0.08141 1.208 0.2595 2.814 1.459 3.704 0.2428 0.18 0.5233 0.306 0.8203 0.365l2.5782 0.515c3.5522 0.708 3.6211 0.722 3.6211 9.151v25.831c0 12.29 2.6676 20.22 8.4086 24.96 5.309 4.33 12.02 6.26 21.765 6.26v-0.01c9.146 0 17.15-2.95 21.985-8.12 6.285-6.97 7.15-16.75 7.15-26.28v-11.581c0-9.292 0.519-16.065 1.383-18.113 0.501-1.174 1.525-1.602 4.136-2.211l1.862-0.412c0.386-0.086 0.738-0.279 1.015-0.561 1.635-1.65 1.388-5.009 0.004-6.412-0.388-0.391-0.915-0.609-1.463-0.609-0.036 0-0.074 0-0.111 0.004-3.876 0.211-7.627 0.312-11.465 0.312-3.988 0-7.851-0.087-13.775-0.314-0.027-0.001-0.053-0.002-0.08-0.002-0.548 0-1.075 0.22-1.461 0.611-1.384 1.403-1.631 4.762 0.002 6.41 0.295 0.299 0.676 0.5 1.088 0.577l2.791 0.513c2.584 0.486 3.986 0.944 4.476 2.092 0.871 2.049 1.391 8.821 1.391 18.117v12.499c0 15.94-4.976 23.69-15.209 23.69-12.49 0-15.002-8.94-15.002-23.38v-23.871c0-8.611 0.204-8.648 3.557-9.242l2.482-0.413c0.324-0.054 0.631-0.184 0.893-0.382 0.912-0.682 1.438-1.915 1.443-3.381 0.005-1.481-0.516-2.727-1.432-3.42-0.357-0.273-0.793-0.42-1.242-0.42-0.029 0-0.059 0.001-0.088 0.002-4.852 0.209-9.899 0.314-15.002 0.314-5.036 0-10.226-0.108-15.01-0.314-0.0298-0.001-0.0586-0.002-0.0873-0.002zm154.91 0c-0.19 0-0.37 0.025-0.55 0.076-1.09 0.304-1.9 1.198-2.23 2.455-0.37 1.411-0.14 3.442 1.02 4.602 0.3 0.295 0.67 0.493 1.09 0.568l2.29 0.416c3.27 0.572 4.7 1.323 4.7 6.141 0 5.089-0.19 13.482-0.61 20.75-0.25 3.923-0.46 7.771-0.64 11.171-0.27 5.17-0.5 9.63-0.81 12.64-0.52 5.37-0.52 5.37-4.8 6.13l-1.86 0.31c-0.24 0.04-0.46 0.12-0.67 0.23-1.46 0.81-1.82 2.66-1.68 3.99 0.18 1.7 1.11 2.96 2.49 3.39 0.2 0.06 0.4 0.09 0.6 0.09 0.04 0 0.07 0 0.11-0.01 4.02-0.2 7.92-0.3 11.26-0.3 4.08 0 8.49 0.11 12.1 0.3 0.04 0.01 0.07 0.01 0.11 0.01 0.39 0 0.77-0.11 1.1-0.32 1.34-0.85 1.61-2.58 1.67-3.28 0.11-1.54-0.33-2.86-1.23-3.63-0.29-0.25-0.65-0.42-1.03-0.48l-4.03-0.61c-2.61-0.4-3.01-0.46-3.01-5.21 0-5.98 0.1-16.23 0.2-23.222 0.06-2.854 0.12-5.499 0.22-8.397 1.19 2.614 2.49 5.416 3.81 8.295 5.91 12.804 12.61 27.314 15.32 35.924 0.14 0.46 0.43 0.84 0.83 1.1 1.35 0.89 3.26 0.96 3.82 0.96 1.21 0 2.41-0.42 3.35-1.17 0.28-0.23 0.5-0.52 0.63-0.86 5.71-14.61 12.45-29.13 18.98-43.166v2.953l0.21 26.863c0 2.54 0 4.54-0.38 5.29-0.08 0.16-0.27 0.53-2.6 0.83l-3.1 0.42c-0.33 0.04-0.64 0.16-0.91 0.35-1.13 0.79-1.72 2.29-1.55 3.91 0.17 1.54 1.01 2.77 2.25 3.29 0.25 0.1 0.52 0.16 0.79 0.16h0.09c4.63-0.2 10.31-0.31 15.21-0.31 4.91 0 9.28 0.09 14.18 0.31h0.09c0.26 0 0.52-0.05 0.77-0.15 1-0.4 1.73-1.36 1.98-2.62 0.28-1.35 0.04-3.23-1.11-4.36-0.32-0.33-0.74-0.53-1.19-0.58l-3.29-0.42c-2.16-0.27-2.64-0.81-2.86-5.81-0.63-13.23-0.83-24.263-0.83-45.388 0-4.262 1.13-4.813 4.61-5.41l2.99-0.516c0.5-0.085 0.95-0.349 1.26-0.742 0.86-1.078 1.22-2.624 0.94-4.037-0.24-1.189-0.9-2.137-1.86-2.67-0.31-0.169-0.65-0.256-0.99-0.256-0.04 0-0.08 0.003-0.12 0.004-4.04 0.231-8.86 0.314-11.77 0.314-0.53 0-2.47 0.01-2.95 0.01-2.09 0-4.1-0.055-7.11-0.32-0.06-0.004-0.12-0.008-0.18-0.008-0.93 0-1.76 0.63-1.99 1.547-2.19 8.559-4.61 13.759-9.44 24.115l-5.53 11.928c-1.7 3.719-2.97 6.349-3.98 8.339-1.56-2.78-3.56-6.37-4.17-7.736l-6.82-14.576c-0.74-1.567-1.45-3.045-2.12-4.449-3.4-7.081-5.86-12.195-5.86-17.111 0-0.575-0.24-1.124-0.66-1.514-0.38-0.35-0.88-0.543-1.39-0.543-0.06 0-0.12 0.003-0.18 0.008-3.63 0.31-6.56 0.31-9.95 0.31-5.15 0-9.49-0.105-12.91-0.312-0.04-0.004-0.08-0.006-0.12-0.006z" transform="matrix(.8 0 0 -.8 484.36 431.61)" fill="#fdb913"/><path d="m84.025 3.1055c-0.577 0.051-1.111 0.5132-1.111 1.207v60.224 42.444c0 2.42 0.627 4.81 1.809 6.93l7.064 12.65c0.588 1.06 0.445 2.37-0.348 3.27 0 0-4.291 5.03-7.162 9.18-0.896 1.3-1.37 2.84-1.394 4.42-0.198 15.73 1.981 18.59-10.612 21.12l-7.945 1.05c-1.666 1.24-1.245 6.05 0.635 7.31 12.941-0.43 23.378-0.64 32.988-0.64h27.971c17.13 0 37.16 0.21 48.24 0.64 2.91-5.65 7.92-22.97 8.98-33.82-1.47-2.53-6.27-3.35-7.94-1.26-12.32 24.21-18.16 24.84-37.16 24.84-15.25 0-25.33-1.98-25.33-7.6 0-6.42-0.24-13.6 2.01-15.86 5.1-5.1 7.67-2.59 12.24-5.74 1.92-1.32 8.3-1.96 10.68-2.46 1.88-0.38 4.33 0.3 4.31 0.61-0.02 0.5-0.71 1.76-0.93 2.65-0.09 0.34 0.31 0.64 0.63 0.45 9.4-5.29 9.63-17.06 6.01-21.5-0.91-1.13-1.93-2.22-2-3.74-0.28-5.76-4.04-9.45-8.35-12.097-11.29-6.907-18.82-10.872-24.54-12.822v-43.637c0-2.578-0.85-5.075-2.41-7.113l-25.352-30.315c-0.274-0.3036-0.636-0.4211-0.983-0.3905zm6.62 20.334c0.065 0.016 0.126 0.05 0.175 0.11l14.15 16.996c0.31 0.356 0.48 0.815 0.48 1.283v87.692c0 0.63-0.76 0.95-1.2 0.5l-13.486-24.6c-0.349-0.34-0.539-0.81-0.539-1.3v-6.958l10.345 12.928-10.345-19.955v-8.158l10.345 12.923-10.345-19.959v-8.16l10.345 12.936-10.345-19.967v-8.16l10.345 12.933-10.345-19.959v-8.16l10.345 12.924-10.345-19.959v-5.598c0-0.237 0.224-0.377 0.42-0.332zm-86.799 39.077c-1.134 0.626-1.0294 2.903-0.1973 3.521l2.5782 0.516c4.6544 0.928 5.2714 1.553 5.2714 11.164v25.833c0 11.28 2.276 18.92 7.652 23.36 5.583 4.55 12.609 5.8 20.467 5.8 8.375 0 15.915-2.58 20.459-7.45 5.685-6.3 6.621-15.19 6.621-24.9v-11.581c0-8.372 0.413-16.231 1.547-18.92 0.928-2.172 2.894-2.782 5.582-3.41l1.863-0.412c0.825-0.832 0.619-2.895 0-3.521-3.926 0.214-7.746 0.318-11.576 0.318-4.234 0-8.272-0.104-13.853-0.318-0.62 0.626-0.826 2.689 0 3.521l2.799 0.516c2.782 0.524 5.058 1.134 5.986 3.306 1.142 2.689 1.555 10.548 1.555 18.92v12.511c0 14.16-4.037 25.74-17.264 25.74-15.709 0-17.057-13.34-17.057-25.44v-23.873c0-9.611 0.619-10.442 5.274-11.268l2.482-0.412c0.824-0.618 0.824-2.895 0-3.521-4.964 0.214-10.022 0.318-15.09 0.318-4.964 0-10.135-0.104-15.099-0.318zm154.91 0c-1.13 0.317-1.13 2.799-0.31 3.625l2.28 0.412c4.13 0.722 6.41 2.275 6.41 8.166 0 5.584-0.22 13.957-0.62 20.881-0.63 9.82-0.94 18.81-1.46 23.88-0.61 6.4-1.23 7.02-6.51 7.96l-1.86 0.31c-0.93 0.51-0.93 3.2 0.41 3.61 4.14-0.2 8.07-0.31 11.38-0.31 3.92 0 8.37 0.11 12.2 0.31 0.82-0.51 1.03-2.89 0.2-3.61l-4.03-0.62c-4.14-0.63-4.76-2.07-4.76-7.24 0-6.2 0.11-16.53 0.21-23.259 0.1-5.376 0.21-9.92 0.62-16.637h0.21c5.79 13.433 18.5 39.066 22.53 51.886 0.63 0.41 1.76 0.62 2.69 0.62 0.83 0 1.55-0.31 2.07-0.72 6.82-17.47 15.09-34.737 22.73-51.278h0.22v11.791l0.2 26.877c0 6.3 0 7.54-4.76 8.16l-3.1 0.42c-1.03 0.72-0.92 3.1 0.31 3.61 4.97-0.2 10.65-0.31 15.3-0.31 5.07 0 9.51 0.11 14.27 0.31 1.03-0.41 1.03-2.79 0.2-3.61l-3.31-0.42c-4.02-0.52-4.44-2.99-4.64-7.75-0.62-13.03-0.84-24.187-0.84-45.486 0-5.479 2.07-6.71 6.32-7.44l2.99-0.513c0.83-1.031 0.83-2.999-0.31-3.625-3.72 0.214-8.47 0.318-11.88 0.318-3.1 0-5.48 0.102-10.24-0.318-2.28 8.896-4.86 14.376-9.82 25.017l-5.27 11.373c-2.79 6.094-4.44 9.304-5.79 11.784-1.44-2.59-5.17-9.09-6.1-11.165l-6.82-14.576c-4.55-9.714-8.16-16.019-8.16-22.433-3.72 0.317-6.72 0.318-10.13 0.318-5.07 0-9.52-0.104-13.03-0.318zm-45.2 28.222c2.86 0.856 5.68 1.832 8.42 3.016 4.88 2.092 9.73 4.723 13.59 8.436 0.88 0.85 1.73 1.75 2.48 2.71 0.37 0.49 0.69 1.13 1.15 1.53 0.55 0.48 0.85 0.09 1.47 0.11 1.03 0.01 0.85 1.32 0.85 2.02 0.02 1.42 0.15 2.85 0.54 4.22-0.74-0.21-1.74 0.12-2.27 0.65-0.25 0.26-0.47 0.59-0.54 0.95-0.07 0.28-0.04 1.04 0.35 1.16 0.34 0.11 0.7-0.53 0.89-0.7 0.37-0.32 0.64-0.33 1.1-0.26 0.32 0.06 0.75-0.04 1.04 0.04 0.27 0.05 0.44 0.54 0.63 0.82 1.05 1.58 2.52 2.62 3.07 4.52 0.46 1.59 0.28 3.3-0.34 4.82-0.2 0.49-0.59 1.65-1.08 1.91-0.64 0.34-0.71-0.69-0.84-1.08-0.37-1.13-1.05-2.15-2.03-2.86-1.32-0.96-2.78-0.86-4.27-1.32-1.55-0.48-2.65-1.74-4.12-2.4-1.64-0.72-3.53-0.51-4.78-1.97-0.25-0.28-0.46-0.6-0.66-0.92-0.08-0.13-0.15-0.26-0.22-0.39-0.23-0.41-0.26-0.29 0-0.63 0.39-0.51 1.32-0.97 1.88-1.3 0.99-0.6 2.03-1.03 3.18-1.19 1.33-0.19 2.64-0.27 3.19-1.72 0.44-1.14-0.04-2.54-1.21-2.99-1.2-0.46-2.67-0.2-3.92-0.16-1.59 0.07-3.29 0.05-4.77-0.59-2.87-1.25-4.4-4.53-6.58-6.61-1.08-1.026-2.27-1.9-3.58-2.613-0.29-0.158-0.77-0.437-1.23-0.707-0.86-0.506-1.39-1.427-1.39-2.426v-3.798-0.032-0.246zm3.71 12.382c0.5-0.02 0.98 0.07 1.39 0.28 3.6 1.88 2.57 5.12 5.3 5.13 0.2 0.01 0.29 0.23 0.16 0.37-0.87 0.92-2.14 1.68-3.39 2.01-3.15 0.87-7.48-0.47-6.9-4.62 0.28-1.97 1.94-3.09 3.44-3.17zm-3.98 9.85h0.01 0.02 0.01c0.03 0.01 0.04 0.01 0.07 0.02s0.07 0.01 0.1 0.02c4.14 0.89 7.21 4.32 9.55 7.68 0.43 0.64 1.06 1.69 0.33 2.35-0.52 0.46-1.38 0.46-2.03 0.5-2.89 0.14-5.74 0.51-8.58 1.03v-1-10.12c0-0.07 0.02-0.14 0.05-0.2 0.02-0.06 0.05-0.09 0.09-0.13 0.01-0.01 0.01-0.02 0.02-0.02 0.05-0.05 0.1-0.08 0.16-0.1 0.05-0.02 0.11-0.03 0.16-0.02 0.01 0 0.03 0 0.04-0.01zm-8.27 23.49c0.36 0.04 0.68 0.33 0.68 0.76v16.75c0 0.51-0.64 0.73-0.96 0.33l-7.472-9.33c-0.294-0.36-0.264-0.9 0.07-1.25l7.052-7.04c0.19-0.19 0.42-0.25 0.63-0.22z" transform="matrix(.8 0 0 -.8 484.36 431.61)" fill="#840029"/></g></g></svg>
