<?xml version="1.0" encoding="UTF-8" standalone="no"?>
<svg xmlns:rdf="http://www.w3.org/1999/02/22-rdf-syntax-ns#" xmlns="http://www.w3.org/2000/svg" xml:space="preserve" height="75.118" viewBox="0 0 146.65087 75.1175" width="146.65" version="1.1" xmlns:cc="http://creativecommons.org/ns#" xmlns:dc="http://purl.org/dc/elements/1.1/"><g transform="matrix(1.25 0 0 -1.25 -545.45 589.93)"><g transform="translate(.82620 .68850)"><path d="m542.24 421.28v1.348c0 2.264-0.685 3.844-0.685 3.844v2.55c0 3.164 1.232 4.676 3.566 6.668l5.873 4.657h-12.559v10.143c4.012 0.966 8.229 5.579 8.229 10.106 0 5.129-3.579 7.54-4.339 7.764 0 0-1.31 1.98-3.958 1.98-3.449 0-4.048-3.143-4.144-3.903-0.811 0.351-1.713 0.556-2.699 0.589h-94.138c4.945-2.992 11.26-6.458 11.26-9.397v-0.986c-0.517-1.907-7.358-3.409-7.358-3.409 4.431-2.028 7.359-3.032 7.359-4.956v-1.276c0-3.143-5.661-6.285-9.861-9.145-1.749-1.395-2.458-3.477-2.432-5.748v-11.636c0-4.239 3.054-8.627 8.163-8.627h107.56c-5.95 3.998-9.834 6.651-9.834 9.434" fill="#d11c2e"/><path d="m128.67 3.3027c-3.78 0-3.1309 4.0312-3.1309 4.0312-0.87 0.73125-0.96289 2.4258-0.96289 2.4258-0.955-1.1212-2.4057-1.9108-4.627-1.9883l-6.207-0.00195v2.8555c-1.6488-1.91-3.9047-2.9336-6.5547-2.9336h-97.67c5.3512 3.525 8.9258 5.5347 8.9258 8.8047v1.8164c0 2.8938-3.4548 3.6301-6.7773 4.5488 3.7012 1.4638 6.7852 2.3949 6.7852 5.5449v1.8066c0 4.2038-3.2075 5.9909-6.8125 8.5859h19.389v-2.8516c0.89375 1.76 2.5643 2.8516 4.5918 2.8516h17.205s0.47375-2.8808 0.5-3.0508h0.73242c0.0275 0.17375 0.50781 3.0508 0.50781 3.0508h12.988l-0.375-1.8262c1.2362 1.1475 2.8547 1.8262 4.6797 1.8262h42.031v-2.1523c0.0162 0.03125 1.0215 2.1523 1.0215 2.1523h11.494v-14.623s0.26321 0.06445 0.47071 0.06445c4.64 0 9.8848-5.544 9.8848-11.24 0-5.695-4.3809-7.5156-4.3809-7.5156s-1.424-2.1816-3.709-2.1816zm-117.41 37.736c-2.2425 0-4.275 0.80648-5.7188 2.2715-1.4588 1.4738-2.2423 3.5083-2.2148 5.7383v14.572c0 4.19 2.9677 8.5254 7.9414 8.5254h24.512s0.49078-2.8733 0.51953-3.0508h0.74024c0.03 0.17125 0.51172 3.0508 0.51172 3.0508h19.141c3.1638 0 6.0252-1.9746 7.2227-4.6309 1.3188 2.8512 4.0282 4.6309 7.4395 4.6309h6.6953c2.2988 0 4.5068-0.89859 6.0605-2.4648 0.26625-0.27375 0.50602-0.56469 0.72852-0.86719v3.332h12.658v-1.9727c0.01125 0.02 0.99414 1.9727 0.99414 1.9727h40.984c-6.9888-4.4825-8.0684-5.888-8.0684-9.6543v-1.6035c-0.0187-2.54-0.76782-4.7643-2.0078-6.5293h1.1524v-4.3496s-0.0874-1.5948 1.1738-3.0586c1.2625-1.4625 3.5404-3.8402 6.2754-5.9102l-33.947-0.002c-1.8312 0-3.4366 0.63711-4.6328 1.8496-0.50875 0.5125-0.89625 1.1375-1.2188 1.8125-0.295-0.58875-1.8438-3.6621-1.8438-3.6621h-15.199c-2.0188 0-4.2797 0.63922-5.7734 2.9492v-2.9492h-64.125z" transform="matrix(.8 0 0 -.8 435.5 471.37)" fill="#0a0203"/><path d="m15.002 9.4941s5.252 2.7151 5.252 7.1738v2.2324c0 3.2662-3.8555 4.1797-3.8555 4.1797s3.8555 1.6001 3.8555 4.3301v3.2129c0 3.215-1.1613 4.3045-1.1738 4.3145l-2.2402 2.0566h12.385v-8.9023h1.4727c0.1575 0.04 0.71226 0.2482 0.82226 1.4395 0.0062 0.08375 0.66406 4.1152 0.66406 4.1152 0.2625 2.0225 1.6157 3.3477 3.4395 3.3477h5.7383l-1.377-9.2988c-0.06375-1.5387-0.81477-2.7859-2.041-3.6797 1.0112-0.795 1.9767-2.0201 2.043-3.9551 0 0-0.01687-5.0709-0.01563-5.2246 0-1.19-0.50867-2.4363-1.4199-3.3926-1.197-1.263-2.996-1.9539-5.052-1.9489h-18.498zm26.07 0 3.5645 2.166c2.045 1.24 1.428 4.2916 1.418 4.3203 0.005-0.01-0.89844 3.9551-0.89844 3.9551-0.575 2.2038-2.0678 3.0307-2.1328 3.0645l-1.7012 0.91211 1.6055 1.0996c0.12 0.08 1.1924 0.85359 0.91992 2.4023l-1.7676 9.5801h9.2168s0.35641-2.1463 0.50391-3.0488h3.7852c0.15 0.9025 0.51172 3.0488 0.51172 3.0488h9.25l-4.2266-20.709c-0.91-4.505-3.5741-6.791-7.9141-6.791h-12.135zm19.334 0 3.9434 2.1875c1.485 0.8275 2.1484 2.5583 2.1484 5.6133v2.7188c0.015 1.5562-1.1937 2.0274-1.3262 2.0762l-2.3828 0.83984 2.1719 1.2773c0.015 0.0087 1.5521 0.9407 1.5371 2.1582v4.5312c0 3.0312 1.8395 6.0977 5.3633 6.0977h8.8047c3.595-0.03 5.9844-2.9783 5.9531-7.332v-9.377h-10.262v7.0762h1.6738v1.5645c0 0.25625-0.05227 0.37719-0.07227 0.39844-0.02375 0.0175-0.13336 0.06164-0.38086 0.05664l-1.7734-0.002c-0.15875 0.005-0.22258-0.02039-0.23633-0.02539-0.01875-0.02125-0.09-0.14852-0.09375-0.44727v-11.836h2.4707c0.105 0 0.17086 0.0088 0.22461 0.01563 0.01 0.09 0.01758 0.18055 0.01758 0.31055l-0.01758 1.7012 8.1367-0.0059v-3.2852c0-4.2025-2.3969-6.2675-7.3281-6.3125h-18.572zm23.898 0l3.946 2.1879c1.7075 0.9525 2.101 3.157 2.0723 4.1895l-0.002 4.1426c-0.02375 1.32-1.1191 2.0677-1.1641 2.0977l-1.4238 0.94922 1.3984 0.99414c0.04875 0.03125 1.1907 0.85094 1.1895 2.4297v4.1387c0 3.16-2.0137 4.4688-2.0137 4.4688l-2.8281 1.9023h13.705 0.03711 12.873v-8.3691c1.7138 3.6225 3.9629 8.3691 3.9629 8.3691h8.5469v-19.738c0.0112-2.9925 0.0264-7.5191-4.7148-7.6816h-4.3398v8.1426c-0.99125-2.0512-1.9863-4.1172-1.9863-4.1172-1.3275-2.6888-3.5273-4.1055-6.3711-4.1055h-9.9766l3.8164 2.1816c1.43 0.8175 2.0909 2.1596 2.0859 4.2246v4.084c-0.007 1.4562-1.1562 2.3009-1.2012 2.3359l-1.2988 0.92969 1.2812 0.9668c0.0138 0.01 1.2212 0.92375 1.2188 2.3438v4.0625c-0.007 0.9375-0.25664 2.758-1.9004 4.373l-1.9961 1.9609v-22.098c0-2.6362 0.000078-5.3652-5.3262-5.3652h-9.5898zm-55.156 7.7715h1.9297s0.07263 0.0087 0.14258 0.01758c0.01 0.10625 0.01758 0.22852 0.01758 0.22852s0.0039 2.5912 0.0039 2.7012h-2.0938v-2.9473zm24.543 5.293c0.31125 1.87 0.51047 3.0591 0.63672 3.8203h-1.2715c0.1275-0.76125 0.32476-1.9503 0.63476-3.8203zm-42.427 20.283c-1.785 0-3.3163 0.59812-4.4375 1.7344-1.115 1.1275-1.7173 2.7099-1.6973 4.4512v14.594c0 3.3025 2.2976 6.7207 6.1426 6.7207h22.99s0.36633-2.1444 0.51758-3.0469h3.7949c0.15 0.9025 0.50586 3.0469 0.50586 3.0469h9.2383l-0.67969-3.3105c0.805 1.755 2.1994 3.3105 4.4219 3.3105h4.6348c3.4412 0 6.0176-2.9092 6.0176-5.5117 0-0.0075 0.0078-4.9219 0.0078-4.9219 0-1.015 1.217-2.1374 1.6445-2.4512l0.47656-0.34961v6.4395c0.06125 3.285 2.1269 6.7949 6.5156 6.7949h6.6953c1.82 0 3.5648-0.70469 4.7773-1.9297 1.075-1.0888 1.6641-2.4934 1.6641-3.9609 0-0.02 0.0059-4.543 0.0059-4.543 0.0037-1.015 1.2234-2.1374 1.6484-2.4512l0.49805-0.36523v13.25h9.0527v-7.7402c1.69 3.35 3.9082 7.7402 3.9082 7.7402h11.094l-1.5586-1.9062c-0.88-1.0725-1.0041-2.7812-1.0078-4.4688v-3.6309c-0.005-1.535 1.3268-2.8652 1.3418-2.8789l0.85352-0.8418-0.86328-0.83789c-0.0138-0.015-1.3308-1.2968-1.332-2.873l-0.004-3.8984c-0.0162-1.8112 0.0722-3.2566 1.2734-4.0078l3.459-2.1562h-8.8066c-1.3388 0-2.4996 0.4532-3.3496 1.3145-1.015 1.0275-1.5508 2.569-1.5508 4.459v1.9805c-1.69-3.355-3.9062-7.7539-3.9062-7.7539h-3.8535c-4.805 0.165-4.77 4.9245-4.75 7.7695v5.3008l-0.53125-0.36133c-0.4175-0.2875-1.6074-1.3088-1.6074-2.2188l-0.0039-3.543c0-0.16-0.0076-0.34414-0.01758-0.52539h0.0078l0.0039-0.08008h-0.0039v-0.01758c0-0.89625 0.25516-3.3687 1.4414-4.2012l3.0391-2.123h-7.8125c-5.4338 0-5.5605 5.6498-5.6055 7.7773v11.693c-0.0025 0.2-0.01891 0.32281-0.03516 0.41406h-1.9043c-0.01-0.08625-0.0275-0.18914-0.03125-0.36914v-19.516h-4.0195c-1.1738 0-2.2227 0.43305-3.0352 1.248-1.115 1.1212-1.7032 2.9008-1.6895 5.1445v6.6641l-0.50781-0.34766c-0.41625-0.2875-1.6113-1.3088-1.6113-2.2188l-0.002-3.543c0-0.16-0.0045-0.34469-0.01953-0.52344h0.01172v-0.07617h-0.0039v-0.05078c0-0.90875 0.24445-3.3321 1.4082-4.1934l2.8164-2.1035h-7.5508c-5.4412 0-5.5624 5.6498-5.6074 7.7773v9.998c-0.02 1.9788-0.05383 1.9785-0.83008 1.9785h-6.2168l-0.5-2.4297c-0.28375-1.6075 1.3719-2.8144 1.3906-2.8281l1.9922-1.4355-2.3789-0.64258c-0.0775-0.02-1.7675-0.50195-2.3125-2.5645-0.025-0.14375-0.5957-3.3242-0.5957-3.3242-0.02125-0.12625-0.50938-3.1771 2.1094-4.2871l5.252-2.2422h-14.518c-4.4338 0-6.8764 2.087-7.9102 6.7695-0.0063 0.01375-2.4836 12.095-3.6523 17.805-0.86875-1.05-0.87438-1.832-0.85938-2.832l0.002-5.8223h-8.7031v3.9648h-1.1543c-0.555-0.0012-0.69406-0.10172-0.69531-0.10547-0.015-0.02-0.14875-0.20297-0.125-1.1992v-9.6309c0-1.09 0.14063-1.3448 0.17188-1.3848 0.01625-0.01 0.12789-0.06 0.52539-0.0625h1.2773v2.9473h8.3926v-4.3418c-0.02125-1.1225 0.39367-2.1359 2.5762-4.0684l2.3086-2.0391h-18.059zm106.36 0c-2.48-0.04-4.4159 0.60195-5.7422 1.9082-1.195 1.1788-1.8264 2.8673-1.8164 4.8848v2.1172c-0.005 2.25 0.77515 4.2226 2.2539 5.7051 1.5575 1.5538 3.7438 2.4079 6.1562 2.4004h1.6562c0.30875-0.0025 0.45008 0.06 0.48633 0.09375 0.0337 0.035 0.0898 0.16867 0.0898 0.45117v1.2344c0 0.71-0.0798 0.89891-0.10351 0.94141-0.0138 0.0075-0.13 0.07047-0.53125 0.07422h-0.87891v-2.4512h-8.627v4.7266c-0.0162 1.5588 0.49219 2.9445 1.4297 3.8945 1.0025 1.01 2.4279 1.5195 4.2441 1.5195h17.762l-2.4902-2.0625c-0.57125-0.4775-1.9062-1.8315-1.9062-4.1465v-3.2461c-0.0288-3.5662-1.9121-7.1201-5.4434-8.3301h4.5898v-2.6055c0-3.1238 2.1455-4.9444 4.4043-7.1094h-15.533z" transform="matrix(.8 0 0 -.8 435.5 471.37)" fill="#ce181e"/><path d="m128.8 5.3398c-0.6125 0.03-1.0074 0.23375-1.2324 0.625-0.4075 1.0788 0.51976 1.6507 0.63476 1.9082-0.545 0.26625-1.1866 0.72039-1.4629 1.5566-0.16 0.49625-0.14742 1.0053 0.0176 1.5703-0.1225 0.86375-0.041 1.9008 0.42773 3.3008h0.004c0.004 0.01875 0.0113 0.03539 0.0176 0.05664 0.235 0.6925 0.78179 2.2125-1.2832 4.9688-1.3925 1.52-0.25281 4.1186 2.9922 2.3086 6.5038-3.3538 7.0963-9.9737 4.4863-12.889-0.205-0.3425-0.76359-1.4111-2.1836-1.4648-1.3825-1.9975-2.083-1.9527-2.418-1.9414zm-63.886 5.3202c2.3862 1.325 2.75 4.1853 2.75 6.6328v2.7227c0.025 2.4912-2.1191 3.1797-2.1191 3.1797s2.1441 1.2211 2.1191 3.1836v4.5176c0 2.4825 1.4378 4.9316 4.1953 4.9316h8.8066c2.8375-0.02625 4.8089-2.3427 4.7852-6.1602v-8.2129h-7.9297v4.7402h1.6758v2.7305c-0.0025 1.0062-0.47633 1.6423-1.6426 1.6211h-1.75c-1.115 0.02125-1.4848-0.77484-1.4961-1.6211v-13.021h3.6367c1.555-0.0062 1.4105 0.92578 1.4043 2.0195h5.791v-2.1172c0-2.1575-0.51242-5.0927-6.1699-5.1465h-14.057zm-46.35 0.002c2.8062 1.745 2.8555 5.3203 2.8555 5.3203v4.0742c-0.0575 2.3338-2.123 3.1113-2.123 3.1113s2.1018 0.98922 2.123 3.3242v4.1309c0 3.94-1.5879 5.2051-1.5879 5.2051h8.2305v-8.9023h2.7637s1.641 0.16695 1.8535 2.502l0.65625 4.0332c0.1925 1.4837 1.0434 2.3672 2.2871 2.3672h4.3867l-1.1914-8.084c-0.07875-1.9038-1.3595-3.1059-3.3008-3.6484 1.5512-0.70125 3.222-1.748 3.3008-4.0742l-0.01953-4.9512c0.11875-2.14-1.7662-4.4207-5.2949-4.4082h-14.939zm70.248 0c2.3238 1.2888 2.7088 4.1022 2.6738 5.2422v4.1094c-0.03375 2.015-1.6934 3.0762-1.6934 3.0762s1.6934 1.132 1.6934 3.3945v4.1406c-0.03375 2.65-1.2414 4.6019-2.4414 5.2031h9.0078v-20.969c0-2.69-0.0014-4.1973-4.1602-4.1973h-5.0801zm12.799 0c2.3275 1.33 2.6808 3.6222 2.6758 5.2422v4.0781c-0.0125 2.1238-1.7012 3.293-1.7012 3.293s1.7062 1.2171 1.7012 3.2871v4.0605c-0.0125 1.6912-0.6332 3.6113-2.252 5.2051h8.8887v-12.393l5.875 12.393h6.6348v-18.572c0.0138-3.3162-0.0483-6.3931-3.582-6.5156h-3.1367v12.078l-4.2031-8.7129c-1.3325-2.6938-3.3573-3.4434-5.3223-3.4434h-5.5781zm-56.367 0.002c2.805 1.7025 1.9531 5.5664 1.9531 5.5664l-0.901 3.962c-0.7325 2.8288-2.7305 3.8398-2.7305 3.8398s1.8552 1.1802 1.4277 3.584l-1.5098 8.2129h6.8223l0.50781-3.0508h5.7637l0.50977 3.0508h6.8301l-3.9375-19.311c-0.75125-3.7075-2.7302-5.8535-6.7715-5.8535h-7.9629zm8.4473 4.7715 2.0137 12.111h-4.0254l2.0117-12.111zm-25.708 0.662s1.808-0.01 3.1055 0c1.3 0.01375 1.2998 0.81266 1.3223 1.4102v2.7617s0.0063 1.1219-1.1074 1.1094c-1.115-0.0125-3.3203 0-3.3203 0v-5.2812zm-16.719 27.91c-3.1075 0-5.0005 2.1814-4.9668 5.0039v14.609c0 2.68 1.7896 5.5547 4.9746 5.5547h14.432c-2.4175-2.1238-2.1105-3.5388-2.123-5.0938v-4.1523h-6.3672v3.9648h-2.3203c-1.6612-0.0075-2.0333-0.69945-1.9883-2.502v-9.5469c-0.0075-2.1912 0.48766-2.6519 1.8477-2.6719h2.4609v2.9512h6.0547v-3.1758c-0.03125-1.6588 0.74945-2.9727 2.9707-4.9414h-14.975zm25.902 0c-4.1038 0-5.8977 1.9192-6.7715 5.8555l-3.9551 19.312h6.8379l0.52148-3.0488h5.7637l0.50586 3.0488h6.8203l-1.8047-8.7773c-0.42125-2.405 1.8594-4.0098 1.8594-4.0098s-2.425-0.58961-3.1562-3.4121l-0.61133-3.3984s-0.74102-4.0666 2.8027-5.5703h-8.8125zm22.217 0.002c-3.405 0-4.3596 2.6753-4.4434 6.6328v9.9746c-0.0175 1.9062-0.01789 3.1465-1.9941 3.1465h-5.0234s0.63492 5.4121 4.1387 5.4121h4.6348c2.6875 0 4.8496-2.2482 4.8496-4.3457l0.0078-4.9219c0.0012-1.855 2.125-3.3945 2.125-3.3945s-2.125-1.4316-2.125-3.1816c0 0 0.0047-5.0083-0.0078-4.082 0 0-0.09195-3.7752 1.873-5.2402h-4.0352zm10.182 0c-1.99 0-3.5733 1.6812-3.5508 5.2188v14.32c0.0475 2.8312 1.7332 5.627 5.3457 5.627h6.6934c2.97 0 5.3041-2.1595 5.2754-4.7695l0.0078-4.498c0.0062-1.855 2.125-3.3945 2.125-3.3945s-2.1191-1.4316-2.1191-3.1816c0 0 0.000078-5.0083-0.01367-4.082 0 0-0.0718-3.8327 1.9395-5.2402h-4.1055c-3.4012 0-4.3527 2.6753-4.4414 6.6328v11.67c-0.01375 1.4112-0.51648 1.5758-1.1465 1.582h-2.0723c-0.7175-0.0063-1.0533-0.30602-1.082-1.5098v-18.375h-2.8555zm21.83 0c-3.5338 0.12125-3.6045 3.4538-3.582 6.5938v18.572h6.7168v-11.477l5.7949 11.477h7.9141c-1.1675-1.425-1.2684-3.5131-1.2734-5.2031v-3.6387c-0.01-2.0688 1.6934-3.7129 1.6934-3.7129s-1.6884-1.5909-1.6934-3.7109v-3.6582c-0.01-1.62-0.12578-4.0272 1.8242-5.2422h-4.7344c-2.5862 0-3.7592 2.044-3.7305 4.709v6.791l-5.7949-11.5h-3.1348zm26.23 0c-4.5812-0.07375-6.4026 2.3847-6.3926 5.6172v2.125c-0.01 4.2638 3.2429 6.948 7.2441 6.9355h1.6582c0.98875-0.01 1.7652 0.43625 1.7402 1.7812v1.1152c0.009 1.4838-0.25563 2.2256-1.7969 2.2344h-2.0469v-2.4512h-6.2969v3.5605c-0.015 1.8362 0.81281 4.248 4.5078 4.248h14.525c-1.2812-1.065-2.3262-2.8292-2.3262-5.043v-3.2461c-0.0312-4.025-2.5289-7.6309-6.9102-7.6309h-1.9473c-1.2038-0.0125-1.7687-0.9075-1.7637-1.6875v-0.8125c0.0312-1.2212 0.40594-1.584 1.8359-1.584h2.2188v2.2168h5.7109v-2.6602c-0.025-1.3075 0.74875-3.3938 2.9688-4.7188h-12.93zm-80.945 4.7734 2.0137 12.109h-4.0254l2.0117-12.109z" transform="matrix(.8 0 0 -.8 435.5 471.37)" fill="#fff"/><path d="m538.18 454.77c-1.368-0.825-1.795-0.096-1.272 0.615 1.952 2.609 1.329 4.166 1.129 4.763-0.364 1.1-0.406 1.896-0.273 2.478-0.576 1.54 1.167 1.869 1.167 1.869 0.186 0.861-0.638 1.604-0.638 1.604s-0.092 0.16 0.347 0.183c0.448-0.012 1.423-1.551 1.423-1.551 0.804 0.101 1.266-0.353 1.533-0.855 0.437-0.348 0.696-0.874 0.856-1.452 0.818-4.435-2.975-6.853-4.272-7.654" fill="#ce181e"/><path d="m128.92 6.3613c-0.54875 0.0275-0.43164 0.22656-0.43164 0.22656s1.0306 0.92961 0.79688 2.0059c0 0-2.1802 0.41289-1.459 2.3379 0.1325 0.3475 0.34813 0.74172 0.70313 1.1992 0 0-0.32453-1.9441 0.98047-2.1328 0 0 0.94757 0.57906 1.1426 2.0703 0 0 0.88625-1.3966 0.21875-2.4453 0 0 1.105-0.64195 2.1875 1.1855 0 0-0.0721-0.75641-0.44336-1.4414-0.33125-0.625-0.91226-1.1946-1.916-1.0684 0 0-1.2193-1.9225-1.7793-1.9375zm3.2344 4.6426c1.0112 4.7525-3.6949 8.8998-3.7012 8.9023 4.5412-3.1975 4.7978-6.828 4.5078-7.6367 0 0-0.11164-0.95562-0.80664-1.2656zm-12.5 39.338c-0.40625 0-0.56102 0.02898-0.63477 0.05273-0.0162 0.065-0.0302 0.16453-0.0352 0.36328v0.82031c0 0.12125 0.0439 0.50656 0.59765 0.50781h1.127v-1.7441h-1.0547zm-82.975 5.5625c-0.31375 1.8725-0.50867 3.0585-0.63867 3.8223h1.2734c-0.12875-0.76375-0.32352-1.9498-0.63476-3.8223z" transform="matrix(.8 0 0 -.8 435.5 471.37)" fill="#0a0203"/></g></g></svg>
