<svg xmlns="http://www.w3.org/2000/svg" height="145.22" viewBox="0 0 250 145.22147" width="250"><g transform="matrix(1.25 0 0 -1.25 -734.45 656.03)"><g><path d="m51.201 0.82617v27.408h-11.836v15.821h1.668l-2.595 8.23h-14.987v4.033h-3.57v-12.25h2.928v-15.81h-21.928l-0.00014 15.81h2.9433v12.248h-2.9433l-0.00004 15.807 51.605-0.01v-10.224h3.293v10.224h20.086c0.685 1.759 0.998 3.756 0.998 5.91 0.013 3.853-1.015 8.013-2.076 11.141-0.539 1.571-1.067 2.863-1.473 3.752-0.344 0.769-1.283 2.674-1.283 2.674s0.553 3.397 3.908 8.19c-0.541 2.01-1.47 4.29-2.363 6.12-1.243 2.55-3.183 5.68-3.183 5.68l0.775 1.81c2.476 4.89 6.586 8.12 6.586 8.12s2.543-2.11 2.851-2.34c1.055-0.83 3.927-3.01 7.207-4.91 2.726-1.6 5.856-2.9 7.985-3.24 2.401 1.68 8.153 5.61 13.083 8.29 10.77 5.88 23.99 10.53 23.99 10.53s2.3-4.82 3.05-8.37c0.99 0.91 3.08 3.78 3.08 3.78l2.1-0.37c0.25 1.36-0.05 5.9-0.05 5.9s3.88-1 5.58-0.94c2.12 0.08 7.37 0.53 13.48 6.6l1.13 1.14 9.67-0.08v-6.03c1.14-0.64 2.9-1.45 5.15-2.02 3.57 1.62 6.69 3.81 8.94 5.68 2.11 1.77 4.99 4.92 4.99 4.92l1.85-0.09c5.85-0.26 10.22-2.78 12.84-5.31 3.36-3.21 5.73-8.3 5.73-8.3s-2.8-1.68-6.09-3.78c1.96-1.19 3.27-3.33 3.27-5.78 0-3.74-3.03-6.78-6.78-6.78-0.14 0-0.27 0.02-0.41 0.03 0.33-2.09 0.63-4.57 0.63-6.8 0-4.79-2.82-9.76-2.82-9.76h-8s-1.75 1.955-2.23 3.07h-1.69c-0.71 0-1.37 0.11-2.01 0.29 0.4-0.79 1.13-2.623 1.14-5.199 0.01-0.916-0.09-1.922-0.33-2.973 0.56-1.019 1.04-2.385 1.03-4.008 0-0.98-0.16-2.013-0.51-3.049v-13.484h40.97v-14.035h3.32v14.035h18.98v-15.809h-2.93v-12.25h2.93v-15.806h-18.98v14.011h-3.32v-14.011l-40.96-0.004-2.17 1.576v-1.576h-14.27v-27.432l-117.98 0.00017zm3.856 3.8515h110.27v23.558h-15.96v-5.81h-30.25v57.74h9.33v15.953h-37.612v-15.953h9.332v-57.74h-30.289l0.004 5.803h-14.828v-23.551zm19.328 21.578h21.941v50.084h-9.328v23.605h45.292v-23.605h-9.34v-50.084h21.94s2.73 6.308 2.73 14.963c0 12.594-3.76 20.758-6.35 27.336v3.549h40.5v14.199c1.55 3.803-0.98 5.584-0.98 5.584 1.79 4.231-0.04 7.41-0.04 7.41h-1.81c-2.32 0-4.21 2.513-4.21 5.573 0 3.08 1.89 5.57 4.21 5.57 1.67 0 3.12-1.27 3.8-3.13 0.53-1.51 1.77-2.91 3.55-2.91h4.4s0.28-1.76 1.34-3.06h3.99c2.54 4.24 0.07 15.01 0.07 15.01s-0.93 0.69-2.5 1.27c-3.84 1.39-4.26 2.55-4.26 2.55s6.28 5.97 15.99 11.66c0 0-4.06 7.86-13.64 8.31 0 0-6.21-7-15.23-10.71-5.92 1.14-9.38 3.95-9.38 3.95v4.28l-4.25 0.04c-9.22-9.2-17.76-7.62-17.76-7.62 0.05-1.32-0.45-3.8-1.39-5.57l-3.06 0.53c-4.82-6.14-9.89-8.48-9.89-8.48l-1.28 2.27s2.19 1.99 2.98 3.87c0 0-0.06 2.7-1.64 6.33 0 0-9.59-3.39-20.05-9.09-6.06-3.3-13.828-8.86-13.828-8.86-7.736 0-19.185 9.47-19.185 9.47s-1.593-1.27-2.998-4.63c0 0 4.423-7.2 5.39-13.25 0 0-2.973-2.861-3.986-6.649 0 0 9.121-17.845 1.67-28.451-7.519-10.689-3.408-14.898-3.408-14.898v-26.416zm-10.543 5.828h6.687v19.459c-0.172 0.328-0.337 0.713-0.496 1.135l-6.191-20.594zm-20.625 0.004h16.603l8.438 28.055h2.959v8.119h-11.586v-8.104l-0.58-2.119h-9.739l-0.675 2.113v8.11h-11.598v-8.11h2.955l6.297-19.949h-3.074v-8.115zm-38.485 0.021h14.225v8.108h-2.924v19.955h11.27v-4.033h7.681v12.136h-30.252l0.0004-8.103h2.9395v-19.955h-2.9395v-8.108zm144.62 0h30.26v12.139h-7.69v-4.031h-11.29v5.91h11.3v8.139h-11.3v5.906h11.29v-4.033h7.69v12.136h-30.26v-8.103h2.93v-19.955h-2.93v-8.108zm37.53 0h22.49v12.139h-7.66v-4.031h-9.89l-1.81 1.291v17.353l1.82 1.305h9.88v-4.027h7.66v12.146h-22.49l-5.22-3.756v-28.629l5.22-3.791zm24.56 0h11.29v14.018h11.02v-14.018h11.28v8.108h-2.93v19.955h2.93v8.103h-11.28v-14.035h-11.02v14.035h-11.29v-8.103h2.92v-19.955h-2.92v-8.108zm-157.17 10.231l-2.33 7.344h4.582l-2.197-7.344h-0.055zm139.59 1.728h3.99v0.18 3.852h12.66v4.185h-12.66v4.027h-3.99v-12.244z" transform="matrix(.8 0 0 -.8 587.56 524.82)" fill="#fff"/><path d="m74.383 26.254v26.416s-4.111 4.211 3.408 14.9c7.451 10.609-1.668 28.45-1.668 28.45 1.013 3.787 3.984 6.65 3.984 6.65-0.963 6.05-5.386 13.25-5.386 13.25 1.405 3.36 2.998 4.64 2.998 4.64s11.451-9.48 19.187-9.48c0 0 7.764 5.56 13.824 8.85 10.46 5.71 20.05 9.1 20.05 9.1 1.58-3.63 1.64-6.33 1.64-6.33-0.79-1.87-2.98-3.87-2.98-3.87l1.28-2.27s5.07 2.34 9.89 8.48l3.06-0.53c0.94 1.77 1.44 4.25 1.39 5.57 0 0 8.54-1.58 17.77 7.62l4.24-0.04v-4.29s3.46-2.8 9.38-3.94c9.02 3.71 15.23 10.71 15.23 10.71 9.58-0.45 13.63-8.31 13.63-8.31-9.7-5.69-15.98-11.66-15.98-11.66s0.42-1.16 4.26-2.55c1.57-0.57 2.5-1.27 2.5-1.27s2.47-10.77-0.07-15.01h-3.99c-1.06 1.3-1.34 3.06-1.34 3.06h-4.4c-1.78 0-3.03 1.41-3.55 2.91-0.68 1.86-2.13 3.13-3.8 3.13-2.32 0-4.21-2.49-4.21-5.57 0-3.06 1.89-5.575 4.21-5.575h1.81s1.84-3.175 0.04-7.406c0 0 2.53-1.785 0.98-5.588v-14.197h-40.51v-3.551c2.59-6.578 6.36-14.74 6.36-27.334 0-8.652-2.72-14.965-2.72-14.965h-21.95v50.088h9.34v23.605h-45.288v-23.605h9.326v-50.088h-21.945zm-31.164 5.832v8.115h3.072l-6.299 19.953h-2.955v8.11h11.602v-8.11l0.673-2.117h9.741l0.58 2.123v8.104h11.586v-8.123h-2.961l-8.438-28.055h-16.601zm-38.488 0.025v8.106h2.9433v19.955h-2.9433v8.103h30.254v-12.136h-7.681v4.033h-11.27v-19.955h2.924v-8.106h-14.226zm49.544 10.229h0.055l2.197 7.344h-4.582l2.33-7.344zm146.48 73.69c-2.66 0-4.75 2.09-4.75 4.74s2.11 4.74 4.76 4.74c2.67-0.01 4.78-2.1 4.78-4.75s-2.12-4.74-4.79-4.73zm0.01 0.72c2.19 0 4.05 1.76 4.05 4.01s-1.85 4.01-4.05 4.02c-2.17 0-4.04-1.75-4.04-4.01 0-2.25 1.86-4.02 4.04-4.02zm0.49 1.37h-2.25v5.23h0.72v-2.41h0.88l1.56 2.4h0.89l-1.59-2.4c0.93-0.03 1.65-0.41 1.65-1.43 0-1.13-0.92-1.39-1.86-1.39zm-1.53 0.74h1.39c0.56 0 1.27 0.09 1.27 0.63 0 0.83-1.14 0.72-1.78 0.72h-0.88v-1.35z" transform="matrix(.8 0 0 -.8 587.56 524.82)" fill="#003087"/><path d="m55.055 4.6797v23.55h14.828v-5.802h30.287v57.734h-9.33v15.957h37.62v-15.957h-9.34v-57.734h30.25l0.01 5.804h15.95v-23.552l-110.28-0.0003zm94.295 27.429v8.108h2.93v19.955h-2.93v8.103h30.25v-12.136h-7.68v4.033h-11.29v-5.906h11.3v-8.139h-11.3v-5.91h11.29v4.031h7.68v-12.139h-30.25zm37.53 0l-5.23 3.791v28.629l5.23 3.754h22.49v-12.146h-7.66v4.027h-9.88l-1.82-1.305v-17.347l1.81-1.295h9.89v4.029h7.66v-12.137h-22.49zm46.87 0.002v14.014h-11.02v-14.012h-11.29v8.104h2.93v19.953h-2.93v8.103h11.29v-14.031l11.02-0.004v14.035h11.28v-8.103h-2.92v-19.955h2.92v-8.104h-11.28z" transform="matrix(.8 0 0 -.8 587.56 524.82)" fill="#cb333b"/></g></g></svg>
