<?xml version="1.0" encoding="UTF-8" standalone="no"?>
<svg xmlns:rdf="http://www.w3.org/1999/02/22-rdf-syntax-ns#" xmlns="http://www.w3.org/2000/svg" xml:space="preserve" height="167.41" viewBox="0 0 252 167.40865" width="252" version="1.1" xmlns:cc="http://creativecommons.org/ns#" xmlns:dc="http://purl.org/dc/elements/1.1/"><g transform="matrix(1.25 0 0 -1.25 7.2991 377.08)"><g transform="matrix(2.4837 0 0 2.4837 -138.95 -346.02)"><path d="m15.639 7.5898v5.0508c2.9225 0 5.752 3.0729 5.752 6.2441v8.7344h27.613l-12.004-20.029h-21.361zm49.592 0-12 20.029h27.609v-8.7344c0-3.1712 2.8314-6.2441 5.7539-6.2441v-5.0508h-21.363zm-43.84 33.873v6.8086c0 3.0725-2.8307 7.4531-5.752 7.4531v5.957h25.375v-5.957c-2.83 0-5.7539-4.3806-5.7539-7.4531v-6.8086h-13.869zm18.254 0 11.473 18.889 11.469-18.889h-22.941zm27.326 0v6.8086c0 3.0725-2.9214 7.4531-5.7539 7.4531v5.957h25.377v-5.957c-2.9225 0-5.7539-4.3806-5.7539-7.4531v-6.8086h-13.869z" transform="matrix(.8 0 0 -.8 53.28 261.52)" fill="#00B140"/><path d="m133.22 228.35v11.075h-11.876v3.893c0 2.99-0.019 4.921 4.749 4.921v11.093h-22.752l-9.165-15.194-9.167 15.194h-22.752v-11.093c4.768 0 4.749-1.931 4.749-4.921v-3.893h-11.898v-11.075h11.898v-2.19c0-2.895 0.019-6.31-4.749-6.31v-11.383h27.387v5.132l3.085-5.132h2.893l3.085 5.132v-5.132h27.386v11.383c-4.768 0-4.749 3.415-4.749 6.31v2.19h11.876zm-68.845 21.811v6.801h19.312l10.489-17.459 10.487 17.459h19.315v-6.801c-3.014 0-4.692-2.127-4.692-4.842v-5.894h-1.332-22.088-3.38-22.091-1.331v5.894c0 2.715-1.678 4.842-4.689 4.842m23.131-39.43h-23.131v7.228c3.011 0 4.689 3.189 4.689 6.116v4.275h1.331 11.096 1.294v-4.275c0-3.112 1.854-6.116 4.721-6.116v-7.228zm6.67-0.432-10.889 18.051h1.712 18.353 1.712l-10.888-18.051zm29.802 7.66v-7.228h-23.134v7.228c2.867 0 4.721 3.004 4.721 6.116v4.275h1.295 11.094 1.332v-4.275c0-2.927 1.678-6.116 4.692-6.116" fill="#231f20"/><path d="m9.7109 1.2266v16.883h1.5059c1.9712 0 3.2523 0.27969 3.8086 0.83594 0.61625 0.615 0.61914 1.983 0.61914 3.7168v3.4492h-14.871v16.859h14.871v1.2695c0 2.1175-0.0042 4.2535-1.1055 5.3535-0.65375 0.65375-1.771 0.98438-3.3223 0.98438h-1.5059v17.246h37.25v-2.4863c0.41875 0.6975 1.4941 2.4863 1.4941 2.4863h5.3203s1.0768-1.7888 1.498-2.4863v2.4863h37.246v-17.246h-1.5078c-1.5488 0-2.6653-0.33062-3.3203-0.98438-1.1-1.0988-1.1055-3.2368-1.1055-5.3105v-1.3125h14.844v-16.859h-14.844v-3.4492c0-1.7338 0.0061-3.103 0.62109-3.7168 0.555-0.55625 1.8347-0.83594 3.8047-0.83594h1.5078v-16.883h-30.799s-8.5698 14.209-10.604 17.58c-2.033-3.372-10.606-17.58-10.606-17.58h-30.799zm1.5059 1.5078h28.441l11.459 18.992 11.455-18.992h28.439v13.865c-5.96 0-5.9336 2.4148-5.9336 6.1523v4.8672h14.844v13.844h-14.844v2.7363c0 3.62-0.02641 7.8887 5.9336 7.8887v14.227h-34.232v-6.4141l-3.8555 6.4141h-3.6172l-3.8535-6.4141v6.4141h-34.236v-14.227c5.9612 0 5.9375-4.2687 5.9375-7.8887v-2.7363h-14.871v-13.844h14.871v-4.8672c0-3.7375 0.02375-6.1523-5.9375-6.1523v-13.865zm2.6484 2.9629v8.5c3.7638 0 5.8613 2.6602 5.8613 6.0527v7.3691h1.6641v-8.7344c0-3.1712-2.8295-6.2441-5.752-6.2441v-5.0508h21.361l12.004 20.029h4.2246l12.002-20.029h21.363v5.0508c-2.9238 0-5.7539 3.0729-5.7539 6.2441v8.7344h1.6641v-7.3691c0-3.3925 2.099-6.0527 5.8652-6.0527v-8.5h-24.143l-13.108 21.824-13.111-21.824h-24.141zm44.002 23.938-0.64648 0.12891-0.51953 0.25977-0.38477 0.25781-0.26172 0.38867-0.9043 2.5859h-2.1992l1.293-2.7168h-3.4941l0.38867 0.25781 0.12891 0.26172 0.13086 0.25586-0.13086 0.38867-0.25781 0.90625-0.25977 0.64648h-2.9766l0.7793 0.38867 0.38672 0.51758 0.12891 0.51758v0.77539l1.0352-0.12891-0.25586 0.64844-0.51953 1.5527-0.25977 0.51562v0.39062l0.12891 0.38672h0.25976 0.39062l0.38477-0.12891 0.25977-0.39062 0.38672-0.51758 1.166-2.5859 2.459-0.25977-0.51953 1.8125-0.64648 1.6836-0.25781 0.64453v0.39062l0.22461 0.33789 0.0332 0.04883 0.38672 0.12891h0.25977l0.25977-0.12891 0.04687-0.04883 0.21289-0.21094 0.25781-0.51758 2.0684-4.2695 1.5547-0.12891-0.38867 0.64648-0.25781 0.51953v0.38672 0.25977l0.12891 0.25781 0.12891 0.25977 0.38867 0.51758 0.51758 0.12891h0.64648 2.5879 2.0684l0.77734-0.12891 0.64844-0.38867 0.38672-0.64648 0.38867-0.64648 1.8125-3.752h1.4219 0.25977l0.25586 0.12695 0.13086 0.38867-0.13086 0.12891-0.12891 0.25781-0.51758 0.25976-1.0352 0.13086-0.25586 0.38672-0.25977 0.51758-0.13086 0.38867 0.13086 0.51758 0.51562 0.77734 0.51953 0.64648 1.5508 1.0352 0.90625 0.51562 1.0371 0.38867 0.9043 0.25976h0.77539 0.38867v-0.12891l-0.12891-0.25781-1.5527-0.77734h2.0684l1.166-0.12891 1.0371-0.25977 1.0332-0.38867 0.77539-0.51758 0.64648-0.77539 0.38867-0.90625 0.13086-0.51758v-0.64844-0.51758l-0.13086-0.64648-0.25781-0.51758-0.38867-0.38476-0.25977-0.25977-0.38672-0.25977-0.90625-0.25781-1.1621-0.13086h-3.7539l0.51758 0.13086 0.25781 0.25781 0.13086 0.25977 0.12891 0.25977-0.12891 0.38476v0.26172l1.6816-0.13086 1.166 0.13086h0.51758l0.38672 0.25586 0.25781 0.25977 0.25976 0.25781 0.12891 0.64648v0.51953l-0.25781 0.64648-0.38867 0.51758-0.51758 0.38867-0.64844 0.25976-0.9043 0.12891h-1.0352l1.1641-2.7188h-0.9043-1.1641l-1.8125 3.623-0.90625-0.9043-0.77734-0.77734-0.12695-0.38867v-0.12891l0.12695-0.25977 0.12891-0.12891 0.9082-0.25781 0.51758-0.38867 0.38672-0.38867 0.13086-0.64648 0.12891-0.51562-0.12891-0.51953-0.25976-0.38672-0.25781-0.25977-0.25976-0.25781-0.38867-0.13086h-0.51758-3.623l-1.4219 3.1055-0.64648 1.1641-0.38867 0.64648-0.13086 0.25977-0.25781 0.13086-0.77344 0.12891h-2.459l-0.51953-0.12891v-0.25976l0.12891-0.38867 0.39062-0.77734 1.1641-0.12891 0.9043-0.25781 1.293-0.51953 0.25977-0.12695-0.38867-0.13086h-0.9043-1.9434l0.51953-1.1621h3.1055l0.77539-1.5547h-5.1758l-1.293 2.7168h-1.4238l1.2949-2.7168v-0.38672l-0.13086-0.25977-0.38672-0.12891-0.51758-0.12891zm-35.709 0.12695 0.51758 0.38867 0.12891 0.25976v0.12891h-0.12891l-0.90625 0.51758-0.64648 0.38867-1.0352 0.64648 2.9746-0.12891 3.4941-0.25977-0.51758 1.8125-0.51758 1.5527-1.2949 3.3633-0.25781 0.51758v0.51758l0.12891 0.25781 0.16211 0.08203 0.09766 0.04883 0.09766-0.04883 0.16211-0.08203 0.38672-0.12891 0.38867-0.38672 0.38867-0.64844 4.2676-6.8574 2.2012-0.25781 5.6934-1.6836h-15.785zm15.914 0.77734-1.2949 2.8477h-2.0703l0.90625-2.0723-2.3281 0.77734-0.64648 1.2949h-2.3301l0.64648 0.25976 0.51758 0.51562 0.51758 0.51758-0.64648 1.4238-0.77734 1.5527h2.0723l1.293-2.7188h2.0703l-1.2949 2.7188h2.0703l3.3652-7.1172h-2.0703zm3.2344 0.12891-1.166 2.3301-1.4219 2.8477-0.12891 0.64648v0.25781l0.12891 0.25977 0.25781 0.25781 0.25781 0.25977 0.51758 0.12891h0.51953 2.8457l0.25976-0.12891 0.38672-0.13086 0.51953-0.64648 0.51562-0.77539h-3.1055l-0.25781-0.12891-0.12891-0.13086-0.13086-0.12891v-0.38867l0.38867-0.64648 1.2949-0.12891 1.1641-0.25977 1.4238-0.90625h-3.4941l0.64648-1.1641h3.2363l0.9043-1.4238h-5.4336zm-21.58 10.795v5.3438c0 3.6588-2.0976 7.6445-5.8613 7.6445v9.0332h28.914v-9.0332c-3.5838 0-5.9004-3.7545-5.9004-7.6445v-5.3438h-1.6191v6.8086c0 3.0725 2.9239 7.4531 5.7539 7.4531v5.957h-25.375v-5.957c2.9212 0 5.752-4.3806 5.752-7.4531v-6.8086h-1.6641zm17.779 0 13.611 22.562 13.609-22.562h-2.1387l-11.471 18.889-11.471-18.889h-2.1406zm27.848 0v5.3438c0 3.89-2.3166 7.6445-5.9004 7.6445v9.0332h28.918v-9.0332c-3.7675 0-5.8672-3.9858-5.8672-7.6445v-5.3438h-1.6641v6.8086c0 3.0725 2.8314 7.4531 5.7539 7.4531v5.957h-25.377v-5.957c2.8325 0 5.7539-4.3806 5.7539-7.4531v-6.8086h-1.6172z" transform="matrix(.8 0 0 -.8 53.28 261.52)" fill="#fff"/></g></g></svg>
