<svg viewBox="0 0 248.99999 218.00001" width="249" height="218" xmlns="http://www.w3.org/2000/svg">
  <g id="g25326" transform="matrix(0.36872428,0,0,0.36872428,1.7228344,2.11943)">
    <path style="fill:#fff"
       d="M 280.51,579.6 V 499 l -33.82,60 -33.81,-60 v 80.6 H 19 V 444.89 H 46.75 V 265.58 H 19 V 129 h 14.52 c -1.3,-1.38 -2.62,-2.73 -3.94,-4.07 l -2.46,-2.47 C 17.89,113.18 7.41,102.68 2.71,87.7 A 62,62 0 0 1 8.62,38.16 c 10,-17.21 27.76,-29.74 50,-35.28 A 99.33,99.33 0 0 1 82.55,0 a 123.86,123.86 0 0 1 36,5.68 c 27.47,8.27 42.82,22 45.6,40.71 a 28.4,28.4 0 0 1 -5.74,22.22 c -7.77,9.9 -17,12 -23.47,12 -11.21,0 -21.5,-6.1 -30.58,-11.48 -4.63,-2.74 -9.87,-5.85 -12.89,-6.5 a 23.6,23.6 0 0 0 -5.05,-0.54 c -5.38,0 -10.14,1.73 -13.06,4.73 a 4,4 0 0 0 -1,1.35 4.39,4.39 0 0 0 0.63,1.56 17.32,17.32 0 0 0 4.42,4.79 c 5.46,4.32 11.1,8.32 17.07,12.56 8.87,6.3 18,12.82 26.6,20.47 a 99.82,99.82 0 0 1 18.4,21.62 h 16.31 l 3.9,6.91 c 27.36,-23.28 58.61,-48.34 92.8,-68.22 44.2,-25.7 85.59,-38.2 126.55,-38.2 a 198.72,198.72 0 0 1 26.7,1.81 c 22,3 40.72,9.23 57.19,19 0.25,0.15 0.78,0.42 1.46,0.78 a 133.34,133.34 0 0 1 13.8,8.15 C 496,61.89 513,68.14 528.93,74.59 a 19.69,19.69 0 0 0 7.49,1.56 18.07,18.07 0 0 0 3.56,-0.36 50.25,50.25 0 0 1 10.02,-1.2 h 1 c 10.22,0.28 17.57,6.1 20.17,16 a 32.7,32.7 0 0 1 -0.15,16.66 76.69,76.69 0 0 1 -3.49,10.12 c -1.15,2.77 -0.81,4.34 0.16,6.11 3.84,7 4.28,14.08 4.21,20.1 0,4.19 -0.2,8.73 -0.47,14.26 0,0.51 0,0.59 0.14,0.78 a 45,45 0 0 1 6.43,27.75 c 0,0.51 -0.1,1 -0.16,1.46 9,7.89 16,17.82 21.42,30.23 2.87,6.58 5.61,13.53 8.39,21.24 a 27.3,27.3 0 0 0 14.91,16.39 l 1.74,0.82 c 2.79,1.31 5.42,2.55 8.09,3.74 8.12,3.58 14.11,8.94 17.8,15.92 l 0.32,0.25 c 9.29,6.79 13.78,16.39 13,27.76 0,0.27 0,1 0,1.55 0.05,1 0.1,2.27 0,3.67 a 13.49,13.49 0 0 0 1.23,6.2 27.63,27.63 0 0 1 1.26,19.4 26.34,26.34 0 0 1 -2.34,5.41 29.55,29.55 0 0 1 -2.66,17.35 24.64,24.64 0 0 1 -18.6,13.79 22,22 0 0 1 -3.42,0.28 20.12,20.12 0 0 1 -3.2,-0.26 26,26 0 0 1 -17.36,6.68 28,28 0 0 1 -6.82,-0.86 42.12,42.12 0 0 1 -23.71,-15.28 30.78,30.78 0 0 1 -6.65,-17.48 c 0,-0.59 -0.09,-1.19 -0.15,-1.79 -0.07,-0.78 -0.15,-1.66 -0.2,-2.6 l -0.43,-0.33 c -2.79,-2.1 -5.42,-4.08 -8.09,-5.92 -8.33,-5.73 -14.42,-12.16 -18.62,-19.66 a 5,5 0 0 0 -2.14,-1.46 l -0.92,-0.42 c -1.17,-0.52 -2.38,-1.05 -3.66,-1.68 -10,-4.92 -17.82,-11.82 -23.13,-20.5 l -0.21,-0.33 a 35,35 0 0 1 -9.78,2.32 l -0.45,0.05 a 136.84,136.84 0 0 1 -15.14,1.08 c -1.84,0 -3.64,-0.07 -5.36,-0.21 a 57.35,57.35 0 0 1 -19.71,-5.11 q 1.33,1.19 2.61,2.52 a 23.22,23.22 0 0 1 4.49,6.48 16.92,16.92 0 0 1 1.32,4.49 c 0.32,0.3 0.62,0.61 0.91,0.94 a 15.18,15.18 0 0 1 3.51,12.21 33.73,33.73 0 0 1 -3,10 17,17 0 0 1 1.47,10.86 24.23,24.23 0 0 1 -5.62,11.43 c -0.71,0.84 -1.43,1.64 -2.16,2.39 a 18.14,18.14 0 0 1 -2,9.62 24,24 0 0 1 -5.75,7.39 c -0.94,0.84 -1.86,1.62 -2.76,2.38 a 27.88,27.88 0 0 1 -9,12.33 38.71,38.71 0 0 1 -10.57,6.21 v 57.6 h 27.73 V 579.6 Z" id="path21808" />
    <path id="path21810" style="fill:#8e908f" d="m 91.199219,14.75 a 88.72,88.72 0 0 0 -43.398438,7.689453 c -12.689987,5.629994 -22.41024,14.5597 -28.490234,27.179688 a 45.19,45.19 0 0 0 -4.25,27.300781 46,46 0 0 0 9.369141,21 148.4,148.4 0 0 0 14.259765,15.499998 c 4.449996,4.31 8.940317,8.65055 13.070313,13.31055 a 157.92,157.92 0 0 1 13.230468,17.34961 c 0.42,0.63 0.800391,0.20047 1.150391,0.73047 h 62.999995 c -2.37999,-5.46 -7.33969,-10.61993 -9.92968,-14.16993 a 117,117 0 0 0 -15.93164,-17.5 C 92.359308,103.21063 79.969676,95.159522 68.429688,86.019531 a 31.44,31.44 0 0 1 -8,-9 C 56.279692,69.789538 57.180475,62.640619 62.980469,56.640625 a 27.73,27.73 0 0 1 9.820312,-6.5 c 11.719989,-4.639995 23.080011,-3.41015 33.999999,2.589844 3.38,1.869998 6.56008,4.109221 9.83008,6.199219 a 61.15,61.15 0 0 0 9.36914,5 19.85,19.85 0 0 0 9.88086,1.65039 C 143.66085,64.740079 151.13031,58.28999 149.82031,48.5 a 22.52,22.52 0 0 0 -5.31054,-11.189453 44.51,44.51 0 0 0 -15.93946,-12 c -7.16999,-3.409997 -14.7611,-5.621252 -22.37109,-7.78125 A 75.52,75.52 0 0 0 91.199219,14.75 Z M 381.0293,46.109375 c -5.23,0 -10.62001,0.21086 -16,0.630859 a 217.56,217.56 0 0 0 -29,4.169922 c -18.19998,3.919996 -36.11885,10.510401 -54.79883,20.150391 -17.01998,8.779991 -34.61135,20.049234 -55.36133,35.449223 -5.55999,4.12999 -11.45899,8.23008 -17.70898,12.58007 -20.04998,13.93999 -40.75002,28.34947 -54,45.93946 19.67998,36.36996 84.21055,147.07142 93.31054,162.1914 0.55,-1.26 1.10922,-2.50976 1.69922,-3.75976 3.42,-7.26 7.21071,-14.32032 10.4707,-20.32032 4.56,-8.30999 9.88868,-18.01055 15.88868,-27.31054 a 50,50 0 0 1 3.95117,-5.5 3.15,3.15 0 0 1 2.42969,-1.2793 3.27,3.27 0 0 1 2.17968,0.92969 c 1.3,1.16 2.62094,2.23 4.21094,3.5 l 5.39844,4.32031 c 18.77998,15.01999 38.20127,30.5401 56.28125,47.08008 6.46999,5.91999 13.53915,11.41829 20.36914,16.73828 l 0.67969,0.52148 c 7.50999,5.82 15.41977,11.30032 23.50976,16.82032 a 146.7,146.7 0 0 0 12.79102,7.94922 92,92 0 0 0 9.65039,4.61914 c 2.87,-2.08 5.75,-4.11001 8.75,-6 a 25.51,25.51 0 0 1 8.08008,-16.67969 c 1.51,-1.38 3.21953,-2.61891 4.26953,-4.37891 a 14.94,14.94 0 0 0 1.35937,-3.50976 103.16,103.16 0 0 0 4.33985,-28.60156 c 0.01,-3.19 0.15101,-6.73032 -0.70899,-9.82032 -0.47,-1.82 -2.26,-3.07 -2,-5.25 a 4.42,4.42 0 0 1 0.14063,-0.51953 h -1.31055 a 6.2,6.2 0 0 1 -4.24023,-1.75976 5.08,5.08 0 0 1 -1.1211,-1.5293 c -5.05999,-0.87 -12.05859,-2.83118 -12.05859,-5.70117 v -24.47852 c 0.01,-7.81999 10.97977,-11.35156 20.25976,-12.35156 a 16.28,16.28 0 0 1 1.69922,-0.0898 c 8.27999,0 14.54985,6.58086 20.08985,12.38085 a 61.73,61.73 0 0 0 7.11132,6.75977 43.29,43.29 0 0 0 23.12891,8.83984 C 496.12953,278.94984 497.51,279 499,279 a 125.43,125.43 0 0 0 13.57031,-0.96094 l 0.45899,-0.0488 c 5.65999,-0.62 8.90164,-2.23031 11.18164,-5.57031 a 3.8,3.8 0 0 1 3.07812,-2 4.27,4.27 0 0 1 3.30078,2.15039 19,19 0 0 1 1.15039,1.87891 l 0.0898,0.16016 c 0.98,1.76999 2.09969,3.5207 3.17969,5.2207 0.62999,0.95 1.26109,1.94922 1.87109,2.94922 0.35,0.59 0.73914,1.14117 1.11914,1.70117 3.49,-1.41 6.95024,-2.92 10.49023,-4 A 9.94,9.94 0 0 1 554,276.76953 a 22.37,22.37 0 0 1 14.80078,1.16992 1.59,1.59 0 0 0 2,-2.19922 18.94,18.94 0 0 0 -2.82031,-3.87109 18.08,18.08 0 0 0 -6.23047,-4.50976 l -3.48047,-1.57032 0.14063,-0.23828 a 6.65,6.65 0 0 1 1,-1.37109 c 4.07999,-4.11 13.93945,-2.71883 18.93945,-1.29883 6.50999,1.9 11.81055,6.27844 13.81055,12.89844 1.50999,5.18999 1.27,10.74141 2,16.1914 0.73,5.45 2.78969,11.15001 7.42968,14 a 9.54,9.54 0 0 0 9.2793,0.20899 c 8.71999,-4.48 0.25055,-12.31891 3.31055,-17.87891 2.16,-3.92999 9.09063,-4.24086 12.89062,-2.88086 5.83,2.13 5.18008,7.61071 2.83008,12.2207 a 26.68,26.68 0 0 0 -2.63086,7.72852 4.57,4.57 0 0 0 1.20117,3.91016 c 4.45,4.18999 7.66923,-8.80024 11.44922,-9.74024 a 4.71,4.71 0 0 1 4,1 6.42,6.42 0 0 1 1.61914,-0.19922 5.5,5.5 0 0 1 4.36133,1.89063 c 0.14,-5.87 -2.21016,-10.5011 -7.16016,-14.12109 a 14.26,14.26 0 0 1 -4.42968,-4.91016 c -2.18,-4.27 -5.68001,-7.35899 -11,-9.70899 -2.86,-1.26999 -5.72977,-2.61968 -8.50977,-3.92968 l -1.62109,-0.77149 A 41.94,41.94 0 0 1 594.83984,244.25 c -2.63999,-7.42999 -5.26,-14.08915 -8,-20.36914 -5.05999,-11.63999 -11.72915,-20.5818 -20.36914,-27.3418 a 19.6,19.6 0 0 1 -1.61132,-1.42968 5.66,5.66 0 0 1 -1.35938,-6.66016 8.73,8.73 0 0 0 0.91016,-3.08984 c 0.55,-7.3 -0.86055,-13.54009 -4.31055,-19.08008 a 14.91,14.91 0 0 1 -1.91992,-4.62891 4.78,4.78 0 0 0 0.0801,0.85938 c 1.57999,7.32999 4.58007,13.86055 3.58007,21.56054 -0.84,6.58 -4.83984,12.25915 -7.83984,17.86914 a 31.27,31.27 0 0 0 -1.83984,3.89063 c -1.06,2.78 -1.37008,5.18055 -1.83008,9.06054 -0.74,5.87 -4.83001,10.77001 -9,15 a 81.52,81.52 0 0 1 -1.89063,-13.90039 c -1.5,3.03 -3.32859,6.33008 -6.55859,7.33008 l -2.16016,-7.80078 a 30.31,30.31 0 0 1 -5.46093,10.59961 16.06,16.06 0 0 0 -3.14063,4.70117 c -0.77,2.34 3.35164,6.94914 2.68164,8.11914 l 2.87891,-5 c 1.67,3 3.77101,4.67001 3.54101,8 0.09,-1.25 5.25914,-8.24906 5.61914,-7.78906 4.31,5.55 0.12945,16.09962 -2.56054,21.59961 -4.57,9.35999 -12.95994,18.25 -23.16992,21.25 -10.73999,3.14 -23.76845,1.19992 -32.89844,-5.33008 -10.68999,-7.65999 -18.01142,-19.12047 -28.94141,-26.48047 -11.34999,-7.62999 -26.06962,-10.43851 -39.34961,-11.22851 -4.74999,-0.28 -9.56985,-0.36008 -14.08984,-1.83008 -7.44999,-2.42 -13.52954,-8.01024 -17.76953,-14.49024 -4.76,-7.32999 -10.01977,-15.3 -11.75977,-24 -1.38,-6.91999 -0.6114,-14.44141 0.0586,-21.4414 0.96999,-10.03999 3.56969,-20.15993 9.17968,-28.66992 4.4,-6.69 10.84024,-13.28946 11.49024,-21.68946 0.19,-2.48999 -0.66868,-4.94008 -1.38868,-7.33007 -3.01999,-9.98999 -9.04084,-36.159847 8.61915,-35.339848 13.88998,0.639999 26.30093,12.819233 27.21093,26.699218 0.41,6.40999 -1.0407,12.39102 1.5293,18.54102 a 27.17,27.17 0 0 0 10.58984,12.24023 c 6.56,4.2 9.71,7.67962 7,15.84961 -1.12,3.36 -3.84961,3.49078 -6.84961,3.80078 -5.43999,0.55 -10.21078,4.29946 -12.80078,9.18945 -2.58999,4.89 -5.38898,15.05907 -0.70898,19.53907 3.31,3.17999 10.54016,3.93984 14.91015,4.58984 a 64,64 0 0 0 16.41016,0.3418 c 10.28999,-1.14 17.60899,-5.54102 26.70899,-9.54102 9.09999,-3.99999 18.30055,5.24055 27.56054,3.06055 0.79,-0.18 1.53055,-0.49117 2.31055,-0.70117 5.38999,-1.44 12.28852,1.55125 17.72852,2.28125 5.43999,0.73 11.12117,3.50984 16.70117,2.58984 13.09998,-2.18 -0.24148,-19.94032 6.22851,-26.82031 1.45,-1.56 3.52063,-2.62055 4.39063,-4.56055 0.67,-1.48 0.48992,-3.2193 0.91992,-4.7793 0.43,-1.55999 2.01953,-3.11046 3.51953,-2.48046 0.22,0.11 0.33992,0.88 0.41992,2 0.1,-2.74 0.19141,-5.22985 0.19141,-7.58985 0.05,-4.36999 -0.20969,-9 -2.42969,-13 a 20.57,20.57 0 0 1 -0.83984,-18.57031 L 555.69922,110 c -0.2,0.37 -0.38938,0.74938 -0.60938,1.10938 -4.12999,6.72999 -2.52968,11.63969 -0.67968,16.92968 1.36999,3.9 2.62031,10.86063 0.57031,14.64063 -1.76,3.22999 -5.61969,3.5207 -8.17969,5.7207 -2.07,1.78 -4.2111,6.93945 -7.87109,4.93945 -4.19,-2.30999 -3.87024,-7.74078 -4.49024,-11.80078 -0.86,-5.63999 -4.29945,-8.79914 -8.93945,-12.11914 -1.39,-0.99 -4.0593,-1.92969 -5.7793,-3.17969 a 4.52,4.52 0 0 1 -1.32031,-1.33984 c -2.78,-4.83999 3.69907,-7.79125 7.78906,-7.28125 7.85,0.99 15.8011,0.97016 23.1211,4.16016 -1.38,-5.64 -3.54087,-10.81884 -7.38086,-15.04883 -3.84,-4.23 -10.73008,-14.23047 -13.58008,-14.23047 l 10.31055,-0.720703 a 21.3,21.3 0 0 0 4.77929,-0.699219 c 1.73839,-0.527888 3.35578,-1.426087 5.13672,-1.753906 a 36.58,36.58 0 0 0 -4.97656,0.634766 33.18,33.18 0 0 1 -6.41016,0.638671 34.18,34.18 0 0 1 -12.90039,-2.61914 c -3.74999,-1.519999 -7.77836,-3.200862 -12.31836,-5.13086 -11.05999,-4.709995 -20.34165,-7.300391 -29.18164,-8.15039 a 51.37,51.37 0 0 1 -21.4082,-7.228516 c -6.89999,-4.019996 -14.68001,-8.580628 -23,-11.640625 a 160.48,160.48 0 0 0 -46.74024,-9.429687 c -3.48999,-0.19 -7.06133,-0.291016 -10.61132,-0.291016 z m 167.54687,43.216797 a 36.58,36.58 0 0 1 1.08594,-0.138672 c -0.19198,0.0034 -0.37718,-0.02985 -0.57227,-0.0078 -0.17969,0.01887 -0.33786,0.114123 -0.51367,0.146484 z m 1.08594,-0.138672 c 3.90187,-0.06938 7.13072,3.577589 7.99805,7.523438 a 8.45,8.45 0 0 1 0.18945,1.11914 23,23 0 0 1 -0.25977,6.560542 c 0.07,-0.24999 0.15094,-0.51 0.21094,-0.75 a 18.16,18.16 0 0 0 0.16992,-9.380854 c -0.98,-3.699997 -2.77109,-5.120704 -6.62109,-5.220704 h -0.5293 a 36.58,36.58 0 0 0 -1.1582,0.148438 z m -88.30664,31.08984 c 4.01999,0.27188 6.52266,2.73251 11.28515,4.5625 3.29,1.26 7.11884,0.5711 10.54883,1.3711 a 42.28,42.28 0 0 1 9.84961,3.91992 c 4.35,2.25 13.08164,6.5586 12.18164,12.55859 -0.76,4.85 -7.83977,7.29961 -11.75976,8.84961 -3.26,1.29 -6.9011,2.09063 -10.3711,1.14063 a 20.16,20.16 0 0 1 -8.27929,-4.19922 c -2.37,-2.09 -6.70001,-4.72961 -9,-6.84961 -4.95,-4.58 -7.25001,-2.90117 -13.25,-2.70117 -2.27,0.08 -4.7911,-0.41977 -6.1211,-2.25977 a 6.17,6.17 0 0 1 -1,-3.18945 10.77,10.77 0 0 1 0.0215,-1.84961 c 0.55,-5.78999 6.07852,-9.32102 11.22851,-10.79102 1.8175,-0.5 3.32602,-0.65312 4.66602,-0.5625 z m -45.45508,134.38477 a 3.71,3.71 0 0 1 2.03906,3.21875 c 0.06,0.32 0.0615,0.64875 0.0215,0.96875 -0.04,7.58666 -0.0842,15.17001 -0.13086,22.75 a 1.48,1.48 0 0 1 -0.33008,1.26953 3.46,3.46 0 0 1 -0.55078,-0.12891 c -4.81,-1.89999 -7.53852,-5.45117 -8.72852,-10.45117 -1.1,-4.62999 -1.30078,-9.07852 0.69922,-13.47851 a 8.1,8.1 0 0 1 3.17969,-3.8711 3.71,3.71 0 0 1 3.80078,-0.27734 z" />
    <path id="path21812" style="fill:#004991" d="m 81.814453,12.603516 c -6.690169,0.05279 -13.402741,0.837111 -20.115234,2.505859 -17.029983,4.229996 -33.199697,13.890875 -42.179688,29.380859 -6.849993,11.789989 -8.889058,26.359701 -4.789062,39.429688 4.099996,13.069987 14.390322,22.600868 23.820312,32.130858 5.999994,6.05333 11.712011,12.35993 17.138672,18.91992 1.909998,2.3 3.941096,4.43844 5.871094,6.64844 l -29.951172,-0.0488 V 253 H 59.349609 V 457.49023 H 31.609375 V 567 H 200.2793 V 457.49023 h -27.44922 v -55.17968 l 73.85937,131 73.86133,-131 v 55.17968 h -27.4414 V 567 H 461.76953 V 457.49023 H 434 v -80.33007 a 24.92,24.92 0 0 0 15.18945,-5.83008 15.27,15.27 0 0 0 5.39063,-7.57031 7.92,7.92 0 0 1 2.66992,-3.94922 c 1.12,-0.93 2.23055,-1.87008 3.31055,-2.83008 a 11.78,11.78 0 0 0 2.84961,-3.58008 c 1.71999,-3.47 0.57929,-5.61008 -3.22071,-6.08008 -0.24,0 -0.31015,-0.0994 -0.16015,-0.43945 0.38,-0.59 1.17054,-0.89156 1.81054,-1.35156 a 39.31,39.31 0 0 0 7.3711,-6.61914 11.92,11.92 0 0 0 2.83984,-5.5293 c 0.59,-3.35 -1.16992,-4.9 -4.41992,-4 -1,0.28 -2.0011,0.9993 -3.12109,0.5293 0,-0.73 0.68961,-1.00047 1.09961,-1.48047 a 37.43,37.43 0 0 0 5.87109,-8.84961 21.47,21.47 0 0 0 2.04883,-6.42969 c 0.28,-2.25 -0.74922,-3.22133 -2.94922,-2.86133 a 33.29,33.29 0 0 0 -5.35938,1.49024 17.48,17.48 0 0 1 -8.12109,0.71093 5.91,5.91 0 0 1 -3.51953,-1.52929 c 1.78,-0.79 3.42,-1.41071 5,-2.22071 a 18.72,18.72 0 0 1 6.41015,-2.05078 9.62,9.62 0 0 0 2.11915,-0.5 c 1.99999,-0.75 2.5907,-2 1.7207,-4 a 10.55,10.55 0 0 0 -2.11914,-2.92968 23.7,23.7 0 0 0 -22,-7.45899 c -3.41,0.52 -8.76141,1.49914 -10.69141,-2.38086 v -31.68945 c 0.8,-3.16 2.90024,-4.44 8.24024,-4.75 H 444 c 11.05999,0.54 17.99962,12.63875 25.84961,18.46875 a 45.43,45.43 0 0 0 24.08984,9.16992 c 6.25,0.49 12.40985,-0.20891 18.58985,-0.87891 4.99999,-0.55 9.44047,-1.88938 12.48047,-6.35937 1.16999,-1.71 2.19015,-1.50101 3.41015,0.20898 a 18.42,18.42 0 0 1 1.13086,1.85938 c 1.56,2.83 3.40008,5.49024 5.08008,8.24023 4.37,7.12 10.53946,12.14149 17.93945,15.77149 1.38,0.67 2.78946,1.2782 4.18946,1.9082 a 16.4,16.4 0 0 1 8,6.81055 c 3.60999,6.42999 8.76953,11.29992 14.76953,15.41992 3.25999,2.25 6.41055,4.65 9.56054,7 a 10.71,10.71 0 0 1 4.39063,8.51953 c 0.06,1.62 0.26937,3.22008 0.35937,4.83008 a 18.3,18.3 0 0 0 4.05078,10.4414 29.7,29.7 0 0 0 16.8086,10.75 c 5.99999,1.52 11.46133,-0.62016 15.11133,-5.66015 0.43,-0.59 0.81851,-1.20102 1.22851,-1.79102 a 1.71,1.71 0 0 1 2.33008,-0.6289 A 14,14 0 0 1 635,358 a 7.15,7.15 0 0 0 5.31055,1.08008 12,12 0 0 0 9.33007,-6.89063 17.06,17.06 0 0 0 1.25,-11.55859 6.23,6.23 0 0 1 1,-5.27148 14.67,14.67 0 0 0 2,-4.09961 A 15,15 0 0 0 653.25,320.65039 26.37,26.37 0 0 1 651,308.86914 c 0.08,-1.85 -0.18078,-3.71836 -0.0508,-5.56836 0.49,-7.05999 -2.16938,-12.55094 -7.85938,-16.71094 a 12.55,12.55 0 0 1 -3.8789,-4.27929 c -2.61,-5.07 -6.80063,-8.29102 -11.89063,-10.54102 -3.39999,-1.5 -6.74961,-3.09969 -10.09961,-4.67969 a 40.09,40.09 0 0 1 -21.41015,-23.51953 c -2.48,-6.90999 -5.15008,-13.75047 -8.08008,-20.48047 -4.77,-10.99999 -11.39017,-20.59 -20.91016,-28 a 16.1,16.1 0 0 1 -1.45117,-1.28906 3.83,3.83 0 0 1 -1,-4.63086 10.85,10.85 0 0 0 1.06055,-3.69922 32.57,32.57 0 0 0 -4.58008,-20.16992 13.4,13.4 0 0 1 -2,-8 c 0.23,-4.59999 0.40094,-9.20078 0.46094,-13.80078 0.06,-4.79 -0.2804,-9.56086 -2.65039,-13.88086 a 18.69,18.69 0 0 1 -0.75977,-17 64.56,64.56 0 0 0 2.92969,-8.45898 A 20.06,20.06 0 0 0 559,93.779297 c -1.2,-4.519996 -3.67008,-6.450078 -8.33008,-6.580078 A 36.18,36.18 0 0 0 542.5,88.140625 31.2,31.2 0 0 1 524.24023,86.269531 c -15.89998,-6.449993 -33.35939,-12.840002 -50.85937,-14.75 -5.24,-4.369995 -15.10078,-9.179454 -16.80078,-10.189453 a 121.73,121.73 0 0 0 -24.49024,-11.060547 156.59,156.59 0 0 0 -28,-6.298828 C 307.57994,30.820716 224.66048,96.63045 156.31055,155.65039 l -7.83008,-13.89062 h -16.40039 c -4.49,-9.43999 -11.66985,-18.00032 -19.33985,-24.82032 C 99.270248,104.93947 83.740377,95.580379 69.650391,84.400391 A 29.53,29.53 0 0 1 62.119141,76 c -3.689997,-6.439994 -2.919995,-12.650005 2.25,-18 7.519992,-7.739992 19.550557,-10.000466 29.810547,-7.730469 15.999982,3.469997 38.919622,30.220996 54.349612,10.541016 a 16,16 0 0 0 3.20117,-12.589844 C 149.11047,30.630721 129.99998,22.289995 115,17.75 104.05626,14.462503 92.964735,12.515527 81.814453,12.603516 Z m 4.015625,7.015625 c 1.659998,0 3.330002,0.0907 5,0.220703 0.859999,0.07 1.72961,0.169531 2.59961,0.269531 A 1.43,1.43 0 0 1 94,21.320312 a 33.33,33.33 0 0 1 -5.839844,15 26.12,26.12 0 0 1 -3.519531,4 10.07,10.07 0 0 1 -4,2.449219 46.11,46.11 0 0 0 -7.541016,1.830078 l -1.240234,0.300782 c -1.189999,0.259999 -1.698672,-0.280939 -1.388672,-1.460938 a 17.06,17.06 0 0 1 3.849609,-6.910156 c 2.089998,-2.349998 4.209065,-4.660002 6.289063,-7 a 15.15,15.15 0 0 0 3.470703,-6.558594 13.36,13.36 0 0 1 0.75,-2 3.42,3.42 0 0 1 1,-1.351562 z m 20.910152,3.320312 a 125,125 0 0 1 19.62891,6.929688 53.05,53.05 0 0 1 6,3.351562 3,3 0 0 1 0.37109,1 c 0.44,2.159998 -5.07992,6.678596 -6.16992,8.558594 a 25.29,25.29 0 0 0 -3.48047,12.800781 c 0,0.32 -6.29016,-2.930002 -10.16015,-5 -1,-0.629999 -2,-1.240079 -3,-1.830078 -0.08,-0.13 -0.15953,-0.269922 -0.26953,-0.419922 a 11.29,11.29 0 0 1 2.91992,-2.130859 30.25,30.25 0 0 0 5.83984,-4.669922 c 2.27,-2.569998 3.50977,-5.41891 2.25977,-8.878906 -0.75,-2.109998 -1.99969,-2.581327 -3.92969,-1.361329 -1.08,0.69 -2.00055,1.591095 -3.06055,2.371094 A 10.19,10.19 0 0 1 106.73047,36 c -4.02,-0.25 -5.73008,-2.769848 -4.58008,-6.589844 a 21.44,21.44 0 0 1 2.15039,-4.599609 3.38,3.38 0 0 1 2.43945,-1.871094 z m -49.429683,1.621094 a 11.54,11.54 0 0 1 4.789062,0.09961 c 2.239998,0.64 3.179766,2.079612 2.759766,4.34961 a 14.42,14.42 0 0 1 -1.539063,4.050781 c -1.079998,2.069998 -2.25,4.098986 -3.25,6.208984 a 27.41,27.41 0 0 0 -2.541015,9.160157 c -1.939998,-1.85 -3.588596,-3.50055 -5.308594,-5.060548 C 46.770709,38.369146 40.530305,36.44094 33.070312,38.710938 l 0.04883,-0.220704 A 53.35,53.35 0 0 1 49.849609,27.050781 c 1.659999,-0.739999 3.340002,-1.420782 5,-2.050781 0.81,-0.18 1.630939,-0.329453 2.460938,-0.439453 z M 30.722656,56.34375 c 1.666405,0.157031 3.027656,1.291331 2.847656,3.736328 -0.1,1.369999 -0.150624,2.749142 -0.140624,4.119141 0,1.789998 0.849376,2.500156 2.609374,2.160156 a 25.1,25.1 0 0 0 3.490235,-1 50.77,50.77 0 0 1 6.070312,-1.558594 A 6.08,6.08 0 0 1 48,63.699219 a 1.88,1.88 0 0 1 1.640625,2.460937 5.89,5.89 0 0 1 -4.351563,4.720703 40.83,40.83 0 0 0 -9.089843,3.908203 30.64,30.64 0 0 0 -9.958985,9.03125 c -1.339998,1.999999 -2.320782,2.65 -3.300781,2 A 37.4,37.4 0 0 1 20,76.080078 39.1,39.1 0 0 1 19.830078,64.710938 c 0.1,-0.31 0.21961,-0.610157 0.34961,-0.910157 A 12.33,12.33 0 0 1 29,56.5 c 0.577499,-0.1525 1.167188,-0.208594 1.722656,-0.15625 z m 384.476564,1.546875 c 10.15999,-0.09 20.34063,3.258913 27.64062,9.628906 a 61.79,61.79 0 0 0 -7.76953,1.330078 c -6.36999,1.369999 -13.38008,3.000076 -18.33008,0.830079 a 84.26,84.26 0 0 0 -27.50976,-7.060547 l -1.05078,-0.06836 c 8.93999,-2.609997 17.50954,-4.550156 27.01953,-4.660156 z m -71.7461,3.921875 c 1.85955,0.08439 3.75852,0.273125 5.69727,0.578125 -4.47999,0.889999 -10.45953,3.838986 -13.26953,5.458984 -4.64,2.649998 -9.35,6.430864 -12,11.13086 2.73,-1.719999 15.87938,-4.060547 19.10937,-4.310547 9.18,-0.719999 19.78915,-1.379135 27.86915,3.880859 -10,3.069997 -22.50915,13.719618 -29.36915,21.599609 -8.91999,10.25999 -13.21039,24.06056 -15.15039,37.31055 8.39,-5.56 16.9997,-11.00188 26.42969,-14.67188 8.52999,-3.30999 18.31095,-5.2889 27.46094,-3.8789 -9.58999,5.63999 -17.61009,12.24032 -23.83008,21.57031 -10.44999,16.53998 -16.55999,40.37908 -9,59.28906 6.12999,15.34999 19.89056,26.61064 29.56055,39.64063 4.73999,6.37999 8.99992,13.50993 10.66992,21.41992 2.23,10.75999 0.13913,18.37899 -7.88086,25.70898 5.80999,5.33 19.04962,2.29047 28.59961,2.48047 -0.88,4 -2.84032,10.21047 -10.82031,11.48047 9.93999,7.94999 18.07,2.74086 24.75,1.38086 4.85999,-1.03 10.79055,-0.55125 14.56054,2.96875 v -0.0293 a 10.47,10.47 0 0 1 1.5293,1.76953 c 4.13,6 1.54156,14.49001 0.35156,21 -1.63,8.94999 -4.41055,17.85103 -9.81054,25.29102 -6.4,8.79999 -15.15102,6.5089 -20.54102,-1.87109 -8.76999,-13.61999 -2.27975,-26.48072 8.24024,-36.72071 -11.52999,-3.88999 -16.87001,7.6918 -22,3.5918 -2.78,-2.23 -8.34915,-10.59118 -10.36915,-18.45117 -10.81998,7.85999 -12.55054,21.09961 -10.31054,22.59961 -10.54999,-9.76999 -16.50968,-25.00026 -7.17969,-43.24024 -6.71999,-1.87 -21.0007,1.42103 -20.7207,13.79102 0.08,3.12999 0.91054,5.16016 1.31054,8.16015 -2.11999,-2.26999 -28.68031,-23.12007 -27.82031,-23.83007 10.14999,-8.37 18.76071,-8.37063 28.2207,-8.89063 a 124,124 0 0 1 -20.91992,-15.83984 c -9.70999,-9.34999 -11.76108,-26.1004 2.62891,-31.65039 -1.29,0.5 -0.61906,9.89125 -0.28906,11.28125 a 18,18 0 0 0 7.55078,10.42968 c 5.18999,3.56 11.17953,4.78891 16.51953,8.12891 a 46.72,46.72 0 0 1 17.12891,19 c 3.99999,-19.92998 -18.51916,-33.65908 -28.36915,-47.78906 -9.84999,-14.12999 -15.69937,-33.43971 -14.10937,-50.67969 0.18,-2.05 2.99914,-16.10031 4.11914,-16.32031 -9.14999,1.84 -14.79985,13.50048 -16.33984,21.73047 -0.25,1.36 -1.73953,9.87929 -0.76954,10.77929 -11.43998,-10.62999 -18.11973,-52.68011 8.49024,-90.080074 C 301.24088,104.42976 292.51,130.67947 290.75,143.43945 c -4,-4.74999 -4.2,-13.75969 -4,-19.42968 -14.89999,22.71997 -10.44062,59.11049 -4.39062,84.23046 1.41999,5.9 3.38,12.07001 8,16 a 26.65,26.65 0 0 1 9.4414,-19.40039 c -2.43,16.62999 -3.92014,38.06994 7.83984,51.66993 -31.25996,-12.36999 -44.29078,-47.78934 -46.30078,-83.5293 -5.31999,6.35999 -7.67914,26.95025 -5.86914,40.24023 1.64,11.99999 3.55915,19.99978 10.11914,35.75977 -10.56999,-8.73999 -18.85977,-18.99993 -27.50976,-22.91992 2.57,13.38998 5.52914,20.37024 7.36914,32.24023 2.14,13.82999 1.52992,29.46001 -2.58008,43 -0.41,-8.08999 -2.72985,-16.49079 -4.83984,-24.30078 -4.11,-15.27998 -7.20931,-29.57056 -12.2793,-44.56055 -6.39999,-18.93998 -11.21001,-32.34977 -18.5,-40.75976 -0.13,12.86998 -1.19914,25.77064 -1.86914,38.64062 -5.06,-12.86998 -11.76102,-27.63063 -13.79102,-31.64062 -5.99999,-11.87999 -12.99899,-21.7701 -25.20898,-37.83008 13.05999,0.24 22.46907,4.52048 34.53906,17.23047 -0.44,-12.70999 -4.42914,-20.79962 -7.61914,-25.09961 18.32998,0.07 32.4786,40.389 36.5586,59.70898 13.84998,-21.90997 12.66015,-61.91862 6.41015,-91.55859 12.56999,3.56 19.07,19.68923 21.5,32.19922 1.93,-1.74 2.94078,-4.23946 3.80078,-6.68946 5.94,-16.80998 8.2297,-33.73001 17.92969,-49.249995 7.28999,-11.659988 18.30954,-20.880006 30.51953,-27 9.32749,-4.698745 20.41675,-9.168886 33.43359,-8.578125 z m 118.82813,16.865234 c 9.86249,0.338438 19.6072,2.57391 28.92969,5.941407 a 9.38,9.38 0 0 1 4.19922,2.480468 c 1,1.269999 1.32015,3.330236 0.16015,4.490235 -1,0.999999 -2.49937,1 -3.85937,1 -9.16999,-0.17 -18.6604,0.309848 -26.90039,4.339844 -0.9,0.439999 -4.16086,2.559532 -2.88086,3.769532 0.65,0.61 2.82992,0.26023 3.66992,0.24023 1.82,0 3.62945,-0.17008 5.43945,-0.33007 3.55,-0.33 7.08087,-0.820005 10.63086,-1.000005 6.67,-0.42 13.76923,0.209848 19.19922,4.089845 a 2.9,2.9 0 0 1 1.19141,1.36133 c 0.57,1.77 -1.95055,2.83992 -3.81055,2.91992 -10.56999,0.48 -22.19938,-1.33953 -30.85938,4.73047 -0.67999,0.48 -1.41031,1.27 -1.07031,2 0.34,0.73 1.23,0.74851 2,0.72851 a 178.16,178.16 0 0 1 32.21875,2 c 1.67,0.26 3.86016,1.27016 3.41016,2.91016 -0.45,1.64 -2.72883,1.41945 -4.29883,0.93945 -1.57,-0.48 -3.91094,-0.51843 -4.21094,1.10156 a 2.46,2.46 0 0 0 0.61133,1.83985 c 2.22,3 6.40915,3.56867 10.11914,3.38867 3.71,-0.18 7.54001,-0.8889 11,0.37109 2.07,0.76 3.94039,2.19063 6.15039,2.39063 2.21,0.2 4.77992,-1.83133 3.91992,-3.86133 -1.08999,-2.55 -6.07937,-2 -6.35937,-4.75 -0.24,-2.38 3.25914,-2.89 5.61914,-2.5 2.96,0.5 5.93326,0.90117 8.91992,1.20117 1,0.1 2.26992,0.11906 2.91992,-0.71093 0.94,-1.22 -0.28078,-2.94008 -1.55078,-3.83008 -6.07999,-4.27 -14.16868,-3.99938 -21.13867,-6.60938 -1.1,-0.41 -2.39039,-1.25039 -2.15039,-2.40039 0.19,-1 1.34984,-1.37976 2.33984,-1.50976 5.68,-0.74 11.20946,1.75969 16.68946,3.42968 a 2.22,2.22 0 0 0 1.62109,0.0801 c 1.21,-0.59 0.52867,-2.43922 -0.36133,-3.44922 A 33.66,33.66 0 0 0 514.43945,94.580078 c -1.37,-0.24 -3.06937,-0.660001 -3.35937,-2 -0.29,-1.339999 1.29023,-2.58086 2.74023,-2.880859 7.62999,-1.609999 14.28001,7.18039 22,6.40039 3,-0.309999 5.72961,-2.079923 8.59961,-3.169921 2.87,-1.089999 6.52938,-1.320311 8.60938,0.929687 1.8,1.999998 1.70093,5.000315 1.21093,7.570315 -0.99999,5.49999 -3.23945,10.69008 -5.43945,15.83008 -2,-2.2 -1.17992,-5.70063 0.0801,-8.39063 1.26,-2.69 2.85984,-5.58899 2.08984,-8.45898 a 2.85,2.85 0 0 0 -1.64062,-2.060551 c -2,-0.689999 -3.36914,1.819531 -4.86914,3.269531 a 5.83,5.83 0 0 1 -6.47071,1 45.62,45.62 0 0 0 7.42969,18.5 c 2.94,4.26 6.76938,8.3104 7.35938,13.65039 a 13,13 0 0 0 -8.06836,-0.33984 c -1.26,0.34 -4.42047,3.00062 -5.48047,2.64062 a 1.45,1.45 0 0 1 -0.78125,-1.75976 c 0.46,-1.77 2.40063,-2.80125 3.89062,-3.53125 1.49,-0.73 3.59922,-2.33008 2.44922,-3.58008 a 2.17,2.17 0 0 0 -0.9082,-0.51953 c -5.14,-1.77 -11.38055,2.53 -11.56055,8 a 7,7 0 0 0 -2.67969,-2.34961 2.39,2.39 0 0 0 -3.08007,1 3.55,3.55 0 0 0 0.57031,2.84961 l 9.35937,17.87109 c 0.74,1.39 1.93071,2.99945 3.47071,2.68945 a 3.66,3.66 0 0 0 1.76953,-1.25 l 5.75,-6.13085 a 4.22,4.22 0 0 1 2,-1.41993 c 1.68,-0.42 3.18891,1.36008 3.37891,3.08008 0.18999,1.72 -0.47876,3.41086 -0.71876,5.13086 -0.99999,7.42999 5.6386,13.65001 7.3086,21 2.15,9.37999 -4.14985,18.41001 -10.08984,26 -1.08,1.37 -2.9986,2.85875 -4.3086,1.71875 -0.89,-0.77 -0.68047,-2.1993 -0.23047,-3.2793 1.25,-2.99999 3.74047,-5.35891 5.48047,-8.1289 a 18.9,18.9 0 0 0 -0.89062,-20.8418 3.22,3.22 0 0 0 -1.08985,-1 c -1.86,-0.89 -3.43054,1.91141 -3.06054,3.94141 0.37,2.02999 1.49031,4.18 0.57031,6 -1.21,2.39999 -4.68102,2.10875 -7.29102,1.46875 L 532.75,182.59961 a 29.18,29.18 0 0 0 -9.15039,-1.25 c -3.09,0.24 -6.25008,1.64102 -7.83008,4.29101 -1.58,2.65 -0.99859,6.62844 1.69141,8.14844 2.68999,1.52 6.83867,-0.80914 6.38867,-3.86914 2.51,0 5.83086,0.84938 5.88086,3.35938 0,1.74 -1.71109,3.15062 -1.62109,4.89062 0.12999,2.78 4.61031,3.86063 4.57031,6.64063 0,2.19999 -2.77922,3.11968 -4.94922,3.42968 -13.11999,1.9 -26.25374,3.68915 -39.40039,5.36915 a 7.17,7.17 0 0 1 -3.54102,-0.13868 2.46,2.46 0 0 1 -1.6289,-2.82031 A 67.08,67.08 0 0 0 504,208.21094 c 1.77,-0.48 3.90047,-2.50188 2.48047,-3.67188 a 2.66,2.66 0 0 0 -2.30078,-0.1582 63.51,63.51 0 0 1 -24.25977,0.87891 c -1.49,-0.23 -3.1,-0.58954 -4,-1.76954 -0.9,-1.17999 -0.64015,-3.36968 0.83985,-3.67968 a 3.6,3.6 0 0 1 2.08007,0.46875 33.79,33.79 0 0 0 26.08008,0.38086 c 1.59,-0.65 3.37922,-2.49024 2.19922,-3.74024 -0.71,-0.75 -1.93969,-0.48922 -2.92969,-0.19922 -8.90999,2.59 -19.19899,2.58867 -26.70898,-2.86132 -1,-0.73 -2.00055,-1.80001 -1.81055,-3 a 2.52,2.52 0 0 1 2.79102,-1.71876 8.65,8.65 0 0 1 3.29883,1.36915 31.12,31.12 0 0 0 22.7207,2.93945 c 1.34,-0.34 2.99922,-1.38992 2.44922,-2.66992 -0.43,-1 -1.85,-0.99946 -3,-0.93946 A 32.69,32.69 0 0 1 483,184.57031 a 2.94,2.94 0 0 1 -1,-0.95117 c -0.69,-1.27 0.87055,-2.78922 2.31055,-2.69922 1.44,0.09 2.62859,1.08969 3.80859,1.92969 A 20.7,20.7 0 0 0 504,186.33008 c 1.05,-0.2 2.82977,-1.09992 3.25977,-2.16992 0.91999,-2.32 -2.48907,-1.53969 -3.78907,-1.67969 a 16.19,16.19 0 0 1 -11,-6.08008 c -1,-1.32 -1.85976,-2.84 -3.25976,-3.75 -3,-2 -7.00079,-0.26015 -10.30078,1.33984 -7.82,3.83 -16.29001,6.84914 -25,6.61915 -8.71,-0.23 -17.66938,-4.19947 -22.10938,-11.68946 -1.58,-2.66 -2.22007,-6.71984 0.41992,-8.33984 2.81,-1.72 6.12016,1.00031 8.66016,3.07031 a 27.87,27.87 0 0 0 8.7793,4.84961 8.88,8.88 0 0 0 6,0.32031 c 1.89999,-0.75 3.27937,-3.08992 2.35937,-4.91992 a 6.43,6.43 0 0 0 -2.32031,-2.16016 31.38,31.38 0 0 1 -6.35938,-5.75976 c -1.26999,-1.51 -2.27039,-4.05969 -0.65039,-5.17969 1.62,-1.12 3.61016,0.65867 4.91016,2.13867 a 28.79,28.79 0 0 0 12.73047,8.42969 c 1.48,0.48 3.39031,0.7107 4.32031,-0.5293 0.93,-1.24 0.30031,-2.73968 -0.67969,-3.67968 a 15.6,15.6 0 0 0 -3.5,-2.08985 c -2.35999,-1.31 -6.12999,-7.60086 -1,-6.88086 3.94,0.55 7.00001,4.81024 11,5.74024 2.6,0.61 5.93024,-0.40883 7.74024,2.20117 1.16,1.66 -0.21094,2.49883 2.53906,2.04883 4,-0.65 7.61,-5.29945 12,-2.93946 1.84,1 3.79024,3.25 5.49023,2 0.82,-0.58 0.99993,-1.68961 1.41993,-2.59961 0.82,-1.73999 2.65062,-2.74078 4.39062,-3.55078 1.74,-0.81 3.62977,-1.60015 4.75977,-3.16015 1.13,-1.56 1.07914,-4.15 -0.63086,-5 -1.32,-0.7 -3.13024,-0.17016 -4.24024,-1.16016 -0.88,-0.79 -0.87937,-2.12906 -1.10937,-3.28906 -0.71,-3.54 -4.00079,-5.86055 -7.05078,-7.81055 -5.58,-3.57999 -11.50892,-7.28023 -18.12891,-7.49023 -4.06,-0.13 -8.21024,1.15 -12.24023,0.25 -0.82,-0.18 -1.35047,-0.45985 -1.23047,0.66015 a 4.13,4.13 0 0 0 1.06054,2 8.49,8.49 0 0 0 3.74024,2.51954 c 2.51,0.87999 5.21031,0.87054 7.82031,1.31054 a 22.67,22.67 0 0 1 15.42969,10.61914 1.85,1.85 0 0 1 0.36914,1.41016 c -0.23,0.75 -1.21,0.92133 -2,0.86133 -4.16,-0.36 -7.44946,-3.49102 -10.93945,-5.79102 A 31.17,31.17 0 0 0 456,134.83984 c -2.17,1 -5.00039,2.16063 -6.65039,0.39063 a 4.45,4.45 0 0 1 -0.91016,-2.94141 c -0.22,-6.99999 4.36009,-13.23899 9.08008,-18.45898 a 3.33,3.33 0 0 0 1.2207,-2.59961 c -0.33,-1.85 -3.04929,-1.69141 -4.77929,-0.94141 a 47.53,47.53 0 0 0 -17.42188,13 c -1.09,1.29 -2.89922,2.76164 -4.19922,1.68164 -0.8,-0.67 -0.74,-1.89992 -0.5,-2.91992 1.21,-5.23999 5.11079,-9.45985 9.30078,-12.83984 3.33,-2.69 6.93845,-5.00086 10.14844,-7.88086 1,-0.89 3.46086,-2.710471 0.88086,-3.230471 a 7.47,7.47 0 0 0 -4.10937,0.78125 92.88,92.88 0 0 0 -18.28125,10.789061 c -0.67,0.51 -1.99914,1.22969 -2.86914,0.92969 -2.23,-0.75 2.99961,-6.73914 3.84961,-7.61914 a 46.6,46.6 0 0 1 11,-8.140626 A 124.07,124.07 0 0 1 460.81055,86 c -7.7,-2.729997 -16.1315,-2.000546 -24.27149,-1.310547 3.37,-3.139997 9.63141,-4.998829 14.19141,-5.548828 0.55,-0.07 1.11016,-0.140625 1.66015,-0.140625 3.3025,-0.3375 6.60313,-0.435078 9.89063,-0.322266 z M 51.589844,81.605469 c 4.840932,-0.396758 8.963203,3.642035 9.470703,7.894531 0.32,2.839997 1.079609,5.999455 0.599609,8.189453 -0.479999,2.189998 -1.999848,3.270307 -6.089844,2.570317 a 22.66,22.66 0 0 0 -8.169921,0.21093 10,10 0 0 0 -3.720703,1.67969 c -3.079997,2.09 -6.910315,4.15023 -8.820313,-0.50977 C 33.859376,99.180627 34.770314,95.199998 36.070312,93 A 25,25 0 0 1 49.480469,82.060547 c 0.712499,-0.25 1.417813,-0.398399 2.109375,-0.455078 z m 346.769536,0.125 a 19,19 0 0 1 1.82031,0.759765 20,20 0 0 1 5.08984,3.660157 c 2.77,2.699997 5.51977,5.430159 8.25977,8.160156 a 6.18,6.18 0 0 1 1.85156,6.388673 A 3.53,3.53 0 0 1 411.25,103.57031 9.71,9.71 0 0 1 404.60938,100 c -1,-1.169999 -1.86008,-2.439142 -2.83008,-3.619141 -0.97,-1.179998 -2.35001,-2.631015 -4.25,-2.291015 -2.07,0.369999 -2.94985,2.000861 -3.58985,3.880859 a 10,10 0 0 0 -0.25,4.539067 32.45,32.45 0 0 0 4.53125,12.90039 c 1,1.72999 2,3.48023 3,5.24023 0.38,0.69 0.9286,1.43047 0.3086,2.23047 a 2.15,2.15 0 0 1 -2.22852,0.58984 12.41,12.41 0 0 1 -3.29101,-1 59,59 0 0 1 -4.78907,-3.87109 c -0.36,-0.32 -0.66,-0.67 -1,-1 a 19.71,19.71 0 0 1 -1.28125,-1.75977 l -0.0996,-0.17968 a 23.76,23.76 0 0 1 -1.50976,-3 c -2.86,-6.97 -4.26078,-14.080558 -3.05078,-21.560551 a 19.07,19.07 0 0 1 0.55078,-2.349609 9.9,9.9 0 0 1 6.25,-6.859375 17,17 0 0 1 7.2793,-0.160156 z M 71.445312,96.154297 c 0.644844,-0.128437 1.334923,-0.126875 2.044922,0.01563 3.379997,2.489997 6.760082,4.899993 10.080078,7.250003 l 3.759766,2.67969 a 9.5,9.5 0 0 1 0.619141,0.80078 5.33,5.33 0 0 1 -2.378907,1.26953 40.17,40.17 0 0 0 -20,16.76953 c -2.449997,3.93 -3.78055,4.06102 -7.060546,0.79102 -1.869999,-1.88 -4.130627,-3.38086 -5.640625,-5.63086 a 6,6 0 0 1 -1.330079,-3.79883 c 0.21,-2.49 2.180784,-3.93156 4.800782,-3.60156 1.359998,0.17 2.710548,0.41086 4.060547,0.63086 2.999997,0.5 5.17,-0.85915 6,-3.86914 a 12.7,12.7 0 0 0 0.529297,-4.06055 19.28,19.28 0 0 1 0.560546,-4.80078 c 0.4875,-2.497503 2.020549,-4.060006 3.955078,-4.445318 z M 414.71094,108.73047 a 60.42,60.42 0 0 0 0.38867,6.54883 38.3,38.3 0 0 0 3.28125,12.33984 26.08,26.08 0 0 0 7.42969,9.41992 c 2.58999,2.06 5.19969,4.1 7.92968,6 a 9.3,9.3 0 0 1 4.32032,6.43164 c 0.28,1.91 -0.25961,3.09868 -2.09961,4.38868 -0.52,-0.61 -0.34071,-1.3786 -0.47071,-2.0586 a 4,4 0 0 0 -4.68945,-3.51172 8.82,8.82 0 0 0 -3.20117,1.06055 22,22 0 0 0 -6.75,5.42969 37.38,37.38 0 0 0 -8.61914,20.41992 48.93,48.93 0 0 0 3.91015,25.07031 18.26,18.26 0 0 0 2.75977,4.73047 c 0.5,0.61 0.99992,1.44922 1.91992,1.19922 0.92,-0.25 1.00008,-1.17 1.08008,-2 0.28,-2.08 0.59891,-4.14852 0.87891,-6.22852 a 5.52,5.52 0 0 1 0.77148,-2.28125 c 0.68,-1.07 1.5493,-1.08 2.2793,0 a 5,5 0 0 1 0.75,1.75977 c 0.86,4.51999 2.92023,8.51992 5.24023,12.41992 0.9,1.53 1.81,3.05055 2.75,4.56055 a 10.53,10.53 0 0 0 1.28907,1.75 c 1.34999,1.4 2.13156,1.21062 2.60156,-0.60938 0.25,-0.94 0.34859,-1.90961 0.55859,-2.84961 A 26.37,26.37 0 0 1 449.5,196.93945 a 17.33,17.33 0 0 1 11.89062,-3.24023 c 2.74,0.18 3.66875,2.00031 2.21876,4.32031 a 25.49,25.49 0 0 1 -3,3.48047 21.73,21.73 0 0 0 -6,11.66016 c -0.56,3.73999 0.53992,6.65031 3.66992,8.82031 a 53.56,53.56 0 0 1 7.05078,5.88867 39,39 0 0 1 8.89062,13.43164 53,53 0 0 0 3,6.61914 14.92,14.92 0 0 0 4.21875,4.91992 7.42,7.42 0 0 0 7.33008,1.1211 48.56,48.56 0 0 1 15.41016,-2.80078 131.84,131.84 0 0 1 21.75976,0.75 17.57,17.57 0 0 1 6,1.75976 c 1.06,0.56 1.18977,1.0793 0.25977,1.7793 v -0.0488 c -3.85,2.93 -6.63868,6.78024 -9.63867,10.49023 a 19.87,19.87 0 0 1 -16.34961,7.5586 105.64,105.64 0 0 1 -19.51172,-1.66992 22,22 0 0 1 -15.06836,-10 c -1.39,-2.18 -2.87133,-4.30016 -4.36133,-6.41016 -9.20999,-13.16999 -29.99962,-13.61822 -38.09961,-26.4082 -2.36,-3.74 -5.46063,-7.00001 -7.39062,-11 A 3.53,3.53 0 0 0 421,217 a 1.8,1.8 0 0 0 -2,-0.53906 c -3.72,1.32 1.35938,14.16984 2.10938,16.58984 -3.18,-0.83 -6.95001,-5.54 -9,-8 a 49.17,49.17 0 0 1 -6.54883,-10.37109 c -3.48,-7.27 -5.3304,-14.9997 -6.65039,-22.92969 0,-0.24 -8e-5,-0.4807 -0.0801,-0.7207 -0.18,-0.92 -0.0703,-2.14907 -1.32031,-2.28907 -1.25,-0.14 -1.5404,1.0604 -1.90039,1.90039 a 42.17,42.17 0 0 0 -3.0703,11.66993 A 115.07,115.07 0 0 0 392.35938,226 v 1 a 1,1 0 0 1 -0.29883,0 l -1,-0.58984 a 3.63,3.63 0 0 0 -0.27149,-0.2793 c -9.88999,-8.66999 -15.85,-19.77001 -20,-32 -2.54999,-7.46999 -2.33828,-15.08001 -1.73828,-22.75 0.19,-2.37 0.49844,-4.72 0.89844,-7 0.64,-2.74 1.18101,-5.41141 1.79101,-7.69141 0.19,-0.62 0.34883,-1.23961 0.54883,-1.84961 2.4,-7.10999 6.56063,-13.09 11.64063,-18.5 1.27,-1.35999 2.55992,-2.68922 3.91992,-3.94922 a 3.73,3.73 0 0 1 0.91016,-0.64062 c 0.92999,-0.46 1.64929,-4.7e-4 2.27929,1.26953 a 18.71,18.71 0 0 1 0.65039,1.82031 28.09,28.09 0 0 0 2.48047,5.50977 9.35,9.35 0 0 0 8.68946,4.74023 22.17,22.17 0 0 0 11.40039,-3.58984 c 1.93999,-1.24 2.23999,-2.41977 1.25,-4.50977 a 10.88,10.88 0 0 0 -1.22071,-2.08984 c -3.52999,-4.54999 -4.25945,-9.80985 -3.93945,-15.33984 0.18,-3 1.47985,-8.6904 4.08984,-10.65039 z M 97.035156,124.75 c 1.358124,0.0517 2.744064,0.25836 4.164064,0.63086 a 29,29 0 0 1 10.41992,5.13867 c 2.29,1.78 4.75,3.31032 6,6.07031 0.46,1 0.36,1.50977 0,1.75977 -1.13,0.7 -4.62984,-0.73008 -5.58984,-0.83008 a 69.55,69.55 0 0 0 -13.830081,-0.33984 c -6.449994,0.74 -13.999069,2.81968 -20.289063,0.42969 -5.909994,-2.24 5.329768,-8.27032 7.509766,-9.57032 3.719996,-2.22 7.540863,-3.44422 11.615234,-3.28906 z m 450.583984,13.13867 c 2.12578,0.15844 3.69422,1.81594 3.01172,4.71094 v 0.041 a 8.16,8.16 0 0 1 -1.37109,3.09961 12.28,12.28 0 0 1 -1.33985,1.47071 c -0.12,0.11 -1.39992,0.99976 -1.41992,0.50976 a 20.53,20.53 0 0 0 -0.92969,-6.79101 c -0.52,-1.35 -1.86117,-2.07946 -0.20117,-2.68946 0.77,-0.29 1.54141,-0.40437 2.25,-0.35156 z m -71.60937,0.70117 c 0.94999,-0.06 1.48992,0.21079 1.41992,1.30078 a 71.37,71.37 0 0 0 0.0508,8.72852 l -0.0195,0.041 a 23.88,23.88 0 0 1 -8,-5.17969 1.33,1.33 0 0 1 0.14844,-2.23047 11,11 0 0 1 6.40039,-2.66016 z m 62.24414,3.66407 c 0.19406,0.007 0.3889,0.0969 0.5664,0.29687 a 4.46,4.46 0 0 1 0.71875,1.83984 7.36,7.36 0 0 0 0.8418,1.74024 10.73,10.73 0 0 0 2,2.2793 2.21,2.21 0 0 1 0.50976,0.55078 c 0.54,0.88 -1.15984,1.51953 -1.83984,1.51953 v 0.0391 a 4.45,4.45 0 0 1 -3.21094,-1.54883 4.8,4.8 0 0 1 -1,-3.18164 8.43,8.43 0 0 1 0.0899,-2.18945 c 0.1575,-0.6525 0.74203,-1.3668 1.32422,-1.3457 z m -51.53125,0.40234 a 0.29,0.29 0 0 1 0.26757,0.0234 17.93,17.93 0 0 1 4.18946,4.30078 1.84,1.84 0 0 1 -0.42969,2.75976 6.1,6.1 0 0 1 -3.58984,1.40039 11.69,11.69 0 0 1 -4.75977,-0.55859 14,14 0 0 0 4.15039,-7.72265 0.29,0.29 0 0 1 0.17188,-0.20313 z m -100.26954,0.73633 c -0.57624,-0.0825 -1.21218,0.31297 -1.99218,1.16797 a 11.9,11.9 0 0 0 -1.93164,3.05859 63.55,63.55 0 0 0 -5.66992,27.54102 c 0.07,7.96999 0.98008,20.55047 6.58007,26.73046 a 74.29,74.29 0 0 1 3.41016,-17 38.41,38.41 0 0 1 3.46094,-8.16992 c 1.38,-2.38999 3.26031,-5.59992 5.57031,-7.16992 0.44,3.63 1.22883,9.08829 4.04883,11.73828 0.6,0.56 1.27101,0.47094 1.54101,-0.28906 a 9.42,9.42 0 0 0 0.41016,-2.36914 c 0.99,-10.91999 7.19876,-19.34181 13.46875,-28.0918 0.65,-0.86 1.22109,-1.88961 0.37109,-2.84961 -0.85,-0.96 -1.79039,-0.69039 -2.90039,-0.15039 -1.11,0.54 -2.10937,1.20157 -3.10937,1.85156 -3.57,2.27 -7.7618,4.6086 -12.0918,4.8086 -6.53999,0.3 -7.14906,-4.40938 -9.53906,-9.10938 -0.535,-1.055 -1.05071,-1.61476 -1.62696,-1.69726 z M 44.429688,154.49023 H 140.89062 L 246.68945,342.10938 285.08008,274 a 1.94,1.94 0 0 1 0.16992,0.41992 l 7.13086,6 L 246.68945,361.4707 135.32031,163.92969 H 53.869141 v 66.85937 h 27.740234 v 249 H 53.869141 l 0.08008,65 H 178 v -65 H 150.57031 V 318.57031 l 96.11914,170.51953 94.58008,-167.78906 1.55078,1.2793 V 479.75 h -27.45117 v 65 h 124.07031 l 0.0703,-65 H 411.7793 V 372.36914 a 86.59,86.59 0 0 0 9.4414,3 v 95 L 449,470.31055 v 83.86914 H 305.92969 v -83.86914 h 27.45117 V 354.58008 L 246.68945,508.32031 160,354.58008 v 115.73047 h 27.44922 v 83.86914 H 44.390625 V 470.31055 H 72.169922 V 240.16016 H 44.429688 Z m 451.531252,13.95899 a 1.12,1.12 0 0 0 0.16992,1 c 2.39,4.42999 6.34883,6.75016 11.04883,7.91016 a 10.65,10.65 0 0 0 4.80078,0.10156 2.09,2.09 0 0 0 1.58984,-3.1211 3,3 0 0 0 -2.33984,-1.89062 8.08,8.08 0 0 0 -3.82031,0.23047 8,8 0 0 1 -4.75977,-0.17969 11.21,11.21 0 0 1 -3.68945,-2.25 c -0.91,-0.72 -1.68,-1.73078 -3,-1.80078 z m 35.21875,44.39062 c 2.13,0.02 4.24937,0.15961 6.35937,0.34961 v 0.01 a 18.52,18.52 0 0 1 -1.18945,4.55078 10.55,10.55 0 0 1 -2.66992,3.63086 c -0.2,0.17 -0.53047,0.3282 -0.73047,0.1582 a 0.45,0.45 0 0 1 -0.11914,-0.25 c -0.1,-0.41 -1.45039,-6.83922 -1.65039,-8.44922 z m -1.86914,0.041 a 15.85,15.85 0 0 1 -0.80078,3.33984 c -0.1,0.23 -3.31016,7.1793 -4.16016,5.7793 -1.36,-2.31 -1.44055,-6.05961 -1.31055,-8.84961 l 1.56055,-0.12109 c 1.56666,-0.0867 3.13761,-0.13511 4.71094,-0.14844 z m -8.3711,0.44922 a 18.48,18.48 0 0 1 -2.05859,6.93945 c -0.22,0.45 -1.70039,3.76047 -2.40039,2.48047 -0.06,-0.11 -0.11992,-0.21031 -0.16992,-0.32031 a 21.6,21.6 0 0 1 -2.15039,-8.0293 l -0.0195,0.0391 a 2.06,2.06 0 0 1 0,-0.25976 c 2.26,-0.34 4.52884,-0.62961 6.79883,-0.84961 z m 18.75,0.43945 A 36.43,36.43 0 0 1 547.30078,215 c 1.42,0.44 -0.67031,4.94016 -2.07031,8.16016 v 0.0391 c -0.65,1.49 -2.61,4.10023 -4,4.74023 0,-0.16 -0.0598,-0.31875 -0.0898,-0.46875 -0.77999,-4.51999 -0.44117,-9.22117 -1.45117,-13.70117 z m -28.22851,0.86133 h 1.16992 c -1.56,0 -2.53149,12.8393 -3.52148,14.2793 -3.90872,-1.90451 -6.63978,-7.07896 -7.35938,-11.46094 0,-10e-4 0,-0.003 0,-0.004 -8.2e-4,-0.2487 -0.0797,-0.49562 -0.0996,-0.73437 a 0.48,0.48 0 0 1 0,-0.29102 c 3.26,-0.64 6.53055,-1.25906 9.81055,-1.78906 z m -34.32032,4.26953 a 3.28,3.28 0 0 1 1.83008,0.57031 c 3.68,2.34 6.54891,3.09985 10.87891,2.08985 5.41999,-1.26 14.06945,1.99985 13.43945,9.08984 a 1.76,1.76 0 0 1 -0.81836,1.5293 c -1,0.42 -1.46,-0.99899 -2,-2.70899 -4.03999,-13.58998 -11.00984,8.11961 -12.83984,7.09961 v 0.0391 a 40.56,40.56 0 0 1 -5.28125,-4.7793 c -1.3,-1.26 -13.59898,-13.15969 -5.20899,-12.92969 z m 74.91602,1.81641 a 0.67,0.67 0 0 1 0.48242,0.83398 c -2,5.85 -5.25976,18.00001 -1.75976,23 2.35999,-11.99999 15.06071,-25.6103 29.7207,-19.07031 a 32.17,32.17 0 0 0 -17.81055,15.40039 c 1.25,-2.54 28.94045,-0.68147 11.23047,11.47852 5.16,1.48999 11.56946,4.00015 16.18946,-0.0898 0.37999,4.35 -3.40891,8.4911 -3.87891,12.87109 -1,9.78 7.6304,18.73892 15.15039,23.62891 -1.11,-5.26999 -1.6,-14 4,-17 5.59999,-3 14.78852,0.62141 18.47852,5.19141 -3.39,1.36 -5.99923,1.11938 -10.44922,4.35937 -3,2.23 -3.7111,5.54899 -3.1211,9.20899 0.59,3.65999 2.25188,6.41977 1.67188,10.25976 -0.45,3 -2.3,5.25086 -1,8.13086 1.09,2.51 3.94851,1.99938 2.22851,5.60938 -1.52,3.15999 -5.75984,4.72023 -7.33984,8.24023 -3.51,7.88999 2.86047,14.36009 5.48047,21.33008 2.09,5.58999 0.1396,4.81047 -4.40039,3.73047 a 14.38,14.38 0 0 0 -1.58008,-0.32031 v -0.0488 c -3.67,-0.46 -2.29984,1.99977 -1.83984,6.50976 -7.1,-1.62 -4.51,-11.66063 -3,-16.14062 2.27999,-6.99999 -1.9004,-10.88032 -7.40039,-14.82031 -4.28,-3.06 -10.08868,-5.2204 -12.13868,-10.40039 -2.25999,-5.71 -0.41156,-11.94001 1.89844,-17.25 -8.91999,-0.29 -24.26875,0.45014 -27.71875,-10.83985 -3.15,-10.15999 12.8493,-5.70953 17.2793,-3.51953 -0.38,-13.64999 -17.18947,-16.39016 -27.18946,-15.66016 1.32,-6.63999 11.09032,-7.75054 16.57032,-8.06054 a 34.87,34.87 0 0 0 -23,-8.50977 c 0.88,-2.54 4.24015,-14.1893 -2.08985,-16.7793 -2.35999,-0.99999 -3.8607,4.92062 -5.2207,-0.10937 -1,-3.64 4.85039,-5.67 5.40039,-9 0.57,1.37 0.64891,3.18828 1.87891,6.48828 a 2.47,2.47 0 0 0 3.32031,1.43164 c 4,-1.87 7.56945,-8.55 9.43945,-10 a 0.67,0.67 0 0 1 0.51758,-0.084 z m -55.22656,8.57226 c 0.55,-0.66 1.34086,3.06172 1.38086,3.26172 0.43,2.15 0.90945,4.29875 1.18945,6.46875 0.05,0.38 0.59875,3.11969 0.21875,3.67969 l 0.0117,0.041 c -1,0.13 -2.05031,0.25993 -3.07031,0.41993 a 39.3,39.3 0 0 0 -7.29102,1.48046 c 0.08,-0.48999 0.18094,-0.99992 0.21094,-1.16992 a 33.23,33.23 0 0 1 3.25,-7.4707 38,38 0 0 1 4.09961,-6.71094 z M 505,234.55078 v 0.0391 a 12.55,12.55 0 0 1 2.68945,7.42969 c -1.99999,0.1 -3.99922,0.27047 -5.94922,0.48047 1.32,-2.5 2.05977,-5.35922 3.25977,-7.94922 z m 7.75,0.58203 a 5.51,5.51 0 0 1 0.75,1.35742 c 0.78,1.74 1.77906,4.52946 2.28906,5.43946 -2,-0.0467 -4,-0.0467 -6,0 0.81447,-1.27137 2.32321,-6.05589 2.96094,-6.79688 z m 6.77539,0.0371 c 0.28883,0.44846 0.6264,0.99403 0.99414,1.56055 1,1.71 2.11133,3.84008 2.11133,5.58008 -1.63,-0.15 -3.26063,-0.24055 -4.89063,-0.31055 -0.25807,-0.0893 1.63955,-6.38431 1.78516,-6.83008 z M 527,235.78906 a 22.49,22.49 0 0 1 2.64062,7.45117 29.42,29.42 0 0 0 -3.31054,-0.58007 c -0.6,-0.08 -1.21055,-0.12946 -1.81055,-0.18946 1.15,-2.00999 1.48047,-4.53164 2.48047,-6.68164 z m 8.65039,0.5918 a 0.25,0.25 0 0 1 0.18945,0.0898 c 1.96,1.86 1.02969,5.64844 0.42969,7.89844 v -0.0488 a 13.8,13.8 0 0 1 -0.54883,1.60938 0.32,0.32 0 0 1 -0.14062,0.20117 0.37,0.37 0 0 1 -0.29102,0 9.71,9.71 0 0 0 -4,-2.41992 63.8,63.8 0 0 0 4.21094,-7.18164 c 0,-0.06 0.0804,-0.12844 0.15039,-0.14844 z m -119.75,18.23242 a 3.71,3.71 0 0 1 2.03906,3.2168 v 1 c -0.04,7.57999 -0.0822,15.16334 -0.1289,22.75 A 1.48,1.48 0 0 1 417.5,282.86914 v -0.0488 a 3.46,3.46 0 0 1 -0.55078,-0.13086 c -4.81,-1.89999 -7.53852,-5.41922 -8.72852,-10.44922 -1.1,-4.62999 -1.28078,-9.08047 0.69922,-13.48046 a 8.1,8.1 0 0 1 3.17969,-3.86915 3.71,3.71 0 0 1 3.80078,-0.27734 z m 206.49414,32.04297 a 10.45,10.45 0 0 1 4.18555,1.46289 4.39,4.39 0 0 1 2.28906,3.76172 8.29,8.29 0 0 1 -0.14844,2.63867 c -1.90999,6.22 -5.72149,10.74032 -12.02148,12.82031 a 7.51,7.51 0 0 1 -1.41016,0.29102 3.81,3.81 0 0 1 -0.84961,-0.13086 c 3.28,-4.4 2.3711,-9.21 1.6211,-14 -0.15,-0.95 -0.42,-1.88961 -0.5,-2.84961 -0.19,-2 0.43992,-2.99984 2.41992,-3.58984 a 10.45,10.45 0 0 1 4.41406,-0.4043 z m 16.41992,3.38086 c 0.37938,0.0783 0.81391,0.24469 1.31641,0.49219 a 11.12,11.12 0 0 1 5.4082,5.9414 1.24,1.24 0 0 1 0,1.35938 c -0.4,0.47 -0.88984,0.23961 -1.33984,0.0996 -0.77,-0.23 -1.51883,-0.52024 -2.29883,-0.74024 -3.44,-0.95 -5.99969,0.11126 -7.67969,3.28125 -1,1.93 -1.85148,3.94016 -2.77148,5.91016 -0.2,0.44 -0.40938,0.86859 -0.60938,1.30859 a 1.05,1.05 0 0 1 -0.94922,0.73047 1.09,1.09 0 0 1 -1,-0.84961 c -0.14999,-0.46 -0.25007,-0.93125 -0.33007,-1.28125 a 8.25,8.25 0 0 1 1.17968,-3.76953 c 1,-1.39 1.87969,-2.82867 2.92969,-4.13867 a 23.9,23.9 0 0 0 3.75977,-6.44141 c 0.5925,-1.575 1.24664,-2.13718 2.38476,-1.90234 z m -191.11523,6.94336 c 5.67999,-0.3 10.86,0.87914 15,5.11914 0.21,0.22 0.36055,0.50109 0.81055,1.12109 -4.74,0.64 -8.84001,2.28969 -13,3.67969 -2.53,0.85 -4.34016,0.31922 -5.41016,-1.30078 -1.35,-2 -1.30039,-5.67953 0.0996,-7.26953 v -0.0293 a 3.63,3.63 0 0 1 2.5,-1.32031 z m 192.61914,3.49805 c 0.54422,0.0391 1.14328,0.19992 1.80078,0.48242 a 7.08,7.08 0 0 1 4.54102,6.30859 8,8 0 0 1 -4.07032,7.91016 14.09,14.09 0 0 1 -4.33984,1.41992 26.38,26.38 0 0 1 -5,0.59961 H 633 c -0.86,-0.02 -1.89023,0.28086 -2.24023,-0.86914 -0.29,-1 0.50015,-1.46016 1.16015,-1.91016 a 9.71,9.71 0 0 0 4.25977,-7.49023 17.08,17.08 0 0 1 0.75,-3.5293 c 0.63,-2.0625 1.75601,-3.03906 3.38867,-2.92187 z m -172.57031,13.8496 c 0.34625,-0.0862 0.68742,-0.0688 0.98242,0.20118 0.59,0.54 0.23,1.37 0,2 -2.29,6.80999 -10.31032,12.72 -17.57031,13 a 4.76,4.76 0 0 1 -5.21094,-3.42969 11.23,11.23 0 0 1 0,-8.2793 c 0.8,-2.12 1.81156,-2.75 4.10156,-2.5 1.63,0.2 3.2086,0.55977 4.8086,0.75977 v -0.0293 c 4.04999,0.51 8.05109,0.45922 11.87109,-1.30078 0.32,-0.145 0.67133,-0.33563 1.01758,-0.42188 z m 177.42383,7.75 c 1.37156,-0.31499 2.41218,0.3818 3.11718,2.0918 A 10.34,10.34 0 0 1 648.83008,331 c -1.17,4.39 -4.46016,6.43969 -9.16016,5.92969 a 11.82,11.82 0 0 1 -8.33008,-4.86914 4.74,4.74 0 0 1 2.18946,-1.08008 15.44,15.44 0 0 0 7.25976,-5.37109 10.2,10.2 0 0 1 2.90039,-2.87891 c 0.53,-0.33 1.02524,-0.54735 1.48243,-0.65235 z m -257.03516,3.8125 c 0.5,-0.0245 1.05484,0.54407 1.65234,2.03907 a 146.65,146.65 0 0 0 9.43164,19.51953 c 1,1.72 2.00016,3.44141 3.16016,5.1914 0.68,1.07 1.37867,2.3693 0.88867,3.5293 -2,0.22 -3.81039,-1.08055 -5.40039,-2.31054 -3.58,-2.78 -8.24914,-5.62892 -10.61914,-9.62891 -1.79,-3.03 -1.85945,-7.69985 -1.68945,-11.08985 0.0825,-1.76249 1.07617,-7.1764 2.57617,-7.25 z m 78.91406,7.5 c 0.23375,-0.0225 0.47352,0.0188 0.72852,0.21876 a 4.24,4.24 0 0 1 -1.41016,2.91015 A 25.6,25.6 0 0 1 445.83008,345 c -3.46,-0.2 -4.63945,-2.06922 -3.68946,-5.44922 v -0.0312 c 1.37,-4.90999 4.13868,-6.71 9.13868,-6 3.41999,0.5 6.83031,1.14984 10.32031,0.83985 a 29.39,29.39 0 0 0 4.75977,-0.79883 c 0.22999,-0.06 0.45765,-0.14743 0.6914,-0.16993 z m 177.76953,7.46876 c 1.31,0.25999 1.63907,1.71086 1.78907,2.88085 0.45999,3.55 -0.26852,6.75977 -2.97852,9.25977 A 6.31,6.31 0 0 1 635.25,353.64062 10.88,10.88 0 0 1 631.66016,349.5 c 0.55,-0.18 0.92078,-0.33992 1.30078,-0.41992 a 14.07,14.07 0 0 0 9.28906,-6.36914 c 0.61,-0.92 1.26031,-2.11156 2.57031,-1.85156 z m -202.18945,8.87109 a 35,35 0 0 1 6.67969,1 c 2.99999,0.58 6.00039,0.99883 9.40039,1.29883 -5.1,7.04999 -12.80149,9.5807 -20.52149,6.9707 a 7.13,7.13 0 0 1 -1.75,-0.80078 3.48,3.48 0 0 1 -0.58007,-5.75 9.25,9.25 0 0 1 6.77148,-2.71875 z M 619.75,350.90039 a 7.36,7.36 0 0 1 6,0.91016 c 2.25,1.48 2.69055,3.49969 1.31055,5.67968 v -0.0293 a 7.41,7.41 0 0 1 -7.11133,3.75976 14.53,14.53 0 0 1 -12.42969,-8 1.63,1.63 0 0 1 -0.33984,-1.43164 c 1.18,-0.27 2.31976,0.32157 3.50976,0.35156 a 34.61,34.61 0 0 0 9.06055,-1.24023 z m -185.82031,11.46875 a 9.46,9.46 0 0 1 3.33984,0.33008 c 3.35,0.83 6.65086,1.88109 10.38086,2.12109 a 6.57,6.57 0 0 1 -2.87109,2.67969 20.06,20.06 0 0 1 -11,2.19922 c -2.63,-0.31 -3.75907,-1.15938 -3.78907,-2.85938 a 4.54,4.54 0 0 1 3.93946,-4.4707 z" />
  </g>
</svg>
