<?xml version="1.0" encoding="UTF-8" standalone="no"?>
<svg xmlns:rdf="http://www.w3.org/1999/02/22-rdf-syntax-ns#" xmlns="http://www.w3.org/2000/svg" height="145.03pt" width="125.53pt" version="1.1" xmlns:cc="http://creativecommons.org/ns#" xmlns:dc="http://purl.org/dc/elements/1.1/" viewBox="0 0 125.52981 145.02832">
 <path d="m78.318 0.72802c-34.239 0.05576-63.111 22.346-71.496 41.973-12.508 29.274 0.4308 52.622 2.0675 62.039 4.1211 23.746-6.3602 28.913-7.8719 30.8 6.7891-0.37891 10.855-5.2852 14.25-10.945 2.6445-4.9024 3.9453-10.555 4.3203-16.211 1.512-10.565-3.077-22.127-2.698-32.689 1.132-15.848 12.085-30.607 25.667-38.911 20.371-12.071 44.612-10.857 63.103-2.349 3.7734-7.9219 11.2-23.859 11.2-23.859-13.07-6.976-26.158-9.8642-38.542-9.844zm-4.397 32.095c-1.5557 0.01483-3.0057 0.09102-4.3094 0.20625l-0.50781 17.227c0.71484 0.01172 1.8039 0.17578 1.8234 0.10156 0.20312-0.82422 0.87188-6.7266 5.9031-11.031 5.5937-4.7891 12.949-4.3125 12.875-4.3594-5.4961-1.6787-11.117-2.1882-15.784-2.1438zm-8.3641 0.71406c-0.13281 0.13281-3.95 0.71172-7.1922 1.6219l3.4422 16.109c0.13281 0.06641 3.3055-0.70781 3.3484-0.70781l0.402-17.023zm-10.942 2.9375c-2.4336 0.71094-5.7141 2.118-6.4875 2.6375l7.1953 14.284c3.6641-1.2422 3.6484-1.282 3.6484-1.2156l-4.3562-15.706zm-9.625 4.2578c-2.9414 1.418-4.8156 2.9375-5.675 3.5469l10.316 12.214c0.01953 0.14453 2.9695-1.6516 3.0359-1.7844l-7.677-13.976zm-8.4094 5.6766c-2.332 2.0234-3.0391 2.9328-4.4609 4.6594l12.145 9.5031c0.06641-0.07031 2.6469-2.4125 2.6469-2.4125l-10.331-11.75zm-6.5594 7.4438c-1.2422 1.5703-2.257 3.2945-3.0656 5.1188l12.867 6.4844c0.03516-0.04297 2.0906-2.6609 2.1297-2.6375l-11.932-8.965zm41.555 1.7141c-3.8824-0.0076-7.7243 0.57236-11.323 1.8688-9.4336 3.3945-15.539 10.161-19.586 19.333-6.75 15.293 2.7891 26.963 2.7891 39.413 0.37891 4.5274-2.2422 13.607-1.8672 13.556 12.238-1.6914 20.516-5.5938 31.078-7.4766 7.1953 6.2812 31.788 20.753 37.159 21.495 0.37109 0.0508-6.2297-21.43-4.9094-45.102-6.2266 1.0078-14.254-1.632-18.93-6.7766 6.2148-8.9258 28.743-7.9422 25.473 15.894-0.0508 0.36719 13.327 2.6297 13.084 2.3328-8.4141-10.281-11.925-19.985-16.823-32.013-4.6836-11.492-14.281-19.234-27.109-21.5-2.9719-0.65796-6.0163-1.0191-9.0359-1.025zm-46.545 6.9469c-0.8125 1.625-1.4188 4.0539-1.7234 5.3703l13.37 2.5312c0.37109-0.94531 0.82188-1.7758 1.3688-2.85l-13.018-5.051zm-2.5359 9.2234c-1.1133 7.0938-1.1914 13.676-0.59375 17.172 0.01563 0.04688 1.0547-6.0094 4.5-9.4156 3-2.9727 6.8211-3.5531 8.1766-3.5063 0-0.01563 0.67812-2.3211 0.58438-2.325l-12.667-1.925z" fill="#18453b"/>
</svg>
