<svg xmlns="http://www.w3.org/2000/svg" width="248" height="147.79">
  <g fill-rule="evenodd" stroke-width="3.3145">
    <path fill="#5b0013" d="m231.05 109.77-42.946-71.392h11.833V1.179h-71.488v37.199h11.83l-16.414 27.275-16.4-27.275h11.826V1.179H47.807v37.199h11.826L16.687 109.77H1.367v37.199h72.906V109.77H61.177L83.55 72.578l8.6741 14.425h-8.3195v37.196h79.927V87.003h-8.3128l8.6741-14.425 22.37 37.192h-13.099v37.199h72.903V109.77h-15.316"/>
    <path fill="#ffb71e" d="M190.4 10.707v18.13h-19.158l54.425 90.467h11.173v18.121h-53.835v-18.121h20.427l-39.237-65.23-25.542 42.459h15.645v18.124H93.443V96.533h15.655L83.553 54.074l-39.241 65.23h20.431v18.121H10.912v-18.121h11.17l54.425-90.47H57.349V10.707h52.409v18.13H90.6l33.271 55.306 33.281-55.31h-19.158V10.706H190.4m4.7696-4.7696v27.666h-15.495l48.69 80.931h13.245v27.66h-63.374v-27.66h16.765l-30.805-51.209-17.11 28.439h11.982v27.663h-70.394v-27.66h11.989l-17.11-28.439-30.805 51.209h16.762v27.656H6.1426v-27.66h13.242l48.69-80.931h-15.492V5.9354h61.945v27.666h-15.495l24.839 41.292 24.846-41.292h-15.492V5.9354h61.945"/>
  </g>
</svg>