<svg xmlns="http://www.w3.org/2000/svg" height="156.55" viewBox="0 0 275 156.54957" width="275"><g transform="matrix(1.25 0 0 -1.25 -1078.5 619.01)"><g transform="matrix(.87346 0 0 .87346 123.77 55.411)"><path d="m972.01 502.56c-69.05 0-125.02-31.689-125.02-70.772 0-39.101 55.975-70.779 125.02-70.779 13.709 0 26.907 1.252 39.25 3.564l-0.156-0.498c2.474 0.242 5.242 1.075 7.847 2.096 3.212 0.735 6.353 1.547 9.428 2.427l-0.056-0.274c0.253 0.151 0.5 0.31 0.74 0.469 40.355 11.736 67.961 35.533 67.961 62.995 0 39.083-55.973 70.772-125.01 70.772"/><path d="m1035.4 374.45c2.117 2.568 3.507 5.215 4.429 7.523 28.752 11.203 47.445 29.338 47.445 49.813 0 29.388-38.527 53.965-90.07 60.114-2.633 1.266-5.211 2.453-7.21 3.304-8.418 3.61-10.344 1.98-12.433 0-0.663-0.628-1.182-1.255-1.604-1.861-1.323 0.021-2.652 0.039-3.984 0.039-51.917 0-95.813-18.329-110.27-43.533 7.303-6.157 26.379-21.532 41.54-28.912l-0.185 0.455c-0.548 0.555-13.767 13.835-17.339 31.523h0.272c1.107-1.375 7.263-12.491 33.306-29.046 2.019-1.28 22.319-13.51 30.946-15.801l-1.043 1.144c-0.826 0.916-13.665 15.757-19.722 27.303 0 0-6.518 10.723-11.096 23.732 0 0 8.709-7.055 9.537-7.332l0.094 0.465c-0.276 0.631-7.563 17.244-8.882 26.405 2.114 0.512 11.379 2.189 15.673 2.445 0 0 1.767-14.481 13.326-21.384 0-1.757 0.629-19.715 5.537-26.362-0.129 2.503-1.511 11.415 6.162 20.833l0.379-0.368c-1.015-3.899-3.774-19.722 0-32.775 0.996-3.513 7.913-20.717 14.446-25.117-0.75 4.144-10.053 23.361-0.249 43.696 0.065-0.682 0.216-2.24 0.611-4.484 1.113-6.347 4.178-18.242 12.819-31.732 0.014-0.021 0.317-0.451 0.461-0.66-0.619 8.692 2.507 13.933 4.271 16.332 5.893 7.819 18.178 8.147 27.177 6.174 3.637-0.775 6.462-1.219 9.674-2.196 0.107 0.097 0.179 0.191 0.255 0.303-8.08 4.346-27.523 7.967-27.523 7.967 3.293 0.595 6.571 0.314 9.924 0.343 8.263-0.426 16.903-0.621 24.697-3.012 0.129 0.134 0.322 0.296 0.439 0.418-2.607 1.176-5.481 1.854-8.178 2.763-10.643 2.785-21.954 4.577-33.327 5.461l-0.048 0.086c5.554 0.884 11.746 1.05 17.676 1.115 7.811 0.173 15.732-0.573 23.589-1.28l0.137 0.299c-2.938 0.833-9.461 2.11-9.461 2.11-13.283 1.994-27.237 3.347-40.897 3.545 0.044 0.087 3.309 1.079 6.748 1.587 9.369 1.497 20.047 1.67 29.38 1.771 1.79 1.432 2.708 1.843 4.756 2.72-7.446 2.279-15.3 2.193-22.964 3.073-6.376 0.263-12.476 1.54-18.222 3.79-2.08 2.24-4.205 4.44-5.895 6.777 0.342 0.249 0.482 0.098 0.482 0.098s3.122-0.985 4.751-1.403c2.207-0.978 4.215-2.179 6.597-3.015 1.025-0.444 2.569-0.866 3.634-0.996-1.156 3.416-0.887 5.453-0.835 5.724 0.052 0.278 0.169 0.476 0.169 0.476 0.981-0.249 1.569-0.411 2.503-0.7 0 0-0.095-0.368 0.108-1.565l3.234-0.415c-0.273-0.454-1.927-1.341-2.47-1.771 0 0 0.234-0.782 0.537-1.316 0.405-0.718 0.77-1.223 1.6-1.41 3.116 0.461 5.487 3.181 5.487 3.181l3.194-0.895s-0.263-0.793-1.169-1.893c2.143-0.227 5.994 0.101 8.572 0.133 0.579 0.015 0.746 0.015 1.072 0.3 0.479 0.551 1.104 1.046 1.452 1.666-1.697 0.303-2.462 0.595-2.357 0.552-0.453 0.032-0.906 0.054-1.352 0.108-5.196 1.396-10.319 3.358-15.089 5.381-5.033 2.045-11.346 0.101-16.634 1.659-2.893 0.873-6.005 1.295-8.857 2.143-0.016 0.007-0.091 0.036-0.193 0.072 0.005-0.007 0.012-0.011 0.018-0.018-0.008 0.007-0.02 0.022-0.023 0.022v0.003c-0.144 0.051-0.339 0.126-0.53 0.198 0.002-0.187 0.004-0.382 0.005-0.573 0.891-1.086 2.356-2.853 2.747-3.21-0.578 0.151-1.531 0.462-2.716 0.819-2.152 0.649-5.08 1.453-7.999 1.738-1.386 0.134-2.889 0.249-4.663 0.613 0.227-0.342 3.588-4.299 3.588-4.299-10.721 2.157-16.891 4.642-21.148 7.82-4.25 3.188-6.13 6.856-6.483 7.559-0.734 1.497-1.04 3.38-0.12 4.235 1.142 1.02 3.577 0.422 4.102 0.292 0.841-0.217 1.168-0.303 1.745-0.44 0.517-0.119 1.215-0.195 4.881-0.949 4.351-0.905 15.986-2.077 25.951-2.312 1.154-0.025 2.284-0.039 3.379-0.039 4.863 0 10.226-0.495 13.239-1.335 0 0-5.371-0.155-7.189-0.552l0.819-0.624c2.351 0 14.585-1.168 20.951-2.51l-2.953-0.4 0.608-0.559c2.014-0.17 10.062-2.219 20.954-5.4l1.078 0.292s-10.116 7.124-11.796 7.964c-1.082-0.667-1.321-0.797-2.271-1.32-0.369-0.206-0.957-0.328-1.459-0.079-2.393 1.201-9.107 4.505-10.863 5.193 0 0-2.664-1.197-3.687-0.836l-11.399 4.021c-0.941-0.173-4.964-0.696-9.429-1.118-4.255-0.408-8.909-0.721-11.689-0.559 2.242 0.635 7.683 1.89 11.676 2.586 0.187 0.033 0.38 0.065 0.563 0.097 1.84 0.332 5.025 0.502 11.061 0.166 6.034-0.331 24.255-2.899 30.669-4.18 2.514-0.505 6.311-1.937 10.569-5.024 1.835-1.342 10.811-6.983 11.355-9.003 0.282-1.038 0.604-2.236 0.292-4.923l-0.865 0.238s-0.815 1.8-1.152 2.146c-1.538 1.638-4.86 1.151-4.86 1.151s-0.68-2.471 4.551-5.111c0.67-0.343 3.88-1.306 5.075-1.576 1.509-0.343 8.008-2.586 7.801-2.456 0.021-0.015 0.056-0.029 0.095-0.054 3.495-1.356 7.048-2.85 9.797-5.208 0.833-0.808 1.596-2.587 2.006-5.385 0.26-1.908 0.57-3.672 0.672-5.457-1.382-1.108-6.164-2.907-6.164-2.907l0.29-0.574s3.957 0.216 5.642 0.675c0.101-1.779-0.348-3.838-0.595-5.508-1.569-0.501-5.399-1.262-5.399-1.262l0.336-0.761 4.678 0.014c-0.142-1.771-1.077-4.007-1.522-4.631-1.114-0.512-1.814-0.736-3.385-0.956-0.608-0.076-1.021-0.148-1.768-0.213 0.164-0.295 0.199-0.393 0.303-0.573 1.229-0.166 3.414-0.253 4.158-0.31-0.388-1.104-0.823-1.645-1.278-2.294-0.677-0.949-1.612-2.013-3.149-3.098-2.682 1.038-3.854 4.598-3.912 6.64-0.285 3.401 0.472 11.455 1.299 13.774 1.382 3.026 4.465 4.894 5.46 5.522 0.746 2.499 2.491 4.57 2.485 4.649-0.058 0.444-0.35 0.826-0.35 0.826s-0.752-0.242-1.084-0.372c-0.466-0.22-1.621-0.515-2.631-1.576-0.111-0.144-0.324-0.342-0.475-0.541-0.213 0.346-1.241 2.117-1.241 2.117l-6.939-0.162s-0.635-1.244-1.787-1.879c-0.117 0.141-0.426 0.418-0.674 0.617l-0.579 0.133c-1.229 0.217-2.14 0.249-3.522 0.281-1.089 0-3.366 0.015-3.366 0.015l-0.023-0.657s1.915-0.277 3.536-3.841c1.537-0.259 2.945-0.725 4.363-1.248 2.707-1.475 4.818-4.544 4.542-8.252 0.2-5.706-3.241-9.89-7.762-12.847-2.667-1.746-9.378-3.17-15.298-2.756-1.633 0.253-3.136 0.512-5.366 1.237-2.882 0.917-6.378 2.067-10.417 2.262-6.104 0.104-12.725-1.584-15.852-7.059-3.366-5.9-1.985-12.764-1.985-12.764 2.683 1.843 6.889 2.911 10.325 1.854 1.323-0.523 2.3-0.848 3.371-1.468-0.11 0.732-1.156 1.973-2.329 2.839 2.915 0.371 5.474-1.021 7.723-2.435 0.85-0.588 1.327-1.032 2.24-1.883-0.115 3.387 1.298 7.192 2.92 8.974 5.599 6.128 13.402 7.163 23.269 8.537 2.115 0.289 4.51 0.844 6.396 1.778 1.014-0.678 1.765-1.049 2.934-1.554 0.837-0.455 1.726-0.823 2.655-1.093 0.383-3.737-2.468-7.445-4.489-9.251-0.967-0.873-2.463-2.074-5.156-3.117 0.276 0.354 1.449 2.161 1.69 2.507 0.943 1.692 1.628 3.343 1.828 5.273 0.01 0.826-0.114 2.038-0.877 2.662-2.559 0.909-5.825 0.811-8.421 0.112-0.464-1.346-0.533-2.045-1.63-4.033-0.588-0.97-0.734-1.266-1.364-2.023-1.462-1.8-3.424-3.665-6.189-5.252-0.253-0.14 0.174 0.527 0.202 0.852 0.733 2.777 1.503 5.936 1.272 8.84-4.57-0.199-7.893-4.105-9.758-7.484-0.509-0.924-0.973-2.431-1.072-3.758-0.088-1.62 0.409-4.523 2.288-5.674-1.465-1.883-3.642-3.61-6.052-4.425-4.361-1.371-6.057 4.046-9.592 5.027-2.671 1.003-6.618 1.753-10.509 0.174l-0.436-0.228c0.329-2.131 1.065-4.321 1.913-6.21l0.549-0.671c3.451 2.322 7.411-0.018 10.335-1.494 6.738-1.691 12.096 3.456 16.321 7.611 0.472 0.4 0.562 0.631 1.228 1.298 1.206-2.485 0.131-5.233-1.289-7.318-0.787-1.161-1.668-2.323-2.676-3.315 0.347-0.393 0.933-0.486 1.416-0.609 1.846-0.408 4.333 0.155 5.304 0.444 3.517 1.381 8.694 5.229 11.069 7.877 0.655-2.842-0.45-6.363-2.633-9.18 2.339-0.191 3.217-0.234 4.512-0.342-0.366-1.926-1.199-3.719-2.14-5.757-1.691-2.972-3.652-5.864-6.275-8.046-0.65-0.527-0.236-0.166-1.375-1.104 0.154 1.407 0.227 1.89 0.107 3.005-2.229-2.017-10.985-7.29-16.775-8.859 0 0 1.135 2.723 1.513 4.361-4.276-2.326-9.613-4.022-13.016-4.894 0.827 1.468 1.935 4.043 1.935 4.043-2.932-1.108-6.491-1.933-9.786-2.593 0.815 1.677 1.653 3.967 1.874 5.482-2.701-0.494-6.979-0.74-6.979-0.74-0.217 0.963-0.39 1.425-0.718 2.518-0.775 1.955-1.228 2.817-2.321 4.144-2.155 2.258-4.86 3.906-7.769 5.176-1.661 0.728-3.385 1.331-5.114 1.85-2.724 0.606-5.706 1.024-8.45 1.064-1.146-0.011-1.403-0.047-2.575-0.18 0.893-0.253 1.202-0.278 2.012-0.512 3.966-1.054 8.256-2.042 13.228-4.888l-2.658-0.23c-9.868-1.064-21.785-5.443-30.496-9.176 8.963-1.19 18.339-1.829 27.998-1.829 4.805 0 9.537 0.159 14.193 0.466 0.069-0.321 0.128-0.646 0.178-0.949 1.977 0 4.6 0.13 6.939 0.299-0.208-0.887-1.238-3.011-1.957-4.656-6.302-0.563-12.767-0.858-19.353-0.858-66.867 0-121.08 30.134-121.08 67.305 0 37.157 54.211 67.299 121.08 67.299 66.865 0 121.07-30.142 121.07-67.299 0-24.244-23.056-45.488-57.642-57.336" fill="#f1b82d"/><path d="m856.7 431.79c0-23.458 24.526-43.844 60.621-54.253 6.105 1.544 11.91 3.419 11.38 3.535-4.924 1.143-12.803 3.159-15.729 4.573 2.64 0.126 18.354 1.749 22.883 3.261-5.405 1.125-25.643 8.039-33.943 12.681 3.647-0.126 20.232-1.233 26.164 0.007l-2.529 0.747c-9.502 2.341-49.67 19.851-68.543 33.918-0.2-1.479-0.304-2.969-0.304-4.469"/><path d="m169.81 10.84c-0.44135-0.0083-0.82211 0.02258-1.1543 0.08789-2.86 0.67125-3.343 5.641-3.5117 7.6973 0.22251-0.005 0.4379 0 0.6504 0 0 0 0.27164-6.0093 7.9004-4.373l19.273 4.0332 0.0762-0.0039-0.40821-0.58203c-2.9038-0.50875-14.022-4.4852-16.971-5.5215-2.67-0.92625-4.5314-1.3129-5.8555-1.3379zm-53.615 10.332c-1.0216-0.04797-2.1384 0.08258-2.8516 0.7207-1.1512 1.0688-0.76781 3.4217 0.14844 5.293 0.44125 0.88 2.791 5.4642 8.1035 9.4492 5.3225 3.9725 13.034 7.0804 26.436 9.7754 0 0-4.1994-4.9462-4.4844-5.375-2.3438-0.51375-11.922-2.8256-19.07-7.1406-4.6625-2.47-9.8284-7.1582-9.3984-10.689 0.002-0.13875 0.36758-1.7502 3.3926-1.6777-0.32813-0.08125-1.2538-0.3075-2.2754-0.35547zm40.24 14.57s0.0398 1.602 2.0586 4.1758c-0.0213 0-0.0371-0.0098-0.0371-0.0098s0.36446 0.44688 0.87696 1.0781c0-0.23875-0.001-0.48305-0.004-0.7168 0.23875 0.09 0.48141 0.1843 0.66016 0.24805v0.0039c0.005 0 0.0193 0.01859 0.0293 0.02734-0.007-0.0087-0.0165-0.01469-0.0215-0.02344 0.12625 0.045 0.22094 0.08305 0.24219 0.0918 3.565 1.06 7.4528 1.5865 11.07 2.6777 6.6088 1.9475 14.5-0.48203 20.791 2.0742 5.9625 2.5288 12.368 4.9816 18.861 6.7266 0.5575 0.0675 1.1239 0.09477 1.6914 0.13477-3.04-1.3438-9.9267-4.4761-13.887-6.9648 0 0-7.8981-4.6217-17.984-5.168 0 0-13.733-0.27547-24.348-4.3555zm29.021 11.322s-0.14593 0.24625-0.21093 0.59375c-0.065 0.3375-0.40274 2.8862 1.041 7.1562-1.33-0.1625-3.2585-0.69109-4.541-1.2461-2.9762-1.0462-5.4874-2.5463-8.2461-3.7676-2.0362-0.5225-5.9375-1.7539-5.9375-1.7539s-0.17601-0.19016-0.60351 0.12109c2.1125 2.9212 4.7672 5.672 7.3672 8.4707 7.1838 2.8138 14.809 4.4095 22.779 4.7383 9.58 1.1 19.398 0.99305 28.705 3.8418-2.5612 1.095-3.7078 1.6097-5.9453 3.3984-11.665 0.12625-25.015 0.34484-36.725 2.2148-4.2988 0.63625-8.3806 1.8749-8.4356 1.9824 17.074 0.24875 34.519 1.9398 51.121 4.4336 0 0 8.1537 1.5955 11.826 2.6367l-0.16992 0.375c-9.8225-0.88375-19.723-1.8178-29.486-1.6016-7.4138 0.08125-15.154 0.28883-22.096 1.3926l0.0606 0.10938c14.216 1.1038 28.354 3.3462 41.656 6.8262 3.3725 1.1362 6.9659 1.9831 10.225 3.4531-0.1475 0.15375-0.38953 0.35594-0.55078 0.52344-9.7412-2.99-20.542-3.2331-30.869-3.7656-4.1912 0.03625-8.288-0.31531-12.404 0.42969 0 0 24.302 4.5265 34.402 9.959-0.0962 0.14-0.18586 0.25641-0.31836 0.37891-4.0162-1.2225-7.5456-1.7761-12.092-2.7461-11.249-2.4662-26.608-2.055-33.973 7.7188-2.205 2.9988-6.1116 9.5471-5.3379 20.412 0 0-9.7966-5.4348-14.977-15.777 0 0-0.00031 8.975 2.1797 13.875 0 0-3.2697-2.172-5.1797-6.252 0 0 3.8373 20.292 5.7461 25.467 0 0-18.882-10.292-31.354-41.801 0 0-1.0875 2.4572-0.28125 8.7109 0 0-13.051-8.8738-17.938-17.156 2.1362 3.715 15.337 26.393 23.828 34.129 0 0-35.574-8.5237-49.736-17.514 0 0 1.6241 2.9927 5.7129 6.8027 0 0-18.25-2.4491-26.691-5.1816 0 0 22.623 11.142 44.959 17.949 0 0-10.089 3.0206-19.9 4.373 0 0 12.53 6.2584 28.338 10.617 0 0-6.2685 4.3452-19.072 6.8027 0 0 2.1737 1.6196 8.1699 3.2559l-3.0606 1.3477c-0.0237-0.009-0.19554 0.0816-0.52929 0.24414-2.4538 1.0375-5.7302 2.3228-8.3965 3.0391l-4.8203 1.5859c0.1225 0.0362 0.26047 0.0673 0.38672 0.10351 5.6438 1.555 16.823 3.8645 27.188 5.2207 0.006 0 0.0152-0.004 0.0215-0.004 10.889-4.6662 25.784-10.139 38.119-11.469l3.3242-0.28906c-6.215-3.5562-11.578-4.7931-16.535-6.1094-1.0125-0.2925-1.3974-0.32437-2.5137-0.64062 1.4638-0.16625 1.7843-0.21086 3.2168-0.22461 3.4312 0.0487 7.1594 0.57258 10.564 1.3301 2.1612 0.64875 4.3163 1.4012 6.3926 2.3125 3.635 1.5862 7.0152 3.6482 9.709 6.4707 1.3675 1.6588 1.9348 2.7359 2.9023 5.1797 0.41125 1.3662 0.62719 1.9427 0.89844 3.1465 0 0 5.3464-0.30633 8.7226-0.92383-0.2775 1.8938-1.3238 4.7553-2.3438 6.8516 4.12-0.825 8.5694-1.8565 12.234-3.2402 0 0-1.3862 3.2177-2.4199 5.0527 4.2538-1.0912 10.925-3.2097 16.27-6.1172-0.47125 2.0462-1.8906 5.4512-1.8906 5.4512 7.2388-1.9612 18.182-8.5542 20.969-11.074 0.15 1.3938 0.0584 1.9991-0.13281 3.7578 1.4238-1.1725 0.90625-0.72336 1.7188-1.3809 3.2788-2.7275 5.73-6.3436 7.8438-10.059 1.175-2.5475 2.217-4.7878 2.6758-7.1953-1.6188-0.135-2.7169-0.18899-5.6406-0.42774 2.7275-3.5212 4.1091-7.9221 3.2891-11.475-2.9675 3.3088-9.4384 8.1195-13.836 9.8457-1.2125 0.36125-4.3226 1.0654-6.6289 0.55664-0.605-0.15375-1.3358-0.27242-1.7695-0.76367 1.26-1.24 2.362-2.6913 3.3457-4.1426 1.775-2.6062 3.1169-6.0402 1.6094-9.1465-0.83125 0.83375-0.9432 1.1211-1.5332 1.6211-5.2812 5.1938-11.981 11.629-20.402 9.5137-3.655-1.8438-8.6042-4.7709-12.918-1.8672l-0.68555-0.83789c-1.06-2.3625-1.9813-5.0987-2.3926-7.7637l0.54492-0.28516c4.8638-1.975 9.7967-1.0357 13.137 0.2168 4.4188 1.2262 6.539 7.9989 11.99 6.2852 3.0112-1.0188 5.7344-3.1788 7.5644-5.5312-2.3475-1.4388-2.9694-5.0668-2.8594-7.0918 0.12375-1.6588 0.70235-3.5435 1.3398-4.6973 2.33-4.225 6.4848-9.108 12.197-9.3555 0.28875 3.6287-0.67359 7.5776-1.5898 11.049-0.035 0.40625-0.5682 1.2407-0.25195 1.0645 3.455-1.9838 5.9088-4.3145 7.7363-6.5645 0.7875-0.9475 0.96882-1.3155 1.7051-2.5293 1.3712-2.4838 1.4564-3.3578 2.0352-5.0391 3.2462-0.875 7.3286-0.99757 10.527 0.13868 0.955 0.78 1.1102 2.2956 1.0977 3.3281-0.25125 2.4112-1.1064 4.4768-2.2852 6.5918-0.3025 0.4325-1.769 2.6916-2.1152 3.1328 3.3675-1.3025 5.2373-2.8052 6.4473-3.8965 2.5262-2.2588 6.0901-6.8925 5.6113-11.562-1.1612-0.33875-2.2721-0.79969-3.3184-1.3672h-0.008c-1.4612-0.63125-2.3998-1.0946-3.666-1.9434-2.3588 1.1688-5.3511 1.8634-7.9961 2.2246-12.334 1.7175-22.088 3.0099-29.088 10.67-2.0262 2.2275-3.7934 6.9843-3.6484 11.217-1.1425-1.0638-1.7376-1.6185-2.7988-2.3535-2.8112-1.7675-6.0106-3.5067-9.6543-3.043 1.4662 1.0825 2.7746 2.6326 2.9121 3.5488-1.3388-0.77625-2.5624-1.1822-4.2148-1.8359-4.2962-1.3212-9.5532 0.0146-12.908 2.3184 0 0-1.7251-8.5808 2.4824-15.957 3.9088-6.8438 12.186-8.9535 19.816-8.8223 5.0488 0.24375 9.419 1.6812 13.021 2.8262 2.7875 0.90625 4.6658 1.2319 6.707 1.5469 7.3988 0.51875 15.788-1.2621 19.123-3.4434 5.6512-3.6975 9.9512-8.9273 9.7012-16.059 0.34375-4.635-2.294-8.4714-5.6777-10.316-1.7738-0.65375-3.5326-1.2355-5.4551-1.5605-2.0262-4.4538-4.418-4.8008-4.418-4.8008l0.0273-0.82031s2.8458 0.01758 4.207 0.01758c1.7288 0.04125 2.8668 0.08031 4.4043 0.35156-2.76-2.6375-7.5818-6.181-13.561-6.0098l2.4492-1.9062s-4.0372-2.4082-10.898-1.9082l2.2676-1.7207s-1.7508-1.557-6.8945-1.8457c-0.21125-0.0225-0.39899-0.045-0.58399-0.0625-0.865-0.10875-1.8423-0.34664-3.0098-0.43164v0.02148c-0.435 0.775-1.2177 1.392-1.8164 2.082-0.4075 0.35625-0.61609 0.3575-1.3398 0.375-3.2225 0.04125-8.0361 0.45172-10.715 0.16797 1.1325-1.375 1.4609-2.3691 1.4609-2.3691l-3.99-1.107s-2.9624 3.3991-6.8574 3.9766c-1.0388-0.23375-1.4944-0.86422-2.002-1.7617-0.3775-0.6675-0.66992-1.6465-0.66992-1.6465 0.67875-0.53625 2.7454-1.6461 3.0879-2.2148l-4.043-0.51758c-0.25375-1.4975-0.13477-1.957-0.13477-1.957-1.1675-0.36-1.9027-0.56305-3.1289-0.87305zm67.371 8.7461c1.0588 0.69875 2.0044 1.3424 2.877 1.9512 0.59125 0.4275 1.3195 0.95203 2.0957 1.5195 3.77 2.8225 5.2766 4.5849 5.9453 5.8887 0.415-0.1625 1.3535-0.46484 1.3535-0.46484s0.365 0.4782 0.4375 1.0332c0.0125 0.09875-2.173 2.6868-3.1055 5.8105-1.2438 0.785-5.0987 3.1198-6.8262 6.9023-1.0338 2.8988-1.9793 12.966-1.623 17.217 0.0725 2.5525 1.5381 7.0033 4.8906 8.3008 1.9212-1.3562 3.0893-2.6868 3.9356-3.873 0.56875-0.81125 1.1126-1.4872 1.5976-2.8672-0.93-0.07125-3.661-0.17922-5.1973-0.38672-0.13-0.225-0.17321-0.34805-0.37696-0.7168 0.9325-0.08125 1.449-0.17062 2.209-0.26562 1.9638-0.275 2.838-0.55531 4.2305-1.1953 0.55625-0.78 1.7248-3.5753 1.9023-5.7891l-5.8476 0.01758-0.41993-0.95117s4.7868-0.95188 6.748-1.5781c0.30875-2.0875 0.87039-4.6603 0.74414-6.8828-2.1062 0.5725-7.0527 0.8418-7.0527 0.8418l-0.36133-0.7168s5.9776-2.2498 7.7051-3.6348c-0.1275-2.2312-0.51485-4.4353-0.83985-6.8203-0.5125-3.4975-1.4666-5.7217-2.5078-6.7305-3.4362-2.9488-7.8773-4.8155-12.246-6.5117-0.0925-0.03125-0.18008-0.06141-0.26758-0.09766z" transform="matrix(.8 0 0 -.8 846.98 502.56)" fill="#fff"/></g></g></svg>