<svg xmlns="http://www.w3.org/2000/svg" width="202" height="249.33" viewBox="0 0 202 249.33">
 <g transform="matrix(1.3333 0 0 -1.3333 -344.43 555.68)">
  <g transform="matrix(.34156 0 0 .34156 220.4 212.65)">
   <path d="m497.95 585.52-11.125-32.427h-35.411l29.036-21.437-10.584-34.324 28.63 20.622 28.761-20.351-10.853 34.053 27.133 21.437h-34.459zm-363.06-121.97v-53.728h26.051v-183.98h-26.051v-56.168h118.85v56.168h-25.235v129.43l109.9-185.6h82.217v240.14h24.422v53.728h-118.04v-53.728h26.862v-113.97l-100.13 167.7z" fill="#b5a67c" stroke="#10234e" stroke-width="6.512"/>
   <path d="m113.81 143.73v-19.824h6.9697v-51.543h-7.0371v-19.894h41.918v19.894h-7.0064v20.971l23.502-40.865h28.947v71.437h7.04v19.824h-41.851v-19.824h7.04v-21.042l-23.647 40.866zm120.34 0-21.429-71.367h-6.8862v-19.894h41.851v19.894h-6.3809l1.0005 3.3853h20.493l1.0181-3.3853h-6.23v-19.894h41.849v19.894h-7.0591l-21.396 71.367zm48.111 0v-19.824h8.5005l23.975-71.437h27.467l23.871 71.437h8.4976v19.824h-41.814v-19.824h4.5469l-0.97265-2.918c-1.009-3.009-2.1299-6.363-3.3369-10.04-1.72-5.025-3.2184-9.4675-4.5864-13.625-0.631 1.881-1.2357 3.7027-1.8237 5.4727-0.972 2.925-1.8913 5.6994-2.7803 8.3174l-0.50244 1.4912c-1.382 4.095-2.6482 7.8533-3.7852 11.301h4.5586v19.824zm96.519 0v-19.824h9.9302l19.794-37.639v-13.904h-6.7954v-19.894h41.851v19.894h-6.728v13.824l20.342 37.72h8.6191v19.824h-40.91v-19.824h3.0835l-5.2266-10.497-5.3379 10.497h3.2607v19.824zm-126.19-33.936 4.229-14.222h-8.499z" fill="#10234e"/>
   <path d="m117.5 140.04v-12.444h6.9683v-58.925h-7.0356v-12.514h34.537v12.514h-7.0049v38.477l29.329-50.991h23.12v71.439h7.04v12.444h-34.471v-12.444h7.04v-38.477l-29.464 50.921zm119.39 0-21.435-71.369h-5.9385v-12.514h34.471v12.514h-7.6304l3.1846 10.764h25.991l3.2373-10.764h-7.5015v-12.514h34.469v12.514h-6.1143l-21.397 71.369zm49.052 0v-12.444h7.4634l23.977-71.439h22.159l23.871 71.439h7.4634v12.444h-34.436v-12.444h5.9707l-2.5854-7.7812c-1.006-3.004-2.1244-6.347-3.3354-10.043-2.474-7.215-4.4757-13.203-6.3047-18.877l-1.7095-5.2998-1.7944 5.2705c-1.289 3.798-2.4785 7.3851-3.6035 10.765-0.968 2.92-1.8883 5.6833-2.7773 8.2983l-0.50098 1.4956c-1.715 5.085-3.2548 9.6524-4.5908 13.756l-0.78809 2.4155h5.959v12.444zm96.52 0v-12.444h8.4697l21.255-40.419v-18.505h-6.7954v-12.514h34.471v12.514h-6.7266v18.445l21.826 40.479h7.1338v12.444h-33.53v-12.444h5.3525l-11.152-22.399-11.389 22.399h5.5884v12.444zm-129.86-17.358 9.1553-30.801h-18.407z" fill="#b5a67c"/>
  </g>
 </g>
</svg>