<svg width="203" height="280.41" xmlns="http://www.w3.org/2000/svg">
 <g transform="matrix(.87123 0 0 .87123 -4.6346 -8.0321)">
  <g fill-rule="evenodd">
   <path d="m134.65 10.879c-9.4545 0.27661-12.49 3.3926-12.49 3.3926l-0.75 4.2773s-2.7964 0.59308-4.9004 1.0801c-4.016 0.95-8.5176 2.9238-8.5176 2.9238s-38.261-1.7061-39.824 12.129c-0.726 6.397 0.69025 7.9594 1.2812 12.025 1.409 9.383 2.7633 13.462 3.1543 22.939 0.244 6.394-0.63477 14.535-0.63477 14.535s-2.3978-1.395-4.0938-1.834c-1.544-0.402-4.0762-0.44141-4.0762-0.44141l2.1055 5.3477-5.7715-0.1875s-6.2769-12.765-9.5469-17.992c-9.916-15.828-23.206-20.389-26.602-24.588-3.412-4.186-6.8711-12.814-6.8711-12.814s-3.7171 5.4318-5.7891 17.219c-2.093 11.795-0.04492 19.062-0.04492 19.062l-3.8418-1.7832s-0.46864 12.079 1.0684 20.635c1.525 8.552 8.6328 20.037 8.6328 20.037l-3.6797 0.46289s2.6719 9.8702 6.2969 16.033c3.605 6.15 14.154 16.865 14.154 16.865s-2.1283 7.4-2.4023 16.711c-0.33 11.275 1.9941 16.934 1.9941 16.934l5.4258-2.4863s-1.2218 6.9232-0.55078 14.117c0.566 6.45 5.5195 15.633 5.5195 15.633l5.1582-5.7285s1.6641 6.0157 3.5801 9.4707c3.851 6.965 14.631 14.189 14.631 14.189l3.3848-8.2422s8.1581 2.9677 8.6641 16.721c0.294 7.793-4.1641 23.582-4.1641 23.582l6.0625 3.291-5.1191 14.844 4.4492 2.9961-5.1543 16.779 6.3672 3.0469-0.08984 8.291c0.903 8.995 5.668 16.473 5.668 16.473l5.5391-3.1738s0.72713 2.0595 3.2031 5.2715c2.49 3.195 9.541 10.252 9.541 10.252l9.1035-7.7988s3.4214 2.5234 5.6914 3.7754c2.265 1.228 10.873 4.1172 10.873 4.1172s1.4152-1.6807 2.7852-4.7617c1.04-2.336 3.2617-4.3906 3.2617-4.3906s3.5631 1.7253 5.2891 2.8613c1.745 1.132 10.701 3.5449 10.701 3.5449s0.44734-4.0671 1.7773-6.8711c1.316-2.809 2.6777-4.2168 2.6777-4.2168s2.3202 0.95997 4.9922 1.418c2.68 0.483 9.2793 3.8496 9.2793 3.8496s1.5611-3.2206 2.3281-5.3926c0.673-1.911 1.4355-4.998 1.4355-4.998s4.553 0.85556 7.457 1.6016c2.872 0.726 6.5664 1.9824 6.5664 1.9824s1.9778-12.609 0.5918-20.625c-0.845-4.812-3.0723-12.426-3.0723-12.426l3.6934-6.8086-7.375-14.566 6.9863-11.482 3.4277-6.8594 8.0586 1.4199s5.1787-13.497 7.5527-19.393c3.42-8.514 3.0762-19.076 3.0762-19.076s-0.0942 0.53041 4.2148-5.0586c4.299-5.604 5.5098-13.951 5.5098-13.951l3.8027 6.1836s5.3258-10.923 6.2148-20.061c1.17-11.964-1.9238-19.518-1.9238-19.518l6.3379 1.6719s-0.3493-10.577-2.9043-19.588c-2.556-9.005-6.8848-15.857-6.8848-15.857s2.6766-4.4617 5.8086-17.221c3.914-15.891 3.4414-28.953 3.4414-28.953l-5.3848 2.3613s1.4563-13.006 1.0703-20.268c-0.374-7.242-1.9434-15.537-1.9434-15.537l-4.6543 4.4297s-0.71577-5.3735-3.0098-12.689c-2.303-7.319-8.1895-14.715-8.1895-14.715s-2.3985 9.4551-4.5625 14.955c-2.264 5.718-6.707 14.561-6.707 14.561-9.091-6.569-24.756-10.162-24.756-10.162s-2.657-2.918-5.5-4.834c-2.603-1.753-6.2226-3.8652-6.2226-3.8652l0.69531-4.0215s-0.6964-6.9139-20.859-10.172c-4.703-0.75975-8.5672-0.98283-11.719-0.89062z"/>
   <path d="m148.94 238.35c2.7e-4 -4.3e-4 -2.7e-4 -2e-3 0-2e-3h-2e-3c1.4e-4 7e-4 2e-3 1e-3 2e-3 2e-3z"/>
   <path d="m135.56 19.779c-2.5644 0.09613-4.2242 0.56186-4.3672 1.3809v2e-3c-0.282 1.62 5.5967 4.0176 13.137 5.3496 7.521 1.328 13.874 1.085 14.16-0.54297 0.279-1.611-5.6009-4.0097-13.131-5.3477-3.7645-0.6635-7.2344-0.93792-9.7988-0.8418zm-6.5098 4.8184-0.57227 3.2148c0.456 2.092 6.7279 4.7779 14.631 6.1719 7.882 1.386 14.648 1.0085 15.783-0.8125l0.56055-3.209c-1.14 1.82-7.8879 2.1966-15.795 0.80664-7.871-1.39-14.167-4.0749-14.607-6.1719zm-41.918 8.1641c-5.3845 0.10238-9.3405 1.598-9.5645 4.4199-0.788 10.209 23.979 21.177 58.25 27.23v-2e-3c34.269 6.036 65.552 4.1637 66.852-5.9883 0.363-2.842-7.6968-8.8101-14.094-10.08l8.4473 8.3926c-1.286 7.324-32.182 8.3866-60.992 3.3066-28.815-5.073-56.212-17.639-53.465-23.783l6.9551-3.4531c-0.82075-0.04237-1.6195-0.05759-2.3887-0.04297zm-7.2656 18.756s1.9488 12.282 1.9648 20.209c7e-3 7.969-0.52246 12.817-1.9395 20.352l2.5996 4.0488 3.9355 4.2832 3.3262-1.6367c0-1e-6 -0.5875 0.16947 2.8125 4.3555 3.293 4.057 5.3496 5.6465 5.3496 5.6465l3.1484-2.2051s2.7524 3.559 4.8144 5.541c2.509 2.383 7.0586 5.3789 7.0586 5.3789l3.3633-1.8867s3.0004 2.5607 5.1074 3.9277c3.854 2.517 10.713 4.9297 10.713 4.9297s6.9686-0.72179 11.141-2.1758c2.666-0.931 6.5957-2.9746 6.5957-2.9746l2.5254 2.9297s5.0282-2.1836 8.1152-3.8086c3.331-1.743 8.3027-4.8867 8.3027-4.8867l2.3574 2.3496s4.0286-2.2204 6.5606-4.3574c2.532-2.154 4.3418-5.8691 4.3418-5.8691s3.6397-12.862 5.9707-18.246c2.327-5.374 8.6914-16.398 8.6914-16.398s-18.112 7.2924-59.051 0.06445c-43.081-7.601-57.805-19.57-57.805-19.57zm57.781 193.5c0.15171 3.6517 0.80297 7.1376 0.89649 7.6309 0.64007 3.7373 2.3984 10.514 2.3984 10.514s-6.4078 0.44084-15.52-5.5645c-4.6343-3.0646-7.9873-6.8016-10.016-11.381-2.1862 1.0298-4.9844 1.3945-4.9844 1.3945s5.7514 1.5773 4.9648 12.402c-0.51331 7.1279 3.36 11.334 20.02 11.613 14.429 0.26209 21.841-7.4424 17.41-14.168-2.791-4.2233-3.9562-7.7588-3.9375-9.6719-0.76685 0.47464-1.0969 1.0463-1.9043 1.5488-0.75333 0.47877-2.0527 1.0156-2.0527 1.0156s-3.098-1.4696-4.7793-2.8398c-1.0588-0.87706-1.6233-1.4344-2.4961-2.4941z" fill="#c00"/>
   <path d="m216.16 35.818s-0.35502 13.047-4.541 29.129c-3.439 13.185 0.48827 31.412 0.48828 31.412l6.293-2.7656s-1.0243 4.9113-0.48828 9.0293c0.578 4.519 2.7812 7.6621 2.7812 7.6621s2.1315-5.7707 3.4785-11.805c1.348-6.0999 1.7578-13.205 1.7578-13.205l-5.8145 1.7344s1.8502-10.221 2.6602-16.646c0.58-4.7436 0.24414-12.357 0.24414-12.357l-5.0117 4.9102c0.382-3.85 0.34982-5.4733 0.38281-9.8633 5e-3 -6.345-2.2305-17.234-2.2305-17.234zm-196.48 19.154c-1.232 4.998-1.5507 9.8362-0.51367 15.99 0.592 3.612 1.7229 5.5419 2.5879 9.0059-2.952-1.352-3.998-1.6113-3.998-1.6113s1.0797 9.354 2.8457 15.125c2.3899 7.779 10.287 18.361 10.287 18.361l-6.4395 0.52539s2.1232 4.1083 3.7832 6.7363c2.69 4.241 8.7207 8.4316 8.7207 8.4316s0.54141-5.7757 0.06641-11.303c-0.542-6.1344-4.2598-13.436-4.2598-13.436l6.3281 1.668s-6.0829-14.041-10.629-19.525l6.5957 1.7051s-1.0847-7.9117-7.3887-15.928c-7.747-9.8099-7.1683-13.509-7.9863-15.746zm73.227 11.475-4.2168 23.82 3.9043 1.5488 2.1113-11.863 1.4727 13.271 3.4336 1.3633 4.209-23.83-3.9043-1.5488-2.0703 11.725-1.4805-13.119zm15.99 6.5176-3.5371 2.4121-3.0215 17.09 2.6914 4.4277 4.6777 1.5 3.5644-2.416 1.1524-6.5117-4.1367-1.3105-1.0176 5.8105-2.5684-0.81836 2.7695-15.727 2.5742 0.81641-0.84765 4.7578 4.1367 1.3047 0.95118-5.4043-2.4219-4.3555zm17.494 5.0547-3.6016 2.6309-1.2441 7.1055 2.6172 4.1699 3.5312 1.1797-0.99414 5.625-2.5-0.61719 0.57226-3.2246-4.3008-1.0332-0.68359 3.8984 2.3867 4.1094 5.1055 1.2324 3.6055-2.6387 1.2754-7.1992-2.5742-4.1602-3.5762-1.2461 0.95312-5.4668 2.5195 0.61133-0.56836 3.2598 4.3027 1.0371 0.67578-3.9336-2.6426-4.1699zm9.2559 2.1582-0.71484 4.0625 2.7617 0.41406-3.4961 19.775 4.3887 0.66406 3.4766-19.783 2.7578 0.41992 0.71875-4.0566zm13.092 1.8926-7.1836 23.592 4.2793 0.33398 1.2148-4.4375 3.373 0.26563-0.36719 4.5215 4.3262 0.33399 1.0547-24.074zm30.727 0.08984-8.8281 0.52734-4.1934 23.824 8.9375-0.52539 0.70117-4.0547-4.3887 0.26953 1.1504-6.5625 3.6113-0.2207 0.70703-4.0352-3.6113 0.20898 0.91406-5.1367 4.2793-0.26172zm-20.77 0.55469-0.71484 4.0469 2.8379 0.01758-3.498 19.791 4.4785 0.0371 3.4863-19.775 2.8438 0.01953 0.70117-4.0508zm-7.5215 3.6836-0.34961 11.352-2.7461-0.22461zm42.686 13.361-2.7637 3.834-1.3672 9.1894-2.9238 0.80469-2.127 10.91-3.334-0.50782-4.6387 7.7637-4.0371-1.791-4.0371 7.1367-4.668-0.94531-2.5195 7.4141-5.748 0.48828-1.25 5.5781 7.3945 1.8516s2.7183-4.4768 8.0703-8.2168c5.356-3.75 11.358-4.2894 18.854-14.609 6.98-9.6224 6.4629-17.895 6.4629-17.895 0 1e-5 14.098 11.368 13.268 34.328-0.664 17.83-11.873 26.602-11.873 26.602l3.6465 7.543 2.3262-5.3828 4.4199-0.0469 0.83203-7.8457 5.1309-1.3418-1.1562-8.7207 4.709-6-3.2617-5.416 2.9219-7.125-3.6543-3.1563 1.0488-8.6211-4.3301-2.1094 0.71289-7.6113-4.9062-1.4434-2.5156-7.6094-3.9394 0.41211zm-141.32 12.266-0.78906 6.5176 3.5312 8.7226-3.0664 2.9668 2.6172 8.5508-3.3379 7.9941 3.3594 5.5664-1.9375 11.012 4.5254 3.8223 2.0801 9.4238 5.0098 1.2344 2.7051 8.0156 6.9473 1.2188 5.125 6.2012 1.6855-8.8574s-13.25-5.0787-19.084-21.93c-3.887-11.218-0.20803-20.453 0.79297-27.643 0.923-6.721-1.9961-12.209-1.9961-12.209s8.4613 0.41348 18.738 7.9805c10.261 7.587 11.433 11.538 18.809 18.838 3.004 2.962 7.4512 5.9356 7.4512 5.9356l6.1758-2.2129-2.1543-4.9746-6.4726-1.9336-3.5391-10.139-5.9121-0.37109-6.5371-10.383-4.1973 0.36914-6.7285-8.1738-4.3457 2.0098-8.8203-6.8789-4.2051 3.2441zm145.39 9.9844s-1.4672 5.1551-3.3262 7.9551c-1.619 2.417-5.1055 5.4414-5.1055 5.4414s-0.10032 0.53514-0.57032 4.8691c-0.51 4.3281-3.9883 10.047-3.9883 10.047s6.9244-4.8337 9.7754-8.4707c2.843-3.645 3.1816-7.166 3.1816-7.166s1.7628 8.862-0.95117 16.377c-2.708 7.5337-8.627 11.447-8.627 11.447l3.7539 3.6953c7.0054-6.884 10.861-11.598 11.061-23.699 0.216-12.102-5.2031-20.496-5.2031-20.496zm-129.77 8.9766s0.52537 6.2894-0.89062 10.607c-2.074 6.298-2.9714 10.81-1.0254 16.85 3.73 11.514 8.3359 14.656 17.047 19.201l1.9355-4.2383s-6.3865-2.7218-10.939-9.3008c-6.718-9.738-1.7891-22.299-1.7891-22.299s-0.31028 4.9175 4.1367 10.938c2.7649 3.721 9.3105 7.8574 9.3105 7.8574 1e-6 0-5.7276-4.7427-6.2676-12.553-0.309-4.348 1.0527-7.541 1.0527-7.541s-2.9674-3.2131-5.1504-4.9531c-2.666-2.102-7.4199-4.5684-7.4199-4.5684zm66.941 20.479s-2.1592 5.9652-16.35 8.1582c-9.482 1.461-16.39 3.9506-21.57 10.635l5.7832 0.64063-10.748 6.4355c-5.112 9.736-2.5254 18.818-2.5254 18.818s2.2848-2.4319 3.9688-3.7109c2.1-1.597 5.8301-3.3926 5.8301-3.3926s-2.7282 4.5039-4.7852 9.9219c-2.045 5.427-2.8306 13.765-1.3066 19.914 1.534 6.072 2.1064 12.991 8.5664 17.229 8.299 5.452 16.204 3.4889 24.271-6.2051 6.363-7.662 21.356-14.564 36.914-14.354l-2.2109 3.6445c5.882 1.046 14.37 4.2438 17.891 6.4688 8.437 5.332 16.932 5.7363 16.932 5.7363s8.8967-16.906 6.1387-27.871c-1.118-4.418-3.4354-10.367-7.8594-15.498-3.96-4.586-12.439-9.334-12.439-9.334l9.168-0.30664s-0.4503-4.277-8.5293-11.166c-9.34-7.993-16.357-7.2938-27.059-9.1758-14.192-2.513-20.08-6.5879-20.08-6.5879zm18 74.633c-5.351 0.168-9.2168 2.2305-9.2168 2.2305l-7.9082 4.1387s12.537-2.2086 19.152-2.6816c5.5809-0.39104 15.119 0.72656 15.119 0.72656s-10.495-4.6191-17.146-4.4141zm21.756 7.9785s0.3743 4.7635 0.1543 8.1035c-0.238 3.4299-1.4473 11.289-1.4473 11.289s4.0512-0.79185 7.7441-6.9648c3.373-5.643 3.5879-9.8281 3.5879-9.8281s-4.0645-0.44011-5.8945-1.0371c-1.825-0.592-4.1445-1.5625-4.1445-1.5625zm-11.145 0.50195c-2.929 0.139-5.6367 1.5371-5.6367 1.5371-1.271-0.80198-2.995-0.98945-4.625-0.93945-1.856 0.07-3.171 0.60081-4.418 1.7578 0 0-3.4057-1.0468-5.5527-0.67382-2.098 0.353-4.8984 2.3594-4.8984 2.3594s0.9756 2.0704 1.9336 3.1074c1.343 1.462 4.2949 2.6836 4.2949 2.6836s1.1479-0.64557 2.6309-2.9766c0.8235-1.2652 1.0496-2.3759 1.5-3.084 0.1439 0.7077 0.83577 1.6091 1.582 2.5352 1.896 2.427 3.543 3.1719 3.543 3.1719s2.3696-1.5523 3.0996-3.1543c0.44703-1.007 1.0638-2.4643 1.1348-3.3633 0.459 0.927 1.8484 2.4105 2.6484 3.1875 1.288 1.314 3.3242 2.3418 3.3242 2.3418s1.7208-1.501 2.7578-3.623c0.94595-1.92 1.3066-3.6348 1.3066-3.6348s-2.77-1.3334-4.625-1.2324zm-32.33 2.0352s-3.2768 2.699-5.5098 4.209c-1.775 1.207-4.6797 2.8711-4.6797 2.8711s0.48777 2.3981 3.6348 6.0781c3.888 4.557 8.1094 6.1621 8.1094 6.1621s-1.4219-4.0903-1.9219-9.4453c-0.47599-5.14 0.36719-9.875 0.36719-9.875zm25.625 26.725s-0.66636 4.9354-1.3184 7.0273c-0.64 2.094-3.6894 8.9199-3.6894 8.9199s2.3048 1.8018 4.0508 2.0938c1.866 0.30997 4.8203-0.79883 4.8203-0.79883s0.51938-2.1508 0.10938-6.8848c-0.47-5.8666-3.9727-10.357-3.9727-10.357zm-55.896 1.0391-5.8496 1.8516c-2.363 3.124-3.5164 5.0678-5.1074 8.6328-1.722 3.8502-2.4405 6.1818-3.1855 10.344 2.051 0.668 4.709 2.9004 4.709 2.9004-1.738 9.8942 0.42774 16.344 0.42774 16.344l6.0586-3.0723s1.1835 3.6929 2.2695 5.9199c1.972 4.0459 6.6152 9.4394 6.6152 9.4394l7.3633-8.3223s3.4424 3.3442 6.1504 5.1992c2.715 1.853 6.8594 3.4141 6.8594 3.4141-1e-5 0 1.7246-3.5495 2.2266-4.8535 0.487-1.29 3.1523-4.5039 3.1523-4.5039s2.9041 1.9488 5.6641 3.5488c2.75 1.582 8.2949 3.9805 8.2949 3.9805s0.74961-2.6289 1.8496-5.7539c1.103-3.105 3.4551-5.459 3.4551-5.459s2.9462 0.6695 6.3691 1.5625c3.433 0.88 7.1621 3.0371 7.1621 3.0371l2.8203-8.8945s3.9537 0.15697 12.973 2.293c0.583-11.204-4.2656-20.1-4.2656-20.1l1.8516-5.4277-3.4297-7.2168-8.2344 6.9961 0.30468 4.4062c0.77599 1.208 1.4946 2.7616 1.5996 3.3066 0.425 2.288 4.2571 12.779-25.631 14.957-31.814 2.307-39.763 0.0876-43.959-5.8184-5.363-7.5905 1.2617-14.854 1.2617-14.854 0-1e-5 -0.6468-4.2609-0.5918-7.0039 0.06-2.685 0.81641-6.8535 0.81641-6.8535zm10.768 3.0117s-2.2601 3.7937-2.4551 9.2207c-0.122 4.214 1.0176 6.7988 1.0176 6.7988s1.8608 1.4954 4.6328 1.4434c2.763-0.063 5.1055-1.9336 5.1055-1.9336s-4.0149-4.5687-5.2949-7.5547c-0.769-1.8-3.0059-7.9746-3.0059-7.9746zm33.826 7.0488s-1.1585 0.33746-3.2695 2.6894c-0.87698 1.003-1.2342 1.4754-1.8242 2.5274-0.64-0.917-1.1095-1.3909-1.8555-2.2129-1.933-2.117-3.666-2.7656-3.666-2.7656s-1.5754 1.3416-2.2344 2.6836c-0.425 0.86499-1.0839 1.7821-1.5469 2.9961-0.604-1.08-1.0314-1.6809-1.8984-2.6309-1.037-1.104-3.0684-2.5332-3.0684-2.5332s-2.4786 2.1445-3.0996 3.8555c-0.617 1.73-0.88086 3.3008-0.88086 3.3008s1.9112 0.44407 4.2832 0.45507c3.412 9e-3 4.8633-1.1992 4.8633-1.1992 1.226 0.71197 2.7771 1.1992 4.3711 1.1992 1.84-0.016 3.2417-0.50303 4.4277-1.457 0 0 3.4822 0.97924 5.5742 0.61524 1.343-0.23397 3.1797-1.2031 3.1797-1.2031s-0.46783-1.9114-1.0488-3.0664c-0.678-1.357-2.3066-3.2539-2.3066-3.2539zm-39.646 7.9727c-2.988 2.614-2.4938 5.8951-0.92578 7.3281 4.43 4.018 12.283 5.0644 18.605 2.1894 0 0 7.5402 0.80574 14.949-0.0723 4.1222-0.479 12.299-2.6621 12.299-2.6621 2.413 1.515 6.1631 1.7407 9.2051 0.2207 1.587-0.789 2.4311-2.1159 1.9531-3.5059-2.177 0.60202-3.8923 0.57816-5.8203 0.0762-3.234-0.85-5.1973-2.0352-5.1973-2.0352s-2.7904 2.1367-11.734 2.7617c-8.9392 0.64-16.467 0.23828-16.467 0.23828s-2.6657 1.7776-6.5957 2.1836c-2.66 0.281-5.9127-0.41961-8.8457-2.4746-0.53798-0.721-0.76502-1.1844-1.041-2.0254-0.27799-0.832-0.38281-2.2226-0.38281-2.2226z" fill="#fff"/>
   <path d="m157.23 184.68c-1.359 0.043-2.8198 0.13332-4.5098 0.25782-5.418 0.407-10.41 0.80101-13.73 2.416-3.325 1.624-1.4748 4.9798 1.1602 5.8398 3.655 1.179 6.5786-1.2761 17.395-1.6211 11.929-0.371 15.251 2.6759 16.641 1.0039 1.405-1.692 0.17639-5.9921-4.0996-6.7461-5.625-0.99224-8.7785-1.2793-12.855-1.1504zm-19.045-25.771c-8.394 5.4179-20.677 6.278-25.088 9.373-4.409 3.082-4.8574 8.8047-4.8574 8.8047s14.19-8.5444 32.695-10.232c16.017-1.471 30.396 2.8672 30.396 2.8672 1e-5 0-3.4754-5.0975-11.773-6.7695-11.465-2.288-14.196-0.83797-21.373-4.043zm15.049 11.756c-3.7182-0.0348-7.7521 0.15139-11.977 0.65039-8.464 0.994-22.34 4.6119-24.676 6.9629-2.9359 2.93-4.7773 8.2598-4.7773 8.2598s11.813-7.567 32.342-9.75c20.19-2.137 29.662 0.8164 29.662 0.8164s-4.5591-5.4888-10.498-6.2578c-2.9583-0.39-6.3584-0.64684-10.076-0.68164zm4.4082 9.5176c-1.997 0.024-4.212 0.0962-6.666 0.23047-17.823 0.9657-22.499 5.4793-22.016 10.529-11.189 7.132-2.6832 23.842 9.5078 19.613 12.167-4.213 19.414-0.0653 26.178-3.4453 3.863-1.941 4.7598-4.6172 4.7598-4.6172s9.3039-0.0547 10.961-5.8027c2.824-9.7603-5.4356-14.471-5.4356-14.471s-3.3101-2.2054-17.289-2.0371zm31.844 16.809-0.51562 4.0898 4.8555 3.7988c0.076-1.978-0.2534-3.2162-1.2754-4.9082-0.879-1.413-1.6115-2.1545-3.0645-2.9805zm-80.609 1.8828c-1.398 0.917-2.0937 1.6867-2.8867 3.1387-0.941 1.7299-1.1962 2.9755-1.0312 4.9355l4.625-4.0098zm78.646 5.125-1.7812 4.4727 5.3359 5.084c0.30701-2.413 0.0428-3.936-0.99219-6.125-0.723-1.505-1.3146-2.3136-2.5606-3.4316zm-75.297 1.4062c-1.025 1.308-1.4838 2.1925-1.9238 3.8125-0.64005 2.312-0.61325 3.8591 0.0937 6.1621l4.3496-5.8945zm70.744 5.332-2.8184 3.916 3.9609 6.2109c0.85998-2.26 0.98667-3.808 0.51367-6.168-0.334-1.648-0.73425-2.569-1.6562-3.959zm-65.646 1.2598c-0.627 1.544-0.80915 2.5333-0.78515 4.1953 0.012 2.404 0.45239 3.8843 1.7754 5.9043l2.5547-6.8691z"/>
  </g>
 </g>
</svg>
