<svg xmlns="http://www.w3.org/2000/svg" height="160.01" width="250" viewBox="0 0 250.00333 160.01729">
 <path d="m122.79 1.1297c-4.1417 0.03954-8.2835 0.19952-12.41 0.47686v6.16c1.041 0.06291 1.7675 0.24266 2.1944 0.5385 0.41941 0.29284 0.63661 0.75795 0.63661 1.3908 0 0.33404-0.015 0.6104-0.0374 0.8261-0.0225 0.22094-0.0524 0.42166-0.10485 0.6089-1.7975 7.1593-3.5875 14.336-5.3775 21.534-1.9623-6.9848-3.917-13.941-5.8643-20.877-0.0749-0.20671-0.12732-0.40594-0.16477-0.59243-0.03-0.19024-0.0524-0.3917-0.0524-0.61115 0-0.58194 0.2172-1.0568 0.63662-1.4178 0.4269-0.36025 1.1309-0.66882 2.1196-0.91448v-6.1568c-6.199 0.5919-12.378 1.4528-18.512 2.5762v6.1602c0.9362 0.06141 1.6402 0.27861 2.1046 0.63586 0.46436 0.36175 0.86131 1.0845 1.1908 2.1652 2.7487 9.0579 5.5048 18.169 8.261 27.335 6.1639-0.7894 12.358-1.3107 18.559-1.5683 2.6288-9.6443 5.2652-19.243 7.9015-28.791 0.2846-0.95492 0.66657-1.6867 1.1384-2.2049 0.47185-0.51753 1.1085-0.89021 1.9098-1.1159v-6.1584c-1.3781-0.01333-2.7562-0.01318-4.1342 0zm13.871 0.31299c-2.539 9.0871-5.0854 18.223-7.6244 27.401-0.39695 1.4605-0.83135 2.4409-1.2882 2.9434-0.46436 0.50555-1.116 0.84333-1.9698 1.0238v6.4088c5.5198 0.02022 11.04 0.25764 16.544 0.70477v-6.4126c-1.0186-0.11309-1.7526-0.33254-2.2169-0.66582-0.45687-0.33404-0.68904-0.81636-0.68904-1.4507 0-0.14979 0.015-0.31082 0.0374-0.48607 0.03-0.17376 0.0599-0.39395 0.10486-0.65833 0.15728-0.47035 0.30707-0.94369 0.46435-1.417 3.4677 0.24191 6.9279 0.57146 10.388 0.98413 0.14979 0.55048 0.29958 1.101 0.45686 1.6559 0.0449 0.22094 0.0824 0.4314 0.10486 0.62613 0.0225 0.19473 0.0375 0.358 0.0375 0.48982 0 0.51978-0.24716 0.90474-0.72649 1.1646-0.48683 0.26214-1.1384 0.36774-1.9548 0.32879v6.4073c6.089 0.66657 12.163 1.5908 18.192 2.7794v-6.4111c-0.81637-0.34003-1.4455-0.78341-1.8874-1.3242-0.44188-0.54374-0.83883-1.42-1.1908-2.6363-2.76-9.939-5.53-19.82-8.32-29.65-6.12-0.8659-12.29-1.4708-18.46-1.805zm-55.026 4.0491c-12.47 2.5474-24.76 6.2132-36.719 10.988v6.1564c1.0044-0.23442 1.6896-0.19024 2.0626 0.12732 0.36699 0.31531 0.55123 1.2523 0.55123 2.8026v17.62c0 1.5533-0.18424 2.6288-0.55123 3.2295-0.37298 0.60516-1.0583 1.1856-2.0626 1.7526v6.4073c11.959-4.7739 24.249-8.4393 36.719-10.986v-12.766c-3.8422 0.78416-7.6611 1.6739-11.461 2.6678v1.3781c0 1.5855-0.39694 2.7696-1.1923 3.5576-0.7924 0.7894-2.2109 1.4597-4.2518 2.0499-1.7616 0.51154-3.5201 1.0455-5.2734 1.6043v-9.1598c4.7349-1.5054 9.511-2.849 14.315-4.0174v-6.4096c-4.8038 1.1714-9.5799 2.5113-14.315 4.0167v-7.9547c1.4807-0.47484 2.9651-0.92721 4.4511-1.3661 2.3352-0.68904 3.9665-0.83584 4.8862-0.5018 0.91898 0.34003 1.3803 1.2455 1.3803 2.7105v0.40219c3.8002-0.99387 7.6192-1.8866 11.461-2.6708v-11.64zm89.178 0.56906v6.1553c1.0485 0.3962 1.76 0.87029 2.142 1.4193 0.38197 0.54374 0.56921 1.5923 0.56921 3.1464v17.619c0 1.5503-0.18724 2.5158-0.56921 2.8835-0.38197 0.37223-1.0935 0.52652-2.142 0.4636v6.4088c5.8718 1.277 11.706 2.8048 17.473 4.5769 7.9839 2.4678 13.234 3.5366 15.893 2.5719 2.6588-0.94743 3.977-4.2518 3.977-9.9926v-9.1148c0-5.4494-1.3856-9.8061-4.1792-12.972-2.7936-3.1524-7.9764-6.2081-15.691-8.5898-5.767-1.7743-11.601-3.2988-17.473-4.5758zm-25.809 3.1812c1.2283 4.9723 2.4491 9.9537 3.6774 14.943-2.4341-0.26813-4.8757-0.49881-7.3173-0.68455 1.2208-4.7611 2.4266-9.5178 3.6399-14.259zm40.676 8.1479c1.1609 0.3243 2.3143 0.65309 3.4677 0.99611 0.22469 0.0734 0.44938 0.14605 0.68155 0.2157 2.5015 0.79464 4.2092 1.766 5.1229 2.867 0.92122 1.0987 1.3706 2.9232 1.3706 5.4577v11.491c0 2.1855-0.47184 3.4512-1.423 3.8092-0.95118 0.36025-2.8386 0.05243-5.6846-0.84033-1.1759-0.36549-2.3517-0.72424-3.5351-1.0673v-22.929zm-147.16 1.766c-5.336 2.33-10.595 4.888-15.769 7.671v6.1572c0.96616-0.38496 1.6462-0.40594 2.0432-0.0704 0.40294 0.33329 0.60141 1.1774 0.60141 2.5262v11.416c-4.128-4.995-8.202-9.846-12.213-14.558-4.169 2.528-8.2711 5.204-12.307 8.039 0.01296 2.0447 0.0212 4.0901 0.03056 6.1362 0.87351-0.44413 1.4836-0.55872 1.83-0.34602 0.34549 0.2142 0.51933 0.87703 0.51933 1.9982v18.396c0 1.5039-0.16994 2.6109-0.50322 3.3246-0.3389 0.71526-0.95298 1.432-1.8461 2.1562-0.0094 2.1435-0.0176 4.2848-0.03071 6.4343 4.843-3.4063 9.7919-6.5886 14.829-9.55-0.0097-2.1285-0.01947-4.2593-0.02921-6.3879-0.95267 0.44114-1.6013 0.51528-1.9563 0.21196-0.3595-0.30258-0.5355-1.1616-0.5355-2.5802v-11.365c4.0107 4.7784 8.0843 9.6975 12.212 14.76 3.434-1.7863 6.9061-3.4774 10.415-5.0689v-27.682c0-1.635 0.18874-2.7854 0.5767-3.4385 0.38496-0.65908 1.0927-1.3361 2.133-2.0259v-6.1542zm183.68 5.158c-2.3293 8.052-4.6735 16.15-7.0327 24.288-0.36699 1.2964-0.77143 2.1016-1.1983 2.4169-0.4269 0.31531-1.041 0.38646-1.8349 0.21495v6.4103c5.1528 2.2791 10.231 4.7679 15.226 7.4686v-6.4073c-0.92121-0.52876-1.5878-1.0538-2.0072-1.5721-0.41942-0.52277-0.62913-1.0957-0.62913-1.7338 0-0.14979 0.007-0.30558 0.03-0.4696 0.0225-0.16327 0.0524-0.36849 0.0974-0.61265 0.14231-0.40968 0.27712-0.82011 0.41942-1.2298 3.1606 1.6634 6.2912 3.4108 9.3844 5.2412 0.13481 0.61564 0.26962 1.2298 0.41192 1.8454 0.0375 0.24266 0.0749 0.4681 0.0899 0.67032 0.0225 0.20147 0.0375 0.37298 0.0375 0.5048 0 0.51678-0.2172 0.80663-0.6516 0.86879-0.4269 0.06067-1.0111-0.09886-1.7526-0.47709v6.4058c5.4749 3.1696 10.845 6.5983 16.095 10.29v-6.4133c-0.71151-0.6808-1.2582-1.3803-1.6477-2.1098-0.38197-0.72349-0.73398-1.7675-1.041-3.1262-2.4191-11.083-4.8607-22.111-7.3323-33.087-5.4449-3.3928-11.01-6.5204-16.664-9.3867zm7.5944 11.225c1.1085 5.4719 2.2094 10.953 3.3104 16.449-2.187-1.271-4.3889-2.4993-6.6133-3.6879 1.1085-4.2646 2.2094-8.5194 3.3029-12.761zm-87.658 18.173c-1.0186 0.14754-3.6549 0.1041-3.1531 3.6055 0.22469 1.5893 0.51678 4.7784 0.9362 6.6268 0 0-27.322 0.06441-40.946-2.2034l3.932 3.7388s-29.986 3.8789-42.613 2.9988l4.7364 4.0481s-15.95 4.2848-43.384 7.73c0 0 18.594 2.142 29.161 9.4818 38.565-8.2236 76.566-7.3098 76.566-7.3098s-31.516 3.9695-54.576 10.171c0 0 5.212 0.72649 7.0919 2.6588 0 0-31.304 7.1151-61.838 20.432 0 0 17.474 0.87628 32.523 3.3628l1.6882 0.30708c37.011-14.358 71.201-16.911 71.201-16.911-31.718 6.089-57.269 19.66-57.269 19.66 5.8643 1.423 7.4574 1.8275 13.111 3.6399 0 0 33.351-16.148 65.646-18.791 0 0-4.284 2.5465-5.3476 6.9653 0 0 12.627-4.0069 25.742-3.228 0 0-13.114 2.1495-23.69 7.8341-5.6696 3.0483-14.088 10.171-14.088 10.171s0-6.8455 2.7412-11.354c0 0-18.005 3.4078-32.445 16.282 0 0 18.147 9.3919 21.855 23.285 0 0 0.33703 1.5504 0.36699 1.8874l0.03 0.33703c25.839-41.103 90.781-27.06 90.781-27.06s2.2019 0.32206 6.0516-2.0821c0 0 1.0785-0.719 1.0485-1.6103-0.007-0.29958-0.39695-0.53925-0.95867-0.719 0.19473-1.2208 0.19473-1.9772 0.12733-2.187-0.0974-0.31456-0.26214-0.0599-0.26214-0.0599-0.4269 0.69653-0.87628 1.3406-1.3107 1.9173-0.43439-0.0674-0.87628-0.12732-1.3032-0.16477 0.23217-1.5953 0.29958-2.9509 0.23217-3.1606-0.0974-0.31457-0.26213-0.0524-0.26213-0.0524-0.72649 1.1759-1.5054 2.2019-2.1944 3.0183-1.3931-0.4344-2.2918-0.83883-2.9434-1.2358 0.19473-1.0935 0.22468-2.2544 0.29209-3.595 0.015-0.26213 0.0599-0.29958 0-0.35201-0.0974-0.0974-0.3595 0.17975-0.3595 0.17975-0.60666 0.74896-1.3032 1.4305-1.9473 1.9922-0.45686-0.44189-1.0261-0.92871-1.9548-1.4829 0.35201-1.5878 0.3595-2.127 0.23218-3.8122-0.0225-0.25464-0.0449-0.43439-0.17975-0.44188-0.1498-0.0225-0.41193 0.31456-0.41193 0.31456-0.98114 1.0261-2.1795 1.82-3.0857 2.3442-0.59168-0.20222-1.1609-0.37448-1.7376-0.51678-0.015-0.14979-0.0225-0.29958-0.0375-0.45686-0.20971-1.8574-0.63661-2.9584-0.85381-3.0782-0.2172-0.11984-0.53176 0.32205-0.53176 0.32205-0.68904 1.0485-1.775 1.9473-2.8011 2.6288-1.2508-0.0524-2.4716-0.015-3.6699 0.0449 0 0-1.1908-0.015-1.5503-0.69653-1.0635-1.9922 1.1309-4.1342 1.1309-4.1342 1.5653-1.3032 4.9431-3.7298 9.8263-4.0668 0.15729 0.41192 0.36699 0.85381 0.65909 1.4305 0 0 0.44188 0.97364 0.69653 1.0336 0.25464 0.0524 1.1684-0.44189 2.187-1.6178 0.16477-0.18724 0.31456-0.41193 0.45686-0.6441 0.65908 0.10485 1.3406 0.26213 2.0447 0.45686-0.1498 0.56921-0.32955 1.1834-0.5767 1.82 0 0-0.29958 0.66657 0.1423 0.54674 0.31456-0.0824 1.3706-0.59917 2.6139-1.6252 0.46436 0.17975 0.9362 0.38197 1.4155 0.60666-0.14979 0.65908-0.3595 1.3856-0.6441 2.1345 0 0-0.29958 0.66657 0.13481 0.54674 0.31457-0.0824 1.3556-0.58419 2.5839-1.5953 0.03 0.015 0.0599 0.03 0.0899 0.0524 0.68156 0.39695 1.3481 0.73398 1.9847 1.0261-0.48682 2.0147-1.1159 4.1642-1.8649 5.767 0 0-0.0824 0.16477 0.03 0.23218 0.11234 0.0674 0.25464-0.0599 0.25464-0.0599 0.16477 0.007 2.4566-2.1121 4.4413-4.9206 0.92871 0.23217 1.7975 0.36699 2.6064 0.41941-0.14979 0.74896-0.38197 1.6852-0.71151 2.539 0 0-0.0599 0.19473 0.0225 0.2172 0.12732 0.0225 1.2582-0.75645 2.9584-2.8086 2.5165-0.28461 4.1492-1.2657 4.7035-1.6103 0.81636-0.51678 0.93619-0.67407 0.93619-0.67407 0.5093-0.44188 0.88377-0.93619 1.3406-1.6252 3.3703-5.0405-0.7939-6.8904-0.7939-6.8904-2.3442-1.0635-4.681-1.8275-4.681-1.8275-3.947-1.805-14.71-5.9018-19.525-11.886-6.7332-8.3733-10.186-10.373-10.186-10.373-6.456-3.7223-17.803-10.015-23.338-12.124-0.52427-0.23293-1.2433-0.56621-1.775-0.78566-18.979-8.0715-26.536-15.134-27.554-14.983zm-1.4904 13.829c1.1609 0.03595 2.5464 0.67331 2.5464 0.67331s9.2272 4.0451 16.402 8.7021c0 0 0.8613 0.58419 0.47933 1.0635-0.17975 0.22469-0.65159 0.34452-0.65159 0.34452-3.0333 1.0186-9.5942 0.6516-9.5942 0.6516s2.0147 3.198 4.8233 4.7034c0 0-3.0033 0.65909-4.1792 0.59168 0 0 2.8011 1.3856-0.47185 2.9958 0 0-1.3256 0.89875-2.5315-0.6441-1.2058-1.5354-6.7481-7.2349-8.3434-15.904 0 0-0.50929-2.351 0.49431-2.9666 0.27712-0.16777 0.63662-0.22319 1.0261-0.21121zm50.113 21.149c0.19473-0.03 0.36699 0.12733 0.36699 0.12733l20.102 13.331c-14.298-7.8116-17.061-2.9584-17.061-2.9584s-0.13481 0.0974-0.2172 0c-0.0824-0.0974 0.015 0.007-0.015-0.26213-0.55422-4.6435-3.3404-9.5268-3.3404-9.5268s-0.26962-0.33703-0.0225-0.59916c0.0599-0.0674 0.12733-0.10486 0.18724-0.11235zm5.0854 5.2128s1.101 1.4754 0.8613 2.6663c0 0 2.127 0.83883 2.9284-0.48682 0 0-1.8949-1.5878-3.7897-2.1795zm28.61 11.729c0.71151-0.0225 1.3781 0.0749 1.8125 0.23218 1.1459 0.4344 4.4937 1.6477 3.1007 4.6211-1.3931 2.9734-2.7786 3.3104-2.7786 3.3104s-0.67407 0.13481-0.9362-0.17975c-0.26214-0.32205-0.36699-0.59168-0.11983-0.74147 0.24715-0.1423 2.127-0.99612 2.2244-2.1196 0.0974-1.1234-0.5767-1.4455-0.83134-1.453-0.25465-0.007-0.91373 0.16477-0.58419 0.99611 0.32954 0.82386-0.44188 1.3856-0.44188 1.3856s-0.56172 0.45686-0.92871 0.0674c-0.37448-0.38197-2.494-2.0821-2.8835-2.3368 0 0-1.2807-0.91373-0.55423-2.4266 0.44938-0.95118 1.7376-1.3107 2.9209-1.3556zm-24.101 0.96616c1.0635-0.0375 2.127 0.15728 3.1381 0.53176 0.77143 0.2846 2.3517 0.92122 2.6288 1.805 0.007 0.0225 0.007 0.0375-0.007 0.0599-0.18724 0.2097-2.1495-0.32206-2.2394-0.34452-1.116-0.20222-2.2544-0.23967-3.3853-0.12733-1.1459 0.11235-2.2694 0.38197-3.3628 0.74896-0.77892 0.26963-1.835 1.0261-2.6738 0.83883-0.007-0.58418 0.76393-1.2957 1.2358-1.6702 0.82385-0.66658 1.7526-1.2058 2.7711-1.5279 0.62164-0.19473 1.2582-0.29958 1.8949-0.31456z" fill="#011e41"/>
</svg>
