<svg xmlns="http://www.w3.org/2000/svg" width="250" height="184" viewBox="0 0 250 184">
 <g transform="matrix(1.84 0 0 1.84 .618 .662)">
  <path d="m132 86.1h-3.34l0.286-1.43 3.24-0.0187 2.2-12.6h-2.52c0.452-0.391 0.82-0.896 1.08-1.49 0.464-1.08 0.477-2.28 0.052-3.31-0.17-1.52-1.19-2.85-2.56-3.37-0.892-0.895-2.16-1.41-3.51-1.41-0.26 0-0.523 0.02-0.773 0.0587-0.33 0.0525-0.725 0.169-1.1 0.361l-4.52-0.818c-0.789-0.595-1.65-0.739-2.11-0.815l-6.16-1-0.107-0.0113c-0.386-0.0425-0.745-0.0287-1.1 0.0325-0.775-0.415-1.57-0.532-2.32-0.584l-0.282-0.0188-0.274 0.0675c-0.422 0.105-0.949 0.326-1.84 0.778-1.79-0.442-3.58-0.886-5.27-1.3 0.2-2.4 0.171-5.65-0.619-9.42 0.384-2.68 0.158-4.73-0.147-6.55-0.42-2.47-1.95-4.91-4.09-6.52-1.09-0.822-2.47-1.56-4.19-2.24-0.286-0.362-0.689-0.641-1.18-0.802-0.686-0.231-1.37-0.448-2.04-0.648-0.498-1.05-1.4-2.1-3.27-2.01h-0.0038c-0.202 0-0.238-0.0038-0.826-0.764-0.0375-0.0475-0.0762-0.0963-0.116-0.148 0.182-1.6 0.449-4.4 0.589-7.27 5.28-3.34 8.11-7.71 8.44-9.86 0.0738-0.482 0.304-1.95-0.625-3.03-0.374-0.435-1.06-0.954-2.24-0.954-0.425 0-0.891 0.0675-1.43 0.208-0.899 0.234-2.01 0.902-3.29 1.67-0.56 0.338-1.15 0.694-1.72 1.01-0.176-0.616-0.316-1.12-0.441-1.56-0.15-0.544-0.279-0.997-0.414-1.46-0.0262-0.085-4.22-8.69-7.05-8.7-1.09 0-1.74 0.634-2.13 1.01-0.314 0.302-0.42 0.406-0.849 0.448-0.156 0-0.459-0.144-0.808-0.31-0.852-0.405-2.02-0.961-3.91-0.961l-0.174 0.00125c-2.94 0.0512-9.6 7.78-9.99 8.8l-0.158 0.409c-0.269 0.704-0.608 1.59-1.01 2.66-1.66-0.861-3.39-1.62-4.94-1.91-2.82-0.53-6.36 1.22-6.4 4.48-0.0512 3.66 3.4 8.41 10.1 10.7l0.201 0.396c0.0312 0.0863 0.045 0.181 0.065 0.28 0.0675 0.319 0.158 0.752 0.38 1.22-0.0075 0.435 5e-3 0.962 0.025 1.52-2.18-0.12-4.5-0.224-6.96-0.19-0.574 5e-3 -0.998 0.172-1.3 0.37-2.27 0.148-5.17 0.554-8.19 2.06-0.439 0.116-0.856 0.221-1.26 0.325-2.24 0.571-4.17 1.06-6.69 2.28-3.26 1.57-5.24 3.14-6.98 4.53-0.745 0.594-1.45 1.15-2.17 1.64-2.36 1.58-4.84 3.84-5.27 8.52-0.255 2.71 0.382 5.34 1.85 7.6 0.946 1.46 2.53 3.34 4.06 5.15 0.76 0.9 1.48 1.76 2.11 2.54l0.0362 0.608 1.54 1.62c1.1 1.15 2.23 2.34 2.9 3.1 0.145 0.165 0.306 0.296 0.469 0.399 0.0737 0.121 0.148 0.246 0.224 0.37 0.101 0.336 0.274 0.906 0.45 1.48 0.0825 0.27 0.165 0.542 0.241 0.795h-27.2l-2.18 12h1.24l-0.548 3.04h-1.24l-2.18 12h61.3c1.34 0 2.54-0.114 3.62-0.461l-0.0988 0.461h65.1l2.3-13z" fill="#fff"/>
  <g>
   <path d="m76.8 1.88c-0.852-5e-3 -1.02 1.27-2.75 1.44-1.51 0.166-2.27-1.31-5.09-1.26-1.79 0.0325-8.04 6.85-8.34 7.65-0.422 1.1-1.06 2.74-1.87 5-1.94-1.1-4.35-2.37-6.25-2.72-1.88-0.352-4.25 0.744-4.28 2.74-0.04 2.84 2.99 7.2 9.59 9.15 0.184 0.376 0.389 0.768 0.553 1.1 0.26 0.509 0.178 1.2 0.645 1.84-0.0687 0.729 0.043 2.72 0.043 2.86-0.31 0.29-0.582 0.598-0.818 0.949-2.52-0.139-5.09-0.289-7.95-0.248-0.249 0.0025-0.455 0.0662-0.449 0.326-0.113 0.0038-0.226 0.0093-0.338 0.0156-2.34 0.128-5.15 0.479-8.08 1.98-2.92 0.775-4.95 1.16-7.81 2.53-4.51 2.16-6.46 4.38-8.93 6.04-2.27 1.52-4.13 3.39-4.49 7.2-0.261 2.78 0.592 4.94 1.57 6.45 1.41 2.18 4.49 5.53 6.43 8.01 5e-3 0.148 0.0134 0.343 0.0234 0.508 1.3 1.38 3.09 3.23 4.04 4.29 0.0875 0.1 0.261 0.164 0.381 0.189 0.196 0.34 0.404 0.678 0.619 1.03 0.137 0.47 0.928 3.06 1.07 3.53 0.151 0.464 0.401 0.884 0.707 1.28h-17.1l-0.598 3.6-1.1-3.6h-9.64l-1.53 8.46h1.24l-1.2 6.63h-1.24l-1.53 8.46h10.5l0.562-3.49 1.08 3.49h17l0.713-4.06 1.65 4.43 2.58-3.57-0.578 3.2h25.7c3.61 0 5.39-0.922 6.75-4.64l-0.998 4.64h61.4l1.7-9.28h-3.52l0.955-5.23h3.22l1.67-9.04h-16.7c0.147-0.23 0.285-0.48 0.4-0.77 1.23-0.08 1.99-0.597 2.41-1.44 0.447-0.466 0.85-1.05 1.18-1.69 0.325-0.06 0.675-0.207 0.934-0.406l5.29 0.963 0.281 1.1 2.5-0.154 1.37-0.357c1.35-0.334 1.98-2.17 1.29-3.38 6e-3 -1.07-0.794-2.09-1.8-2.25-0.647-0.887-1.87-1.34-3-1.16-0.317 0.0488-0.755 0.227-0.967 0.484l-5.76-1.04c-0.428-0.482-0.967-0.618-1.58-0.721l-6.16-1c-0.463-0.0475-0.858 0.0346-1.22 0.225-0.621-0.567-1.28-0.715-2.15-0.773-0.418 0.105-1.24 0.518-2.05 0.945-2.56-0.635-5.15-1.28-7.45-1.83 0.412-2.9 0.422-6.61-0.484-10.7 0.432-2.72 0.176-4.69-0.0938-6.3-0.409-2.41-1.98-4.31-3.4-5.38-1.08-0.817-2.51-1.55-4.42-2.26 0.0011-0.214-0.111-0.411-0.439-0.52-1.87-0.63-3.77-1.16-5.52-1.62 0.589-0.189 1.19-0.609 1.69-1.05-2.19 0.449-2.49-0.616-3.72-2.06 0.0088-0.0737 0.0166-0.145 0.0254-0.207 0.224-1.83 0.559-5.37 0.682-8.64 5.47-3.19 8.17-7.52 8.42-9.1 0.295-1.9-0.619-2.14-2.06-1.77-1.37 0.36-4.49 2.75-6.62 3.45-0.792-2.72-1.09-3.84-1.43-5.02-0.188-0.642-4.22-7.4-5.32-7.41zm-12.2 17.1c0.45 0.124 0.972 0.258 1.62 0.418 0.354 0.084 0.703 0.163 1.05 0.24 0.079 0.018 0.155 0.0338 0.232 0.0508 0.7 0.15 1.39 0.286 2.06 0.402 0.064 0.013 0.128 0.0212 0.191 0.0332 0.68 0.115 1.35 0.21 2 0.289 0.059 7e-3 0.12 0.0145 0.176 0.0195 0.654 0.075 1.3 0.131 1.92 0.168 0.056 1e-3 0.112 0.0058 0.168 0.0098 0.625 0.032 1.24 0.0441 1.84 0.0371 0.056-1e-3 0.113-8.59e-4 0.168-2e-3 2.25-0.041 4.33-0.374 6.22-1.04 0 0.079-0.0019 0.164-0.0039 0.256-1.21-0.05-3.04 1.3-4.13 2.64-0.082 0.099-0.157 0.199-0.23 0.299 0.019-0.012 0.0366-0.0232 0.0566-0.0352l2.56 0.941 0.562-1.17c0.319-0.022 0.431-0.0357 0.822 0.0273-0.46-0.676-0.708-0.958-1.03-1.14 0.45-0.132 0.909-0.223 1.36-0.252-8e-3 0.291-0.0173 0.574-0.0273 0.826-0.065 1.45-0.304 5.05-0.545 7.17-0.398-0.302-0.859-0.603-1.41-0.898-0.227-0.12-0.436-0.193-0.631-0.227 0.236-0.201 0.24-0.591 0.197-1.07-0.066-0.724-0.658-1.69-1.02-1.62-0.024 5e-3 -0.0463 0.0133-0.0703 0.0273-0.477-1-0.822-1.61-1.37-2.54 0.055-0.076 0.107-0.149 0.158-0.219 5e-3 -6e-3 0.0116-0.0154 0.0176-0.0234 0.049-0.068 0.0946-0.128 0.143-0.191 5e-3 -7e-3 0.0135-0.0164 0.0195-0.0254 0.048-0.063 0.0946-0.121 0.143-0.18 6e-3 -8e-3 0.0145-0.0144 0.0215-0.0234 0.049-0.059 0.1-0.118 0.154-0.178 2e-3 -1e-3 0.0029-0.0049 0.0039-0.0059 0.3-0.33 0.695-0.69 1.43-1.3-0.722 0.392-1.22 0.687-1.59 0.947-0.043 0.031-0.0879 0.0628-0.131 0.0938-0.021 0.014-0.0406 0.0299-0.0606 0.0449-0.044 0.032-0.086 0.0618-0.125 0.0918-0.016 0.013-0.0309 0.0261-0.0469 0.0371-0.049 0.039-0.0946 0.0772-0.143 0.115-3e-3 3e-3 -0.0087 0.0048-0.0117 0.0078-0.105 0.088-0.205 0.176-0.301 0.266-5e-3 2e-3 -0.0097 0.0068-0.0137 0.0098-0.045 0.042-0.0888 0.082-0.133 0.125-3e-3 3e-3 -0.0078 0.0087-0.0098 0.0117-0.097 0.09-0.192 0.188-0.297 0.289 0.834 1.45 1.17 2.27 1.62 3.57 0.201-1.04 1.42 1.75 0.0723 1.33 0.019 0.377-0.19 0.832-0.834 0.93-0.11 0.016-0.22 0.0282-0.322 0.0352-0.035 4e-3 -0.0676 0.0029-0.102 0.0059-0.068 1e-3 -0.134 0.0039-0.199 0.0039-0.037 0-0.0744 1.41e-4 -0.109-2e-3 -0.059-2e-3 -0.113-0.0067-0.168-0.0117-0.036-4e-3 -0.0715-0.0058-0.105-0.0098-0.052-6e-3 -0.105-0.0154-0.156-0.0234-0.03-5e-3 -0.0598-0.0096-0.0918-0.0176-0.051-0.01-0.103-0.0232-0.152-0.0352-0.025-8e-3 -0.0512-0.0125-0.0762-0.0215-0.064-0.017-0.124-0.0376-0.184-0.0586-7e-3 -1e-3 -0.0145-0.0058-0.0215-0.0078-0.065-0.025-0.129-0.0492-0.188-0.0762-0.022-0.01-0.0434-0.0202-0.0644-0.0312-0.037-0.018-0.0744-0.0337-0.109-0.0527-0.022-0.013-0.0434-0.0252-0.0644-0.0352-0.033-0.018-0.0618-0.0348-0.0918-0.0508-0.021-0.014-0.0425-0.0271-0.0625-0.0391-0.027-0.016-0.0541-0.0318-0.0801-0.0488-0.022-0.015-0.0406-0.0271-0.0606-0.0391-0.021-0.014-0.0406-0.0271-0.0606-0.0391-0.098-0.068-0.187-0.126-0.26-0.172-7e-3 -3e-3 -0.0116-0.0058-0.0176-0.0098-0.094-0.052-0.169-0.0852-0.238-0.0762-1.84 0.88-0.745-2.8 0.896-1.17 0.014-0.379-0.24-0.759-0.57-0.887-0.025-0.389 0.0264-0.939 0.107-1.5-0.391 0.556-0.616 1.04-0.789 1.44-0.506-0.02-1.46 0.829-1.5 1.85-6e-3 0.233 0.0156 0.425 0.0586 0.584-0.061 0.012-0.126 0.024-0.191 0.041-3.33 0.493-4.18 4.43-8.93 3.3 1.83 1.65 3.95 1.86 5.41 1.81 0.296-6e-3 0.565-0.0267 0.809-0.0527 0.533 0.721 1.27 0.805 1.54 0.826 1.49 0.137 1.94-1.28 5.36-1.63v-2e-3c0.025-2e-3 0.0522-0.0019 0.0742-0.0059 0.119-0.012 0.243-0.0222 0.369-0.0312 0.032-3e-3 0.0628-0.0058 0.0938-0.0078 0.161-0.01 0.33-0.0184 0.504-0.0234 0.271 0.068 0.547 0.146 0.826 0.225 0.151 0.042 0.305 0.0858 0.459 0.133 0.085 0.023 0.167 0.0463 0.252 0.0703 0.644 0.187 1.3 0.381 1.95 0.551-0.284 2.26-0.556 4-1.04 4.84-0.293 0.352-1.01 0.484-1.92 0.553-0.013 0-0.029 0.0019-0.043 0.0039-0.131 9e-3 -0.264 0.0164-0.404 0.0234-0.01 1e-3 -0.0252 0.0019-0.0352 0.0039-0.356 0.018-0.731 0.0299-1.12 0.0449-0.123 4e-3 -0.246 0.0077-0.369 0.0137-1.72 0.071-4.17-0.0053-5.03-0.197-0.158-0.039-0.374-0.102-0.627-0.182-0.051-0.016-0.0993-0.0308-0.152-0.0488-0.946-0.313-2.36-0.88-3.69-1.64-1.48-0.838-2.89-1.69-4.44-3.12-0.522-0.48-1.17-4.59-1.28-5.18-0.22 1.91 0.057 5.11 0.498 5.62 0.88 1.05 2.53 2.38 4.41 3.59 2.23 1.42 3.92 2.06 4.62 2.27 0.275 0.085 0.852 0.192 1.6 0.287 3e-3 0 0.0078 8.59e-4 0.0098 2e-3 0.132 0.017 0.268 0.0309 0.408 0.0469 0.028 2e-3 0.0589 0.0058 0.0879 0.0098 0.118 0.013 0.241 0.0252 0.369 0.0352 0.04 4e-3 0.0791 0.0058 0.119 0.0098 0.126 0.01 0.255 0.0213 0.385 0.0293 0.038 4e-3 0.0733 0.0088 0.113 0.0098 0.157 0.011 0.321 0.0203 0.486 0.0273 0.064 4e-3 0.13 0.0088 0.195 0.0098 0.103 5e-3 0.204 0.0077 0.309 0.0117 0.081 9.97e-4 0.162 0.0039 0.242 0.0059 0.095 2e-3 0.188 0.0029 0.281 0.0039 0.082 2e-3 0.165 0.0039 0.25 0.0039 0.1 0 0.199-0.0029 0.299-0.0039 0.075 0 0.153-2e-3 0.227-2e-3 0.173-7e-3 0.349-0.0105 0.521-0.0195 0.223-0.011 0.87-0.0318 1.06-0.0488-0.081 0.157-0.185 0.356-0.414 0.809-0.311 0.159-1.03 0.349-1.32 0.369-0.213 0.013-0.421 0.0223-0.629 0.0273-0.068 2e-3 -0.135 0.0029-0.201 0.0039-0.144 3e-3 -0.291 0.0039-0.432 0.0039-0.075 0-0.147-0.0039-0.221-0.0039-0.147-3e-3 -0.295-0.0087-0.441-0.0137-0.061-4e-3 -0.121-0.0058-0.184-0.0078-0.194-0.01-0.384-0.0231-0.578-0.0391-0.075-8e-3 -0.152-0.0144-0.227-0.0234-0.123-0.012-0.245-0.0231-0.369-0.0371-0.087-0.01-0.175-0.0222-0.262-0.0352-0.112-0.014-0.223-0.0308-0.334-0.0488-0.087-0.012-0.172-0.0231-0.256-0.0371-0.015-4e-3 -0.027-0.0048-0.041-0.0078v-2e-3c-5.56-0.951-9.9-4.45-11-8.6-0.238-0.858-0.351-3.69-0.256-4.78 0.35 0.244 0.717 0.367 0.996 0.252 0.565-0.233 0.565-1.17 0.166-1.86 0.026 0.632-0.0551 1.14-0.371 1.17-0.51 0.014-1.51-0.498-1.8-2.17-0.137-0.826-1.18-2.24-1.09-3.67 0.028-0.617 0.302-1.39 1.03-1.3 0.824 0.081 1.51 1.77 2.34 4.37 0.549 0.303 1.32 0.729 2.04 1.12-0.168-1.35-0.233-4.19 0.781-6.4h-2e-3c0.062-0.137 0.128-0.269 0.199-0.4zm2.3 0.895c-0.039 0.08-0.0726 0.165-0.102 0.25-7e-3 0.02-0.0155 0.0415-0.0215 0.0625-0.028 0.084-0.0522 0.169-0.0742 0.26-0.077 0.335-0.116 0.719-0.152 1.18 0.919-0.208 1.94-0.156 2.92 0.0273-0.465 0.181-0.814 0.46-1.46 1.15 0.544-0.064 0.701-0.0503 1.14-0.0293l0.783 1.17 3.57-0.943c-0.07-0.082-0.149-0.163-0.227-0.246-0.04-0.043-0.085-0.0849-0.127-0.129-0.052-0.05-0.1-0.0994-0.154-0.15-0.043-0.042-0.0917-0.083-0.139-0.127-0.055-0.049-0.111-0.0984-0.168-0.148-0.05-0.042-0.0984-0.083-0.15-0.123-0.061-0.052-0.124-0.102-0.188-0.152-0.05-0.038-0.104-0.0782-0.156-0.117-0.067-0.05-0.135-0.1-0.205-0.15-0.056-0.039-0.109-0.0753-0.164-0.113-0.071-0.048-0.146-0.0955-0.219-0.145-0.057-0.035-0.113-0.0714-0.172-0.109-0.075-0.045-0.152-0.0917-0.23-0.137-0.057-0.035-0.119-0.0695-0.18-0.104-0.078-0.043-0.156-0.0879-0.236-0.131-0.062-0.031-0.126-0.0647-0.188-0.0957-0.081-0.04-0.165-0.0792-0.246-0.117-0.067-0.032-0.13-0.0628-0.197-0.0938-0.081-0.036-0.163-0.0685-0.246-0.105-0.066-0.025-0.137-0.0541-0.203-0.0801-0.085-0.034-0.17-0.0628-0.254-0.0918-0.068-0.025-0.139-0.0513-0.207-0.0723-0.086-0.03-0.174-0.0551-0.258-0.0801-0.07-0.021-0.139-0.0436-0.209-0.0606-0.088-0.024-0.176-0.0444-0.266-0.0644-0.069-0.017-0.138-0.0328-0.207-0.0488-0.091-0.017-0.179-0.0299-0.271-0.0469-0.067-0.01-0.137-0.0242-0.203-0.0332-0.1-0.014-0.199-0.0202-0.301-0.0312-0.057-4e-3 -0.114-0.0136-0.17-0.0176-0.158-0.01-0.316-0.0127-0.471-0.0098zm-7.79 1.19c-0.554 0.145-0.15 1.71-0.0234 2.08 0.184 0.55 0.755 2.14 1.28 2.66-0.528-1.21-0.826-2.1-1.02-3.01-0.069-0.32-0.175-0.986-0.0254-1.09 0.131-0.094 0.397-0.0665 0.908 0.52-0.425-0.946-0.829-1.24-1.12-1.16zm1.62 2.77c-0.053 0.014-0.107 0.0658-0.156 0.176-0.217 0.479-0.372 0.803-0.242 1.06 0.117 0.238 0.775 0.463 0.623 0.189-0.217-0.385-0.215-0.721 2e-3 -1.06 0.07-0.105-0.0696-0.407-0.227-0.367zm14.4 8.06c0.596-0.0071 1.27 0.0992 2 0.266-2.1-0.23-4.07 0.503-5.02 0.768-0.188 0.0537-0.556 0.0841-0.834-0.0859 1.05-0.369 1.71-0.872 3.73-0.943 0.039-0.0015 0.0794-0.0034 0.119-0.0039zm-24.4 0.789c0.102 0.351 0.174 0.648 0.188 0.781 0.113 1.06-0.0647 2.22-0.18 3.24-0.761 6.71-1.97 14.5-3.93 18.7-2.78-3.86-4.36-8.85-5.04-14.2-0.273 1.07-0.514 2.82-0.496 4.59 1e-3 0.17 0.0057 0.34 0.0117 0.508 2e-3 0.039 0.0029 0.0743 0.0039 0.113 0.01 0.201 0.025 0.402 0.041 0.602 5e-3 0.05 0.0097 0.0965 0.0137 0.146 0.016 0.156 0.0327 0.312 0.0547 0.465 6e-3 0.053 0.0145 0.107 0.0215 0.162 0.029 0.193 0.0616 0.386 0.102 0.574-1.03 0.905-2.79 1.67-4.04 2.13-1.01-0.818-2.04-1.48-3.07-1.97-0.298-0.786-0.908-1.96-1.81-2.6 0.05 0.159 0.091 0.328 0.127 0.494 0.072 0.318 0.117 0.621 0.131 0.891 0.016 0.254 4e-3 0.471-0.041 0.613-0.185-0.052-0.369-0.0987-0.549-0.139-7e-3 -3e-3 -0.0116-0.0029-0.0176-0.0039-0.167-0.036-0.333-0.0697-0.498-0.0957-0.03-5e-3 -0.0618-0.0087-0.0938-0.0137-0.14-0.021-0.282-0.0378-0.422-0.0488-0.048-4e-3 -0.0975-0.0077-0.146-0.0117-0.129-9e-3 -0.258-0.0137-0.387-0.0137-0.048 0-0.0965 8.59e-4 -0.146 2e-3 -0.14 3e-3 -0.281 0.0065-0.422 0.0195-0.028 9.97e-4 -0.055 0.0068-0.082 0.0098-0.53 0.05-1.08 0.166-1.67 0.365 1.91 0.17 3.68 0.781 5.32 1.72v-0.0039c0.03 0.017 0.0589 0.0357 0.0859 0.0527 0.16 0.093 0.318 0.188 0.473 0.285 0.034 0.022 0.0656 0.0406 0.0996 0.0606 0.187 0.12 0.376 0.247 0.559 0.375 0.045 0.032 0.0907 0.0657 0.137 0.0977 0.14 0.1 0.279 0.204 0.416 0.307 0.057 0.044 0.112 0.0849 0.17 0.129 0.144 0.114 0.288 0.227 0.43 0.346 0.031 0.026 0.0638 0.0502 0.0938 0.0762 1.25 2.56 2.06 4.82 4.2 6.61-0.435 0.044-0.788 0.0819-1.26 0.0879-0.059 0-0.125-0.0018-0.193-0.0098-0.017-1e-3 -0.0337-0.0049-0.0527-0.0059-0.054-8e-3 -0.112-0.0154-0.172-0.0254-0.016-2e-3 -0.0337-0.0048-0.0527-0.0078-0.17-0.028-0.36-0.0663-0.561-0.111-0.068-0.011-0.135-0.026-0.205-0.041-0.03-6e-3 -0.0588-0.0126-0.0898-0.0176-0.089-0.017-0.181-0.0357-0.275-0.0527-8e-3 -3e-3 -0.0173-0.0039-0.0273-0.0059-0.104-0.018-0.21-0.0358-0.318-0.0508-0.019-1e-3 -0.0376-0.0048-0.0566-0.0078-0.085-0.012-0.172-0.0222-0.26-0.0312-0.509-0.051-1.05-0.0453-1.57 0.0977-1.41 0.382-2.44 1.53-3.24 3.33-0.357 0.807-0.554 1.87-0.584 2.73-0.514-0.654-0.854-1.01-1.23-1.39-0.21-3.36 1.76-5.88 5.93-5.98h0.041c0.031-1e-3 0.0578 0 0.0898 0 0.133-1e-3 0.267-2e-3 0.4 0h0.0137c0.151 4e-3 0.296 0.0105 0.441 0.0195 0.02 1e-3 0.0406 9.18e-4 0.0606 0.0039 0.163 0.011 0.32 0.0221 0.463 0.0391h0.0059c0.195 0.02 0.373 0.0406 0.512 0.0606-0.328-0.138-0.66-0.242-0.979-0.326-3e-3 -9.97e-4 -0.0029 1e-6 -0.0039 0-0.103-0.026-0.207-0.0502-0.311-0.0742-0.019-3e-3 -0.0367-0.0058-0.0547-0.0098-0.091-0.02-0.182-0.0357-0.275-0.0527-0.019-3e-3 -0.0386-0.0078-0.0566-0.0098-0.106-0.018-0.212-0.032-0.32-0.043-0.015-4e-3 -0.0318-0.0059-0.0488-0.0059-3.03-0.345-6.37 1.08-6.72 5.01-0.567-0.701-1.22-1.48-1.8-2.18-0.953-2.94-1.24-5.29-1.22-8.67-0.756 2.08-0.945 3.94-0.924 6.15-0.529-1.23-0.637-2.35-0.625-3.74-0.41 0.798-0.567 1.44-0.695 2.06-1.53-2.06-2.17-3.99-1.91-6.43 0.183-1.66 0.789-3.73 3.57-5.49 2.8-1.77 6.22-5.94 14.1-7.77-0.477 0.557-0.603 1.09-0.803 1.96 2.37-2.96 6.27-4.14 9.89-4.38 0.581-0.041 1.16-0.0641 1.73-0.0781zm8.29 0.512c1.14 3.91 4.6 7.37 9.72 9.04 0.7 0.227 1.52 0.447 2.42 0.613 3e-3 0 0.0039 0.0039 0.0039 0.0039 0.288 0.053 0.582 0.101 0.883 0.141 0.046 7e-3 0.0926 0.0126 0.141 0.0176 0.097 0.013 0.199 0.0251 0.297 0.0371 0.065 7e-3 0.129 0.0115 0.195 0.0195 0.082 9e-3 0.165 0.0164 0.246 0.0234 0.072 7e-3 0.147 0.0116 0.221 0.0176 0.077 5e-3 0.154 0.0097 0.23 0.0137 0.078 5e-3 0.153 0.0087 0.23 0.0117 0.078 3e-3 0.156 0.0049 0.234 0.0059 0.075 1e-3 0.151 0.0049 0.227 0.0059 0.087 3e-3 0.173 0 0.26 0 0.066 0 0.134-8.59e-4 0.201-2e-3 0.154-4e-3 0.308-0.0086 0.461-0.0176 1.48-0.08 1.89-0.104 2.8-0.51-0.402 1.18-1.41 2.46-3.21 3.97-2.48 2.08-5.41 3.31-8.28 4.53 3.51-0.696 6.32-1.74 9.07-3.47-1.52 2.27-4.02 4.87-7.76 6.66-2.91 1.4-6.62 2.09-8.99 2.36 0.937-1.8 1.66-4.05 1.87-5.71 0.239-1.88 0.221-3.17 0.168-4.39-0.111-2.5-0.725-6.02-1.3-8.9-0.255-1.28-0.66-3.51-0.332-4.45zm1.13 4.23c0.598 3.54 3.96 3.88 4.95 5.78 0.951 1.82 0.97 3.45 0.938 5.27 0.661-1.13 1.4-3.52 0.0781-5.86-1.06-1.88-4.27-2.15-5.96-5.19zm29.4 0.0176c2.52 0.865 4.62 1.85 5.57 2.88 1.06 1.14 1.61 2.14 1.84 3.31 0.042 0.2 0.0783 0.403 0.111 0.607 0.135 0.813 0.217 1.65 0.23 2.49 0.039 2.31-0.421 4.65-1.58 6.69 1.13-0.73 1.42-1.02 1.71-1.41 0.28 1.34 0.396 3.11 0.389 4.76-5e-3 1.28-0.0857 2.49-0.223 3.34-0.119-0.095-0.247-0.195-0.379-0.297-0.025-0.018-0.0473-0.0357-0.0723-0.0547-0.042-0.032-0.0839-0.0637-0.129-0.0957-0.036-0.027-0.0724-0.0501-0.109-0.0781-0.033-0.022-0.0666-0.0473-0.102-0.0703-0.04-0.029-0.082-0.0569-0.125-0.0859-0.032-0.021-0.0657-0.0415-0.0977-0.0625-0.045-0.029-0.0888-0.056-0.133-0.082-0.035-0.02-0.0705-0.0415-0.105-0.0625-0.043-0.025-0.0859-0.0473-0.131-0.0723-0.041-0.023-0.083-0.0424-0.125-0.0644-0.038-0.021-0.0791-0.0406-0.121-0.0606-0.05-0.023-0.0983-0.0484-0.152-0.0684-0.038-0.018-0.0771-0.0338-0.119-0.0508-0.036-0.014-0.0742-0.029-0.115-0.043-0.033-0.013-0.0657-0.0242-0.0977-0.0352-0.055-0.019-0.109-0.0377-0.166-0.0527-3e-3 -3e-3 -0.0039-2e-3 -0.0039-2e-3 -0.369-0.106-0.812-0.18-1.31-0.15-0.168 8e-3 -0.34 0.0294-0.521 0.0644 0.113 0.035 0.234 0.0789 0.359 0.129 0.043 0.019 0.084 0.0376 0.125 0.0566 0.08 0.035 0.162 0.0761 0.242 0.119 0.037 0.02 0.0744 0.0386 0.109 0.0586 0.082 0.05 0.165 0.103 0.246 0.16 0.015 0.01 0.0309 0.0182 0.0469 0.0312 0.176 0.127 0.347 0.277 0.498 0.451l0.0059 0.0078c0.062 0.071 0.119 0.147 0.176 0.225 0.015 0.024 0.029 0.0463 0.043 0.0703 0.026 0.037 0.0502 0.08 0.0742 0.123 0.022 0.038 0.0445 0.0752 0.0625 0.115 0.03 0.061 0.056 0.127 0.082 0.193h-2e-3c-0.156 0.014-0.312 0.0298-0.465 0.0488-0.018 3e-3 -0.0337 0.0029-0.0527 0.0059-0.15 0.019-0.3 0.0414-0.447 0.0664-0.014 2e-3 -0.0261 0.0049-0.0391 0.0059-0.148 0.025-0.294 0.0519-0.439 0.0859-9e-3 3e-3 -0.0194 0.0049-0.0254 0.0059-0.152 0.034-0.298 0.0713-0.445 0.111-5e-3 2e-3 -0.0107 0.0019-0.0137 0.0039-0.148 0.041-0.289 0.0848-0.43 0.135-9e-3 1e-3 -0.0194 0.0049-0.0254 0.0059-0.133 0.046-0.26 0.0974-0.389 0.15-0.019 9e-3 -0.0386 0.0144-0.0606 0.0234-0.111 0.05-0.224 0.102-0.334 0.156-0.035 0.016-0.0667 0.0328-0.0977 0.0508-0.099 0.05-0.195 0.102-0.287 0.16-0.044 0.026-0.0888 0.0511-0.133 0.0801-0.084 0.052-0.169 0.108-0.25 0.166-0.05 0.034-0.0965 0.0695-0.145 0.105-0.08 0.06-0.157 0.124-0.232 0.188-0.045 0.039-0.0907 0.0801-0.137 0.121-0.077 0.07-0.155 0.142-0.227 0.217-0.038 0.037-0.0724 0.0782-0.107 0.117-0.069 0.075-0.139 0.155-0.205 0.232-0.029 0.038-0.056 0.0714-0.084 0.109-0.076 0.096-0.149 0.196-0.219 0.301-0.016 0.022-0.0319 0.0434-0.0469 0.0684-0.081 0.124-0.157 0.254-0.232 0.389-9e-3 0.018-0.0193 0.0386-0.0293 0.0566-0.075 0.143-0.148 0.292-0.217 0.447-4e-3 0.01-0.0067 0.0212-0.0117 0.0312-0.07 0.161-0.137 0.329-0.197 0.506 2.68-2.4 4.52-2.81 7.75-2.57 0.977 0.269 3.01 0.731 5.05 1.24 0.23 0.06 0.48 0.121 0.58 0.143-2.1 0.296-2.99 2.1-3.44 3.54-0.569 1.82 0.189 3.88 1.05 5.66 0.04 0.089 0.0809 0.176 0.131 0.266 0.02 0.044 0.0406 0.0879 0.0605 0.131 0.07 0.135 0.139 0.27 0.199 0.4-0.05 0.112-0.16 0.328-0.25 0.514-0.05 0.096-0.0891 0.185-0.119 0.246-0.76-0.032-1.14-0.0324-1.95-0.107-0.075-0.21-0.142-0.409-0.207-0.602-8e-3 -0.032-0.0193-0.0618-0.0293-0.0938-0.124-0.385-0.23-0.741-0.312-1.04h0.0059c-1.54-5.71 0.567-8.19 2.1-8.66-3.05 0.125-3.97 4.29-2.9 8.61h0.0039c0.013 0.065 0.0317 0.143 0.0527 0.221 9e-3 0.032 0.0183 0.0637 0.0273 0.0957 0.078 0.286 0.19 0.645 0.33 1.08-0.323-0.01-0.635-0.0212-0.945-0.0312-0.065-4e-3 -0.129-0.0068-0.193-0.0078-0.321-0.014-0.637-0.0232-0.947-0.0352h-0.0371c-0.31-0.011-0.613-0.0251-0.91-0.0371-0.021 0-0.0444-0.0029-0.0644-0.0039-0.311-0.013-0.614-0.028-0.91-0.043h-0.0137c-0.23-0.013-0.454-0.0271-0.674-0.0391-0.187-0.01-0.368-0.0232-0.549-0.0352-0.065-7e-3 -0.132-0.0087-0.197-0.0137h-0.0098c-3e-3 0-0.0067-8.59e-4 -0.0117-2e-3 -0.033-2e-3 -0.0647-0.0029-0.0957-0.0059-0.011-1e-3 -0.0222-9.18e-4 -0.0332-0.0039-0.045-3e-3 -0.0937-0.0048-0.139-0.0078h-2e-3c-0.065-5e-3 -0.12-0.0096-0.182-0.0156h-0.0039c-0.113-8e-3 -0.225-0.0213-0.334-0.0293-0.01-2e-3 -0.0173 0-0.0293 0-0.028-4e-3 -0.0628-0.0058-0.0898-0.0098-0.034-3e-3 -0.0686-0.0048-0.102-0.0078h-0.0039c-0.035-4e-3 -0.0705-0.0078-0.104-0.0098h-0.0098c-0.082-7e-3 -0.155-0.0174-0.234-0.0254-0.131-0.013-0.264-0.027-0.389-0.041-9e-3 -3e-3 -0.0193-8.62e-4 -0.0293-2e-3 -5e-3 0-0.0125-0.0039-0.0195-0.0039-0.241-0.027-0.471-0.0558-0.693-0.0898h-4e-3c-0.019-4e-3 -0.0328-0.0058-0.0488-0.0078h-2e-3c-4e-3 -2e-3 -0.0077-2e-3 -0.0117-2e-3 -0.101-0.015-0.202-0.0309-0.301-0.0469-0.107-0.018-0.212-0.0357-0.314-0.0547-9e-3 -3e-3 -0.0174-0.0048-0.0254-0.0078-0.127-0.024-0.246-0.0482-0.363-0.0742-0.022-5e-3 -0.0464-0.0096-0.0684-0.0156-0.103-0.022-0.203-0.0482-0.301-0.0742-0.036-0.01-0.0714-0.0212-0.107-0.0312-0.08-0.023-0.158-0.0444-0.232-0.0684-0.11-0.035-0.214-0.0723-0.311-0.111-3e-3 -2e-3 -0.0077-0.0029-0.0117-0.0039-0.106-0.042-0.204-0.0898-0.295-0.135-0.015-6e-3 -0.027-0.0145-0.041-0.0215-0.085-0.046-0.161-0.0897-0.232-0.139-0.013-8e-3 -0.0242-0.0164-0.0352-0.0254-0.072-0.05-0.136-0.104-0.191-0.16-1.18-1.16-1.71-3.71-1.84-6.74 1.34-1.57 2.63-5 3.04-8.27 1.65-2.95 2.11-5.13 1.77-7.11-1.14 2.75-2.85 5.02-4.94 6.91-0.136-3.57 0.552-7.46 1.2-11 0.382-2.1 0.985-5.5 2.54-7.36 0.116-0.142 0.507-0.668 0.738-0.902 0.08-0.084 0.155-0.161 0.23-0.238zm-26.5 6.62c0.605 2.02 0.743 3.83 0.332 5.23-0.445 1.52-0.826 2.76-3.72 6.5 2.75-1.75 5.31-5.69 5.16-8-0.128-1.94-0.952-2.96-1.77-3.74zm-21.1 6.5c0.251 0.699 0.808 1.92 0.953 2.22 0.088 1.51 0.163 3.03 0.217 4.56-0.246-0.04-0.511-0.0504-0.773-0.0254-2.27-1.86-2.7-3.02-3.71-5.08 1.3-0.511 2.32-1.01 3.31-1.67zm3.1 5.56c0.241 0.333 0.506 0.645 0.791 0.936-0.11 0.153-0.221 0.292-0.34 0.424-0.01 0.011-0.0242 0.0242-0.0352 0.0352-0.049 0.054-0.0974 0.103-0.148 0.152-0.024 0.023-0.0502 0.0444-0.0742 0.0684-0.04 0.035-0.0772 0.0725-0.117 0.105-3e-3 4e-3 -0.0068 0.0058-0.0078 0.0098-0.014-0.39-0.027-0.757-0.041-1.1-0.01-0.209-0.0163-0.422-0.0273-0.627zm40.7 2.53c-0.072 0.576-0.184 1.08-0.385 1.63-0.035-0.1-0.0648-0.199-0.0938-0.299-0.074-0.264-0.136-0.534-0.195-0.814 0.23-0.166 0.457-0.338 0.674-0.514zm-49.5 0.555c0.588 4e-3 1.24 0.161 2.01 0.32 1.09 0.223 2.31-0.1 3.06-0.0703 0.084 0.339 0.374 0.525 0.477 0.664 0.189 0.257 0.448 0.379 0.385 1.22-0.463 0.783-0.699 1.53-0.77 1.89-0.193 0.945 0.113 1.93 0.369 3.09 0.459 0.813 1.08 2.27 2.08 3.24h-0.0039c0.442 0.5 0.612 1.19 0.732 1.83 0.038 0.218 0.0696 0.436 0.0996 0.656-0.231-0.022-0.438-0.064-0.607-0.125-1.59-0.595-3.34-1.79-4.56-2.7 0.404 0.88 1.36 1.72 2.8 2.5 0.424 0.228 0.946 0.518 1.65 0.74 0.232 0.073 0.498 0.117 0.787 0.133 0.016 0.124 0.0299 0.254 0.0449 0.377-1.67-0.126-4.09-0.659-5.38-1.06 1.3 1.36 4.91 1.69 6.37 1.7-0.139 0.246-0.338 0.491-0.619 0.734-1.24 0.098-2.49 0.0818-3.29-0.0742-1.34-0.256-1.87-0.573-3.04-0.992 0.799 0.815 1.93 1.44 2.9 1.58 0.837 0.125 2.15 0.167 3.33 0.041-0.251 0.492-0.809 0.86-1.43 1.13-0.66 0.288-1.39 0.467-1.91 0.559-0.343 0.063-0.593 0.0899-0.658 0.0859-0.986-0.047-3.99-2.45-5.02-3.79-0.738-0.952-1.26-4.02-1.61-4.6-0.53-0.874-1.64-2.43-1.76-4.38-0.028-0.515 0.503-2.89 1.93-4.12 0.518-0.449 1.04-0.597 1.63-0.592zm69.9 5.49v2e-3c0.26-5e-3 0.511 0.0012 0.771 0.0332 0.88 0.104 2.03 0.347 2.94 0.854 0.03 0.028 0.0505 0.0664 0.0605 0.107 0.01 0.024 0.0193 0.0511 0.0293 0.0781 0.01 0.018 0.01 0.0347 0.01 0.0547 0.01 0.03 0.0195 0.0617 0.0195 0.0957 0.02 0.171 0.0215 0.367 0.0215 0.539-0.01 0.31-0.0112 0.68 0.0488 1.11l0.0195 0.105c0.01 0.068 0.0212 0.137 0.0312 0.205 0.01 0.053 0.0191 0.106 0.0391 0.16 0.01 0.051 0.0212 0.101 0.0312 0.152 0.03 0.114 0.0694 0.235 0.109 0.363 0.01 0.048 0.0191 0.0946 0.0391 0.141 0.03 0.112 0.0713 0.231 0.111 0.357-0.04-0.015-0.0906-0.0309-0.141-0.0449-0.01 0-0.01 2e-3 -0.01 0-0.05-0.012-0.0906-0.0222-0.141-0.0312-0.02-5e-3 -0.0503-0.0077-0.0703-0.0117-0.02-3e-3 -0.0484-0.0087-0.0684-0.0117-0.03-3e-3 -0.0713-0.0068-0.111-0.0078-0.01-3e-3 -0.0191-2e-3 -0.0391-2e-3 -0.57-0.028-1.14 0.192-1.4 0.781 0.37-0.225 0.95-0.421 1.5-0.336v-0.0039c0.02 2e-3 0.0405 0.0097 0.0605 0.0137 0.03 5e-3 0.0601 0.0096 0.0801 0.0176 0.03 7e-3 0.0501 0.0145 0.0801 0.0215 0.03 0.011 0.0601 0.0192 0.0801 0.0312 0.02 8e-3 0.0484 0.0164 0.0684 0.0254 0.04 0.016 0.0713 0.0347 0.111 0.0527 0.01 0.01 0.0291 0.0154 0.0391 0.0234 0.05 0.031 0.1 0.0646 0.15 0.102 0.03 0.109 0.0508 0.215 0.0605 0.316 0.01 0.014 0.01 0.029 0.01 0.043 0.01 0.03 0.01 0.0579 0.01 0.0859 0.01 0.034 0.01 0.0666 0.01 0.0996 0.01 0.059 0.01 0.118 0.01 0.174-0.01 0.133-0.0191 0.25-0.0391 0.359-0.06 0.26-0.19 0.453-0.48 0.594-0.03 0.015-0.0601 0.0261-0.0898 0.0371-0.01 4e-3 -0.01 0.0077-0.0195 0.0117-0.11 0.046-0.25 0.0861-0.4 0.121-1.06 0.234-1.69-1.1-2.13-2.33-0.24-0.682-0.589-1.66-1.55-1.68-0.11 1e-3 -0.21 0.0052-0.32 0.0332-1.43 0.464-2.38 1.73-3.68 1.33 0.02 0.044 0.0384 0.086 0.0684 0.125 0.01 5e-3 0.0117 0.0087 0.0117 0.0137 0.02 0.031 0.0484 0.0618 0.0684 0.0898 0.01 0.01 0.0212 0.0183 0.0312 0.0273 0.03 0.021 0.0503 0.0406 0.0703 0.0586 0.02 0.012 0.0288 0.0232 0.0488 0.0332 0.02 0.015 0.0405 0.0261 0.0605 0.0391 0.02 0.012 0.0406 0.0252 0.0605 0.0352 0.02 9e-3 0.0386 0.0134 0.0586 0.0234s0.0501 0.0202 0.0801 0.0312c0.01 6e-3 0.0308 0.0116 0.0508 0.0176 0.02 9e-3 0.0503 0.0135 0.0703 0.0215 0.03 5e-3 0.0503 0.0087 0.0703 0.0137 0.02 5e-3 0.0384 0.0107 0.0684 0.0137 0.03 5e-3 0.0518 0.0097 0.0918 0.0137 0.01 1e-3 0.0291 0.0039 0.0391 0.0059 0.04 4e-3 0.0791 0.0068 0.119 0.0078 0 0 0.0115 0.0039 0.0215 0.0039 0.14 8e-3 0.28 2.83e-4 0.41-0.0117 0-2e-3 0.0117-2e-3 0.0117-2e-3 0.04-3e-3 0.0698-0.0067 0.0898-0.0117 0.03-1e-3 0.0485-0.0058 0.0683-0.0078 0.01-4e-3 0.031-0.0068 0.041-0.0078 0.08-0.014 0.16-0.0308 0.23-0.0508 0 0.067-0.0117 0.133-0.0117 0.203s0.01 0.146 0.0195 0.227c-0.14 9e-3 -0.271 0.0232-0.391 0.0742-0.81 0.335-0.989 0.974-0.869 1.72 0 0-0.491 0.847-0.631 1.11-0.2-0.357-0.39-0.748-0.59-1.19-0.36-0.793-1.11-2.85-0.779-3.96 0.6-2.03 1.5-2.96 3.14-2.78 0.78 0.086 1.54-0.0387 2.31-0.0527zm-23 3.14c0.058 0.482 0.141 0.996 0.254 1.52 0.355 1.67 1.02 3.43 2.23 4.43h-5.74l2.16-3.95c0.34-0.648 0.699-1.31 1.09-2zm22.5 0.734c0.34 0.029 0.721 0.237 1.05 0.67 0.03 0.056 0.0501 0.112 0.0801 0.166 0.33 0.72 0.699 1.65 1.23 2.22 0.17 0.179 0.341 0.317 0.531 0.418 0.24 0.269 0.49 0.539 0.76 0.791 0.04 0.043 0.0887 0.087 0.139 0.127 0.05 0.052 0.11 0.0985 0.16 0.146 0.04 0.031 0.0716 0.0618 0.102 0.0918 0.07 0.048 0.13 0.0956 0.18 0.143 0.03 0.021 0.0598 0.0444 0.0898 0.0664 0.08 0.063 0.17 0.123 0.25 0.18 0.03 0.015 0.0501 0.0328 0.0801 0.0488 0.06 0.041 0.129 0.0831 0.189 0.119 0.03 0.015 0.0601 0.0299 0.0801 0.0449 0.09 0.045 0.18 0.09 0.27 0.125-0.83 0.626-0.999 1.21-0.859 2.1 0.03 0.181 0.0591 0.371 0.119 0.584 0.19 0.803-0.309 1.74-1.22 1.76-0.5 0.011-1.36-0.338-2.11-0.812-0.13-0.087-0.268-0.166-0.398-0.26 0.34-0.123 0.489-0.305 0.629-0.564-0.46 0.204-0.76 0.247-1.07 0.193-0.64-0.611-0.889-1.29-0.119-1.74 0.49-0.281 1.41 0.444 2.24 0.846 0.22 0.106 0.439 0.197 0.639 0.229 0.1 0.016 0.201 0.0085 0.291-0.0215 0.02-4e-3 0.0408-0.0135 0.0508-0.0215 0.11-0.037 0.199-0.106 0.279-0.186 0.07-0.063 0.13-0.127 0.17-0.207 0.01-9e-3 0.0195-0.0212 0.0195-0.0312 0.02-0.042 0.0503-0.0859 0.0703-0.131 0.02-0.059 0.0405-0.12 0.0606-0.184-0.2 0.205-0.56 0.365-0.76 0.332-0.06-9e-3 -0.131-0.0239-0.201-0.0449-0.03-6e-3 -0.0501-0.0202-0.0801-0.0312-0.04-0.011-0.0791-0.025-0.119-0.041-0.04-0.014-0.0713-0.0298-0.111-0.0488-0.03-0.014-0.0696-0.0289-0.0996-0.0449-0.04-0.02-0.0889-0.0425-0.129-0.0625-0.03-0.017-0.0601-0.0309-0.0801-0.0469-0.05-0.027-0.11-0.054-0.16-0.084-0.02-0.013-0.0405-0.0222-0.0605-0.0352-0.15-0.088-0.309-0.18-0.459-0.271-0.04-0.019-0.0716-0.0396-0.102-0.0586-0.71-0.406-1.45-0.754-2.18-0.443-0.52-0.56-1.11-1.3-1.44-2.1 0.31 0.042 0.79-0.0804 0.93-0.189-0.36-0.022-0.801-0.116-1.06-0.266-0.19-0.602-0.389-1.35 0.301-1.59 0.25-0.089 0.96-0.0671 1.17 0.42 0.08 0.182 0.24 0.681 0.42 1.08 0.34 0.747 2.48 2.52 2.99 2.66 0.48 0.061 1.18-0.0484 1.69-0.4-0.38 0.036-1.08 0.159-1.57-0.105-0.05-0.029-0.1-0.0607-0.16-0.0957-0.02-0.012-0.0386-0.0251-0.0586-0.0391-0.04-0.025-0.0811-0.0482-0.121-0.0742-0.02-0.015-0.0386-0.029-0.0586-0.043-0.04-0.03-0.0909-0.0618-0.131-0.0938-0.02-0.012-0.0408-0.027-0.0508-0.041-0.02-7e-3 -0.0293-0.0155-0.0293-0.0215-0.87-0.648-1.89-1.65-2.05-1.95-0.09-0.158-0.169-0.442-0.279-0.736 0.17-0.025 0.39-0.143 0.52-0.26-0.33-0.039-0.499-0.0654-0.719-0.193-0.16-0.31-0.381-0.553-0.691-0.551-0.16-0.545-0.119-1.2 0.631-1.4 0.1-0.028 0.21-0.0393 0.33-0.0293zm5.72 2.1c0.2 0.098 0.4 0.201 0.59 0.307 0.01 8e-3 0.0291 0.0183 0.0391 0.0273 0.03 0.014 0.0501 0.03 0.0801 0.043 0.04 0.027 0.0811 0.0511 0.121 0.0781 0.03 0.011 0.0386 0.0231 0.0586 0.0371 0.05 0.03 0.1 0.0647 0.15 0.0957 0.01 8e-3 0.0193 0.0135 0.0293 0.0215 0.06 0.04 0.11 0.0811 0.17 0.121 0 5e-3 0.0117 0.0126 0.0117 0.0176 0.05 0.035 0.0889 0.0685 0.129 0.104 0.02 0.014 0.0308 0.0271 0.0508 0.0391 0.03 0.028 0.0598 0.0579 0.0898 0.0879 0.01 0.014 0.0291 0.027 0.0391 0.043 0.03 0.029 0.0501 0.056 0.0801 0.084 0.01 0.015 0.031 0.0319 0.041 0.0469 0.02 0.03 0.0503 0.0598 0.0703 0.0918 0.01 0.012 0.0193 0.0241 0.0293 0.0371 0.02 0.045 0.0503 0.0898 0.0703 0.135 0.01 5e-3 0.01 0.0115 0.01 0.0195 0.02 0.036 0.0408 0.0762 0.0508 0.115 0.01 0.015 0.01 0.0309 0.0195 0.0469 0.01 0.029 0.0193 0.0618 0.0293 0.0918 0 0.017-7.2e-4 0.0337 0.01 0.0527 0 0.028-6.9e-4 0.0618 0.01 0.0918v0.152c-0.01 0.015-0.01 0.0299-0.01 0.0469 0 0.048-9e-3 0.0974-0.0293 0.148-0.13 0.491-1.32 1.02-2.08 0.805-0.04-0.014-0.1-0.0346-0.15-0.0586-0.02-0.011-0.0503-0.0212-0.0703-0.0332-0.04-0.02-0.0694-0.0386-0.109-0.0606-0.03-0.017-0.0598-0.0358-0.0898-0.0527-0.04-0.025-0.0811-0.0453-0.121-0.0723-0.03-0.021-0.0596-0.0434-0.0996-0.0684-0.04-0.027-0.0789-0.0588-0.129-0.0918-0.03-0.022-0.0598-0.0453-0.0898-0.0703-0.07-0.056-0.151-0.115-0.221-0.176-0.03-0.026-0.0696-0.054-0.0996-0.084-0.04-0.04-0.0906-0.0811-0.141-0.121-0.03-0.032-0.0596-0.0638-0.0996-0.0938-0.02-0.022-0.0403-0.0444-0.0703-0.0664 0 0-6.9e-4 8.59e-4 0.01 2e-3 -0.13-0.123-0.249-0.247-0.359-0.377 0.11-9e-3 0.22-0.0295 0.33-0.0625 0.32-0.093 0.67-0.226 0.92-0.398 0.45-0.306 0.66-0.683 0.73-1.1zm-54 5.54h10.6l-0.805 4.19h-5.21l0.203-1.15h-3.22l-0.49 2.77 6.16 3.68c1.02 0.618 1.44 1.43 1.26 2.34l-0.805 4.23c-0.216 1.23-2.42 2.63-4.14 2.63h-9.94l0.781-4.43h5.2l-0.205 1.17h3.21l0.619-3.5-6.16-3.68c-0.102-0.06-0.205-0.13-0.32-0.219-0.09-0.067-0.175-0.141-0.285-0.246-0.079-0.076-0.15-0.156-0.244-0.27-0.057-0.071-0.11-0.145-0.168-0.234l-0.0195-0.0352c-0.204-0.348-0.278-0.69-0.221-1.02l0.672-3.81c0.173-0.98 1.42-2.43 3.55-2.43zm12.2 0h16l-0.773 4.19h-3.31l0.113-0.623h-2.29l-2.11 11.5h1.24l-0.662 3.62h-7.32l0.66-3.62h1.24l2.11-11.5h-2.29l-0.113 0.623h-3.31zm42.2 0h3.13l-0.779 4.19h-3.31l0.109-0.623h-1.16c0.12-0.043 0.242-0.0923 0.352-0.152 0.43-0.218 0.779-0.528 1.05-0.926 0.84-1.4 0.761-2.14 0.611-2.49zm4.87 0h13.1l-0.77 4.19h-3.99l0.119-0.623h-3.13l-0.73 3.99h3.89l-0.57 3.16h-3.9l-0.799 4.37h3.13l0.15-0.807h4.28l-0.809 4.43h-13.4l0.66-3.62h1.24l2.11-11.5h-1.24zm-108 2e-3h5.82l3.6 11.8 1.95-11.8h5.46l-0.65 3.6h-1.24l-2.08 11.5h1.24l-0.652 3.61h-5.79l-3.61-11.7-1.88 11.7h-5.54l0.65-3.61h1.24l2.08-11.5h-1.24zm18.5 0h5.79l3.07 8.87 4.76-6.73c0.095 6e-3 0.193 0.0098 0.295 0.0098 1.09 0 2.85-0.373 5.01-2.15h1.87l-0.652 3.6h-1.24l-2.07 11.5h1.24l-0.648 3.6h-5.79l1.96-10.9-6.17 8.55-3.19-8.57-1.91 10.9h-5.7l0.648-3.6h1.27l2.07-11.5h-1.27zm61.2 0h8l-0.0859 15.1h1.26l-0.662 3.62h-5.53l0.176-4.66h-3.54l-1.5 4.66h-5.55l0.662-3.62h1.38zm11.5 0.0898c0.14 0.341 0.611 1.19 2.03 1.87 0.35 0.139 0.719 0.255 1.12 0.359l0.15 0.0391c0.58 0.147 1.18 0.299 1.78 0.396 0.51 0.084 0.901 0.114 1.28 0.104 0.48 0.267 1.03 0.537 1.76 0.732 0.24 0.064 0.469 0.103 0.689 0.119l-2.08 11.4h1.25l-0.67 3.62h-7.31l0.66-3.62h1.24l2.11-11.5h-2.29l-0.109 0.621h-3.32l0.742-4.02zm-8.15 2.45-2.86 8.56h2.84z" fill="#000"/>
   <path d="m52.5 32.3c0.666 0.791 0.305 3.3 0 5.77-0.198 1.6-0.455 3.66-0.795 5.86l4.41 2.68 2.79-0.652c-0.343-4.84-1.79-9.23-1.71-12.3 0.058-0.423 0.127-0.806 0.215-1.15-1.47-0.058-3.5-0.198-4.91-0.248zm30.1 2.76c-0.24 1.57-0.519 2.78-0.869 3.54-0.366 0.883-1.1 1.19-1.56 1.35-0.026 0.134-0.0687 0.331-0.0977 0.461-0.68 3.11-1.77 5.66-3.12 7.76l2.07 0.814 4.81-2.04c0.235-1.32 0.484-2.59 0.713-3.75 0.62-3.15 2.07-5.89 3.34-6.71-1.22-0.36-3.77-1.06-5.28-1.43zm-31.1 10.6c-0.965 5.61-2.52 11.7-5.13 13.7l2.95 2.23c0.464 0.368 0.812 0.844 1.03 1.4l1.84 1.58c0.752 0.217 1.5 0.947 1.82 1.57l1.31 1.17c0.648 0.786 1.08 2.3 0.549 3.32-0.032 0.954-0.612 1.77-1.58 2.09l-0.0606 1.74-2e-3 0.0273c0.881-0.487 1.93-0.799 3.15-0.799h0.453c0.988-4.58 2.7-11.6 3.78-15.9-1.84 0.348-3.87 0.59-6.09 0.707 2.17-2.96 3.31-6.13 3.51-9.17 0.059-0.973 0.0559-1.94 0.0059-2.89l-3.05 1.79zm25.1 3.05c-1.8 2.62-4.01 4.51-6.28 5.94-1.8 1.13-4.1 2.08-6.9 2.77-1.18 4.27-2.98 11.6-4.36 16.3h19.1c1.44-3.7 3.42-7.32 6.1-11.4-1.9-2.93-1.51-8.42-0.701-13.5l-4.5 1.82zm-13.9 16.9c0.0992-0.0044 0.202 7e-3 0.303 0.0332-0.234 0.23-0.462 0.44-0.586 0.84-0.123 0.4-0.107 0.759 0.0684 1.11-0.536-0.141-0.857-0.697-0.715-1.23 0.106-0.403 0.443-0.683 0.832-0.738 0.0322-0.0048 0.0646-0.0083 0.0977-0.0098zm-13.8 4.15c0.282 1.14-0.49 2.29-1.26 3.1-0.139 0.122-0.337 0.563-0.439 0.887h5.76l-2.14-1.73-2e-3 -0.555zm54 2.63c-0.61 1.07-1.13 2.24-1.67 3.48 0.44 0.721 1.41 0.964 3.07 1.37 0.4 0.099 0.83 0.182 1.23 0.221-0.63-0.57-1.17-1.42-0.74-2.22-0.74-0.813-1.21-1.36-1.64-2.2-0.1-0.203-0.18-0.421-0.25-0.645zm-49 2.13-0.0176 0.0938h0.121c2e-3 -3e-3 0.0048-0.0029 0.0078-0.0039l-0.0742-0.0625h-2e-3z" fill="#7e141b"/>
   <path d="m69.3 4.6c3.04 2.35-1.49 5.4-6.4 5.82 4.05 0.771 11.7-3.53 6.4-5.82zm8.08 0.115c-0.69 0.575-0.555 1.69 0.219 2.82 0.67 0.986 1.75 1.91 2.97 2.31-1.57-1.44-3.37-3.29-3.19-5.13zm13.2 7.75c-3.29 2.94-7.33 5.3-15.2 6.51 4.42 7e-3 11.4-1.15 15.2-6.51zm-38.7 1.1c-1.19-3e-3 -2.04 0.517-2.01 1.34 1.09-1.23 2.74-0.67 5.1 0.49 1.89 0.927 4.22 1.91 6.5 2.48-2.23-0.952-4.94-2.52-6.18-3.13-1.14-0.562-2.7-1.17-3.41-1.17zm30.2 1.39c-2.32 0.587-6.62 0.88-9.45 0.945-5.59 0.129-9-0.0759-12.4-0.463 2.97 1.09 7.72 1.57 12.6 1.7 3.4 0.088 7.01-0.0796 9.59-0.684-0.152-0.675-0.249-1.04-0.357-1.5zm-20.6 3.51c-1.38-0.038-2.6 0.318-3.31 1.38 0.433-0.299 1.57-0.958 2-1.01-0.042 0.321 0.0664 0.575 0.316 0.844 0.179-0.441 0.426-0.738 0.75-0.967 2e-3 0.323 0.0823 1.01 0.404 1.58 0.283-0.525 0.527-1.19 0.961-1.47-0.045 0.228-0.0301 0.571 0.211 1.05 0.393-0.776 0.624-0.966 1.27-0.969-0.881-0.239-1.77-0.403-2.6-0.426zm12.6 9.95c-0.506-0.041-1.14 0.145-1.57 0.211-2 0.307-3.26 2.36-5.29 3.14 1.74-0.325 2.28-1.01 2.93-1.64 0.07 0.175 0.309 0.385 0.449 0.549 0.166-0.525 0.324-0.808 0.754-1.35 0.043 0.391 0.148 0.673 0.371 1.05 0.183-0.544 0.318-0.828 0.799-1.35 0.027 0.298 0.2 0.62 0.514 1.13 0.151-0.5 0.314-0.815 0.641-1.23 0.088 0.365 0.274 0.747 0.582 1.05 0.115-0.351 0.221-0.677 0.344-0.854 0.433 0.124 0.854 0.354 1.86 0.0918-0.939-0.054-1.39-0.338-1.93-0.67-0.127-0.078-0.282-0.117-0.451-0.131zm4.79 0.0176c-0.199 0.045-0.324 0.182-0.494 0.369-0.339 0.368-0.843 0.444-1.4 0.426 0.652 0.163 0.722 0.684 0.402 1.83 0.292-0.243 0.701-0.711 0.807-1.64 0.195 0.134 0.336 0.466 0.434 0.664 0.265-0.413 0.276-0.708 0.252-1.04 0.225 0.012 0.392 0.18 0.609 0.467 0.11-0.21 0.134-0.394 0.0977-0.59 0.302-0.028 0.534 0.0207 1.01 0.0977-0.184-0.152-0.676-0.37-0.779-0.41-0.468-0.18-0.742-0.228-0.941-0.182zm-36.4 30.2c-0.183 0.023-0.372 0.0786-0.521 0.186-0.033 0.101-0.0152 0.42 0.0938 0.529 0.657 0.654 0.845 1.06 0.822 1.69l2.65 2.1c0.495 0.393 0.453 0.698 0.396 0.914l-1.68-1.32c-1.23 0.109-1.81 1.11-1.72 2.15-0.48-0.917-0.0626-2.26 1.27-2.5l-1-0.791c-0.391 0.718-0.645 1.22-0.742 1.9-0.089 0.619 0.102 1.31 0.258 1.97l1.51 1.57c-0.042-0.189 0.014-0.348 0.043-0.473-0.473-0.423-0.626-0.943-0.398-1.56 0.099-0.269 0.44-0.777 1.17-1.04-0.089-0.253-0.119-0.402-0.0352-0.727 0.141 0.39 0.341 0.691 0.656 0.895-0.868 0.228-1.24 0.631-1.36 1.03-0.285 0.882 0.35 1.02 0.422 1.3 0.088 0.345-0.363 0.85 0.389 1.56 0.454 0.429 1.54 0.364 1.79-0.582 0.14 1.3-1.37 1.47-2.02 0.908l-1.82-1.91c0.477 0.904 0.936 1.83 1.66 2.56l-0.0039 0.0039c0.847 0.826 1.01 2.38 1.14 3.46 0.278 0.09 0.704 0.0678 1.01-0.117 0.204-0.793 0.326-3.14 0.312-4.07v-0.0234c1.07 0.107 1.53-0.265 1.71-0.721-0.766-0.726-1.04-1.1-1.34-1.76l5.09 4.51 0.0039 1.1 0.684 0.553 0.0176-0.531c0.609 0.439 1.82-0.0754 1.47-1.07 0.628-0.404 0.132-1.72-0.123-2.02l-1.02-0.91v0.361c-0.025 0.55-1.4-0.411-1.68-1.17 0.57 0.446 1 0.896 1.2 0.812l0.0234-0.406c0.019-0.355-0.966-1.23-1.17-1.01l-2.5-2.15c-0.071-0.43-0.388-0.88-0.668-1.09l-3.36-2.54c-0.361-0.274-1.04-0.0231-1.35 0.0469-0.407-0.666-0.196-1.23-0.77-1.57-0.124-0.03-0.3-0.0425-0.484-0.0195zm2.15 1.84c0.945 0.701 1.94 1.72 2.27 2.36l-2.86-2.24c0.165-0.066 0.404-0.114 0.588-0.115zm64.6 2.3c-0.19 0.061-0.401 0.168-0.621 0.283 1.08 0.291 1.47 1.01 1.38 1.62 0.36 0.217 0.63 0.53 0.68 0.973 0.05 0.435 0.0193 0.879 0.0293 1.32 0.02 0.746 0.241 1.33 0.451 1.99 0.03 0.086 0.0699 0.193 0.0898 0.27 0.07 0.228 0.118 0.454 0.148 0.672 0.39 0.178 0.89 0.429 1.32 0.717 0.44 0.288 0.781 0.596 1.02 0.959 0.29 0.445 0.409 1.09 0.139 1.61-0.17 0.353-0.669 0.73-1.28 0.941 0.89 0.098 1.77-0.331 2.24-0.977 0.25-0.357 0.349-0.751 0.439-1.12-0.44-0.112-0.951-0.288-1.55-0.73 0.56 0.079 1.17 0.177 1.65 0.248 1.28 0.166 2.11-0.0658 2.3-0.801 0.7-0.639 1.11-1.48 1.52-2.31 0.78 0.195 1.09-0.171 1.26-0.502-0.18-0.129-0.359-0.189-0.539-0.219l-0.881-0.16c-0.4 6e-3 -0.45 0.447-0.0996 0.752-0.52-9e-3 -0.84-0.511-0.67-0.896l-1.37-0.266c0.01 0.042 0.0308 0.0849 0.0508 0.129 0.07 0.208 0.16 0.64 0.15 0.883 0 0.868-0.459 1.98-1.19 1.87l-4.02-0.611c-0.01-0.194 0.0405-0.363-0.0195-0.498l4 0.629c0.49 0.076 0.73-1.02 0.73-1.43 0-0.435-0.19-0.951-0.33-1.5-0.01 0.132-0.0308 0.288-0.0508 0.469-0.04 0.27-0.26 0.546-0.5 0.609-0.03 0.151-0.0501 0.305-0.0801 0.508 0.59-0.653 0.741-0.108 0.691 0.162-0.09 0.603-0.68 0.977-0.83 0.348-1.51-0.152-2.03-0.33-2.18-0.953-0.13-0.557 1.12-0.218 2.25-0.0606-0.11-0.382-0.191-0.829 0.109-1.23-0.85-0.124-1.93-0.31-1.79-1.04 0.09-0.435 1.37-0.0944 2.26 0.0586 0-0.064 0.0115-0.126 0.0215-0.191l-3.48-0.592c-0.59 0.679-1.11 2.03-1.31 3.44-0.54-1.42 0.0702-2.81 0.74-3.54l-0.939-0.188c0.3-0.209 0.819-0.305 1.21-0.246l5.62 0.949-1.37 0.234c0 0.71 0.0506 1.07 0.141 1.39l1.37 0.266c-0.56-0.783-0.0981-2.18 0.922-2.13-0.95 0.387-0.82 1.74-0.33 2.23l1.19 0.252c0.32 0.065 0.489 0.314 0.529 0.572l6.91 1.26 0.221 0.846 1.23-0.0762-0.141-0.551 1.26 0.234c0.56 0.09 1.03-1.25 0.289-1.65 0.31-0.586-0.159-1.18-0.469-1.28l-0.801-0.164c-0.02-0.894-2.31-1.63-2.26-0.352l-7.37-1.33c-0.13-0.425-0.341-0.508-0.951-0.605l-6.1-0.992c-0.46-0.072-0.909 0.468-1.19 0.609-0.7-0.35-0.61-1.05-1.85-1.12zm-61.6 0.354c0.429 1e-3 0.927 0.165 1.25 0.578-0.532-0.281-1.05-0.297-1.42-0.193-1.02 0.281-1.24 1.67-0.639 2.32-0.253 0.494-0.0542 1.37 1.09 1.69-1.56 0.196-1.85-1.33-1.58-1.78-0.706-0.817-0.119-2.28 0.896-2.56 0.118-0.033 0.254-0.0508 0.396-0.0508zm-2.53 1.56c0.0106-5.36e-4 0.0225 0 0.0332 0-0.105 0.355 0.184 0.626 0.535 0.621-0.046 0.342-0.362 0.621-0.703 0.621-0.341-1e-6 -0.583-0.279-0.537-0.621 0.0465-0.332 0.342-0.604 0.672-0.621zm0.477 1.72c0.0106-5.4e-4 0.0206 0 0.0312 0 0.341 0 0.582 0.28 0.535 0.621-0.045 0.343-0.363 0.621-0.705 0.621-0.341 0-0.581-0.278-0.533-0.621 0.0446-0.33 0.343-0.604 0.672-0.621zm84 0.771c5e-3 -5.12e-4 0.0106 0 0.0156 0 0.16 0 0.299 0.265 0.299 0.592 0 0.326-0.139 0.59-0.299 0.59s-0.291-0.264-0.291-0.59c0-0.317 0.122-0.576 0.275-0.592zm-80.7 0.949c-0.262 0.334-0.574 0.53-0.939 0.643 0.67 0.212 1.31 0.269 1.62-0.043zm81.2 0.289c3e-3 -3.69e-4 6e-3 0 0.01 0 0.12 0 0.211 0.191 0.211 0.422 0 0.234-0.0909 0.422-0.211 0.422-0.11 0-0.209-0.188-0.209-0.422 0-0.224 0.0933-0.41 0.199-0.422zm-76.6 0.547c0.0106-5.33e-4 0.0226 0 0.0332 0 0.343 0 0.581 0.276 0.535 0.617-0.047 0.343-0.36 0.623-0.703 0.623-0.342 0-0.583-0.28-0.537-0.623 0.0455-0.33 0.343-0.601 0.672-0.617zm-6.12 0.836c-0.022 0.449-0.0576 0.901-0.102 1.35 0.3-0.472 0.507-1.03 0.174-1.3-0.022-0.018-0.0473-0.0348-0.0723-0.0488zm6.58 0.611c1e-3 0.228-0.0392 0.492-0.285 0.551-0.301 0.073-0.416-0.157-0.42-0.336 0.216 0.048 0.556-0.0208 0.705-0.215z" fill="#8a8a8a"/>
  </g>
 </g>
</svg>