<svg xmlns="http://www.w3.org/2000/svg" height="251.24" viewBox="0 0 203.66943 251.24023" width="203.67"><g transform="matrix(1.25 0 0 -1.25 -213.04 899.56)"><g transform="matrix(3.5156 0 0 3.5156 -630.95 -1554.8)"><path d="m269.68 628.68 2.024 5.411-4.35 9.555-0.323 0.185c-0.25 0.143-6.979 2.878-15.898 2.878-8.917 0-15.741-2.86-15.996-3.001l-0.305-0.169-4.863-8.671 2.597-6.454-4.413-8.155 4.124-8.879c0.054-0.036 5.894-4.118 18.063-20.331l0.793-1.056 0.791 1.056c12.169 16.213 17.866 20.192 17.866 20.192l4.254 9.057-4.364 8.382z" fill="#9fa0a2"/><path d="m270.31 619.35c0.5 0.166 2.526 0.834 2.526 0.834l-0.616 1.381c-0.816 1.838-2.399 4.653-3.646 6.796-0.48 0.824-0.912 1.552-1.23 2.083 0.508 0.514 3.328 3.409 3.328 3.409l-4.013 8.934s-6.16 3.057-15.505 3.057-15.817-3.015-15.817-3.015l-4.241-8.438s2.953-3.065 3.822-3.947c-0.313-0.523-0.737-1.238-1.207-2.047-1.252-2.148-2.848-4.984-3.669-6.832l-0.68-1.529s2.215-0.491 2.657-0.588c-0.347-0.534-0.68-1.171-0.922-1.896l-0.32-0.962 0.831-0.588c0.062-0.045 6.286-4.542 18.429-20.72l1.095-1.458 1.093 1.458c12.144 16.178 18.369 20.675 18.43 20.72l0.827 0.586-0.316 0.964c-0.238 0.712-0.542 1.309-0.856 1.798" fill="#fff"/><path d="m28.725 2.0996c-10.908 0-18.459 3.3262-18.459 3.3262l-5.3145 9.9941 5.6563 4.6523s-4.9073 8.0524-6.6836 12.045l4.0488 0.89648s-1.8449 1.4918-2.6699 3.9668c0 0 7.8069 5.4665 23.422 26.271 15.614-20.805 23.42-26.271 23.42-26.271-0.825-2.475-2.4316-3.6055-2.4316-3.6055l3.8086-1.2578c-1.7738-3.9925-6.6797-12.045-6.6797-12.045l4.855-4.079-4.877-10.517s-7.1895-3.375-18.096-3.375zm-25.045 13.291 3.2676 7.492c0.58875-1.0112 1.1185-1.9029 1.5098-2.5566-1.0862-1.1038-4.7773-4.9355-4.7773-4.9355zm49.47 0.671s-3.5252 3.6199-4.1602 4.2637c0.3975 0.66375 0.93711 1.5735 1.5371 2.6035l2.623-6.867zm2.7031 17.088s-2.5312 0.83547-3.1562 1.043c0.39125 0.61125 0.77211 1.3573 1.0684 2.2461l0.39648 1.2051 1.6914-4.4941zm-1.6914 4.4941-1.0332 0.73242c-0.07625 0.05625-7.8571 5.6786-23.037 25.902l-1.3672 1.8223-1.3691-1.8223c-15.179-20.222-22.96-25.845-23.038-25.901l-1.0368-0.734 3.086 5.851s6.7424 4.5329 22.357 25.338c15.614-20.805 22.355-25.338 22.355-25.338l3.082-5.8496zm-50.881-0.002 0.40039-1.2012c0.3025-0.90625 0.71859-1.7036 1.1523-2.3711-0.5525-0.12125-3.3223-0.73437-3.3223-0.73437l1.7695 4.3066z" transform="matrix(.8 0 0 -.8 228.15 646.71)"/><path d="m30.18 3.541-0.34766 0.13477c0.09125 0.0625 0.18438 0.12227 0.26562 0.19727 0.30625 0.28375 0.48656 0.63664 0.50781 0.99414 0 0.00375 0.002 0.00977 0.002 0.00977 0.0075 0.17125 0.02344 1.4999 0.02344 1.5137 0.0175 0.35125-0.88969 0.97984-1.5234 1.3086-0.15625 0.08375-0.3132 0.16555-0.4707 0.24805 0.1725 0.04125 0.34633 0.081797 0.51758 0.12305 0.67875 0.1625 1.6362 0.57461 1.6562 0.91211l0.21875 4.3848s-2.2995 1.3457-2.3457 1.3457c-0.04625 0-5.1426 0.0078-5.1426 0.0078l-0.51953 0.55078h5.7617l2.6992-1.5723s-0.28125-4.7058-0.28125-4.707c-0.04-0.58875-0.92156-0.98133-1.5078-1.1738 0.54-0.325 1.332-0.88625 1.3008-1.4062 0-0.05-0.03102-1.3426-0.04102-1.5176-0.02625-0.4475-0.25-0.88617-0.625-1.2324-0.0475-0.0425-0.09719-0.081094-0.14844-0.12109zm-6.9336 0.056641-0.2793 0.25391c0.05125 0.03 0.10648 0.05625 0.14648 0.09375 0.1775 0.16625 0.24547 0.40328 0.19922 0.70703-0.69875 4.3162-1.332 8.2363-1.332 8.2363l-2.2598 1.8516-3.9355 0.0293-0.30664 0.50195h4.2969l2.5996-2.1523s1.1064-7.3126 1.2852-8.4863c0.05875-0.39125-0.03648-0.71148-0.27148-0.92773-0.0425-0.04-0.09133-0.074922-0.14258-0.10742zm14.399 0.6524-0.258 0.1289c0.04375 0.03125 0.09281 0.059297 0.13281 0.091797 0.31625 0.2625 0.53172 0.5968 0.63672 0.99805 0.4175 1.5925 1.9922 7.5801 1.9922 7.5801l-1.497 1.701-3.933-0.023-0.08398 0.54492h4.2969l1.709-1.9863s-1.8151-6.658-2.1113-7.748c-0.1325-0.485-0.40359-0.89602-0.80859-1.2285-0.024-0.0222-0.051-0.0395-0.076-0.0595zm-9.2324 0.30664-1.5254 0.021484-0.1582 2.7461 0.39258-0.38867 0.0957-2.0352 0.8418-0.011719 0.35352-0.33203zm5.6367 0.27344 1.1621 7.7754 0.34961-0.4668-1.1074-6.9473 1.1289 0.125 0.29492-0.27539-1.8281-0.21094zm-12.959 0.20508-1.8691 0.27344-2.0527 7.4473 0.55273-0.47266 1.7852-6.7148 1.1484-0.16602 0.43555-0.36719zm-6.8066 0.025391-0.51367 0.37891-3.3262 7.7285 0.61133-0.42578 3.2285-7.6816zm31.626 1.0293-0.316 0.1016 0.486 1.0547-4.053-1.0742 0.866 2.3808 0.291-0.2519-0.651-1.7442 4.106 1.0821-0.729-1.5489zm-17.555 2.791-1.7168 0.013672-0.21289 3.6777 0.44922-0.49609 0.13086-2.7656 0.95117-0.00781 0.39844-0.42188zm13.146 0.64062 0.03906 0.36914c0.47125 0.2325 1.0151 0.39109 1.6113 0.46484l1.8555 0.25 0.29102-0.2832s-1.5255-0.22828-2.2793-0.33203c-0.57-0.07625-1.0938-0.23875-1.5176-0.46875zm5.457 0.074219c0.07375 0.04125 0.1518 0.081953 0.2168 0.12695 0.33125 0.22625 0.57188 0.49805 0.73438 0.8418 0.0025 0.005 1.4023 2.9961 1.4023 2.9961l-1.3203 1.2949-5.4453-0.07031-0.30273 0.48633h6.0918l1.5059-1.5098s-1.0085-2.1138-1.4785-3.0938c-0.185-0.3925-0.46883-0.72102-0.86133-1.0098l-0.54297-0.0625zm-33.07 2.9434-0.58789 0.44922-0.66211 1.8164-5.707 0.08008-0.64258 0.38672h6.6289l0.9707-2.7324zm32.381 3.9434c-10.685 2.0862-13.471 9.1602-13.471 9.1602 0.16125-1.9975 1.1836-4.0039 1.1836-4.0039-1.6638-1.89-8.2578-1.9395-8.2578-1.9395 6.2462-1.5812 9.4414 0.84961 9.4414 0.84961l0.94141-1.1777c-2.6912-0.4975-3.1444-0.99414-7.3281-0.99414-3.6375 0-4.4588 0.37578-6.375 0.80078 1.9038 2.5262 2.6523 5.627 2.6523 5.627-4.5988-6.015-13.607-7.7988-13.607-7.7988s11.518 4.5874 13.629 11.889c0.8025 0.77375 1.1719 1.4004 1.1719 1.4004l0.08008 0.10938c0.16-1.677-0.632-4.403-0.632-4.403 2.1312 2.6888 2.3164 6.1152 2.3164 6.1152s-2.2956 0.8493-3.9844-2.5957c-1.3088-2.0775-4.3304-3.2572-4.3691-3.2734 0.01961 0.01637 1.7968 1.4055 2.7871 2.9902 0.99625 1.595 1.9954 4.3823 5.1816 3.8848l-1.1953 0.99609 0.88281 5.8574-0.48828-1.0234c-3.7162-7.07-9.5356-2.8908-10.516-2.1133-0.04875 0.03875-0.33945 0.28094-0.43945 0.36719 0 0 1.3664-2.6725 4.2852-4.7812 0 0-1.0101-1.9254-0.67383-3.5254 0 0-2.913-3.8477-8.293-2.2539 0 0 2.4276 1.1123 3.9238 2.6973 0 0 0.52625 0.51453 0.75 0.98828-2.2238-0.70875-7.2656 1.0957-7.2656 1.0957s2.3456-0.37484 5.2031 1.5977l1.4629 1.0078c-3.03 0-6.8652 1.6797-6.8652 1.6797s2.5896 0.10164 10.162 5.1816l-0.99609 1.3945s3.4079 1.0872 4.3379 5.3359c0.65625 3.0012 1.9814 6.6545 3.0039 8.3008 0.74375 1.195 2.0025 2.043 3.8438 2.043 0.01125 0 0.01734-0.002 0.02734-0.002 0.0087 0 0.01734 0.002 0.02734 0.002 1.84 0 3.1-0.84797 3.8438-2.043 1.0238-1.6462 2.3464-5.2995 3.0039-8.3008 0.93125-4.2488 4.3359-5.3359 4.3359-5.3359l-0.99219-1.3945c7.5712-5.08 10.16-5.1816 10.16-5.1816s-3.834-1.6797-6.8652-1.6797l1.4609-1.0078c2.8675-1.9938 5.2051-1.5977 5.2051-1.5977s-5.0426-1.8045-7.2676-1.0957c0.22375-0.47375 0.75195-0.98828 0.75195-0.98828 1.4962-1.585 3.9258-2.6973 3.9258-2.6973-5.38-1.5938-8.2949 2.2539-8.2949 2.2539 0.33625 1.6-0.67188 3.5254-0.67188 3.5254 2.9162 2.1088 4.2832 4.7812 4.2832 4.7812-0.15625-0.13625-0.31109-0.26492-0.46484-0.38867-1.0625-0.8375-6.8535-4.9323-10.51 2.1602l-0.4707 0.99805 0.88281-5.8574-1.1953-0.99609c3.1888 0.4975 4.1854-2.2898 5.1816-3.8848 0.9975-1.5938 2.7891-2.9902 2.7891-2.9902s-3.0509 1.1834-4.3672 3.2734c-1.69 3.445-3.9844 2.5957-3.9844 2.5957s0.18195-3.4265 2.3145-6.1152c0 0-0.79227 2.7255-0.63477 4.4043l0.08398-0.10938s0.36867-0.62789 1.1699-1.4004c2.1175-7.33 13.789-12.412 13.789-12.412zm-35.678 1.416c1.395 0.9975 2.5237 2.3677 3.3262 3.5352 0 0 2.7217 0.58266 6.9492 3.6289-6.7288-6.73-10.275-7.1641-10.275-7.1641zm36.375 0s-1.0999 0.13531-3.2324 1.4141c-0.5975 0.35875-1.2764 0.80523-2.0352 1.3652-0.08 0.06125-0.09766 0.07227-0.09766 0.07227l-1.5918 3.4434c0.68625-0.15125 1.447-0.30234 2.252-0.43359 0 0 1.7676-3.7626 4.7051-5.8613z" transform="matrix(.8 0 0 -.8 228.15 646.71)" fill="#9fa0a2"/><path d="m20.918 35.369c-1.9391-0.26139-2.8516 3.9629-2.8516 3.9629 1.1962-0.3875 2.8262 0.12891 2.8262 0.12891-0.7875 0.6575-1.0508 2.1699-1.0508 2.1699 4.0725 4.075 3.3271 7.2097 4.5996 11.305 0.9275 2.9888 2.8704 3.4824 4.3379 3.4824s3.5147-0.49367 4.3359-3.4824c1.1375-4.1338 0.52781-7.2297 4.6016-11.305 0 0-0.26203-1.5124-1.0508-2.1699 0 0 1.6312-0.51641 2.8262-0.12891 0 0-1.1911-5.517-3.7461-3.5508-1.4488 1.115-0.88352 3.5544-1.4473 6.7031-0.65625 3.68-0.45953 6.0469-5.5195 6.0469-5.0612 0-4.8652-2.3669-5.5215-6.0469-0.5625-3.1488 0.0047-5.5881-1.4453-6.7031-0.31922-0.24578-0.61752-0.37477-0.89453-0.41211zm2.6621 0.7207s1.8401 4.9227 2.1113 9.2227c0.1575 2.4962 3.0898 2.3652 3.0898 2.3652s3.0634 0.13352 3.0859-2.3652c0.03875-3.8375 2.4336-9.2227 2.4336-9.2227s-2.6193 2.4893-3.9355 6.6855c-0.0125-0.0275-0.19023-0.09375-1.584-0.09375-1.5025 0-1.6291 0.07711-1.6328 0.09961-1.3138-4.2-3.5684-6.6914-3.5684-6.6914z" transform="matrix(.8 0 0 -.8 228.15 646.71)"/><path d="m28.365 2.959c-1.1938 0.01-3.7656 0.15625-3.7656 0.15625l-1.578 12.156 0.518-0.55 1.357-11.33 3.465-0.1293c0.5675 0.0025 1.0732 0.15031 1.4707 0.41406l0.34766-0.13477c-0.47375-0.3725-1.107-0.57828-1.8145-0.58203zm4.5977 0.24219c-0.95784 0.030933-1.499 0.50602-1.4355 1.3066 0.3775 4.9 0.66211 8.5762 0.66211 8.5762l2.4434 2.1875 0.08594-0.54492-2.1211-1.875s-0.57461-6.6016-0.72461-8.3203c-0.06625-0.73625 0.52211-1.1138 1.5684-1.0176 0.8275 0.09125 1.6609 0.19781 2.5059 0.32031 0.59375 0.09625 1.0732 0.28367 1.4395 0.54492l0.256-0.1293c-0.453-0.3475-1.044-0.5895-1.76-0.707-0.835-0.1275-1.663-0.2375-2.485-0.3262-0.153-0.0141-0.298-0.02-0.435-0.0156zm-10.676 0.1855c-0.13336 0.00234-0.27578 0.015156-0.42578 0.035156-0.8375 0.12125-1.6856 0.26008-2.5469 0.42383-1.4612 0.3025-2.4687 1.0301-2.8262 2.0488-1.3975 4.0188-2.6035 7.4844-2.6035 7.4844l1.5918 1.8926 0.30859-0.50195-1.3926-1.6152s1.9542-5.7815 2.4805-7.334c0.2925-0.865 1.0908-1.4325 2.3633-1.6875 0.86625-0.15625 1.722-0.29477 2.5645-0.41602 0.5125-0.0675 0.90352-0.016484 1.166 0.13477l0.279-0.2536c-0.236-0.1463-0.559-0.218-0.959-0.211zm17.764 1.1035c-0.7609 0.024492-0.98484 0.45141-0.83203 0.97266l0.83398 2.8477c0.1225 0.42 0.40656 0.82375 0.82031 1.1562 0.19875 0.1625 0.42422 0.30133 0.66797 0.42383l-0.03906-0.36914c-0.1525-0.08375-0.29688-0.17469-0.42188-0.27344-0.3175-0.255-0.52625-0.54594-0.625-0.86719-0.0012-0.0025-0.85938-2.8438-0.85938-2.8438-0.1525-0.5075 0.14305-0.97734 1.498-0.65234 0 0 0.98969 0.2582 2.0547 0.56445 1.0812 0.3125 2.4453 0.74414 2.4453 0.74414l0.31641-0.10352s-4.1671-1.281-4.9121-1.4785c-0.37906-0.0925-0.69363-0.12926-0.94727-0.12109zm-11.639 0.066406-0.35352 0.33203-0.04492 2.0352-0.89258 0.011719-0.39258 0.38867 1.6465-0.023438 0.03711-2.7441zm-7.3223 0.47852-0.43359 0.36719-1.5957 6.8203-1.3398 0.06055-0.55273 0.47266 2.2109-0.08398 1.7109-7.6367zm14.787 0.00586-0.29688 0.27539 1.3105 6.8711-1.3301-0.04883-0.35156 0.4668 2.2012 0.06445-1.5332-7.6289zm-21.592 0.0195-3.398 1.0704-4.5979 9.1401 0.6425-0.386 4.2614-8.6526 2.577-0.7929 0.515-0.379zm28.898 3.2402-0.29102 0.25391s1.5178 0.27984 2.2891 0.43359c0.765 0.16 1.3448 0.36117 1.7773 0.60742l0.54297 0.0625c-0.03625-0.0275-0.07453-0.054531-0.11328-0.082031-0.5675-0.385-1.3143-0.67664-2.3418-0.90039l-1.8633-0.375zm-14.828 0.58008-0.39648 0.42188-0.06641 2.7695-1.0176 0.0039-0.44727 0.49609 1.8789-0.0078 0.04883-3.6836zm16.943 1.4414-0.29102 0.2832 0.85156 2.1426-4.4512-0.30664 0.83594 2.8301 0.30273-0.48633-0.57617-1.8809 4.4902 0.26758-1.1621-2.8496zm-31.41 2.2168-2.834 0.20313-0.60938 0.42578 2.8555-0.17969 0.58789-0.44922zm32.381 3.9434s-7.0048 0.69195-11.104 4.0645c0 0-3.1952-2.4289-9.4414-0.84766 0 0 6.5941 0.04945 8.2578 1.9395 0 0-1.0223 2.0084-1.1836 4.0059 0 0 2.7857-7.0759 13.471-9.1621zm-34.82 0.52344s9.0087 1.7851 13.607 7.7988c0 0-0.74859-3.1007-2.6523-5.627-0.28875 0.06375-0.60188 0.12961-0.95312 0.19336l1.5938 1.9922s-4.1245-3.4612-11.596-4.3574zm30.153 3.745c-1.3788 1.0275-3.0202 2.4212-4.9102 4.3125l3.318-0.869 1.592-3.443zm-27.684 0.68164c0.8875 1.2888 1.377 2.3281 1.377 2.3281 3.1112 0.50625 5.5723 1.3027 5.5723 1.3027-4.2275-3.0462-6.9492-3.6309-6.9492-3.6309zm17.945 4.5664c-2.1325 2.6888-2.3184 6.1172-2.3184 6.1172s2.2951 0.8493 3.9863-2.5957c1.315-2.09 4.3672-3.2734 4.3672-3.2734-2.6162 0.4025-4.378 1.6434-5.418 2.6484-0.8025 0.7725-1.1699 1.4004-1.1699 1.4004l-0.08203 0.10938c-0.1575-1.68 0.63476-4.4062 0.63476-4.4062zm-6.166 0.002s0.79156 2.7255 0.63281 4.4043l-0.08-0.109s-0.36938-0.62664-1.1719-1.4004c-1.0412-1.0025-2.8092-2.2472-5.418-2.6484 0.03875 0.01625 3.0604 1.1959 4.3691 3.2734 1.6888 3.445 3.9844 2.5957 3.9844 2.5957s-0.18516-3.4265-2.3164-6.1152zm-10.58 3.3418c-2.0788-0.0025-5.3201 0.84344-6.5176 2.0859 0 0 5.0426-1.8052 7.2676-1.0977-0.225-0.4725-0.75-0.98828-0.75-0.98828zm27.326 0s-0.5282 0.51578-0.75195 0.98828c2.225-0.7075 7.2676 1.0977 7.2676 1.0977-1.1988-1.2425-4.4381-2.0884-6.5156-2.0859zm-21.914 0.07617s0.02195 2.9795 1.9395 3.1445c1.2788 0.11 1.6445 0.51172 1.6445 0.51172l-0.53125-0.78906c-0.94 0.0425-1.4325-0.76039-1.4375-1.2754-0.0025-0.2275 0.06062-0.43969 0.17188-0.61719l-0.14062-0.20703s-0.30398-0.88383-1.6465-0.76758zm16.043 0c-0.95751 0.09128-1.1914 0.76758-1.1914 0.76758l-0.13672 0.20703c0.11 0.17625 0.17242 0.38969 0.16992 0.61719-0.005 0.515-0.49695 1.3172-1.4395 1.2734l-0.53125 0.79102s0.36524-0.40172 1.6465-0.51172c1.9175-0.165 1.9375-3.1445 1.9375-3.1445-0.16781-0.01453-0.31829-0.01304-0.45508 0zm-22.77 3.6055c-1.24 0.165-3.0136 0.9125-5.4023 2.6875 0 0 3.834-1.6797 6.8652-1.6797l-1.4629-1.0078zm29.951 0-1.4609 1.0078c3.0312 0 6.8652 1.6816 6.8652 1.6816-2.39-1.775-4.163-2.5232-5.4043-2.6895zm-10.764 0.63086-2.748 6.3203 0.46875-0.99805c3.655-7.0937 9.4473-2.9984 10.51-2.1621-5.1038-4.2488-8.0293-2.0215-8.0293-2.0215l-0.20117-1.1387zm-8.4512 0.02344-0.19922 1.1367s-2.9248-2.2259-8.0273 2.0254c0.98125-0.77875 6.7974-4.9606 10.514 2.1094l0.49023 1.0254-2.7773-6.2969zm-0.05469 14.332c0.03875 2.7075 0.99219 4.6562 0.99219 4.6562-0.1225-1.835 0.0089-3.1833 0.12891-3.9258-0.03375-0.015 0.0125 0.0045-0.09375-0.04297-0.4025-0.18375-0.73859-0.41-1.0273-0.6875zm7.791 0.57617s-0.25336 0.13469-0.56836 0.24219c-0.23625 0.08-0.45148 0.14969-0.58398 0.17969 0.3275 0.885 0.96484 3.6562 0.96484 3.6562 0.35875-2.2088 0.1875-4.0781 0.1875-4.0781zm-1.5918 0.45117c-0.2275 0.05875-0.47766 0.10016-0.75391 0.12891-0.06 0.0063-0.10774 0.01367-0.08398 0.01367l0.002 2.166 0.83594-2.3086zm-3.9277 0.01367 0.76953 2.3262 0.06445-2.1699c0.0175 0.0025-0.07117-0.0088-0.13867-0.01758-0.2525-0.035-0.48406-0.08117-0.69531-0.13867zm-0.45898 3.4395c0.0038 1.11 0.08922 2.0368 0.16797 2.6543 0.2425 0.15875 0.49273 0.27633 0.74023 0.36133-0.295-0.8325-0.9082-3.0156-0.9082-3.0156zm4.8965 0s-0.61195 2.1831-0.9082 3.0156c0.24875-0.085 0.49774-0.20188 0.74024-0.35938 0.07875-0.6175 0.16422-1.545 0.16797-2.6562zm-3.2852 1.5195 0.10938 1.7402 0.58984 0.02344-0.69922-1.7637zm1.6738 0-0.69922 1.7637 0.58984-0.02344 0.10938-1.7402z" transform="matrix(.8 0 0 -.8 228.15 646.71)" fill="#fff"/><path d="m33.08 48.008c-0.23375 0.22375-0.49719 0.41367-0.80469 0.57617 0 0 0.17125 1.8701-0.1875 4.0801 0 0 0.95344-1.9487 0.99219-4.6562zm-7.4746 0.73242c-0.11875 0.7425-0.25016 2.0908-0.12891 3.9258 0 0 0.63664-2.7718 0.96289-3.6543-0.3075-0.075-0.58398-0.16524-0.83398-0.27148zm4.2383 0.4375c-0.175 0.015-0.96094 0.03125-0.96094 0.03125l0.96484 2.1367-0.0039-2.168zm-2.252 0.03125-0.06641 2.168 1.0273-2.1172s-0.78719-0.03078-0.96094-0.05078zm-1.2949 3.2812s-0.33773 0.88008-0.55273 2.0176c0.2275 0.265 0.46945 0.47172 0.7207 0.63672-0.08-0.6175-0.16547-1.5443-0.16797-2.6543zm4.8965 0c-0.0038 1.1112-0.08922 2.0388-0.16797 2.6562 0.25-0.16625 0.49445-0.37367 0.7207-0.63867-0.215-1.1375-0.55274-2.0176-0.55274-2.0176zm-3.2852 1.5195-0.40039 1.6094c0.0475 0.0063 0.46156 0.12586 0.50781 0.13086l-0.10742-1.7402zm1.6738 0l-0.108 1.74c0.0475-0.005 0.46422-0.12586 0.51172-0.13086l-0.40234-1.6094z" transform="matrix(.8 0 0 -.8 228.15 646.71)" fill="#9fa0a2"/><path d="m28.363 3.2617-3.467 0.1289-1.357 11.33s5.0976-0.0078 5.1426-0.0078c0.0475 0 2.3477-1.3477 2.3477-1.3477l-0.21875-4.3828c-0.01875-0.33625-0.9775-0.74836-1.6562-0.91211-0.17125-0.04125-0.34633-0.081094-0.51758-0.12109 0.15625-0.08375 0.3125-0.16625 0.46875-0.25 0.63375-0.32875 1.5436-0.95734 1.5273-1.3086 0-0.01375-0.01984-1.3437-0.02734-1.5137v-0.00977c-0.02-0.3575-0.20156-0.71039-0.50781-0.99414-0.08125-0.075-0.17438-0.13602-0.26562-0.19727-0.3975-0.26375-0.9025-0.41156-1.4688-0.41406zm5.0781 0.25195c-1.046-0.0962-1.634 0.2814-1.568 1.0176 0.15 1.7188 0.72461 8.3223 0.72461 8.3223l2.1211 1.873 3.9336 0.02344 1.4941-1.7012s-1.5727-5.9876-1.9902-7.5801c-0.105-0.4025-0.31852-0.73555-0.63477-0.99805-0.04125-0.03375-0.09101-0.060547-0.13476-0.091797-0.36625-0.26125-0.8457-0.44938-1.4395-0.54688-0.845-0.12125-1.6784-0.22711-2.5059-0.31836zm-10.963 0.1875c-0.195-0.023437-0.42148-0.019453-0.67774 0.013672-0.8425 0.1225-1.6982 0.26172-2.5645 0.41797-1.2725 0.255-2.072 0.8218-2.3633 1.6855-0.52625 1.5525-2.4805 7.334-2.4805 7.334l1.3926 1.6172 3.9355-0.03125 2.2598-1.8496s0.63328-3.9201 1.332-8.2363c0.04625-0.30375-0.02172-0.54273-0.19922-0.70898-0.04-0.03625-0.09523-0.063047-0.14648-0.091797-0.13125-0.075625-0.29328-0.12695-0.48828-0.15039zm5.9336 0.85547-0.03711 2.7441-1.6465 0.023438 0.1582-2.7461 1.5254-0.021484zm11.855 0.22266c-0.64781 0.018574-0.78625 0.37625-0.67188 0.75781 0 0 0.85812 2.84 0.85938 2.8438 0.09875 0.32 0.3075 0.61344 0.625 0.86719 0.125 0.09875 0.26938 0.18969 0.42188 0.27344 0.425 0.23 0.94758 0.3932 1.5176 0.4707 0.7525 0.10375 2.2793 0.33008 2.2793 0.33008l1.1602 2.8496-4.4883-0.26758 0.57617 1.8809 5.4453 0.07227 1.3203-1.2969s-1.3998-2.9911-1.4023-2.9961c-0.1625-0.3425-0.40312-0.6175-0.73438-0.84375-0.065-0.04375-0.14305-0.08375-0.2168-0.125-0.4325-0.24625-1.013-0.44742-1.7793-0.60742-0.77-0.15375-2.2891-0.43359-2.2891-0.43359l-0.865-2.3823 4.055 1.0742-0.484-1.0527s-1.366-0.43164-2.4473-0.74414c-1.065-0.30625-2.0527-0.56445-2.0527-0.56445-0.33875-0.08125-0.61219-0.11166-0.82812-0.10547zm-6.2188 0.050781 1.8281 0.21094 1.5332 7.6289-2.2012-0.06445-1.1602-7.7754zm-12.959 0.20508-1.709 7.6367-2.2129 0.08398 2.0547-7.4473 1.8672-0.27344zm-7.3184 0.40625-2.5762 0.79102-4.2637 8.6523 5.707-0.08008 0.66211-1.8164-2.8574 0.17969 3.3281-7.7266zm14.584 3.4395-0.04883 3.6836-1.8809 0.0059l0.214-3.6754 1.716-0.0137zm0.62305 34.572c-0.95344 0.0052-2.021 0.10539-2.4785 0.47852-0.915 0.7475 0.72461 2.4297 0.72461 2.4297s-0.77828-2.5205 1.2617-2.0293c1.76 0.425 2.2852-0.79492 2.2852-0.79492s-0.83953-0.08914-1.793-0.08398z" transform="matrix(.8 0 0 -.8 228.15 646.71)" fill="#ba0c2f"/></g></g></svg>
