<?xml version="1.0" encoding="UTF-8" standalone="no"?>
<svg xmlns:rdf="http://www.w3.org/1999/02/22-rdf-syntax-ns#" xmlns="http://www.w3.org/2000/svg" xml:space="preserve" height="234.23" viewBox="0 0 210.02148 234.22851" width="210.02" version="1.1" xmlns:cc="http://creativecommons.org/ns#" xmlns:xlink="http://www.w3.org/1999/xlink" xmlns:dc="http://purl.org/dc/elements/1.1/"><g transform="matrix(1.25 0 0 -1.25 -256.31 881.03)"><g style="" transform="translate(1.3511 1.6889)"><path d="m21.949 1.1562s-4.7716 2.1301-6.4316 5.4863c-1.658 3.3575-10.333 22.746-10.333 22.746l-0.0453 0.112c-0.5925 1.5275-1.1523 3.5949-1.1523 5.9512 0 3.1112 1.0161 6.7251 4.1836 10.268-1.3925 2.87-6.125 12.617-6.125 12.617l-0.045 0.109c-0.81 1.937-1.1562 3.747-1.1562 5.43 0 6.4 4.9794 10.923 8.5469 13.551-1.96 4.1912-5.6074 11.993-5.6074 11.994-0.73375 1.5288-1.0488 2.971-1.0488 4.3223 0 6.6025 7.5384 11.036 10.711 12.902 0 0 0.86984 0.51563 0.87109 0.51563 1.7662 1.065 44.081 26.315 84.312 50.264-16.156 0.001-40.572 0.004-40.572 0.004-6.125 0-6.0201-0.0662-8.6113-0.76367-3.6225-0.975-9.5703-3.1894-9.5703-3.1894s0.23914 4.9694 4.3066 8.8144 7.4948 7.002 7.5273 7.0332l0.49024 0.48632c1.0175 1.0362 2.842 2.8521 5.332 4.2246 0.505 1.175 1.4848 2.1592 2.2285 2.8867l2.748 2.6875 4.1035 4.0039 0.62695 0.54297c1.2212 1.0625 2.704 2.3409 4.709 3.1797l-0.625 0.75196 7.4766 7.2949c4.4912 4.335 8.9548 6.1116 19.666 3.0879 3.3025-0.93375 17.143-5.2891 21.756-6.7441 2.0525 0.89375 8.4528 3.684 9.9453 4.334 9.3762 12.632 20.075 20.89 25.32 24.506-0.19125 0.80125-0.3125 1.597-0.3125 2.3633 0 2.4275 0.29367 3.6862 1.4199 5.0762 1.125 1.3925 3.9062 3.3809 3.9062 3.3809l3.5117-3.9102c2.5188-2.5162 5.2412-4.152 7.8262-4.1582-0.002 0.105-0.006 0.20375-0.0156 0.34375-0.01 0.145-0.0137 0.28632-0.0137 0.42382 0 2.8488 2.2303 3.863 2.6953 4.043l2.916 1.123 1.9316-2.4531c5.5788-7.0913 4.1198-11.936 1.916-14.748-3.0462-3.895-8.025-3.6989-11.469-2.9414-1.2462-2.275-2.0939-3.8265-3.5039-6.3965 1.8146-1.0364 3.293-1.8793 5.0078-2.8594 2.6609 0.50271 4.9552 0.93566 6.2871 1.1875 0.0112 0.0187 1.127 1.8926 1.127 1.8926l2.0215 0.26953c3.9388 0.52625 7.5013 0.2843 8.8301 1.3106 1.3288 1.0275-2.9844 6.873-2.9844 6.873 0.7025-0.1375 13.775-1.1545 17.76-4.9707 0.5275-0.4725 2.3906-2.3328 2.5156-5.3828 0.004-0.0987 0.006-0.20164 0.006-0.30664 0-1.6312-0.53601-3.971-2.8848-6.3535l-0.0625-0.0645s-1.7891-1.665-3.2891-3.0625c0.15875-0.84625 0.27148-1.7502 0.27148-2.7227 0-3.4625-1.2076-7.5663-5.0801-11.174l-16.277-15.002-6.8281-6.2402c-0.39838-0.3627-0.75753-0.68841-1.1074-1.002 4.9905-32.164-16.79-56.675-25.119-66.041l-1.3535-1.5332s-1.5957 1.3844-3.1895 2.7656c1.5925-1.3838 3.1856-2.7695 3.1856-2.7695-1.6262-1.8712-57.594-64.757-59.996-67.457-2.0925-2.3162-2.457-4.1099-2.457-5.0762-0.83125-3.9912-0.58008-10.75-0.58008-10.75s-4.3487 1.3574-6.9824 6.2949c-0.93875 2.2162-6.957 15.729-6.957 15.729l-0.05273 0.14453c-0.48875 1.3538-0.69336 2.6125-0.69336 3.7812 0 4.205 2.6671 7.227 4.4121 9.207 0 0 0.465 0.5275 0.46875 0.53125 0.05875 0.06875 0.17266 0.19531 0.31641 0.35156-1.1825 2.6638-5.5449 12.49-5.5449 12.49l-0.06836 0.20508c-0.34625 1.0625-0.49805 2.0628-0.49805 3.0078 0 0.20327 0.01555 0.40157 0.0293 0.59961-17.556-16.393-40.551-37.856-40.552-37.856-2.343-2.718-2.934-4.607-3.344-6.973-0.41-2.365-0.668-10.594-0.668-10.594zm182.39 205.25c-0.0238 0.0212-0.0809 0.0802-0.0996 0.0977l0.19727-0.18164c-0.0312 0.03-0.0664 0.054-0.0977 0.084zm-13.988-1.2168c0.005 0.002 0.0138 0.003 0.0176 0.006 0.0312 0.0237 0.10351 0.084 0.10351 0.084s-0.0823-0.0611-0.12109-0.0898z" transform="matrix(.8 0 0 -.8 204.37 702.55)"/><path d="m19.359 8.3887-10.285 22.636c-2.755 7.1025 1.4856 11.611 4.4531 13.996 2.9675 2.3838 100.24 81.109 100.24 81.109l0.0879 3.2812-96.729-74.266c-4.7975-3.6325-4.2402-9.4902-4.2402-9.4902l-6.9845 14.417c-3.3938 8.1162 4.9817 13.309 8.4805 15.695 3.4975 2.3888 99.91 69.547 99.91 69.547l0.84765 4.0293s-93.455-62.189-96.889-64.299c-4.1338-2.5462-3.8164-8.4297-3.8164-8.4297l-6.8398 14.631c-2.8625 5.9675 5.3025 10.127 8.9063 12.301 2.1175 1.2762 54.404 32.473 97.477 58.096l-55.916 0.006c-8.2338 0-10.992-2.4434-10.992-2.4434l7.4961 7.002c1.2725 1.1662 4.6456 5.4082 9.5781 5.4082 3.4962 0 20.617 0.0195 20.617 0.0195l4.0566 1.7539-17.996 1.4024c-3.5775 0.16375-4.5739 0.53937-9.3477-2.1094-0.04375-0.0275 7.9844 7.8086 7.9844 7.8086 2.2288 1.9062 4.0119 3.7914 7.8281 3.4727 3.8188-0.32125 26.402-4.084 26.402-4.084l3.5762 1.6172-23.695 5.168c-5.405 1.1975-9.2832-1.5879-9.2832-1.5879s4.4824 4.4038 7.4512 7.2676c3.075 2.9688 5.8354 4.8182 15.588 2.0644 3.8738-1.095 23.139-7.1836 23.139-7.1836l12.408 5.4062c12.485 17.251 27.99 26.398 27.99 26.398-2.9712 3.5025-0.45117 7.6074-0.45117 7.6074 2.58-5.2288 8.3544-8.0951 12.721-7.4551 3.7938 0.55375 2.7764 5.1734 2.9102 5.0059 2.335-2.9688 4.2664-6.5323 1.9102-9.541-2.8638-3.66-10.191-0.49023-10.191-0.49023l-7.1504-13.053 9.6934-5.5391c5.3012-33.715-21.695-56.607-21.695-56.607l-125.58-117.23c-6.046-5.888-3.661-13.361-3.661-13.361zm59.521 4.2012-6.8066 15.254c-1.5125 4.1938 1.3154 6.9127 3.4004 9.3164 2.0862 2.3988 63.355 66.404 63.355 66.404l-0.4082 3.5195-58.012-57.914c-4.6688-4.7788-3.3951-8.3916-3.1738-8.9141l-6.2266 14.031c-1.4188 4.3462 3.0379 7.2161 6.1191 10.184 3.2775 3.1562 67.834 63.516 73.115 68.332 11.295 10.288 16.814 23.885 16.814 23.885 6.5-33.369-18.803-59.12-25.111-66.393-1.6288-1.8738-59.943-67.396-59.943-67.396-5.0512-5.5912-3.2693-9.9748-3.123-10.309zm88.18 144.1c1.2025 3.8038 8.0235 16.107 4.416 38.902l8.7676 1.6543 1.0566 1.7734s10.026 1.3359 11.586 2.8047c0 0 3.4602 2.4027-0.2461 5.709 0 0 5.6623-1.1038 8.8535-4.2188 0 0 2.9087-2.5017-0.51758-5.9805l-5.1074-4.7578c-1.6488-0.5925-4.6074 0.64648-4.6074 0.64648-0.69-4.2038-5.4375-10.025-5.4375-10.025s9.4664 8.8024 10.035 9.3574c0.10125-0.21375 3.0379-6.5727-2.9121-12.115-8.885-8.2712-25.912-23.836-25.887-23.75z" transform="matrix(.8 0 0 -.8 204.37 702.55)" fill="#00853e"/></g></g></svg>
