<?xml version="1.0" encoding="UTF-8" standalone="no"?>
<svg xmlns:rdf="http://www.w3.org/1999/02/22-rdf-syntax-ns#" xmlns="http://www.w3.org/2000/svg" xml:space="preserve" height="147.6" viewBox="0 0 152 147.59642" width="152" version="1.1" xmlns:cc="http://creativecommons.org/ns#" xmlns:dc="http://purl.org/dc/elements/1.1/"><g transform="matrix(1.25 0 0 -1.25 -170.41 856.29)"><g transform="matrix(1.6667 0 0 1.6667 -130.03 -416.15)"><g><path d="m232.05 635.49c-0.022 0.032-2.209 3.186-3.03 5.051l-0.267 0.608-12.163 2.373 0.103 0.174-8.728 10.954-1.568-4.189c-0.687 0.082-1.441 0.137-2.272 0.157-0.441 0.781-1.229 2.169-2.05 3.559-0.63 1.064-1.278 2.13-1.808 2.933-0.285 0.432-0.539 0.792-0.741 1.048-0.108 0.135-0.231 0.28-0.361 0.403-0.35 0.334-0.698 0.428-0.918 0.448-1.639 0.15-3.816-0.996-5.128-5.342-0.902 1.157-2.046 2.836-3.025 4.935-1.3 2.785-3.482 1.107-4.312 0.181-0.253-0.282-0.689-0.722-1.196-1.381-0.532-0.691-1.132-1.606-1.684-2.807-1.054-2.294-1.903-5.568-1.83-10.224-1.222-0.842-4.07-2.974-7.013-6.376-3.696-4.275-7.578-10.604-8.508-18.923h-5.216l2.658-5.882v-12.691l-2.593-5.659h6.542l-2.046-4.59h59.098l-2.591 4.676 6.705-0.086-2.558 5.946v12.411l2.247 5.875h-13.247c0.063 1.246 0.31 2.183 0.562 2.837 0.158 0.409 0.332 0.732 0.462 0.945l5.921 1.026c2.963 0.303 9.573 2.328 10.769 10.706l0.071 0.494-0.285 0.41zm-62.458-16.418c1.238 1.17 2.43 1.976 3.426 2.522-0.311-0.898-0.516-1.748-0.648-2.522h-2.778z" fill="#9ea2a2"/><path d="m214.84 624.02 6.475 1.122c2.663 0.259 8.6 2.04 9.684 9.626 0 0-2.269 3.263-3.15 5.265l-13.28 2.591 0.576 0.97-6.785 8.515-1.142-3.051c-1.067 0.19-2.332 0.303-3.851 0.303 0 0-4.637 8.332-5.244 8.387-0.881 0.08-3.223-0.56-4.344-6.766 0 0-2.768 2.636-4.845 7.086-0.56 1.202-1.305 0.886-2.215-0.129-0.96-1.072-4.709-4.507-4.369-14.235 0 0-14.318-9.338-15.893-26.091h-3.865l1.855-4.105v-13.325l-1.777-3.878h5.726v-1.163l-1.308-3.427h54.714l-1.869 3.362v1.228h5.946l-1.8 4.182v12.983l1.585 4.143h-12.382c-0.258 4.445 1.558 6.407 1.558 6.407m-34.887-4.545c-0.13-0.519-0.227-1.158-0.296-1.862h-2.916c1.688 1.187 3.212 1.862 3.212 1.862m-13.083-1.862c4.106 4.849 8.617 6.327 8.617 6.327-1.322-2.248-1.878-4.538-2.098-6.327h-6.519zm43.883 0c0.082 0.726 0.138 1.258 0.138 1.258 0.349-0.441 1.033-0.916 1.585-1.258h-1.723z"/><path d="m6.5039 55.467 1.0039 1.6992v18.65l-0.8418 1.7148h8.0996l-0.8418-1.7148v-12.109l18.441 10.564v1.5312l-0.67773 1.7285h7.7285l-0.8418-1.7148v-18.635l0.8418-1.7148h-7.8926l0.7207 1.4648 0.13867 0.21484v8.8555l-18.525-10.484-7.3535-0.05078zm34.48 0 0.71875 1.4648 0.13867 0.21484-0.01563 18.656-0.67969 1.7285h7.7305l-0.84375-1.7148v-18.635l0.84375-1.7148h-7.8926zm9.543 0 0.8125 1.6797-0.01563 8.0859v8.375l4.9941 3.9609h15.562l4.9922-3.9609-0.01172-16.461 0.8125-1.6797h-7.918l0.84375 1.7148 0.0039 13.529-0.96484 1.2207-1.9238 0.60742h-7.2305l-1.9238-0.60742-0.96484-1.2207 0.0039-3.6816v-9.8477l0.84375-1.7148h-7.916z" transform="matrix(.8 0 0 -.8 160.33 660.14)" fill="#ba0c2f"/><path d="m197.06 623.53c-1.284-1.703-2.115-3.325-2.651-4.666 4.138 1.089 8.145 0.784 8.145 0.784-1.11-1.94-1.43-2.394-1.43-2.394l5.726 0.144 2.36 4.645-4.428-1.726 2.809 4.662-4.289-0.465 2.541 3.202c-2.573-0.173-6.386-1.008-8.783-4.186" fill="#9ea2a2"/></g><path d="m33.301 8.2031s-2.7711 4.2038-2.6836 10.799c0 0 3.1741-2.2228 7.5391-3.4141 0 0-3.253-2.301-4.8555-7.3848zm27.174 7.0918-0.2168 2.791c-1.0887-0.60375-2.6508-1.5498-4.7383-1.2773-6.0925 0.7975-4.3623 4.7238-4.0586 5.4238-0.725-0.5025-1.672-0.80664-2.707-0.80664-2.28 0-4.1289 1.4728-4.1289 3.2891 0 0.3075 0.05359 0.60547 0.15234 0.88672-11.926-3.7037-15.947 5.2773-15.947 5.2773 4.215-1.225 8.4316 0.25977 8.4316 0.25977-7.2788 2.3838-10.111 10.184-10.111 10.184 2.5362-1.4175 8.7129-2.0137 8.7129-2.0137-7.19 4.8288-7.2949 11.863-7.2949 11.863 6.77-6.2288 15.465-7.3848 15.465-7.3848-6.375 6.045-7.7852 10.676-7.7852 10.676 1.895-1.3862 4.1398-2.2879 6.3535-2.8691 0.67-1.6762 1.7095-3.7033 3.3145-5.832 2.9962-3.9738 7.7623-5.0181 10.979-5.2344l0.01758-0.02148 20.461-0.69726c0.79375-0.46625 5.1264-2.5791 5.9414-6.7578 0 0 0.73016 1.1659 0.78516 2.6797 0.97375-1.75 1.4492-3.127 1.4492-3.127l-1.456-3.01s-0.79438 2.2884-0.89062 2.0059c-0.26375-0.775-1.0595-2.1046-1.8945-2.0059-2.1238 0.2525-1.8125 3.2227-1.8125 3.2227-4.2262-2.3375-0.08719-5.7891-0.08594-5.7891l-14.863-3.2012 1.1328-1.6035s-2.5288-3.914-5.2051-6.9277zm-7.0176 4.0332 9.4453 5.0664 1.0176 3.9844s-1.856-2.4888-4.3535-3.2812c-0.5 1.1088-2.1291 1.7068-3.7266 1.3418-1.66-0.37875-2.6599-1.6532-2.2324-2.8457 0.14375-0.40125 0.43125-0.74266 0.8125-1.0039l-0.96289-3.2617zm-20.627 36.953 0.36523 0.625v9.4199l0.86914 0.49023v-10.535h-1.2344zm9.4609 0 0.36523 0.625-0.01758 19.051-0.29688 0.75977h5.2266l-0.51172-0.86914h-3.4668l-0.002-19.566h-1.2969zm9.6055 0 0.36524 0.62305-0.01953 16.188 4.8359 3.5234h13.164l1.4023-0.91406-13.971 0.08984-4.3672-3.1035 0.01563-16.406h-1.4258zm19.33 0 0.36524 0.625-0.002 14.102-0.93945 1.2148 0.90625-0.28711 1.2461-1.375 0.0039-14.279h-1.5801zm-63.291 0.0098 0.38672 0.6543v19.061l-0.34961 0.71094h5.4844l-0.50976-0.86914h-3.7813l0.023437-19.549-1.2539-0.0078zm5.9629 5.3027v1.1406l19.281 11.172v2.0508l-0.29883 0.75977h5.2266l-0.51172-0.86914h-3.5527l0.0039-2.6914-20.148-11.562zm-1.5664 18.441 0.25391 0.45117v3.0469l-0.25391 0.45117h2.4375l-0.25391-0.45117v-1.1289l0.10156-0.05664h1.2188l0.10156 0.05664v1.1289l-0.25391 0.45117h2.4355l-0.25195-0.45117v-3.0469l0.25195-0.45117h-2.4355l0.25391 0.45117v0.8457l-0.10156 0.05664h-1.2188l-0.10156-0.05664v-0.8457l0.25391-0.45117h-2.4375zm10.111 0 0.25391 0.45117v2.4824l-0.10156 0.28125 1.3203 0.73438h2.9941l1.3203-0.73438-0.10156-0.28125v-2.4824l0.25391-0.45117h-2.334l0.25391 0.45117v2.2285l-0.20508 0.22656-0.4043 0.11133h-0.40625l-0.40625-0.11133-0.20312-0.22656v-2.2285l0.25391-0.45117h-2.4883zm11.479 0-1.3203 0.73242v0.93164l0.91406 0.50781 1.5742 0.19727 0.25391 0.14062v0.22656l-0.15234 0.16992-0.30469 0.08398h-1.4512l-1.0664-0.19922 0.69141 1.1582h2.9941l1.32-0.735v-1.0996l-0.96484-0.53516-1.5742-0.19726-0.20313-0.11328v-0.11328l0.15234-0.16992 0.30469-0.08398h1.4414l0.87305 0.16992-0.63867-1.0723h-2.8438zm7.7773 0 0.25391 0.45117v3.0469l-0.25391 0.45117h2.4355l-0.25391-0.45117v-1.0449l0.10156-0.11133 0.50781-0.2832h0.15234l0.8418 1.3828 0.10352 0.50781h2.5371l-0.56836-0.53711-1.4414-2.1992 1.9805-1.0996-0.20508-0.11328h-2.1816l-0.20312 0.33789-1.4727 0.81836-0.15234 0.11328v-0.81836l0.25391-0.45117h-2.4355zm10.16 0 0.25391 0.45117v3.0469l-0.25391 0.45117h2.4883l-0.25391-0.45117v-3.0469l0.25391-0.45117h-2.4883zm6.9648 0 0.25391 0.45117v3.0469l-0.25391 0.45117h4.416l0.69141-1.1562-1.0664 0.19727h-1.7051l-0.15234-0.08594v-0.53516l0.10156-0.05664h0.6582l0.76172 0.14062v-1.1836l-0.76172 0.14062h-0.6582l-0.10156-0.05664v-0.39453l0.08008-0.05664h1.7461l0.89453 0.16992-0.64062-1.0723h-4.2637zm10.16 0-1.3203 0.73242v0.93164l0.91406 0.50781 1.5742 0.19727 0.25195 0.14062v0.22656l-0.15234 0.16992-0.30273 0.08398h-1.4531l-1.0664-0.19922 0.69141 1.1582h2.9961l1.3184-0.73438v-1.0996l-0.96484-0.53516-1.5723-0.19726-0.20313-0.11328v-0.11328l0.15234-0.16992 0.30469-0.08398h1.4395l0.875 0.16992-0.64062-1.0723h-2.8418z" fill-rule="evenodd" transform="matrix(.8 0 0 -.8 160.33 660.14)" fill="#fff"/></g></g></svg>
