<svg xmlns="http://www.w3.org/2000/svg" width="248" height="212.56" viewBox="0 0 248 212.56">
 <g transform="matrix(1.3333 0 0 -1.3333 -285 1098.1)">
  <g>
   <g>
    <path d="m306.07 822.63c-12.67 0-25.024-0.8981-36.652-3.5274-1.9094-0.43146-3.7961-2.368-4.4707-4.3608-3.6829 1.8069-8.2899 2.0244-12.883 0.36768-8.6315-2.7151-15.718-5.3424-21.258-7.8691-9.0081-3.4445-16.298-13.203-16.298-22.805v-72.625c0-11.528 8.6962-16.151 18.703-12.754 0.19308 0.0429 0.39593 0.11447 0.61523 0.22412 0.76995 0.3671 24.316 11.565 48.561 11.512-18.896-1.795-37.969-7.3698-53.561-18.697-2.5124-1.957-0.32698-5.4657 2.5049-3.3823 0.31942 0.23837 18.732 12.283 47.799 14.843-28.035-7.0201-39.523-21.193-39.747-21.475-1.8092-2.2502 0.78058-4.78 2.9927-2.9326 5.9927 5.0273 12.596 8.8461 19.258 11.75-0.093-7.3061 1.6251-15.099 9.9609-24.064 1.8212-1.9546 3.0753-3.5385 4.3696-0.12744 0.79616 2.0929 5.8012 13.958 15.403 17.459 0.76041-8.9247 5.6829-14.852 10.496-17.319 9.7399-4.9891 21.626-0.42938 23.297 11.408 2.4099 2.7532 2.4976 8.228 2.4976 8.228 4.9582-2.7604 8.7013-7.7471 11.331-12.612 0.89867-1.6472 2.5219-1.7351 3.5874-0.19043 4.0762 5.926 5.9131 14.52 6.6211 21.678 10.903-4.0571 20.038-9.5333 26.588-14.139 6.9986-4.92 11.001-8.8081 11.001-8.8081 2.1001-2.0429 5.0062 0.82099 3.0015 2.9473-11.892 12.615-24.419 20.454-35.098 25.329 8.2882-2.2407 15.806-5.4823 22.087-8.7671 11.461-5.9927 18.65-12.026 18.65-12.026 2.2359-1.8784 4.9008 1.0377 2.8389 3.0996-10.805 10.808-24.059 18.069-36.264 22.595 17.93-4.6936 31.243-14.071 31.255-14.08 2.3909-1.6877 4.8186 1.5874 2.5064 3.3823-2.3456 1.8212-4.6672 3.4946-6.958 5.0274 5.3014 2.8986 8.6235 9.7891 8.6235 15.038v69.674c0 9.6207-7.3103 19.313-16.299 22.75-5.5469 2.5196-12.629 4.9543-21.261 7.667-4.5791 1.6519-9.1721 1.4395-12.853-0.35302-0.66029 2.0714-2.3894 3.9596-5.1211 4.5483-8.641 1.8545-23.222 3.3867-35.827 3.3867z" fill="#fff"/>
    <path d="m314.07 763.52c-2.4358-0.0133-5.2787-0.52705-8.5283-1.8721-9.02 3.4397-18.435-0.21909-21.886-1.8472-3.4659 1.4898-7.523 2.395-12.267 2.395-6.8389 0-9.0988-3.4131-14.615-3.4131-3.392 0-4.3299 0.94589-4.585 1.4941 0.33849-1.1799 1.5852-5.8616 8.2119-4.7651 1.3134-4.2502 8.7129-7.7373 8.7129-7.7373s-14.133-10.507-18.396-28.755c10.6 8.6148 15.823 8.2339 15.823 8.2339s-6.156-5.9698-10.304-15.681c-7.0701-2.3647-14.849-5.7327-23.339-10.405 0 0 41.178 19.99 72.016 7.7754 0 0-42.904 4.6539-74.843-18.549 0.71035 0.53634 31.064 20.291 75.573 14.77-46.695-2.0381-64.61-24.391-64.61-24.391 7.1226 5.9617 15.058 10.27 22.922 13.371-0.83192-7.2537 0.45668-17.264 9.9463-26.622 6.8055 16.104 15.859 18.789 19.354 19.208 0 0 0.35396-18.924 16.475-19.354 8.4789-0.22645 12.455 6.164 13.468 11.773 3.5875 4.3694 2.0288 10.603 2.0288 10.603s8.4171-1.5618 15.625-14.873c5.9045 8.579 6.4644 23.396 6.4644 23.396 24.56-8.4026 40.945-24.356 40.945-24.356-21.63 22.948-45.389 29.789-55.711 31.822 34.905 0.43861 64.238-24.233 64.238-24.233-20.169 20.159-49.111 27.723-62.934 28.162 30.984 4.5052 60.628-16.443 60.628-16.443-16.858 13.089-32.255 18.28-43.661 19.887-0.0787 2.46-0.76681 8.4649-5.8608 13.554 4.6459-1.2562 8.3291-6.1904 8.3291-6.1904s-0.29661 13.985-13.846 24.435c5.5898 4.0118 7.7292 7.9521 8.5064 9.9067 4.5386-0.10727 5.4272 6.148 5.4272 6.148s-1.3536-2.1621-4.4429-2.1621c-4.8461 0-7.5047 2.661-13.166 3.0996-5.6614 0.43622-10.746-2.8066-10.746-2.8066s-3.6468 4.4608-10.954 4.4209zm15.158-30.605s0.14843-3.5916-2.2734-4.4092c0.28843 1.4874 0 3.5317 0 3.5317zm-33.631-4.8413 2.8022-0.38671s0.58494-2.1275 1.6934-3.9653c-3.8235 0.96303-4.4956 4.352-4.4956 4.352zm24.438-25.753 7.9394-3.5303s-3e-3 -3.0496-3.4951-4.897c1.2538 4.8509-2.2925 6.706-2.2925 6.706l-1.8003-0.87304-2.0713 1.4736-1.582-1.9087-2.0142 1.251-1.6904-2.3452-2.0244 1.3125c-1.9165-1.7926-1.8486-7.2026-1.8486-7.2026-4.5291 2.7842-3.1113 6.0967-3.1113 6.0967s3.9815 2.3724 13.991 3.917zm-15.631-10.173s0.0935-7.7116 4.3008-9.4732l1.1675 2.1314 1.2598-1.6948 1.4004 2.2778 1.5381-1.8428 1.8472 2.1314 1.604-2.2734c4.4075 2.1287 4.1191 8.521 4.1191 8.521 3.8211-8.1786-1.3184-11.673-1.3184-11.673s-3.8231 1.1644-7.2056 1.0166c-3.3873-0.14303-6.3984-2.124-6.3984-2.124s-5.9091 1.3279-2.3144 13.003z"/>
    <path d="m314.53 760.05c-1.896-0.0291-3.3141-0.55534-4.0181-0.85986 12.207-8.2143 12.088-24.009 12.088-24.009s-4.176 19-17.344 22.915c-8.262 2.4505-13.512-0.22168-15.605-1.6948 10.915-8.4169 13.39-22.821 13.39-22.821s-9.2896 28.025-33.93 24.64c-1.5947-0.2193-3.3231-0.98179-5.2134-1.6421 3.3944-0.37186 8.529-1.6717 12.715-5.8623-11.89-7.0487-14.686-17.16-15.284-20.338-0.12395-0.64361-0.1582-1.0049-0.1582-1.0049s0.76521 0.43994 2.1812 1.0049c2.8676 1.1323 8.4026 2.7757 15.778 2.3848-1.4111-0.7628-2.7148-1.5671-3.9258-2.3848v-7e-3c-8.1762-5.5755-12.058-12.381-13.906-17.663 14.901 4.0118 26.384 3.7453 34.282 2.3818 2.6412 2.6602 5.2493 4.3169 7.5806 5.3657-0.0286 0-0.9419 2.6748-0.9419 2.6748s-2.6356-1.6955-7.21-0.81592c-4.8199 0.92012-8.7253 4.9508-11.095 8.064h-4e-3c-1.6066 2.1024-2.5078 3.7866-2.5078 3.7866s1.9721-2.559 9.1304-3.7866c3.2228-0.55064 7.5042-0.83436 13.125-0.48633l2.3848-8.5195s5.998 1.9628 8.6177-5.0215c2.6984 0.76041 7.9694 1.7014 11.669 0.76465 0.32657 5.6733-4.1455 7.0913-4.1455 7.0913 1.466 0.0715 2.6033-0.30635 3.4805-0.94043-0.34803 1.1323-1.4186 4.6828-2.1504 7.1118-0.41715 1.3849-0.7251 2.4053-0.7251 2.4053 10.505 2.5625 12.98 5.3525 12.98 5.3525s-0.83233-4.7448-2.7012-7.7578c-0.34088-0.55303-0.71262-1.0457-1.125-1.4414-2.2407-2.1668-5.2251-1.9834-5.2251-1.9834l0.84375-3.7017c4.1739-0.51488 8.6768-2.8326 11.161-9.6357 1.3063 0.0644 2.7726 0.0835 4.3696 0.0454-0.36709 1.7806-0.86058 3.5776-1.5161 5.3511 2.4266-0.43622 4.0635-2.6616 4.0635-2.6616s-1.1583 7.453-6.1069 14.027c-1.0322 1.3754-2.2284 2.7136-3.6182 3.9316 3.0822-0.3814 7.0398-2.5157 9.3926-3.9316 1.2348-0.75088 2.0259-1.2935 2.0259-1.2935s-0.17636 0.47822-0.54346 1.2935c-1.5375 3.4039-6.3762 12.67-15.284 17.244 4.3217 4.7508 9.5058 6.903 12.974 7.8589-3.2562 1.0417-6.42 3.2537-9.731 3.4658-5.8091 0.37186-11.039-2.7744-11.039-2.7744-3.513 3.1309-6.7395 3.9148-9.1772 3.8774zm0.87012-30.401c2.8769 0.022 5.5731-0.95794 6.8496-2.1152-4.9963 0.11203-9.8078-0.13594-14.78-1.7783 1.9976 2.8474 5.0538 3.8715 7.9307 3.8936zm12.028-8.4566c1.2658-2.3289 1.3008-5.1665 1.3008-5.1665-0.85814-2.4099-1.8617-4.353-3.1084-5.6045-0.97971-0.98686-4.2759-3.5566-4.2759-3.5566v-3.3867l10.743-3.9668c0.58163 0.40761 1.7835 1.9092 2.1196 2.3335-2.0595 0.29081-3.9642 0.61347-6.0762 0.82324 0.50535 0.64361 1.301 2.5461 1.8135 4.4722 0.57685 2.1811 0.8417 4.3806 0.85839 4.6142l0.0952 0.83643s1.4401 0.40551 4.0693 0.71777c-0.77231 2.4862-2.7149 6.1866-7.5396 7.8838zm-19.242-1.9541c-1.0501 0.0124-2.3022-0.37219-3.7837-1.3608-4.2526-2.8319-4.6509-3.6709-4.6509-3.6709 5.7877-1.4779 8.729-3.3281 8.729-3.3281-0.0262-0.15256-0.0597-0.30448-0.0835-0.45703-0.50535-2.9987-0.18892-5.8974 0.82178-8.2954-4.05-0.0405-8.0346-0.22368-11.949-0.54786 0.36948-2.603 2.5269-3.3208 2.5269-3.3208 7.063 3.8211 19.267 5.6587 19.267 5.6587l0.39111 2.9502c-1.3134 0.99163-2.5902 2.1985-3.794 3.5596h-6e-3c-0.96539 1.087-1.885 2.2717-2.7407 3.5303-0.24671 1.6305-1.5782 5.245-4.7285 5.2822zm-13.954-17.937c-4.5744-0.46721-9.032-1.1226-13.361-1.9497-0.66029-0.14064-1.3258-0.29238-1.998-0.44971-0.8653-3.6685-0.24087-6.5104 0.60058-8.4316 0.84861-1.9499 1.9292-2.9604 1.9292-2.9604s0.0477 1.2704 0.50537 2.9604c0.64838 2.4219 2.1158 5.6967 5.4507 7.3462-0.12634-3.7377 1.1944-5.9875 2.7319-7.3462 1.1537-1.0202 2.4273-1.5256 3.2974-1.7783 0 0-0.0693 0.68897 0.11426 1.7783 0.12873 0.75564 0.38184 1.7071 0.86572 2.7583 0.0524-0.95347 0.12383-1.8763 0.2168-2.7583 1.6686-16.011 9.8321-19.923 16.395-19.422 6.908 0.52919 9.3398 6.6856 9.3398 6.6856s-1.5446 1.5454-7.0606 1.5454c-3.2442 0-4.2646-1.5455-5.814-2.1343-1.547-0.57925-3.5335-0.14033-5.6646 1.9907-2.2955 2.2979-3.1771 7.5925-3.6943 11.335-0.22645 1.6591-0.3861 3.0158-0.5625 3.6665-0.48866 1.7735-2.5978 5.8416-3.2915 7.1646zm43.242-0.0879c-0.5864-1.702-1.6587-3.4012-4.5644-5.0889 1.528-1.4016 2.3362-3.6043 2.77-5.6543 0.56018-2.6793 0.46728-5.0903 0.46728-5.0903s2.1468 1.6006 3.0073 5.0903c0.47674 1.9141 0.56609 4.3929-0.29444 7.4941 2.4266-0.81998 3.9712-5.5166 3.9712-5.5166s0.7193 3.0588 1.0649 7.0635c-2.1287 0.46483-4.2288 1.3303-6.4219 1.7022zm-63.809-3.6606c-1.2228-0.34803-2.4643-0.72454-3.7134-1.125 0.89628-3.1632 2.4009-5.2412 2.4009-5.2412s-0.1225 3.184 1.3125 6.3662z" fill="#cda177"/>
   </g>
   <path d="m306.07 816.63c-2.9391 0-5.8562-0.06756-8.7524-0.19629v-21.51c-2.2502-0.1025-4.4848-0.24163-6.7017-0.42041v21.511c-6.8079-0.54349-13.47-1.4443-19.951-2.6719v-49.062c0.23599 0.0117 0.47647 0.01611 0.71484 0.01611 4.6387 0 8.6887-0.82019 12.229-2.2075 1.6257 0.71512 4.0758 1.6481 7.0078 2.3013v9.8511c2.2169 0.17639 4.4514 0.31736 6.7017 0.41748v-9.4849c2.6316 0.01192 5.4054-0.33777 8.1753-1.2817 3.8235 1.4661 7.921 2.0872 11.78 1.4722v50.941c-3.6995 0.21454-7.4321 0.32373-11.203 0.32373zm15.25-0.60058v-51.835c1.3373-0.57448 2.6153-1.3375 3.8071-2.31l0.23877-0.19776c5.8497 2.9129 10.391 2.8962 15.907 1.1894v50.505c-6.4861 1.2228-13.147 2.1145-19.953 2.6484zm-62.42-5.7407c-1.5102 0.08001-3.1706-0.18077-4.9131-0.82617-8.5075-2.6722-15.473-5.2471-20.889-7.7285-6.9748-2.5792-12.624-10.324-12.624-17.298v-72.623c0-6.9772 5.6492-10.541 12.624-7.957 10.319 5.0797 17.366 8.2206 21.139 9.4292 0.18116 0.0667 0.36267 0.13321 0.53906 0.20948 1.733 3.8163 3.7475 7.0278 5.521 9.5068-4.7674-2.5268-8.8727-6.1161-13.037-9.501 0.65314 2.7961 0.58424 3.4683 1.4019 5.9927 2.4981 10.701 8.6951 20.559 16.759 27.916-2.4004 1.4898-4.8766 3.359-6.3164 5.8477-4.7341-0.23361-7.7253 2.1873-8.9458 6.435-0.7318 3.1561 0.57609 3.6472 3.9228 1.478 0.32895-0.15017 1.1618-0.28564 2.6851-0.28564 3.516 0 6.3969 1.6854 9.8438 2.6865v37.937c0 5.2293-3.1802 8.5417-7.7109 8.7817zm94.138-0.06152c-4.5327-0.23956-7.7139-3.5518-7.7139-8.7847v-39.946c1.168-0.35756 2.2916-0.58594 3.605-0.58594 0.9678 0 2.3117 0.54512 2.9458 1.3198 0.89151 1.0941 3.6833 2.571 3.3472-2.1035-0.15017-2.1811-1.8648-6.3937-5.8623-7.2876-1.0179-2.0548-2.9418-5.1853-6.5508-7.979 6.2787-5.5302 13.58-15.521 12.734-30.476 7.1536-1.4684 15.462-4.2492 24.494-9.1406 5.1012-2.7604 11.427 3.2201 11.427 9.7134v69.674c0 6.9724-5.6522 14.663-12.627 17.24-5.4158 2.4838-12.375 4.8571-20.883 7.5293-1.7437 0.6454-3.4051 0.90749-4.916 0.82764zm14.445-23.199c0.2914 0.02204 0.6015-0.01908 0.92285-0.13037 1.7187-0.59116 3.1069-2.9566 3.1069-5.2808v-48.926c0-2.3265-1.3883-3.8521-3.1069-3.4087-1.7139 0.44575-3.1011 2.6842-3.1011 5.0083v49.474c0 1.8864 0.91548 3.1681 2.1782 3.2637zm-123.33-0.19336c1.4146 0.09594 2.4814-1.2324 2.4814-3.2681v-50.134c0-2.3218-1.393-4.691-3.1069-5.2822-1.7186-0.59354-3.1025 0.80825-3.1025 3.1348v50.137c0 2.3218 1.3839 4.6911 3.1025 5.2822 0.21424 0.07389 0.4234 0.11666 0.62549 0.13037z" fill="#154734" fill-rule="evenodd"/>
  </g>
 </g>
</svg>