<svg xmlns="http://www.w3.org/2000/svg" width="248" height="129.37" viewBox="0 0 248 129.37">
 <g transform="matrix(1.3333 0 0 -1.3333 -502.15 812.45)">
  <g>
   <path d="m449.38 593.09h-33.478c-9.0301 0-17.1-5.638-20.206-14.117l-18.406-50.243h48.467l-1.3104-3.5699 16.577-12.012h24.88c11.025 0 20.88 6.8795 24.679 17.23l0.3429 0.93254 3.7826-2.58h28.481c9.1739 0 17.365 5.7439 20.489 14.369l18.111 49.991h-48.184l1.2784 3.4796-16.7 12.103h-25.119c-9.9714 0-20.248-6.2218-23.684-15.582" fill="#fe5c00"/>
   <path d="m473.4 603.96c-9.0855 0-17.208-5.6684-20.341-14.197l-0.39404-1.0723h-36.223c-7.336 0-13.893-4.5781-16.422-11.465l-8.3818-22.822 5.0889-3.5859h-6.4072l-6.3823-17.377h48.434l-2.3921-6.5112 12.516-9.0703h23.572c9.1457 0 17.31 5.7357 20.411 14.339l2.2588 6.2681 7.3711-5.0259h27.001c7.2029 0 13.634 4.5106 16.087 11.282l15.935 43.969h-48.292l2.2427 6.2241-12.483 9.0454h-23.199zm-0.09814-4.8486h21.727l8.269-5.9941-3.5215-9.5874h48.331l-2.8184-7.8354h-62.96l4.1543 11.669h-14.691l-4.7549-13.104 22.699-18.057-8.3408-22.707c-2.3799-6.4802-8.5518-10.789-15.456-10.789h-21.873l-8.2603 6.022 3.5127 9.561h-48.35l2.7978 7.5952h62.975l-4.1338-11.395h15.047l4.6421 13.034-22.896 18.217 8.2427 22.441c2.411 6.5647 8.6627 10.929 15.658 10.929zm-56.5-15.218h24.967l7.1982-5.2764-7.5659-20.597c-1.5902-4.3276-5.711-7.2026-10.321-7.2026h-26.345l-7.2891 5.3423 7.0312 19.131c1.8981 5.1678 6.8193 8.603 12.325 8.603zm2.4844-4.9263-8.4302-23.355h16.573l8.335 23.355h-16.478zm81.146-8.0522h13.261l-10.195-27.88h12.18c2.6976 0 5.1045 1.6942 6.0146 4.2334l8.4727 23.647h13.405l-8.8433-24.297c-1.8583-5.1076-6.7135-8.5093-12.149-8.5093h-24.71l-7.4356 5.0625 10 27.744z"/>
  </g>
 </g>
</svg>