<?xml version="1.0" encoding="UTF-8" standalone="no"?>
<svg xmlns:rdf="http://www.w3.org/1999/02/22-rdf-syntax-ns#" xmlns="http://www.w3.org/2000/svg" xml:space="preserve" height="99.201" width="116.78" version="1.1" xmlns:cc="http://creativecommons.org/ns#" xmlns:dc="http://purl.org/dc/elements/1.1/" viewBox="0 0 116.78127 99.201304"><g transform="translate(-1.789 -1.5501)"><g><path d="m51.085 94.037-1.4225 4.9675-11.021-1.3975-2.7188 1.7662-8.0125-2.4812 0.02125-11.854s-1.6238 0.85375-4.2725 1.055c-1.5 0.11375-3.045 0.03875-4.5712-0.09375-0.95875-0.0825-6.2325 0.17-6.2338 0.17l-3.545 0.2775s0.19875-2.6712 0.79-4.25c0.61-1.6275 1.6662-3.1812 2.2862-3.8262l-0.2075-3.1925c-0.59625-0.26-3.2262-1.2525-4.8575-2.6712-0.685-0.59625-1.1338-1.0838-1.615-1.6775-1.8362-2.2675-2.945-5.1162-3.0112-8.0362l-0.00125-0.1175-0.00125-0.155c0-7.125 6.3325-14.02 13.991-14.061l0.115 0.0013c0.47125 0.0062 0.9475 0.04 1.425 0.10125 0.32625-1.57 0.685-3.1375 1.0662-4.6725 3.555-14.294 9.2088-19.619 9.3975-19.792l0.20625-0.19 2.5975-0.935c0.12375-0.195 0.2875-0.44125 0.49625-0.7275 0.5125-0.6975 1.2925-1.6238 2.3875-2.5775 0.63875-0.55625 1.535-1.0288 2.1775-1.335 0.68125-0.325 1.6362-0.68875 1.6362-0.68875l1.8825 0.45625c0.08625-0.085 0.18125-0.175 0.28375-0.27 0.5325-0.49125 1.3038-1.1275 2.2288-1.6612 1.3762-0.795 1.5325-0.85625 2.5838-1.235l0.47125-0.16875 0.47 0.1725c0.46125 0.17 0.91125 0.35125 1.2575 0.49375 0.40625-0.22625 0.8925-0.4825 1.3125-0.6625 0.88625-0.38125 2.1988-0.66625 2.1988-0.66625l1.1125 0.69c0.415-0.1475 0.98625-0.31875 1.645-0.44 1.3275-0.2425 3.22-0.31125 4.9488 0.6825 2.2412 1.29 2.3512 4.73 2.29 5.6638 0.84125 0.585 1.265 1.3962 1.4738 2.13 0.26125-1.7088 1.0812-4.1538 3.5975-5.5412 1.2638-0.6975 2.4875-0.93 3.5188-0.95375l-1.1812-0.8413s1.5062-0.83125 2.5412-1.1838c3.0175-1.03 6.1512-0.69875 6.365-0.67l1.1275-4.3438s-0.20875-0.825 0.03875-1.8962c0.69625-3.0188 3.7088-4.9012 6.7288-4.2038 0.70375 0.1625 1.3488 0.45375 1.9138 0.84125 0.67875-0.10125 1.3862-0.07875 2.09 0.08375 0.15625 0.03625 0.31 0.0775 0.46 0.12625 0.9125-1.2238 2.4912-1.8612 4.075-1.495 1.5875 0.36625 2.73 1.6388 3.0088 3.145 0.20375 0.02375 0.4075 0.06 0.61125 0.10625 0.705 0.16375 1.35 0.45375 1.915 0.8425 0.6775-0.10125 1.385-0.08 2.09 0.0825 3.0188 0.6975 4.9012 3.71 4.205 6.73-0.25875 1.1162-0.7725 1.7362-0.7725 1.7362l-0.9775 4.1112c1.8325 0.57625 3.11 1.45 4.02 2.195 1.8512 1.515 2.9338 4.245 2.9338 4.245s-0.1725 0-1.3275-0.1975l0.3675 0.7025c0.3775 0.20125 0.5975 0.3525 0.9175 0.6025 0.725 0.5675 1.615 1.5125 1.98 2.9188 0.635 2.4425-0.14125 4.5338-0.99 5.935-0.42625 0.705-0.88875 1.265-1.2425 1.6475 0.0812 0.3575 0.17125 0.8225 0.2625 1.3388 0.21 1.1938 0.40875 2.8138 0.26375 4.2612-0.64875 6.4738-2.8625 10.31-2.8625 10.31l-0.4925-1.475s-0.63875 3.4912-2.4388 5.965c-0.37 0.50625-0.97625 1.41-1.2 1.7075-0.1275 0.16875-2.115 2.6562-2.115 2.6562s0.19625-1.6725 0.0975-2.5075c-0.33875 0.715-0.71875 1.41-1.1375 2.0075-0.245 0.35-0.5375 0.72125-0.85375 1.0988l17.589-0.04875s-0.87625 8.9925-1.1725 16.852l-0.28125 6.595h-9.4638l0.0387 8.5662-5.32 4.18-4.2462-0.89625c-5.57 1.52-7.2288 1.8838-15.229 1.5938-3.705-0.132-7.207-0.892-9.955-1.684-1.826-0.525-3.351-1.073-4.408-1.478-2.576-0.849-8.514-2.473-16.362-2.558" fill="#a1d1f1"/><path d="m102.29 20.55c4.3775 0.995 5.7538 3.6225 5.7538 3.6225s-1.8188-0.83375-3.5538-0.16c0.9125 0.2925 2.0438 0.59375 2.9512 1.5162 0.62875 0.63875 1.2175 1.9475 1.2175 1.9475s2.0688 0.81125 2.5962 2.84c1.0175 3.915-2.4338 6.815-2.4338 6.815s0.97 3.3738 0.69 5.8825c-0.36125 3.2188-1.4925 6.5138-1.4925 6.5138s-0.36-1.3675-0.7875-2.5075c-0.22-0.59-0.84375-1.5325-0.84375-1.5325s0.2575 4.9762-0.69 7.9925c-0.8925 2.8388-2.8762 5.3675-2.9212 5.3162 0.20875-0.28625 0.165-1.8638 0.04-3.045-0.075-0.71875-0.32375-1.825-0.32375-1.825s-1.1712 4.6525-2.8875 7.0988c-1.0688 1.5238-3.215 3.6412-4.2162 4.6 4.8112-0.0225 8.085-0.045 8.3062-0.065l-2.7325-1.6225 15.375-0.0425s-0.76875 7.8912-1.0675 15.781l-0.235 5.6162h-9.515l0.0412 9.0912-4.5488 3.575-4.02-0.84875-0.045 0.0125c-5.6662 1.5475-7.1112 1.9012-15.116 1.6112-3.5825-0.13-6.9988-0.87-9.6975-1.6462-1.8025-0.5175-3.3062-1.06-4.345-1.4588-2.8862-0.9525-9.895-2.8612-19.078-2.5962l1.23 1.255-1.0275 3.5888-10.521-1.3338-2.63 1.7088-6.8362-2.1175-0.0475-10.45 4.5488-3.5738 1.6288 0.34375c-1.205-0.5175-2.1162-1.4138-3.04-2.5438-1.8538 2.9762-4.9638 4.8238-8.4625 5.1625-1.435 0.14-2.92 0.0325-4.3838-0.095-1.0025-0.08625-2.2788-0.035-3.305 0.015-1.7775 0.0875-5.3225 0.3-5.3225 0.3s0.1225-1.6212 0.4275-2.605c0.18375-0.59625 0.31375-0.92875 0.5975-1.4838 0.55-1.0738 1.6438-2.2875 1.8625-2.47l-0.28125-4.3475c-0.20875-0.0475-2.195-0.825-3.46-1.6075-1.365-0.84375-2.7475-2.0462-3.1925-2.595-1.7025-2.1025-2.7212-4.735-2.7825-7.4138l-0.00125-0.05v-0.05625l-0.00125-0.14625c0-6.5862 5.8975-12.995 12.968-13.032h0.035 0.03375 0.035 0.0325c0.8425 0.01125 1.7012 0.12125 2.555 0.3225 0.3725-1.875 0.795-3.7538 1.2512-5.5862 3.4862-14.024 8.995-19.114 8.995-19.114l2.8038-1.0088s0.84125-1.6412 2.8525-3.3938c0.9775-0.85125 3-1.6238 3-1.6238l2.2388 0.54125s1.1388-1.33 2.7538-2.2625c1.2588-0.72625 1.4012-0.78625 2.3612-1.1312 0.935 0.345 1.82 0.73625 1.835 0.73375 0.0037-0.0012 0.9975-0.60375 1.7562-0.93 0.7575-0.32625 1.4012-0.4675 1.4012-0.4675l1.23 0.7625s3.3938-1.6225 6.0425-0.09875c1.59 0.91375 1.6788 3.96 1.6 4.425-0.08125-0.04-1.0925-1.155-3.0825-0.46875-0.545 0.1875-0.825 0.545-0.825 0.545l0.625 1.0288s2.3775-0.7425 3.6275-0.07875c1.775 0.94375 1.2475 3.4438 1.2475 3.4438s-1-1.1325-2.8238-0.19375c-0.5825 0.3-0.53375 0.37375-1 0.6775-0.1125 0.95125-0.34 1.8112-0.6775 2.3638-1.5338 2.5025-7.4162 4.3938-7.4162 4.3938s-3.1762 1.6388-4.155 6.785c5.755-3.0988 10.732-3.84 10.732-3.84s0.97375-4.0788 4.3188-7.7688c1.225-1.3512 3.0425-2.5225 3.5412-2.9012-0.025-0.7625-0.04-4.4712 3-6.1488 2.705-1.4925 5.17-0.3925 5.2638-0.3925 0.4175-0.22125 1.985-0.76375 3.12-0.6025-1.565-1.0938-2.4562-1.4638-3.9262-1.7825 0.02-0.07 1.305-0.55 3.2162-0.73875 1.7188-0.17 2.725 0.01 3.7638 0.195l0.1675 0.0375 0.8275-3.3075 1.6175 0.3975s-0.39375-0.8725-0.51125-1.2062c-0.4525-1.2938-0.7125-2.2588-0.4525-3.3838 0.52625-2.2775 2.7988-3.6988 5.0775-3.1725 0.68875 0.16 1.3012 0.48 1.8038 0.9125l0.07875 0.0675 0.1-0.02625c0.64125-0.16875 1.3312-0.1875 2.0225-0.02875 0.43125 0.1 0.8325 0.2625 1.1962 0.4775l0.2125 0.125 0.075-0.235c0.40375-1.2725 1.725-2.0412 3.0488-1.7362 1.34 0.31 2.1938 1.605 1.9738 2.9425l-0.0425 0.2575 0.25875-0.03c0.46625-0.0525 0.94875-0.02875 1.4312 0.0825 0.69 0.15875 1.3025 0.47875 1.805 0.91125l0.07875 0.0675 0.1-0.02625c0.64125-0.1675 1.3312-0.1875 2.0212-0.0275 2.2775 0.52625 3.6988 2.7988 3.1725 5.0775-0.25375 1.0988-0.89625 1.765-1.8325 2.6912-0.2925 0.29-1.1038 0.9425-1.1038 0.9425l1.6412 0.405-0.78 3.1075 0.26125 0.0575zm-18.235 64.786c-4.9375 0.0025-10.408 0.0087-14.311 0.02 3.6412 0.90625 9.2625 1.885 16.072 1.6775l-1.7612-1.6975z" fill="#00325b"/><path d="m92.613 5.6253c-0.34412 0.060059-0.63727 0.31977-0.7207 0.68164-0.11125 0.4825 0.19133 0.96297 0.67383 1.0742 0.4825 0.1125 0.96102-0.18938 1.0723-0.67188 0.112-0.4812-0.188-0.9629-0.669-1.0741-0.121-0.0278-0.241-0.0298-0.356-0.0098zm-8.732 0.4961c-1.1815-0.029395-2.2615 0.77219-2.5371 1.9688-0.16875 0.7275-0.0051 1.4527 0.38867 2.0215l2.4922 4.3574 1.0645-4.6113c0.04625 0.42625 0.19945 0.82953 0.43945 1.1758l2.4902 4.3574 1.1055-4.791c0.0062 0.20375 0.03805 0.4025 0.0918 0.59375l1.1621 4.7422 3.127-3.6641c0.23625-0.2475 0.42633-0.54531 0.54883-0.88281l-1.1836 5.1211 4.1484-2.8223c0.36625-0.205 0.68336-0.50148 0.91211-0.86523l-1.0645 4.6113 4.1484-2.8242c0.60375-0.3375 1.0669-0.91828 1.2344-1.6445 0.315-1.3675-0.53609-2.7338-1.9023-3.0488-0.64-0.1474-1.277-0.041-1.807 0.254l-0.23633 1.0273c-0.1125-1.045-0.87453-1.9531-1.957-2.2031-0.63625-0.1475-1.2708-0.041797-1.8008 0.25195l-0.35547 1.5391c0.13375-1.26-0.69203-2.449-1.957-2.7402-1.148-0.2662-2.294 0.2921-2.819 1.2871l0.2793-1.2051c-0.3475-0.49625-0.87227-0.87203-1.5098-1.0195-1.0825-0.25-2.1627 0.23375-2.7227 1.125l0.237-1.0273c-0.347-0.4963-0.873-0.8721-1.51-1.0196-0.171-0.0393-0.341-0.0602-0.509-0.0644zm-3.4863 7.7539-0.43164 1.8379c0.6125 0.215 1.5453 0.50328 2.5078 1.082 1.0912 0.6575 1.8613 1.6602 1.8613 1.6602 0.09125-0.1675 0.29953-0.51578 0.30078-0.86328 0.0025-0.92-0.68555-1.584-0.68555-1.584s1.9729 0.2475 3.3066 1.5312c0.5875 0.565 0.75976 1.3105 0.75976 1.3105 0.405-0.0925 0.8232-0.25844 1.2832-0.52344 0.865-0.4975 0.73633-1.416 0.73633-1.416s1.5362 0.89445 1.9375 1.9395c0.2575 0.67 0.26976 1.1284 0.32226 1.4121 0.33375-0.285 0.81625-0.69547 1.25-0.88672 2.4375-1.075 4.0762-0.26758 4.0762-0.26758s-0.72469 0.44102-1.0859 0.94727c-0.29 0.40375-0.57891 0.86375-0.66016 1.0938 0.7875-0.4175 1.5261-0.73781 2.8086-0.88281 0.62375-0.07125 1.1489-0.04195 1.5664-0.0332l0.42969-1.6738-20.283-4.6836zm-24.779 3.0762c-0.16854 0.0046-0.34836 0.02008-0.54102 0.04687-1.4788 0.205-2.7383 0.85352-2.7383 0.85352s0.55703 0.33688 0.89453 0.64062c0.71625 0.64375 0.72617 0.66055 1.1074 1.1543 0.7925-0.54875 0.61375-0.48961 1.0312-0.66211 1.7212-0.71375 2.6797 0.17188 2.6797 0.17188s0.0945-2.2742-2.4336-2.2051zm-5.9297 0.94336c-0.19531-0.0023-0.40703 0.0073-0.63672 0.03125-1.4725 0.15375-2.5996 0.94922-2.5996 0.94922s-0.25289 0.45188-0.05664 1.1406c0.2 0.69875 0.38289 1.0829 0.93164 1.4941 0.56875-0.51 0.96742-0.99648 1.7324-1.3652 1.7388-0.84 2.7715 0.58594 2.7715 0.58594s0.78706-2.8019-2.1426-2.8359zm-4.3496 0.20508s-0.56484 0.29476-2.0898 1.2285c-0.77875 0.4775-1.6719 1.3242-1.6719 1.3242s0.9575-0.09484 1.8438 0.34766c0.4425 0.22125 0.97625 0.53524 1.0312 0.61524l0.98438-0.44141c-0.1225-0.345-0.14695-0.32258-0.31445-0.76758-0.42625-1.1362 0.2168-2.3066 0.2168-2.3066zm24.51 1.1758c-1.0355 0.04959-2.1438 0.41133-3.2109 1.3047-1.7438 1.46-1.4316 4.9551-1.4316 4.9551s-4.2334 2.0316-6.6621 7.3691c-2.2012 4.8375-2.4583 8.3115-2.2695 13.834-0.77875-1.6362-1.1802-3.3072-1.2715-6.2109-0.04875-1.575 0.39453-3.3926 0.39453-3.3926-1.23 0.34375-3.3402 0.90242-5.4102 1.6699-2.0862 0.77375-3.3442 1.3786-5.2305 2.2773-0.1225 1.6488-0.02594 3.5741 0.41406 5.8066 0.22625 1.1488 0.57922 2.2939 1.043 3.4414 1.725 0.315 3.8988 1.116 5.4062 2.9785 0.12125-2.0388 0.34766-3.2676 0.34766-3.2676s1.4866 2.094 4.0391 4.334c1.695 1.4875 4.2441 3.2637 4.2441 3.2637l-0.20117-3.1426c-0.000001 0 2.0864 2.6074 5.1602 4.1074 2.4538 1.1975 5.3242 2.0801 5.3242 2.0801s-1.622-2.6945-2.4258-6.1758c-1.2525-5.4275-0.38476-9.3965-0.38476-9.3965s-0.85102 0.47602-1.3848 1.1035c-1.1238 1.3225-1.8848 3.1445-1.8848 3.1445s-0.55562-8.0597 2.3906-14.086c1.3425-2.7462 1.3095-2.4357 2.3633-3.8457-0.94 0.17375-1.2683 0.24641-2.3633 0.66016-1.1025 0.41625-2.6596 1.4043-2.6934 1.373 0 0 1.2551-3.6313 3.5176-5.5488 1.0112-0.85625 2.9453-1.6934 2.9453-1.6934s-0.65906-0.6675-1.6641-1.0938c-0.51625-0.21875-1.3789-0.40625-1.3789-0.40625s0.89578-0.75867 1.582-1.0137c1.5162-0.56375 3.2697-0.56461 3.3672-0.56836 0 0-1.5314-0.71039-2.8789-0.65039-0.94375 0.0425-2.3535 0.56836-2.3535 0.56836s1.0344-1.6035 3.2031-1.9473c2.5562-0.40625 3.9203 0.04836 3.9766 0.03711-0.40906-0.57578-2.341-1.9782-4.6191-1.8691zm13.746 1.3047s-2.6348 0.69141-4.9473 2.5977c-2.795 2.3038-4.4702 6.4585-4.5977 6.6973 0.18-0.11625 1.3514-0.77586 2.2852-1.0996 0.5725-0.19875 1.4662-0.435 1.5-0.40625-0.06375 0.16-1.2591 1.4607-2.0703 3.4082-0.88375 2.1212-1.1766 5.5561-1.2441 6.1211 0.2675-0.40875 0.51789-0.6782 0.86914-1.0957 0.31125-0.37 0.82227-0.92774 0.82227-0.92774 0.03375 0.035 0.07672 2.0593 0.32422 3.123 0.5275 2.2712 1.673 3.781 1.1367 6.166-0.08 0.3525-0.15836 0.60812-0.25586 0.89062-0.2625 0.74-1.3858 3.3021-1.4883 5.5996-0.0625 1.4025 0.60742 2.9609 0.60742 2.9609s0.31617-0.7243 0.51367-1.0918c0.19875-0.36625 0.59375-0.86133 0.59375-0.86133s-0.0393 0.98164 0.0957 1.5879c0.2 0.895 0.52836 1.5126 1.0371 2.1113 0.23-0.68 0.27859-1.0398 0.74609-1.791 0.205-0.32875 0.33273-0.51164 0.58398-0.80664 0.0088 0.82-0.04242 0.9168 0.42383 2.0605 0.3775 0.92375 1.502 2.0547 1.502 2.0547s1.696-0.82438 2.6035-1.8281c0.24875-0.27625 0.3832-0.43844 0.5957-0.74219 0.07625 0.405 0.09211 0.64273 0.06836 1.0527-0.035 0.60125-0.17398 1.1638-0.36524 1.5 0 0 1.0938-0.37773 1.8613-1.209 0.515-0.5575 0.64609-0.88945 0.96484-1.6895 0 0 0.14273 0.60023 0.14648 0.99023 0.005 0.5475-0.19336 1.1459-0.25586 1.3809 0.1775-0.075 1.6249-1.622 2.2324-3.002 0.805-1.8275 0.77734-4.1211 0.77734-4.1211s-1.3495 0.34695-2.1133 0.25195c-1.575-0.19625-2.066-1.3023-3.541-1.7461-1.8062-0.54375-3.3359 0.73977-4.8184-0.42773-1.8788-1.48-1.2555-5.0067-0.8418-6.0742 0.25-0.64625 0.80898-1.6758 0.92774-2.832 0.13375-1.3138-0.35859-2.8043-0.30859-2.7168 0.39375-0.17125 1.6992-0.64781 2.8242-0.78906 2.59-0.3275 4.8242 0.15039 4.8242 0.15039 0.1225-0.34375 0.19922-0.88281 0.19922-0.88281l-1.7422-2.2734 0.18945-3.1152 0.61523-0.56445s-1.6964-1.7949-4.6602-0.70117c-0.81875 0.3025-1.247 0.80344-1.4883 1.1172 2.09 0.1975 3.4422 1.1574 4.1797 2.2637 0 0-0.87133-0.43797-2.2051-0.82422-1.4838-0.43-2.5156-0.35547-2.5156-0.35547-0.10375 0.215-0.30781 0.98391-0.32031 1.3164 0 0 0.83422-0.2532 2.3867 0.06055 1.9412 0.39125 2.7793 1.2793 2.7793 1.2793s-1.5456-0.39031-2.7344-0.47656c-1.275-0.09125-2.5059 0.20508-2.5059 0.20508s0.06406 1.1066 0.07031 1.2578c0.385-0.2 1.2145-0.43688 2.4395-0.42188 2.0662 0.025 3.1855 0.88476 3.1855 0.88476s-1.5152-0.25219-3.334-0.02344c-1.7588 0.22125-2.7773 0.91016-2.7773 0.91016s-1.3294-2.2398-0.64062-5.2148c0.48875-2.11 2.1016-3.3164 2.1016-3.3164s-0.33867-0.52359-0.63867-0.77734c-0.39375-0.3325-0.86328-0.60156-0.86328-0.60156s0.82375-0.0557 1.3438-0.002c0.48 0.05 1.2129 0.24609 1.2129 0.24609l-0.56836-2.1914s1.5676 1.5998 3.2051 2.0273c1.8662 0.4875 3.0702 2.4803 3.084 2.4766 0.365-0.1225 0.84867-0.33273 1.4199-0.36523 1.3812-0.08 2.3823 0.3757 3.2285 1.4707 0.345-0.31875 1.9201-1.2919 4.2051-0.85938 1.82 0.34375 3.6914-1.1074 3.6914-1.1074-2.2312 0-3.0262-1.1313-5.5-1.0801-1.6575 0.035-3.1074 0.66211-3.1074 0.66211s-0.395-0.3682-1.2812-0.56445c-0.58-0.13-1.5234-0.02539-1.5234-0.02539s-0.51016-1.0012-1.6602-1.9062c-1.4875-1.1688-3.378-1.8786-3.4668-1.9023 0.16875-0.04 2.4713-0.12586 4.6426 0.93164 1.04 0.50625 2.2715 1.9062 2.2715 1.9062s2.1591-0.59688 3.5703-0.60938c2.1688-0.01875 3.9391 0.59672 4.0566 0.73047-0.51625-0.5425-1.9082-2.1504-1.9082-2.1504-1.1238-0.36375-1.82-0.45875-3-0.40625-1.0325 0.045-2.5977 0.5293-2.5977 0.5293-0.325-0.2575-1.097-1.1572-2.5957-1.8672-1.93-0.915-4.4629-1.1367-4.4629-1.1367zm-45.166 0.22266s-1.4938 0.45039-2.6562 1.6504c-1.185 1.2238-1.3025 1.5477-1.5 1.9902l1.4023 1.0098-1.7969-0.12305s-1.0373 0.32672-1.4023 0.41797c-0.81375 0.2025-1.7695 0.61328-1.7695 0.61328-2.2863 3.0488-4.9011 4.9784-8.9023 19.725-0.38625 1.4238-0.69375 2.8198-0.9375 4.166 1.4438 0.52375 2.8291 1.3009 4.0391 2.2871-0.13-0.56-0.56641-2.5586-0.56641-2.5586s0.9068 0.02805 2.0293 0.06055c1.445-6.655 4.6328-10.742 4.6328-10.742l-3.1973 0.53906s1.2352-1.8412 2.1152-2.9512c1.1062-1.3938 1.9676-2.5063 3.0488-3.3926-0.639-0.05-3.173-0.861-2.754-3.026 0.591-3.059 3.464-3.327 4.181-3.395 0.8225-0.07625 1.3528 0.02578 2.0391 0.08203 0.79125-0.56375 1.1914-0.80664 1.1914-0.80664s-1.3536-1.3605-0.74609-2.7168c0.4175-0.935 0.78461-1.6985 3.3184-2.5098l-1.7695-0.32031zm3.0234 1.1582c-0.33212 0.0072-0.69328 0.06078-1.082 0.17188-1.4812 0.4225-2.2969 1.6152-2.2969 1.6152s-0.17453 0.88234 0.29297 1.5273c0.42 0.57875 1.2428 0.86484 1.8828 0.83984 0.4175-0.83625 0.76211-1.3377 1.8184-1.9902 1.3262-0.82125 2.6738-0.0332 2.6738-0.0332s-0.9642-2.181-3.2891-2.1309zm12.574 0.25976s-0.17016 0.99133-1.2852 2.5176c-0.99625 1.3625-2.4355 2.1895-2.4355 2.1895s3.1237-0.8357 3.8262-2.1895c0.605-1.1662-0.10547-2.5176-0.10547-2.5176zm-5.0898 1.1367s-0.29672 1.1988-1.6055 2.5625c-1.2588 1.31-2.0176 2.0664-2.0176 2.0664s3.0003-1.1075 3.7266-2.5312c0.5975-1.17-0.10352-2.0977-0.10352-2.0977zm34.945 2.9277s-0.26648 0.33109-0.17774 0.77734c0.07375 0.36875 0.45359 0.62734 0.93359 0.65234 0.5975 0.03125 0.83789-0.44336 0.83789-0.44336l-1.5938-0.98633zm-40.502 0.11328s0.07375 1.6811-1.3125 2.9648c-1.415 1.31-2.5664 1.8574-2.5664 1.8574s2.5689-0.10398 3.8789-1.9902c0.75-1.08 0-2.832 0-2.832zm62.426 1.5371c-0.63501 0.0339-1.1405 0.1993-1.3594 0.35352 0.009 0.0425 1.9152 0.5943 2.2715 0.81055 2.2725 1.3788 2.3059 3.6173 2.2734 3.6523 0 0-0.69547-0.93086-1.543-1.3809-0.69875-0.37125-1.9473-0.56836-1.9473-0.56836s1.7048 1.299 2.3535 3.084c0.0337 0.09125 0.61585 1.5415 0.63085 1.6777 0.74875-0.705 2.9821-3.3982 0.84961-6.0645-1.0516-1.3148-2.471-1.6209-3.5293-1.5645zm-70.711 0.14648c-1.1087-0.02329-2.2948 0.35219-3.252 1.6094-0.87 1.1425 0.0807 3.2389 2.502 2.5977 0.12375-0.86125 0.30031-1.3896 0.66406-1.9434 0.96625-1.465 3.5664-1.082 3.5664-1.082s-1.6327-1.1428-3.4805-1.1816zm13.465 0.24609s-1.1696 1.5236-2.4121 2.6211c-1.7825 1.5725-5.7031 2.9883-5.7031 2.9883s3.6071-0.36773 5.5996-1.5215 2.5156-4.0879 2.5156-4.0879zm47.855 0.86328-1.8652 0.18945s0.0086 0.52992 0.55859 0.76367c0.44125 0.18875 0.89625 0.12422 1.125-0.17578 0.275-0.36125 0.18164-0.77734 0.18164-0.77734zm-2.9785 1.2051c-0.55453-0.0047-0.92188 0.08203-0.92188 0.08203l0.78711 3.5586-3.2617 1.5938-0.20312 0.89258s2.3047 1.1848 3.3672 1.9473c1.05 0.75375 2.1074 2.1309 2.1074 2.1309l0.98242-1.3281s-0.90633-0.85883-1.5488-1.3301c-0.97875-0.72125-2.8026-1.5469-2.7051-1.5469s1.7449 0.07438 3.2949 0.98438c0.58125 0.34125 0.96031 0.62789 1.4766 1.0566 0.27125-0.345 0.66406-1.2656 0.66406-1.2656s-0.73859-0.68844-2.1523-1.2422c-0.8775-0.34375-2.4219-0.66406-2.4219-0.66406s1.777-0.24047 2.9395 0.08203c1.3025 0.36 1.6093 0.66664 1.9043 0.83789 0.1725-0.78625 0.12305-1.4863 0.12305-1.4863s-0.55766-0.30086-1.5977-0.44336c-0.98375-0.135-2.0918-0.03125-2.0918-0.03125s0.86641-0.48031 1.7227-0.63281c0.67-0.12 1.5974-0.06125 1.7637-0.03125 0 0-0.04414-1.6573-2.1816-2.6973-0.75062-0.365-1.4923-0.46211-2.0469-0.4668zm-55.549 0.93164s0.2768 0.9582-1.0332 3.002c-1.02 1.5912-3.1875 2.4609-3.1875 2.4609s3.408-0.41961 4.4043-2.4121c0.5875-1.175-0.18359-3.0508-0.18359-3.0508zm49.756 0.90039-0.69531 0.42969 2.0918 2.4102 3.1836-1.4336-0.52734-0.60742-2.1875 0.76172-1.8652-1.5605zm-4.3633 9.3848c-0.28334 0.01687-0.5707 0.07672-0.86133 0.18359-1.0275 0.3775-1.123 1.5397-1.123 1.5547 0 0.0975 0.1657 1.2177 0.2207 1.3477 0.08125-0.09 0.51375-0.88039 1.0312-1.2441 0.74125-0.5225 1.2207-0.625 1.2207-0.625s-0.05688 0.96774-0.01563 1.584c0.0425 0.62375 0.23438 1.5859 0.23438 1.5859s0.83734 0.57141 1.6836 0.84766c0.975 0.3175 1.6234 0.34531 1.9434 0.32031 0 0 0.74586-0.91555 1.0996-1.5918 0.32625-0.6225 0.43945-1.207 0.43945-1.207s0.56398 0.48523 0.89648 1.0527c0.33125 0.56625 0.37187 1.3736 0.39062 1.4023 0.20875-0.23 0.76359-0.83617 0.74609-1.5762-0.035-1.4488-1.602-2.0579-2.2695-2.2129-2.0175-0.4675-2.3359 1.084-2.3359 1.084s-0.4218-1.067-0.93555-1.5508c-0.70781-0.66375-1.5152-1.0057-2.3652-0.95508zm-66.588 10.264c-5.7013 0.03125-10.582 5.3169-10.582 10.641 0 4.4988 3.4753 9.0484 8.4453 9.6934l-0.30274-4.6523c-2.6562-1.255-4.4827-3.6694-4.3477-6.8281 0.13875-3.26 2.0312-5.1964 4.9512-5.0039 3.2888 0.04125 6.6061 2.3375 7.6211 5.625 1.3638 0.28375 2.8371 0.72344 4.2246 1.3984 0.08125-0.5475 0.11969-1.1077 0.11719-1.6777-0.0325-5.4538-5.6057-9.1953-10.127-9.1953zm10.639 0.58984c-0.000001 0 0.14648 0.63562 0.61523 1.1094 0.27 0.27375 0.6982 0.59922 0.75195 0.63672 0.18875 2.645 0.26172 7.8418 0.26172 7.8418-0.35 0.17375-0.8675 0.61391-0.96875 0.75391-0.08125 0.11-0.28484 0.36055-0.37109 0.4668 1.3825 0.80625 2.6133 1.8781 3.4883 3.2969l6.5059 0.01758s-0.27133-2.1152-0.01758-3.4277c0.16625-0.865 0.70898-2.1465 0.70898-2.1465s-1.0106 0.16422-1.7656 0.79297c-0.88375 0.735-1.2961 1.8871-1.3398 2.0059-0.38375 0.0625-2.1901 0.28508-3.2363-0.82617-0.01375-2.7488 0.29141-5.5406 0.50391-8.3906 0 0 0.56211-0.5343 0.84961-0.93555 0.30625-0.42625 0.64453-1.1816 0.64453-1.1816s-2.3747 0.05078-3.5547 0.05078c-1.0712 0-3.0762-0.06445-3.0762-0.06445zm15.953 0.0625c-0.71062 0.01797-1.2571 0.06977-1.3809 0.07227-0.9525 0.01875-1.6669 0.13976-2.7344 0.13476-1.0275-0.005-2.6309-0.14844-2.6309-0.14844s0.41953 1.0106 1.1758 1.5469c0.5 0.355 1.4453 0.61914 1.4453 0.61914l0.58203 9.7305s-0.57438 0.35328-0.89062 0.64453c-0.5275 0.48375-1.084 1.4805-1.084 1.4805s1.5259-0.17922 2.3359-0.23047c0.4975-0.03125 0.93062-0.02008 1.3281 0.01367 0.4025 0.035 0.76836 0.08867 1.1309 0.13867 0.7325 0.10125 1.4589 0.18688 2.4102 0.04687 3.4275-0.50375 4.853-2.3994 5.6855-4.6094 0.735-1.955 0.5025-4.8224-0.4375-6.4824-0.995-1.7562-2.8671-2.5419-4.5684-2.8281-0.7825-0.13188-1.6566-0.14688-2.3672-0.12891zm-0.34766 2.5 0.26172 0.0332c0.17375 0.02125 0.34734 0.04024 0.40234 0.05273 2.1862 0.49375 2.8987 1.6815 3.5137 3.2715 0.62 1.6238 0.65992 3.5488-0.48633 4.7363-1.0387 1.0525-2.3706 1.3246-3.7656 0.97461-0.04375-2.9813 0.06422-6.1559 0.07422-9.0684zm-31.787 6.294s0.29867 2.2452 2.5137 3.7227c0.58125 0.38625 1.3301 0.61524 1.3301 0.61524l0.94726 14.271s-0.70391 0.30844-1.4414 1.0859c-0.66625 0.7025-0.96094 1.7754-0.96094 1.7754l0.21094-0.03516c0.0025 0 3.4281-0.35531 5.6406-0.16406 1.3175 0.115 2.6548 0.22195 3.9473 0.0957 3.5737-0.34375 6.575-2.6406 7.6562-6.2656 4.013-13.452-9.51-14.67-13.066-14.726-1.096-0.017-2.492 0.04-3.522 0.018-1.703-0.038-3.256-0.393-3.256-0.393zm102.54 4.891s-1.6948 0.08836-2.041 0.06836c-0.39375-0.0225-4.2324 0.03516-4.2324 0.03516l2.8281 1.6348s-0.0103 3.059 0.0859 3.8652c0.14376 1.2075 0.12876 2.7332 0.1875 3.8457-0.865-1.1025-1.5614-2.1427-2.2852-3.1914-0.79375-1.1525-1.6247-2.3176-2.7422-3.5801l-0.62695-0.63281s-1.5829-0.32227-2.7129-0.32227c-0.99375 0-2.4141 0.1875-2.4141 0.1875s0.8618 0.65602 1.3105 1.1035c0.44875 0.45 0.99024 1.3477 0.99024 1.3477s-0.0542 6.7821-0.29297 10.006c0 0-0.37305 0.14758-0.74805 0.48633-0.7 0.63-1.166 1.5273-1.166 1.5273s2.5089-0.27984 3.6289-0.27734c0.7775 0.0025 3.2774 0.24219 3.2774 0.24219-0.00001 0-0.44758-0.89914-0.76758-1.2754-0.2575-0.3025-0.70328-0.62789-0.89453-0.74414-0.255-2.1888-0.33954-4.6223-0.45704-6.9023 1.3188 1.5775 2.0317 2.6189 2.7305 3.5977 0.7425 1.0412 1.4623 2.0217 2.8848 3.4805 1.5062 1.545 2.7031 2.1426 2.7031 2.1426l-0.043-3.2031c0.30001-7.9862 0.79688-13.441 0.79688-13.441zm-93.699 0.29297c0.32125 0.03875 0.87648 0.06578 1.084 0.11328 2.5775 0.65625 4.8038 2.0155 5.5488 4.4805 0.57125 1.8938 0.58266 4.795-1.2148 6.6562-1.6475 1.6688-2.8791 2.2929-5.4941 2.1816-0.06875-4.5212 0.06992-9.0316 0.07617-13.432zm1.4277 1.0957c-0.165 0.14875-0.34336 0.27883-0.53711 0.39258-0.0075 1.01-0.02351 2.0262-0.04102 3.0449 1.1275-0.5925 2.14-1.3766 3-2.3066-0.68625-0.47875-1.5056-0.85086-2.4219-1.1309zm17.656 0.16211c-3.59 0.02-6.6523 3.3382-6.6523 6.6895 0 3.0425 2.5216 6.1562 6.0391 6.1562 3.715 0 7.007-3.178 6.9883-7.043-0.02-3.4625-3.5425-5.8027-6.375-5.8027zm55.525 0c-3.59 0.02-6.6523 3.3382-6.6523 6.6895 0.000001 3.0425 2.5216 6.1562 6.0391 6.1562 3.715 0 7.007-3.178 6.9883-7.043-0.0212-3.4625-3.5425-5.8027-6.375-5.8027zm-48.357 0.01367c-1.0477 0.01934-1.9004 0.13086-1.9004 0.13086s0.85234 0.34117 1.6211 1.4512c0.47 0.67875 0.95195 1.8062 1.0332 2.0449-0.545 2.64-1.2941 6.8427-1.5879 8.0352-0.0775 0.0375-0.49398 0.21023-1.3027 0.83398-0.755 0.58375-1.3438 1.666-1.3438 1.666s2.0366-0.33375 3.3516-0.40625c1.1512-0.0625 2.957 0.01172 2.957 0.01172s-0.13859-0.65086-0.30859-1.0371c-0.16375-0.3725-0.53516-0.89648-0.53516-0.89648 0.1675-1.4375 0.35867-2.6197 0.63867-4.2422 0.37625 0.955 0.57297 1.442 0.76172 1.9082 0.215 0.5325 1.3984 3.5566 1.3984 3.5566l2.3203 0.88086s1.2837-3.2775 2.5137-6.1875c0.26875 1.5912 0.41844 2.7119 0.61719 4.2656-0.1475 0.12125-0.47438 0.4518-0.73438 0.7793-0.36625 0.46125-0.79297 1.2871-0.79297 1.2871s1.8374-0.02992 3.2949 0.14258c1.6225 0.1925 2.9453 0.55664 2.9453 0.55664s-0.1943-0.68859-0.4043-1.0898c-0.19375-0.36875-0.55976-0.85531-0.60352-0.88281l-1.3203-9.2051c-0.01375-0.17125-0.11906-1.1512-0.16406-1.4062 0.37-0.22875 0.56469-0.35664 0.96094-0.71289 0.68625-0.6175 0.97656-1.2578 0.97656-1.2578s-1.9007 0.18328-3.377 0.17578c-0.585-0.0025-1.5332-0.05078-1.5332-0.05078l-0.1875 0.70312c-0.54875 2.0925-1.5821 5.0416-2.4434 7.4766-0.94875-2.7538-3.334-8.1914-3.334-8.1914 0.000001 0-1.5022-0.26656-2.4297-0.32031-0.366-0.024-0.737-0.028-1.086-0.022zm29.535 0.15234 2.4863 1.6348s0.10688 1.4457 0.20312 2.252c0.14375 1.2075 0.12875 2.7332 0.1875 3.8457-0.865-1.1025-1.5614-2.1427-2.2852-3.1914-0.79375-1.1525-1.6227-2.3176-2.7402-3.5801l-0.622-0.633s-1.5809-0.32227-2.7109-0.32227c-0.99375 0-2.4141 0.1875-2.4141 0.1875s0.85984 0.65602 1.3086 1.1035c0.44875 0.45 0.99023 1.3477 0.99023 1.3477s-0.05227 6.7821-0.29102 10.006c0 0-0.37305 0.14758-0.74805 0.48633-0.7 0.63-1.168 1.5273-1.168 1.5273s2.5082-0.27984 3.627-0.27734c0.77875 0.0025 3.2793 0.24219 3.2793 0.24219s-0.44758-0.89914-0.76758-1.2754c-0.2575-0.3025-0.70133-0.62789-0.89258-0.74414-0.255-2.1888-0.34024-4.6223-0.45898-6.9023 1.3188 1.5775 2.0317 2.6189 2.7305 3.5977 0.7425 1.0412 1.4642 2.0217 2.8867 3.4805 1.5062 1.545 2.7012 2.1426 2.7012 2.1426l-0.04102-3.2031c0.2975-7.9862 0.67773-11.656 0.67773-11.656s-1.6948 0.08836-2.041 0.06836c-0.39375-0.02375-3.8906-0.13672-3.8906-0.13672zm-8.2031 0.04492s-2.2527 0.0675-2.8965 0.09375c-0.6125 0.025-3.2285-0.08594-3.2285-0.08594s0.20031 0.76508 0.47656 1.1738c0.205 0.30375 0.61812 0.66375 0.64062 0.6875 0.20875 3.45 0.25047 7.2595 0.23047 10.832-0.165 0.11-0.44625 0.38852-0.65625 0.69726-0.27875 0.4125-0.47852 1.1836-0.47852 1.1836s1.6895-0.2968 2.8633-0.2793c0.9775 0.01625 2.9434 0.26562 2.9434 0.26562s-0.36102-0.90734-0.75977-1.3711c-0.235-0.2725-0.62664-0.57539-0.68164-0.61914-0.02375-2.7388 0.23203-10.489 0.23828-10.607 0 0 0.41711-0.32523 0.63086-0.58398 0.38375-0.46375 0.67774-1.3867 0.67774-1.3867zm20.928 0s-2.2508 0.0675-2.8945 0.09375c-0.6125 0.025-3.2305-0.08594-3.2305-0.08594s0.20031 0.76508 0.47656 1.1738c0.205 0.30375 0.62008 0.66375 0.64258 0.6875 0.20875 3.45 0.24976 7.2595 0.22852 10.832-0.16375 0.11-0.44625 0.38852-0.65625 0.69726-0.28 0.4125-0.47656 1.1836-0.47656 1.1836s1.6876-0.2968 2.8613-0.2793c0.9775 0.01625 2.9453 0.26562 2.9453 0.26562s-0.36102-0.90734-0.75976-1.3711c-0.235-0.2725-0.62859-0.57539-0.68359-0.61914-0.02375-2.7388 0.23398-10.489 0.24023-10.607 0 0 0.41641-0.32523 0.62891-0.58398 0.385-0.46375 0.67773-1.3867 0.67773-1.3867zm-50.553 2.4805c2.2838 0.02875 4.7353 1.967 4.6953 4.3145-0.0325 1.895-1.1873 3.143-2.3086 3.1992-2.915 0.1475-5.2578-2.2452-5.2578-4.6152 0-1.4888 1.4286-2.9234 2.8711-2.8984zm55.523 0c2.285 0.02875 4.7353 1.967 4.6953 4.3145-0.0325 1.895-1.1866 3.143-2.3066 3.1992-2.915 0.1475-5.2578-2.2452-5.2578-4.6152 0-1.4888 1.4266-2.9234 2.8691-2.8984zm-45.5 12.242c-3.8508 0.0273-5.9323 0.56961-10.074 1.7012v6.8457c4.8512-1.3112 8.2976-1.8722 15.299-1.2734 6.51 0.5575 14.01 3.7676 14.01 3.7676 1.55 0.6275 7.8609 3.2095 14.693 3.457 7.845 0.285 9.1337-0.04789 14.656-1.5566v-6.8477c-5.125 1.3038-6.948 1.7354-14.793 1.2441-6.52-0.4075-14.293-3.584-14.293-3.584s-8.0898-3.2276-14.916-3.6113c-1.8188-0.10219-3.2984-0.15168-4.582-0.14258zm-13.611 1.1758v7.334l2.5059 0.3418v-7.1465l-2.5059-0.5293zm-1.2051 0.41406-2.7227 2.1406 0.01953 7.2012 2.7031-2.1816v-7.1602zm70.859 2.1484-2.7031 2.1816v7.1602l2.7226-2.1406-0.0195-7.2012zm-6.4141 2.0801v7.1465l2.5059 0.5293v-7.332l-2.5059-0.34375z" fill="#969c9e"/></g><path d="m92.611 5.6253c-0.34412 0.060059-0.63531 0.31977-0.71875 0.68164-0.075 0.32625 0.03828 0.65203 0.26953 0.86328 0.05-0.2875 0.18258-0.62078 0.51758-0.80078 0.37125-0.19875 0.72531-0.10906 0.97656 0.023437-0.0475-0.36-0.3125-0.67156-0.6875-0.75781-0.12062-0.027813-0.24271-0.029785-0.35742-0.00977zm-8.73 0.4961c-1.1815-0.029395-2.2615 0.77219-2.5371 1.9688-0.16875 0.72625-0.0051 1.4527 0.38867 2.0215l0.212 0.369c-0.055-0.69875-0.0076-1.4177 0.23242-2.0664 0.29125-0.78375 0.97289-1.319 1.9941-1.1777 0.77625 0.1075 1.3294 0.72039 1.4844 1.0254l-0.36719 1.5957c0.04625 0.42625 0.19945 0.82953 0.43945 1.1758l0.21094 0.36914c-0.055-0.69875-0.0063-1.417 0.23242-2.0645 0.29125-0.785 0.97414-1.319 1.9941-1.1777 0.77625 0.1075 1.3313 0.71844 1.4863 1.0234l0.24414-1.0566c-0.3475-0.49625-0.87227-0.87203-1.5098-1.0195-1.0825-0.25-2.1627 0.23375-2.7227 1.125l0.237-1.0272c-0.347-0.4975-0.873-0.8721-1.51-1.0196-0.171-0.0393-0.341-0.0602-0.509-0.0644zm8.125 1.8613c-0.9953-0.056977-1.9284 0.47898-2.3867 1.3496l-0.29492 1.2695c0.0075 0.2025 0.03805 0.4025 0.0918 0.59375l0.27148 1.1113c0.02625-0.62625 0.13258-1.2902 0.36133-1.9414 0.2775-0.785 0.99898-1.4034 2.1465-1.2734 1.4188 0.16 1.9985 1.1897 2.1973 1.6797 0.128-1.2546-0.695-2.4369-1.957-2.7281-0.143-0.0332-0.287-0.0525-0.429-0.0606zm4.0684 0.94727c-0.47221-0.018047-0.93062 0.096094-1.3281 0.31641l-0.34961 1.5176c0.37375-0.45875 0.95125-0.77977 1.75-0.75977 1.5675 0.04 2.1887 0.88133 2.3574 1.1738-0.12-1.0375-0.87883-1.9348-1.9551-2.1836-0.158-0.0365-0.316-0.0584-0.474-0.0644zm3.9961 0.92383c-0.472-0.0181-0.931 0.0961-1.328 0.3164l-0.33984 1.4746c0.37125-0.44 0.94453-0.73875 1.7383-0.71875 1.5675 0.04 2.1887 0.88328 2.3574 1.1758-0.12-1.0388-0.87688-1.9368-1.9531-2.1855-0.15906-0.036563-0.31721-0.056484-0.47461-0.0625zm-44.488 7.0997c-0.15866 0.0056-0.32812 0.01992-0.50781 0.04492-1.4788 0.205-2.7383 0.85352-2.7383 0.85352s0.55703 0.33688 0.89453 0.64062l0.02344 0.01953c0.2625-0.11875 0.56516-0.24992 0.91016-0.38867 1.4612-0.59125 2.7366-0.48297 3.4766-0.32422-0.33688-0.47578-0.94796-0.88492-2.0586-0.8457zm-5.9883 0.94141c-0.16948 0.0014-0.3507 0.01094-0.54492 0.03125-1.4725 0.15375-2.5996 0.94922-2.5996 0.94922s-0.25289 0.45188-0.05664 1.1406l0.0332 0.11133c0.4025-0.3225 1.028-0.73711 1.8867-1.0684 1.3188-0.5075 2.4981-0.42859 3.3594-0.21484-0.29203-0.52828-0.89175-0.95867-2.0781-0.94922zm-4.2578 0.20313s-0.56484 0.29547-2.0898 1.2305c-0.77875 0.4775-1.6719 1.3262-1.6719 1.3262s0.83406-0.08383 1.6641 0.26367c0.31-0.25375 0.66617-0.54086 0.79492-0.63086 0.1675-0.1175 0.65352-0.37148 0.94726-0.52148-0.0675-0.8975 0.35547-1.668 0.35547-1.668zm24.51 1.1777c-1.0355 0.04959-2.1438 0.41133-3.2109 1.3047-0.8325 0.6975-1.1971 1.8584-1.3496 2.8809 0.4875-0.88625 2.1523-2.707 4.7598-2.707 0.6075 0 1.2173 0.07883 1.8086 0.20508 1.6762-0.09625 2.5663 0.1943 2.6113 0.18555-0.40906-0.57578-2.341-1.9782-4.6191-1.8691zm13.748 1.3047s-1.4177 0.37086-3.084 1.3184l0.52539 1.127c0.08 0.24875 0.17516 0.52453 0.28516 0.80078 0 0 1.5676 1.6011 3.2051 2.0273 1.7588 0.45875 2.9296 2.2557 3.0996 2.4707 0.3-0.10125 0.67844-0.26008 1.1172-0.33008-0.6175-1.1338-1.9925-2.9662-4.8438-4.3125-0.7375-0.3475-1.334-0.65852-1.8027-0.91602 0.5175-0.0975 0.99352-0.13094 1.541-0.11719 0.28875-0.04 2.5161-0.09141 4.6211 0.93359 1.04 0.50625 2.2717 1.9066 2.293 1.9004-0.28-0.7625-1.0072-2.1929-2.7422-3.2754-1.16-0.72375-2.9317-1.2861-4.168-1.6211l-0.04688-0.0059zm-45.176 0.22461c-0.105 0.0325-1.5297 0.49148-2.6484 1.6465-1.185 1.2238-1.3038 1.5484-1.5 1.9922l1.4004 1.0078-0.06055-0.0039 1.9941 0.88281c-0.1625-0.1725-1.2923-1.4392-0.72852-2.6992 0.32-0.715 0.61219-1.3277 1.8672-1.9414l-0.32422-0.88476zm3.0723 1.1562c-0.34346 0.0036-0.71836 0.05625-1.123 0.17188-1.4812 0.4225-2.2969 1.6152-2.2969 1.6152s-0.14188 0.71562 0.17188 1.3281c0.22875-0.37 0.63953-0.87742 1.3633-1.4199 1.3462-1.0088 2.9405-1.0315 4.1992-0.80273-0.525-0.47531-1.2841-0.9033-2.3145-0.89258zm36.707 1.6074c-2.525 2.3538-4.0304 6.0784-4.1504 6.3047 0.18-0.11625 1.3502-0.77391 2.2852-1.0977 0.5725-0.19875 1.4662-0.435 1.5-0.40625-0.0625 0.16-1.2591 1.462-2.0703 3.4082-0.88375 2.1212-1.1766 5.5561-1.2441 6.1211 0.2675-0.40875 0.51789-0.67891 0.86914-1.0977 0.31125-0.37 0.82227-0.92773 0.82227-0.92773 0.0325 0.035 0.07672 2.0612 0.32422 3.125 0.18 0.77875 0.43352 1.4659 0.66602 2.1309 1.15-1.1612 2.2203-2.6852 2.1641-5.459-0.1075-0.19-1.2884-2.3599-0.63086-5.2012 0.4875-2.1088 2.1016-3.3164 2.1016-3.3164s-0.33797-0.52555-0.63672-0.7793c-0.39375-0.33125-0.86523-0.59961-0.86523-0.59961s0.82375-0.0557 1.3438-0.002c0.44 0.04625 1.0898 0.21469 1.1973 0.24219-0.785-0.9025-2.1433-2.1916-3.6758-2.4453zm-47.52 2.8262-0.02734 0.03711c-1.0662 1.4125-2.31 2.8104-3.6875 5.2754-1.455 2.7025-3.1284 6.8864-5.1621 14.379-0.2225 0.82-0.42 1.6322-0.59375 2.4297-0.11875 0.58-0.23148 1.164-0.33398 1.7402 0.1825 0.06625 0.36492 0.13719 0.54492 0.21094 1.1212-3.9062 2.7005-8.3202 5.498-13.285 0.94125-1.67 2.6516-4.0815 3.5254-5.209-0.23625-0.405-0.34672-0.90141-0.23047-1.5039 0.27375-1.4138 1.033-2.2308 1.8418-2.707l-1.375-1.3672zm64.496 0.89063c-1.5098-0.08777-2.9254 0.57898-3.9043 1.209 0.3575 0.235 0.68398 0.54516 0.99023 0.94141 0.34375-0.31875 1.9201-1.2919 4.2051-0.85938 1.675 0.31625 3.3918-0.88828 3.6543-1.082-0.81 0.19-2.1987 0.31445-4.2949-0.12305-0.21859-0.04563-0.4347-0.0734-0.65039-0.08594zm10.629 0.65039c-0.63501 0.0339-1.1405 0.1993-1.3594 0.35352 0.009 0.0425 1.9152 0.5943 2.2715 0.81055 0.46625 0.2825 0.83851 0.60094 1.1348 0.92969 1.265 0.81125 1.9081 1.9965 2.2344 2.9277 0.2825-1.0325 0.21554-2.247-0.75196-3.457-1.0516-1.3148-2.471-1.6209-3.5293-1.5645zm-70.555 0.153c-1.151-0.06101-2.4016 0.28867-3.4023 1.6035-0.51375 0.67375-0.39344 1.6798 0.28906 2.2598 0.10125-0.41125 0.35516-1.0166 0.97266-1.7266 0.995-1.1438 2.613-1.5701 4.0293-1.7051-0.544-0.213-1.198-0.396-1.889-0.432zm50.23 1.623c-0.80461-0.0096-1.6515 0.12648-2.3809 0.56055 0.8075 0.4175 1.4057 0.98711 1.8145 1.5996 0 0-0.87328-0.43797-2.207-0.82422-0.14125-0.04125-0.27766-0.07688-0.41016-0.10938-0.24875 0.28125-0.46773 0.62055-0.64648 1.0293 0.18875 0.02375 0.39117 0.05656 0.60742 0.10156 1.9425 0.39125 2.7793 1.2793 2.7793 1.2793s-1.5456-0.39031-2.7344-0.47656c-0.32625-0.0225-0.65117-0.02016-0.95117-0.0039-0.05125 0.21125-0.0932 0.43578-0.12695 0.67578-0.02125 0.14625-0.03492 0.29039-0.04492 0.43164 0.3275-0.0425 0.7032-0.0675 1.127-0.0625 2.0662 0.025 3.1855 0.88476 3.1855 0.88476s-1.5152-0.25219-3.334-0.02344c-0.355 0.04375-0.6782 0.10789-0.9707 0.18164 0.03875 0.45125 0.12336 0.85859 0.22461 1.2148 0.4425-0.12375 0.92781-0.23547 1.3828-0.29297 2.59-0.3275 4.8242 0.15039 4.8242 0.15039 0.1225-0.34375 0.19922-0.88281 0.19922-0.88281l-1.7441-2.2734 0.19141-3.1074c-0.25312-0.03031-0.51695-0.04953-0.78516-0.05273zm7.207 1.5254 0.62109 2.8008-3.2637 1.5938-0.20312 0.89258s2.3047 1.1848 3.3672 1.9473c0.3825 0.27375 0.7632 0.62891 1.0957 0.97266 0.27-0.305 0.57508-0.69633 0.86133-1.1738-0.1425-0.11875-0.28602-0.22992-0.41602-0.32617-0.98-0.72-2.8026-1.5469-2.7051-1.5469s1.7462 0.07438 3.2949 0.98438c0.0775 0.045 0.15141 0.08906 0.22266 0.13281 0.09625-0.2125 0.18898-0.43828 0.27148-0.67578 0.07125-0.21 0.13234-0.41242 0.18359-0.60742-0.2075-0.1025-0.4382-0.20328-0.68945-0.30078-0.8775-0.34375-2.4219-0.66406-2.4219-0.66406s1.777-0.24047 2.9395 0.08203c0.11625 0.03125 0.22562 0.06445 0.32812 0.0957 0.05625-0.4425 0.05375-0.84117 0-1.2012-0.95625-0.115-1.9902-0.01758-1.9902-0.01758s0.86641-0.48031 1.7227-0.63281l0.09766-0.01563c-0.524-1.396-1.94-2.046-3.317-2.34zm-8.6797 5.4863c-0.19328-0.0056-0.43352-0.0049-0.61914 0.01758-0.3325 0.04125-0.66969 0.15031-0.83594 0.19531-0.0037 0.2075-0.06164 0.43297 0.03711 0.88672 0.09625 0.44375 0.36273 0.95094 0.55273 1.1797 0.1975-0.5775 0.59008-1.6105 1.2051-2.2617 0 0-0.14656-0.01195-0.33984-0.01758zm7.9473 1.959c0.17625 0.87875-0.03703 1.9629-0.17578 2.5566 0.2825-0.09375 0.77625-0.38078 1.0938-0.70703 0.32375-0.3325 0.39375-0.55297 0.5-0.73047-0.1175-0.1275-0.34547-0.39812-0.60547-0.60937-0.29125-0.235-0.8125-0.50977-0.8125-0.50977zm-12.914 4.7441c-0.45875 0.63625-0.95219 1.3306-1.4297 2.0156-0.05875 0.22125-0.11945 0.40953-0.18945 0.61328-0.2625 0.74-1.3858 3.3009-1.4883 5.5996-0.0625 1.4025 0.60742 2.9609 0.60742 2.9609s0.31617-0.72234 0.51367-1.0898c0.19875-0.36625 0.59375-0.86328 0.59375-0.86328s-0.0393 0.98164 0.0957 1.5879c0.2 0.895 0.52836 1.5126 1.0371 2.1113 0.23-0.68125 0.27859-1.041 0.74609-1.791 0.205-0.32875 0.33148-0.51164 0.58398-0.80664 0.0075 0.82-0.04367 0.9168 0.42383 2.0605 0.3775 0.9225 1.5 2.0547 1.5 2.0547s1.698-0.82633 2.6055-1.8301c0.24875-0.275 0.38195-0.43648 0.5957-0.74023 0.07625 0.405 0.09211 0.64273 0.06836 1.0527-0.035 0.60125-0.17398 1.1638-0.36524 1.5 0 0 1.0926-0.37773 1.8613-1.209 0.515-0.5575 0.64734-0.88945 0.96484-1.6895 0 0 0.14273 0.59953 0.14648 0.98828 0.005 0.54875-0.19336 1.1478-0.25586 1.3828 0.09375-0.04 0.54461-0.49203 1.0371-1.1133 0.77-1.6962 0.68477-2.9629 0.22852-4.6504-0.86 0.025-1.4347 0.45867-3.4922-1.2051-1.6713-1.3525-4.8935 0.71297-6.291-1.8945-0.21875-0.40875-0.19477-1.1302-0.04102-1.9727-0.26875-1.0225-0.21039-2.176-0.05664-3.0723zm4.0352 0.51758c-1.1138 0.71625-1.5078 3.0762-1.5078 3.0762s0.44148 0.34422 0.95898 0.41797c0.36375 0.0525 0.85586 0.0038 0.94336-0.04492-0.0775-0.2475-0.27547-0.9632-0.35547-1.5957-0.09125-0.7175-0.07281-1.7523-0.03906-1.8535zm6.3359 1.6895c-0.0175 0.10625-0.48805 1.0291-0.9043 1.6191-0.36875 0.52125-0.87875 1.0609-1.0625 1.2422 0.05375 0.085 0.46234 0.35617 0.80859 0.48242 0.49125 0.17625 1.0449 0.08203 1.0449 0.08203s0.76078-2.2708 0.11328-3.4258zm-72.715 6.2441c-5.7013 0.03-10.582 5.3156-10.582 10.641 0 3.1262 1.6773 6.2795 4.3711 8.127l0.1751-1.789c-1.6475-1.1238-5.9851-7.3072-0.29883-12.992 3.79-3.7875 9.0771-3.115 12.506-0.1875l1.502-0.38867c-2.045-2.1388-5.0369-3.4102-7.6719-3.4102zm10.639 0.5918s0.14578 0.63367 0.61328 1.1074c0.27125 0.27375 0.70016 0.60117 0.75391 0.63867 0.1875 2.6438 0.25977 7.8398 0.25977 7.8398-0.34875 0.1725-0.81805 0.58266-0.9668 0.75391-0.15875 0.18125-0.3782 0.47297-0.4082 0.51172 0.26625-0.13375 0.80891-0.39242 1.2227-0.48242 0.40625-0.08875 1.0625-0.0957 1.0625-0.0957v-9.1973s0.99609-0.10008 1.6211-0.23633c1.0038-0.21875 1.5014-0.29812 2.4727-0.82812 0 0-2.3766 0.05078-3.5566 0.05078-1.0712 0-3.0742-0.0625-3.0742-0.0625zm15.953 0.05859c-0.71031 0.01797-1.2571 0.06977-1.3809 0.07227-0.9525 0.01875-1.6676 0.14172-2.7363 0.13672-1.0262-0.005-2.6289-0.14844-2.6289-0.14844l0.0078 0.0059c1.0462 0.74 2.0318 0.94359 3.1543 0.96484 2.2 0.0425 2.7554-0.27781 5.7441 0.08594 1.71 0.2075 3.1403 1.2177 3.6953 2.1152l1.2695 0.09766c-0.055-0.13-0.12-0.255-0.186-0.373-0.996-1.756-2.866-2.54-4.568-2.828-0.783-0.132-1.657-0.149-2.368-0.131zm-2.8574 1.8223-1.2656 0.4082 0.58008 9.7266s-0.57367 0.35453-0.88867 0.64453c-0.50875 0.4675-1.0465 1.411-1.084 1.4785 0.27125-0.17375 1.0304-0.65 1.5254-0.875 0.47125-0.21375 1.4297-0.56445 1.4297-0.56445l-0.295-10.819zm7.4062 2.8242-0.76758 1.0898 0.04883 0.12305c0.62 1.6238 0.65992 3.5488-0.48633 4.7363-1.0387 1.0525-2.3706 1.3246-3.7656 0.97461l-0.66211 0.72461s3.298 0.86602 5.1855-1.0215c2.5275-2.5275 0.44727-6.627 0.44727-6.627zm-25.939 0.35156-0.42383 1.7734c0.435 0.625 0.77906 1.3127 1.0078 2.0527 0.49875 0.10375 1.0118 0.2282 1.5293 0.37695-0.34375-1.67-1.1195-3.2056-2.1133-4.2031zm16.412 3.4902s-1.0087 0.16422-1.7637 0.79297c-0.885 0.735-1.298 1.8871-1.3418 2.0059-0.38375 0.0625-2.1881 0.28633-3.2344-0.82617l-0.85938 0.61719s0.42422 0.78406 2.293 1.1016c1.185 0.2 1.7477 0.11594 2.6914 0.08594 0.10125-0.8 0.25312-1.0836 0.64062-1.9648 0.465-1.0575 1.2492-1.6162 1.5742-1.8125zm-27.162 0.309v0.0078c0.4325 0.4675 1.2388 1.0706 2.7051 1.4844 1.7225 0.4875 3.5649-0.33586 8.1699 0.58789 6.425 1.29 7.8164 5.3594 7.8164 5.3594l1.4727 0.1875c-1.999-6.479-10.648-7.21-13.388-7.253-1.095-0.017-2.489 0.041-3.518 0.018-1.703-0.037-3.258-0.393-3.258-0.393zm5.0859 3.4473-1.2422 0.89062 0.94726 14.271s-0.70516 0.30844-1.4414 1.0859c-0.62375 0.6575-0.92203 1.6405-0.95703 1.7617 0.515-0.43 1.2329-1.002 1.6504-1.2207 1.105-0.58 1.873-0.80469 1.873-0.80469l-0.83-15.984zm97.441 1.4453c-0.24125 0.0125-1.7118 0.08516-2.0293 0.06641-0.39375-0.0225-4.2324 0.03516-4.2324 0.03516l2.8281 1.6348s-0.0103 3.0602 0.0859 3.8652c0.14251 1.1988 0.12805 2.7103 0.18555 3.8203l0.97266 1.2676 0.21484-9.3711s0.68227-0.22047 1.0723-0.44922c0.3025-0.17625 0.68359-0.66414 0.90234-0.86914zm-99.963 1.0605-1.541 0.57617c0.635 0.48625 1.3818 0.90281 2.1855 1.2266l-0.09961-1.5215c-0.18625-0.0875-0.36617-0.18125-0.54492-0.28125zm7.7031 0.32617c-0.165 0.14875-0.34336 0.27883-0.53711 0.39258-0.0038 0.45-0.0094 0.90297-0.01563 1.3555 0.53625-0.22625 1.0225-0.53148 1.4375-0.92774 0.12125-0.11625 0.23695-0.23758 0.3457-0.36133-0.38625-0.175-0.79797-0.32648-1.2305-0.45898zm17.656 0.16406c-3.5888 0.01875-6.6523 3.3362-6.6523 6.6875 0 1.6612 0.75352 3.3462 2.0098 4.5312l0.29883-1.4238s-2.9505-3.7273 0.45703-7.1348c2.9038-2.9038 6.783-1.1501 8.0293 0.32617l1.1621-0.28125c-1.265-1.6875-3.4347-2.7051-5.3047-2.7051zm55.525 0c-3.59 0.01875-6.6523 3.3362-6.6523 6.6875 0 1.6612 0.75156 3.3462 2.0078 4.5312l0.30078-1.4238s-2.9524-3.7273 0.45508-7.1348c2.9038-2.9038 6.785-1.1501 8.0312 0.32617l1.1602-0.28125c-1.265-1.6875-3.4327-2.7051-5.3027-2.7051zm-48.357 0.01172c-1.0477 0.01934-1.9004 0.13086-1.9004 0.13086s0.85234 0.34117 1.6211 1.4512c0.47 0.67875 0.95195 1.8062 1.0332 2.0449-0.545 2.64-1.2941 6.8427-1.5879 8.0352-0.0775 0.0375-0.49398 0.21023-1.3027 0.83398-0.7175 0.555-1.2848 1.5595-1.3398 1.6582 0.43125-0.28875 1.2123-0.7893 1.8535-1.0918 0.72625-0.34125 1.6875-0.60547 1.6875-0.60547l1.7773-9.3984-0.82226-2.0391s0.81742-0.09258 1.2637-0.20508c0.4475-0.11125 1.2305-0.47461 1.2305-0.47461-0.079-0.012-1.523-0.266-2.424-0.318-0.368-0.022-0.739-0.026-1.088-0.02zm29.535 0.15234 2.4863 1.6367s0.10883 1.4438 0.20508 2.25c0.14125 1.1975 0.12609 2.7103 0.18359 3.8203l0.97266 1.2676 0.09961-7.7578s0.67906-0.21922 1.0703-0.44922c0.30125-0.17625 0.68484-0.49227 0.90234-0.69727-0.24125 0.0125-1.7118 0.08516-2.0293 0.06641-0.3925-0.0225-3.8906-0.13672-3.8906-0.13672zm-5.4883 0.0059c-0.99375 0-2.4141 0.1875-2.4141 0.1875s0.85984 0.65672 1.3086 1.1055c0.44875 0.44875 0.99023 1.3457 0.99023 1.3457s-0.05227 6.7834-0.29102 10.006c0 0-0.37305 0.14883-0.74805 0.48633-0.655 0.59-1.1084 1.4151-1.1621 1.5176 0.39875-0.2475 1.0359-0.62391 1.5996-0.87891 0.80125-0.36375 1.5918-0.53516 1.5918-0.53516l0.08594-12.152s0.44016-0.06961 1.0039-0.31836c0.37625-0.16625 0.59711-0.32781 0.72461-0.44531-0.1875-0.0375-1.6345-0.31836-2.6895-0.31836zm31.861 0c-0.99375 0-2.4141 0.1875-2.4141 0.1875s0.8618 0.65672 1.3105 1.1055c0.44875 0.44875 0.99024 1.3457 0.99024 1.3457s-0.0542 6.7834-0.29297 10.006c0 0-0.37305 0.14883-0.74805 0.48633-0.655 0.59-1.1064 1.4151-1.1602 1.5176 0.39875-0.2475 1.0339-0.62391 1.5977-0.87891 0.80125-0.36375 1.5918-0.53516 1.5918-0.53516l0.0859-12.152s0.44015-0.06961 1.0039-0.31836c0.37625-0.16625 0.59906-0.32781 0.72656-0.44531-0.1875-0.0375-1.6364-0.31836-2.6914-0.31836zm-34.58 0.03906c-0.1075 0.0037-2.2651 0.06875-2.8926 0.09375-0.6125 0.025-3.2285-0.08594-3.2285-0.08594s0.20031 0.76508 0.47656 1.1738c0.205 0.30375 0.61938 0.6625 0.64062 0.6875 0.21 3.4488 0.25047 7.2602 0.23047 10.834-0.165 0.10875-0.44625 0.38656-0.65625 0.69531-0.26375 0.39-0.45656 1.1015-0.47656 1.1777 0.24875-0.22125 0.81867-0.71516 1.1699-0.91016 0.5475-0.30625 1.1113-0.51172 1.1113-0.51172l0.02148-11.896s0.87836-0.15078 1.5371-0.36328c0.82-0.26375 1.6027-0.64828 2.0664-0.89453zm20.93 0c-0.1075 0.0037-2.2651 0.06875-2.8926 0.09375-0.6125 0.025-3.2285-0.08594-3.2285-0.08594s0.19836 0.76508 0.47461 1.1738c0.205 0.30375 0.61938 0.6625 0.64063 0.6875 0.21 3.4488 0.25172 7.2602 0.23047 10.834-0.16375 0.10875-0.44625 0.38656-0.65625 0.69531-0.26375 0.39-0.45461 1.1015-0.47461 1.1777 0.24875-0.22125 0.81867-0.71516 1.1699-0.91016 0.5475-0.30625 1.1113-0.51172 1.1113-0.51172l0.01953-11.896s0.88031-0.15078 1.5391-0.36328c0.82-0.26375 1.6027-0.64828 2.0664-0.89453zm-27.87 0.033c-0.13 0.01125-1.9466 0.18008-3.3691 0.17383-0.585-0.0025-1.5332-0.05078-1.5332-0.05078l-0.1875 0.70508c-0.5475 2.0875-1.5775 5.0265-2.4375 7.459l0.47852 1.3008 3.0215-8.2539s1.2793-0.18375 2.0605-0.4375c0.66-0.215 1.5305-0.66273 1.9668-0.89648zm-32.793 2.5723-0.99609 1.4375c0.31875 1.8262 0.09781 4.159-1.4297 5.7402-1.6475 1.6688-2.8791 2.2929-5.4941 2.1816v-0.0098l-0.91992 0.91992s3.1184 0.22602 4.8672-0.55274c5.9725-2.6588 3.9727-9.7168 3.9727-9.7168zm44.91 1.1328 0.01562 1.9336c1.3138 1.5738 2.0271 2.6123 2.7246 3.5898 0.74375 1.0412 1.4623 2.0217 2.8848 3.4805 1.425 1.46 2.5734 2.0742 2.6934 2.1367-0.27-0.315-0.56625-0.71367-0.8125-1.1699-0.4525-0.84125-0.72656-1.7188-0.72656-1.7188l-6.7793-8.252zm31.861 0 0.0156 1.9336c1.315 1.5738 2.0271 2.6123 2.7246 3.5898 0.7425 1.0412 1.4642 2.0217 2.8867 3.4805 1.425 1.46 2.5721 2.0742 2.6934 2.1367-0.27-0.315-0.5675-0.71367-0.8125-1.1699-0.4525-0.84125-0.72656-1.7188-0.72656-1.7188l-6.7812-8.252zm-61.695 0.19141-0.7793 0.99023c0.33375 0.56875 0.52492 1.2057 0.51367 1.877-0.0325 1.895-1.1873 3.143-2.3086 3.1992-1.335 0.068-2.549-0.396-3.473-1.146l-1.1719 0.33398c1.505 1.4625 4.3125 2.6688 6.4688 0.875 1.4338-1.1925 2.1368-4.0577 0.74805-6.1289zm55.523 0-0.7793 0.99023c0.3325 0.56875 0.52492 1.2057 0.51367 1.877-0.0325 1.895-1.1866 3.143-2.3066 3.1992-1.334 0.068-2.549-0.396-3.474-1.146l-1.1719 0.33398c1.505 1.4625 4.3145 2.6688 6.4707 0.875 1.4338-1.1925 2.1348-4.0577 0.74609-6.1289zm-41.748 1.4297-0.81836 2.2324c0.265 1.5725 0.41188 2.6873 0.60938 4.2285-0.1475 0.12125-0.47438 0.4518-0.73438 0.7793-0.3425 0.43-0.73586 1.1766-0.78711 1.2754 0.455-0.2325 1.0223-0.51172 1.4785-0.69922 0.525-0.21625 1.3672-0.5 1.3672-0.5l-1.1152-7.3164zm-7.5176 0.28906-0.29883 1.7578c0.3725 0.94875 0.57031 1.4354 0.75781 1.9004 0.215 0.53125 1.3984 3.5547 1.3984 3.5547l2.3203 0.88086c-0.26-0.205-0.614-0.505-0.832-0.778-0.254-0.319-0.549-0.887-0.549-0.887l-2.793-6.4277zm49.758 9.877-2.5 1.623-9.7656-1.2383-0.24805 0.88281 10.357 1.1875 2.293-1.4863 3.0664 0.95312-1.9219 1.5156-2.9473-0.38476s-3.5964 1.5081-9.5664 1.8594c-7.9875 0.47-13.646-0.8125-13.646-0.8125s0.0518 0.02039 0.1543 0.05664c2.2462 0.64125 4.7807 1.2162 7.1582 1.4199 6.8712 0.5875 10.194 0.04156 14.941-1.2422l1.1328-0.30469 0.16797-0.05664 2.9473 0.44922 3.5117-2.832-5.1348-1.5898zm-51.564 0.56641v0.09766c0.2025 0.0225 0.22656 0.07984 0.22656 0.15234v3.7871c0 0.07375-0.02406 0.12992-0.22656 0.13867v0.09766l1.543 0.05469v-0.09766c-0.2025-0.02375-0.22656-0.0818-0.22656-0.1543v-2.5527c2.1462 2.4725 2.3477 2.5852 2.3477 2.6914 0 0.05625-0.0393 0.08898-0.18555 0.08398v0.0957l1.543 0.05469v-0.09766c-0.2025-0.02375-0.22656-0.0818-0.22656-0.1543v-3.7871c0-0.07375 0.02406-0.12867 0.22656-0.13867v-0.09766l-1.4863-0.05078v0.09766c0.10625 0.01125 0.16992 0.05289 0.16992 0.15039v2.1699c-0.56875-0.645-1.9746-2.1886-1.9746-2.2773 0-0.04875 0.04102-0.09641 0.22852-0.09766v-0.09961l-1.959-0.06641zm-1.6816 0.18164-1.6738 0.26562v0.09766c0.2025-0.01625 0.22852 0.03758 0.22852 0.11133v2.1777c0 0.62625-0.37539 0.93656-1.0254 1.0391-0.65 0.1025-1.0234-0.08984-1.0234-0.71484v-2.1797c0-0.07375 0.02477-0.13289 0.22852-0.18164v-0.09766l-1.6758 0.26562v0.09766c0.20375-0.015 0.22852 0.03687 0.22852 0.10937v2.1777c0 1.43 0.99844 1.7444 2.2422 1.5469 1.2438-0.19625 2.2441-0.82586 2.2441-2.2559v-2.1797c0-0.0725 0.02406-0.13289 0.22656-0.18164v-0.09766zm8.5723 0.19336v0.09766c0.2025 0.045 0.22852 0.10328 0.22852 0.17578v3.7891c0 0.07375-0.02602 0.12773-0.22852 0.11523v0.0957l1.6738 0.23633v-0.09766c-0.20375-0.045-0.22656-0.10594-0.22656-0.17969v-3.7871c0-0.0725 0.02281-0.12578 0.22656-0.11328v-0.09766l-1.675-0.234zm3 0.40039v0.09766c0.0825 0.02875 0.115 0.07594 0.1875 0.27344 0.17875 0.46625 1.6328 4.1138 1.6328 4.1875 0 0.0325-0.02555 0.05172-0.12305 0.04297v0.0957l1.6758 0.41797v-0.10547c-0.07375-0.01875-0.11328-0.06031-0.11328-0.10156 0-0.11375 1.5516-3.2444 1.6328-3.4844 0.02375-0.0675 0.05609-0.07617 0.12109-0.07617v-0.09766l-1.3965-0.34766v0.09766c0.0975 0.0325 0.12109 0.06164 0.12109 0.11914 0 0.0975-0.12945 0.30008-1.0957 2.2051-1.0162-2.4638-1.1406-2.6889-1.1406-2.7539 0-0.05625 0.03406-0.08164 0.16406-0.05664v-0.09766l-1.668-0.415zm6.0801 1.7031v0.09766c0.20375 0.09 0.22852 0.15602 0.22852 0.22852v3.7871c0 0.07375-0.02477 0.12195-0.22852 0.06445v0.09766l4.0566 1.4766c0.08875 0.0325 0.12148 0.08422 0.14648 0.23047l0.09766 0.03711v-1.416l-0.09766-0.03516c-0.025 0.195-0.05773 0.2232-0.14648 0.18945l-2.6094-0.94727v-0.75781l1.5117 0.55078c0.1625 0.06 0.22039 0.16234 0.24414 0.27734l0.09766 0.0332v-1.2676l-0.09766-0.0332c-0.02375 0.09625-0.08164 0.15445-0.24414 0.0957l-1.5117-0.54883v-0.67578l2.6094 0.95117c0.08875 0.0325 0.12148 0.085 0.14648 0.28125l0.09766 0.03516v-1.4141l-0.09766-0.03711c-0.025 0.17875-0.05773 0.20828-0.14648 0.17578l-4.0566-1.4766zm5.5938 2.1328v0.09766c0.2025 0.08625 0.22656 0.15086 0.22656 0.22461v3.7871c0 0.0725-0.02406 0.12211-0.22656 0.06836v0.09766l1.6738 0.57617v-0.09766c-0.2025-0.0875-0.22852-0.15211-0.22852-0.22461v-1.3652l0.79688 0.27344c0.10625 0.20625 0.9668 1.6255 0.9668 1.6992 0 0.0975-0.06398 0.11524-0.17773 0.08398v0.09766l1.6895 0.58203v-0.09766c-0.089-0.03-0.162-0.094-0.235-0.225l-0.959-1.68c0.67375 0.045 1.1602-0.18484 1.1602-0.93359 0-0.92625-0.51039-1.5238-1.7129-1.9375l-2.9746-1.0254zm1.4453 1.4082 1.3652 0.4707c0.48 0.165 0.62695 0.42586 0.62695 0.66211s-0.14695 0.39547-0.62695 0.23047l-1.3652-0.46875v-0.89453zm-21.828 0.67383c-4.0562-0.0341-6.8163 0.51273-10.377 1.4746l-1.1328 0.30664-0.16602 0.05664-2.9473-0.44922-3.5117 2.832 5.1348 1.5898 2.498-1.625 9.7676 1.2402 0.24609-0.88281-10.355-1.1895-2.2949 1.4863-3.0645-0.95312 1.9219-1.5156 2.9453 0.38476s3.5984-1.5099 9.5684-1.8574c8.0938-0.47 13.646 0.81055 13.646 0.81055s-0.05305-0.02109-0.1543-0.05859c-2.1312-0.68875-4.7807-1.2123-7.1582-1.416-1.7178-0.14688-3.2144-0.22301-4.5664-0.23438zm27.93 0.06836c-0.94985-0.04847-1.5469 0.36524-1.5469 1.0762 0 1.5688 3.3477 1.4925 3.3477 2.0938 0 0.3575-0.36523 0.48945-1.1777 0.3457-0.845-0.14875-1.7148-0.66992-1.7148-0.88867 0-0.07375-0.000625-0.13047 0.01563-0.16797l-0.08008-0.05469-0.60156 1.3398 0.09766 0.04102c0.04875-0.04 0.09711-0.08742 0.16211-0.07617 0.1875 0.0325 0.78898 0.51391 2.1465 0.75391 1.7638 0.31 2.291-0.36961 2.291-1.0684 0-1.8688-3.3652-1.577-3.3652-2.3008 0-0.1875 0.24367-0.33859 0.95117-0.21484 0.76375 0.135 1.6914 0.52672 1.6914 0.73047v0.08984l0.09766 0.06641 0.56055-1.0312-0.08984-0.04883c-0.0575 0.055-0.11445 0.10078-0.2207 0.08203-0.21875-0.03875-1.023-0.52125-2.1367-0.71875-0.14938-0.02625-0.29204-0.0419-0.42774-0.04883zm17.872 0.028-1.545 0.219v0.09766c0.07375-0.01 0.17969-0.01773 0.17969 0.07227 0 0.08125-0.85461 1.3309-0.94336 1.5059-0.26875-0.36875-0.90234-1.158-0.90234-1.248 0-0.08875 0.10562-0.1132 0.20313-0.12695v-0.0957l-1.7871 0.25v0.09766c0.07375-0.01 0.09633 0.01078 0.26758 0.23828l1.5527 2.0098v1.4316c0 0.0725-0.02406 0.13398-0.22656 0.17773v0.0957l1.6738-0.23438v-0.09766c-0.2025 0.0125-0.22852-0.04078-0.22852-0.11328v-1.5859l1.5605-2.4219c0.0575-0.08 0.11281-0.16133 0.19531-0.17383v-0.09766zm-5.9414 0.48242c-0.02375 0.1875-0.05648 0.22992-0.14648 0.23242l-4.0156 0.06836c-0.08875 0.0025-0.12148-0.03641-0.14648-0.22266h-0.09766v1.4473l0.09766-0.002c0.025-0.1875 0.05773-0.22922 0.14648-0.23047l1.3984-0.02539v3.041c0 0.07375-0.02406 0.13039-0.22656 0.15039v0.09766l1.6738-0.0293v-0.09766c-0.20375-0.0125-0.22852-0.06883-0.22852-0.14258v-3.0391l1.3984-0.02539c0.09-0.0025 0.12274 0.04031 0.14648 0.22656l0.09766-0.002v-1.4473h-0.09766zm-7.4453 0.13867v0.09766c0.2025 0.02625 0.22656 0.0857 0.22656 0.1582v3.7871c0 0.07375-0.02406 0.12852-0.22656 0.13477v0.09766l1.6738 0.08789v-0.09766c-0.20375-0.02625-0.22852-0.08445-0.22852-0.1582v-3.7891c0-0.0725 0.02477-0.12656 0.22852-0.13281v-0.09766l-1.6738-0.08789z" fill="#fff"/></g></svg>
