<?xml version="1.0" encoding="UTF-8" standalone="no"?>
<svg xmlns:rdf="http://www.w3.org/1999/02/22-rdf-syntax-ns#" xmlns="http://www.w3.org/2000/svg" xml:space="preserve" height="50.463" width="152.92" version="1.1" xmlns:cc="http://creativecommons.org/ns#" xmlns:dc="http://purl.org/dc/elements/1.1/" viewBox="0 0 152.91656 50.462502"><g><path d="m77.447 1.1094c-2.066 0-4.144 0.5827-5.855 1.2539-0.269-0.6037-0.814-0.9819-1.524-1.0332l-0.201-0.0137-0.185 0.0527c-2.589 0.7537-4.92 2.055-7.178 3.3125l-0.711 0.4473c-0.925 0.66-2.188 1.5641-2.43 2.9141-0.473 2.63 0.132 4.941 1.705 6.502l0.26 0.189c0.914 0.478 1.995 0.631 3.117 0.055 3.402-2.28 6.233-4.006 8.785-5.371 0.322-0.1225 0.628-0.2816 0.934-0.4453 0.048-0.0238 0.091-0.0493 0.139-0.0743l-1.565 4.0856c-2.693 5.077-5.651 11.213-8.256 16.625-1.8 3.738-3.351 6.966-4.511 9.205-0.299 0.588-1.166 4.381 1.879 8.211 0.519 0.655 1.285 1.043 2.05 1.043 0.638 0 1.833-0.277 2.639-2.136 1.089-2.518 2.431-5.012 3.729-7.426 0.905-1.679 1.806-3.36 2.597-4.981 1.688-2.82 3.271-5.406 4.928-7.83-2.899 5.502-5.911 11.426-6.553 13.946l-0.031 0.232c-0.069 2.233 0.095 5.464 2.412 7.818 0.278 0.222 1.014 0.741 1.875 0.741 0.438 0 0.846-0.135 1.18-0.393 1.303-1.012 3.019-4.282 5.125-8.451 0.576-1.144 1.077-2.13 1.392-2.684l0.629-0.998c2.066-3.295 4.177-6.658 6.594-9.844-1.381 2.598-2.767 5.29-3.594 7.126-0.206 0.453-0.426 0.909-0.642 1.363-1.461 3.07-2.974 6.244-2.246 10.027 0.26 2.004 2.019 3.126 3.459 3.854 0.726 0.252 1.473 0.379 2.224 0.379 2.239 0 4.189-1.121 5.912-2.11 0.22-0.126 0.437-0.252 0.653-0.375 0.935 1.275 2.208 2.084 3.63 2.272 3.578 0.336 7.068-1.027 10.008-3.787 2.48 2.352 5.51 3.543 9.03 3.543 3.93-0.003 7.66-1.48 10.28-2.864 2.55 2.245 5.69 3.424 9.15 3.424 3.81 0 7.4-1.449 9.36-2.969 0.19-0.185 4.62-4.561 4.15-8.914-0.14-1.198-1.65-2.094-2.79-1.59-1.11 0.49-1.96 1.662-2.85 2.905-0.61 0.849-1.24 1.715-1.9 2.304 0.7-1.13 1.33-2.421 1.96-3.968 1.31-3.788 0.46-8.094-0.46-10.965-0.25-1.049 0.2-2.067 0.74-3.246 0.23-0.506 0.46-1.011 0.63-1.518l0.07-0.422-0.07-0.293c-0.1-0.517-0.29-1.383-1.16-1.875-1.79-1.007-4.18-1.014-5.5 0.121-2.74 2.335-5.53 6.914-8.23 11.342-1.58 2.598-3.27 5.372-4.87 7.494 1.34-3.151 0.68-6.631 0.1-9.732-0.16-0.83-0.32-1.648-0.46-2.57-0.22-0.82 0.04-1.609 0.33-2.522 0.29-0.88 0.61-1.88 0.5-3.012l-0.03-0.347-0.24-0.262c-0.76-0.861-1.91-1.338-3.25-1.338-0.34 0-0.68 0.03-1.17 0.121-3.08 0.937-4.59 3.394-5.92 5.563-0.54 0.885-1.06 1.721-1.71 2.523l-0.5 0.719c-3.29 4.749-6.7 9.654-11.39 13.725-0.04-0.474 0.05-1.09 0.27-1.569 2.28-5.023 4.67-8.101 6.41-10.349 1.06-1.352 1.89-2.42 2.34-3.469 0.08-0.173 0.41-1.215 0.2-1.985-0.11-0.379-0.32-0.716-0.61-0.998 0.6-0.067 1.11-0.238 1.54-0.517 1.86-1.218 2.51-3.058 1.75-5.098-0.56-1.331-1.97-2.166-3.77-2.228l-0.2-0.006c-1.72 0-3.2 0.841-4.03 2.402-0.47 1.361-0.41 2.56 0.13 3.4 0.25 0.453 0.59 0.821 0.96 1.108-0.87 0.111-1.6 0.45-2.07 0.947-4.63 3.75-8.195 8.639-10.61 14.533-0.189 0.462-0.347 0.934-0.508 1.407-0.252 0.761-0.497 1.488-0.875 2.123-0.255 0.111-0.487 0.201-0.727 0.259 0.73-3.723 2.497-7.155 4.28-10.408 1.286-2.7 4.42-7.562 7.18-11.853 3.78-5.863 5.92-9.2449 6.17-10.574l0.02-0.1411-0.01-0.1426c-0.13-1.7375-1.25-3.0011-2.4-4.1699-1.14-1.0862-3.01-1.4409-4.45-0.8321l-0.17 0.0879c-2.75 1.7676-5.232 3.9277-7.596 6.1778 0.172-0.285 0.339-0.5739 0.511-0.8614 1.05-1.5875-0.194-2.9358-0.791-3.582l-0.277-0.3105c-1.461-1.6451-4.06-2.2455-6.275-1.4805l-0.188 0.084c-2.523 1.445-4.573 3.3977-6.478 5.414 0.245-1.3038 0.249-2.6627-0.309-4.039l-0.084-0.209-0.951-0.9395-0.215-0.164c-1.237-0.7275-2.698-1.0957-4.34-1.0957zm-52.166 0.3301v0.0019c-1.186 0-2.324 0.1671-3.49 0.5371-7.034 3.08-12.434 8.6855-16.057 16.668-1.2912 2.839-7.5271 17.414-3.482 25.358 1.3225 2.588 3.5682 4.219 6.6757 4.855 1.1863 0.24 2.3433 0.364 3.4473 0.364 7.934 0 12.3-6.063 15.18-11.969-0.326 2.601-0.259 5.046 0.433 7.09 0.775 2.287 2.254 3.915 4.395 4.842 0.59 0.256 1.254 0.382 1.965 0.382 3.321 0 7.223-2.9 8.845-4.236 2.207 1.931 4.253 2.871 6.233 2.871 3.346 0 5.456-2.717 6.853-4.514l0.375-0.48c3.369-4.244 1.316-6.168 1.071-6.373l-0.194-0.164-0.25-0.063c-0.178-0.043-0.367-0.064-0.554-0.064-1.498 0-2.653 1.341-3.875 2.762-0.999 1.161-2.233 2.618-3.127 2.351-0.24-0.07-0.467-0.27-0.602-0.508 6.321-4.023 9.992-8.285 11.232-13.117 0.245-1.66 0.758-5.111-2.218-6.887-0.886-0.46-1.851-0.695-2.875-0.695-2.146 0-4.163 0.992-6.08 2.1-0.874 0.585-1.689 1.212-2.45 1.877 5.401-10.149 5.921-18.683 5.131-21.319l-0.088-0.277-0.205-0.1972c-0.702-0.6713-1.707-1.0274-2.91-1.0274-1.076 0-2.265 0.301-3.172 0.8047l-0.164 0.1094c-4.537 3.7237-7.329 8.7205-9.57 12.734-0.257 0.467-0.663 1.208-1.154 2.16 0.097-0.469 0.186-0.941 0.267-1.42 0.043-0.431 0.094-0.867 0.145-1.305 0.214-1.84 0.439-3.743-0.114-5.568-0.232-0.8587-0.84-1.5552-1.81-2.0839 0.164-0.215 0.315-0.4571 0.443-0.7383 0.375-1.0613 0.006-2.1374-1.015-2.9512l-0.18-0.1133c-2.259-1.1587-4.762-1.7968-7.055-1.7968zm0.574 10.612c-0.185 3.251-1.188 6.235-2.24 9.383-0.463 1.381-0.944 2.808-1.32 4.175-1.85 5.225-3.789 10.286-7.037 14.647-0.676 0.671-1.839 1.467-3.061 1.195-1.726-0.881-1.648-2.77-1.33-5.533 0.064-0.557 0.127-1.097 0.147-1.518 0.646-4.745 2.421-9.213 4.146-13.531l0.344-0.902c0.195-0.335 0.366-0.683 0.533-1.026 0.188-0.382 0.371-0.748 0.578-1.086 0.467 0.141 0.972 0.254 1.52 0.254 0.377 0 0.74-0.055 1.086-0.168l0.197-0.091c1.513-0.864 2.568-2.044 3.59-3.18 0.89-0.992 1.742-1.942 2.847-2.619zm26.465 17.256c-0.675 1.314-1.69 2.596-3.015 3.808-0.099 0.078-0.194 0.154-0.293 0.237 0.632-1.305 1.641-2.587 3-3.817l0.308-0.228zm-11.707 4.379c-0.598 1.961-0.878 4.021-0.812 6.138-0.047 0.04-0.099 0.083-0.143 0.125-0.642 0.579-1.441 1.299-2.031 1.299-0.129 0-0.257-0.034-0.397-0.111-0.819-0.45-0.791-2.128-0.689-2.821 1.485-1.543 2.842-3.089 4.072-4.63zm97.597 0.783c-0.1 1.181-0.52 2.613-1.59 4.115-0.25-0.089-0.54-0.18-0.86-0.262 0.94-1.255 1.74-2.553 2.45-3.853zm-19.36 0.316c-0.32 1.025-0.8 2.176-1.42 3.395-0.3-0.143-0.61-0.269-0.92-0.371 0.8-0.979 1.59-1.985 2.34-3.024z" fill="#14213d" transform="matrix(.99999 0 0 .99999 -.00096129 0)"/><path d="m77.166 2.1992c-2.393 0.066-4.878 0.9593-6.816 1.8946l-0.186-0.1133c0.352-0.265 0.32-0.6697 0.49-1.0059-0.077-0.3376-0.277-0.533-0.67-0.5605-2.602 0.7563-4.989 2.1252-7.3 3.414-0.808 0.5875-2.066 1.3863-2.25 2.4063-0.351 1.9436-0.078 4.0706 1.398 5.5386 0.565 0.295 1.414 0.407 2.008 0.112 2.861-1.915 5.871-3.818 9.004-5.4827 0.854-0.3238 1.551-0.9648 2.556-0.9511 0.332 0.0825 0.303 0.4187 0.364 0.6699l-2.067 5.3749c-4.534 8.546-9.915 20.32-12.758 25.809-0.092 0.182-1.038 3.527 1.758 7.043 0.592 0.742 1.949 1.219 2.842-0.846 1.854-4.287 4.339-8.334 6.393-12.535 3.269-5.455 6.57-10.856 11.256-15.668l0.3-0.059c-1.854 3.735-10.142 18.539-11.193 22.666-0.075 2.459 0.215 5.107 2.008 6.938 0.455 0.367 1.209 0.72 1.707 0.336 1.68-1.304 5.015-8.687 6.263-10.854 3.817-6.072 7.575-12.271 13.081-17.463h0.181c-0.258 0.574-5.721 10.312-7.726 14.776-1.565 3.427-3.573 6.756-2.799 10.8 0.184 1.412 1.461 2.307 2.738 2.963 3.392 1.178 6.16-1.173 8.82-2.515 0.64 1.23 1.78 2.421 3.35 2.629 3.962 0.377 7.462-1.635 9.912-4.252 6.4 7.089 15.65 3.036 19.47 0.894 6.26 6.16 14.77 3.178 17.58 1.008 0 0 4.25-4.139 3.83-8.014-0.06-0.52-0.78-0.929-1.27-0.714-2.3 1.012-3.97 7.091-7.79 5.874 1.63-1.817 2.68-3.874 3.53-5.986 1.16-3.331 0.52-7.22-0.49-10.355-0.47-1.943 0.81-3.636 1.4-5.369-0.1-0.475-0.17-1.012-0.67-1.288-1.18-0.669-3.09-1-4.25 0-6.26 5.331-13.18 23.585-18.5 22.663 1.46-1.274 2.51-2.758 3.34-4.368 2.09-3.789 0.51-8.351-0.06-12.308-0.56-2.071 0.99-3.707 0.8-5.707-0.78-0.88-2.04-1.107-3.29-0.895-3.82 1.16-4.87 4.991-7.06 7.662-3.57 5.148-7.19 10.521-12.41 14.944-0.36 0.195-0.93 0.141-1.22-0.168-0.41-0.81-0.26-2.102 0.12-2.965 3.67-8.097 7.66-11.28 8.75-13.801 0.08-0.174 0.25-0.899 0.15-1.262-0.14-0.49-0.68-0.865-1.47-1.054-1.06-0.251-2.33-0.182-3.1 0.617-4.79 3.889-8.14 8.867-10.284 14.099-0.548 1.33-0.82 2.756-1.645 3.975-0.667 0.308-1.351 0.615-2.187 0.559-0.319-0.195-0.382-0.601-0.43-0.951 0.701-3.988 2.511-7.554 4.443-11.081 2.71-5.679 12.833-19.852 13.263-22.16-0.11-1.3731-1.05-2.4335-2.07-3.4685-0.83-0.7975-2.19-1.0746-3.28-0.6133-5.327 3.4263-9.648 8.3638-14.241 12.703 1.947-2.968 3.878-5.8912 5.658-8.9 0.682-1.0337-0.379-1.8729-0.974-2.5742-1.246-1.3987-3.329-1.7889-5.11-1.1739-3.667 2.0976-6.324 5.3691-9.127 8.3381-0.075-0.014-0.197 0.042-0.24-0.057 0.805-2.3082 2.049-4.9237 1.031-7.4412l-0.791-0.7852c-1.232-0.7238-2.634-0.9811-4.07-0.9414zm-51.516 0.332c-0.314-0.0098-0.629-0.0081-0.943 0.0079v0.0019c-0.838 0.0424-1.672 0.1814-2.482 0.4336-7.569 3.3162-12.423 9.3404-15.502 16.121-1.7668 3.882-10.995 25.957 2.4235 28.699 13.198 2.699 17.504-11.22 20.56-18.242 1.462-4.519 3.257-8.899 4.079-13.655 0.197-2.168 0.682-4.433 0.061-6.4918-0.304-1.1175-1.628-1.6657-2.678-1.957 0.473-0.4487 1.051-0.8967 1.34-1.5117 0.244-0.6863-0.107-1.2881-0.67-1.7344-1.805-0.9285-3.986-1.6029-6.188-1.6719zm22.836 0.17c-0.89 0.0311-1.801 0.2921-2.47 0.6621-4.23 3.47-6.864 8.0387-9.311 12.424-4.396 7.873-13.786 28.122-3.891 32.401 3.877 1.676 10.403-4.307 10.403-4.307 7.029 6.733 10.494 1.285 12.588-1.348 2.807-3.536 1.22-4.865 1.22-4.865-2.339-0.572-4.684 5.874-7.603 5.035-0.9-0.258-1.539-1.189-1.52-2.068 4.972-3.065 9.96-7.26 11.375-12.76 0.303-2.041 0.487-4.494-1.644-5.764-2.69-1.398-5.611 0.055-7.848 1.344-6.036 4.043-9.261 10.098-8.881 16.842-1.171 0.994-2.601 2.674-4.199 1.791-1.825-1.004-1.215-4.243-1.154-4.307 14.345-14.756 16.409-30.568 15.269-34.359-0.579-0.5532-1.445-0.7519-2.334-0.7208zm-22 7.8258c0.471-0.03 0.534 0.436 0.489 0.785-0.091 5.248-2.317 9.818-3.655 14.659-1.853 5.232-3.832 10.425-7.297 15.056-1.08 1.075-2.544 1.886-4.201 1.453-3.2243-1.524-2.0527-5.455-1.8865-8.226 0.7135-5.259 2.7235-10.029 4.6265-14.828 0.548-0.951 0.897-1.976 1.643-2.856 0.819 0.279 1.749 0.643 2.674 0.336 3.03-1.736 4.184-5.037 7.607-6.379zm17.639 2.856c-0.547 5.904-3.722 10.937-6.932 15.89-0.215 0.28-0.549 0.589-0.855 0.786 1.235-6.017 4.456-11.445 7.787-16.676zm67.585 1.679c-1.33-0.054-2.56 0.55-3.16 1.668-0.27 0.793-0.43 1.777 0.06 2.53 0.36 0.686 1.16 1.143 1.87 1.396 0.87 0.152 1.96 0.215 2.69-0.265 1.59-1.04 1.85-2.421 1.35-3.766-0.44-1.05-1.66-1.523-2.81-1.563zm-58.271 12.141c0.406 0 0.622 0.322 0.608 0.672-0.641 2.309-2.148 4.337-4.078 6.1-0.865 0.672-1.707 1.664-2.801 1.957 0.241-2.866 2.008-5.301 4.199-7.274 0.683-0.502 1.354-1.05 2.072-1.455zm66.671 3.471c1.05 2.371-1.02 6.728-2.06 8.672l-0.31 0.224c-0.96-0.532-1.92-1.019-3.16-0.894l-0.12-0.114c2.14-2.53 4.23-5.092 5.65-7.888zm18.68 0.277s2.04 4.324-1.82 8.955c0 0-1.59-0.823-3.29-0.728 2.22-2.546 3.72-5.357 5.11-8.227z" transform="matrix(.99999 0 0 .99999 -.00096129 0)" fill="#ce1126"/></g></svg>
