<svg xmlns="http://www.w3.org/2000/svg" width="245" height="140.29" viewBox="0 0 248 140.29">
 <g transform="matrix(1.3333 0 0 -1.3333 -.7 1033.7)">
  <g>
   <path d="m143.99 759.95c-15.707 6.5892-31.465 10.502-46.38 12.625-7.0958 0.92315-14.55 1.4442-22.329 1.4442-19.266 0-40.521-3.1973-63.323-11.422-2.1841-0.78967-4.381-1.6196-6.5892-2.4961-1.1966-0.45192-2.3947-0.91672-3.5977-1.396 0 0 4.0593-0.91833 10-3.6154 8.4499-3.8438 20.718-11.298 30.5-24.838-0.63688-0.0145-1.322-0.0273-2.0393-0.0273-1.1081 0-2.2966 0.0273-3.5157 0.0933-2.2548 0.0884-5.2575 0.3104-7.8581 0.84756-0.50983 0.10776-1.0084 0.22838-1.4844 0.36187 0 0 0.33935-0.84918 1.1355-2.2612 2.4285-4.3199 9.127-13.941 23.447-20.874 0 0-0.60472-0.12705-1.7128-0.23803-0.59828-0.0643-1.3429-0.1174-2.221-0.14796-0.38277-0.0113-0.78967-0.0177-1.2191-0.0177-0.13027 0-0.26537 0-0.39886 3e-3 -1.7305 0.0145-3.8132 0.14796-6.1758 0.505 0.29432-0.30558 0.86687-0.96497 1.7-1.8817 4.619-5.0661 17.458-17.932 38.367-21.697 0.08041-0.0113 0.15922-0.0273 0.24285-0.045 0 0-2.71-0.57416-6.6326-0.77841-0.84274-0.0402-1.737-0.0643-2.673-0.0643-0.89421 0-1.827 0.0209-2.7823 0.0772-0.29914 0.0177-0.6015 0.0402-0.90386 0.0643 0.96819-0.50661 1.9492-0.99071 2.9367-1.4619 0.08685-0.037 0.17048-0.0772 0.25089-0.12063 6.364-3.8904 22.656-11.536 52.44-11.536 5.3315 0 11.092 0.24607 17.305 0.80254 0.2718 0.0241 0.54039 0.0515 0.80897 0.0772 0.4471 0.0402 0.88777 0.0804 1.3333 0.12223h0.01c0.1351 0.0499 0.27019 0.0981 0.41011 0.15762 4.6785 1.8946 11.096 9.7864 17.527 19.38 10.346 15.433 20.732 35.252 23.941 41.508 0.65458 1.2738 1.0116 1.9846 1.0116 1.9846-8.3213 6.7725-16.905 12.453-25.606 17.207-4.7171 2.5604-10.044 5.1739-15.925 7.6587"/>
   <path d="m101.67 744.02c-0.1829 0.00985-0.36994 0.00178-0.55811-0.02636-1.5086-0.22516-2.5458-1.6324-2.3174-3.1377 0.22516-1.507 1.6297-2.5455 3.1318-2.3203 1.5086 0.22516 2.5485 1.6291 2.3218 3.1377-0.19842 1.3172-1.2978 2.2778-2.5781 2.3467zm4.9453-3.4805c-0.07564 0.00406-0.15198 0.00121-0.22998-0.01025-0.6208-0.0901-1.0454-0.66812-0.95215-1.2905 0.0917-0.61758 0.66841-1.0498 1.2876-0.95654 0.62401 0.0965 1.0498 0.67295 0.95654 1.2905-0.08164 0.54601-0.53249 0.93841-1.062 0.96679zm58.251-32.662-3.1699-0.71924-3.293-4.5718-0.54053 3.9434c-6.245 0.6819-10.72-3.1655-10.72-3.1655l-1.9951-5.751s-1.401-3.7644-2.3306-6.8218c-2.7695-9.2106-6.4273-11.482-7.8442-12.031h3.1392c1.3767 0.5243 4.0288 1.7676 5.6001 4.0884 0 0-0.34801-1.3796-0.94629-2.4507h1.5176c0.50822 0.26859 0.98855 0.55898 1.418 0.86133 4.9342 3.4884 19.165 26.618 19.165 26.618z" fill="#fff"/>
   <path d="m71.076 766.97c1.6292-1.8174 2.4616-4.3903 2.5854-4.7827-0.73981 0.0933-16.46 1.9932-30.293-0.31787 0 0-1.6096-0.24386-3.7969-0.76172-0.01287 0-0.02683 1.4e-4 -0.03809-6e-3 -0.61115-0.14474-1.26-0.30519-1.9307-0.49658-2.7389-0.57416-7.0047-1.6698-10.226-3.3633 0 0 7.4174-1.2965 20.268-15.19h5.1064c-1.5054 2.9255-4.4055 9.6371-3.1655 15.913 0.83309-0.15438 1.4453-0.26859 1.7139-0.31201 5.3347-1.1724 16.225-5.0692 20.408-17.657 0 0 1.3593 3.0334 1.3931 7.4385 14.692 6.0793 29.607 9.8917 35.341 2.3906-11.125 4.0609-17.649-2.4833-15.308-9.3281 1.8913 8.0173 12.108 10.01 19.318 1.6553 6.2016-7.1987 16.707-6.2358 16.707-6.2358s-1.2422 1.5935-1.6523 3.3047c0 0 5.4143-2.5917 11.801-1.8647 0 0-0.13407 5.545 14.558 0.39844 0 0-3.6782-3.3318-17.08-4.7197 0 0 1.4251-1.2557 3.7764-1.9907 0 0-14.706-4.0512-24.938-0.78956 0 0 2.4861 1.9919 2.9927 3.769 0 0-8.5694-4.2933-15.237 0.041-5.9989 3.8969-9.5537 2.6719-9.5537 2.6719s4.941-2.0609 5.6631-6.3823c0 0-25.284-4.2362-40.307 4.7139 0 0 4.5296-10.394 18.42-13.172 7.6152 1.0245 18.784 3.7204 35.943-1.3682-5.2221-0.13188-7.5126-3.5606-8.8491-5.0434-8.1299-0.78163-26.187-1.1485-48.28 0.60937 0 0 57.008-11.835 78.363 2.6104-7.7825-9.9907-26.627-10.446-33.173-10.554-0.38438-1.2593-0.41079-4.9894-0.20654-5.3159-3.913-1.2625-19.78-1.984-29.75-2.0918 0 0 46.839-4.5758 65.076 7.9849-1.9428-3.3822-9.8295-12.333-34.066-11.867 4.2475-10.624 15.694-13.124 29.234 0.6416 26.368 23.449 36.404 14.153 38.981 25.551 1.4652 6.4814-10.609 7.3454-9.8276 13.727 0 0 8.7566-2.9433 15.281-0.30175-9e-3 7e-3 -26.335 19.186-65.427 28.95 2.0072-1.8881 3.208-5.2427 3.208-5.2427s-18.876 6.8382-43.033 6.7852zm81.089-35.673c-2.4012-0.93281-4.6452-2.5159-1.7036-3.6079-3.6186-0.81058-5.7656 0.20948-5.7656 0.20948 3.5077 3.2069 7.4692 3.3984 7.4692 3.3984zm12.283-5.6162c-2.3272-0.90225-4.5072-2.4415-1.6509-3.4966-3.5173-0.78967-5.5957 0.20215-5.5957 0.20215 3.4015 3.1136 7.2466 3.2944 7.2466 3.2944zm-10.087-3.9653c-2.8579-1.4442-5.4202-3.6876-1.5571-4.6831-4.4131-1.4539-7.2671-0.44238-7.2671-0.44238 3.8856 4.4131 8.8242 5.1255 8.8242 5.1255z" fill="#d73f09"/>
   <path d="m110.3 683.26c6.2016-3.0879 17.834-3.2391 17.834-3.2391 7.1215 3.3195 7.9707 10.804 7.9707 10.804-11.604-8.7652-25.805-7.5654-25.805-7.5654" fill="#d73f09"/>
  </g>
 </g>
</svg>