<svg xmlns="http://www.w3.org/2000/svg" height="141.14" viewBox="0 0 249.69319 141.13624" width="249.69"><g transform="matrix(1.25 0 0 -1.25 -409.43 516.69)"><g><path d="m75.139 1.123c-4.232-0.0224-8.517 0.0747-10.569 0.3008-6.409 0.7065-14.18 2.3476-20.152 4.2559-21.665 6.9223-38.251 20.785-42.514 35.533-0.3165 1.096-0.6318 2.541-0.6989 3.211-0.28642 2.861 1.2953 6.972 3.6836 9.578 4.8717 5.317 12.538 6.507 17.656 2.74 1.711-1.26 2.883-2.625 4.873-5.674 2.426-3.717 6.879-9.19 7.207-8.859 0.06 0.061 0.046 0.759-0.031 1.551-0.078 0.791-0.024 3.332 0.121 5.646 0.523 8.385 1.194 21.646 2.06 40.748 0.487 10.716 0.981 21.186 1.098 23.256s0.277 5.2 0.354 6.97c0.247 5.68 1.07 8.81 3.048 11.58 1.4 1.96 2.253 2.65 4.866 3.91 2.68 1.29 4.945 2.06 7.998 2.72 2.956 0.63 9.086 0.7 11.679 0.12 3.219-0.71 6.137-1.94 8.09-3.4 1.109-0.83 2.871-3.67 3.537-5.69 0.571-1.74 0.603-2.08 0.7-7.36 0.084-4.6-0.001-8.73-0.489-23.672l-0.021-0.647 2.769-0.398c11.401-1.643 22.736-6.275 31.386-12.82l1.5-1.137 0.07 6.053c0.1 9.864-0.46 13.921-2.52 17.901-2.42 4.68-4.62 5.56-10.895 4.34-1.614-0.32-3.48-0.58-4.144-0.58-2.672 0-5.098 1.59-6.365 4.16-0.715 1.45-0.728 1.53-0.725 4.47 0.003 2.84 0.041 3.09 0.691 4.7 1.932 4.79 6.852 9.06 13.428 11.68 2.26 0.9 5.51 1.74 7.38 1.91 4.25 0.4 10.28-1.46 15.01-4.64 0.84-0.56 1.59-1.02 1.66-1.02 0.08 0.01 0.79 0.56 1.58 1.24 3.76 3.21 8.05 5.32 12.55 6.17 2.67 0.51 7.33 0.32 10.15-0.41 3.9-1.02 7.9-3.26 11.56-6.48l1.3-1.14 1.21 1c1.76 1.47 3.4 2.54 5.47 3.58 9.53 4.79 20.24 3.02 28.54-4.71l1.74-1.62 1.4 1.19c11.35 9.63 26.63 9.08 37.43-1.34 1.94-1.87 4.27-4.61 5.51-6.45 3.65-5.45 4.54-11.27 2.4-15.78-2.36-4.96-7.88-6.76-12.85-4.18-1.32 0.68-2.68 1.94-6.1 5.6-1.78 1.91-2.84 2.62-3.55 2.4-0.6-0.19-1.24-1.53-1.76-3.7-0.39-1.65-0.44-2.62-0.44-9.694 0-4.324 0.06-8.964 0.14-10.314l0.14-2.455 2.13 0.951c2.99 1.339 4.6 1.712 6.81 1.574 3.23-0.201 5.19-1.506 6.93-4.631 2.77-4.971 3.44-11.997 1.53-15.906-1.5-3.057-9.13-9.641-14.11-12.17l-0.97-0.492 0.12-1.254c0.07-0.69 0.25-3.845 0.4-7.012 0.26-5.672 0.26-5.783-0.22-7.521-0.66-2.378-1.64-4.132-3.13-5.627-2.14-2.142-4.77-3.127-8.33-3.127-3.54 0-6.87 0.865-11.15 2.904-2.24 1.066-6.51 3.771-7.84 4.971l-0.65 0.578 0.14 6.256 0.13 6.256-2.26 0.394c-1.24 0.217-3.43 0.683-4.87 1.034s-2.72 0.636-2.85 0.636c-0.16 0-0.19-1.356-0.08-4.373 0.15-4.521-0.11-9.87-0.55-11.029-0.92-2.476-4.08-4.825-7.75-5.764-2.11-0.541-6.08-0.336-8.74 0.451-4.6 1.359-9.57 4.319-13.32 7.936-2.13 2.05-2.29 2.266-2.19 2.902 0.16 0.93 1.17 12.279 1.36 15.248 0.08 1.31 0.08 2.381 0 2.381-0.09 0-0.87-0.391-1.75-0.867-2.93-1.591-5.4-1.687-8.14-0.316-1.94 0.971-3.75 2.881-4.42 4.664-0.29 0.77-0.53 2.059-0.6 3.234-0.12 1.855-0.16 1.948-0.6 1.818-3.33-0.978-3.88-1.059-7.81-1.168l-4.03-0.111 0.96-1.91c1.82-3.633 3.23-8.069 3.92-12.32 0.38-2.345 0.38-10.02-0.01-12.733-1.41-9.954-5.74-18.466-12.91-25.371-8.1-7.7999-18.924-12.522-33.063-14.42-1.838-0.2466-6.017-0.3875-10.248-0.41zm-5.268 27.809c2.203 0.036 4.3 0.149 5.301 0.324 10.124 1.765 18.674 8.958 21.189 17.826 0.678 2.388 0.833 6.674 0.328 8.996-1.026 4.724-4.24 8.662-9.093 11.145-2.161 1.105-5.074 2.073-8.002 2.66-1.237 0.248-2.486 0.451-2.776 0.451h-0.527l-0.391-7.252c-0.759-14.107-1.215-18.903-2.15-22.59-1.176-4.638-3.888-7.715-8.924-10.129l-2.4-1.152 1.513-0.143c1.421-0.134 3.729-0.173 5.932-0.136zm126.35 49.371v7.254c0 3.99-0.1 8.359-0.22 9.709-0.51 5.734-2.58 10.584-5.26 12.284-1.55 0.99-2.33 0.9-3.59-0.41-1.11-1.15-1.78-2.64-2.34-5.25-0.4-1.84-0.73-11.886-0.59-17.964l0.09-4.014 2.8-0.471c2.61-0.436 4.71-0.709 7.84-1.015l1.27-0.123zm-52.07 4l1.73 0.867c2.1 1.047 4.38 1.693 7.05 1.994 1.1 0.124 2.08 0.227 2.18 0.227 0.22 0.002 0.01 7.49-0.32 11.961-0.65 8.638-2.2 14.058-4.66 16.268-0.47 0.43-1.01 0.78-1.2 0.78-0.89 0-2.41-2.25-3.28-4.87-1.22-3.68-1.32-4.78-1.41-16.436l-0.09-10.791z" transform="matrix(.8 0 0 -.8 327.54 413.35)" fill="#ffb81c"/><path d="m77.436 5.2578c-4.748-0.0635-11.008 0.1815-14.305 0.625-18.934 2.5469-35.874 10.003-46.811 20.601-5.208 5.048-8.372 9.756-10.08 15-0.867 2.663-0.999 3.627-0.6795 4.995 1.2167 5.207 6.4435 8.938 11.394 8.132 2.581-0.42 4.246-1.792 6.694-5.519 0.926-1.41 2.286-3.358 3.024-4.328 6.888-9.064 16.517-15.505 27.353-18.299 7.149-1.843 15.719-2.391 22.063-1.41 6.476 1.001 12.615 4.185 17.215 8.927 3.945 4.068 6.419 8.628 7.607 14.022 0.47 2.138 0.49 6.642 0.03 8.715-2.335 10.612-11.888 17.146-26.571 18.176l-2.16 0.15v-0.75c-0.002-1.123-1.065-19.772-1.33-23.338-0.495-6.659-1.251-10.44-2.469-12.344-1.395-2.181-4.094-4.086-7.494-5.291-1.332-0.472-1.788-0.509-6.09-0.502-4.083 0.008-4.866 0.069-6.41 0.494-3.814 1.051-7.164 3.386-8.359 5.827-0.732 1.495-1.286 4.141-1.286 6.142 0 0.848 0.147 3.967 0.327 6.93 0.577 9.501 0.983 17.575 1.881 37.387 1.408 31.07 1.606 34.44 2.13 36.42 0.439 1.65 1.031 2.84 2.043 4.08 1.391 1.72 6.449 3.8 11.114 4.57 2.635 0.44 7.314 0.28 9.632-0.31 0.975-0.26 2.612-0.89 3.639-1.41 2.07-1.04 2.857-1.94 3.82-4.32l0.514-1.27-0.047-10.41c-0.026-5.73-0.175-13.22-0.332-16.65l-0.285-6.247 1.439-0.131c8.254-0.744 13.599-1.936 20.042-4.471 15.122-5.951 26.962-17.416 31.092-30.123 2.31-7.09 2.33-15.86 0.05-23.541-3.8-12.843-13.87-22.543-28.275-27.234-5.085-1.6559-9.877-2.5893-16.041-3.1253-1.081-0.0939-2.496-0.1487-4.078-0.1699zm136.72 29.324c-2.59 0.011-2.92 0.064-5.12 0.816-2.79 0.951-5.83 2.435-8.24 4.014l-1.73 1.137 0.16 7.254 0.16 7.252h-0.62c-2.28 0-8.6 1.295-14.25 2.92-2.11 0.607-3.86 1.07-3.89 1.029s0.01-3.164 0.1-6.94c0.17-7.204 0.01-12.309-0.4-13.087-0.35-0.645-1.6-1.559-3.1-2.262-1.17-0.548-1.49-0.593-4.04-0.588-2.54 0.006-2.94 0.066-4.87 0.732-3.63 1.252-7.36 3.497-10 6.016l-1.51 1.439 0.42 4.43c0.72 7.469 1.39 16.712 1.25 17.088-0.12 0.302-0.41 0.337-1.96 0.232-2.08-0.141-3.91-0.719-5.77-1.828-2.51-1.495-4.1-1.488-5.87 0.028-1.56 1.341-1.7 1.759-1.68 5.295 0.01 3.224 0.28 4.791 1.21 6.935 0.35 0.825 0.74 1.246 1.83 1.975 2.82 1.899 5.42 2.573 9.94 2.582l3.03 0.006 0.16 1.89c0.21 2.461-0.24 14.329-0.69 18.173-0.92 7.85-2.54 12.45-5.4 15.29-2.31 2.31-4.19 2.74-6.64 1.51-2.21-1.1-3.99-3.75-5.2-7.73-1.22-4.03-1.27-4.71-1.47-18.376-0.22-15.91-0.34-16.879-2.19-17.816-2.14-1.086-3.58-1.324-7.99-1.332-4.56-0.007-6.4 0.287-8.76 1.402-1.36 0.641-2.75 1.965-2.77 2.641-0.01 0.209-0.11 0.928-0.23 1.598-0.11 0.67-0.3 5.801-0.4 11.404-0.21 11.069-0.37 12.639-1.59 16.329-1.69 5.12-4.06 8.18-7.65 9.86-1.21 0.56-1.5 0.61-4.18 0.61-2.16 0-3.51-0.13-5.415-0.53-1.466-0.3-2.899-0.47-3.399-0.4-1.8 0.24-2.71 1.95-2.546 4.77 0.3 5.19 5.192 9.97 12.8 12.5 1.28 0.43 3.09 0.9 4.02 1.05 4.64 0.74 11.14-1.7 16.1-6.04l1.41-1.23 2.25 2.26c3.84 3.85 7.73 6.05 12.2 6.89 4.53 0.84 9.66-0.1 13.76-2.51 2.31-1.36 5-3.63 6.77-5.71 0.87-1.02 1.6-1.86 1.61-1.86s1.13 1.07 2.48 2.38c3.9 3.79 7.63 5.79 12.29 6.61 3.52 0.61 7.35 0.12 11.03-1.43 3.26-1.37 7.46-4.71 9.86-7.86 0.61-0.8 1.19-1.46 1.28-1.46 0.09-0.01 0.93 0.79 1.87 1.77 2.07 2.17 3.93 3.68 6.29 5.09 6.53 3.93 14.72 4.25 21.59 0.84 5.79-2.87 12.17-10.01 13.73-15.35 0.52-1.8 0.52-4.54-0.01-6.08-0.93-2.74-3.74-4.2-6.35-3.3-1.39 0.48-2.37 1.26-4.29 3.44-4.48 5.09-7.64 6.74-10.31 5.38-1.72-0.88-3.31-3.89-4.09-7.75-0.32-1.59-0.38-3.08-0.35-9.742 0.03-7.639 0.36-19.236 0.55-19.422 0.05-0.05 1.98 0.855 4.3 2.014 5.28 2.643 6.56 3.097 8.39 2.953s2.46-0.641 3.59-2.806c1.36-2.612 1.85-4.675 1.87-7.873 0.02-2.541-0.01-2.711-0.63-3.84-1.56-2.835-8.86-8.685-13.69-10.965l-1.94-0.92 0.12-1.328c0.29-3.211 0.59-9.168 0.63-12.416l0.04-3.528-0.69-1.459c-0.81-1.717-1.97-2.954-3.38-3.607-0.87-0.402-1.42-0.469-3.79-0.459zm-13.73 39.447v9.614c0 9.958-0.17 13.143-0.88 16.377-1.2 5.5-4.05 9.96-7.43 11.6-0.99 0.48-1.72 0.66-2.87 0.71-2.05 0.09-3.13-0.32-4.78-1.85-2.28-2.12-3.67-5.62-4.21-10.648-0.27-2.474-0.38-22.976-0.12-23.228 0.23-0.231 4.91-1.147 8.89-1.737 2.16-0.321 5.38-0.619 7.58-0.699l3.82-0.139z" transform="matrix(.8 0 0 -.8 327.54 413.35)" fill="#003594"/></g></g></svg>
