<?xml version="1.0" encoding="UTF-8" standalone="no"?>
<svg xmlns:rdf="http://www.w3.org/1999/02/22-rdf-syntax-ns#" xmlns="http://www.w3.org/2000/svg" xml:space="preserve" height="161.62" viewBox="0 0 134.74617 161.61533" width="134.75" version="1.1" xmlns:cc="http://creativecommons.org/ns#" xmlns:dc="http://purl.org/dc/elements/1.1/"><g transform="matrix(1.25 0 0 -1.25 -590.3 607.22)"><g transform="matrix(.5 0 0 .5 263.37 210.87)"><path d="m569.51 545.52-28.25-17.98-28.26-18.73c-4.451-2.97-6.7972-5.4735-9.3062-9.7375-3.339-5.681-3.7891-17.043-3.7891-17.231v-56.186s-0.26057-56.187-0.30157-56.75c-0.17-2.216 0.0934-9.3688-9.0766-15.969 0.594 0.427 8.4246 1.1357 14.502 3.9797 3.199 1.253 15.902 7.1052 23.948 15.767 5.333 4.323 5.7594 11.377 5.7594 13.197l-0.0282 16.177 0.34531 10.861c1.379 0 2.673-0.27931 3.875-0.79531 2.041-1.014 5.1691-3.7427 6.2031-5.8047 3.656-5.675 7.2135-18.116 8.0125-23.036 0.519-2.202 3.9638-23.084 4.0078-23.555 0.045-0.468 0.82969-6.5755 1.6797-10.112 1.335-5.552 2.4446-9.0042 2.6156-9.1922l-3.65-3.1688c-1.724 0.564-3.4491 1.1242-5.1281 1.7312 1.017-0.365-24.392 9.8547-38.294 10.63-9.374 0.522-14.784-0.54738-20.328-1.6844-23.143-5.917-43.276-25.972-53.005-40.5-2.561-3.186-5.2344-8.7578-5.2344-8.7578s17.726 11.363 30.934 14.784c8.774 2.274 23.784 3.8677 38.675-0.64531 9.498-2.585 30.672-14.889 30.672-14.889l15.969 22.022s11.946 15.474 12.373 14.108c2.007-6.419 6.0586-19.598 14.041-26.017 12.549-10.085 24.122-8.2375 24.122-8.2375s6.7904 12.676 9.9344 18.473c2.789 5.145 12.809 21.23 12.809 21.23-7.262-3.858-10.929-5.0329-15.302-3.3219-4.817 1.891-6.0156 4.2984-9.0266 11.298-0.72 1.673-9.9062 37.364-10.131 38.098-2.844 9.301-8.3889 25.686-16.886 34.836-1.472 1.584-9.3539 9.3971-11.372 7.8641 13.755 10.441 22.518 22.059 24.205 24.777 9.658 15.556 12.16 36.064 10.945 44.145-0.028 0.185 0.78805 34.809-28.261 48.323zm-46.114-2.6562c0.177 0.181-8.4976-9.5564-16.552-11.134-12.863-3.154-35.375 6.5007-38.922 7.5797-4.205 1.277-10.629 2.0479-13.183 2.0719-3.199 0.031-25.854 1.0938-32.627-31.867-0.516-2.295-0.775-8.5703-0.775-8.5703v-2.2469c0.689 0.748 8.0427 10.164 14.205 11.847 8.173 2.236 16.871-1.5597 16.786-1.5297 6.244-2.359 16.135-6.685 27.247-6.05 15.089 0.861 22.825 7.5297 26.355 10.08 9.149 6.757 17.466 29.82 17.466 29.82zm27.812-20.869c17.489-7.282 17.916-37.201 18.342-42.548 0.427-7.395 0.31837-6.4831-0.34063-11.089-3.499-38.741-33.924-52.85-34.214-46.933-0.287 5.917-0.28751 42.625-0.28751 42.625l0.28751 42.927c2.741 8.269 16.212 15.019 16.212 15.019zm-58.541-23.298-20.484-8.4125c-0.806-0.308-17.444-6.1319-17.444-19.236 0-4.261-0.00096-3.1451 0.13906-30.414 0-0.13-8.6575-0.37344-11.488-0.37344-6.486 0-14.4 0.0482-18.347-9.5078-2.885-6.989-2.9866-20.479 0.74844-28.444 3.479-7.42 7.1656-8.5297 7.1656-8.5297s-3.4342 10.246 13.533 9.5875c0.43 0.024 8.2484-0.0234 8.2484-0.0234v-55.772c0-10.352-6.7631-13.971-6.8141-14.025 0.355 0.402 12.157 5.4581 28.892 19.439 12.798 10.69 11.027 24.16 11.027 24.347v48.883 48.881c0-1.912 0.27306 7.4712 0.68906 9.7422 1.352 7.692 3.9644 13.298 4.1344 13.858z" fill="#00205b"/></g></g></svg>
