<?xml version="1.0" encoding="UTF-8" standalone="no"?>
<svg xmlns:rdf="http://www.w3.org/1999/02/22-rdf-syntax-ns#" xmlns="http://www.w3.org/2000/svg" xml:space="preserve" height="55.654" viewBox="0 0 252 55.654159" width="252" version="1.1" xmlns:cc="http://creativecommons.org/ns#" xmlns:dc="http://purl.org/dc/elements/1.1/"><g transform="matrix(1.25 0 0 -1.25 -190.38 710.1)"><g transform="matrix(3.8254 0 0 3.8254 -712.09 -1539.1)" stroke-width="0.1"><path d="m5.6602 0.55078c-0.565 0-0.97516 0.025703-1.2227 0.095703-0.41375 0.11-0.70125 0.35922-0.84375 0.73047l-1.0918 2.8691c-0.205 0.5375 0.27281 0.79883 1.4453 0.79883h2.1094l-1.0918 2.8691h-2.8164l-1.459 0.82812h4.209c1.1575 0 1.8408-0.27688 2.0508-0.82812l1.0938-2.8691c0.2049-0.5375-0.273-0.7988-1.4318-0.7988h-2.125l1.0938-2.8691h2.9062l1.291-0.82617h-4.1172zm5.1798 2.1387c-0.4175 0-0.71156 0.022266-0.88281 0.072266-0.32125 0.0925-0.52977 0.26602-0.63477 0.54102l-1.8419 4.83c-0.1563 0.4088 0.1945 0.6113 1.0507 0.6113h1.7441c0.3875 0 0.66976-0.019063 0.85352-0.070312 0.35-0.09125 0.56883-0.26477 0.67383-0.54102l1.8398-4.8301c0.1025-0.26625 0.04617-0.44-0.17383-0.53125-0.13375-0.05125-0.42797-0.082031-0.88672-0.082031h-1.7422zm3.5781 0-2.0762 5.4434c-0.04375 0.1125 0.01766 0.22492 0.16016 0.35742 0.19 0.17375 0.49484 0.25391 0.90234 0.25391h1.7422c0.85625 0 1.3613-0.20258 1.5176-0.61133l2.0742-5.4434h-1.4688l-2.0723 5.4434h-1.3867l2.0742-5.4434h-1.4668zm4.748 0-0.23242 0.61328 1.0293-0.00391-2.084 5.4453h1.4668l2.0977-5.4453 0.98438 0.00391 0.23438-0.61328h-3.4961zm4.0566 0-2.3086 6.0547h1.4688l1.041-2.7324h1.3867l-1.043 2.7324h1.4688l2.3066-6.0547h-1.4668l-1.041 2.7324h-1.3848l1.0391-2.7324h-1.4668zm-12.426 0.5917l1.3789 0.021484-1.8418 4.8301h-1.3848l1.8477-4.8516zm50.916 6.3887c-0.3575 0-0.66562 0.062344-0.92188 0.18359-0.25625 0.12125-0.45219 0.29172-0.58594 0.51172-0.135 0.22-0.20117 0.46227-0.20117 0.72852 0 0.29125 0.08164 0.5418 0.24414 0.74805 0.16375 0.2075 0.55297 0.43273 1.168 0.67773 0.2675 0.1075 0.43516 0.20195 0.50391 0.2832 0.06875 0.08 0.10547 0.16672 0.10547 0.26172 0 0.12625-0.05656 0.24109-0.16406 0.33984-0.1075 0.1-0.2625 0.14844-0.46875 0.14844-0.20375 0-0.36352-0.05969-0.47852-0.17969-0.11625-0.11875-0.17383-0.32258-0.17383-0.61133l-1.2148 0.08984v0.10742c0 0.44375 0.13852 0.80734 0.41602 1.0898 0.27875 0.28375 0.74906 0.42578 1.4141 0.42578 0.47125 0 0.8375-0.07656 1.0938-0.22656 0.25625-0.15125 0.45164-0.34438 0.58789-0.57812 0.135-0.2325 0.20312-0.48391 0.20312-0.75391 0-0.2875-0.06125-0.5282-0.1875-0.7207-0.125-0.19125-0.28883-0.34875-0.48633-0.46875-0.19875-0.12-0.45648-0.24781-0.77148-0.38281-0.25-0.10375-0.40711-0.18836-0.47461-0.25586-0.06625-0.06625-0.09961-0.13524-0.09961-0.20898 0-0.10125 0.04125-0.18922 0.125-0.26172 0.0825-0.07375 0.20172-0.10938 0.35547-0.10938 0.37875 0 0.58117 0.20102 0.60742 0.60352l1.2129-0.07227c-0.0725-0.9125-0.67484-1.3691-1.8086-1.3691zm-18.133 0.00195c-0.50625 0-0.95445 0.11883-1.3457 0.36133-0.39125 0.24125-0.69516 0.58203-0.91016 1.0195-0.215 0.4375-0.32227 0.91766-0.32227 1.4414 0 0.6275 0.16836 1.1147 0.50586 1.4609 0.33875 0.34625 0.79484 0.51953 1.3711 0.51953 0.64 0 1.2862-0.18031 1.9375-0.53906l0.41992-2.1836h-1.9531l-0.1875 0.9707h0.79102l-0.0957 0.49805c-0.20125 0.1525-0.43562 0.22656-0.70312 0.22656h-0.0098c-0.23375 0-0.42883-0.08672-0.58008-0.26172-0.15125-0.17375-0.22656-0.38898-0.22656-0.64648 0-0.44625 0.10289-0.86461 0.30664-1.2559 0.20375-0.39125 0.47938-0.58594 0.82812-0.58594 0.35625 0 0.59273 0.18328 0.70898 0.55078l1.274-0.154c-0.215-0.949-0.818-1.4221-1.809-1.4221zm-8.1816 0.074219-0.55078 2.8359c-0.03625 0.19375-0.07102 0.34297-0.10352 0.44922-0.03375 0.105-0.08555 0.19227-0.1543 0.25977-0.0675 0.06875-0.16391 0.10156-0.28516 0.10156-0.25375 0-0.38086-0.12781-0.38086-0.38281v-0.09961c0-0.06 0.0042-0.12094 0.01172-0.17969v-0.05274l-1.2227 0.1543c-0.01875 0.13125-0.0293 0.23992-0.0293 0.32617 0 0.30375 0.05672 0.54672 0.16797 0.73047 0.11125 0.1825 0.25328 0.31594 0.42578 0.39844 0.1725 0.08125 0.34367 0.13234 0.51367 0.15234 0.16875 0.02 0.35484 0.03125 0.55859 0.03125 0.5075 0 0.89391-0.11344 1.1602-0.33594 0.2675-0.2225 0.46219-0.65297 0.58594-1.293 0.005-0.04875 0.01344-0.08422 0.02344-0.10547l0.58008-2.9902h-1.3008zm3.209 0-2.3652 4.6445h1.3926l0.32617-0.75977h1.3652l0.05859 0.75977h1.2676l-0.66602-4.6445h-1.3789zm7.8906 0-0.43164 2.25c-0.05125 0.26375-0.07813 0.54008-0.07813 0.83008 0 0.22875 0.03531 0.44188 0.10156 0.64062 0.06625 0.2 0.17211 0.37891 0.31836 0.53516 0.14625 0.155 0.32922 0.27281 0.54297 0.35156 0.21375 0.0775 0.49867 0.11719 0.85742 0.11719 0.645 0 1.1327-0.15695 1.459-0.4707 0.32875-0.31375 0.55609-0.79812 0.68359-1.4531l0.54297-2.8008h-1.3047l-0.47852 2.5352c-0.07625 0.40125-0.18703 0.67055-0.33203 0.81055-0.14625 0.14-0.3218 0.20898-0.5293 0.20898-0.3925 0-0.58984-0.18328-0.58984-0.55078 0-0.1375 0.01266-0.26812 0.03516-0.39062l0.50195-2.6133h-1.2988zm5.8027 0-2.3652 4.6445h1.3926l0.32617-0.75977h1.3652l0.05859 0.75977h1.2676l-0.66602-4.6445h-1.3789zm3.4043 0-0.88672 4.6445h1.2988l0.35742-1.8887h0.06836c0.11 0 0.2057 0.03195 0.2832 0.0957 0.07875 0.06375 0.19461 0.29461 0.34961 0.69336 0.15625 0.3975 0.2893 0.76461 0.4043 1.0996h1.3672c-0.365-1.0638-0.67891-1.7149-0.94141-1.9512 0.44375-0.07625 0.76625-0.25023 0.96875-0.52148s0.30274-0.58938 0.30274-0.95312c0-0.335-0.09516-0.62258-0.28516-0.86133-0.19-0.2382-0.491-0.3569-0.903-0.3569h-2.3828zm1.1172 0.94141h0.6582c0.23625 0 0.38898 0.03211 0.45898 0.09961 0.07125 0.0675 0.10547 0.1618 0.10547 0.2793 0 0.09375-0.02789 0.19102-0.08789 0.29102-0.05875 0.10125-0.14828 0.17164-0.26953 0.21289-0.12 0.0425-0.38758 0.06445-0.79883 0.06445h-0.24609l0.17969-0.94727zm-17.719 0.26562h0.01172l0.12891 1.6914h-0.85938l0.71875-1.6914zm13.693 0h0.01172l0.12891 1.6914h-0.85938l0.71875-1.6914z" transform="matrix(.8 0 0 -.8 225.76 551.02)" stroke="#bf0d3e" fill="#bf0d3e"/><path d="m31.068 0.54883c-1.1725 0-1.8464 0.24984-2.0352 0.74609l-2.8398 7.4473h1.9863l1.4082-3.6973h1.877l-1.4102 3.6973h1.9863l2.8379-7.4473c0.189-0.49623-0.296-0.74607-1.467-0.74607h-2.3438zm-0.05469 0.75977h1.875l-1.1055 2.8965h-1.875l1.1055-2.8965zm12.965 1.3711-2.3105 6.0645h3.0059c0.8775 0 1.3938-0.20258 1.5488-0.61133l0.73-1.9161c0.051-0.1325 0.047-0.2542-0.015-0.3555-0.058-0.0925-0.161-0.1445-0.293-0.1445 0.1325 0 0.25992-0.038828 0.38867-0.11133 0.13-0.07125 0.21547-0.16266 0.26172-0.28516l0.77344-2.0273c0.15625-0.40875-0.19453-0.61328-1.0508-0.61328h-3.0391zm-3.8809 0.00586c-0.8675 0-1.3639 0.18328-1.5039 0.55078l-2.0996 5.5039h1.4688l1.041-2.7324h1.3867l-1.041 2.7324h1.4668l2.0996-5.5039c0.13875-0.3675-0.21969-0.55078-1.0859-0.55078h-1.7324zm-5.0508 0.00391-2.3066 6.0547h3.3535l0.23242-0.61133h-1.875l2.0762-5.4434h-1.4805zm18.887 0-2.3086 6.0547h1.4688l1.6406-4.0723-0.28516 4.0723h1.5391l2.5898-3.7383-1.2461 3.7383h1.4688l2.3086-6.0547h-2.3555l-2.707 3.7539 0.10938-3.7539h-2.2227zm-3.8379 0.00586c-0.8675 0-1.3639 0.18133-1.5039 0.54883l-2.099 5.5058h1.4688l1.041-2.7324h1.3867l-1.04 2.7324h1.4668l2.0977-5.5059c0.14-0.3675-0.21773-0.54883-1.084-0.54883h-1.7324zm12.861 0c-0.8675 0-1.3659 0.18133-1.5059 0.54883l-2.098 5.5058h1.4688l1.041-2.7324h1.3867l-1.041 2.7324h1.4688l2.0977-5.5059c0.14-0.3675-0.21774-0.54883-1.084-0.54883h-1.7324zm-22.9 0.55078h1.3867l-0.81641 2.1406h-1.3867l0.81641-2.1406zm9.998 0.00977h1.3867l-0.81641 2.1406h-1.3867l0.81641-2.1406zm12.859 0h1.3867l-0.81641 2.1406h-1.3848l0.81445-2.1406zm-17.699 0.037109h1.3867l-0.81055 2.1172h-1.3848l0.80859-2.1172zm-1.0059 2.6387h1.3848l-0.83789 2.2012h-1.3867l0.83984-2.2012zm-43.129 4.1484 1.8184 1.0742h30.285l0.0059-1.0742h-32.109z" transform="matrix(.8 0 0 -.8 225.76 551.02)" stroke="#00205b" fill="#001f5b"/></g></g></svg>
