<svg xmlns="http://www.w3.org/2000/svg" height="241.71" width="207" viewBox="0 0 207 241.71">
 <g transform="matrix(1.3333 0 0 -1.3333 -52.5 2843.9)">
  <g>
   <path transform="matrix(1.663 0 0 1.663 188.68 2001.7)" d="m3.108 5.684c-0.335 4.403-2.716 9.437-6.173 13.182-2.484 11.702-6.368 17.152-26.167 25.967-24.157 10.458-31.469 13.009-41.261 33.727-1.033-12.121 2.33-18.192 2.449-18.401 0 0-2.769 1.635-5.009 4.854 1.28-8.142 7.39-11.524 7.39-11.524 2.898-9.03 7.007-13.249 7.007-13.249-26.277-8.969-29.155-40.821-29.155-40.821s8.375 11.369 22.58 13.64c-21.985-7.427-24.062-30.994-24.062-30.994s10.384 13.072 33.026 10.83c-0.147 0.134 5.131 7.886 11.399 10.183 0 0-5.882-5.479-8.876-10.793 0 0 5.265-0.926 7.383-1.555 2.122-0.63 7.629-2.344 7.339-5.512-0.461-4.995-10.453-6.729-10.483-6.602 6.779-4.648 13.87-2.577 13.946-2.474-1.049-2.366-8.103-3.982-8.103-3.982s20.726-7.892 22.278 10.225c5.519 4.008 4.872 10.019 4.872 10.019s-2.614-3.654-7.693-2.962c-1.632 0.225-9.06 5.352-6.751 10.014 0.768 1.548 6.462 5.149 14.28 4.068 3.53-0.629 5.094-5.992 5.062-6.195-0.519-3.239-4.031-8.711-4.031-8.711s4.11-0.484 9.086 3.547c1.901-0.759 2.268-1.303 3.549-0.445 2.421 1.618 3.03 5.427 3.239 5.859 1.183 0.639 3.296 2.648 2.879 8.105" fill="#6a5638"/>
   <path transform="matrix(1.663 0 0 1.663 170.48 2032.4)" d="m-54.98 47.733s0.27749-15.456 10.206-27.421c-0.227-0.054-0.4504-0.10924-0.6624-0.16824-0.051 0.04-15.951-2.3519-24.588-30.106 0 0 7.564 9.7651 35.111 7.1341-9.895 0.941-30.605-5.6609-36.988-25.752 0 0 6.8445 7.1723 24.608 5.7423 2.202 3.282 9.0055 9.8107 20.793 11.928 0 0-6.6873-3.8923-11.324-13.394-0.19 0.017 2.1108-0.41191 5.1468-1.5089 0 0 14.668-5.0672 2.0718-14.674 0 0 7.7209-0.94577 9.5599 3.1922 2.336-3.516-2.2883-6.9729-3.4133-7.6899 14.912-1.026 12.266 9.9228 12.266 9.9228 3.009 1.355 4.6826 5.922 4.6826 5.922-3.511-2.66-6.4686-1.667-7.6996-1.235-1.083 0.647-10.741 8.7223-8.0096 13.601 2.464 3.527 10.772 5.9883 16.084 5.1063 5.23-0.814 7.9553-8.3508 7.9973-8.4738 0.71-2.014-2.5884-7.6806-2.9394-8.0836 0 0 3.7259 0.25903 6.1369 3.933 2.81-2.369 4.5806-0.45163 5.6146 4.2854 1.44 7.099-1.8119 7.5313-1.8119 7.5313s-0.18264-1.7847-0.94164-2.2717c-0.755-0.487 0.62691 3.1724-0.74609 5.4314 0 0 5.122-0.46157 5.227-6.6276 0.012-0.548-0.19928-1.5601-0.45628-2.4981 1.596 0.991 1.4816 4.6113 1.4816 4.6113-0.734 8.921-6.3131 13.238-6.3131 13.238-2.099 10.158-4.4128 15.676-25.013 25.026-15.331 6.955-30.997 12.183-36.082 23.3zm8.702-15.902c9.425-6.175 17.545-6.1611 26.364-13.758-8.134 3.565-15.85 3.8623-21.851 2.8883-5.049 7.069-4.5126 10.819-4.5126 10.87zm38.673-24.823s3.0884-0.62932 5.5644-2.7183c-0.107-2.349-1.5732-5.0226-1.5732-5.0226s2.4874 0.87346 3.3314 3.2645c0-0.07 0.76587-1.4827 0.28187-2.5307-0.844-1.83-3.1275-2.0869-4.5725-1.0579-2.199 1.57-3.0319 4.5881-3.0319 8.0651z" fill="#501214"/>
  </g>
 </g>
</svg>