<svg xmlns="http://www.w3.org/2000/svg" width="250" hieght="147" viewBox="0 0 250 147">
 <g transform="matrix(1.61 0 0 1.61 .974 1.22)">
  <path d="m119 0.00195c-4.13 0.0274-8.25 0.473-13.4 1.35-8.53 1.44-13.3 2.94-21.2 6.56-10 0.482-15.7 1.4-25.3 4.14-8.23 2.35-12.8 4.14-20.4 8.04a29.1 29.1 0 0 1 7.05 0.902 28.9 28.9 0 0 1 6.37 2.22c0.631-3.23 7.72-7.59 12.1-9.08 5.87-2.03 8.55-2.61 15.1-3.8a63.4 63.4 0 0 0-9 5.61 63.4 63.4 0 0 0-8.77 7.45l1.15 1.59c8.45-6.83 14-10.1 24.1-14 11.8-4.59 19.2-6.01 31.9-6.12a95.7 95.7 0 0 1-13 8.68c-5.01 2.86-7.84 4.29-13.2 6.45 0.801-1.46 1.7-2.72 2.43-4.54l-16.7 6.78c-6.13 2.48-9.65 3.74-15.8 6.14 1e-6 0-4.1 7.41-7.14 11.5 5-2.24 7.76-3.57 12.7-6.06 4.91-2.49 7.64-3.98 12.4-6.72-4.41 4.87-6.5 7.16-12.2 11.6-5.44 4.21-10 6.61-15.2 9.28-2.44 1.39-2.51 2.17-2.51 2.17 3.93-1.64 6.95-3.09 10.9-5.12 9.37-4.87 13.8-8.07 21.5-14.1 12.1-2.65 18.8-5.46 29.3-12.1 8.92-5.64 13.6-9.7 20.5-17.7-5.17-0.795-9.3-1.19-13.4-1.16zm-62.4 25.2-56.6 25 50.5-17.3z" fill="#0b2240"/>
  <path d="m118 9.05a111 111 0 0 1-13.1 8.14c-6.02 3.26-8.51 4.48-14.9 6.91-0.634 0.923-1.33 1.79-2.25 2.89 6.75-2.42 10.5-4.12 16.8-7.57a99.9 99.9 0 0 0 13-8.29zm-53.1 2.73c-4.62 0.741-8.03 1.8-12.9 3.72-2.53 0.974-5 2.11-7.38 3.41h0.0059c1.05 0.041 2.1 0.205 3.12 0.49 0.819 0.206 1.62 0.491 2.38 0.848 1.77-1.9 2.43-2.69 5.07-4.32 3.03-1.87 5.92-3.03 9.72-4.15zm33.6 22-18.1 1.09-5.52 41.2 18.8-1.13 0.992-7.39-9.38 0.561 1.38-10.3 8.07-0.484 0.945-7.06-8.07 0.484 0.939-6.84-3.6-1.99 3.9-0.234 8.67-0.514zm-64.4 0.455-27.4 7.81 0.277 8.95 7.98-2.28 1.27 40.9 11.4-3.26-1.2-38.6-4.04-1.13 11.9-3.41zm69.6 0.438-8.64 40.4 12 0.0449c8.64 0.031 11.8-1.8 14.6-15.1l2.16-10.1c2.85-13.3 0.518-15.2-8.13-15.2zm-35.9 0.891-9.58 1.66-2.12 41.3 17.9-2.37 0.396-7.53-8.32 0.994-3.97 0.574 4.09-2.83zm71.5 0.99c-5.42-0.0252-8.9 1.77-10.6 7.14l-7.71 24.8c-2.06 6.61 1.65 8.88 9.43 9.83 7.78 0.95 12.6-0.248 14.6-6.86l7.7-24.8c2.06-6.6-1.65-8.86-9.44-9.83-1.46-0.178-2.81-0.281-4.06-0.287zm-90.6 2.76c-1.74-0.0076-3.86 0.348-6.33 0.963-7.89 1.95-12.2 4.79-12.2 11.5v25.1c0 6.7 4.31 7.4 12.2 5.44s12.2-4.79 12.2-11.5v-25.1c0-4.6-2.04-6.37-5.88-6.39zm58.9 2.31h6.29c2.01 0.022 2.26 0.916 1.62 3.93v2e-3l-3.93 18.4c-0.633 3.01-1.27 3.91-3.29 3.9h-2.46l5.12-24.1zm27.4 1.41 6.18 0.764c1.74 0.21 2.31 0.682 1.82 2.18v2e-3l-7.39 23.7c-0.472 1.51-1.27 1.82-3 1.61-1.73-0.216-2.29-0.691-1.81-2.2l7.3-23.5zm-91.3 4.07c0.772 0.0275 1.09 0.463 1.09 1.52v24.1c0 1.53-0.681 2.1-2.44 2.54-1.76 0.438-2.44 0.206-2.44-1.33v-23.8l-3.83-1.24 6.27-1.55c0.549-0.136 0.993-0.208 1.34-0.195z" fill="#ffcd00"/>
  <path d="m98.9 33.3-18.1 1.09-0.295 0.275-5.52 41.2 0.332 0.359 18.8-1.13 0.295-0.271 0.992-7.4-0.332-0.359-8.99 0.541 1.29-9.66 7.81-0.469 0.295-0.277 0.945-7.05-0.334-0.359-7.68 0.463 0.887-6.46-0.162-0.32-2.64-1.46 2.81-0.172 8.67-0.51 0.295-0.273 0.992-7.4zm-64.2 0.479-28 7.99 0.297 9.6 7.98-2.28 1.27 40.9 12-3.44-1.21-39.1-0.225-0.0605-2.96-0.828 9.92-2.83c-0.0962 0.0778-0.2 0.15-0.293 0.23a8.95 8.95 0 0 0-2.43 3.29 11.3 11.3 0 0 0-0.822 4.47v25.1c-0.022 1.02 0.111 2.05 0.391 3.03a4.76 4.76 0 0 0 2.12 2.82c0.998 0.596 2.26 0.846 3.74 0.846 1.78 0 3.89-0.358 6.34-0.951 3.97-0.983 7.06-2.19 9.19-4.03a8.97 8.97 0 0 0 2.43-3.29 11.3 11.3 0 0 0 0.822-4.47v-25.1c0.02-1.03-0.113-2.06-0.398-3.05a4.76 4.76 0 0 0-2.11-2.82c-1-0.593-2.26-0.846-3.75-0.846-1.77 0-3.89 0.358-6.33 0.951l0.0039 0.0176c-3.14 0.78-5.72 1.7-7.72 2.97zm63.9 0.178-0.906 6.76-12.3 0.732-0.135 0.592 3.41 1.88-0.908 6.62 0.332 0.361 7.69-0.463-0.863 6.42-7.81 0.469-0.293 0.277-1.38 10.3 0.332 0.357 8.99-0.539-0.902 6.76-18.2 1.09 5.43-40.6zm5.46 0.359-0.318 0.25-8.62 40.4 0.318 0.383 12 0.0449h0.223c2.13 0 3.94-0.118 5.51-0.514a9.01 9.01 0 0 0 3.14-1.43c1.39-1.02 2.51-2.53 3.48-4.68 0.976-2.15 1.78-5 2.58-8.71l2.16-10.1c0.757-3.55 1.15-6.3 1.15-8.45a9.56 9.56 0 0 0-0.582-3.63 4.72 4.72 0 0 0-1.27-1.79 6.6 6.6 0 0 0-3.15-1.39 25.2 25.2 0 0 0-4.61-0.35v0.635c1.36-0.017 2.73 0.0697 4.08 0.262 0.758 0.11 1.5 0.325 2.2 0.635a4.07 4.07 0 0 1 2.02 1.94c0.444 0.894 0.676 2.1 0.676 3.7 0 2.07-0.387 4.78-1.14 8.31l-2.16 10.1c-0.7 3.28-1.42 5.85-2.22 7.86a14.6 14.6 0 0 1-1.99 3.62 7.76 7.76 0 0 1-3.96 2.71c-1.58 0.495-3.53 0.635-5.89 0.635h-0.236l-11.7-0.0449 8.49-39.8 11.8 0.0449v-0.635zm-69.9 0.297 0.258 8.29-12.8 3.65 4.9 1.37 1.18 38.1-10.8 3.08-1.27-40.9-7.98 2.28-0.256-8.29zm34 0.6-9.58 1.66-0.262 0.295-2.12 41.3 0.359 0.33 17.9-2.38 0.277-0.297 0.396-7.53-0.355-0.334-8.32 0.996h-0.0059l-2.64 0.379 2.98-2.06 0.135-0.248 1.59-31.8zm-0.283 0.691-1.56 31.2-3.96 2.74 0.229 0.578 3.96-0.574 7.94-0.947-0.363 6.89-17.3 2.29 2.09-40.6zm71.7 0.285c-2.7 0-4.97 0.46-6.77 1.63-1.8 1.17-3.13 3.03-3.97 5.74l-7.7 24.8a11.2 11.2 0 0 0-0.574 3.3 5.55 5.55 0 0 0 0.709 2.85c0.709 1.21 1.92 2.09 3.53 2.73 1.61 0.64 3.64 1.06 6.04 1.36 1.4 0.184 2.81 0.282 4.23 0.295 2.71 0 4.97-0.46 6.78-1.63 1.81-1.17 3.13-3.03 3.97-5.74l7.71-24.8c0.355-1.07 0.547-2.18 0.572-3.31a5.55 5.55 0 0 0-0.713-2.85c-0.709-1.21-1.92-2.09-3.53-2.73-1.61-0.643-3.64-1.06-6.04-1.36v0.0059a34.2 34.2 0 0 0-4.23-0.295zm-0.01 0.631c1.39 0.012 2.78 0.109 4.15 0.289l0.043-0.283-0.0352 0.285c3.17 0.39 5.62 1 7.26 2a5.11 5.11 0 0 1 1.84 1.79c0.437 0.772 0.657 1.65 0.635 2.54a10.7 10.7 0 0 1-0.547 3.12l-7.71 24.8c-0.817 2.62-2.05 4.32-3.71 5.39-1.66 1.06-3.8 1.52-6.43 1.52a33.8 33.8 0 0 1-4.15-0.291c-3.17-0.387-5.62-0.999-7.26-1.99a5.15 5.15 0 0 1-1.84-1.78 4.9 4.9 0 0 1-0.635-2.54c0.025-1.06 0.209-2.11 0.545-3.12l7.71-24.8c0.818-2.61 2.05-4.32 3.71-5.39 1.66-1.06 3.8-1.52 6.43-1.52zm-90.5 2.76a8.07 8.07 0 0 1 2.47 0.316 3.97 3.97 0 0 1 2.35 1.84c0.529 0.92 0.814 2.2 0.814 3.9v25.1a10.6 10.6 0 0 1-0.752 4.24c-0.764 1.79-2.08 3.15-3.95 4.27s-4.3 1.96-7.24 2.69c-2.42 0.599-4.5 0.951-6.19 0.951a8.1 8.1 0 0 1-2.47-0.332 3.97 3.97 0 0 1-2.34-1.84c-0.53-0.922-0.812-2.2-0.812-3.9v-25.1c-0.033-1.45 0.228-2.88 0.771-4.22 0.76-1.79 2.08-3.15 3.95-4.27 1.87-1.11 4.3-1.96 7.25-2.69v-2e-3c2.41-0.598 4.48-0.945 6.16-0.945zm58.9 1.68-0.174 0.58 3.17 2.08-5.07 23.8 0.316 0.385h2.48c0.465 0.013 0.927-0.0589 1.37-0.211 0.296-0.108 0.567-0.274 0.795-0.492 0.37-0.38 0.652-0.837 0.824-1.34 0.25-0.687 0.446-1.39 0.586-2.11l3.94-18.4-0.318-0.0606-0.316-0.0664-3.93 18.4a15.1 15.1 0 0 1-0.488 1.83c-0.106 0.312-0.246 0.611-0.418 0.891a1.8 1.8 0 0 1-0.793 0.711c-0.403 0.16-0.835 0.231-1.27 0.211h-2.09l5.04-23.7-0.141-0.316-2.44-1.63h5.22c0.272-3e-3 0.544 0.0241 0.811 0.0801 0.134 0.03 0.264 0.0823 0.381 0.154a0.75 0.75 0 0 1 0.316 0.381c0.085 0.239 0.123 0.491 0.113 0.744-0.034 0.734-0.139 1.46-0.316 2.18l0.635 0.133c0.181-0.757 0.285-1.53 0.314-2.31 7e-3 -0.3-0.035-0.6-0.125-0.887a1.43 1.43 0 0 0-0.295-0.52 1.6 1.6 0 0 0-0.768-0.461 3.92 3.92 0 0 0-1.06-0.127zm27.5 1.41-0.244 0.559 2.94 2.49-7.27 23.3a3.26 3.26 0 0 0-0.176 0.975c-6e-3 0.237 0.0492 0.473 0.158 0.684 0.084 0.153 0.196 0.288 0.332 0.398 0.222 0.167 0.475 0.289 0.744 0.359 0.333 0.095 0.674 0.16 1.02 0.197 0.3 0.04 0.6 0.0595 0.902 0.0625 0.286 4e-3 0.573-0.0287 0.85-0.0977 0.384-0.096 0.727-0.308 0.984-0.609 0.281-0.347 0.487-0.751 0.605-1.18l7.39-23.8-0.184-0.0625 0.203 0.0625c0.106-0.313 0.164-0.639 0.174-0.969a1.45 1.45 0 0 0-0.154-0.686 1.26 1.26 0 0 0-0.334-0.393 2.13 2.13 0 0 0-0.746-0.361 6.1 6.1 0 0 0-1.02-0.197zm0.963 0.762 5.13 0.635c0.474 0.028 0.936 0.151 1.36 0.363 0.106 0.061 0.194 0.151 0.254 0.258a0.82 0.82 0 0 1 0.082 0.387c-0.01 0.264-0.0568 0.526-0.143 0.777l-0.0215-0.0059-7.39 23.7c-0.076 0.25-0.182 0.49-0.316 0.713-0.133 0.243-0.338 0.44-0.586 0.561-0.3 0.129-0.625 0.188-0.951 0.172a6.83 6.83 0 0 1-0.824-0.0566 3.53 3.53 0 0 1-1.36-0.365 0.745 0.745 0 0 1-0.258-0.26 0.809 0.809 0 0 1-0.082-0.387c0.011-0.267 0.0604-0.53 0.148-0.783l7.35-23.5-0.0996-0.336zm-92.4 3.3a5.7 5.7 0 0 0-1.34 0.207l-6.27 1.55-0.0215 0.609 3.61 1.18v23.6c-5e-3 0.259 0.0202 0.517 0.0762 0.77 0.06 0.323 0.233 0.612 0.492 0.814 0.274 0.183 0.602 0.273 0.93 0.258 0.452-0.019 0.899-0.089 1.34-0.207 0.9-0.225 1.56-0.482 2.03-0.951 0.231-0.23 0.405-0.512 0.504-0.824 0.105-0.345 0.154-0.705 0.148-1.06-7.7e-5 -0.0053 0.0021-0.0104 2e-3 -0.0156h-2e-3v-24.1a3.56 3.56 0 0 0-0.0723-0.771 1.36 1.36 0 0 0-0.494-0.811 1.53 1.53 0 0 0-0.926-0.254zm0 0.635a1.14 1.14 0 0 1 0.422 0.0625 0.532 0.532 0 0 1 0.184 0.113c0.09 0.096 0.153 0.215 0.18 0.344 0.056 0.223 0.0802 0.453 0.0742 0.682v24.1h0.537l-0.221 0.0352h-0.316c8e-3 0.298-0.0312 0.595-0.117 0.881a1.44 1.44 0 0 1-0.633 0.799c-0.45 0.26-0.941 0.445-1.45 0.549a5.41 5.41 0 0 1-1.18 0.188 1.22 1.22 0 0 1-0.426-0.0644 0.584 0.584 0 0 1-0.184-0.115 0.76 0.76 0 0 1-0.184-0.344 2.74 2.74 0 0 1-0.0723-0.686v-23.8l-0.219-0.316-2.77-0.904 5.19-1.29c0.388-0.108 0.786-0.169 1.19-0.186z" fill="#0b2240"/>
 </g>
</svg>