<svg xmlns="http://www.w3.org/2000/svg" width="248" height="178.36" viewBox="0 0 248 178.36">
 <g transform="matrix(1.3333 0 0 -1.3333 -44.956 548.09)">
  <g>
   <path d="m164.76 409.94c-11.387 0-22.856-2.6863-32.294-7.5645-17.916-9.2607-28.019-27.915-31.532-35.505l-3.4966-7.5571-3.8994-4.0298c-3.3997-3.5136-5.6841-7.4914-6.7808-11.697l-6.5376-10.444s-11.4 11.345-11.667 11.6c-0.1645 1.3413-0.52106 2.6673-1.1411 3.8188-0.99757 1.799-2.5513 2.9544-4.5 3.334-0.82252 0.1624-1.6576 0.24463-2.4844 0.24463-5.5383 0-10.947-3.4708-17.54-11.257-2.3389-2.7586-4.506-6.2665-5.9443-9.624-1.8159-4.237-2.4713-8.1704-1.8955-11.38 0.55678-3.1108 1.9737-4.846 5.1899-6.4468 1.1747-0.58631 3.9637-0.46472 6.9712-1.5234 2.09-0.73604 3.6899-1.7139 3.6899-1.7139-1.8855-0.87946-3.4883-2.5504-4.2349-4.7417-1.1916-3.4883-1.103-8.9795-1.103-8.9795-0.1877-4.4564 2.2568-13.397 12.853-15.341 1.0967-0.20246 2.2181-0.30323 3.3296-0.30323 7.6789 0 14.11 4.8082 19.277 8.6719 1.5037 1.1241 2.9231 2.1865 4.2349 3.0322l1.5439 0.99755 20.215-9.3823 1.0796-0.50244c0.24676-1.6577 1.0273-3.0696 2.2632-4.0166 1.0229-0.78667 2.2877-1.2056 3.6606-1.2056 2.7902 0 5.7414 1.6714 7.8926 4.4722 3.2922 4.2813 3.3757 9.5537 0.18897 12.004-1.025 0.78877-2.2898 1.2012-3.6606 1.2012-0.36697 0-0.73623-0.0265-1.1074-0.0835l-0.96973 0.97412c-0.83728 0.83728-2.0526 2.0519-3.5478 3.5493 1.1557 0.16028 3.1529 0.36328 5.8608 0.36328 5.4118 0 14.156-0.81387 25.083-4.686 7.4702-2.6468 13.383-3.8656 18.242-5.8945 4.8592-2.031 10.436-4.1704 10.436-4.1704 2.3263-0.89212 4.8743-1.3433 7.5718-1.3433 6.4367 0 12.469 2.5311 15.374 6.4497 1.9129 2.5814 2.7322 5.8873 2.2471 9.0762-0.445 2.9316-1.9557 5.474-4.2524 7.1528-2.0331 1.4869-4.498 2.2705-7.1279 2.2705-3.4609 0-6.9412-1.4166-8.8667-3.6079-0.26573-0.3037-0.5064-0.61219-0.72363-0.92432-1.2211 1.5269-2.8044 3.3072-4.7827 5.1694 7.3795-1.0039 19.692 3.3237 19.692 3.3237 4.4226 1.5902 11.975 6.927 8.8975 15.743-1.1937 3.4208-3.5255 5.7654-6.6152 6.7588l-0.76465 1.6919c-0.61583 1.3624-2.5116 3.6709-5.7173 3.6709-1.0123 0-3.056-0.03118-4.4648-2.0728-0.91954-1.335-1.004-3.5647 0.43652-5.332-1.4489-1.3097-2.5711-3.0636-3.0688-5.0903-1.5839 0.83307-3.2993 2.4858-3.8877 5.7759-1.0819 6.0402 2.389 10.256 5.5356 13.255 0.48508 0.46188 1.0413 0.89586 1.6318 1.3535 2.6025 2.0247 5.8431 4.544 7.5366 12.318 0.31424 1.4362 1.0691 3.3485 4.0049 3.3442h0.0586c3.0496-0.0358 4.9347-3.4305 3.4394-6.0879-0.5589-0.99757-1.2482-1.9586-2.4419-3.0278 0 0 1.0032-1.1566 2.4522-2.0698 1.8095-1.141 4.6505-1.588 6.3926-1.3814 2.4528 0.28894 5.5833 1.0743 8.1753 3.5039 2.7691 2.5962 4.8424 6.7582 5.3232 11.364 0.59264 5.648-1.0846 14.578-10.271 24.851-10.178 11.382-25.612 17.651-43.456 17.651zm-104.3-103.42 4.9116-2.3833c-0.28261-0.3754-0.66587-0.85314-1.0708-1.3403-1.4152-1.7062-3.8687-2.2438-5.7964-1.1514-0.23199 0.13287-0.40882 0.26686-0.49951 0.39551-0.33534 0.43868-0.27056 0.82658-0.1377 1.1514 0.53147 1.2865 3.3179 0.21094 3.3179 0.21094s-0.2569 1.8771-0.7251 3.1172z" fill="#231f20"/>
   <path d="m64.89 298.93c-4.5281-4.9098-10.657-7.8392-16.425-2.5878 0 0-0.43657-10.355 10.471-12.357 10.047-1.8433 18.146 6.7299 24.741 10.986l-15.978 7.4174c-0.84361-1.1684-1.7821-2.3452-2.8092-3.4588m21.135 38.051c-1.2296-1.9445-2.4486-3.908-3.6866-5.9643 0.55467-0.55045 1.1304-1.1283 1.7041-1.6999 0.36275 0.5842 0.87314 1.0882 1.5122 1.451 0.1624 0.0907 0.63692 0.33322 1.3329 0.5863-0.12232 0.44501-0.24676 0.8879-0.34166 1.3392-0.30581 1.4341-0.47453 2.8662-0.52093 4.2876m93.316 17.684c-1.8454 0.46821-2.0141 0.74238-2.8725 0.84361 0 0-0.55467-1.0081-1.1093-2.8746-0.55468-1.8644-1.2338-4.8993-4.5175-6.7194-2.2714-1.257-5.5678-1.8749-8.6596-0.91953-3.0475 0.94273-4.1463 2.2946-4.1463 2.2946s-0.68122-0.18138-1.4426-2e-3c-0.76135 0.17926-1.0904 0.22566-1.2802 0.22777 0 0 6.8796 6.5886 11.347 8.5226 4.2265 1.8306 10.353 3.1952 14.751-1.0883 0 0-0.50195-0.68332-2.069-0.28472m-17.184-26.165c-1.3202 0.37329-1.5902 1.3877-2.166 2.573-0.57576 1.1853-1.7273 2.1322-5.4518 4.3003-3.7245 2.166-7.0631 2.4908-11.172 1.7948-3.9966-0.67699-7.3521-3.6613-12.222-3.8933-6.365-0.3058-10.461 5.3822-6.365 10.495 3.3323 4.1569 11.273 6.1288 21.464 3.2163 10.191-2.9126 11.207-9.6825 11.207-9.6825 5.1798-4.1316 4.7052-8.8031 4.7052-8.8031m-10.098 0.35853c-4.9562 3.1361-7.2951 2.6827-9.9103 2.341-2.6131-0.33956-3.8848-0.22778-6.1352 0.0675 0 0 7.4238 3.1171 13.068 2.0226 5.8631-1.1347 7.409-2.6131 10.568-5.8631 0 0-2.6363-1.7041-7.5904 1.432m-13.401 35.2c1.3856 5.3379 7.2719 7.08 7.2719 7.08-1.4658 4.2307-6.6181 6.9387-6.6181 6.9387s8.4972 0.0295 11.623-10.781c2.2166-7.6747 1.8665-17.847 1.8665-17.847-0.78667-0.0696-1.4173 0.44922-1.702 0.76346-0.78456 0.86892-1.3224 0.8879-1.3224 0.8879-2.8198-0.24675-5.0638 0.69387-7.0062 2.1301-2.206 1.6303-5.3928 5.8989-4.1126 10.828m57.583 8.4045c-5.416 2.0015-8.7271-2.9083-10.606-5.6965-1.877-2.7881-6.0592-7.6958-11.939-5.3949-6.2237 2.4401-6.0487 8.4593-4.9035 11.684 0 0-16.024 13.865-37.172 8.2231-18.597-4.9583-27.097-19.517-27.097-19.517s14.084 4.8824 21.175-2.8725c0 0-18.397 6.3524-29.999-5.6374-0.02109-0.0232-0.04218-0.0464-0.06327-0.0696l-0.0063 0.0696c-12.924-13.359-3.8047-28.617-0.47242-29.952 0 0-0.0063 0.0169-0.01476 0.0443 0.02742-0.0127 0.05905-0.0316 0.08647-0.0443 0 0-3.1298 9.0751 1.8644 16.195 5.0912 7.2592 14.898 6.3313 18.049 3.0581 0 0-15.299 3.6444-17.655-9.4316 1.0166 0.14552 1.9888 0.24886 2.7797 0.24886 2.1111 0 4.0641-0.83306 5.6459-2.4106 2.8746-2.8704 1.9551-7.0926-0.11811-9.8006l-2.0268-2.6679c-0.30159-1.6598-1.0018-3.3217-2.1322-4.8993-0.16029-0.22567-0.34799-0.42603-0.54624-0.61373 1.567-1.721 7.4934-8.1493 9.9272-9.7985 0 0 13.245 3.0264 33.711-4.2286 11.669-4.1358 19.447-6.2807 25.104-7.042 5.4982-0.63693 10.562 1.0967 11.758 2.3494 0.34166 0.35642 0.76347 1.1262 0.46821 1.6598-0.29527 0.53358-0.89845 0.63692-1.1705 0.61373-0.31846-0.0274-0.78456-0.12444-2.1913-0.71496l-3.2184-1.3582c-0.27417 1.0904-1.1452 4.2961-0.1645 7.7401-3.7815 5.0849-11.663 13.318-25.312 17.722 0 0 4.0599 2.0605 12.243-3.2732 6.5907-4.2961 17.636-5.0132 24.03-0.67488 1.5438 1.0482 2.5013 2.4085 3.1087 3.9481 0 0-1.529-0.82885-3.2015-0.87314-1.9846-0.0527-3.733 0.96593-4.7917 2.6489-0.75504 1.2021-1.1241 2.2672-1.3202 3.8047-0.0211 0.16873-0.0232 0.33323-0.0359 0.50195-2.1744 0.82885-5.5552 2.9632-6.519 8.3412-1.4552 8.1197 3.8785 13.479 6.3946 15.875 2.8198 2.6869 6.4747 3.657 8.3328 12.184 1.761 8.0881 11.009 5.572 11.669 3.9418 0 0 0.96804 4.4058-3.6697 6.1183" fill="#006548"/>
   <path d="m164.76 407.03c-11.009 0-21.965-2.591-30.958-7.2393-17.231-8.9064-26.994-27.153-30.227-34.144 3.3976 4.5914 12.164 14.434 27.224 18.45 3.6022 0.96171 7.2975 1.4473 10.982 1.4473 16.765 0 28.358-9.8599 28.843-10.282l1.5059-1.2993-0.66651-1.875c-2.0015-5.6269 2.3341-7.6515 3.2241-7.9995 0.67911-0.26573 1.3201-0.39551 1.957-0.39551 2.7565 0 5.06 2.5596 6.5068 4.7066 1.7547 2.6025 5.0193 7.4473 10.551 7.4473 1.1431 0 2.314-0.21722 3.4761-0.64746 4.1948-1.5501 5.2911-5.0443 5.6792-7.708 0.97648-6.675-2.9678-11.112-2.9678-11.112 1.1768-0.71074 2.7004-1.0972 4.3096-1.0972 2.4591 0 5.1212 0.90062 7.0679 2.9253 3.1741 3.3006 9.7942 15.354-5.2178 32.142-10.383 11.61-25.889 16.682-41.29 16.682zm-17.796-40.276c-1.1254 0.03132-2.8534-0.32277-4.0635-2.4331-1.9551-3.4103-0.1831-6.8042-0.1831-6.8042 3.1214 2.3642 6.8042 1.2568 6.8042 1.2568-0.52514 5.416-1.4238 7.8047-1.4238 7.8047s-0.45855 0.15699-1.1338 0.17579zm24.772-12.078c-9.1384-2.3705-10.951-6.8774-10.951-6.8774 0.14552 4e-3 0.37573-0.076 0.84815-0.22998 0.4703-0.15396 1.084-0.04395 1.084-0.04395 2.7038 5.4771 8.5869 2.6821 8.5869 2.6821 1.5902 2.341 0.43213 4.4692 0.43213 4.4692zm-111.34-5.4463c-4.5833-0.01266-9.3674-3.2313-15.293-10.229-3.9987-4.72-8.2407-12.782-7.1968-18.609 0.45977-2.5709 1.9757-3.7232 3.3486-4.2378-0.10123 0.16662-0.20457 0.32481-0.29736 0.5083-1.3392 2.651-1.3001 6.0221 0.11719 10.017 3.0897 8.7124 10.783 17.532 17.52 20.082 1.3202 0.49984 2.5241 0.75382 3.6841 0.77491 0.97015 0.0148 1.8266-0.13968 2.5942-0.39698-0.5146 0.93852-1.3098 1.6666-2.5225 1.9028-0.64932 0.12734-1.2993 0.19078-1.9541 0.18897zm76.274-4.1118c-0.46098-0.00217-0.96676-0.0429-1.4956-0.14941-2.5055-0.50827-1.8735-2.7041-1.8735-2.7041 0.24043 0.0337 1.1567 0.10986 1.6524 0.10986 0.49561 0 3.2607 0.21533 3.2607 0.21533 0.52936 0.77823 0.82031 2.1885 0.82031 2.1885s-0.9813 0.34637-2.3643 0.33984zm6.2417-0.26513c-0.22831 0.00692-0.4639-0.00408-0.70459-0.03809-1.9255-0.27418-1.8047-2.1753-1.8047-2.1753 0.55679 0.0422 1.344-0.14532 1.6772-0.1875 0.33322-0.0443 2.0451-0.45376 2.9941-0.09522 0.94906 0.36065 0.82324 1.3184 0.82324 1.3184-0.14393 0.19377-1.3872 1.1293-2.9854 1.1777zm-80.294-0.23145c-0.84242 0.03101-1.8214-0.13706-2.9956-0.58154-5.4244-2.0542-12.806-9.8705-15.807-18.334-3.0075-8.4783 2.2954-10.083 2.2954-10.083l62.123-28.84c0.36486 1.6661 1.1577 3.3512 2.3071 4.8486 1.0862 1.4109 2.3822 2.5334 3.7573 3.3032-5.8251 5.8336-44.637 44.688-46.138 46.099-1.7099 1.6071-3.0142 3.4944-5.5415 3.5874zm69.249-0.95215c-3.849-0.36276-3.5772-3.0454-3.5772-3.0454 0.86681 0.29526 1.3616 0.27618 2.3613 0.71485 1.5776 0.69176 1.2158 2.3306 1.2158 2.3306zm16.397-0.63574c-0.78666-8e-3 -0.96533-0.73535-0.96533-0.73535s0.47936-0.26545 1.2407-0.65772c0.76135-0.39439 1.771-0.43652 1.771-0.43652-0.21512 0.95749-1.2597 1.838-2.0464 1.8296zm-5.956-1.7417c-0.89924 0.04824-1.806-0.09704-2.5547-0.5083-1.4974-0.82252-1.002-2.6162-1.002-2.6162s0.5566 0.20346 2.0962 0.35742c1.5396 0.15396 2.4384 0.49624 3.1069 0.89063 0.66645 0.39227 0.86133 1.2231 0.86133 1.2231-0.71812 0.36381-1.6086 0.60508-2.5078 0.65332zm-5.7173-0.31348c-1.8787 0.03028-3.8892-0.60644-3.8892-0.60644-0.57366-1.103-1.377-3.8584-1.377-3.8584 1.4805-0.49562 3.4486-0.38413 4.9629 1.0606 1.5143 1.4468 1.0942 3.3472 1.0942 3.3472-0.25678 0.03532-0.52263 0.0528-0.79102 0.05712zm10.956-0.55517c-0.81198-0.0844-0.8042-0.61524-0.8042-0.61524 0.40282-0.30791 0.88216-0.27299 1.0825-0.28564 0.16028-8e-3 0.83496 0.01904 0.83496 0.01904 0.19614 0.48929-0.2992 0.96831-1.1133 0.88184zm-17.086-0.68262c-0.16451-6e-3 -1.4361-0.17175-2.2017-0.58301-0.68965-0.37118-0.78516-0.9917-0.78516-0.9917 0.57365-1.2907 2.2002-1.1045 2.2002-1.1045 0.48508 0.97858 0.78662 2.6792 0.78662 2.6792zm57.262-1.084c-0.63973 0.06663-1.4058-0.03751-2.3101-0.43506 0 0-0.74953-1.3163 0.34717-2.3877 0 0 1.8276 0.6878 4.6684 0.88184 0 0-0.78639 1.741-2.7056 1.9409zm-127.44-0.29151 7.6113-7.0327-2.7554-3.0044-1.9937 1.5645-7.3828-9.6123-3.479 2.4024 7.2803 10.178-2.1401 1.8135 2.8594 3.6914zm129.68-4.5205c-0.42541-0.01343-0.84499-0.05351-1.251-0.11573-3.1762-0.48508-6.2702-3.8396-5.7598-7.853 0.15185-1.1874 0.39665-1.827 0.89649-2.6221 1.1853-1.8855 3.6532-1.4749 4.752-0.22851 1.4995 1.7041 3.6592 2.4549 3.8174-1.2949 0.10335-2.4127-1.8413-5.272-1.8413-5.272s10.077 3.6199 7.1353 12.045c-1.4708 4.2149-4.7711 5.4348-7.749 5.3408zm-90.05-3.3896c-0.72887-0.05013-1.3866-0.24496-1.9102-0.4585 0.43024-0.26996 0.85993-0.55916 1.2817-0.88184 2.2103-1.6999 3.6425-3.8073 4.2773-6.0703 0.42391 0.60108 2.4378 3.7238 0.29297 5.8623-1.3155 1.3129-2.7271 1.6319-3.9419 1.5483zm-30.763-0.20801 2.6191-2.3364s-5.2446-6.9892-5.7275-7.6304c-0.61583-0.8183-0.46208-2.5504 0.8877-1.8882 1.6809 0.82252 7.0649 7.6099 7.0649 7.6099l2.6514-2.4023s-5.8599-7.0457-6.2563-7.5308c-0.3965-0.48507-3.5073-3.5038-7.002-1.0151-3.541 2.5224-1.6748 5.8583-0.61816 7.2671 1.0587 1.4109 6.3809 7.9263 6.3809 7.9263zm18.672-1.6362c-0.0042-2e-3 -0.008288-0.00386-0.014648-0.00586-0.48086-0.17927-0.77977-0.33944-0.82617-0.36475-0.39228-0.22356-0.61571-0.61367-0.66211-1.0312v-0.00146c-0.0063-0.0485-0.019043-0.09504-0.019043-0.14356v-0.00146c0.3269-0.32479 0.64447-0.64512 0.97559-0.97412 0.12865-0.12866 0.25742-0.25743 0.38818-0.38819 0.21934 0 0.44371 0.04578 0.65039 0.15967 0.03375 0.0169 0.2356 0.1205 0.5625 0.23438 0.03374 0.0127 0.068152 0.02392 0.104 0.03662-0.42391 0.77823-0.80648 1.6153-1.1587 2.48zm9.4717-1.6524c0.05905-0.31424 0.11638-0.61088 0.16699-0.87451 0.01476-0.11389 0.021565-0.23047 0.046875-0.32959 0.05062-0.18138 0.090478-0.35147 0.13477-0.52441 0.03585-0.15396 0.068797-0.2958 0.10254-0.41602 0.41548-1.7884 0.53238-3.1426 0.53027-4.1001 0.03796-0.51249-0.013198-0.99904-0.11865-1.4546-0.02109-0.11389-0.042369-0.20463-0.057129-0.26368l-0.007324 0.0044c-0.25308-0.89845-0.69838-1.6451-1.04-2.1196-0.08647-0.12022-0.14385-0.25093-0.18604-0.38379 0.57154-0.56944 1.139-1.139 1.7021-1.7022 0.27206 0.0844 0.52093 0.24919 0.7002 0.49805 2.8535 3.9818 2.1643 8.5035-1.7563 11.515-0.07171 0.057-0.14445 0.09812-0.21826 0.15087zm-18.548-4.9043 3.1362-2.3188-5.9106-7.6362 2.0903-1.6816-1.6802-2.5913-5.729 3.3662 8.0933 10.862zm8.3613-6.9536 3.6826-3.1831-4.6377-9.9522-2.8623 1.6802 0.41016 1.6377-1.9087 1.4531-2.0024-1.2275-2.7261 2.001 10.044 7.5908zm0.1377-4.0913-3.1362-1.9087 1.8179-1.5 1.3184 3.4087zm6.3164-1.4092 2.0918-1.5908 0.31934-2.9106 1.6333 1.002 2.1841-1.9102-5.8169-7.0913-2.0479 1.1367-0.18164 3.8203-2.0435-2.2295-2.729 1.5454 6.5903 8.228zm-39.152-1.6377c-0.33699 0.02255-0.70768 0.00925-1.1118-0.0498-3.7562-0.54835-5.7316-5.9942-3.1333-9.0059 2.2925-2.6532 5.8168-3.32 9.2798-0.88623 0 0-3.6893 0.89872-4.4443 3.438-0.53569 1.8011-0.12576 4.1345 2.54 4.4487 0 0-0.77147 1.8973-3.1304 2.0552zm132.17-1.1177c-2.8914 0.09503-5.6478-1.0607-7.0107-2.6147-2.1828-2.4844-2.0024-5.7261-2.0024-5.7261 3.5157 1.4826 5.1216 1.0253 6.2373 0.28711 1.2781-0.84782 2.4291-3.7541 0.05859-6.3735-2.3958-2.6426-10.387-3.5493-10.387-3.5493 7.1222-2.727 16.289-0.3033 19.57 4.1235 2.7565 3.7203 2.4181 9.3662-1.3887 12.148-1.5596 1.1412-3.3423 1.6481-5.0772 1.7051zm-85.148-4.1074 4.1352-3.0923-1.3184-1.771-2.0918 1.4077-0.59033-0.72657 1.1367-0.81884-1.3623-1.5454-1.1367 0.72656-0.54638-0.63574 1.8179-1.3623-1.2715-1.5469-4.0913 2.5928 5.3188 6.772zm17.26-9.5522c-1.834 0.12298-4.1402-1.1171-5.8374-3.3252-2.2651-2.9442-2.588-6.4942-0.72363-7.9263 1.8665-1.4341 5.2128-0.2108 7.4736 2.7334 2.2651 2.9442 2.588 6.4942 0.72364 7.9263-0.4661 0.35853-1.0249 0.5508-1.6362 0.5918zm1.3975-2.124s-0.52082-0.37663-1.065-1.0283c0.0612-0.71496-0.17435-2.1722-1.4355-3.813-0.94906-1.2338-2.0839-1.9999-2.9443-2.272-0.20246-0.72339-0.1333-1.5923-0.1333-1.5923-0.20035 0.13709-0.64667 0.77164-0.80273 1.6743-0.15818 0.53358-0.08137 2.1937 1.3887 4.1045 0.62849 0.8183 1.3394 1.4282 1.9995 1.8311 0.89844 0.64747 2.109 1.1062 2.9927 1.0957z" fill="#fff"/>
   <path d="m212.57 359.84c-0.22777-0.33955-0.45344-0.64536-0.67277-0.91953 0.21933 0.27417 0.445 0.57998 0.67277 0.91953m-7.3352 29.775c-9.4084 10.522-23.783 16.318-40.474 16.318-10.76 0-21.575-2.5266-30.459-7.118-12.296-6.3545-20.725-17.541-25.673-25.916 4.798 4.4964 12.04 9.6193 21.89 12.247 3.695 0.98492 7.4828 1.4848 11.262 1.4848 17.163 0 29.058-10.119 29.558-10.549l1.5037-1.3013 0.56311-0.48718-0.24887-0.70231-0.66645-1.8749c-0.41126-1.1536-1.4362-5.0384 2.5941-6.6181 0.55256-0.21512 1.063-0.32058 1.5607-0.32058 2.398 0 4.5386 2.6468 5.6037 4.2265 1.8665 2.7692 5.3422 7.9278 11.454 7.9278 1.2738 0 2.5688-0.24043 3.8532-0.71496 3.6486-1.3498 5.7387-4.1527 6.3819-8.5732 0.75081-5.1397-1.1895-9.0245-2.3832-10.849 0.79721-0.2805 1.7041-0.42813 2.6447-0.42813 2.4085 0 4.6989 0.94273 6.2828 2.5899 0.4682 0.48929 11.296 12.159-5.2472 30.659" fill="#3a8dde"/>
  </g>
 </g>
</svg>
