<svg xmlns="http://www.w3.org/2000/svg" width="248" height="198.57" viewBox="0 0 248 198.57">
 <g transform="matrix(1.3333 0 0 -1.3333 -1.4279 921.52)">
  <g>
   <path d="m100.6 676.3c-2.3984-0.11911-5.1702-0.76992-8.1987-1.9468-6.4088-2.489-13.07-2.4377-17.495-1.9688 0.05711-0.0752 0.1172-0.14465 0.17432-0.21679 2.4108-3.0842 4.4065-4.9414 6.4746-6.0205 0.67636-0.35471 0.94065-1.1913 0.58594-1.8677-0.24649-0.47495-0.73-0.7456-1.229-0.7456-0.21643 0-0.43573 0.05152-0.64014 0.15673-2.1283 1.1122-4.1366 2.8493-6.3911 5.5547 1.996-4.2024 5.3361-10.316 10.425-17.055 2.2245-2.9489 3.7478-5.8475 4.7578-8.6792 1.7886 0.2495 2.9008 0.50493 3.4028 0.6372 1.5331 0.40581 3.1359-0.08128 4.188-1.2656 1.0521-1.1844 1.3464-2.8337 0.76318-4.3066v-0.00293c-1.3347-3.3698-3.6017-6.0673-6.7881-8.0903-0.1503-1.8758-0.42666-3.702-0.75732-5.4756 0.90481 0.39379 2.0234 0.86207 3.2739 1.352 6.8507 10.067 16.215 19.046 23.988 19.72 3.9649 0.39078 7.2439-1.1576 9.0234-4.2568 2.1343-3.7154 1.7855-9.1655-0.74854-15.283 0.0241 0.0601 0.05493 0.12298 0.08203 0.1831 4.5752 1.2806 8.2691 1.6541 10.229 1.7593-0.53207 2.8287-2.9283 8.7385-7.5396 18.631-3.8176 8.1944-5.2187 17.107-5.7026 23.495-1.1032-3e-3 -2.6411-0.42094-4.6611-1.2656-3.962-1.6533-6.4969-1.6261-6.5991-1.6201-0.70341 0.015-1.283 0.55343-1.3491 1.2568-0.27054 2.8437-1.3837 4.8872-3.3106 6.0776-1.5361 0.9499-3.5606 1.3628-5.959 1.2436zm11.055-86.528c-2.492-2.023-4.7494-3.6081-6.8686-4.8135h0.00293c1.3527-10.407 0.50807-18.931-0.69434-24.886 2.4078 0.84469 4.9662 1.2656 7.6626 1.2656 2.477 0 5.0672-0.35536 7.7666-1.0708 2.7054-0.71543 5.3266-1.0796 7.7886-1.0796h0.00292c2.6603 0 5.0295 1.2667 6.5024 3.4732 1.4669 2.1974 1.728 4.8569 0.71191 7.3008-0.23447 0.56514-0.06776 1.2206 0.41016 1.6084 3.4058 2.7595 8.5368 4.588 11.375 5.4507-2.014 2.6844-3.6503 5.6028-4.9819 8.6118-4.013-2.3507-8.5971-3.6343-13.271-3.6343-6.508 0-12.462 2.8952-16.406 7.7739z" fill="#ce0e2d"/>
   <path d="m35.216 642.58c-14.314 0.2828-18.403-3.1811-20.218-8.4229-0.1022-0.2946 0.16522-0.58932 0.46582-0.51416 2.2515 0.5531 10.109 1.9609 25.572-0.26953l-22.951-36.866c-2.7084-4.494-7.7244-7.648-12.907-7.648-0.88377 0-1.7287 0.09366-2.5283 0.271-0.24649 0.0541-0.41744-0.23543-0.24609-0.42481 2.3237-2.6062 5.7795-4.2041 9.9067-4.2041 6.502 0 12.711 3.9584 16.107 9.5947l23.229 37.434c20.898-3.5531 38.002-2.2488 42.229 8.4316 0.11723 0.2976-0.15913 0.61298-0.46875 0.52881-2.8617-0.75451-14.374-3.0262-40.175 0.48486-7.3377 0.9995-13.245 1.5097-18.016 1.604zm83.689-0.24903c-0.45607 0.03791-0.94195 0.0312-1.459-0.02197-7.1724-0.59519-18.686-12.057-25.717-25.603-2.2214-4.2836-3.7853-8.4066-4.645-11.99-0.40281-1.5872-0.90662-3.1092-1.0269-4.5762-4.4579-3.8627-10.04-7.2595-12.168-7.5571-1.1964-0.16533-1.8674 0.27629-2.1108 1.3945-0.46894 2.1493 0.70964 5.1921 3.2798 9.2622l9.5347 14.802c0.16834 0.25852-0.018509 0.60058-0.32813 0.60058h-10.89c-0.25551 0-0.49022-0.12934-0.62549-0.34277l-9.665-15.04c-4.3647-6.7545-9.1495-11.286-11.512-11.004-2.3718 0.28256-0.030762 5.0039-0.030762 5.0039 1.9689 4.1904 4.6504 8.2373 8.0713 13.525 1.3287 2.0531 3.0608 4.7287 4.648 7.2598 0.16533 0.26152-0.024443 0.59765-0.33106 0.59765h-10.585c-0.25251 0-0.48282-0.12642-0.62109-0.33984-1.1423-1.7706-4.4529-6.3816-9.5962-9.3516-0.17134-0.1022-0.22563-0.32408-0.1084-0.4834 0.32766-0.4509 1.0613-1.2992 2.2427-1.9365-1.6263-2.6543-2.6453-4.4519-3.8057-7.2686-0.7004-1.9389-1.0609-4.6445-0.81445-6.5684 0.65832-5.1313 5.1503-6.958 9.1333-6.958 5.3537 0 9.201 4.04 12.072 6.7515 0.73347-3.983 3.5133-6.6885 8.1606-6.6885 4.6022 0 10.735 3.072 16.134 7.043 0.73046-4.5692 3.9526-7.3888 9.126-7.0942 4.5812 0.26453 9.2104 3.0113 14.711 7.5864 0.86273 0.65832 1.59 1.3568 2.4888 2.0933h0.01025c2.7355-5.5461 8.4944-9.6284 15.541-9.6284 6.3156 0 12.354 2.7292 16.623 7.3374 0.68537-4.3166 3.9407-7.311 8.0259-7.311 4.7134 0 9.2055 3.8155 10.919 5.1592 1.0792-2.7024 3.9621-5.0843 7.0312-5.0903 4.3136-0.012 8.1643 4.0258 9.5772 8.9136 0.0601 0.20742-0.19364 0.36109-0.35596 0.2168-0.96193-0.85071-2.0619-1.4044-3.123-1.4795-2.3327-0.16832-3.5883 2.029-2.8037 4.9058 0.22244 0.81162 0.57726 1.5935 1.0342 2.2969l11.074 17.278c0.17134 0.26453-0.02125 0.6167-0.33984 0.6167h-9.6108c-0.17134 0-0.33008-0.09002-0.42627-0.2373l-1.0854-1.6772c-1.8698 2.1553-4.4306 3.2461-7.623 3.2461-7.7195 0-14.471-6.0063-21.226-15.334-3.8176-5.2726-5.8359-8.2006-8.3188-9.7998 0.45691 1.2625 0.80699 2.6063 0.87012 3.8628 0.1022 2.2275-0.20848 5.1644-0.53614 7.7856-0.12024 0.95591-0.24342 1.9422-0.34863 2.9312-0.61323 7.2175 3.0329 9.923 5.2573 10.897 0.14429 0.0601 0.2417 0.20411 0.2417 0.35742 0 0.15631-0.09741 0.28883-0.2417 0.33692-5.3207 1.8156-10.924 0.05997-17.128-5.3599-4.515-3.9439-8.8552-8.1577-10.521-9.7749-9.5622-9.0602-15.826-13.569-18.835-13.437-0.58016 0.027-1.0131 0.23456-1.3228 0.63135-0.69439 0.88677-0.83678 2.476-0.41894 4.5952 7.6173 4.6353 15.864 12.466 22.165 21.1 9.0885 12.451 9.1745 22.996 2.3335 23.565zm-2.8638-10.239c0.0541 0 0.0791-0.01171 0.0791-0.01171 0.15932-0.12926 0.0206-1.3979-1.2539-3.6314-3.505-6.1533-8.4771-13.606-18.8-22.537 1.6202 3.502 5.5919 11.312 11.682 18.437 6.1924 7.2475 7.9348 7.7432 8.2925 7.7432zm51.708-18.211c2.1643 0.26453 3.029-2.0494 1.4238-4.6406h0.00146l-4.0342-6.3721c-0.0301-0.0241-0.05507-0.05772-0.07617-0.09082-4.2595-7.0191-7.7372-10.578-10.337-10.578-0.78457 0-1.4668 0.80541-1.6201 1.9116-0.3457 2.4619 0.90242 6.3786 3.0337 9.5259 4.0972 6.2405 9.2702 9.9402 11.552 10.238 0.018 3e-3 0.03913 0.00286 0.05713 0.00586zm-39.614-4.8354c0.12926-1.4279 0.52948-3.3498 0.79101-5.7847 0.52605-4.8968-0.99471-10.574-5.5488-9.2065-4.5541 1.3647-5.6763 5.5312-5.6763 5.5312 4.8006 4.4429 9.7036 8.8107 10.434 9.46zm8.688-15.625c0.0301-0.0511 0.0239-0.09293-0.0542-0.12598 0.018 0.0421 0.0362 0.08393 0.0542 0.12598z" fill="#003595"/>
   <path d="m56.997 689.88c-2.6303 0-4.7637-2.1349-4.7637-4.7651 0-2.3026 1.6352-4.2266 3.8086-4.6685l6.0088-36.7c1.9058-0.19239 3.7125-0.3455 5.4199-0.46875l-7.8516 37.86c1.2896 0.85371 2.1431 2.3147 2.1431 3.9771 0 2.6303-2.1349 4.7651-4.7651 4.7651zm6.7075-8.3643c-0.537-0.01987-1.0326-0.35486-1.2378-0.88916-0.27355-0.71243 0.081591-1.512 0.79102-1.7886 0.01503-6e-3 1.4484-0.57156 3.5947-2.2339 0.25251-0.19539 0.55055-0.28857 0.84814-0.28857 0.41182 0 0.8237 0.18435 1.0942 0.53906 0.46894 0.60421 0.35665 1.472-0.24756 1.9409-2.51 1.9419-4.2286 2.6038-4.3008 2.6309-0.17886 0.06763-0.36299 0.09598-0.54199 0.08935zm37.144-2.4478c-2.8148-0.08116-6.0107-0.79224-9.4541-2.1284-9.8537-3.8297-20.802-1.0335-20.911-1.0034-0.49299 0.12625-1.0121-0.02133-1.3608-0.39111-0.3487-0.36974-0.46686-0.89892-0.31055-1.3799 0.14128-0.43587 3.5949-10.813 13.277-23.643 1.8697-2.477 3.1994-4.9267 4.1162-7.3315 1.0972 0.0992 2.0434 0.21104 2.855 0.32226-1.01 2.8317-2.5334 5.7288-4.7578 8.6777-5.0892 6.7425-8.4293 12.857-10.425 17.057 2.2545-2.7024 4.2628-4.4395 6.3911-5.5518 0.20441-0.10522 0.4237-0.15674 0.64014-0.15674 0.499 0 0.98251 0.27073 1.229 0.74268 0.35471 0.67936 0.090417 1.5144-0.58594 1.8691-2.0681 1.0792-4.0638 2.9348-6.4746 6.022-0.05712 0.0721-0.1172 0.14026-0.17432 0.2124 4.4249-0.46894 11.083-0.51584 17.495 1.9732 6.0571 2.3507 11.087 2.5999 14.159 0.70312 1.9269-1.1904 3.0386-3.2353 3.3091-6.082 0.0661-0.70041 0.64571-1.2374 1.3491-1.2524 0.1022-6e-3 2.6372-0.03323 6.5991 1.6201 2.02 0.8447 3.5594 1.2626 4.6626 1.2656 0.48397-6.3878 1.8805-15.305 5.7012-23.496 4.6112-9.8928 7.0075-15.803 7.5396-18.634-1.9599-0.10221-5.6568-0.47432-10.232-1.7549-0.4539-1.1182-0.98669-2.2572-1.5879-3.4146 7.5151 2.492 13.19 2.4434 13.28 2.4404 0.74549-0.015 1.3536 0.54387 1.4077 1.2773 0.17735 2.2846-1.0823 6.6381-7.897 21.256-4.0672 8.7295-5.2098 18.544-5.5254 23.618-0.0361 0.57716-0.42687 1.0739-0.97998 1.2393-1.7886 0.54409-4.0793 0.16155-7.437-1.2393-1.8848-0.78758-3.3729-1.1358-4.3198-1.2891-0.57716 3.0301-2.0884 5.3659-4.415 6.8027-1.9148 1.1829-4.3483 1.7306-7.1631 1.6494zm1.4253-13.737c-2.5972 0.01052-4.3148-0.40488-4.4531-0.43945-0.25551-0.0631-0.46322-0.23999-0.56543-0.48047s-0.08393-0.51722 0.04834-0.74267c0.05411-0.0932 5.5188-9.6588 4.9116-22.248-3e-3 -0.0722 0.00257-0.1462 0.01757-0.21533 4.7646 4.1874 9.6825 7.0244 14.128 7.4092 0.61924 0.0601 1.2229 0.07537 1.8091 0.05127h0.00147c-1.482 5.3387-1.5073 9.8449-1.5073 9.9141 0 0.33968-0.20455 0.64271-0.51416 0.77197-0.31263 0.12625-0.67227 0.05444-0.90674-0.18603-0.7485-0.75752-1.5419-1.3644-2.3145-1.8574-0.27655 3.003-0.43938 5.1698-0.44238 5.2148-0.0211 0.3006-0.20685 0.56808-0.4834 0.69434-3.6553 1.6668-7.1323 2.1032-9.7295 2.1138zm-11.648-34.835c-0.90782-0.57715-1.8935-1.1014-2.9517-1.5703-0.25251-2.0772-0.6397-4.0876-1.0605-6.0234-0.11423-0.51703 0.080207-1.0581 0.49805-1.3857 0.41784-0.32465 0.98982-0.38535 1.4678-0.15088 0.5501 0.27355 1.2144 0.58333 1.9629 0.917 0.81463 1.3707 1.6862 2.7358 2.603 4.0825-1.2505-0.48998-2.372-0.95819-3.2769-1.355 0.33367 1.7766 0.60702 3.6071 0.75732 5.4858zm-25.693-4.3564 0.60645-3.7192h6.2593l-0.73682 3.5537c-1.9449-0.021-3.9856 0.0333-6.1289 0.16553zm78.737-39.01c-0.87775-0.57715-1.869-1.2177-2.3379-1.4912 1.3317-3.009 2.9664-5.9289 4.9805-8.6133-2.8377-0.86273-7.9687-2.6896-11.375-5.4522-0.47796-0.38477-0.64316-1.0403-0.40869-1.6084 1.016-2.4409 0.75502-5.1048-0.71192-7.3022-1.473-2.2034-3.8451-3.4688-6.5024-3.4688h-0.00293c-2.4649 0-5.0832 0.36416-7.7886 1.0796-2.6994 0.71243-5.2911 1.0708-7.7681 1.0708-2.1463 0-4.2054-0.27351-6.1714-0.80859 1.7435 3.2074 3.376 6.1863 4.3169 7.9058 0.36673 0.67034 0.12248 1.5112-0.54785 1.8779-0.67335 0.36673-1.5111 0.12395-1.8809-0.54639-0.61323-1.1212-1.5249-2.7845-2.565-4.6934 0.67335 5.3898 0.88999 12.112-0.12304 19.885-0.8988-0.51102-1.7698-0.95579-2.6265-1.3316 1.3196-11.173 0.02623-19.999-1.3506-25.551-0.12926-0.52305 0.05806-1.0754 0.48193-1.4121 0.2495-0.20141 0.55618-0.30468 0.86279-0.30468 0.21343 0 0.42571 0.04875 0.6211 0.14794 4.6112 2.3146 10.007 2.6787 16.04 1.0825 2.9369-0.77555 5.7966-1.1703 8.499-1.1733h0.00293c3.5471 0 6.8378 1.7592 8.8037 4.7051 1.7615 2.6363 2.2348 5.8889 1.3359 8.8799 4.4339 3.1413 11.494 4.8819 11.569 4.8999 0.46593 0.11423 0.83847 0.46007 0.98877 0.91699 0.14729 0.45391 0.05181 0.95601-0.25781 1.3228-1.8156 2.1523-4.4376 6.4178-6.085 9.9829zm-64.011-2.6162c-2.4138-1.1212-4.9953-2.0202-7.5264-2.3599l6.2651-38.273c0.06313-0.39078 0.40154-0.67822 0.79834-0.67822h8.0361c0.24349 0 0.47511 0.10799 0.62842 0.29736 0.15331 0.18938 0.21216 0.43928 0.16406 0.67676l-8.3657 40.337zm41.515-3.9404c0.17435-2.1673 0.18121-4.4073-0.08935-6.6167-0.0481-0.39078 0.18675-0.76437 0.5625-0.89062 0.18337-0.0601 2.8066-0.9126 6.0381-0.9126 2.2214 0 4.7313 0.40549 6.9287 1.7432 0.32765 0.2014 0.47912 0.60152 0.35888 0.96826-0.59218 1.8216-1.1034 3.5377-1.5483 5.1489-1.7585-0.37275-3.5531-0.57715-5.3657-0.57715-2.3958 0-4.7144 0.39724-6.8848 1.1367zm-20.641-25.334c-0.5377 0.04875-1.0786-0.22155-1.3491-0.72656-1.5571-2.9158-2.5699-4.8631-3.0088-5.7949-0.32766-0.69138-0.032209-1.5151 0.65918-1.8428 0.19238-0.0902 0.3934-0.13183 0.5918-0.13183 0.52004 0 1.0164 0.29055 1.2539 0.78955 0.42084 0.88978 1.4127 2.7996 2.9487 5.6733 0.36072 0.67636 0.10499 1.5143-0.56836 1.875-0.16833 0.09018-0.34811 0.14195-0.52734 0.1582z"/>
  </g>
 </g>
</svg>
