<svg xmlns="http://www.w3.org/2000/svg" height="211.83" viewBox="0 0 250 211.83322" width="250"><g transform="matrix(1.25 0 0 -1.25 22.088 1021.6)"><g><path d="m71.066 711.62c-11.281 7.1315-30.512 20.289-33.478 29.317 5.2075 0.14039 13.901-2.2934 18.525-4.4066 3.7874-1.7319 11.584-6.7133 15.722-15.02 0 0 2.3673-0.88812 4.8514-0.45367-0.03251-1.3935-0.35318-2.7796-1.8043-3.5938 1.5575-0.78319 5.1824-0.24973 6.8301 0.41081 0.57927-0.61917 0.19358-3.9987-0.47731-4.8381 1.8147-0.19358 5.438 0.87334 7.7758 2.289 0.54085-1.8427 0.22018-4.2943-0.5704-6.072 2.4309 0.66646 4.6504 1.8546 6.4488 3.7919 1.0566-0.20245 4.0416-0.41524 5.3095 0.16107 1.2679 0.57484 5.4055 4.8292 8.3492 5.0376 0.24826 1.2974-0.16994 2.8609-0.49799 4.1938 1.2472 0.77138 2.1013 2.0334 3.2584 3.1313 7.3621 13.869 10.068 34.506 10.137 39.816 0.30146 0.0635 2.026 0.996 2.2388 1.3506 0.27929 1.2974 0.37534 2.5978 0.56301 4.0253-1.1172 1.0787-1.992 2.756-2.3481 4.4155 0.0695 2.3378 0.232 5.0671 0.57631 7.3059-0.47583 2.4722-1.0108 4.977-1.6994 7.3222-0.3916 0.91176-1.8073 1.4866-3.1875 1.3506-2.855-0.72852-5.9523-1.1955-8.658-2.4456-1.0477 1.4098-2.0112 5.5784-8.0743 8.5915-7.3768-0.0695-12.267-5.0494-13.484-5.8843-1.2708 0.85265-3.3012 5.3139-4.3593 6.5877-2.1205 0.72852-3.2687 0.962-4.2972 0.32953-1.126-0.90289-2.2521-1.4467-3.4372-2.187-1.7156 3.0678-5.9937 7.993-7.6857 9.2151-1.9166 1.3846-5.2223 2.8771-6.9173 3.2584-0.66646 0.19802-1.3979-0.51129-1.46-1.16-1.4275 0.21131-3.7017 0.14038-5.144 0.0222-2.6776 1.5694-5.2903 4.2514-9.8491 4.4302-1.6403-3.1756 0.13595-8.0433 1.2664-10.326-0.77729-0.73739-2.1974-2.3718-2.9303-3.3914 0 0 0.9886 4.2544-1.3699 7.2217-2.357 2.9658-13.396 11.379-19.624 11.133-2.0969-0.0828-3.3219-6.3912-2.5461-10.609 0.74625-4.0682 4.0859-10.703 4.0859-10.703l-0.0015-0.001c-3.7874 1.3758-7.7197 2.0526-10.49 1.324 1.3196-0.9295 2.4944-2.4471 2.8372-3.8658-4.3061 1.126-14.581 1.1556-18.792-1.0758 1.4674-1.3713 3.1328-2.2521 4.2086-3.9648-2.9732 0.74478-9.2698-0.62655-11.843-3.2791 2.0407-0.43889 4.0652-1.5043 5.1381-3.0826-3.7387-1.2989-6.3129-4.0623-8.8088-6.7045 1.6639-0.19506 3.3648-0.74182 4.5026-1.6152-2.558-1.3285-5.5075-4.8115-6.6069-7.5364 1.5265 0.16698 3.1254 0.0606 4.2573-0.44037-1.6137-2.2018-2.985-4.5514-4.0135-7.1936 1.2827 0.12708 2.1058-0.1463 2.8402-0.44036-0.91472-10.114 2.4294-21.43 7.0458-28.579 7.733-11.977 15.889-21.307 31.978-31.09 34.569-21.019 68.756-24.312 81.671-49.004 0.38125 20.894-9.1176 45.965-35.961 62.932" fill="#1d1818"/><path d="m100.33 765.63c-0.9221-0.77285-3.2126-5.2504-3.2288-7.0458-4.3549 2.5949-5.5829 6.5907-6.669 9.9067-2.3747-1.9831-7.5808-4.7805-8.9964-4.5159 0.75808 0.8822 1.0787 4.4509 0.40638 5.6198-1.8885-2.0703-5.1898-5.6449-8.5856-5.7779 0.55563 0.82309 0.99747 4.609 0.03842 5.806-1.1733-1.9417-4.3815-4.3652-7.4005-4.6696 0.15368 0.9162 0.3118 2.3008-0.65168 3.248-1.8073-2.9185-5.1647-5.4233-8.2132-5.441 0.35318 2.1708-0.16107 4.0741-1.6728 5.3184-1.5147-2.2639-3.3278-4.8928-8.1172-5.1277-0.04138 1.7275-1.6048 5.4233-3.2569 6.0011-1.3846-1.3787-2.818-6.9601-2.9658-8.395-0.21427-2.0614 0.64429-5.0376 3.1077-4.7908 2.1324 0.2128 4.2721 2.8106 5.0834 4.516 2.2269-0.69306 3.8318-4.2825 4.3726-6.2257 1.2236 0.83048 3.4948 2.9466 4.0372 5.0686 2.6998-1.7762 3.7933-5.1056 3.7845-7.6162 1.5708 1.3034 3.4195 3.718 3.9367 5.4883 2.2388-1.4112 4.2426-5.7484 3.8761-9.1279 1.3255 0.45219 2.9968 1.4615 4.1214 2.8683 2.0008-1.692 3.2096-5.2445 2.6969-7.9206 1.0817 0.18915 4.2071 2.32 4.98 3.7933 1.0034-1.5442 1.7866-6.9438 1.4142-9.0408 2.1471 1.3137 5.4883 5.0804 6.7473 7.4581 0.65907-1.1689 1.4408-3.6559 1.5117-5.4351 4.0401-1.0669 9.1634-3.1328 12.407-4.6962 4.3564-2.0998 12.179-6.5286 15.948-10.192 2.3245-2.2565 2.9643-5.2016 3.4978-7.3916 2.1324 2.0836 1.8885 7.8527 1.2871 9.0866 2.0171-1.3536 3.6308-2.9348 5.5504-3.5096 3.2377-1.2753 8.1497-1.8826 11.619-1.6905 4.6711 1.064 12.122 3.7933 15.917 4.8588 1.6536 0.69305 4.4775 1.6521 6.3779 1.6876 3.2687 0.3384 6.2508 0.71374 9.4516-0.35466 2.19-0.3384 5.3996-1.3137 7.3015-2.3984 0 0-1.2117 3.8924-3.251 6.502-0.37239 0.53198-2.8786 5.1159-11.59 3.9308 1.8368 0.75956 4.7184 4.5603 5.0686 6.3468 0.35465 2.589-0.26452 5.4262-1.5974 7.0399-1.5073-8.562-8.9772-12.946-13.687-12.892-4.0312 0.0458-6.7311 0.73591-10.62 2.852-4.807 2.6156-5.1454 6.7916-10.743 9.2373 0.76399-1.5221 0.90585-4.578-0.34874-6.0114-1.8723 2.7131-10.199 10.963-13.526 13.159-3.5525 2.3437-12.364 8.8102-19.419 10.473" fill="#d82342"/><path d="m95.244 27.357c-1.012-0.038-1.835 0.131-2.43 0.475-1.692 0.977-6.694 5.251-4.427 8.707 0 0 1.363-0.588 3.675-1.246 3.957-1.125 9.018-0.881 14.758-1.498-1.71-1.23-3.39-3.409-5.13-4.35-2.547-1.382-4.759-2.023-6.446-2.088zm24.916 43.993c-4.11 0.042-8.32 0.404-9.94 0.951-2.92 0.591-0.52 0.57-3.33 1.484-0.27 0.973 1.14 0.536 1.52 0.985 0.42 0.085 4.99 0.974 6.67 1.343 7.99 1.23 16.45 2.544 23.6 6.571 3.25 1.887 7.6 5.218 9.26 7.529 1.65 2.313 3.14 4.885 2.43 8.709 5.15 0.262 9.06-3.736 10.3-7 2.49 0.955 3.48 1.93 5.19 2.998 5.59 3.487 10.58 9.58 16.06 12.86 7.62 4.55 19.08-0.96 21.1-3.42-6.46-0.65-15.89-4.28-20.37-7.178 1.47-0.486 2.5-1.354 2.88-2.553-3.01-0.242-11.93-7.515-13.49-8.483-8.08-4.994-21.2-10.451-21.2-10.451 0.27-0.811 0.15-2.804-0.32-3.373-1.57 1.533-7.01 1.89-10.72 1.192-3.71-0.699-10.21-1.518-12.93-1.868-1.82-0.232-4.25-0.322-6.71-0.296zm112.77 14.179c0.73 3.547 1.17 10.275-4.34 16.731 0.3 0.06 0.64 0.03 0.98-0.05 12.81-0.51 14.7 10.17 14.7 10.17-6.59-3.78-12.61-3.5-20.26-1.83-6.08 1.32-8.67 1.34-13.39-2.87 1.03 3.42 3.47 5.65 6.15 6.56-9.73-2.64-16.99 7.93-29.18 4.86 7.45 3.54 14.69 0.79 20.4-1.33 7.77-2.87 21.85 3.4 27.38-1.89-4.06 0.02-10.78-1.42-14.51-2.51 0 0 1.78-0.9 10.16-1.11 8.37-0.22 15.34 5.51 18.12 9.05 0.18-10.57-7.24-21.617-18.26-19.63 3.49-2.112 7.29-9.269 2.05-16.151z" transform="matrix(.8 0 0 -.8 -17.67 817.24)" fill="#cfc580"/><path d="m55.987 788.53c0.80093 2.2166 2.1087 4.5411 3.5229 5.8636-0.38421-1.8043-0.21723-3.6544 0.45662-5.3982 0 0-2.8269-0.43593-3.9795-0.46548" fill="#1d1818"/><path d="m99.082 29.143c3.768 1.208 2.458 4.181 2.458 4.181 3.45-2.872-2.458-4.181-2.458-4.181zm32.248 19.263c-0.72-0.026-1.46 0.047-1.99 0.102-3.04 0.312-24 4.745-27.82 5.375-3.832 0.63-15.605 3.32-23.002 3.801 2.835 1.263 4.7 4.192 4.859 6.627 1.52-0.763 4.549-2.79 6.768-7.436 3.644 1.626 5.864 4.291 6.22 6.904 2.221-0.829 4.795-3.679 6.915-9.047 1.66 1.214 3.98 4.758 3.74 6.112 2.62-0.876 5.62-4.308 6.87-7.596 2.72 2.374 3.53 4.455 3.65 8.445 2.18-1.592 5.74-5.59 7.45-9.752 2.36 2.756 3.17 6.916 2.85 10.284 2.63-1.77 5.39-8.875 5.7-12.309 0.1-1.143-1.01-1.465-2.21-1.51zm12.88 1.625c-0.27 0.017-0.54 0.056-0.79 0.121-2.01 0.521-3.1 2.032-3.57 3.055-1.28 4.873-1.05 10.677 2.06 14.379 1.31-3.323 5.75-12.118 8.89-13.869 0.24 2.13 1.9 5.315 3.02 6.58 1.21-0.685 2.31-1.783 2.94-2.66 0.53 1.276 1.22 2.944 1.97 3.976 0.96-0.384 2.35-1.841 2.96-2.759 1.09 1.084 1.89 3.238 2.37 4.664 0.93-1.002 2.49-2.334 3.81-2.909-0.76 2.801 0.68 7.742 2.47 10.053 1.42-3.088 2.09-8.862 0.35-10.537-3.77-1.016-9.16-2.746-11.37-3.568s-6.55-3.058-9.5-4.875c-1.26-0.778-3.68-1.765-5.61-1.651zm-60.151 25.819c-1.096 1.958-5.194 4.426-7.241 4.81 2.712 0.558 5.614 1.158 8.311 2.002 1.668-1.888 0.354-5.065-1.07-6.812zm10.507 2.035c-0.956 2.263-4.402 4.801-7.263 5.345 0 0 6.417 2.018 10.562 4.133 8.785 4.278 19.055 13.707 22.095 17.407s3.19 5.12 6.13 5.83c1.03 0.21 2.16 0.31 2.98-0.29 2.97-3.29 4.36-8.45 3.11-12.943-2.95 3.693-7.54 7.563-10.73 6.823 0 0-1.05-0.31-1.07-0.87 1.69-2.5 2.01-6.056 1.25-8.882-1.51 1.398-5.78 2.895-8.57 1.919 0.68-1.182 1.55-6.399 0.2-8.326-1.25 1.147-5.57 3.179-8.68 1.739 1.18-2.199 1.04-7.093-0.51-8.969 0 0-2.1 3.784-3.88 4.576-1.559 0.694-2.99 1.154-4.942 0.268 0.303-1.526 0.752-5.651-0.682-7.76zm44.834 31.035c-1.15 0.71-5.97 3.78-6.82 5.68 0.95 0.86 5.33 1.92 7.28 0.55 1.41 1.08 4.41 1.47 7.05-0.38 1.37 0.82 3.37 1.99 4.98 2.04 2.41 0.07 5.15-2.11 6.78-4.02-0.8-0.89-2.87-2.36-4.98-2.61-0.77 1.17-3.75 2.9-5.43 2.51-0.07-0.99-0.64-2.02-1.24-2.84-1.49 1.54-4.37 3.67-5.93 3.43-0.62-0.29-1.6-2.5-1.69-4.36z" transform="matrix(.8 0 0 -.8 -17.67 817.24)" fill="#fff"/><path d="m49.174 4.9648c2.069 2.0208 4.645 4.8618 4.387 7.0492-0.542 0.478-1.699 0.835-3.079 0.816 2.014 1.526 4.401 4.901 4.77 6.207 0.371 1.304-0.724 1.449-2.111 2.264 0.419 0.362 7.255 1.061 7.994 4.385 1.215 0.349 2.189 0.57 3.412 1.046 0.155-0.877-0.008-2.043-0.014-3.064-0.678-1.674-5.829-2.846-7.406-3.027 1.398-1.044 2.73-1.843 4.426-1.862-1.162-1.313-3.205-2.646-5.914-3.558 0.576-0.599 3.974-0.621 6.009 0.232-0.903-1.986-4.812-5.45-8.009-8.1132 5.863 1.8657 13.146 8.0832 15.906 11.232-2.139 2.536-1.858 7.837-0.615 9.727 0.002-3.273 0.522-7.636 2.066-9.805-3.321-5.026-13.447-12.576-21.822-13.529zm48.154 12.574c-4.234-0.164-10.608 0.917-12.488 1.391-4.601 3.26-2.754 10.674-6.639 14.384 2.176-0.036 3.241 1.649 4.545 1.207-0.133-2.611 3.178-8.257 5.803-10.027 1.976-0.922 4.706-0.989 7.646-0.664-0.009-1.125-1.172-2.568-1.172-2.568 4.362 0.201 12.267 6.507 14.487 8.195 2.19 1.664 4.07 2.639 4.07 2.639-0.83-1.426-1.02-4.727-2.38-5.914-2.42-1.842-7.68-6.877-10.6-7.994-0.687-0.401-1.86-0.594-3.272-0.649zm-51.709 11.365c0.491 1.286 1.443 2.556 1.565 3.963 0.988-1.614 1.619-2.808 1.619-2.808-0.405-0.337-2.09-1.046-3.184-1.155zm76.021 1.278c-0.88 0.116-1.98 0.88-2.63 1.73 1.52 0.416 3.11 0.428 4.78 0.6l0.08-0.123-2.23-2.207zm24.89 0.05c-2.18-0.065-4.72 0.604-4.72 0.604-1.86 0.233-4.22 3.146-5.93 3.744 0.04 0.853 1.88 2.936 2.03 3.385-0.11 0.282-0.34 0.646-0.57 0.808-2.38-0.945-7.29-2-9.58-2.277-4.57-0.554-15.82 0.283-19.35 0.383-6.67-0.733-15.688 0.572-19.951 1.549-3.888 0.89-8.794 2.842-11.459 4.174 0.8-1.327 1.066-2.752 1.027-3.928-3.336-3.089-13.019-7.175-20.226-5.899-1.319 0.767-2.877 2.274-3.717 3.61-1.337 2.224-2.234 4.515-2.773 7.068-0.778 7.409 4.728 13.362 8.199 16.055-0.54 0.238-1.428 0.682-2.922 0.347-0.726 2.023-0.994 5.043-0.449 7.551-0.723 0.867-2.322 1.577-3.498 1.885 0 0 11.169 14.245 14.603 18.49 5.228 0.032 11.848 1.09 15.973 2.074 4.126 0.985 14.925 5.153 23.153 10.325-9.473-9.17-22.885-14.322-25.804-15.155-2.92-0.833-7.958-1.592-10.156-1.81 0 0-5.497-7.488-6.191-10.481-0.695-2.992 2.853-15.428 3.861-19.652l0.002-0.006c5.154 1.825 12.467 1.279 19.486 0.145 7.259-1.172 39.462-8.816 50.442-8.86 4.8 0.344 9.37 1.542 13.28 4.369 3.7 2.664 12.58 6.308 19.77 6.831-0.75-0.737-1.13-2.411-0.86-3.477 0.4-1.596 0.24-4.255 0.13-4.996-0.1-0.741-0.36-1.931-0.62-2.42-0.46 0.118-0.88 0.277-1.18 0.723 0.6 1.097 1.24 2.12 1.2 3.461-0.04 0.201-0.23 0.282-0.38 0.361-1.42-1.925-5.01-5.389-6.69-6.621 0.76-1.092 1.98-1.692 2.97-2.865 1.33-0.885 2.81-0.024 4.21-0.706 0.25-1.305-1.63-1.081-2.24-1.037-2.33 0.163-9.79 4.106-9.5 6.973-0.04 0.406-0.5 0.363-0.69 0.361-0.75-1.344-0.59-4.921-1.61-6.105-2.37-3.022-4.6-5.675-7.32-8.617-0.54-0.237-1.23-0.342-1.95-0.364zm-115.17 2.774c-2.071-0.01-4.151 0.209-5.986 0.484 1.834 0.613 2.776 2.539 3.365 3.795 2.875-1.04 5.624-2.594 8.561-3.389-1.805-0.641-3.868-0.88-5.94-0.89zm114.61 1.639c3.14 1.686 6.84 6.58 7.57 7.445 0.47 0.552 1.56 2.158 0.8 3.006-1.59-0.702-2.64-2.171-4.04-3.479-0.26-0.408-0.71-1.018-1.36-1.103-0.26 0.779 1.28 2.159 0.82 2.726-1.36-0.74-2.32-1.81-3.93-2.545-1.61-0.737-3.68-1.335-5.19-1.699 1.67-1.491 3.16-3.838 5.33-4.351zm-106.25 3.384c-1.104 0.037-1.981 0.133-1.981 0.133s-5.831 3.286-8.515 4.873c-0.856 1.712-1.406 3.486-1.774 5.383h3.487c2.51-2.08 6.352-4.003 9.289-5.594 0 0 2.11-2.801 2.843-4.574-0.912-0.236-2.245-0.258-3.349-0.221zm-18.547 2.18c-1.789 0.026-3.372 0.164-5.162 0.439l3.914 2.631c0.981-0.916 2.266-2.201 3.121-3.058-0.658-0.016-1.277-0.021-1.873-0.012zm3.955 4.969c-1.286 1.162-5.421 5.329-6.664 7.017 1.156-0.354 2.4-0.888 2.4-0.888l3.551-3.108s0.447-2.133 0.713-3.021zm17.859 0.609c-2.752 1.286-6.231 3.062-8.8 4.899-0.305 2.201-0.356 4.174-0.315 6.296 1.286 0.427 2.325 1.407 3.672 1.59l8.381-5.138c0.426-1.591 1.466-3.366 1.896-5.139-1.555-1.341-2.977-1.872-4.834-2.508zm-27.894 2.936c-1.652 0.367-3.059 1.529-4.526 2.386l2.508 0.856 2.018-3.242zm13.728 3.089c-1.556-0.01-3.338 0.383-3.338 0.383s-5.939 5.94-7.88 8.701l-0.124 4.893 2.752-0.305c2.572-2.63 5.444-5.506 8.688-7.525 0.183-0.427 0.294-4.61 0.551-6.115-0.208-0.021-0.426-0.03-0.649-0.032zm-18.105 6.735c-0.49 0.55-3.0329 2.719-3.3986 3.33l1.5976 0.6c0.1829-0.736 1.557-3.197 1.801-3.93zm20.183 1.998c-1.315 0.637-5.683 4.707-5.683 4.707s-0.267 1.421-0.178 2.488c1.866-1.954 6.591-6.126 8.793-7.105l-2.932-0.09zm-16.968 3.043c-2.202 2.998-2.876 6.669-3.975 10.094 0.859-2.817 4.068-7.098 4.068-7.098s0.136-2.015-0.093-2.996zm5.693 5.836c-0.927 0.001-1.87 0.092-2.67 0.269-1.897 3.12-4.277 6.763-5.562 10.19-0.183 2.017 0.412 4.466 1.164 6.359 2.179-5.623 4.487-10.865 9.638-16.549-0.734-0.183-1.643-0.271-2.57-0.269zm23.893 1.471c-1.186 1.924-2.205 7.173-2.508 9.136 3.718-0.101 9.432-0.567 11.351 0.067-2.008-1.966-6.093-4.999-8.843-9.203zm6.324 13.209c-3.843-0.034-7.56 0.601-8.875 1.787 0.055 2.639 0.147 5.411 1.144 7.755 5.564-2.307 11.408-4.329 17.657-2.546-0.712-1.689-1.456-4.073-3.366-6.188-1.904-0.527-4.254-0.788-6.56-0.808zm7.254 10.576c-4.354-0.025-10.34 1.129-13.67 3.527 0.711 4.973 4.472 11.343 4.472 11.343s10.315-4.91 19.481-5c-2.492-2.95-4.538-6.272-6.633-9.456-0.93-0.268-2.199-0.406-3.65-0.414zm13.799 13.74c-7.129 0.37-14.329 2.28-20.266 6.32 1.866 4.46 5.534 8.54 8.676 12.41 5.959-4.91 13.799-6.59 20.613-9.55-3.212-2.7-6.072-6.03-9.023-9.18zm47.695 4.45c1.09 2.52 3.21 4.38 5.87 5.42 4.27 1.2 9.05 3.35 12.51 3.98 3.45 0.64 7.11 1.06 8.87 1.04 1.76-0.01 5.15-0.65 8.32-2.59-2.1 0.22-4.97-0.54-6.78-1.64-1.7 1.6-6.28 1.91-7.6 0.05-3.9 0.99-7.31-0.36-9.28-1.75-2.84 0.14-7.91-1.15-11.91-4.51zm-35.367 9.02c-7.93 1.17-13.963 4.52-20.149 10.24 1.866 3.53 6.098 6.76 9.227 9.7 8.589-5.71 18.22-8.03 28.249-8.31-4.19-3.69-12.715-8.92-17.327-11.63zm19.297 15.99c-8.048 0.11-17.868 3.36-26.182 7.99 0 0 5.222 6.17 14.48 9.26 10.132-5.7 22.282-6.46 29.202-5.7-3.32-4.27-9.73-9.5-14.16-11.4-1.07-0.12-2.19-0.16-3.34-0.15zm18.8 16.74c-7.36-0.08-18.48 2.32-24.09 5.02 0 0 14.72 6.17 22.79 10.92 4.42-0.34 12.45-1.02 15.91-0.87 0 0-3.17-9.49-11.71-14.88-0.87-0.12-1.85-0.18-2.9-0.19zm14.81 21.21c-2.75-0.01-6.34 0.42-8.86 0.55 7.39 3.12 13.72 7.08 16.57 9.93-0.31-3.17-2.51-8.11-5.3-10.29-0.66-0.13-1.49-0.18-2.41-0.19z" transform="matrix(.8 0 0 -.8 -17.67 817.24)" fill="#00704a"/></g></g></svg>
