<svg xmlns="http://www.w3.org/2000/svg" viewBox="0 0 250 144.09079"><g transform="matrix(1.25 0 0 -1.25 24.896 494.88)"><g><path d="m179.14 368.12-6.3125 3.4505c-3.0842 1.4054-9.2255 4.6458-10.709 5.4446-2.4085 0.81684-4.3605 2.4505-6.9431 3.0872-2.3184 1.2252-4.859 1.952-7.3125 2.904-1.949 0.95498-4.2644 1.1382-6.2164 2.1802-6.6728 1.8169-13.301 3.8109-20.016 5.4476-0.40842-0.048-0.54656 0.63365-0.90693 0.13514-0.27628-5.7629-0.27628-12.982-0.41142-19.064 0 0 3.5707-1.1652 4.7659-1.5436 1.4535-0.45346 1.5886-2.2253 1.7718-3.3574 0.36337-1.6367 0.54355-3.2674 1.0901-4.8109 0.63365-5.2194 1.7688-11.03 2.4025-16.205 0.18319-0.90993 0.54656-2 0.0931-2.8589-1.5886 0.27027-2.8619 1.1772-4.3605 1.6337-1.4955 0.49851-3.1292 1.1802-4.4446 1.5436-0.50151-6.3575 0.18019-13.484-1.0901-19.61-0.54656-1.2703-0.27328-2.8139-1.0901-3.949-2.4055-0.22824-4.2223 1.1802-6.5377 1.7718-0.54355 0.18019-1.2222 0.0421-1.6337 0.54356-0.13214 16.793 0.5916 31.409 0.63365 47.614l0.22823 0.95197c2.4085-0.18018 4.7689-0.90693 7.0843-1.0871 0.36337 5.9461 0.18018 12.481 0.54355 18.427l-0.31832 0.63665c-1.4985 0.0451-2.904 0.27028-4.2644 0.63665-3.4505 0.0871-5.6338 1.2223-9.1714 1.0871-3.949 0.86188-8.0332 0.86188-11.982 1.4535l-6.1743 0.31832c-8.0332 0.31533-16.115-0.18318-24.1 0l-0.31833-0.22823-0.09309-4.5857c0.04505-1.994-0.04505-3.901-0.31833-5.7629-0.18018-0.048-0.22523 0.13514-0.36037 0.22523-0.45346 2.907-2.0421 5.4926-2.8169 8.3996-0.22523 0.45347-0.27028 1.0421-0.54356 1.4955-11.754-1.0871-22.556-2.3604-33.68-4.9911-0.63665-0.40842-1.5886-0.13814-2.1802-0.6817-8.0332-1.7688-15.52-4.856-23.055-7.808-0.95498-0.22523-1.6817-0.90693-2.6337-1.0871-4.7659-1.8169-9.1684-4.6308-13.934-6.4476-0.77179-0.67869-1.907-0.67869-2.4986-1.4054-0.18018-7.0813-0.54356-15.478-0.54356-22.877 1.907 1.0901 3.859 2.0421 5.7659 3.2704h0.63365c0-4.7689 0-10.123-0.31833-15.027 0-5.9912-0.36337-13.208-0.54356-18.973-0.36337-7.808-0.77179-16.292 0.31833-23.646 0.63365-4.901 2.5887-10.304 7.3996-12.394 2.2673-1.4475 5.4476-0.95198 7.9882-0.45046 7.7149 2.8139 14.163 8.9402 19.379 15.478 3.0421 4.4476 5.9491 8.9402 7.1714 14.163 0.54656 0.95198 0.63665 2.4055 1.2283 3.4926 0.40842-4.4025-0.31833-10.213-0.22823-14.616 3.4505 1.2733 6.808 2.7238 10.352 3.8139 6.9431 2.6787 14.295 4.3575 21.649 5.9911 0 5.6728 0.45346 10.487 0.45346 16.478l0.22823 0.31532 0.22523-0.22523c1.4985-4.7659 3.4505-9.3065 4.9941-14.072 0.40842-0.63665-0.04505-1.997 1.1802-1.949 5.3575 0.72374 10.892 0 16.478 0.22523 1.3604-0.048 2.6757-0.27328 3.901-0.63665 3.949-0.49851 7.6278-1.6337 11.439-2.4055 0.90993-0.49851 2.0901-0.31532 2.952-0.99702 4.1322-0.77179 7.7179-2.7688 11.757-3.6758 6.1263-2.6367 12.253-5.2194 18.199-8.3095 0.86188 0 1.4054-0.81384 2.2703-0.86188-0.0451 2.0901 0.045 4.2223 0.31832 6.4476 0.45347-1.8169 0.54056-3.6788 0.77179-5.6728 0.59161-4.0872 0.95198-8.76 1.8589-12.982 6.1743-0.0481 11.577-0.31833 17.658-0.22824 0.18018 0.72675 0.49851 1.4054 0.54356 2.1772 0.31832 1.1832 4.4956 17.478 4.6758 18.883 0.77179 3.0391 10.123 45.392 10.892 45.935 2.2703-1 4.2223-2.7238 6.5347-3.5857 0.36638 7.2614 0.27629 15.706 0.23124 23.013m-164.72-36.42c-0.13214-2.5406-0.27028-5.2194-0.40542-8.0783-0.31833-1.997-0.63665-4.856-1.4535-7.0813-0.90693-3.0872-3.0391-6.0812-5.7629-8.0332-0.72675-0.0931-1.3184 0-1.4985 0.76879 0.13514 6.3125 0.090092 11.847 0.40842 18.523 0.090092 11.21 0.6787 21.559 0.77179 32.68 0.27028 0.90693-0.045046 2.3574 1.1802 2.5856 2.3574 1.2253 4.856 1.907 7.3065 2.8589l0.22823-0.90392c-0.09009-11.442-0.6817-21.472-0.7748-33.319m23.334-1.7268s-0.22823-4.5827-0.45647-6.7599c-0.49851-0.81683-1.5856-0.68169-2.2673-1.3184-1.4084-0.36037-2.7238-1-4.0391-1.5436 0.45346 2.1352 0.6787 22.106 1.1802 31.502 0.09009 6.0362 0.27028 12.574 0.54356 19.154 0.54356 0.81984 1.907 0.6817 2.8589 1 0.90993 0.31833 1.8619 0.45347 2.8139 0.63365l0.22823-0.31532c-0.454-13.66-0.409-27.91-0.862-42.35m16.883-2.0871c0.31833 6.5377 0.18319 12.214 0.54656 18.613 0.5886-0.54656 4.9461-13.394 6.3095-17.748-1.4535-0.63665-6.4927-1.4084-6.856-0.86488m15.478 44.44c0.04805-2.5886-0.18018-4.9941-0.22523-7.4897-0.31833 0.6787-0.77179 1.4955-0.86188 2.3604-1.1352 2.9941-2.2703 5.901-3.1773 8.9432 1.2253 0.40542 2.7688 0.13514 4.1292 0.22523 0.54356-1.5436-0.09009-2.4986 0.13514-4.0391m22.424-15.568c-0.36337-9.4417-0.13814-17.703-0.6817-27.328v-0.36337c-1.6787 0.13814-3.6758 0.22823-5.5377 0.36337-0.40842 1.5015-0.13514 3.7238-0.22523 4.9941 0.22523 14.478 0.45347 27.325 0.86188 41.716l0.13514 0.13514c1.7718-0.41142 3.8139-0.13514 5.5377-0.6817 0.54356-6.4896-0.18018-12.394-0.09009-18.835m58.509-18.43c-0.40842 2.0421-3.1803 20.652-3.7238 23.241l0.0901 0.54356c1.952-0.40842 3.7238-1.3154 5.4476-2.1772 0.6817-0.5916 1.6787-0.63965 2.0871-1.5466 0.13814-3.0391-3.4475-18.154-3.901-20.061"/><path d="m118.75 6.0234c-3.21-0.0121-6.34 0.075-9.38 0.3946 0.11 3.63-0.18 7.091 0 10.781 3 0.282 6.74-0.907 8.44 2.043 0.58 14.824-0.05 50.894-0.67 52.707 0 0-13.91-39.088-20.033-55.826-0.57-3.123-2.102-5.845-2.837-8.8515-6.187 0.8521-11.97 1.5317-18.1 2.5527-1.926 0.3978-3.972 0.3408-5.729 1.1328l-0.285 11.006 0.285 0.683c2.44-0.285 5.391-1.816 7.602-0.285 0.398 0.567 0.51 1.193 0.852 1.76 0.225 15.999-0.398 29.273-0.567 45.899-0.627 8.059 0.849 15.89-1.193 23.834-1.986 3.006-5.73 3.006-8.455 4.763-0.113 2.383-0.398 4.543-0.282 6.693 0 1.59-0.626 3.69 0 4.88 7.831-3.12 16.228-5.73 24.625-7.89 0.849-0.39 1.984-0.17 2.723-0.84-0.116-3.184 0.169-6.87 0.281-10.331l-0.281-0.568c-2.669 0.281-4.881 1.701-7.49 0.853-2.328-3.236-1.077-20.541-1.194-24.002 0.684-4.764-0.224-9.419 0.399-14.693 0.51-8.458 0.113-16.227 0.684-25.192 1.415 3.176 2.664 6.637 3.685 10.098l0.285 0.285c6.979 20.594 14.635 40.906 21.905 61.391 3.51 0.225 8.05-0.398 11.29 0l0.4-0.285c0.16-17.872 0.73-39.322 1.13-55.944 0.45-8.908-0.57-16.398 1.19-24.228 1.64-2.211 4.88-1.532 7.37-1.645l0.12-10.496-0.28-0.3964c-5.61 0.0353-11.14-0.263-16.49-0.2832zm20.17 0.5664c-0.51 3.6862-0.16 7.3182-0.28 11.008 2.16 0.169 4.37 0.111 6.13 1.076 1.41 0.739 1.93 2.327 2.04 3.799 0.11 12.316-0.05 23.89-0.51 36.259-0.4 10.158 0.28 20.031-1.13 29.389-1.71 2.553-5.68 0.852-7.89 0.965v11.004c15.26 3.01 29.84 7.66 43.74 13.9 0.4-0.05 5.34 2.55 7.49 3.13 0.51-7.16 0.06-14.87 0.4-22.472 0.11-7.038 0.28-13.96 0.4-21.224-1.76-1.588-4.37-1.816-6.41-3.006 0 4.482-0.46 8.907-0.69 13.107-1.13 4.764-0.45 10.778-5.27 13.62-7.04 0.961-12.94-3.123-19.52-4.37-0.23-12.65 0.4-24.287 0.57-36.937 0.62-11.971-0.23-22.471 1.25-33.59 1.7-3.176 5.67-0.964 8.56-0.848 0.23-3.69 0.11-7.774 0.11-11.408-4.42-0.6793-9.47-1.3596-13.72-2.0428-5.33-0.2815-10.1-1.1341-15.27-1.3594zm-71.772 4.8792c-8.678 2.496-17.132 4.254-25.589 7.377-0.395 4.084 0.001 8.392-0.393 12.48 2.38-0.454 4.763-2.21 7.203-1.361 0.909 0.341 0.852 1.304 1.246 1.928 0.458 13.446-0.506 26.271-0.562 39.492-0.117 16.851 1.755 37.845-16.342 45.495-1.025-0.11-1.704 0.69-2.838 0.41-3.915-1.42-4.256-6.25-4.369-9.82-0.454-11.974 0.282-24.682 0.398-36.199 0.173-10.897 0.112-20.936 1.077-30.812 1.077-4.253 5.672-5.104 8.851-6.805 0.113-4.144 0.4-7.948 0.283-12.539l-0.283-0.396c-9.647 4.084-19.459 8.223-28.709 13.103-0.1125 5.106-0.3975 9.588-0.2812 14.299 2.1548-0.908 3.8592-2.726 6.4082-2.609 1.306 0.567 1.418 2.272 1.475 3.402-0.226 23.492-0.51 45.221-0.795 68.376 0.683 6.92 0.341 14.4 6.017 19.17 2.722 1.53 5.333 0.63 8.284-0.28 13.104-7.38 23.489-20.15 27.119-34.73 0.908-2.32 0.852-5.327 1.591-7.598 0.68-5.162 0.905-10.721 0.965-16.454 0 0-0.173-5.391 0.168-8.627 0.057-13.844 0.283-25.474 1.078-39.712 0.113-2.271 2.099-3.858 4.084-4.541 1.194-0.398 2.497-0.737 3.803-1.079l0.111-8.851c0.229-1.134 0.229-1.986 0-3.119zm114.78 1.644c-0.06 3.63-0.34 7.887-0.22 11.971 2.26 0.567 4.64 1.193 6.12 3.404 3.29 7.774 3.58 16.795 4.99 25.305 4.54 26.044 7.16 52.767 9.82 78.987 0.17 0.96 0.17 2.55 0.57 3.4 3.74 0.56 8 0.11 11.85 0.45 0.74-0.85 0.8-2.5 1.2-3.69 5.96-21.9 10.66-43.795 15.94-65.924 1.65-5.278 1.42-11.518 4.88-15.944 2.16-0.454 3.97 0.623 5.62 1.813 0.28-4.876 0.56-9.756 0.28-14.865-4.03-2.324-8.17-4.483-12.25-6.694-3.86-1.531-7.38-3.915-11.35-5.277-0.85-0.398-1.76-1.245-2.72-1.076-0.24 4.084-0.06 9.135-0.12 13.047 2.27 1.422 4.82 2.102 6.81 4.087 2.55 2.155 1.7 5.616 1.48 8.567-3.58 17.305-7.77 34.386-11.81 51.456-0.39 1.26-0.34 2.67-1.13 3.69-0.8-5.16-1.59-10.324-2.44-15.486-1.59-11.633-3.41-23.66-5.17-35.688-0.33-0.566 0.12-1.419-0.39-1.929-0.57-4.539-1.08-8.683-1.65-13.049-0.05-1.986-0.68-4.824 1.08-6.412 2.78-0.398 5.11 1.646 7.49 2.156 0.12-4.14 0.4-8.057 0.28-12.482l-0.28-0.567c-9.47-3.348-19.23-6.584-28.88-9.25z" transform="matrix(.8 0 0 -.8 -19.917 395.9)" fill="#cf0a2c"/></g></g></svg>
