<svg xmlns="http://www.w3.org/2000/svg" height="264.72" viewBox="0 0 350.28751 264.72061" width="350.29"><g transform="matrix(1.25 0 0 -1.25 -208.86 568.69)"><g><path d="m33.303 1.0742v3.4063 71.736l106.77 0.001v-71.736-3.4068h-3.4-99.963-3.404zm183.23 0v3.4063 71.736l106.77 0.001v-71.736-3.4068h-3.41-99.96-3.4zm-76.46 161.03c-35.85 2.03-71.564 6.94-106.77 14.74l0.003 25.08c-0.13 2.99-0.07 17.43 12.125 31.63 15.655 18.22 43.909 28.07 83.992 29.24h0.05 0.05 97.61 0.05 0.05 0.15c39.96-1.18 68.14-11.02 83.79-29.24 11.91-13.86 12.31-27.6 12.13-31.63v-25c-35.2-7.82-70.92-12.74-106.77-14.8v24.55c0 9.69 0 16.7-3.37 20.72-3.56 4.22-11.75 6.12-26.58 6.12h-16.56c-14.83 0-23.03-1.9-26.57-6.12-3.38-4.02-3.38-11.03-3.38-20.72v-24.57z" transform="matrix(.8 0 0 -.8 167.08 454.95)" fill="#00263A"/><path d="m39.713 7.627v68.611h93.957v-68.611h-93.957zm183.22 0v68.611h93.96v-68.611h-93.96zm-89.26 154.86c-31.53 2.1-62.936 6.44-93.957 12.99v26.59c-0.08 1.43-0.468 14.34 10.533 27.16 14.424 16.8 41.089 25.89 79.274 27.01h97.61 0.07c38.1-1.12 64.73-10.21 79.15-27.01 10.74-12.51 10.67-24.81 10.54-27.12v-26.57c-31.02-6.57-62.42-10.92-93.96-13.02v24.14c0 20.83 0 33.38-36.35 33.38h-16.56c-36.35 0-36.35-12.55-36.35-33.38v-24.17z" transform="matrix(.8 0 0 -.8 167.08 454.95)" fill="#8A8D8F"/><path d="m413.74 339.56c-0.014 2.465-0.025 4.924-0.037 7.391 9.756-1.182 19.492-2.526 29.195-4.037-0.004 6.205-0.008 12.414-0.014 18.619-9.742 0.886-19.498 1.677-29.275 2.371-0.009 2.086-0.021 4.176-0.031 6.26 10.395-0.543 20.779-1.17 31.148-1.883v0.877c0 6.244-0.006 12.488-0.006 18.734v0.188c-86.244-0.03-177.53-0.034-263.77-0.088-6.896 0.054-12.71-5.752-12.707-12.678v-21.729c0-3.697 3.123-7.463 6.854-8.945-2.221-0.328-4.442-0.664-6.66-1.006v-16.103c0.002-5.631 5.64-10.985 12.253-9.387 11.49 2.666 23.044 4.957 34.643 6.873 5.814 1.027 14.798 7.023 14.837 12.799 0.045 6.324 0.087 12.654 0.13 18.98-0.051 4.338-3.977 6.678-8.684 7.68 2.611 0.148 5.227 0.295 7.842 0.436 0.014 2.158 0.029 4.314 0.045 6.474 5.786 0.221 11.573 0.416 17.366 0.584-0.095-14.238-0.185-28.476-0.276-42.715 8.279 0.905 16.572 1.619 24.873 2.147 7.353 0.443 14.712 0.74 22.07 0.89 1.529 3.457 3.055 6.901 4.579 10.334 7.521 0.073 15.044 0.02 22.565-0.16 1.562-3.47 3.127-6.953 4.693-10.453 16.495-0.625 32.972-1.992 49.374-4.103-0.097 14.582-0.199 29.164-0.297 43.75 3.242-0.116 11.527-0.237 14.774-0.366 0.1-14.912 0.2-29.818 0.304-44.726 18.986-2.791 37.858-6.582 56.545-11.373v19.015c-10.734 2.028-21.514 3.811-32.33 5.35m-210-0.041c-3.351-0.453-6.698-0.926-10.045-1.424 0.01 2.231 0.02 4.463 0.03 6.692 3.347 0.173 6.697 0.335 10.047 0.484-0.01-1.918-0.02-3.834-0.032-5.752m0.354 25.83c-4.169 0.09-8.402 0.18-11.067 0.232 0.008 1.852 0.016 3.706 0.026 5.555 3.691 0.192 7.386 0.377 11.079 0.551-0.013-2.111-0.023-4.223-0.038-6.338m145.58 7.027c0.064-11.849 0.129-23.693 0.197-35.541-6.016 12.286-12.018 24.18-17.992 35.862 5.931-0.078 11.863-0.188 17.795-0.321m-35.295-14.834c-3.264 0.036-6.529 0.049-9.791 0.049 1.691 3.731 3.382 7.457 5.069 11.186 1.569-3.738 3.144-7.479 4.722-11.235m-25.035 15.211c-5.922-11.474-11.873-23.078-17.844-34.986 0.049 11.588 0.098 23.184 0.15 34.772 5.898 0.099 11.796 0.169 17.694 0.214" fill="#8A8D8F"/><path d="m43.85 11.906v64.332h85.67v-64.332h-85.67zm183.22 0v64.332h85.67v-64.332h-85.67zm-61.78 74.569c-11.01 21.285-22.11 42.685-33.26 64.925 7.76-0.44 15.53-0.74 23.3-0.92 1.91-4.33 3.82-8.64 5.72-12.94 11.22-0.14 22.44-0.06 33.65 0.22 1.95 4.35 3.91 8.71 5.87 13.1 8.78 0.35 17.55 0.86 26.31 1.54-11.17-22.8-22.3-44.52-33.35-65.916-9.41-0.01-18.83-0.017-28.24-0.009zm32.54 0.017c2.23 4.439 4.47 8.895 6.71 13.375 9.15 0.103 18.31 0.243 27.47 0.433 0.1 17.51 0.2 35.03 0.3 52.54 7.83 0.65 15.64 1.45 23.45 2.37-0.12-18.11-0.24-36.22-0.37-54.34 6.58 0.19 19.46 0.4 26.03 0.63 0.13 18.78 0.26 37.54 0.38 56.32 21.21 3.1 42.29 7.16 63.2 12.18-0.01-5.35-0.01-10.69-0.01-16.03-13.42-2.62-26.9-4.91-40.43-6.89-0.02-5.3-0.06-10.6-0.08-15.91 12.21 1.33 24.39 2.87 36.53 4.59 0-5.21-0.01-10.42-0.01-15.63-12.18-1.21-24.38-2.28-36.6-3.22-0.03-4.83-0.06-9.67-0.08-14.51 13 0.56 26 1.21 38.97 1.95v-1.09c0-5.24-0.01-10.481-0.01-15.729v-0.22c-46.36-0.474-99.05-0.748-145.45-0.819zm-36.74 0.069c-27.65 0.02-55.3 0.111-82.938 0.275-0.033 4.817-0.066 9.636-0.099 14.454 8.487-0.27 16.977-0.51 25.467-0.71-0.11 17.7-0.22 35.41-0.33 53.11 7.82-0.76 15.66-1.38 23.5-1.88 0.08-17.23 0.16-34.46 0.24-51.69 9.16-0.136 18.32-0.236 27.48-0.292 2.23-4.431 4.45-8.852 6.68-13.267zm-98.477 0.324c-15.1 0.097-30.198 0.227-45.291 0.373-6.6 0.021-12.166 5.672-12.166 12.125-0.0048 8.957-0.0118 17.917-0.0193 26.877-0.0025 4.2 5.7483 9.18 10.248 8.86 0.592-0.12 34.175-1.59 34.195-1.5-0.026 3.77-0.043 7.54-0.068 11.31-0.007 1.23-1.565 2.37-2.434 2.5-4.961 0.72-9.916 1.48-14.865 2.29-1.448 0.24-2.661-0.72-2.658-1.92 0.01-3.06 0.023-6.11 0.037-9.17-8.088 1.11-16.158 2.32-24.209 3.63-0.0077 5.41-0.0101 10.82-0.0139 16.24 0 5.03 5.5189 10.34 11.647 8.93 14.368-3.19 28.812-5.93 43.316-8.23 5.736-0.97 14.759-7.27 14.797-12.36 0.055-7.94 0.107-15.89 0.162-23.84-0.06-6.1-9.346-7.32-13.877-7.38-2.546-0.15-32.718-0.53-32.711-0.51 0.018-3.75 0.029-7.5 0.045-11.25 0.003-0.9 0.986-2.41 2.443-2.48 5.259-0.23 10.525-0.45 15.788-0.66 1.513-0.05 3.06 1.06 3.052 2.24-0.016 2.66-0.03 5.33-0.045 7.99 8.087-0.5 16.173-0.94 24.272-1.34 0.032-4.3 0.059-8.6 0.088-12.909 0.032-4.857-4.831-9.839-11.733-9.816zm115.54 12.054h0.35c3.59 8.561 7.2 17.141 10.82 25.771-7.59-0.11-15.19-0.15-22.78-0.12 3.88-8.56 7.75-17.11 11.61-25.651zm-48.63 63.831c-28.73 2.08-57.353 5.99-85.67 11.77v27.69s-3.888 47.09 85.67 49.74h97.55c89.57-2.65 85.67-49.74 85.67-49.74v-27.5c-28.31-5.82-56.93-9.78-85.67-11.88v23.82c0 21.01 0 37.66-40.49 37.66h-16.56c-40.5 0-40.5-16.65-40.5-37.66v-23.9z" transform="matrix(.8 0 0 -.8 167.08 454.95)" fill="#00263A"/></g></g></svg>
