<?xml version="1.0" encoding="UTF-8" standalone="no"?>
<svg xmlns:rdf="http://www.w3.org/1999/02/22-rdf-syntax-ns#" xmlns="http://www.w3.org/2000/svg" xml:space="preserve" height="138.29" viewBox="0 0 137.16016 138.29101" width="137.16" version="1.1" xmlns:cc="http://creativecommons.org/ns#" xmlns:dc="http://purl.org/dc/elements/1.1/"><g transform="matrix(1.25 0 0 -1.25 -649.68 606.08)"><g transform="translate(.61236 .81648)"><path d="m89.463 2.3047-1.488 1.543c-9.934-0.3275-19.766 1.4147-29.553 2.8535l0.87305 5.6797c8.6612-0.6225 17.432-1.3207 26.064-0.002l0.38477 0.91602c-6.72 0.26-13.674 0.77766-20.25 2.1914 5.7712 0.72125 11.649 0.94891 17.324 2.2852-10.479-0.5825-18.604-0.67797-28.938 1.332 8.0575 1.035 16.137 1.9663 24.137 3.3926l-7.1738 4.6602-23.652 4.8535-3.3066 5.8887-5.4746 2.8926 1.6523 7.334 0.33203 0.11523c-6.09 7.4638-9.9629 16.923-10.275 27.641l-19.021 16.541h124.3l-12.146-11.828c0.0775-1.1 0.12695-2.2074 0.12695-3.3262 0-5.0812-0.81352-9.9724-2.3223-14.545-2.3962-7.05-4.8027-10.293-4.8027-10.293l6.6641-6.3984-10.67-4.709 1.1797-9.1387-17.104-5.9199-4.5586 5.084-1.1074-0.10156 0.16602-0.20117-1.9688-4.7578 6.5801-10.443 3.6504 1.3887 2.168-2.4766c7.25 2.5312 14.238 5.7202 21.252 8.834 2.4712 1.0938 4.957 2.1461 7.4082 3.2773l-0.125-6.1465c-8.1438-5.415-16.93-9.7896-25.855-13.756l-0.48-1.4855-13.977-3.1738zm-79.443 92.314-2.6665 9.131h3.5801c-0.82625 2.8338-2.8301 9.6953-2.8301 9.6953-0.33125 1.14-0.73242 2.5158-0.73242 3.9258 0 1.11 0.2482 2.2419 0.9707 3.2969 1.795 2.6175 6.0071 3.8359 13.256 3.8359 13.15 0 15.475-4.4726 16.855-9.4551l0.19531-0.69727s1.5882-5.4353 3.0957-10.602h7.707c-1.0175 3.4038-6.1641 20.652-6.1641 20.652h13.48s5.4361-18.625 6.0273-20.652h10.232c-0.82 2.81-2.8727 9.8389-3.3477 11.473h-3.3613l-2.6797 9.1797h31.553l2.6797-9.1797h-14.607c0.31125-1.03 0.43734-1.4509 0.65234-2.1621h7.3691l2.1094-7.5098h-7.3262c0.255-0.87625 0.34094-1.172 0.52344-1.8008h16.766c-0.90125 3.085-6.0293 20.652-6.0293 20.652h13.41s1.9241-6.5972 2.4141-8.2734c9.2038-0.1325 17.904-2.1557 24.025-19.314l0.78516-2.1953h-107.16l-5.2109 18.791c-0.28875 0.98875-0.54438 1.8633-3.5469 1.8633-0.505 0-0.82484-0.0273-1.0586-0.0586 0.0325-0.1125 0.06836-0.22882 0.09961-0.33007l0.16211-0.53321 5.7578-19.732h-16.988zm106.8 8.9277h0.75585 4.1328c-1.3662 1.8662-3.7261 2.7992-5.8398 3.2617 0.4375-1.5 0.68868-2.3592 0.95118-3.2617z" transform="matrix(.8 0 0 -.8 517.5 485.11)" fill="#B1B3B3"/><path d="m598.4 391.67-0.003-0.01 3.429 11.749-3.426-11.739z" fill="#041E42"/><path d="m621.67 412.59-9.947 10.45-3.637-0.056-1.303 1.901s-2.533-3.016-2.598-3.124l0.382-1.371-4.42-5.868c-0.439-0.129-3.199-0.075-3.199-0.075s-0.217-0.234-0.302-0.32-0.333-0.309-0.435-0.377c-0.103-0.066-0.35-0.218-0.4-0.218h-1.632l2.432 1.909 2.978 0.27 3.681 4.76-0.26 1.274c1.527 2.02 2.738 3.902 2.738 3.902s0.438 1.295 1.085 3.339l-6.625 7.065-0.138 2.066 1.031-0.361 2.064 3.916 1.132-1.525 0.254 2.817-0.474 0.63 0.202 0.494 0.631 0.473 5.066-0.161 3.651 3.507-7.711 3.403 0.937 7.234-11.99 4.148-3.525-3.934-2.656 0.301-0.626 0.678 0.632 0.758-1.538 3.711 6.136 9.737 3.064-1.165 1.716 1.963c6.117-2.08 11.997-4.74 17.886-7.378 1.385-0.621 2.796-1.18 4.174-1.816l-0.048 2.336c-6.164 4.078-13.705 7.786-20.476 10.778l-0.348 1.049-9.846 2.236-1.094-1.133c-7.648 0.332-15.224-0.964-22.763-2.071l0.343-2.225c4.26 0.304 13.681 1.02 20.69-0.199l0.305-0.725 1.525-0.228-1.467-2.279c-3.182 0.184-4.428 0.355-9.124-0.121 4.36-0.544 6.019-0.915 8.03-1.538l-1.387-2.107c-2.833 0.521-10.595 1.255-16.252 0.686 5.387-0.673 9.858-1.236 15.179-2.315l-1.207-1.83-1.468 0.399-5.709-4.105-18.77-3.969-2.481-4.464-3.637-1.654 1.157-4.382 3.804-1.489 0.909-1.653-0.696-1.056 1.026-3.243 4.052-0.91 6.323-9.268-6.856 7.467c-2.438-8.228 1.219-17.678 1.219-17.678l-4.723 3.658-1.983-0.61-3.968 3.547-5.849-4.055-2.25 0.574-12.457-10.38h91.841zm-53.232 35.352-2.028-4.307-2.564-0.744 1.984 1.157 2.36 7.036 3.141 0.91-2.232-4.878-0.661 0.826zm31.373-29.15-1.607 3.124 1.225 5.147-4.753 6.234 5.13-4.545 0.142-6.455 1.634-1.641-1.771-1.864zm5.534 9.678c-0.256-0.747-0.817-2.366-0.817-2.366s-2.083-2.492-2.846-3.334c-0.034 0.528-0.184 1.264-0.11 1.772 0.094 0.639 1.151 2.789 1.466 3.544l-1.601-1.282-0.174 2.894-5.385 3.849 2.163 0.089 1.082 1.047 6.222-6.213zm-9.007 32.06 8.919-3.192-0.659-5.319-1.443-0.251-8.011 4.919 5.27-0.661-4.076 4.504zm-1.349-4.999 8.213-5.499c0.61 0 1.303 0.085 1.9 0.004 0.987-0.135 5.044-1.916 6.295-2.392l-6.702 0.161-9.99 6.546-8.719 1.766 0.98 1.042c0.879-0.177 7.896-1.544 8.023-1.628m-10.567 2.086 0.392 0.593-2.759 2.169 3.277-1.381 0.532 0.979-3.54 2.46 3.85-1.393-0.529 1.664-4.518 2.113 5.172-1.514 1.184-2.963-3.268-4.288-0.936-0.035 0.459 0.476-2.052 1.582-3.867-0.616 2.102 1.051 0.601 1.077 3.9-1.974zm-22.147-18.282 1.737-0.33 1.074-3.308-2.811 3.638zm2.48 0.744-6.779 2.232 6.5-0.895 2.678 1.226-2.399-2.563zm8.038-25.71-4.572 0.078c-1.123 0.466-5.334 8.457-5.486 16.686 0.813-5.017 6.046-13.646 10.058-16.764m-35.326-6.2507-1.6109-1.275h-2.2609-3.5531-2.8641l-0.70938-2.4328-1.4375-1.0078h2.8641l1.4891 0.92031-3.4594-11.584c-0.356-1.219-0.76987-2.6108-0.39687-3.8438 1.217-1.231 3.8732-2.0953 9.2562-2.0953 11.177 0 11.592 4.1491 12.488 7.2141l4.1156 14.105-1.7453-1.275h-5.8234l-3.9125-14.105c-0.446-1.533-1.2618-2.4188-3.9938-2.4188-2.657 0-2.8783 1.7653-2.8953 1.9453 0.005-0.042 0.0145-0.0633-0.0125 0.0687-0.085 0.408 0.14031 0.97569 0.34531 1.6797l4.1172 14.105zm36.905 0-1.325-1.275h-19.225l-0.70313-2.4078-1.4438-1.0328h7.0453l1.4516 1.0781-4.8922-16.459-1.4906-1.1438h8.2422l4.8203 16.525h6.1437l1.3766 4.7156zm24.167 0-1.5172-1.275h-20.183l-0.70782-2.4188-1.4391-1.0219h2.8781l1.5188 1.0781-4.1828-14.122h-2.6891l-0.68281-2.3344-1.4766-1.1469h2.6906 2.8531 17.17l1.3875 4.7562-1.3859-1.275h-11.72l1.4016 1.275 1.3047 4.3188h5.8766l0.95937 3.4203-1.5641-1.2766h-5.9266l1.6141 1.2766 1.1703 4.0297h11.273l1.3766 4.7156zm27.58 0-1.9328-1.275h-10.706-12.503l-0.68749-2.3547-1.4594-1.0859h3.0031l1.525 1.2359-4.8078-16.406-1.5391-1.3547h8.1953l1.9297 6.6109c7.264 0 14.075 0.86869 18.983 14.63zm-7.6344-3.4016c-1.95-5.832-5.0684-7.9094-11.384-7.9094l1.3781 1.2766 1.5969 5.4797h1.4922 5.2359l1.6812 1.1531z" fill="#041E42"/><path d="m91.818 7.0078 5.883 2.1172-0.746 1.434 2.336-1.5844-7.473-1.9668zm0.95117 4.2773-8.7539 13.729 1.0605 0.35352 8.6289-13.148c-0.089-0.42-0.474-0.747-0.935-0.935zm-13.24 14.072 5.6465 2.6406 0.66016 2.0801-4.8105-1.7383 4.4238 3.0723-0.66406 1.2246-4.0977-1.7266 3.4492 2.7109-0.49024 0.74219-4.875-2.4688-0.75195 1.3477-2.627 1.3125 4.834-0.76953 2.5645 1.9766-0.57227 0.5957 1.1699-0.04297 4.084-5.3613-1.4805-3.7012-6.4629-1.8945zm19.012 5.3652 9.7891 4.6328-1.2656 6.3184 1.8027-0.31445 0.82422-6.6484-11.15-3.9883zm-28.143 0.13086-20.367 4.7383-3.0254 5.5664-3.6934 1.3574 1.1367 2.8477 0.49805 0.1875 0.89648-2.291 9.3438-2.1855 4.6504-3.9219 8.7148-5.0254-0.0059 0.0059 1.8516-1.2793zm16.43 4.083-1.226 1.302 10.898 2.207 12.49 8.184-12.135-9.658-10.027-2.035zm-8.6953 1.5312-0.38476 0.08984-3.8965 6.5586 0.82422 0.80664 4.1992-6.5996-0.74219-0.85547zm14.609 4.6934-0.25391 2.4863 2.3652 2.6328-0.19336 3.6719 2.4824-2.041-0.64453 3.6113 0.15234-0.0059 1.9277-3.2676 3.9688 0.44922-0.65626 0.95312 2.7324 1.3359c0.27625-0.64375 0.37992-1.6889 0.10742-2.3477l0.53-1.137c-2.6925-1.6238-3.1095-1.3419-6.0508-2.0156l1.3594-0.49805c-1.8762-0.7075-2.8257-2.9245-4.877-3.2832l-1.2578 2.5781-1.6875-3.1211zm-2.2383 0.17969-5.4668 3.4824 1.2012 1.9863 3.7949-3-1.9355 4.9512c0.58875 0.80125 1.8639 2.7213 2.8789 4.0801l1.5488-1.7812-0.08594-5.0059-1.6699-1.416-0.26562-3.2969zm-4.2637 0.10938-5.3965 0.67578 0.60547 2.0918 2.5957 4.8223 2.1797 0.99414-3.5273-7.2578 1.2773 0.60547 2.2656-1.9316zm-14.498 1.7012-2.1562 0.92578-0.1543 1.6328-0.93945 1.1387 0.1875 1.7148 1.0488-0.38086 1.1445 1.8574 0.42969 0.09375 0.09375-3.0488 13.381 17.289-1.8555-0.14453 4.002 5.5234-0.28906 2.0957 9.8105 11.525 4.0723-0.51367-1.9434-3.6934c0.31625-0.82875 1.252-5.2207 1.252-5.2207l-0.485-3.688-7.365-7.826c1.2312 1.6237 5.1348 7.1328 5.1348 7.1328l0.21289 2.3008c-0.59875-0.94375-6.8255-8.5652-8.3418-9.8164-0.0325-0.0275-2.0018-0.53727-2.248-0.60352l-5.364-7.506c-0.87375-1.2188-2.0204-2.4025-2.6816-3.75-0.0225-0.0475-0.36055-3.1218-0.4043-3.498l-2.4219-2.6113-1.0566 1.9473-3.0664-2.875zm7.7012 4.5625c1.29 1.2312 5.9062 6.5801 5.9062 6.5801 3.365 2.23 2.17 1.9942 6.125 2.418l-1.0488-1.709c-1.6262-0.71-4.8284-1.8121-6.1484-2.6934-1.335-0.89125-3.544-3.3645-4.834-4.5957zm-13.209 8.8496-2.2402 3.8613 1.209 1.0996 1.9062-3.3887-0.875-1.5723zm27.803 0.17383-0.16992 2.4395 2.9961 0.75781-0.01367-0.36328-2.8125-2.834zm4.3867 2.6758 0.4082 0.72266 2.8262-0.21289 0.22852-0.27734-3.4629-0.23242z" transform="matrix(.8 0 0 -.8 517.5 485.11)" stroke="#fff" stroke-width="0.3" fill="#fff"/><path d="m594.76 450.34-0.019-2.963 1.69 1.032-1.671 1.931z" fill="#041E42"/><path d="m98.541 30.723 5.0957 5.6289-6.5879-0.82617 10.016 6.1484 1.2656-6.3184-9.7891-4.6328zm-11.713 4.2129 10.027 2.0352c-0.1575-0.105-8.9298-1.8127-10.027-2.0352zm10.027 2.0352 12.133 9.6562 8.377 0.20312c-1.5638-0.59625-6.6334-2.8227-7.8672-2.9902-0.7475-0.1025-1.6125 0.0046-2.375 0.0059l-10.268-6.875zm-29.572 4.4219-3.9258 1.1367-2.9492 8.7949-2.4805 1.4473 3.2051-0.93164 2.5352-5.3848 0.82422 1.0352 2.791-6.0977zm-24.748 7.6016c-5.6762 6.855-9.3242 15.444-10.043 24.855l-0.25 2.2188 1.6992 0.42578 7.375-5.1113 5.2148 4.6621 2.1523-0.66211 0.16211-0.08008 0.02539 0.02148 0.07031-0.02148 2.418 2.0527c-1.6475-6.8025-2.0388-11.847 0-18.59-0.09625 0-4.2852-1.2402-4.2852-1.2402l-1.5488-5.9941 0.1875-1.4219-3.1777-1.1152zm67.938 3.252-1.168 7.3164-1.916-2.4141-0.0137 0.02539-2.0488 3.8867-0.008-0.002 8.1641 8.7012-1.1894 3.6992 1.8223 2.6582 4.3262-0.06836v0.002l0.0918-0.002 2.5645 2.4648c0.0112-0.41125 0.0234-0.81992 0.0234-1.2324 0-9.2462-2.8273-17.833-7.666-24.939l-2.9824-0.0957zm-48.41 0.83594-3.3477 1.5332-8.125-1.1191 8.4746 2.7891 2.998-3.2031zm-6.0996 4.1328 3.5137 4.5469-1.3418-4.1328-2.1719-0.41406zm46.061 5.8164-1.3535 1.3086-2.7031 0.11133 6.7305 4.8105 0.21875 3.6172 2-1.6016c-0.3925 0.94375-1.7138 3.6309-1.8301 4.4297-0.0937 0.635 0.0923 1.5555 0.13476 2.2168 0.95375-1.0538 3.5586-4.1699 3.5586-4.1699s0.70148-2.0233 1.0215-2.957l-7.7773-7.7656zm-5.5586 1.7324 5.9414 7.791-1.5312 6.4336 2.0098 3.9062 2.2129-2.3301-2.043-2.0508-0.17774-8.0684-6.4121-5.6816zm-39.924 2.705c0.19 10.285 5.4537 20.275 6.8574 20.857l5.7168 0.0957c-5.016-3.896-11.558-14.682-12.574-20.953zm-45.408 28.768-1.7207 5.8945 1.7988-1.2598 0.88477-3.041h3.5801 4.4414 2.8262l2.0137-1.5938h-5.8027-4.4414-3.5801zm20.801 0-4.8887 17.631c-0.5575 1.9162-1.5816 2.9972-4.9941 3.0234-0.2075 0.003-0.39211-0.002-0.56836-0.01-0.05-0.004-0.09633-0.007-0.14258-0.01-0.08375-0.006-0.16594-0.0101-0.24219-0.0176-0.8325-0.0812-1.2603-0.27313-1.4766-0.45313-0.185-0.155-0.22031-0.29516-0.22656-0.34766 0.02 0.225 0.29789 2.4316 3.6191 2.4316 3.4138 0 4.4347-1.1084 4.9922-3.0234l4.8906-17.631h7.2793l2.1816-1.5938h-10.424zm12.504 0-1.7207 5.8945 1.8047-1.291 0.87891-3.0098h24.031l1.6562-1.5938h-26.65zm28.77 0-1.7188 5.8945 1.7988-1.2773 0.88477-3.0234h25.23l1.8945-1.5938h-28.09zm30.172 0-1.7188 5.8945 1.8242-1.3574 0.85937-2.9434h15.629 13.383l2.416-1.5938h-16.762-15.631zm22.85 4.252-2.1016 1.4414c-1.5425 4.57-5.8182 6.3766-10.408 6.8516l-1.7207 1.5938c7.895 0 11.793-2.5955 14.23-9.8867zm-18.908 0.0977-1.9062 1.5449-4.2871 14.686-1.7402 5.9688 1.9238-1.6914 6.0098-20.508zm-53.984 0.19726-1.8125 1.3477-6.1641 20.654 1.8633-1.4277 6.1133-20.574zm23.648 0-1.9004 1.3496-4.291 14.709h-3.3613l-1.7363 5.9434 1.8477-1.4316 0.84961-2.918h3.3652l5.2266-17.652zm-62.131 0.19727-1.8613 1.1504-3.4258 11.736c-0.065 0.2225-0.13031 0.45234-0.19531 0.68359-0.005 0.0187-0.011328 0.0347-0.017578 0.0547-0.0225 0.0838-0.045859 0.16891-0.068359 0.25391-0.0125 0.0475-0.026563 0.0958-0.039063 0.14453l-0.056641 0.22461c-0.015 0.06-0.029219 0.11703-0.042969 0.17578-0.01625 0.0725-0.030625 0.14164-0.046875 0.21289-0.01375 0.065-0.027266 0.12961-0.041016 0.19336-0.0125 0.0687-0.026563 0.13562-0.039063 0.20312-0.0125 0.0687-0.022656 0.13758-0.035156 0.20508-0.01 0.0662-0.019297 0.12961-0.029297 0.19336-0.01 0.0738-0.017891 0.14625-0.025391 0.21875-0.0075 0.0613-0.014531 0.12234-0.019531 0.18359-0.00625 0.0775-0.010625 0.15422-0.015625 0.23047-0.0025 0.0562-0.00461 0.11297-0.00586 0.16797-0.0025 0.085-0.00125 0.16945 0 0.25195 0.00125 0.05 0.00141 0.097 0.00391 0.14454 0.00375 0.0975 0.013438 0.19546 0.023437 0.29296 0.00375 0.0337 0.00602 0.0678 0.00977 0.10157 0.03625 0.2675 0.093438 0.5289 0.17969 0.78515 0.00375 0.01 0.00797 0.018 0.011719 0.0293 0.04 0.1175 0.084922 0.23195 0.13867 0.3457 0.0125 0.0287 0.029219 0.0572 0.042969 0.0859 0.04625 0.0937 0.095391 0.18609 0.15039 0.27734 0.02125 0.0363 0.046563 0.0724 0.070312 0.10743 0.05375 0.0837 0.11062 0.16484 0.17188 0.24609 0.03 0.0375 0.0625 0.0777 0.09375 0.11523 0.06375 0.0763 0.13062 0.15157 0.20312 0.22657 0.016248 0.0162 0.028671 0.0345 0.044918 0.0508v-0.008c-0.46624-1.5412 0.05109-3.2809 0.49609-4.8047l4.321-14.49zm69.163 6.18-2.016 1.59h7.4082l1.9551-1.5938h-7.3477zm-2.8281 9.6719-1.752 1.5938h14.65l1.7305-1.5938h-14.629zm23.428 10.271c-5.3762 0-8.6752 0.37133-9.5664 3.6426-1.0075 3.6938 7.9148 2.7906 7.5098 4.2793-0.22625 0.8225-0.52875 1.0625-2.4688 1.0625l-1.7598-0.0273 0.1582-0.58593h-4.9336l-0.89063 3.084s3.5134 0.0273 5.3184 0.0273c4.8975 0 8.8846-0.0277 9.9121-3.8027 1.065-3.9075-8.0582-2.6295-7.5957-4.332 0.2175-0.7975 1.3352-0.90235 2.8652-0.90235l0.98047 0.0254-0.13867 0.50391h4.5254l0.82813-2.9746h-4.7442zm-98.697 0.0234-3.1152 11.432h4.7949l1.8574-6.8027 1.0996 6.8027h3.1797l4.8711-6.8027-1.1602 4.252h-0.81641l-0.69531 2.5508h5.6484l3.1133-11.432h-6.7695l-4.4238 6.248-1.1211-6.248h-6.4629zm22.615 0-0.68945 2.5273h1.3672l-1.7285 6.3535h-1.3691l-0.69336 2.5508h6.707l3.1133-11.432h-6.707zm11.539 0-3.1152 11.432h4.832l1.6289-5.9785 4.0859 5.9785h5.1055l3.1113-11.432h-6.1641l-0.68164 2.5h1.3691l-0.96289 3.5352-3.9707-6.0352h-5.2383zm19.213 0-0.6875 2.5273h1.2676l-1.7324 6.3535h-1.2656l-0.69727 2.5508h15.078l0.69726-2.5508h-8.4375l0.55664-2.0469h7.2812l0.7168-2.6309h-7.2793l0.45508-1.6758h8.0312l0.68555-2.5273h-9.5273-5.1426zm17.928 0-0.6875 2.5273h1.3008l-2.4258 8.9043h5.375l1.0996-4.0391h1.3945c1.6325 0 1.5314 0.71562 1.7227 2.0469 0.1925 1.3288 0.28711 1.9922 0.28711 1.9922h5.6973c-0.5725-2.4762-1.271-5.1015-1.9785-5.209 1.8938-0.58375 2.5393-0.9586 3.0605-2.8711 0.9125-3.3512-2.6255-3.3516-7.5918-3.3516h-7.2539zm5.9941 2.5h1.125c2.0425 0 2.5847 0.00008 2.2734 1.1426-0.36875 1.3562-1.085 1.3574-2.75 1.3574h-1.3281l0.67969-2.5z" transform="matrix(.8 0 0 -.8 517.5 485.11)" fill="#FF8200"/><path d="m90.326 5.7461-2.3828 2.8066 0.32617 1.5996 2.1445 0.60352c0.275-0.28 1.0694-0.75969 1.4531-0.80469 0.9925-0.115 2.8849 0.7868 3.1699 1.8105l3.108 1.011 3.155-3.6636-0.45-0.9219-10.524-2.4414zm-6.8164 1.123c-4.1618 0.025313-8.3148 0.49375-12.424 1.1406 5.1137-0.33125 10.349-0.3268 15.449 0.2207l1.1387-1.2285c-1.3878-0.1-2.7768-0.14125-4.1641-0.13281zm19.289 3.0938-0.76758 0.91797c4.8088 1.595 9.5157 3.5049 14.096 5.6699-3.5438-2.2188-9.4269-5.0279-13.328-6.5879zm-10.862 1.1541c-0.51875-0.0075-0.81969 0.175-0.99219 0.4375l-8.3809 12.971 1.4043 0.55859 0.04492-0.07227 8.7578-13.727v-0.0039c-0.01625-0.005-0.03258-0.0094-0.04883-0.01563-0.049-0.017-0.268-0.14-0.785-0.148zm-13.268 14.821l-5.1387 4.5098 4.875-2.9082 0.26367-1.6016zm-0.002 2.5059-4.9238 4.0273 4.7285-2.9922 0.19531-1.0352zm-10.121 3.6875-8.709 5.0215-4.6504 3.9238-9.3438 2.1836-0.89844 2.291 4.625 1.752c0.855 0.32375 1.7461 0.545 2.5586 0.96875 1.2638 0.65875 2.7105 2.0957 3.873 3.002l1.9473-0.39258-5.6504-4.5859 6.0938-1.1211c0.70625-0.92375 2.5603-3.6828 3.2578-4.2578 0.72125-0.59375 6.4222-3.1637 7.7734-3.8262l-8.4746 3.0254-3.6504 4.3125-9.9121-0.88086 8.3086-1.2266c1.0013-0.96125 4.5918-4.2168 4.5918-4.2168s7.047-2.2413 8.9258-3.0488l-4.0684-0.03711 3.4023-2.8867zm9.2012 4.4258-3.4941 0.8125-3.1309 4.7832 1.6348-0.10156 1.0938 1.0645 3.8965-6.5586zm-6.623 2.4551-3 0.54102 1.2578 0.58398-0.79687 2.7109 2.5391-3.8359zm9.7188 3.1133-1.0996 0.13672 1.0195 4.1621 1.9629 1.8828l-1.278-4.093-0.605-2.09zm-11.412 3.5859-1.5508 0.86523 0.23242 2.0117-1.5957 1.0234 1.0391 2.2441 0.01172-1.8809 1.6602-0.60352 1.0781 1.9395 2.0215 0.98633-0.24219-2.8379 10.75 13.83-2.8496-0.71289 5.3242 7.4883-0.37891 2.3828 11.186 13.502 4.3984-3.0898-4.0703 0.51367-9.8105-11.525 0.28711-2.0957-4-5.5234 1.8555 0.14258-13.381-17.285-0.0957 3.0469-0.42773-0.0957-1.1465-1.8574-1.0469 0.38281-0.1875-1.7148 0.93945-1.1367zm10.012 2.002 5.0547 6.8867c0.37125 0.50625 2.1854 3.2627 2.5254 3.4414 1.055 0.55625 2.1626 1.0484 3.2363 1.5684l2.043-0.95508c-2.4238-0.93125-3.3032-1.1016-4.0332-1.5254-0.70125-0.40875-1.263-1.0534-2.918-2.8359 0 0-4.6182-5.3488-5.9082-6.5801zm17.699 0.19726-1.834 3.7891 5.9746 3.7363 1.5469-1.0586 0.76367 2.4219 1.1582-2.0273-3.5234-1.7832 1.1582-0.46289 2.793 1.1523 0.21289-0.46875-3.8984-1.9336-4.8437 0.24023-0.15234 0.0059 0.64453-3.6113zm11.561 1.291-1.5371 0.05273-0.36524 1.0449 1.5742-0.3418 0.32812-0.75586zm-9.5762 0.125-0.98438 1.5723 1.1895-1.127 1.5762 0.19531 0.25782-0.41211-2.0391-0.22852zm-6.6016 1.7324-1.5488 1.7812-0.0078 0.0098 1.1914 1.6641 5.1426 2.8574-0.26367-2.3027-4.5137-4.0098zm-26.512 2.1543 2.1445 4.3203 4.5762 1.2285 6.3789 10.039v4.2852l13.334 16.479 2.4062-0.0957-13.932-17.049c-0.02875-0.42125-0.09766-3.8105-0.09766-3.8105s-2.1182-3.4055-2.8145-4.4492l-4.5391-6.8086-4.4727-0.30469-2.9844-3.834zm-1.2031 0.78516-2.75 4.668 1.9023 1.8105 0.0293-0.05273 2.2422-3.8613v-0.002l-1.4238-2.5625zm29.055 5.1777-1.5547 1.1953 4.623 1.2383-0.07031-1.6758-2.998-0.75781zm7.791 0.74609-2.8242 0.21289 1.0762 1.916 1.748-2.1289zm-14.65 4.791 5.85 8.285 0.066-2.961-5.916-5.324zm-18.697 8.0137c1.4888 8.4975 5.5472 15.362 6.6484 15.904l4.9609 0.18359c-4.1862-3.4075-9.1906-10.403-11.609-16.088zm-26.986 4.1855-6.1738 4.1152 8.916 4.1152-1.1992-3.4277 12.689 7.1992-14.232-12.002zm69.777 2.8594 5.7324 5.8867-7.4277 3.2402h15.619l-8.2656-8.6113-5.6582-0.51562z" transform="matrix(.8 0 0 -.8 517.5 485.11)" fill="#B1B3B3"/></g></g></svg>