<svg version="1.2" xmlns="http://www.w3.org/2000/svg" viewBox="0 0 250 176" width="250" height="176">
	<title>a304e92e-5353-4cb7-a694-dcb39a103990-Primary</title>
	<defs>
		<linearGradient id="g1" x1="125" y1="166.5" x2="125" y2="9.6" gradientUnits="userSpaceOnUse">
			<stop offset="0" stop-color="#b99950"/>
			<stop offset="1" stop-color="#feeeb6"/>
		</linearGradient>
	</defs>
	<style>
		.s0 { fill: #1c1c1c } 
		.s1 { fill: url(#g1) } 
	</style>
	<g id="Background">
		<path id="Path 0" class="s0" d="m0 0h101.1v2l-0.6 0.3c-0.3 0.2-1 0.6-1.5 1-0.5 0.3-1.5 1-2.1 1.5-0.6 0.4-1.5 1.2-2 1.6-0.5 0.4-1.2 1.1-1.6 1.6-0.4 0.4-1 1.1-1.3 1.5-0.3 0.4-0.8 1.2-1.1 1.7-0.3 0.5-0.7 1.3-0.9 1.8-0.3 0.5-0.6 1.3-0.7 1.9-0.2 0.5-0.4 1.5-0.5 2.1-0.1 0.6-0.2 1.7-0.3 2.5 0 0.9 0 1.9 0.1 2.6 0 0.6 0.2 1.6 0.3 2.2 0.1 0.6 0.3 1.6 0.5 2.4 0.1 0.7 0.5 1.9 0.7 2.7 0.3 0.8 0.8 2.1 1.1 3 0.4 0.8 0.8 2 1.1 2.6 0.3 0.5 7.7 16.4 16.6 35.3 8.8 18.9 16.1 34.3 16.1 34.2 0.1 0 6.9-14.7 15.3-32.5 8.4-17.9 15.8-33.6 16.5-35.1 0.6-1.4 1.4-3.2 1.8-4.1 0.3-0.8 0.8-2.2 1.1-3 0.2-0.8 0.6-2.1 0.8-2.8 0.2-0.8 0.5-2 0.6-2.8 0.1-0.7 0.3-1.9 0.3-2.6q0.1-1.4 0-2.6c0-0.7-0.1-1.6-0.2-2.1-0.1-0.4-0.2-1-0.3-1.2 0-0.3-0.2-0.9-0.4-1.5-0.2-0.5-0.5-1.3-0.8-1.8-0.3-0.6-0.8-1.4-1.1-1.9-0.3-0.5-0.9-1.3-1.2-1.7-0.4-0.5-1.2-1.3-1.7-1.8-0.6-0.5-1.4-1.3-1.9-1.7-0.5-0.4-1.4-1-2-1.5-0.7-0.4-1.6-1-2.9-1.8v-2h101.1v2l-0.7 0.5c-0.4 0.2-1.5 1-2.4 1.7-0.9 0.6-2.1 1.6-2.7 2.1-0.6 0.5-1.8 1.7-2.7 2.5-0.8 0.9-2 2.1-2.5 2.8-0.5 0.6-1.4 1.7-2 2.5-0.6 0.7-1.4 2-2 2.8-0.5 0.8-1.3 2.1-1.8 2.9-0.5 0.8-1.2 2.1-1.7 2.8-0.4 0.8-1.2 2.2-1.6 3-0.5 0.9-1.7 3.4-2.8 5.5-1 2.2-16.8 35.7-68 144.9h-68.2l-0.2-0.4c-0.1-0.2-15.1-32.2-33.3-71-18.2-38.8-33.9-72-34.8-73.9-0.9-1.8-2.1-4.2-2.7-5.3-0.6-1.1-1.5-2.8-2-3.8-0.6-0.9-1.4-2.2-1.8-2.9-0.4-0.7-1.1-1.8-1.6-2.5-0.5-0.6-1.2-1.7-1.6-2.3-0.5-0.5-1.2-1.5-1.7-2.1-0.5-0.6-1.6-1.7-2.4-2.6-0.9-0.9-2.1-2.1-2.8-2.7-0.7-0.6-1.9-1.5-2.7-2.1-0.7-0.6-1.8-1.3-3.3-2.4v-1z"/>
		<path id="Path 1" class="s1" d="m82.4 9.6l-0.2 0.2c0 0.1-0.2 0.5-0.5 0.8-0.2 0.3-0.6 1-0.8 1.5-0.3 0.5-0.6 1.3-0.8 1.7-0.1 0.4-0.4 1.2-0.5 1.8-0.2 0.5-0.4 1.3-0.4 1.8-0.1 0.4-0.2 1.3-0.3 2 0 0.7 0 1.8 0 2.5 0 0.6 0.1 1.6 0.2 2.2 0 0.6 0.2 1.6 0.3 2.3 0.1 0.7 0.4 1.9 0.6 2.7 0.3 0.9 0.7 2.3 0.9 3.1 0.3 0.9 0.9 2.4 1.2 3.3 0.4 0.9 0.9 2.2 1.2 2.8 0.3 0.7 4.7 10.2 9.9 21.1 5.1 10.9 14.1 30.1 19.9 42.6 5.9 12.5 11 23.3 11.3 24 0.3 0.7 0.6 1.2 0.6 1.2 0 0 6.2-13.1 13.7-29.1 7.4-15.9 13.7-29.4 13.9-29.8 0.2-0.4 0.5-1 0.6-1.3 0.2-0.3 3.2-6.8 6.8-14.5 3.6-7.7 6.8-14.5 7.1-15.3 0.3-0.7 0.8-1.9 1.1-2.6 0.2-0.7 0.7-1.9 0.9-2.7 0.3-0.8 0.6-2.1 0.9-2.9 0.2-0.8 0.4-1.9 0.5-2.5 0.1-0.5 0.3-1.4 0.3-2 0.1-0.5 0.2-1.8 0.2-2.7 0.1-1.1 0-2.2 0-2.9-0.1-0.6-0.2-1.6-0.4-2.2-0.1-0.6-0.3-1.6-0.5-2.1-0.2-0.6-0.6-1.7-1-2.3-0.3-0.7-0.8-1.6-1.6-2.7h61.8l-1 1.3c-0.5 0.7-1.3 1.8-1.8 2.5-0.5 0.7-1.3 1.9-1.7 2.6-0.5 0.8-1.3 2-1.7 2.8-0.5 0.8-1.3 2.1-1.7 2.9-0.5 0.8-1.4 2.5-2 3.7-0.7 1.3-1.5 3-1.9 3.8-0.4 0.8-3.8 7.9-7.4 15.7-3.7 7.8-6.9 14.7-7.2 15.3-0.3 0.6-1 2.2-1.7 3.5-0.6 1.4-11.7 25-48.2 102.8h-56l-18.4-39.2c-10.2-21.6-24.5-52.1-31.9-67.9-7.5-15.8-13.9-29.5-14.3-30.4-0.4-0.9-1.3-2.5-1.9-3.7-0.6-1.1-1.4-2.7-1.9-3.6-0.5-0.9-1.3-2.3-1.9-3.2-0.5-0.9-1.6-2.6-2.3-3.7-0.8-1.2-1.9-2.8-2.5-3.6-0.6-0.8-1.1-1.5-1.2-1.5 0-0.1 13.9-0.1 61.7-0.1z"/>
	</g>
</svg>