<svg xmlns="http://www.w3.org/2000/svg" width="248" height="195.84" viewBox="0 0 248 195.84">
 <g transform="matrix(1.3333 0 0 -1.3333 -970.53 805.86)">
  <g transform="translate(.78187 -.78187)">
   <path d="m864.11 598.32c-5.2736 0-10.829-4.5491-12.46-7.6904l-31.5-62.792v17.139l-21.974 43.838c-1.6487 3.2854-2.3874 6.7537-2.0889 9.5039h-19.898c5.2736 0 10.829-4.5472 12.46-7.689l31.501-62.793-1e-3 -1e-3v-17.149z" fill="#ff6a14"/>
   <path d="m776.19 598.32 43.961-87.634v17.149h-1e-3v3e-3l-31.5 62.792c-1.6305 3.1413-7.1864 7.6904-12.46 7.6904zm43.96-70.482 1e-3 -1e-3 31.5 62.793c1.6305 3.1417 7.1864 7.689 12.46 7.689h-19.897c0.29851-2.7502-0.44162-6.2185-2.0903-9.5039l-21.974-43.838z" fill="#f84c1e"/>
   <path d="m803.7 604.4-7.6113-6.0776c-0.29851-2.7502 0.44015-6.2185 2.0889-9.5039l21.974-43.837 21.974 43.837c1.6487 3.2854 2.3874 6.7537 2.0889 9.5039l-7.6113 6.0776c2.0869-3.5675 2.2339-8.7525 0.38232-12.521l-16.834-33.56-16.835 33.56c-1.8511 3.769-1.7031 8.954 0.38379 12.521zm-41.244-0.0147c3e-3 -1e-3 4.4995-1.8863 8.1328-8.2017l49.563-98.801 49.562 98.801c3.6328 6.3153 8.1294 8.2002 8.1328 8.2017-4.1599 5e-4 -11.87-2.3455-13.734-6.063l-43.96-87.633-43.961 87.633c-1.8647 3.7174-9.5744 6.0638-13.734 6.063zm149.93-75.435c-0.0812 0.0861-0.54343-0.13239-1.314-0.64599l-1e-3 -1e-3c-0.12946-0.0881-0.25872-0.17661-0.38818-0.26514-6e-3 -4e-3 -0.0115-9e-3 -0.019-0.0146v1e-3c-27.051-18.363-58.447-32.355-90.516-40.79-32.068 8.4353-63.465 22.428-90.516 40.792v-1e-3c-6e-3 4e-3 -0.0114 8e-3 -0.019 0.0132-0.12946 0.0881-0.25873 0.17705-0.38819 0.26514-1.5402 1.0272-1.8505 0.87622-0.34277-0.5376 3.8678-3.906 13.611-13.193 29.194-22.595 10.476-6.4886 22.353-12.515 32.566-15.995 5.4048-1.9899 10.52-3.725 15.409-5.2749-9.7571-2.0567-19.527-3.5932-29.206-4.563-0.54142 1.7324-1.93 3.0804-3.4849 3.2241-1.9148 0.17795-3.3752-1.5937-3.2373-3.8906 8e-3 -0.15349 0.0261-0.30474 0.0483-0.45556h-1e-3c-7.3512-0.82569-20.108-1.0715-20.47-1.0781h-0.0176c0.0463 0.47424 0.11175 0.92216 0.22119 1.3755l4e-3 0.019c5e-3 0.0387 0.0117 0.0783 0.0117 0.12012 0 0.41952-0.34131 0.76025-0.76172 0.76025-0.34167 0-0.62652-0.22617-0.72217-0.53759-0.25225-0.5432-0.47538-1.1037-0.66357-1.6758l-1.8018-9e-3 -4.0225-0.0176c-0.0507 0.26159-0.2755 0.47295-0.5669 0.47607-0.17039 4e-3 -0.47834 4e-3 -0.65185 7e-3 -0.25358 4e-3 -0.48114-0.15279-0.55811-0.39258-0.12278-0.39194-0.22915-0.7899-0.3208-1.1938-0.0178 2e-3 -0.0355 6e-3 -0.0542 6e-3 -0.24602 0-0.45235-0.1733-0.49951-0.41309-0.12279-0.62772-0.20605-1.268-0.24609-1.9175-0.0369-0.60992-0.0358-1.211 3e-3 -1.8018 0.0178-0.27004 0.23902-0.48152 0.50683-0.49219 0.0423-0.40885 0.10175-0.81269 0.17871-1.21 0.0534-0.28161 0.29829-0.48704 0.58301-0.48926 0.19263-8.9e-4 0.38036-3e-3 0.56543-4e-3 0.32075-2e-3 0.57036 0.25146 0.58594 0.55665 2.0282-0.0494 4.5906-0.0508 5.7598-0.0308 1.1122-6.4552 6.7554-11.253 13.938-11.254 7.7004-3e-3 14.495 5.5056 16.09 12.665 11.718 1.4668 25.585 3.4957 42.886 8.1006 17.301-4.6049 31.169-6.6343 42.886-8.1006 1.5949-7.1599 8.3908-12.669 16.09-12.667 7.1826 2e-3 12.827 4.7994 13.938 11.256 1.17-0.02 3.7335-0.0201 5.7612 0.0293 0.016-0.30519 0.26607-0.55741 0.58594-0.55518 0.18596 8.9e-4 0.37413 2e-3 0.56543 3e-3 0.28472 2e-3 0.52975 0.20854 0.58447 0.48926 0.0756 0.39728 0.13351 0.80271 0.17578 1.2129 0.26781 9e-3 0.48905 0.22114 0.50684 0.49073 0.0387 0.59079 0.0427 1.1924 4e-3 1.8032-0.0396 0.64908-0.12286 1.2878-0.24609 1.916-0.0472 0.24068-0.25483 0.41309-0.49951 0.41309-0.0191 0-0.0364-4e-3 -0.0542-6e-3 -0.0916 0.4035-0.19815 0.80146-0.32227 1.1938-0.0756 0.24068-0.30203 0.39703-0.55517 0.39258-0.17484-2e-3 -0.48351-4e-3 -0.65479-6e-3 -0.2914-4e-3 -0.51471-0.21405-0.56543-0.47608l-4.0239 0.0176-1.8003 9e-3c-0.18819 0.57167-0.41074 1.1308-0.6621 1.6758-0.0965 0.31008-0.38343 0.53613-0.7251 0.53613-0.42041 0-0.76172-0.33984-0.76172-0.76025 0-0.0414 6e-3 -0.0814 0.0132-0.12012l-6e-3 -1e-3c0.10944-0.45289 0.18518-0.91781 0.23145-1.3916h-0.0176c-0.36124 7e-3 -13.12 0.25097-20.471 1.0767-5e-5 -4.9e-4 5e-5 -9.8e-4 0-1e-3h-1e-3c3.3e-4 2e-3 1e-3 4e-3 1e-3 6e-3 7.3e-4 7e-3 2e-3 0.0146 3e-3 0.022 4.6e-4 5e-3 1e-3 0.01 1e-3 0.0146 4.3e-4 4e-3 1e-3 8e-3 1e-3 0.0117 3e-3 0.0335 6e-3 0.0675 0.0102 0.10108 0.0125 0.1001 0.0275 0.19987 0.0337 0.30175 0.13747 2.2969-1.3255 4.0696-3.2402 3.8921-1.5548-0.14325-2.9434-1.4928-3.4849-3.2256-9.6792 0.96983-19.449 2.5068-29.206 4.563 4.8892 1.5504 10.004 3.285 15.41 5.2749 10.212 3.4803 22.09 9.5062 32.566 15.996v-1e-3c15.583 9.402 25.325 18.691 29.193 22.597 0.75384 0.70691 1.0539 1.0974 0.97265 1.1836zm-143.33-57.831c-1.7946-3.0568-5.161-5.1167-9.0234-5.1167-3.4576 0-6.5195 1.6512-8.4111 4.1924 0 0 15.969 0.67517 17.435 0.92431zm102.18 0c1.4659-0.24914 17.435-0.92431 17.435-0.92431-1.8916-2.5411-4.9535-4.1924-8.4111-4.1924-3.8624 0-7.2288 2.06-9.0234 5.1167z" fill="#232d4b"/>
   <path d="m803.7 604.4-41.202-0.01611c4.1694-0.0142 11.833-2.3566 13.692-6.0615h19.898zm32.903 0 7.6113-6.0776h19.897c1.8587 3.705 9.5225 6.0473 13.692 6.0615zm-74.149-0.0161h1e-3zm115.39 0h1e-3zm-149.87-75.416c-0.0557 2e-3 -0.0809-0.0209-0.0762-0.0674 1.7493-1.7875 8.888-7.361 15.948-12.018 20.819-13.339 43.973-24.029 69.185-31.421-12.07-2.8561-24.196-4.9244-36.185-6.126h-1e-3l-1.6567-0.17871s-1.3692-1.3939-1.1191-3.895c46.442 4.4786 87.655 19.372 122.38 41.621 7.0398 4.6432 14.156 10.198 15.93 12.001l0.0176 0.0176c9e-4 9e-3 -0.0136 5e-3 -0.0146 0.0117-4e-3 0.0182-0.0199 0.0277-0.0381 0.0337-0.0192 7e-3 -0.0425 0.0114-0.0776 4e-3 -0.0191-3e-3 -0.0467-0.015-0.0703-0.022-0.21043-0.0641-0.57958-0.26292-1.125-0.62548-0.12946-0.0885-0.2593-0.17811-0.38965-0.26661-6e-3 -4e-3 -0.013-9e-3 -0.019-0.0132v1e-3c-27.051-18.364-58.448-32.356-90.516-40.792-32.068 8.4353-63.463 22.428-90.514 40.792v-1e-3c-8e-3 4e-3 -0.014 9e-3 -0.019 0.0132-0.13035 0.0885-0.26063 0.17811-0.38965 0.26661-0.6513 0.43343-1.0825 0.65726-1.2495 0.66357zm106.28-45.069c-2.4219-0.76786-4.8028-1.5026-7.106-2.1753 12.566-2.9789 25.601-5.1619 39.079-6.4614 0.25002 2.5011-1.1191 3.8936-1.1191 3.8936l-1.6582 0.18017c-9.6761 0.96983-19.442 2.5072-29.196 4.563zm-60.894-1.2554c-1.9148 0.17751-3.3748-1.5947-3.2373-3.8921 8e-3 -0.1517 0.0256-0.30169 0.0469-0.45117 3e-3 -0.0334 6e-3 -0.0549 9e-3 -0.0864-7.4677-0.83148-20.496-1.0767-20.496-1.0767-2e-3 -0.0249-1e-3 -0.0509-1e-3 -0.0762-0.0467-0.79366 0.0227-1.6587 0.19043-2.5298 5.2269-0.19753 19.159 0.89054 20.43 0.96973-0.0142-0.50182-0.1979-1.9007-0.56982-2.8799 0 0-0.0442-0.11158-0.0557-0.13916-1.5193-3.7797-5.2386-6.397-9.6416-6.397-0.23845 0-0.47014 0.0269-0.70459 0.0425-0.0583 3e-3 -0.11603 6e-3 -0.17431 0.0102-0.22021 0.0182-0.43858 0.0387-0.65479 0.0703-0.26648 0.0369-0.52648 0.0831-0.77783 0.13916-0.17929 0.0396-0.35454 0.0888-0.53027 0.1377-0.15971 0.0449-0.31673 0.0924-0.47022 0.14355-1.3684 0.45067-2.6086 1.1657-3.6562 2.0933-0.0863 0.0734-0.17321 0.14696-0.25195 0.2168 0 0 3.4096-3.9239 8.7935-3.6094 4.4461 0.25848 7.7982 2.5452 9.5581 6.6064 0.26515 0.57211 0.46102 1.1449 0.60205 1.7095 8.9e-4 4e-3 2e-3 8e-3 3e-3 0.0117 0.0449 0.17973 0.0781 0.35716 0.11279 0.53467l0.019 4e-3c0.0271 0.14637 0.0357 0.28608 0.0571 0.43066 0.0316 0.20287 0.0602 0.40422 0.0806 0.60352 0.0138 0.13968 0.0259 0.27708 0.0352 0.41455 0.0917 1.2634 7e-3 2.4307-0.0322 3.397-0.11523 2.8739 2.0927 3.5563 3.1084 2.8667-0.53652 0.41106-1.1509 0.67574-1.7915 0.73535zm93.574 0c-0.64062-0.0596-1.255-0.32429-1.7915-0.73535 1.0157 0.68956 3.2236 7e-3 3.1084-2.8667-0.0396-0.96627-0.12342-2.1335-0.0322-3.397 9e-3 -0.13747 0.0214-0.27487 0.0352-0.41455 0.0204-0.1993 0.049-0.40065 0.0806-0.60352 0.0214-0.14458 0.03-0.28429 0.0571-0.43066l0.019-4e-3c0.0347-0.17751 0.0679-0.35494 0.11279-0.53467 1e-3 -4e-3 4e-3 -8e-3 4e-3 -0.0117 0.14103-0.56456 0.33588-1.1374 0.60058-1.7095 1.7599-4.0613 5.112-6.348 9.5581-6.6064 5.3839-0.31452 8.7935 3.6094 8.7935 3.6094-0.0783-0.0698-0.16566-0.1434-0.25196-0.2168-1.0477-0.92757-2.2878-1.6426-3.6562-2.0933-0.15349-0.0512-0.3105-0.0987-0.47021-0.14355-0.17573-0.0489-0.35098-0.0981-0.53027-0.1377-0.25135-0.056-0.50945-0.10226-0.77637-0.13916-0.21621-0.0316-0.43458-0.0521-0.65479-0.0703-0.0578-4e-3 -0.11748-7e-3 -0.17578-0.0102-0.23445-0.0156-0.46614-0.0425-0.70459-0.0425-4.403 0-8.1223 2.6173-9.6416 6.397-0.0116 0.0276-0.0542 0.13916-0.0542 0.13916-0.37237 0.97918-0.55709 2.3781-0.57129 2.8799 1.2715-0.0792 15.204-1.1673 20.43-0.96973 0.1677 0.87107 0.23673 1.7361 0.19043 2.5298-1e-3 0.0253-4.7e-4 0.0513-1e-3 0.0762 0 0-13.028 0.24518-20.496 1.0767 3e-3 0.0315 6e-3 0.053 9e-3 0.0864 0.0218 0.14948 0.0389 0.29947 0.0469 0.45117 0.13747 2.2974-1.323 4.0696-3.2373 3.8921zm-119.54-5.4507-1.4253-7e-3 -4.0239-0.019v3e-3l-3e-3 -3e-3s-0.898-2.6454-0.47314-6.8686v-6e-3c0 2e-3 1e-3 4e-3 1e-3 6e-3 0.38793-9e-3 0.79667-0.0172 1.21-0.0234 0.27583 5.5205 4.273 6.7948 4.7139 6.9185zm145.5 0c0.44043-0.12367 4.4366-1.398 4.7124-6.9185 0.41329 6e-3 0.82349 0.0144 1.2114 0.0234v-6e-3l1e-3 6e-3c0.42486 4.2232-0.47461 6.8686-0.47461 6.8686v3e-3c-4.5e-4 -1e-3 -1e-3 -2e-3 -1e-3 -3e-3l-4.0239 0.019zm-116.3-5.6265-1.5688-0.1875s-1.7072-8.3381-10.938-11.489c0 0 9.5524 1.4476 12.507 11.676zm87.104 0c2.9544-10.229 12.505-11.676 12.505-11.676-9.2308 3.1506-10.938 11.489-10.938 11.489z" fill="#003a70"/>
  </g>
 </g>
</svg>