<?xml version="1.0" encoding="UTF-8" standalone="no"?>
<svg xmlns:rdf="http://www.w3.org/1999/02/22-rdf-syntax-ns#" xmlns="http://www.w3.org/2000/svg" xml:space="preserve" height="123.37" width="128.57" version="1.1" xmlns:cc="http://creativecommons.org/ns#" xmlns:dc="http://purl.org/dc/elements/1.1/" viewBox="0 0 128.57249 123.37434"><g><path fill="#fff" d="m79.262 1.1339-0.053 0.1465s-6.068 17.353-6.145 17.577c-24.323 5.411-34.174 16.674-37.884 20.918l-0.217 0.248c-5.506 6.286-9.156 14.332-11.248 19.976-9.238 24.918-11.317 27.227-21.315 38.332l-1.3082 1.455 0.6387-0.117c0.1413-0.027 13.936-2.569 20.008-4.195-0.62 4.701-1.971 11.571-6.322 18.251l-3.277 5.03 0.527-0.11c6.229-1.37 14.154-1.26 14.232-1.26 12.383 0.31 24.261 2.12 32.12 3.31 23.477 3.13 34.732 1.26 34.843 1.24l0.155-0.02 0.025-0.16c0.195-1.24 0.309-2.64 0.309-4.14 0-4.83-1.176-10.67-4.586-15.21-0.128-2.827-0.428-5.576-1.414-10.248 1.567 3.523 3.312 5.448 5.996 7.684 2.896 2.414 6.526 3.404 10.496 2.854 4.88-0.68 9.49-3.79 11.19-7.577 5.89-13.058-0.85-30.859-6.11-36.738l-0.53-0.584 0.14 0.771c0.54 2.967 0.73 16.115-2.39 20.065-1.24 1.574-2.99 2.463-5.04 2.57-10.111 0.529-16.671-17.124-17.793-23.267-0.465-2.539-0.491-9.97 4.886-13.826 3.64-2.61 7.128-2.833 12.017-0.768 1.97 1.692 6.3 10.264 7.2 12.873 3.11-5.353 3.08-11.962 1.88-17.801 0.36-1.206 0.59-2.462 0.72-3.738 0.36-0.013 16.65-0.617 16.65-0.617l-0.1-6.147s-4.56-0.177-7.01-0.271c2.34-0.405 6.48-1.123 6.48-1.123l-0.8-5.707s-5.2 0.57-7.41 0.814c1.98-0.767 6.23-2.408 6.23-2.408l-2-5.531-0.2 0.058c-0.14 0.039-13.55 3.942-16.38 4.807-0.86-1.13-2.11-2.619-3.38-3.141l-0.05-0.019-0.06 0.004c-0.1 0.007-10.207 0.827-14.412 1.295 0.119-0.575 3.202-15.506 3.202-15.506l-5.968-0.0203-1.934 5.9786 1.317-5.9825-5.922-0.0195z"/><path fill="#981e32" d="m81.023 3.5685-5.826 17.906c-0.063 0.014-0.12941 0.02702-0.19141 0.04102-3.543 1.167-6.7715 3.598-9.1175 6.926-2.993 4.243-6.0265 11.978-3.4864 24.716 0.425 2.13 1.1386 5.189 1.8926 8.428 1.508 6.47 3.2128 13.804 3.8068 18.538 1.353 10.778 0.11638 17.739-3.8966 21.911-3.256 3.38-8.2734 4.7215-15.34 4.1115l-1.7637-0.1504 0.1543-1.7696c0.112-1.28 0.16016-2.5401 0.16016-3.7501 0-2.406-0.18889-4.5959-0.42189-6.3869-3.94 6.466-11.006 15.596-20.036 20.866 15.35 0.38 30.222 3.0804 36.857 3.9904 0.65 0.09 1.3049 0.14945 1.9669 0.18946 0.169 0.01 0.34083 0.0212 0.50783 0.0312 0.053 0 0.10426-0.00023 0.15626 0.01 1.559 0.03 3.0303-0.0409 4.4123-0.21095 0.045-0.01 0.08977-0.01 0.13477-0.0195 0.189-0.02 0.37261-0.0599 0.55861-0.0898 8.54-1.45 15.949-7.7902 13.954-22.44-2.368-17.406-5.4001-28.498-6.1701-36.865-0.936-10.175 7.8752-25.955 23.569-18.973 0 0 2.189 1.8492 5.049 8.5042 0 0 1.1-3.7919-0.50001-10.77 0.66-1.925 0.92995-3.9638 0.91995-5.9768l17.09-0.72268 0.01-1.8731-17.35-0.5508c-0.05-0.315-0.11016-0.62558-0.16017-0.93558l16.68-3.3302-0.2793-1.8516-17.19 2.1387c-0.12-0.339-0.22939-0.67413-0.35939-0.99613l15.719-6.1076-0.60941-1.7735-16.45 5.0724c-0.96-1.645-2.0502-2.8096-3.0802-3.2286-6.262 0.464-11.928 0.98131-17.126 1.6563l3.2892-15.374h-1.8184l-5.0295 15.872c-0.942 0.143-1.8635 0.29323-2.7755 0.44923l3.922-17.212h-1.8321zm-16.301 20.678c-9.997 3.364-18.38 8.595-27.03 17.233l6.0881 7.0647 2.4864-2.3243c2.346 8.762 0.66018 16.838 0.66018 16.838-3.198-4.88-6.9846-8.8382-6.9846-8.8382l1.6641-2.7755-5.4846-6.3694-0.64065-0.70901c-6.74 9.259-8.9261 16.842-8.9261 16.842l4.7873 4.3654 2.7911 2.5294 0.93167-2.6837c5.139 9.63 0.44338 18.628 0.44338 18.628-0.849-3.288-4.2345-8.137-4.2345-8.137l1.3418-4.4103-7.1194-6.4416c-7.402 23.131-17.301 30.628-17.301 30.628 0.0004 0 10.711-1.9326 16.669-3.9376 0 0-0.16746 12.186-7.4085 23.306h0.0293c14.445-3.29 25.504-20.16 28.759-26.929l2.0626-4.2873 1.2403 4.5939c0.069 0.251 1.4122 5.3086 1.4122 11.993 0 0.74-0.02159 1.4996-0.05859 2.2696 4.987 0.19 8.5393-0.81925 10.752-3.1192 3.169-3.29 4.1306-9.5084 2.9396-19.01-0.57-4.55-2.2573-11.79-3.7443-18.176-0.76-3.266-1.4771-6.3544-1.9141-8.5374-2.787-13.969 0.669-22.638 4.06-27.448 0.536-0.76 1.1166-1.4744 1.7266-2.1544zm46.841 39.406s3.62 19.711-9.18 20.385c-12.363 0.646-18.192-17.948-18.192-17.948s2.9845 36.335 20.301 33.945c19.53-2.694 7.0706-36.382 7.0706-36.382zm-22.671 43.757c-3.242 9.81-9.1781 12.34-9.1781 12.34s8.6694 0.37906 11.291-0.21094c0 0 0.74964-6.1493-2.1134-12.129z"/><path fill="#fff" d="m84.254 33.096c-3.754 0.067-7.624 0.871-9.533 2.176-5.429 3.707-4.519 10.308-4.383 10.474 1.08-1.897 2.922-4.565 5.605-6.449 3.449-2.419 9.308-4.276 14.803-3.857 1.401 0.111 2.583-0.257 1.08-1.051-1.802-0.952-4.652-1.345-7.572-1.293z"/></g></svg>
