<?xml version="1.0" encoding="UTF-8" standalone="no"?>
<svg xmlns:rdf="http://www.w3.org/1999/02/22-rdf-syntax-ns#" xmlns="http://www.w3.org/2000/svg" xml:space="preserve" height="112.06" viewBox="0 0 152 112.0619" width="152" version="1.1" xmlns:cc="http://creativecommons.org/ns#" xmlns:dc="http://purl.org/dc/elements/1.1/"><g transform="matrix(1.25 0 0 -1.25 -376.65 589.6)"><g transform="matrix(1.6304 0 0 1.6304 -226.95 -267.75)"><g><path d="m354.19 415.89c1.279 0.701 2.444 1.642 3.302 2.435 0.434 0.401 1.265 1.135 1.8 1.734-8.148 2.061-14.826 1.975-18.107 0.827l3.226-3.167 7.247-2.952c0.846 0.292 1.694 0.664 2.532 1.123m-23.133-9.807c0 0.118 0.009 0.233 0.028 0.345-0.753 0.371-1.374 1.032-1.693 1.937l-0.099 0.03c-0.263 0.084-0.704 0.209-1.049 0.458-0.767 0.553-1.334 1.468-1.334 2.468 0 0.034 0.04 0.264 0.034 0.3-0.745 0.585-1.277 1.311-1.434 2.301-0.022 0.139 0.006 0.533 0 0.667-0.601 0.401-0.806 1.194-0.934 2.001-0.2 1.257 0.133 2.168 1.1 2.935 0.079 0.063 0.323 0.183 0.401 0.234-0.017 0.077-0.501 1.767-0.501 1.767s0.397 0.06 0.968 0.165c-0.409 13.756 9.16 23.411 20.643 27.548 12.875 4.64 25.365 4.316 34.28 2.861 4.481-0.732 8.575-1.947 11.549-2.979 2.976-1.033 5.108-2.011 5.108-2.011l-1.568-1.445c-0.004-0.004-0.171-0.159-0.433-0.426-0.269-0.274-0.634-0.662-1.025-1.124-0.796-0.941-1.634-2.113-2.015-3.196-0.739-2.1-1.118-3.539-1.393-4.958-0.285-1.465-0.464-2.908-0.809-4.992-0.326-1.973-1.007-4.574-1.007-4.574l-0.665-0.159c-0.112-0.481-0.258-1.097-0.4-1.665-0.261-1.043-1.067-3.26-1.067-3.26l-0.664-0.245c-0.138-0.37-0.33-0.874-0.547-1.427-0.41-1.044-1.587-3.101-1.587-3.101l-0.805-0.168c-0.326-0.604-0.85-1.542-1.331-2.251-0.561-0.83-1.187-1.604-1.674-2.171-0.488-0.569-0.836-0.931-0.839-0.933l-0.836-0.87-0.993 0.685c-0.033 0.023-7.279 5.017-12.125 6.922-1.677 0.659-3.478 1.316-5.148 1.806 0.054-1.383-0.074-3.705-0.342-5.46-0.425-2.777-1.528-5.789-1.528-5.789l-1.006-0.404c-0.07-0.196-0.137-0.387-0.194-0.551-0.226-0.658-1.258-3.013-1.258-3.013l-0.756-0.307c-0.086-0.179-0.19-0.386-0.296-0.594-0.238-0.466-0.491-0.945-0.566-1.097-0.529-1.084-1.52-2.722-1.52-2.722l-0.562-0.144c-0.076-0.019-10.217-2.583-18.496 5.12-0.383-0.386-0.914-0.625-1.5-0.625-1.167 0-2.112 0.945-2.112 2.111" fill="#fff"/><path d="m354.66 414.43c-0.932-0.511-1.921-0.915-2.934-1.215l-8.106 3.302-4.871 4.783c4.139 3.201 16.956 2.166 28.114-2.22 5.027-1.976 12.413-7.075 12.413-7.075s1.305 1.358 2.361 2.917c0.729 1.076 1.562 2.708 1.562 2.708l0.834 0.174s0.798 1.389 1.18 2.361c0.434 1.104 0.764 2.014 0.764 2.014l0.66 0.243s0.551 1.51 0.799 2.5c0.288 1.153 0.59 2.5 0.59 2.5l0.59 0.139s0.558 1.769 0.868 3.646c0.695 4.202 0.726 5.82 2.263 10.19 0.921 2.619 3.851 5.319 3.851 5.319s-22.996 10.201-47.941 1.197c-11.179-4.036-20.163-13.326-19.685-26.362 0.012-0.35 0.035-0.694 0.067-1.033-0.512-0.121-0.777-0.157-0.777-0.157s0.022-0.298 0.275-0.847c0.137-0.297 0.228-0.406 0.343-0.549l-0.363-0.036s-0.182-0.013-0.377-0.075c-0.153-0.048-0.366-0.137-0.579-0.304-0.5-0.394-0.77-1.04-0.643-1.835 0.114-0.721 0.428-1.247 0.866-1.573 0.059-0.043 0.116-0.081 0.173-0.115-0.059-0.241-0.072-0.511-0.024-0.809 0.114-0.721 0.428-1.247 0.866-1.573 0.197-0.147 0.392-0.232 0.554-0.282-0.055-0.225-0.073-0.476-0.042-0.751 0.086-0.746 0.435-1.268 0.87-1.582 0.201-0.144 0.396-0.228 0.547-0.276 0.096-0.031 0.197-0.051 0.275-0.062 0.077-0.011 0.174-0.018 0.174-0.018l0.418 0.033c-0.005-0.153 0.007-0.312 0.037-0.478 0.155-0.843 0.655-1.36 1.23-1.586 0.253-0.1 0.484-0.13 0.648-0.137 0.214-0.01 0.352 0.017 0.352 0.017l0.897 0.123c8.013-9.61 19.057-6.787 19.057-6.787s0.655 1.081 1.159 2.114c0.152 0.311 0.852 1.619 1.057 2.161l0.768 0.312s0.767 1.747 0.985 2.378c0.117 0.339 0.279 0.792 0.415 1.168l0.978 0.393s1.003 3.153 1.284 5.012c0.334 2.201 0.401 4.408 0.401 4.408s-2.366-2.819-5.203-4.375"/><path d="m56.852 3.5723c-8.71-0.087-18.553 1.0486-28.37 4.6054-11.593 4.2023-23.375 16.194-22.574 31.176 0.015 0.285 0.036406 0.57836 0.066406 0.88086 0.15875-0.0475 0.32359-0.0993 0.49609-0.1543 2.0338-0.6525 3.375-1.8887 3.375-1.8887l6.0156 1.0332c6.2562-6.5462 26.81-3.8472 41.227 2.9141 6.1975 2.9062 10.936 5.8887 10.936 5.8887s0.73828-0.82719 1.5195-2.0859c0.47-0.75625 0.74023-1.1091 1.1152-2.0254-1.7512-0.375-2.9909-0.50977-6.0859-1.541-5.7525-1.9175-8.2949-4.7949-8.2949-4.7949s2.9179 1.7507 9.2129 3.377c3.2525 0.84 5.7957 1.1625 7.002 1.25 0.4125-0.69125 1.1602-2.9972 1.334-3.3359-0.82625 0.0275-2.0402-0.03875-4.334-0.375-3.1262-0.45875-5.8777-1.831-6.0039-1.916 0.09375 0.0625 3.1264 0.5425 7.2539 0.5 2.19-0.02125 3.1482-0.08922 4.502-0.29297 1.1288-2.8212 1.252-4.043 1.252-4.043s-1.2072 0.29422-1.8359 0.41797c-1.9175 0.375-4.0859 0.25-4.0859 0.25s5.9204-2.0022 7.4629-3.3359c1.5838-4.2525 1.2957-5.2984 2.502-11.756 0.58375-3.1262 2.7502-8.1293 5.0215-9.6855-2.8305-1.3781-14.194-4.9175-28.709-5.0625zm-46.663 40.024s-0.2093 0.42211-0.87305 0.69336-0.61328 0.22266-0.61328 0.22266 0.27711 0.45781 0.25586 0.91406c-0.01375 0.28375-0.1157 0.49898-0.2207 0.64648 0.57125 0.25875 1.0988 0.71078 1.3301 1.4883 0.0225 0.0575 0.04445 0.11789 0.06445 0.18164 0.22625 0.74125 0.05945 1.2554-0.12305 1.5566 0.4525 0.19875 0.96594 0.56438 1.2734 1.1406 0.10125 0.15 0.1875 0.32641 0.25 0.53516 0.1325 0.4475 0.10969 0.79289 0.05469 1.0254 0.7375 0.1925 1.3189 0.64398 1.6602 1.5527 0.02 0.0525 0.03773 0.10305 0.05273 0.1543 0.11 0.3575 0.12859 0.69164 0.08984 0.99414-0.0125 0.54125-0.22297 1.0476-0.69922 1.3926l-0.0332 0.0332c2.1375 2.4788 5.0273 4.3242 5.0273 4.3242 5.7588 4.3262 14.737 3.2442 15.998 2.8242 0.42-0.66 1.1398-2.1023 1.6211-2.8223-1.8512 0.47-3.8144 0.81281-7.2344 0.60156-3.4537-0.2125-5.2852-1.7129-5.2852-1.7129s2.3441 0.90211 7.0566 0.66211c3.0138-0.15375 5.2222-0.63047 7.0234-1.2305 0.36-0.6 1.3809-3.0039 1.3809-3.0039s-4.863 1.8698-10.717 1.6211c-4.665-0.1975-7.3242-2.6699-7.3242-2.6699s4.5916 1.8907 9.2754 1.4707c5.9862-0.5375 8.7057-1.7413 10.627-2.6426 1.1788-2.2675 1.9961-6.5898 1.9961-6.5898s-4.0373 5.4503-13.104 5.5703c-1.955 0.02625-4.1831-0.11062-6.2969-0.73438-0.68-0.24375-1.3101-0.48305-1.8926-0.7168l-0.04102-0.01758c-0.46625-0.185-0.89773-0.36953-1.3027-0.55078-1.005 0.08875-1.8655-0.1507-2.8418-0.4707-2.8888-0.94375-4.5147-3.7934-4.8359-5.8984l-1.5996-0.54492z" transform="matrix(.8 0 0 -.8 324.58 453.06)" fill="#b01e24"/><path d="m377.01 426.79c-0.765-0.605-1.347-1.14-2.111-1.703-0.43-0.406-0.903-0.57-1.403-0.522-0.235 0.03-0.397 0.063-0.707 0.185-8.548 3.368-15.095 5.072-23.643 4.239-0.869 0.645-1.576 1.262-2.456 1.87-0.476 2.447-1.144 6.153-1.145 6.155-0.385 0.228-0.774 0.322-0.774 0.322-0.47 1.531-0.888 2.935-1.362 4.481 11.292 2.43 24.376 3.351 36.829-0.096-0.451-1.958-0.847-3.72-1.323-5.635-0.253-0.246-0.458-0.457-0.694-0.695v-4.73c0-0.547 0.004-1.007-0.055-1.566-0.075-0.614-0.19-1.204-0.566-1.746-0.202-0.279-0.375-0.417-0.59-0.559"/></g><path d="m45.652 12.771c-0.72812 0.0064-1.4552 0.02359-2.2383 0.05859 0.1225 1.1588 0.20953 2.2178 0.33203 3.3828 0.27875-0.0025 0.51758-0.01336 0.79883-0.0059v6.6211c-0.26875-0.02125-0.79883-0.05273-0.79883-0.05273-0.2875 1.2475-0.54133 2.3855-0.83008 3.6367 1.5775 0.15 3.4098 0.47633 4.9785 0.73633v-4.7383c1.1362 1.4962 2.3327 3.7406 3.4102 5.3281 1.2138 0.2675 2.9224 0.74094 4.1387 1.0547-0.30875-1.5825-0.58102-3.0158-0.88476-4.582-0.32625-0.0475-0.82508-0.14328-1.1426-0.20703-1.04-1.5925-1.6272-2.573-2.6797-4.123 1.0012-1.4412 1.7886-2.2437 2.6836-3.3574 0.31625 0.01875 0.90234 0.08398 0.90234 0.08398 0.1725-1.2362 0.3243-2.3653 0.49805-3.6016-1.2475-0.09625-2.7022-0.17578-3.9297-0.20703-1.12 1.8762-1.9157 2.9511-3.0332 4.6836 0-1.8 0.03906-2.7952 0.03906-4.709-0.78688-0.0056-1.516-0.0084-2.2441-0.002zm-2.4883 0.0625c-1.9038 0.11875-3.7275 0.24469-5.625 0.42969 0 1.1075 0.31641 2.0505 0.31641 3.1367 0.39625-0.03875 0.42203-0.0307 0.83203-0.06445-0.23 2.1925-0.52 3.7692-0.78125 5.6367-0.45125-2.8438-0.79828-5.2759-1.2695-8.6172-1.4512 0.1675-2.5804 0.31531-4.0254 0.50781-0.46375 3.3-0.85859 5.5926-1.3398 8.3301-0.28-1.7612-0.46844-3.1276-0.77344-5.0488 0.36625-0.035 0.51828-0.06023 0.89453-0.08398 0-1.0025 0.13672-2.0046 0.13672-3.0371-2.6038 0.3125-6.1394 1.0254-6.1406 1.0254 0.3875 1.2638 0.72508 2.4163 1.1113 3.6738 0 0 0.5493-0.09711 0.8418-0.13086 0.64 3.2862 0.82977 4.6979 1.416 7.7129 1.745-0.20125 3.0934-0.25524 4.8496-0.33398 0.33875-1.9212 0.60062-3.5401 0.95312-5.7676 0.3475 2.1925 0.55984 3.8284 0.93359 5.7422 1.7525-0.0175 3.118 0.07539 4.8867 0.18164 0.53875-3.0625 1.097-5.856 1.5957-9.916 0.3-0.0025 0.73047-0.01367 0.73047-0.01367 0.16375-1.1588 0.29578-2.2133 0.45703-3.3633zm11.844 0.18555c0.11 1.2612 0.22078 2.4113 0.33203 3.6738 0 0 0.56609 0.13102 0.87109 0.16602 0 2.965-0.0039 5.4746-0.0039 8.4746 0 1.3962-0.0052 2.1242 0.79102 3.1367 0.37625 0.4275 0.70578 0.67523 1.1133 0.89648 0.405 0.2125 0.72945 0.32359 1.127 0.46484 1.1075 0.39125 2.2834 0.68508 3.3984 1.0801 0.9 0.33625 1.8589 0.73047 2.6914-0.26953 0.28125-0.405 0.37008-0.85789 0.45508-1.4629 0.0725-0.5925 0.05469-1.1159 0.05469-1.6934v-7.5527s0.89148 0.2875 1.209 0.375c0.3425-1.7662 0.64984-3.3817 0.99609-5.168-0.0012 0-4.3517-0.92969-6.043-1.2422v13.275c-0.58875-0.1525-1.0586-0.31672-1.6523-0.48047 0-4.6088 0.002-8.5209 0.002-13.068-1.7125-0.255-3.648-0.44422-5.3418-0.60547zm-44.942 26.582s-0.94539 0.76078-2.3379 1.3633c-1.4775 0.64125-2.3164 0.63086-2.3164 0.63086s0.65898 1.0272 2.4902 0.74219c1.6575-0.25625 2.3438-1.1719 2.3438-1.1719l4.3184 1.0586c0.34375 1.945 1.144 3.2888 3.1465 4.7188 1.1987 0.85625 2.7158 1.1138 4.4883 1.1426l3.2715 2.584s0.89524 0.22875 2.584 0.1875c2.5425-0.06375 3.3145-0.27148 3.3145-0.27148l-8.368-3.586-6.52-6.119-6.414-1.279zm-4.584 4.2695c-0.405 0.0175-1.7285 0.05469-1.7285 0.05469s-0.89711 0.09414-0.72461 1.1816c0.19375 1.2212 1.1191 1.2266 1.1191 1.2266s0.97555-0.06555 1.8105-0.0918c0.75625-0.02375 1.2209-0.66141 1.2422-1.0664 0.06875-1.3025-1.5525-1.3122-1.7188-1.3047zm1.6152 3.2207c-0.2275 0.06-1.8984 0.11914-1.8984 0.11914s-0.98914 0.03461-0.90039 1.1309c0.1 1.2438 0.94922 1.2461 0.94922 1.2461s1.6445-0.04844 2.4082-0.11719c0.785-0.07125 1.1714-0.66922 1.1602-1.0742-0.03375-1.2638-1.5575-1.3472-1.7188-1.3047zm1.3438 3.3066c-0.23625 0.01-1.5098 0.13086-1.5098 0.13086s-1.0273 0.03836-0.90234 1.1309c0.1275 1.1162 0.95703 1.2012 0.95703 1.2012s1.2376-0.10242 2.0488-0.13867c0.75625-0.03375 1.1311-0.62234 1.1523-1.0273 0.07-1.3038-1.4611-1.3081-1.7461-1.2969zm2.2988 2.9746c-0.63125-0.0325-1.209 0.22852-1.209 0.22852s-0.79078 0.09555-0.61328 1.0605c0.215 1.1738 1.2168 1.0254 1.2168 1.0254l1.1973-0.16602s0.97336-0.45805 0.63086-1.373c-0.21-0.56-0.50141-0.73789-1.2227-0.77539z" fill-rule="evenodd" transform="matrix(.8 0 0 -.8 324.58 453.06)" fill="#fff"/></g></g></svg>
