<svg xmlns="http://www.w3.org/2000/svg" width="247" height="233.09" viewBox="0 0 247 233.09">
 <g>
  <path transform="matrix(3.6216 0 0 3.6216 .9128 .52896)" d="m57.496 0.201c-5.334 0.063-10.276 0.606-10.276 0.606l-0.181 1.593h-2e-3 1e-3l-1.7 14.879s1.086 0.018 1.48 0.76c0.393 0.734 0.478 1.319 0.14 2.38l-3.905 14.903-2.609-12.07c-0.24-0.96-0.218-2.476 0.199-3.375 0.307-0.665 0.753-0.938 1.056-1.05l1.826-17.706a98.68 98.68 0 0 0-8.871 1.362c-4.287 0.878-7.94 1.932-7.94 1.932l-2.076 18.057s0.83 0.018 1.304 0.916c0.544 1.025 0.316 1.521 0 2.847l-3.615 14.43-2.629-11.914c-0.234-1.02-0.217-2.663 0.158-3.472 0.35-0.75 0.759-1.157 1.07-1.375l1.901-18.444c-1.555 0.55-6.582 2.408-10.814 4.863-4.445 2.578-7.607 5.362-7.607 5.362l-2.035 18.857s0.858-0.53 1.936-0.195c1.069 0.33 1.35 1.153 1.66 2.126l7.818 23.743c3.603-5.217 9.094-7.797 15.22-9.3a54.27 54.27 0 0 1 1.58-0.364l2.767-13.884 2.766 12.792s2.527-0.34 6.5-0.136c4.487 0.23 7.788 0.982 9.395 1.424 0.714 0.196 1.097 0.332 1.097 0.332l9.405-30.052s0.428-2.194 1.54-2.964c0.79-0.547 1.818-0.468 1.818-0.468l1.777-17.12s-3.477-0.353-10.154-0.276" fill="#c5050c"/>
  <path d="m171.25 9.2222c-4.1757 0.43821-6.7182 0.76014-6.7834 0.771l-0.92661 0.12025-5.9841 56.906-0.0849 1.2803h1.3156c0.31146 0 3.039 0.05179 4.0531 1.9169 1.1227 2.0752 1.0488 4.9369-0.24051 9.0257l-9.054 34.058 3.2821 15.151 14.14-53.977c1.2241-3.8389 0.92107-5.9606-0.50221-8.6225-1.4269-2.68-5.3616-2.7516-5.3616-2.7516l6.1539-53.878zm-74.292 13.312a245.25 245.25 0 0 0-7.1441 2.3484l-0.70026 0.2405-6.9532 60.117-0.14856 1.5137 1.5349-0.23341c0.17021-0.02535 1.8593-0.13856 3.4094 2.0018 1.637 2.2635 1.0981 4.4785 0.12024 8.5093l-8.6578 35.6 3.3457 15.165 13.093-52.258c1.1444-4.8022 1.9701-6.5938 0-10.306-1.7166-3.2522-4.718-3.3174-4.718-3.3174zm-80.672 40.198a150.82 150.82 0 0 0-7.901 6.9036l-0.30416 0.29001-7.1724 65.507 2.0513-1.2591c0.039837-0.0217 3.7492-2.2564 7.2078-2.2564 0.66275 0 1.2815 0.0843 1.832 0.26173 2.5749 0.80399 3.4295 2.1649 4.534 5.6163l32.403 94.515 1.3227-2.122c12.44-20.013 27.999-31.29 53.708-38.939l0.67904-0.20513 1.3086-6.1185c-22.186 5.4432-42.074 14.79-55.123 33.684l-28.315-85.991c-1.1154-3.5238-2.1373-6.4971-6.0124-7.6959a9.0793 9.0793 0 0 0-7.0097 0.70734zm105.41 70.593-3.6216 18.172 8.672 36.4 1.1459-0.25464c0.0761-0.0145 7.2352-1.5774 20.704-1.5774 2.173 0 4.4209 0.0368 6.6844 0.12733 15.558 0.55048 30.635 4.5755 30.783 4.6189l1.1105 0.29002 2.1079-6.7834c-5.8199-1.6007-17.78-4.3236-34.03-5.1565-14.389-0.73881-23.54 0.49513-23.54 0.49514z"/>
 </g>
</svg>