<svg xmlns="http://www.w3.org/2000/svg" viewBox="0 0 409.74 181.8">
  <path d="M407.995 180.924c-22.608-30.448-62.068-67.638-109.078-88.518l9.602 22.122c-39.975-20.133-84.412-34.585-134.784-34.356l10.735 11.623C91.426 95.44 36.834 141.58 1.095 180.926 1.93 127.65 40.104 79.536 90.393 50.163l-10.351-9.609c37.427-25.904 89.924-33.173 134.23-28.056l-6.3-11.366c146.77 10.906 208.934 120.444 200.021 179.789" fill="#fff"/>
  <path d="m173.054 87.293-11.276-12.21c42.734-1.42 85.937 5.014 136.196 28.636l-9.258-21.334c37.837 14.659 79.758 42.021 114.91 84.464-3.095-64.265-67.998-147.543-186.042-159.45l6.564 11.842c-47.712-8.106-101.318.33-135.437 22.083l10.67 9.902C48.026 78.766 14.295 122.578 7.048 166.85c42.386-44.271 97.491-74.845 166.003-79.558" fill="#0080c6"/>
  <path d="M385.202 132.345C365.198 78.503 305.037 32.081 237.499 20.968l7.933 14.138c-40.678-12.583-99.79-11.821-138.65 8.454l11.147 10.346c-35.615 15.262-73.192 47.947-88.072 77.978C54.251 109.88 107.322 84.411 150.861 79l-10.818-11.715c41.843-8.294 97.61-.084 137.37 16.06L269.7 65.57c29.282 6.002 83.698 32.165 115.497 66.772" fill="#ffc20e"/>
</svg>