<svg fill="none" xmlns="http://www.w3.org/2000/svg" viewBox="0 0 376 267">
  <circle cx="268" cy="157" r="91" fill="#fff"/>
  <path d="M262.528 259.421c-14.203-.946-24.965-3.452-36.666-8.536-17.346-7.535-33.018-20.713-43.797-36.825l-2.696-4.028-2.346-.785c-11.879-3.977-22.447-10.209-30.4-17.929-8.951-8.687-15.267-19.916-17.576-31.245-.576-2.828-1.153-7.543-.923-7.543.063 0 1.027.976 2.141 2.169 1.113 1.192 2.917 2.778 4.008 3.523 4.693 3.207 10.045 3.743 12.04 1.207 2.419-3.075-.64-8.617-7.716-13.976-5.338-4.043-8.333-5.452-26.399-12.421-17.977-6.934-28.54-12.779-35.106-19.426-4.982-5.043-7.682-8.839-10.808-15.195-3.875-7.878-6.12-16.166-7.592-28.013-.576-4.643-1.257-12.654-1.089-12.821.044-.045.724 1.39 1.51 3.188 5.558 12.717 14.739 23.345 24.902 28.83 2.924 1.577 8.062 3.472 12.008 4.428 3.767.913 7.752.991 9.286.183 1.82-.958 2.599-3.573 1.578-5.3-.687-1.163-2.351-2.086-7.45-4.131-9.798-3.931-14.337-6.871-18.974-12.29-3.97-4.638-8.478-12.548-12.393-21.74-6.45-15.143-13.58-24.211-24.772-31.495-4.216-2.744-11.288-5.954-16.676-7.57-1.249-.374-2.272-.763-2.273-.864-.002-.1.36-.261.804-.357l4.293-.925c8.28-1.783 16.206-2.6 25.26-2.601 18.118-.004 33.675 4.174 47.204 12.677 7.061 4.438 11.686 8.546 22.281 19.789 6.185 6.562 12.187 11.342 17.02 13.553 3.383 1.548 5.711 2.03 9.852 2.039 3.338.007 3.797-.058 5.118-.725 2.903-1.467 3.404-3.626 1.663-7.162-1.187-2.412-4.9-6.403-7.669-8.243-5.929-3.942-14.702-6.753-24.484-7.846l-3.52-.393 1.32-.844c3.732-2.387 10.603-5.193 16.233-6.63 8.359-2.135 19.477-2.312 27.472-.439 8.474 1.985 15.023 5.858 28.013 16.566 7.51 6.19 9.073 7.396 11.718 9.037 5.382 3.34 8.706 4.306 14.254 4.14 3.31-.1 3.846-.193 5.358-.933 1.99-.974 2.656-2.012 2.667-4.16.018-3.402-3.216-6.324-8.456-7.64-1.072-.27-1.897-.542-1.832-.607.368-.368 6.592-1.31 10.68-1.614 7.583-.566 15.832.278 23.331 2.388 9.669 2.72 18.396 7.517 26.444 14.536l2.089 1.822 3.073.514c16.338 2.731 32.896 10.209 46.191 20.86 4.104 3.288 12.558 11.698 15.594 15.513 12.373 15.549 19.388 32.121 21.98 51.919.637 4.873.848 14.78.427 20.093-2.411 30.42-17.743 57.555-42.616 75.42-14.239 10.227-31.563 16.73-49.064 18.418-3.613.349-12.051.604-14.519.44Zm12.026-13.334c25.797-2.342 48.726-15.149 64.186-35.854 8.906-11.927 14.427-25.355 16.848-40.98.853-5.501.918-18.248.122-23.909-2.917-20.741-11.738-38.279-26.493-52.671-13.563-13.23-30.482-21.566-49.505-24.395-3.784-.562-5.634-.657-12.784-.657-7.151 0-9 .095-12.785.657-15.937 2.37-30.41 8.616-42.948 18.535-3.787 2.997-11.154 10.342-14.133 14.092-9.058 11.401-15.069 24.248-17.836 38.119-1.356 6.796-1.617 9.752-1.608 18.199.01 9.021.545 13.558 2.542 21.56 3.948 15.822 11.806 29.629 23.545 41.371 11.747 11.752 25.73 19.689 41.516 23.567 4.344 1.066 11.102 2.206 14.667 2.473 3.152.235 11.567.174 14.666-.107Zm-15.106-7.522c-15.827-1.41-31.507-7.834-44.293-18.147-3.311-2.67-9.427-8.833-12.209-12.302-8.996-11.218-14.767-24.519-17.183-39.6-.745-4.653-.748-18.578-.005-23.172 2.782-17.194 9.435-31.274 20.653-43.706 10.284-11.398 24.97-20.265 39.832-24.051 7.386-1.882 12.906-2.56 20.831-2.56 26.072.003 49.887 11.984 65.607 33.007 8.903 11.905 14.213 25.657 15.815 40.949.438 4.19.188 15.521-.435 19.622-1.543 10.167-5.006 20.251-9.853 28.685-3.884 6.76-7.53 11.541-13.145 17.239-13.119 13.31-30.208 21.648-48.749 23.783-3.6.414-13.405.561-16.866.253Zm17.457-53.622c5.337-23.393 9.835-43.028 9.995-43.633l.29-1.1h23.926l3.924 7.085c2.158 3.896 3.984 6.899 4.058 6.673.074-.226 1.962-5.601 4.195-11.945 2.233-6.343 4.06-11.656 4.06-11.806 0-.167-11.769-.273-30.213-.273h-30.212l.023 49.059c.012 26.982.074 48.927.136 48.765.062-.161 4.48-19.432 9.818-42.825Zm-58.199-37.766 3.827-6.82 12.444-.147 12.444-.146 9.053-4.987 9.052-4.986-29.56-.075c-16.257-.041-29.612-.022-29.677.043-.151.152 8.229 23.936 8.435 23.937.085 0 1.877-3.068 3.982-6.819Z" fill="#C4C8D0"/>
  <path d="M258.568 259.111a896.82 896.82 0 0 0-3.667-.412c-18.906-2.095-37.639-10.067-52.618-22.39-7.882-6.484-14.185-13.436-20.112-22.18l-2.883-4.254-2.893-.971c-17.34-5.828-31.231-16.272-39.61-29.784-4.546-7.331-7.862-16.829-8.497-24.339l-.184-2.179 2.923 2.858c2.373 2.321 3.403 3.096 5.477 4.124 2.26 1.12 2.831 1.278 4.963 1.377 2.826.13 4.036-.335 5.143-1.978.89-1.32.764-3.091-.388-5.478-1.184-2.452-5.859-7.032-9.948-9.748-4.254-2.824-8.093-4.624-17.774-8.334-11.319-4.338-16.598-6.562-23.022-9.698-8.696-4.246-13.404-7.32-17.994-11.751-11.39-10.995-17.515-26.668-19.381-49.589-.597-7.334-.6-7.318.547-4.546 3.32 8.021 8.79 16.142 14.722 21.86 6.719 6.474 12.891 9.866 22.499 12.362 3.606.937 7.907 1.07 9.373.29 1.893-1.008 2.669-3.548 1.672-5.476-.6-1.16-2.108-1.987-7.954-4.36-5.91-2.4-8.06-3.457-10.829-5.325-8.027-5.415-13.365-13.099-20.37-29.324-4.337-10.046-8.006-15.828-13.933-21.959-4.91-5.078-9.73-8.627-15.99-11.77-3.027-1.519-10.937-4.697-11.692-4.697-.163 0-.669-.149-1.123-.33-.816-.326-.807-.335.788-.723C29.38 9.52 35.2 8.466 39.44 7.921c21.207-2.723 40.203.085 56.412 8.339 9.527 4.85 16.908 10.73 25.544 20.348 4.819 5.367 8.364 8.677 13.121 12.252 5.783 4.346 9.729 5.922 15.533 6.205 3.946.191 6.058-.307 7.706-1.818 1.015-.93 1.079-1.095 1.062-2.7-.053-4.746-6.015-11.09-13.726-14.605-5.52-2.515-16.387-5.143-21.272-5.143-.665 0-1.209-.11-1.209-.247 0-.414 5.374-3.253 8.723-4.607 15.273-6.176 32.907-6.055 45.551.312 4.5 2.266 11.27 7.241 22.724 16.7 9.431 7.788 15.811 10.441 23.003 9.567 4.878-.593 6.622-1.962 6.623-5.2 0-1.54-.132-1.995-.892-3.077-1.302-1.852-3.661-3.368-6.726-4.32l-2.643-.822 1.464-.331c9.12-2.062 20.873-1.8 30.669.683 10.328 2.618 19.149 7.27 27.847 14.682l2.493 2.125 3.52.63c16.987 3.033 32.349 10.077 46.265 21.212 4.222 3.378 11.895 11.105 15.406 15.514 21.779 27.35 28.077 63.288 16.934 96.638-7.505 22.465-23.781 42.522-44.506 54.845-12.763 7.588-26.604 12.183-41.448 13.758-3.674.39-16.415.557-19.05.25Zm18.188-13.157c17.056-1.971 32.793-8.505 46.039-19.117 17.661-14.149 29.297-34.28 32.738-56.638.889-5.778 1.106-17.111.44-22.949-2.359-20.65-11.029-38.862-25.419-53.389-18.13-18.303-42.45-27.681-68.393-26.373-32.139 1.62-60.846 20.404-75.275 49.256-5.036 10.069-8.044 20.404-9.123 31.344-.448 4.535-.368 14.259.155 18.815 1.931 16.848 8.394 32.501 18.891 45.759 3.096 3.91 10.398 11.207 14.349 14.34 13.191 10.46 28.698 16.925 45.356 18.91 4.818.574 15.449.596 20.242.042Zm-16.722-7.387c-13.407-1.17-26.741-5.826-38.115-13.308-4.737-3.116-7.592-5.401-11.71-9.37-13.584-13.097-21.894-29.559-24.58-48.693-.523-3.728-.522-16.809.001-20.532 2.613-18.586 10.281-34.31 23.007-47.183 4.456-4.507 8.065-7.496 13.051-10.808 10.989-7.299 22.881-11.627 36.146-13.156 5.259-.606 16.382-.45 20.973.293 16.781 2.716 31.412 9.66 43.154 20.479 14.715 13.558 23.431 30.275 26.265 50.375.605 4.287.521 17.15-.14 21.412-1.49 9.616-3.814 17.079-7.854 25.226-5.965 12.029-14.873 22.45-25.97 30.384-11.57 8.272-25.168 13.339-39.666 14.78-2.8.279-11.813.341-14.562.101Zm17.018-54.064c5.422-23.796 9.926-43.497 10.007-43.779.138-.479.966-.513 12.081-.509l11.933.004 3.667 6.636c2.017 3.65 3.803 6.825 3.97 7.055.229.316 1.299-2.403 4.318-10.967 2.207-6.262 4.609-13.069 5.337-15.126l1.325-3.74H203.96l5.305 15.083c3.106 8.834 5.413 14.977 5.568 14.828.145-.14 1.949-3.265 4.009-6.943l3.745-6.688 12.197-.077c6.709-.042 12.197-.003 12.197.085 0 .225 19.648 86.68 19.864 87.403.096.323.213.455.261.294.047-.162 4.523-19.763 9.946-43.559Z" fill="#9DB2CF"/>
  <path d="M259.008 259.121c-.565-.068-2.704-.319-4.755-.558-21.878-2.554-42.859-12.749-58.928-28.635-5.544-5.481-9.863-10.779-14.522-17.818l-1.434-2.166-3.519-1.246c-23.723-8.401-39.721-24.018-45.672-44.582-.906-3.13-1.994-8.924-1.994-10.616v-1.025l1.002 1.199c4.932 5.903 12.081 8.95 15.927 6.788 6.151-3.458-1.571-13.762-15.287-20.396-2.113-1.022-6.68-2.938-10.149-4.258-13.645-5.192-20.314-8.022-26.586-11.281-8.251-4.288-13.096-7.743-17.398-12.408-8.355-9.059-13.374-20.183-16.005-35.466-.795-4.617-1.906-14.67-1.898-17.174l.005-1.547 1.272 2.933c3.366 7.763 8.22 14.893 14.015 20.59 3.07 3.017 4.175 3.937 7.145 5.951 6.033 4.091 15.518 7.417 21.264 7.456 4.153.028 5.594-.933 5.804-3.868.202-2.828-.651-3.47-9.08-6.822-7.329-2.916-10.812-5.018-15.021-9.067-5.535-5.324-9.624-11.97-14.986-24.36-4.805-11.1-9.166-17.888-15.507-24.133-6.513-6.415-14.95-11.397-24.688-14.58-2.516-.822-3.973-1.472-3.3-1.472.106 0 2.475-.46 5.266-1.02 8.465-1.702 13.285-2.23 21.999-2.413 11.087-.232 17.785.466 26.967 2.81 5.605 1.432 10.136 3.077 15.066 5.47 10.433 5.063 18.129 10.993 26.827 20.672 9.315 10.366 16.904 16.204 23.694 18.23 2.837.847 8.494 1.075 10.707.432 3.975-1.156 4.766-4.288 2.19-8.675-1.392-2.37-5.534-6.367-8.316-8.022-5.989-3.564-14.019-6.044-22.856-7.058-1.846-.212-3.42-.45-3.499-.528-.175-.176 4.473-2.668 7.479-4.01 10.507-4.694 24.054-6.217 35.346-3.975 9.745 1.934 15.555 5.354 31.8 18.717 6.258 5.148 8.865 7.009 12.321 8.794 4.481 2.314 9.221 3.207 13.518 2.547 3.963-.609 5.795-1.976 6.084-4.542.406-3.605-2.574-6.635-8.131-8.264l-2.193-.643 1.607-.33c8.48-1.737 19.924-1.624 28.572.283 10.855 2.393 20.679 7.358 29.487 14.904 1.961 1.68 3.078 2.427 3.813 2.55 18.928 3.17 34.214 10 49.132 21.956 6.73 5.395 15.121 14.655 20.229 22.324 20.214 30.353 22.683 69.491 6.436 102.012-5.067 10.141-11.136 18.563-19.172 26.603-16.17 16.176-35.845 25.898-59.105 29.206-3.089.439-18.482.829-20.973.531Zm18.556-13.185c6.862-.844 14.259-2.625 20.654-4.973 7.09-2.603 17.124-8.231 23.708-13.299 7.667-5.9 15.829-14.989 21.245-23.655 9.557-15.294 14.476-34.806 13.237-52.506-.727-10.384-2.519-18.49-6.095-27.572-6.82-17.32-18.811-31.93-34.84-42.45-3.952-2.594-12.645-7-16.866-8.548-27.075-9.93-56.891-6.72-80.372 8.652-22.617 14.807-37.078 38.022-40.371 64.81-.588 4.781-.66 15.471-.136 19.921 2.496 21.161 11.186 39.307 25.847 53.967 15.775 15.775 35.587 24.633 58.659 26.227 2.932.203 11.681-.125 15.33-.574Zm-18.241-7.473c-19.151-1.847-36.656-10.147-50.342-23.869-4.468-4.48-6.866-7.406-10.298-12.566-6.938-10.432-11.222-21.965-13.047-35.125-.589-4.249-.508-16.571.138-20.973 2.785-18.973 10.945-34.921 24.639-48.158 18.583-17.963 44.652-25.901 70.594-21.497 25.252 4.287 47.494 20.837 59.096 43.969 5.351 10.67 8.161 21.786 8.568 33.899.647 19.253-5.257 37.53-17.102 52.942-3.331 4.335-10.154 11.153-14.536 14.526-11.53 8.875-24.278 14.236-39.106 16.447-3.548.529-14.781.774-18.604.405Zm27.41-96.129.476-2.13 11.932.076 11.932.077 3.431 6.16c4.255 7.639 4.373 7.841 4.518 7.695.065-.065 2.284-6.245 4.931-13.733a6009.092 6009.092 0 0 1 5.279-14.899c.257-.706.468-1.332.468-1.393 0-.06-28.312-.11-62.915-.11h-62.914l1.026 2.86a6125.63 6125.63 0 0 1 5.349 15.106c2.377 6.734 4.389 12.242 4.469 12.24.081-.003 1.913-3.171 4.071-7.039l3.923-7.034h11.972c6.585 0 12.04.11 12.123.244.082.133 4.586 19.768 10.008 43.632 5.423 23.864 9.936 43.652 10.03 43.974.125.431 14.147-59.997 19.891-85.726Z" fill="#638DCA"/>
  <path d="M257.834 258.979c-10.37-.899-21.901-3.845-31.679-8.094-17.974-7.809-34.001-21.385-44.652-37.824-1.541-2.379-2.337-3.344-2.867-3.475-2.337-.576-9.576-3.513-13.493-5.473-12.095-6.053-21.026-13.82-27.714-24.104-4.755-7.312-8.296-17.129-9.118-25.279l-.207-2.053 2.316 2.346c1.273 1.291 3.069 2.846 3.991 3.457 4.947 3.277 10.447 3.572 12.248.657 1.511-2.444.077-6.175-3.912-10.182-5.204-5.228-11.945-9.005-24.536-13.748-18.102-6.819-28.945-12.021-36.083-17.308-10.01-7.415-17.36-19.373-20.952-34.09-1.45-5.941-2.736-14.855-3.268-22.65-.11-1.614-.134-2.868-.053-2.787.08.08.698 1.4 1.372 2.933 5.318 12.092 14.249 22.493 24.032 27.989 6.704 3.766 16.827 6.421 20.824 5.462 2.189-.525 3.275-1.838 3.275-3.959 0-2.742-.773-3.297-9.425-6.765-7.662-3.072-11.558-5.563-16.046-10.256-4.6-4.811-8.685-11.656-13.397-22.444-4.43-10.143-7.639-15.574-12.597-21.326C48.93 21.93 40.165 16.2 28.847 12.325c-1.91-.654-3.672-1.27-3.914-1.366-.844-.34 7.72-2.085 14.96-3.05 5.837-.779 17.575-1.082 23.288-.602 18.01 1.512 33.42 7.48 46.523 18.015 3.814 3.066 7.651 6.814 12.074 11.795 3.877 4.365 6.477 6.853 10.659 10.205 7.607 6.095 12.28 7.984 19.244 7.776 2.802-.083 3.572-.212 4.764-.8 3.232-1.59 3.398-4.568.497-8.905-2.604-3.892-6.224-6.81-11.571-9.323-5.176-2.433-11.911-4.265-18.36-4.993-4.991-.564-4.966-.464-.683-2.676 6.165-3.184 12.388-5.22 19.285-6.307 4.367-.689 13.825-.694 17.77-.01 11.186 1.94 16.709 4.986 32.607 17.976 3.765 3.077 7.91 6.337 9.211 7.246 2.791 1.95 7.189 4.12 9.661 4.77 2.747.72 6.679.858 9.196.322 3.688-.786 5.035-1.982 5.257-4.669.291-3.502-2.645-6.393-8.123-8l-2.176-.637 2.663-.49c6.386-1.173 14.876-1.417 21.107-.605 14.028 1.827 27.018 7.74 36.707 16.712l1.741 1.611 3.384.588c31.632 5.493 59.073 25.954 73.516 54.817 11.37 22.721 13.832 48.935 6.905 73.511-6.856 24.324-22.672 45.276-44.433 58.861-13.371 8.348-29.03 13.529-45.025 14.897-4.054.347-13.668.338-17.747-.015Zm20.085-8.629c28.669-3.354 53.935-19.527 69.276-44.345 7.205-11.656 11.747-25.076 13.336-39.395.545-4.91.471-15.378-.145-20.511-2.141-17.858-8.808-33.907-19.91-47.932-2.713-3.427-10.762-11.57-14.003-14.168-13.771-11.035-28.896-17.693-45.864-20.191l-3.184-.47-2.536-2.267c-9.699-8.676-21.013-14.06-31.364-14.923l-2.264-.19.96.812c.527.446 1.319 1.424 1.76 2.173 1.108 1.885 1.113 4.531.014 6.643-2.413 4.631-8.862 7.964-17.66 9.127-4.288.566-13.079.407-17.633-.32-6.641-1.06-12.754-2.946-18.515-5.712-6.36-3.052-10.458-6.174-15.451-11.77-2.65-2.97-6.227-6.145-9.166-8.134-2.009-1.36-6.293-3.44-7.613-3.696l-.88-.17.719.51c4.896 3.478 6.959 6.383 11.37 16.016 4.324 9.441 6.034 12.028 10.338 15.635 2.292 1.921 6.607 4.325 9.554 5.322 4.034 1.365 6.504 1.845 13.862 2.694 5.947.685 8.52 2.845 6.967 5.849-.712 1.376-4.048 4.197-6.514 5.509-7.971 4.24-15.128 2.409-24.444-6.255-7.168-6.666-12.627-9.368-21.947-10.864-2.666-.428-4.704-.484-13.692-.376-23.497.283-29.059.02-37.268-1.769-9.53-2.076-15.01-5.12-21.607-12.004a69.428 69.428 0 0 1-8.76-11.222l-1.934-3.08c-.478-.755.53 2.488 1.75 5.638 4.445 11.46 11.057 20.555 19.513 26.833 6.007 4.46 11.446 6.742 20.587 8.636 15.7 3.255 28.056 7.345 35.417 11.726 6.974 4.15 13.604 10.71 17.43 17.246 1.691 2.89 3.526 7.125 4.61 10.64 1.342 4.348 1.858 7.869 1.745 11.894-.108 3.859-.58 5.019-2.116 5.202-1.175.14-2.216-1.174-3.837-4.843-3.937-8.909-7.011-13.762-11.183-17.659-4.978-4.648-12.337-8.448-19.709-10.176-4.973-1.166-7.459-1.354-21.184-1.601-7.502-.135-14.561-.377-15.688-.537-1.127-.16-2.092-.247-2.145-.194-.24.239 6.027 2.072 13.033 3.812 8.618 2.14 12.718 3.509 17.503 5.843 12.485 6.091 22.15 16.18 29.258 30.541 6.801 13.739 7.299 24.299 1.376 29.158-.473.388-1.672 1.044-2.666 1.457-2.888 1.204-8.451 1.026-13.626-.435-.657-.185-.65-.147.251 1.388 5.602 9.544 15.939 18.233 27.878 23.432 3.071 1.337 8.929 3.356 11.899 4.101 1.12.281 1.34.508 2.638 2.722 5.45 9.296 14.996 19.814 24.083 26.534 5.174 3.826 8.948 6.144 14.59 8.961 11.49 5.736 22.399 8.605 36.96 9.718 2.753.211 12.039-.119 15.831-.563Zm-18.11-11.871c-24.754-2.404-46.355-15.042-60.419-35.35-6.832-9.866-11.511-21.858-13.459-34.497-.869-5.637-.946-17.013-.152-22.408 1.455-9.881 3.648-17.04 7.817-25.52 6.815-13.861 17.744-25.839 30.762-33.714 9.516-5.756 19.34-9.303 30.69-11.08 3.448-.54 5.352-.645 11.88-.652 8.562-.009 12.414.419 19.541 2.17a81.64 81.64 0 0 1 53.79 43.276c4.21 8.564 6.327 15.48 7.817 25.541.794 5.365.718 16.75-.151 22.387-3.603 23.366-16.148 43.236-35.532 56.279-10.004 6.732-21.443 11.148-33.613 12.976-4.613.693-14.696 1.008-18.971.592Zm17.239-53.683c5.42-23.796 9.978-43.564 10.128-43.929l.275-.663 11.805.076 11.805.077 3.676 6.6c2.021 3.63 3.809 6.827 3.973 7.106.236.399.845-1.052 2.896-6.893 1.428-4.07 3.834-10.872 5.345-15.116 1.512-4.244 2.749-7.775 2.749-7.847 0-.071-28.328-.13-62.95-.13-59.834 0-62.94.026-62.749.514.278.706 5.78 16.186 8.392 23.612 1.178 3.348 2.216 6.087 2.305 6.086.09 0 1.936-3.168 4.102-7.04l3.938-7.039h11.958c6.577 0 12.018.099 12.091.22.074.121 4.575 19.756 10.002 43.633 10.256 45.117 10.175 44.77 10.318 44.292.048-.161 4.522-19.763 9.941-43.559Z" fill="#4E72A3"/>
  <path d="M260.034 259.125c-4.889-.489-7.394-.791-9.679-1.166-27.857-4.566-52.333-20.387-68.263-44.122l-2.656-3.958-3.407-1.203c-21.99-7.771-36.856-21.14-44.169-39.72-1.701-4.323-3.665-12.671-3.674-15.625-.002-.341.785.279 2.299 1.81 4.032 4.082 7.641 5.97 11.485 6.011 2.556.027 3.811-.497 4.705-1.963 3.112-5.104-6.149-14.77-19.664-20.524-1.694-.721-5.258-2.132-7.92-3.136-23.682-8.931-34.75-14.758-42.105-22.165-11.006-11.085-16.703-25.888-18.75-48.723-.615-6.858-.626-6.81.831-3.58 5.206 11.545 12.476 20.584 21.321 26.51 8.38 5.615 21.403 9.03 25.286 6.63 1.534-.947 2.259-3.2 1.565-4.862-.63-1.506-2.317-2.546-7.436-4.585-8.386-3.339-12.336-5.63-16.55-9.604-5.436-5.127-9.797-12.37-15.763-26.18-5.715-13.23-12.864-22.26-23.014-29.066-5.185-3.477-12.007-6.7-17.71-8.368-1.008-.295-1.833-.616-1.833-.713 0-.277 8.507-1.97 13.053-2.599 7.09-.98 12.454-1.279 19.506-1.09 14.566.392 26.544 3.264 38.087 9.133 10.193 5.184 16.156 10.061 28.491 23.306 6.619 7.107 13.995 12.636 19.127 14.338 5.177 1.717 10.508 1.85 13.475.336 6.144-3.134-.789-13.72-12.247-18.698-4.892-2.126-11.224-3.768-17.687-4.587-2.005-.255-3.697-.515-3.762-.58-.16-.16 3.132-1.98 5.862-3.24 15.503-7.163 34.571-7.517 47.745-.886 4.903 2.468 9.758 5.956 20.192 14.504 7.253 5.942 10.16 8.006 13.61 9.662 3.079 1.478 5.267 2.059 8.584 2.28 4.79.317 8.323-.702 9.744-2.81.806-1.197.9-3.41.207-4.872-1.082-2.28-4.182-4.422-7.851-5.426l-1.804-.494 2.638-.481c6.768-1.233 16.41-1.38 22.878-.347 13.159 2.1 25.044 7.769 34.991 16.687 1.178 1.056 2.103 1.653 2.562 1.653.395 0 2.7.4 5.124.89 39.632 7.995 71.288 39.609 79.302 79.198 2.684 13.257 2.699 28.026.042 41.073-.976 4.791-1.424 6.467-3.109 11.623-6.091 18.643-17.634 35.166-33.407 47.819-13.111 10.518-29.196 17.73-46.005 20.628-5.082.876-8.988 1.197-15.74 1.294-4.033.058-7.861.053-8.507-.012Zm18.627-8.767c18.22-2.484 33.548-9.053 47.812-20.49 3.348-2.685 11.882-11.397 14.555-14.859 10.801-13.989 16.955-28.775 19.353-46.493.653-4.828.746-17.233.164-21.999-3.526-28.902-18.663-53.237-42.898-68.963-10.906-7.077-24.876-12.235-37.701-13.919l-2.605-.342-1.76-1.672c-9.137-8.685-21.761-14.798-31.973-15.484l-2.347-.157 1.225 1.233c1.635 1.647 2.266 3.033 2.277 5.003.012 2.288-1.143 4.524-3.384 6.552-3.022 2.736-7.529 4.652-13.33 5.669-4.425.775-14.578.705-19.502-.135-10.025-1.71-18.616-4.99-25.364-9.682-1.451-1.008-4.644-3.942-8.36-7.681-4.403-4.43-6.743-6.544-8.74-7.894-2.9-1.96-6.29-3.651-7.98-3.98l-1.026-.2 1.026.801c2.257 1.762 5.83 5.66 7.003 7.642.682 1.153 2.479 4.788 3.993 8.077 4.041 8.785 5.355 10.976 8.372 13.965 5.582 5.53 12.76 8.435 23.694 9.589 2.218.234 4.741.654 5.605.933 1.932.624 3.545 2.059 3.545 3.153 0 2.67-4.388 6.597-9.571 8.564-2.619.995-5.982 1.227-8.65.599-4.268-1.005-7.34-2.882-13.018-7.954-5.912-5.28-9.818-7.718-14.968-9.338-6.478-2.037-9.878-2.28-28.965-2.068-17.161.19-20.871-.012-28.372-1.545-9.64-1.97-15.086-4.863-21.71-11.528-3.462-3.483-7.587-8.8-10.114-13.035-.928-1.555-1.728-2.828-1.779-2.828-.05 0 .347 1.287.881 2.86 5.255 15.463 13.673 26.709 25.007 33.41 4.982 2.945 8.498 4.191 16.789 5.95 21.724 4.609 33.814 9.416 42.267 16.807 6.996 6.117 11.388 12.611 14.371 21.248 2.665 7.716 3.146 16.77.968 18.198-1.549 1.015-2.793-.399-5.214-5.928-3.303-7.542-6.136-11.948-10.215-15.888-6.824-6.592-15.856-10.467-27.638-11.859-1.697-.2-6.58-.334-11.587-.317-7.769.026-15.704-.274-18.92-.715-.888-.122-1.066-.084-.733.157.771.557 4.928 1.778 12.174 3.577 3.872.96 8.491 2.22 10.266 2.798 3.46 1.128 9.284 3.776 12.255 5.572 10.403 6.288 18.417 15.35 24.734 27.968 6.296 12.575 7.297 22.798 2.74 27.988-1.23 1.401-2.603 2.272-4.676 2.97-2.247.755-6.869.703-10.538-.121-1.52-.341-2.805-.579-2.855-.529-.051.051.492 1.04 1.207 2.199 5.027 8.154 13.882 15.989 23.555 20.844 5.075 2.546 11.023 4.8 15.5 5.874 1.304.312 1.584.516 2.176 1.586 2.84 5.133 8.202 12.131 13.487 17.602 12.605 13.047 27.792 21.859 45.026 26.125 5.466 1.352 8.686 1.871 16.426 2.646 2.583.258 14.837-.119 18.04-.556Zm-18.627-11.902c-19.606-1.841-37.206-10.051-50.894-23.739-23.744-23.744-30.549-59.298-17.28-90.292 4.028-9.409 9.824-17.883 17.404-25.442 4.464-4.452 7.408-6.867 12.491-10.247 10.357-6.887 21.446-11.056 34.466-12.956 4.923-.718 16.491-.718 21.413 0 18.628 2.719 34.339 10.502 47.093 23.33 19.844 19.959 27.927 47.475 22.101 75.239-1.812 8.636-6.463 19.709-11.473 27.313-13.269 20.143-34.142 33.209-58.121 36.385-4.233.561-13.287.776-17.2.409Zm17.295-54.612c5.411-23.674 9.838-43.11 9.838-43.192 0-.082 5.379-.148 11.954-.148h11.954l3.919 7.056c2.155 3.881 3.958 7.016 4.006 6.966.117-.118 10.7-30.072 10.7-30.285 0-.09-28.314-.164-62.919-.164s-62.919.042-62.919.093 1.034 2.988 2.298 6.527a3696.687 3696.687 0 0 1 5.353 15.143c1.681 4.79 3.148 8.618 3.261 8.506.112-.111 1.908-3.239 3.991-6.949l3.787-6.747 12.147-.076 12.147-.077 9.911 43.636c5.451 23.999 9.987 43.833 10.079 44.075.113.299.245.158.411-.44.134-.484 4.671-20.249 10.082-43.924Z" fill="#2E578E"/>
  <path d="M259.008 258.973c-20.495-1.639-39.72-9.259-55.879-22.147-3.93-3.134-12.114-11.271-15.157-15.071-2.533-3.162-5.744-7.629-7.325-10.191-1.048-1.699-1.115-1.748-3.52-2.553-6.097-2.041-13.418-5.433-18.467-8.556-17.137-10.601-28.163-27.371-30.324-46.124l-.181-1.572 1.682 1.817c5.057 5.461 11.33 8 15.061 6.094 1.819-.93 2.412-1.857 2.397-3.75-.028-3.658-4.26-8.849-10.723-13.153-5.145-3.425-7.103-4.307-24.494-11.022-13.702-5.291-23.406-10.152-30.003-15.03-3.037-2.245-8.225-7.57-10.581-10.861C63.47 95.649 59.62 82.449 57.95 60.425l-.166-2.2.685 1.614c4.186 9.844 10.482 18.622 17.634 24.583 4.827 4.023 8.91 6.282 15.152 8.381 10.257 3.45 15.557 2.962 16.271-1.498.281-1.758-.49-3.143-2.337-4.2-.824-.473-3.544-1.674-6.044-2.67-5.553-2.212-7.382-3.103-10.424-5.078-8.142-5.286-13.699-13.101-20.475-28.801-1.054-2.444-2.45-5.502-3.1-6.797-8.12-16.15-20.708-26.75-38.233-32.196-.928-.288-1.687-.614-1.687-.725 0-.443 10.14-2.312 16.871-3.11 6.005-.711 19.194-.71 24.635.002 14.192 1.86 26.261 6.189 36.728 13.176 6.868 4.586 9.994 7.417 20.582 18.645 4.669 4.951 8.439 8.246 12.654 11.06 5.023 3.354 8.873 4.63 14.074 4.662 3.807.024 5.558-.444 7.079-1.891 1.052-1 1.134-1.198 1.134-2.713 0-4.756-5.784-11.08-13.399-14.648-5.118-2.398-12.79-4.445-19.6-5.23-1.613-.187-2.964-.37-3.003-.406-.038-.036 1.018-.67 2.347-1.406 15.644-8.678 36.124-9.847 50.805-2.9 4.507 2.133 10.217 6.21 20.543 14.67 9.451 7.742 13.349 10.163 18.453 11.46 4.191 1.065 9.866.656 12.371-.892 1.99-1.23 2.549-4.515 1.169-6.87-1.276-2.176-3.792-3.81-7.386-4.794l-1.981-.543 1.74-.327c4.867-.913 6.827-1.075 13.033-1.076 4.862 0 7.488.136 9.973.52 13.24 2.042 24.235 7.03 34.173 15.501l3.226 2.75 3.227.543c32.824 5.518 61.853 28.264 75.474 59.136 4.019 9.11 6.489 18.128 8.033 29.333.602 4.366.502 20.284-.156 24.907-1.744 12.25-4.799 22.216-9.99 32.585-10.712 21.395-29.191 38.803-51.068 48.108-15.021 6.389-31.917 9.166-47.959 7.883Zm17.788-8.334c26.176-2.749 49.606-16.074 65.55-37.279 12.381-16.467 18.74-35.65 18.74-56.537 0-6.146-.275-9.699-1.194-15.439-5.279-32.966-28.704-61.263-60.405-72.967-6.181-2.282-14.442-4.327-19.946-4.936-1.871-.207-1.96-.258-4.694-2.662-10.153-8.928-20.584-13.828-31.752-14.914-1.089-.106-1.98-.116-1.98-.022s.52.64 1.156 1.215c4.496 4.062 2.413 10.502-4.574 14.136-4.841 2.519-10.643 3.655-18.728 3.669-10.062.016-19.702-2.071-28.271-6.122-6.28-2.968-10.228-5.866-14.864-10.908-4.639-5.047-8.155-8.089-12.011-10.39-2.026-1.21-4.818-2.415-6.306-2.721-1.184-.244-1.136-.183 1.32 1.67 3.495 2.639 5.71 5.62 8.421 11.336 4.702 9.915 6.732 13.76 8.227 15.586 4.154 5.071 10.942 8.945 18.697 10.671 1.729.385 3.904.684 8.937 1.228 4.402.477 7.049 2.034 6.99 4.112-.087 3.044-6.388 7.695-11.958 8.827-1.994.404-2.686.422-4.693.116-4.686-.713-8.722-2.97-13.893-7.767-6.032-5.597-10.323-8.238-16.296-10.032-5.579-1.676-6.312-1.723-27.165-1.732-16.459-.006-19.749-.08-22.951-.51-13.379-1.799-20.158-4.785-27.605-12.162-4.145-4.106-8.89-10.33-11.63-15.256-.38-.684-.747-1.187-.815-1.118-.07.068.305 1.42.83 3.003 5.5 16.56 15.214 28.701 27.998 34.994 4.675 2.301 6.99 3.042 14.227 4.553 28.05 5.857 41.575 12.957 50.782 26.658 4.696 6.988 7.647 16.055 7.696 23.645.029 4.628-.389 5.866-1.983 5.866-1.331 0-2.066-.945-3.832-4.93-3.77-8.501-6.381-12.729-10.278-16.637-5.082-5.098-12.564-9.105-20.567-11.014-5.242-1.251-8.076-1.471-22.405-1.742-7.663-.145-14.652-.398-15.531-.561-.878-.164-1.65-.245-1.714-.181-.476.477 4.644 2.086 13.578 4.268 11.028 2.693 17.141 5.095 23.519 9.243 12.826 8.34 23.291 22.93 27.56 38.421.906 3.287 1.254 8.932.699 11.319-.868 3.726-3.045 6.437-6.142 7.649-2.548.997-7.465 1.066-11.39.16-1.719-.397-3.006-.569-3.006-.403 0 .467 2.492 4.335 4.022 6.243 2.988 3.726 4.449 5.262 7.564 7.951 7.461 6.441 16.353 11.216 26.283 14.114l3.913 1.142 1.877 3.045c15.086 24.468 41.233 40.968 69.861 44.087 5.101.555 14.914.563 20.132.015Zm-13.828-12.066c-8.848-.541-17.438-2.331-25.092-5.227-6.869-2.6-15.952-7.789-21.841-12.477-5.036-4.01-10.638-9.806-14.593-15.1-13.416-17.955-18.828-40.56-15.03-62.772 1.378-8.055 3.462-14.405 7.318-22.293 11.112-22.735 32.581-39.197 57.358-43.981 6.018-1.162 9.203-1.453 15.84-1.448 9.533.008 16.984 1.18 25.609 4.032 20.893 6.906 37.911 21.707 47.57 41.373 3.858 7.855 5.954 14.234 7.335 22.317 3.74 21.902-1.46 44.182-14.479 62.039-2.465 3.38-4.47 5.698-8.202 9.481-12.35 12.521-28.307 20.622-45.763 23.232-5.142.769-11.546 1.098-16.03.824Zm14.248-53.997 10.066-44.072 11.896.007 11.895.008 1.875 3.439c3.449 6.325 5.954 10.667 6.082 10.539.165-.164 10.67-29.89 10.67-30.191 0-.126-28.328-.229-62.95-.229-50.235 0-62.924.074-62.819.367.073.202 2.49 7.066 5.371 15.253 2.881 8.187 5.311 14.882 5.399 14.877.089-.006 1.923-3.174 4.076-7.04l3.915-7.03 12.072.002 12.071.002 9.807 43.19c10.151 44.706 10.269 45.218 10.418 45.051.05-.055 4.62-19.933 10.156-44.173Z" fill="#BE001C"/>
  <path d="M259.008 258.973c-20.495-1.639-39.72-9.259-55.879-22.147-3.93-3.134-12.114-11.271-15.157-15.071-2.533-3.162-5.744-7.629-7.325-10.191-1.048-1.699-1.115-1.748-3.52-2.553-6.097-2.041-13.418-5.433-18.467-8.556-17.137-10.601-28.163-27.371-30.324-46.124l-.181-1.572 1.682 1.817c5.057 5.461 11.33 8 15.061 6.094 1.819-.93 2.412-1.857 2.397-3.75-.028-3.658-4.26-8.849-10.723-13.153-5.145-3.425-7.103-4.307-24.494-11.022-13.702-5.291-23.406-10.152-30.003-15.03-3.037-2.245-8.225-7.57-10.581-10.861C63.47 95.649 59.62 82.449 57.95 60.425l-.166-2.2.685 1.614c4.186 9.844 10.482 18.622 17.634 24.583 4.827 4.023 8.91 6.282 15.152 8.381 10.257 3.45 15.557 2.962 16.271-1.498.281-1.758-.49-3.143-2.337-4.2-.824-.473-3.544-1.674-6.044-2.67-5.553-2.212-7.382-3.103-10.424-5.078-8.142-5.286-13.699-13.101-20.475-28.801-1.054-2.444-2.45-5.502-3.1-6.797-8.12-16.15-20.708-26.75-38.233-32.196-.928-.288-1.687-.614-1.687-.725 0-.443 10.14-2.312 16.871-3.11 6.005-.711 19.194-.71 24.635.002 14.192 1.86 26.261 6.189 36.728 13.176 6.868 4.586 9.994 7.417 20.582 18.645 4.669 4.951 8.439 8.246 12.654 11.06 5.023 3.354 8.873 4.63 14.074 4.662 3.807.024 5.558-.444 7.079-1.891 1.052-1 1.134-1.198 1.134-2.713 0-4.756-5.784-11.08-13.399-14.648-5.118-2.398-12.79-4.445-19.6-5.23-1.613-.187-2.964-.37-3.003-.406-.038-.036 1.018-.67 2.347-1.406 15.644-8.678 36.124-9.847 50.805-2.9 4.507 2.133 10.217 6.21 20.543 14.67 9.451 7.742 13.349 10.163 18.453 11.46 4.191 1.065 9.866.656 12.371-.892 1.99-1.23 2.549-4.515 1.169-6.87-1.276-2.176-3.792-3.81-7.386-4.794l-1.981-.543 1.74-.327c4.867-.913 6.827-1.075 13.033-1.076 4.862 0 7.488.136 9.973.52 13.24 2.042 24.235 7.03 34.173 15.501l3.226 2.75 3.227.543c32.824 5.518 61.853 28.264 75.474 59.136 4.019 9.11 6.489 18.128 8.033 29.333.602 4.366.502 20.284-.156 24.907-1.744 12.25-4.799 22.216-9.99 32.585-10.712 21.395-29.191 38.803-51.068 48.108-15.021 6.389-31.917 9.166-47.959 7.883Zm17.788-8.334c26.176-2.749 49.606-16.074 65.55-37.279 12.381-16.467 18.74-35.65 18.74-56.537 0-6.146-.275-9.699-1.194-15.439-5.279-32.966-28.704-61.263-60.405-72.967-6.181-2.282-14.442-4.327-19.946-4.936-1.871-.207-1.96-.258-4.694-2.662-10.153-8.928-20.584-13.828-31.752-14.914-1.089-.106-1.98-.116-1.98-.022s.52.64 1.156 1.215c4.496 4.062 2.413 10.502-4.574 14.136-4.841 2.519-10.643 3.655-18.728 3.669-10.062.016-19.702-2.071-28.271-6.122-6.28-2.968-10.228-5.866-14.864-10.908-4.639-5.047-8.155-8.089-12.011-10.39-2.026-1.21-4.818-2.415-6.306-2.721-1.184-.244-1.136-.183 1.32 1.67 3.495 2.639 5.71 5.62 8.421 11.336 4.702 9.915 6.732 13.76 8.227 15.586 4.154 5.071 10.942 8.945 18.697 10.671 1.729.385 3.904.684 8.937 1.228 4.402.477 7.049 2.034 6.99 4.112-.087 3.044-6.388 7.695-11.958 8.827-1.994.404-2.686.422-4.693.116-4.686-.713-8.722-2.97-13.893-7.767-6.032-5.597-10.323-8.238-16.296-10.032-5.579-1.676-6.312-1.723-27.165-1.732-16.459-.006-19.749-.08-22.951-.51-13.379-1.799-20.158-4.785-27.605-12.162-4.145-4.106-8.89-10.33-11.63-15.256-.38-.684-.747-1.187-.815-1.118-.07.068.305 1.42.83 3.003 5.5 16.56 15.214 28.701 27.998 34.994 4.675 2.301 6.99 3.042 14.227 4.553 28.05 5.857 41.575 12.957 50.782 26.658 4.696 6.988 7.647 16.055 7.696 23.645.029 4.628-.389 5.866-1.983 5.866-1.331 0-2.066-.945-3.832-4.93-3.77-8.501-6.381-12.729-10.278-16.637-5.082-5.098-12.564-9.105-20.567-11.014-5.242-1.251-8.076-1.471-22.405-1.742-7.663-.145-14.652-.398-15.531-.561-.878-.164-1.65-.245-1.714-.181-.476.477 4.644 2.086 13.578 4.268 11.028 2.693 17.141 5.095 23.519 9.243 12.826 8.34 23.291 22.93 27.56 38.421.906 3.287 1.254 8.932.699 11.319-.868 3.726-3.045 6.437-6.142 7.649-2.548.997-7.465 1.066-11.39.16-1.719-.397-3.006-.569-3.006-.403 0 .467 2.492 4.335 4.022 6.243 2.988 3.726 4.449 5.262 7.564 7.951 7.461 6.441 16.353 11.216 26.283 14.114l3.913 1.142 1.877 3.045c15.086 24.468 41.233 40.968 69.861 44.087 5.101.555 14.914.563 20.132.015Zm-13.828-12.066c-8.848-.541-17.438-2.331-25.092-5.227-6.869-2.6-15.952-7.789-21.841-12.477-5.036-4.01-10.638-9.806-14.593-15.1-13.416-17.955-18.828-40.56-15.03-62.772 1.378-8.055 3.462-14.405 7.318-22.293 11.112-22.735 32.581-39.197 57.358-43.981 6.018-1.162 9.203-1.453 15.84-1.448 9.533.008 16.984 1.18 25.609 4.032 20.893 6.906 37.911 21.707 47.57 41.373 3.858 7.855 5.954 14.234 7.335 22.317 3.74 21.902-1.46 44.182-14.479 62.039-2.465 3.38-4.47 5.698-8.202 9.481-12.35 12.521-28.307 20.622-45.763 23.232-5.142.769-11.546 1.098-16.03.824Zm14.248-53.997 10.066-44.072 11.896.007 11.895.008 1.875 3.439c3.449 6.325 5.954 10.667 6.082 10.539.165-.164 10.67-29.89 10.67-30.191 0-.126-28.328-.229-62.95-.229-50.235 0-62.924.074-62.819.367.073.202 2.49 7.066 5.371 15.253 2.881 8.187 5.311 14.882 5.399 14.877.089-.006 1.923-3.174 4.076-7.04l3.915-7.03 12.072.002 12.071.002 9.807 43.19c10.151 44.706 10.269 45.218 10.418 45.051.05-.055 4.62-19.933 10.156-44.173Zm-55.002 13.032c.428-4.844.634-6.155.994-6.333.25-.123 3.522-.873 7.273-1.665 3.75-.792 6.816-1.507 6.813-1.587-.003-.081-3.038-1.456-6.745-3.055-6.337-2.734-6.739-2.954-6.722-3.667.011-.417.32-3.728.688-7.358.367-3.63.636-6.642.597-6.693-.04-.051-2.283 2.417-4.986 5.485l-4.913 5.578-.909-.391c-.5-.215-3.526-1.54-6.724-2.945-3.199-1.404-5.861-2.509-5.916-2.454-.055.055 1.538 2.872 3.54 6.26 2.001 3.388 3.635 6.292 3.63 6.453-.005.161-2.18 2.726-4.833 5.7-2.653 2.973-4.784 5.445-4.737 5.493.048.047 3.295-.637 7.216-1.52 3.922-.884 7.167-1.606 7.211-1.606.044 0 1.778 2.916 3.852 6.48l3.772 6.48.18-1.274c.098-.7.422-4.022.719-7.381Zm94.996.754c1.571-2.783 2.945-5.058 3.053-5.057.108.002 3.353.662 7.211 1.468 3.858.806 7.056 1.423 7.107 1.372.051-.051-1.173-1.47-2.719-3.154a2065.8 2065.8 0 0 1-4.997-5.46l-2.185-2.398 3.663-6.397c2.015-3.519 3.623-6.438 3.573-6.488-.049-.049-2.977 1.226-6.506 2.835-3.529 1.608-6.566 2.966-6.749 3.018-.183.052-2.592-2.384-5.354-5.414-2.848-3.126-5.015-5.283-5.007-4.987.007.288.378 3.65.825 7.472l.811 6.949-6.689 3.024c-3.679 1.664-6.69 3.094-6.691 3.179 0 .084 3.229.794 7.178 1.577l7.18 1.424.151.915c.083.504.417 3.424.742 6.489s.666 6.023.757 6.573l.167.999.811-1.439 3.668-6.5Zm-56.109-86.659c3.007-2.228 5.623-4.052 5.814-4.052.262 0 9.466 6.38 11.952 8.285.193.148-.699-2.876-1.983-6.721-1.285-3.845-2.279-7.138-2.21-7.319.069-.18 2.72-2.226 5.89-4.546l5.765-4.219-7.433-.078-7.434-.078-2.371-7.108-2.372-7.109-1.67 5.28a566.964 566.964 0 0 1-2.316 7.187l-.645 1.906-7.393.147-7.393.147 6 4.242c3.299 2.333 5.998 4.313 5.997 4.4-.001.086-.991 3.257-2.2 7.045s-2.198 6.93-2.198 6.983c0 .18.722-.331 6.2-4.392Zm-115.614 28.336c-.786-3.088-3.368-8.3-5.542-11.184-3.947-5.239-9.947-10.011-16.476-13.104-4.644-2.2-8.565-3.474-15.862-5.156-3.444-.793-7.978-1.992-10.076-2.665-13.688-4.387-24.057-11.798-28.445-20.328-1.183-2.3-1.3-1.95-.592 1.781 2.222 11.713 10.098 21.742 21.372 27.215 3.18 1.544 7.135 2.869 13.532 4.534 17.984 4.681 26.012 7.68 32.866 12.28 3.076 2.064 6.533 5.182 8.33 7.51.7.907 1.32 1.602 1.378 1.544.058-.058-.16-1.15-.485-2.427Zm-17.265-76.992c1.392-.171 3.504-.542 4.693-.824l2.162-.514-2.449-.369c-5.045-.76-11.244-2.91-15.686-5.441-7.483-4.265-12.541-9.418-17.635-17.968-3.297-5.533-5.79-8.89-9.378-12.628-4.017-4.185-7.264-6.635-11.757-8.87-5.924-2.948-11.06-4.113-18.132-4.113-4.697 0-10.147.528-9.14.886.318.113 1.482.422 2.586.686 5.426 1.296 10.876 4.677 16.35 10.143 4.39 4.384 6.957 7.76 10.898 14.331 3.606 6.012 5.503 8.577 8.725 11.799 6.886 6.886 15.484 11.183 25.504 12.745 3.099.483 9.865.553 13.259.137Zm73.965-10.965c-4.815-2.301-9.475-5.777-18.711-13.956-2.581-2.286-5.476-4.746-6.433-5.466-9.722-7.32-23.759-9.66-34.589-5.766-3.575 1.286-3.528 1.459.363 1.32 7.551-.27 14.663 1.546 21.001 5.36 1.455.875 5.153 3.6 8.218 6.055 8.486 6.797 12.344 9.17 18.211 11.201 4.011 1.389 9.461 2.416 13.322 2.511l1.32.032-2.702-1.29Z" fill="#002C63"/>
</svg>