<?xml version="1.0" encoding="UTF-8" standalone="no"?>
<svg
   xmlns:dc="http://purl.org/dc/elements/1.1/"
   xmlns:cc="http://creativecommons.org/ns#"
   xmlns:rdf="http://www.w3.org/1999/02/22-rdf-syntax-ns#"
   xmlns:svg="http://www.w3.org/2000/svg"
   xmlns="http://www.w3.org/2000/svg"
   xmlns:sodipodi="http://sodipodi.sourceforge.net/DTD/sodipodi-0.dtd"
   xmlns:inkscape="http://www.inkscape.org/namespaces/inkscape"
   viewBox="0 0 200.00101 270.00299"
   version="1.1"
   id="svg424"
   sodipodi:docname="Los_Angeles_Angels_logo.svg"
   width="200.00101"
   height="270.00299"
   style="clip-rule:evenodd;fill-rule:evenodd"
   inkscape:version="0.92.4 (5da689c313, 2019-01-14)">
  <metadata
     id="metadata430">
    <rdf:RDF>
      <cc:Work
         rdf:about="">
        <dc:format>image/svg+xml</dc:format>
        <dc:type
           rdf:resource="http://purl.org/dc/dcmitype/StillImage" />
        <dc:title></dc:title>
      </cc:Work>
    </rdf:RDF>
  </metadata>
  <defs
     id="defs428" />
  <sodipodi:namedview
     pagecolor="#ffffff"
     bordercolor="#666666"
     borderopacity="1"
     objecttolerance="10"
     gridtolerance="10"
     guidetolerance="10"
     inkscape:pageopacity="0"
     inkscape:pageshadow="2"
     inkscape:window-width="640"
     inkscape:window-height="480"
     id="namedview426"
     showgrid="false"
     inkscape:pagecheckerboard="true"
     inkscape:zoom="0.53571429"
     inkscape:cx="67.332333"
     inkscape:cy="135.003"
     inkscape:window-x="0"
     inkscape:window-y="0"
     inkscape:window-maximized="0"
     inkscape:current-layer="svg424" />
  <path
     d="m 110.674,270.003 h 76.947 c -7.103,-4.827 -13.385,-13.281 -16.186,-22.959 l -21.51,-73.806 c -2.325,-7.949 1.456,-15.893 7.502,-21.267 -8.584,-2.645 -16.197,-8.591 -18.586,-16.82 L 126.785,93.835 c 17.132,-5.735 28.29,-15.881 28.29,-27.674 0,-15.396 -19.048,-28.005 -45.571,-31.613 L 99.427,0 H 88.155 L 78.091,34.555 c -26.536,3.608 -45.608,16.21 -45.608,31.606 0,11.794 11.184,21.939 28.328,27.674 l -12.043,41.316 c -2.376,8.23 -10.015,14.176 -18.599,16.82 6.033,5.374 9.841,13.318 7.514,21.267 L 16.161,247.044 C 13.311,256.724 7.079,265.176 0,270.003 h 76.947 c -6.296,-4.827 -9.729,-13.281 -6.905,-22.959 l 1.891,-6.419 H 115.7 l 1.866,6.419 c 2.813,9.68 -0.621,18.132 -6.891,22.959 m -23.502,-81.662 6.643,-22.836 6.631,22.836 z"
     id="path412"
     inkscape:connector-curvature="0"
     style="fill:#ffffff" />
  <path
     d="M 174.681,264.771 C 171,259.975 168.088,254.389 166.37,248.536 l -21.373,-73.321 c -3.372,-11.633 2.886,-19.905 3.707,-21.224 -7.427,-4.019 -12.863,-10.147 -14.929,-17.38 l -13,-44.625 c 18.338,-4.883 30.84,-14.605 30.84,-25.827 0,-14.189 -20.092,-26.033 -46.703,-28.652 L 95.519,5.248 H 92.11 l -9.393,32.259 c -26.636,2.612 -46.74,14.457 -46.74,28.652 0,11.222 12.516,20.944 30.854,25.827 L 53.83,136.611 c -2.103,7.235 -7.515,13.362 -14.941,17.38 0.834,1.319 7.103,9.591 3.695,21.224 l -21.362,73.321 c -1.704,5.853 -4.628,11.439 -8.311,16.235 h 53.284 c -4.292,-9.493 -2.04,-16.41 -0.113,-22.922 l 1.891,-6.481 h 51.655 l 1.902,6.481 c 1.891,6.513 4.155,13.43 -0.136,22.922 M 80.116,193.59 93.813,146.689 107.461,193.59 Z"
     id="path414"
     inkscape:connector-curvature="0"
     style="fill:#003263" />
  <path
     d="m 107.96,77.641 h 0.012 l -6.855,-23.557 1.343,4.69 c -2.799,-0.155 -5.698,-0.261 -8.647,-0.261 v 15.283 l 41.042,140.694 9.43,32.272 16.224,9.71 c -1.133,-2.463 -2.152,-4.988 -2.924,-7.576 l -20.428,-69.917 c -3.211,-10.93 -1.443,-15.645 0.883,-22.239 -6.134,-4.709 -10.214,-10.836 -12.205,-17.74 l -15.501,-53.254 -0.037,0.007 M 98.618,45.488 93.815,29.015 v 16.366 c 1.618,10e-4 3.222,0.045 4.803,0.107 m -55.549,202.128 13.113,8.857 c -0.709,-4.41 -0.037,-10.213 1.218,-14.332 l 4.355,-15.053 -9.007,-12.597 M 69.071,201.877 93.816,117.154 V 73.797 L 52.748,214.491 h 82.111 l -16.372,-12.614"
     id="path416"
     inkscape:connector-curvature="0"
     style="fill:#cd1141" />
  <path
     d="m 93.816,117.154 24.671,84.723 16.372,12.614 L 93.816,73.797 m 66.695,182.676 -16.224,-9.71 -9.43,-32.272 H 52.747 L 93.815,73.797 V 58.514 c 2.949,0 5.847,0.106 8.647,0.261 l -1.344,-4.69 c -0.361,-0.025 -0.734,-0.037 -1.107,-0.05 -2.016,-0.106 -4.08,-0.168 -6.195,-0.168 -2.501,0 -4.939,0.081 -7.315,0.217 l -6.867,23.557 -2.339,8.111 -0.025,-0.007 -15.514,53.254 c -1.991,6.904 -6.033,13.031 -12.204,17.74 2.314,6.594 4.093,11.31 0.896,22.239 l -20.453,69.917 c -0.772,2.589 -1.742,5.113 -2.936,7.576 h 29.125 l -13.113,-8.857 9.68,-33.124 9.007,12.597 h 64.082 l 4.417,15.053 c 1.17,4.119 1.842,9.922 1.17,14.332 M 93.816,29.017 89.013,45.49 c 1.58,-0.062 3.185,-0.106 4.803,-0.106"
     id="path418"
     inkscape:connector-curvature="0"
     style="fill:#8f0028" />
  <path
     d="m 79.634,77.641 c -14.867,-1.779 -25.43,-6.264 -25.43,-11.483 0,-6.009 13.909,-11.011 32.297,-12.074 2.376,-0.137 4.815,-0.217 7.315,-0.217 2.115,0 4.179,0.062 6.195,0.168 0.374,0.012 0.747,0.025 1.107,0.05 18.375,1.064 32.297,6.053 32.297,12.074 0,5.219 -10.575,9.703 -25.442,11.483 h -0.012 l 2.339,8.111 0.037,-0.007 c 19.147,-2.873 32.882,-10.531 32.882,-19.588 0,-10.78 -19.582,-19.656 -44.601,-20.671 -1.58,-0.062 -3.185,-0.106 -4.803,-0.106 -1.618,0 -3.222,0.044 -4.803,0.106 -25.069,1.014 -44.613,9.891 -44.613,20.671 0,9.056 13.709,16.72 32.869,19.588 l 0.025,0.007"
     id="path420"
     inkscape:connector-curvature="0"
     style="fill:#c4cdd3" />
  <path
     d="m 189.673,258.259 h -2.277 v 6.209 h -1.542 v -6.209 h -2.276 v -1.349 h 6.096 m 10.324,7.557 h -1.542 v -6.015 h -0.037 l -2.189,6.015 h -1.493 l -2.102,-6.015 h -0.037 v 6.015 h -1.542 v -7.558 h 2.662 l 1.755,4.933 h 0.05 l 1.816,-4.933 h 2.662 v 7.558 H 200 Z"
     id="path422"
     inkscape:connector-curvature="0"
     style="fill:#003263" />
</svg>
