<?xml version="1.0" encoding="UTF-8" standalone="no"?>
<svg
   xmlns:dc="http://purl.org/dc/elements/1.1/"
   xmlns:cc="http://creativecommons.org/ns#"
   xmlns:rdf="http://www.w3.org/1999/02/22-rdf-syntax-ns#"
   xmlns:svg="http://www.w3.org/2000/svg"
   xmlns="http://www.w3.org/2000/svg"
   xmlns:sodipodi="http://sodipodi.sourceforge.net/DTD/sodipodi-0.dtd"
   xmlns:inkscape="http://www.inkscape.org/namespaces/inkscape"
   viewBox="0 0 299.39801 300"
   version="1.1"
   id="svg384"
   sodipodi:docname="Houston_Astros_logo.svg"
   width="299.39801"
   height="300"
   style="clip-rule:evenodd;fill-rule:evenodd"
   inkscape:version="0.92.4 (5da689c313, 2019-01-14)">
  <metadata
     id="metadata390">
    <rdf:RDF>
      <cc:Work
         rdf:about="">
        <dc:format>image/svg+xml</dc:format>
        <dc:type
           rdf:resource="http://purl.org/dc/dcmitype/StillImage" />
      </cc:Work>
    </rdf:RDF>
  </metadata>
  <defs
     id="defs388" />
  <sodipodi:namedview
     pagecolor="#ffffff"
     bordercolor="#666666"
     borderopacity="1"
     objecttolerance="10"
     gridtolerance="10"
     guidetolerance="10"
     inkscape:pageopacity="0"
     inkscape:pageshadow="2"
     inkscape:window-width="640"
     inkscape:window-height="480"
     id="namedview386"
     showgrid="false"
     inkscape:zoom="0.53571429"
     inkscape:cx="117.03233"
     inkscape:cy="150"
     inkscape:window-x="0"
     inkscape:window-y="0"
     inkscape:window-maximized="0"
     inkscape:current-layer="svg384" />
  <path
     d="M 149.693,0 C 67.022,0 0,67.16 0,150.013 0,232.822 67.022,300 149.693,300 232.374,300 299.398,232.828 299.398,150.013 299.398,67.159 232.381,0 149.693,0"
     id="path366"
     inkscape:connector-curvature="0"
     style="fill:#002d62" />
  <path
     d="m 149.693,6.918 c -79.02,0 -143.078,64.058 -143.078,143.078 0,79.023 64.058,143.064 143.078,143.064 79.017,0 143.078,-64.041 143.078,-143.064 C 292.771,70.97 228.707,6.918 149.693,6.918"
     id="path368"
     inkscape:connector-curvature="0"
     style="fill:#eb6e1f" />
  <path
     d="m 287.106,150 v 0.013 c 0,75.879 -61.53,137.414 -137.414,137.414 C 73.804,287.427 12.278,225.892 12.278,150 12.278,74.105 73.799,12.586 149.68,12.586 c 67.587,0 123.77,48.806 135.242,113.084 1.426,7.894 2.161,16.026 2.161,24.334"
     id="path370"
     inkscape:connector-curvature="0"
     style="fill:#002d62" />
  <path
     d="m 149.693,58.202 c -50.7,0 -91.795,41.102 -91.795,91.81 0,50.69 41.095,91.767 91.795,91.767 50.712,0 91.794,-41.077 91.794,-91.767 0,-50.706 -41.081,-91.812 -91.794,-91.812"
     id="path372"
     inkscape:connector-curvature="0"
     style="fill:#eb6e1f" />
  <path
     d="m 201.17,218.342 -6.187,-19.029 h -23.719 l 28.052,20.367 c -13.999,10.002 -31.12,15.888 -49.631,15.888 -18.492,0 -35.626,-5.886 -49.604,-15.888 l 28.054,-20.367 h -14.751 l -16.308,22.57 1.15,-3.541 c -20.709,-15.627 -34.1,-40.399 -34.1,-68.328 0,-8.973 1.375,-17.596 3.94,-25.714 l 44.849,32.614 v -5.676 L 78.668,126.326 64.558,121.78 h 4.348 c 11.52,-32.948 42.596,-56.688 79.311,-57.309 l 1.468,-4.558 v 83.856 h 17.946 v -17.842 l -11.608,-4.147 v -14.713 h 8.998 l -13.848,-42.59 c 36.721,0.631 67.793,24.36 79.291,57.305 h 4.374 l -14.095,4.558 h -34.241 v 30.55 l 44.825,-32.561 c 2.556,8.104 3.939,16.717 3.939,25.688 0,27.913 -13.396,52.701 -34.097,68.327"
     id="path374"
     inkscape:connector-curvature="0"
     style="fill:#002d62" />
  <path
     d="m 167.635,180.452 v -17.844 h -27.739 l -8.136,11.272 v 6.571 l 11.587,4.161 v 3.622 l 6.345,-4.614 6.331,4.615 v -3.622"
     id="path376"
     inkscape:connector-curvature="0"
     style="fill:#eb6e1f" />
  <path
     d="m 149.764,59.918 -1.473,4.562 -13.85,42.593 8.983,0.004 v 14.717 l -11.596,4.147 v 17.835 h 17.937 V 59.918 Z m -85.151,61.877 14.102,4.546 34.266,24.917 V 125.94 l -11.605,-4.147 H 64.614 v 0.002 z m 133.553,0 -11.589,4.145 v 0.413 h 34.248 l 14.097,-4.559 h -36.755 z m -66.341,40.844 v 11.26 l 8.131,-11.26 z m -18.843,17.835 -2.696,0.937 v 0.012 l 2.696,-0.95 z m -8.502,18.864 -6.179,19.034 -1.167,3.539 16.327,-22.573 z"
     id="path378"
     inkscape:connector-curvature="0"
     style="fill:#f4871e" />
  <path
     d="m 144.972,21.18 -3.451,3.432 v 9.936 l 3.451,3.416 h 7.665 l 0.72,0.732 v 6.092 l -0.72,0.715 h -6.57 l -1.02,-2.688 h -3.527 v 7.32 h 13.044 l 3.43,-3.446 V 36.78 l -3.434,-3.457 h -7.67 l -0.71,-0.706 v -6.078 l 0.71,-0.715 h 6.568 l 1.032,2.675 h 3.508 v -7.32 h -13.026 z m -23.92,2.826 -8.152,2.549 1.097,3.483 2.123,0.265 5.701,18.189 -0.482,0.911 -5.629,1.747 -0.923,-0.44 -5.692,-18.189 1.6,-1.419 -1.111,-3.5 -8.143,2.56 1.088,3.46 2.153,0.294 6.265,20.024 4.303,2.232 9.333,-2.898 2.246,-4.324 -6.267,-20.027 1.586,-1.43 -1.095,-3.486 z m 57.77,0.14 -2.376,7.647 3.303,1.02 2.029,-2.893 2.717,0.857 -5.883,18.892 -2.148,0.284 -1.072,3.462 8.15,2.537 1.084,-3.486 -1.587,-1.437 5.892,-18.862 2.71,0.851 0.032,3.529 3.306,1.034 2.393,-7.661 -18.55,-5.773 z m 40.268,17.138 -4.792,0.885 -12.572,18.137 0.883,4.807 8.019,5.556 v -0.004 l 4.802,-0.881 12.56,-18.133 -0.86,-4.785 z m -138.795,0.1 -8.017,5.552 -0.885,4.797 12.602,18.149 4.797,0.885 8.033,-5.598 0.848,-4.751 -12.581,-18.163 z m 137.73,4.837 4.886,3.36 0.168,1.009 -10.382,14.992 -0.995,0.179 -4.872,-3.378 -0.173,-0.99 10.384,-14.994 0.985,-0.179 z m -136.661,0.082 1.018,0.179 10.379,14.966 -0.173,1.02 -4.864,3.367 -0.999,-0.156 -10.405,-14.962 0.186,-1.035 v -0.004 l 4.858,-3.374 z m 163.577,16.246 -2.872,2.234 0.494,2.08 -15.684,12.224 -1.901,-0.979 -2.886,2.248 5.27,6.75 2.88,-2.246 -0.513,-2.108 10.696,-8.324 -9.962,16.637 3.339,4.284 19.253,-15.023 1.903,1.006 2.886,-2.262 -5.272,-6.733 -2.851,2.258 0.48,2.083 L 239.507,85 249.493,68.367 244.94,62.55 Z m -190.64,0.345 -5.242,6.74 2.865,2.232 1.911,-0.976 6.022,4.653 -4.41,5.694 -6.022,-4.688 0.494,-2.078 -2.865,-2.248 -5.272,6.754 2.886,2.234 1.908,-0.967 15.7,12.182 -0.491,2.085 2.872,2.229 5.251,-6.75 -2.872,-2.218 -1.911,0.976 -6.015,-4.673 4.41,-5.676 6.009,4.687 -0.496,2.094 2.887,2.234 5.251,-6.754 -2.863,-2.234 -1.931,0.997 L 56.686,67.226 57.175,65.131 54.302,62.899 54.3,62.897 Z m 47.076,44.178 v 14.719 l 3.723,-2.658 11.618,4.157 -3.732,2.646 v 54.531 l -11.609,4.166 v 14.703 l 3.723,-3.762 h 34.581 v -8.34 l 3.748,-2.602 -11.596,-4.163 -3.748,2.619 v -24.214 h 43.374 l -3.749,3.751 v 17.844 l -11.6,4.163 v 14.703 l 3.744,-3.762 h 34.572 v -8.34 l 3.737,-2.602 -11.588,-4.163 -3.753,2.619 v -59.796 l 11.603,-4.159 v -8.313 l 3.737,-3.744 h -42.057 v 14.717 l 3.746,-2.66 11.605,4.159 -3.751,2.647 v 17.832 h -35.877 l -3.748,3.748 v -24.225 l 11.596,-4.161 v -8.311 l 3.748,-3.748 h -42.048 v -0.004 z m 183.65,18.606 c 1.069,5.917 1.75,11.977 2.024,18.14 -0.273,-6.164 -0.953,-12.22 -2.024,-18.14 z m -59.288,89.671 -9.273,9.124 -0.033,4.89 6.959,7.059 4.879,0.04 5.456,-5.361 h 1.007 l 4.275,4.301 v 1.02 l -4.68,4.615 -2.624,-1.169 -2.504,2.437 5.14,5.237 9.287,-9.147 0.035,-4.893 -6.968,-7.027 -4.86,-0.072 -5.464,5.4 h -1.028 l -4.266,-4.343 0.014,-1.03 4.695,-4.588 2.61,1.183 2.493,-2.467 -5.151,-5.207 z M 76.367,217.84 v 0.004 l -19.994,14.591 -2.004,-0.715 -2.553,2.589 6.118,6.011 2.539,-2.605 -0.75,-1.999 2.546,-1.845 5.3,5.205 -1.805,2.575 -1.999,-0.699 -2.533,2.589 6.102,5.98 2.549,-2.589 -0.75,-1.987 14.219,-20.271 -6.985,-6.835 z m -0.449,6.053 1.363,1.347 -7.012,10.007 -4.196,-4.15 9.844,-7.204 z m 123.208,13.063 -8.732,4.394 -1.507,4.645 9.934,19.705 4.629,1.503 8.732,-4.396 1.514,-4.615 -9.941,-19.708 z m -98.464,0.166 -4.594,1.529 -4.454,8.872 1.529,4.632 6.859,3.404 0.314,0.99 -2.714,5.419 -0.972,0.315 -5.869,-2.95 0.261,-2.851 -3.12,-1.586 -3.294,6.572 11.644,5.86 4.631,-1.544 4.45,-8.89 -1.538,-4.604 -6.845,-3.444 -0.322,-0.965 2.726,-5.44 0.96,-0.305 5.878,2.936 -0.272,2.865 3.112,1.573 3.292,-6.559 -11.661,-5.831 z m 98.843,4.85 0.964,0.315 8.22,16.288 -0.331,0.965 -5.282,2.658 -0.958,-0.314 -8.22,-16.264 0.315,-0.976 5.293,-2.675 v 0.002 z m -74.711,5.235 -1.228,7.9 3.411,0.548 1.586,-3.183 2.808,0.47 -3.038,19.53 -2.053,0.603 -0.571,3.585 8.462,1.321 0.55,-3.595 -1.784,-1.17 3.031,-19.572 2.814,0.427 0.541,3.486 3.443,0.554 1.216,-7.926 -19.188,-2.977 z m 45.436,0.676 -14.81,2.342 0.566,3.597 2.069,0.589 3.099,19.626 -1.784,1.202 0.571,3.595 8.436,-1.349 -0.561,-3.583 -2.06,-0.576 -1.19,-7.528 4.177,-0.646 3.278,6.835 -1.489,1.035 0.578,3.579 8.441,-1.335 -0.566,-3.585 -2.276,-0.662 -3.425,-7.136 2.405,-3.336 -1.535,-9.811 -3.926,-2.852 z m -1.188,4.893 0.818,0.606 0.951,5.995 -0.585,0.827 -6.393,0.978 -1.172,-7.397 z"
     id="path380"
     inkscape:connector-curvature="0"
     style="fill:#ffffff" />
  <path
     d="m 198.088,121.78 v -14.715 l -3.741,3.759 v 8.296 l -11.601,4.159 v 59.786 l 3.76,-2.617 v -54.522 m 11.581,58.685 -3.741,2.604 v 8.335 h -34.564 l -3.754,3.763 h 42.061 m -66.326,-36.694 h 35.872 l 3.75,-3.763 h -43.37 v 24.223 l 3.748,-2.631 v -6.571 m 11.595,14.356 v -3.621 l -3.739,2.602 v 8.335 h -34.58 l -3.732,3.763 h 42.052 m -26.704,-76.033 -11.614,-4.162 -3.72,2.662 11.602,4.146 m 46.861,-6.807 -3.754,2.659 11.602,4.147 3.756,-2.644 m -28.028,-1.501 v -14.715 l -3.739,3.759 v 8.296 l -11.604,4.159 v 24.223 l 3.748,-3.733 v -17.845"
     id="path382"
     inkscape:connector-curvature="0"
     style="fill:#e7e9ea" />
</svg>
