<?xml version="1.0" encoding="UTF-8" standalone="no"?>
<svg
   xmlns:dc="http://purl.org/dc/elements/1.1/"
   xmlns:cc="http://creativecommons.org/ns#"
   xmlns:rdf="http://www.w3.org/1999/02/22-rdf-syntax-ns#"
   xmlns:svg="http://www.w3.org/2000/svg"
   xmlns="http://www.w3.org/2000/svg"
   xmlns:sodipodi="http://sodipodi.sourceforge.net/DTD/sodipodi-0.dtd"
   xmlns:inkscape="http://www.inkscape.org/namespaces/inkscape"
   viewBox="0 0 292.66501 200"
   version="1.1"
   id="svg358"
   sodipodi:docname="Cincinnati_Reds_logo.svg"
   width="292.66501"
   height="200"
   style="clip-rule:evenodd;fill-rule:evenodd"
   inkscape:version="0.92.4 (5da689c313, 2019-01-14)">
  <metadata
     id="metadata364">
    <rdf:RDF>
      <cc:Work
         rdf:about="">
        <dc:format>image/svg+xml</dc:format>
        <dc:type
           rdf:resource="http://purl.org/dc/dcmitype/StillImage" />
      </cc:Work>
    </rdf:RDF>
  </metadata>
  <defs
     id="defs362" />
  <sodipodi:namedview
     pagecolor="#ffffff"
     bordercolor="#666666"
     borderopacity="1"
     objecttolerance="10"
     gridtolerance="10"
     guidetolerance="10"
     inkscape:pageopacity="0"
     inkscape:pageshadow="2"
     inkscape:window-width="640"
     inkscape:window-height="480"
     id="namedview360"
     showgrid="false"
     inkscape:zoom="0.53571429"
     inkscape:cx="113.66633"
     inkscape:cy="100"
     inkscape:window-x="0"
     inkscape:window-y="0"
     inkscape:window-maximized="0"
     inkscape:current-layer="svg358" />
  <path
     d="M 164.496,200 C 245.998,200 292.665,146.831 292.665,98.497 292.665,40.669 228.17,0 159.167,0 103.838,0 65.505,32.664 44.496,57.5 15.834,91.667 0,95.997 0,95.997 c 22.171,19.507 32.664,29.332 43.004,40.505 28.991,31.326 52.993,63.497 121.491,63.497"
     id="path306"
     inkscape:connector-curvature="0"
     style="fill:#c6011f" />
  <path
     d="m 163.005,186.338 c -59.167,0 -82.5,-25.34 -109.835,-54.507 C 41.996,119.836 34.837,109.167 16.667,95.67 l 3.662,8.661 c 17.5,14.332 24.671,24.672 36.009,36.667 27.5,29.003 50.329,51.832 109.495,51.832 51.831,0 91.995,-25.658 110.833,-57.159 l -2.829,-6.667 c -18.838,31.667 -59.002,57.335 -110.833,57.335"
     id="path308"
     inkscape:connector-curvature="0" />
  <path
     d="m 164.496,38.169 c -57.829,0 -80.493,38.333 -80.493,56.831 0,10.669 3.168,20 8.333,28.004 -3.498,-6.502 -4.332,-16.338 -4.332,-22.676 0,-18.498 21.832,-55.493 78.498,-55.493 34.002,0 59.659,15.668 68.333,29.331 h 42.829 C 276.831,72.663 275,67.499 275,67.499 H 234.002 C 225.504,53.837 198.497,38.168 164.495,38.168"
     id="path310"
     inkscape:connector-curvature="0" />
  <path
     d="m 53.17,131.831 c 27.335,29.167 50.668,54.507 109.835,54.507 51.832,0 91.995,-25.668 110.833,-57.171 h -40.504 c -19.003,14.331 -42.171,25.997 -71.667,25.997 -27.171,0 -55.669,-11.326 -69.331,-32.16 C 86.996,115 84.003,105.669 84.003,95 c 0,-18.497 22.664,-56.831 80.668,-56.831 33.991,0 60.998,15.668 69.495,29.331 h 40.833 C 255.997,30 206.995,7.5 158.004,7.5 109.836,7.5 73.169,35.329 51.995,60.329 24.002,93.333 16.666,95.669 16.666,95.669 c 18.169,13.497 25.329,24.167 36.503,36.161"
     id="path312"
     inkscape:connector-curvature="0"
     style="fill:#ffffff" />
  <path
     d="m 188.663,91.162 h -9.167 V 86.83 h -13.498 v 8.839 h 4.507 v -4.332 h 8.826 l 4.672,4.332 h 9.167 V 83.662 l -4.507,-4.496 z"
     id="path314"
     inkscape:connector-curvature="0" />
  <path
     d="m 150.834,119.671 4.331,4.496 h 38.005 v -11.831 l -4.507,-4.507 v 11.842 z"
     id="path316"
     inkscape:connector-curvature="0" />
  <path
     d="m 165.998,103.333 v 8.838 h 4.507 v -4.342 h 11.162 v -7.665 l -4.496,-4.495 v 7.664 h -11.174 z"
     id="path318"
     inkscape:connector-curvature="0" />
  <path
     d="m 150.834,86.831 4.331,4.507 h 1.667 v -4.507 h -5.997 z"
     id="path320"
     inkscape:connector-curvature="0" />
  <path
     d="m 98.839,86.831 4.496,4.507 h 1.503 V 86.831 H 98.84 Z"
     id="path322"
     inkscape:connector-curvature="0" />
  <path
     d="m 98.839,119.671 4.496,4.496 h 21.162 v -7.5 l -4.496,-4.496 v 7.5 z"
     id="path324"
     inkscape:connector-curvature="0" />
  <path
     d="m 131.339,101.338 4.824,10.833 h 2.5 l -2.829,-6.338 6.831,-5.669 v -8.826 l -4.495,-4.507 v 8.839 l -6.832,5.668 z"
     id="path326"
     inkscape:connector-curvature="0" />
  <path
     d="m 114.004,103.333 v 8.838 h 4.495 v -4.507 h 5.998 l -1.996,-4.331 z"
     id="path328"
     inkscape:connector-curvature="0" />
  <path
     d="m 141.163,119.671 h -11.491 l 4.332,4.496 h 11.667 v -7.5 l -4.507,-4.496 v 7.5 z"
     id="path330"
     inkscape:connector-curvature="0" />
  <path
     d="m 129.004,91.338 v -2.5 l -2.336,-2.007 h -12.664 v 9.003 h 4.495 v -4.496 z"
     id="path332"
     inkscape:connector-curvature="0" />
  <path
     d="m 165.998,86.831 h 13.498 v 4.332 h 9.167 V 79.167 h -37.829 v 7.664 h 5.997 v 25.34 h -5.997 v 7.5 h 37.829 v -11.842 h -9.167 v 4.342 h -13.498 v -8.838 h 11.174 V 95.669 H 165.998 V 86.83 Z"
     id="path334"
     inkscape:connector-curvature="0"
     style="fill:#ffffff" />
  <path
     d="m 141.163,112.171 h -5 l -4.66,-11.009 6.667,-5.493 V 86.83 l -9.167,-7.664 H 98.838 v 7.664 h 5.998 v 25.34 h -5.998 v 7.5 H 120 v -7.5 h -6.162 v -8.838 h 8.662 l 1.996,4.496 5.176,12.007 h 11.491 V 112.17 Z M 118.498,95.833 h -4.495 v -8.838 h 12.664 l 2.336,2.007 v 5.164 l -2.172,1.831 h -8.333 z"
     id="path336"
     inkscape:connector-curvature="0"
     style="fill:#ffffff" />
  <path
     d="m 198.334,86.831 4.331,4.507 h 1.667 v -4.507 h -5.997 z"
     id="path338"
     inkscape:connector-curvature="0" />
  <path
     d="m 226.996,91.338 v -2.5 l -2.324,-2.007 h -11.338 v 25.34 h 4.496 V 91.338 h 9.167 z"
     id="path340"
     inkscape:connector-curvature="0" />
  <path
     d="m 235.999,112.171 -9.002,7.5 h -28.662 l 4.331,4.496 H 228.5 l 12.007,-9.836 V 91.338 L 236,86.831 v 25.34 z"
     id="path342"
     inkscape:connector-curvature="0" />
  <path
     d="m 265.999,103.333 h -11.502 l -8.991,-7.664 14.331,12.16 h 8.498 v -2.5 z"
     id="path344"
     inkscape:connector-curvature="0" />
  <path
     d="m 281.832,107.829 -4.496,-4.496 v 8.662 l -9.002,7.84 h -11.502 l -2.336,-2.172 v 2.172 h -8.991 l 4.331,4.495 h 9.167 v -2.16 l 2.336,1.996 h 8.827 l 11.667,-9.671 v -6.667 z"
     id="path346"
     inkscape:connector-curvature="0" />
  <path
     d="m 268.334,91.162 v -2.324 l -2.336,-2.007 h -9.002 l -2.324,2.007 v 5 l 2.324,1.832 h 2.171 v -2.336 l 2.336,-1.996 h 6.667 l 4.66,4.332 h 9.002 V 83.663 l -4.496,-4.496 v 11.996 h -9.002 z"
     id="path348"
     inkscape:connector-curvature="0" />
  <path
     d="m 256.667,112.171 h 2.5 l -4.671,-4.342 v 2.5 z"
     id="path350"
     inkscape:connector-curvature="0" />
  <path
     d="m 235.999,112.171 v -25.34 l -9.167,-7.664 h -28.498 v 7.664 h 5.997 v 25.34 h -5.997 v 7.5 h 28.662 l 9.002,-7.5 z m -18.169,0 h -4.496 v -25.34 h 11.338 l 2.324,2.007 v 21.491 l -2.16,1.842 h -7.007 z"
     id="path352"
     inkscape:connector-curvature="0"
     style="fill:#ffffff" />
  <path
     d="m 254.496,117.664 2.336,2.172 h 11.502 l 9.002,-7.84 v -8.662 l -9.167,-7.664 h -11.173 l -2.324,-1.832 v -5 l 2.324,-2.007 h 9.002 l 2.336,2.007 v 2.324 h 9.002 V 79.166 h -9.002 v 1.996 l -2.336,-1.996 h -11.327 l -9.167,7.664 v 8.839 l 8.991,7.664 h 11.502 l 2.336,1.996 v 5 l -2.171,1.842 h -9.496 l -2.171,-1.842 v -2.5 h -8.991 v 12.007 h 8.991 v -2.172 z"
     id="path354"
     inkscape:connector-curvature="0"
     style="fill:#ffffff" />
  <path
     d="m 268.334,173.333 h -2.829 v 7.829 h -2.007 v -7.829 h -2.829 v -1.667 h 7.829 v 1.667 z m 13.169,8.004 h -2.007 v -7.675 l -2.829,7.675 h -1.831 l -2.664,-7.675 v 7.675 h -2.007 v -9.671 h 3.333 l 2.171,6.338 2.336,-6.338 h 3.333 v 9.671 h 0.164 z"
     id="path356"
     inkscape:connector-curvature="0" />
</svg>
